<?xml version="1.0" encoding="UTF-8" standalone="no"?>
<!-- Created with Inkscape (http://www.inkscape.org/) -->

<svg
   xmlns:dc="http://purl.org/dc/elements/1.1/"
   xmlns:cc="http://creativecommons.org/ns#"
   xmlns:rdf="http://www.w3.org/1999/02/22-rdf-syntax-ns#"
   xmlns:svg="http://www.w3.org/2000/svg"
   xmlns="http://www.w3.org/2000/svg"
   xmlns:sodipodi="http://sodipodi.sourceforge.net/DTD/sodipodi-0.dtd"
   xmlns:inkscape="http://www.inkscape.org/namespaces/inkscape"
   version="1.1"
   id="svg922"
   width="82.559998"
   height="68.480003"
   viewBox="0 0 82.559998 68.480003"
   sodipodi:docname="comment.svg"
   inkscape:version="0.92.4 5da689c313, 2019-01-14">
  <metadata
     id="metadata928">
    <rdf:RDF>
      <cc:Work
         rdf:about="">
        <dc:format>image/svg+xml</dc:format>
        <dc:type
           rdf:resource="http://purl.org/dc/dcmitype/StillImage" />
        <dc:title></dc:title>
      </cc:Work>
    </rdf:RDF>
  </metadata>
  <defs
     id="defs926" />
  <sodipodi:namedview
     pagecolor="#ffffff"
     bordercolor="#666666"
     borderopacity="1"
     objecttolerance="10"
     gridtolerance="10"
     guidetolerance="10"
     inkscape:pageopacity="0"
     inkscape:pageshadow="2"
     inkscape:window-width="3200"
     inkscape:window-height="1734"
     id="namedview924"
     showgrid="false"
     inkscape:zoom="15.637113"
     inkscape:cx="41.279999"
     inkscape:cy="34.240002"
     inkscape:window-x="0"
     inkscape:window-y="66"
     inkscape:window-maximized="1"
     inkscape:current-layer="svg922" />
  <path
     style="fill:#000000;stroke-width:0.31999999"
     d="M 40.319999,62.398496 C 33.457455,61.680652 29.050019,60.24871 26.441594,57.88951 24.270154,55.925542 24.109691,55.860847 22.767642,56.408255 18.689333,58.071763 13.598144,58.651158 9.4633812,57.922332 4.1597445,56.987468 3.205343,56.47846 4.4883378,55.269004 4.9329237,54.849903 5.8440309,54.418175 6.5130206,54.309615 8.6156475,53.968406 14.413131,48.817013 15.867939,45.99724 c 0.708656,-1.373545 0.742583,-1.60872 0.346239,-2.4 C 14.185291,39.54668 15.114724,30.637324 18.170312,24.846144 23.350696,15.02789 30.607517,9.2116222 40.159999,7.2216339 c 1.408,-0.2933168 3.136,-0.6651011 3.84,-0.8261872 4.041257,-0.9247021 13.052723,-1.1961591 15.761603,-0.4747949 4.467177,1.1895936 9.154211,4.1762722 13.440111,8.5643272 4.879613,4.995923 5.789485,7.64819 6.008595,17.515022 0.216871,9.765934 -1.227023,14.280663 -6.447532,20.160001 -4.316336,4.86106 -5.652518,5.714567 -12.491395,7.979076 -6.638889,2.198288 -13.311661,2.953955 -19.951382,2.259418 z M 52.4394,59.571327 c 0.769671,-0.17655 1.587178,-0.248944 1.816682,-0.160873 0.229504,0.08807 1.111776,-0.154842 1.960598,-0.539802 0.848826,-0.384963 2.191319,-0.890355 2.983319,-1.123101 3.565481,-1.047782 7.411513,-2.886419 8.319999,-3.977462 0.088,-0.105683 0.54362,-0.48617 1.012484,-0.84553 0.733779,-0.562397 2.560556,-2.758893 5.304825,-6.378461 2.361283,-3.114426 3.324019,-7.263331 3.266035,-14.074941 -0.07635,-8.968691 -0.948237,-11.557861 -5.627408,-16.711156 -1.158605,-1.276 -2.306662,-2.32 -2.551244,-2.32 -0.24458,0 -0.444692,-0.130987 -0.444692,-0.291082 0,-0.357065 -3.975292,-3.00183 -6.165481,-4.1018994 C 58.894018,7.3290006 54.880235,6.9747501 48.447711,7.8231559 33.338534,9.8159534 26.309309,14.457756 20.000658,26.608385 c -2.605496,5.018255 -3.226456,14.152116 -1.147764,16.882779 1.096688,1.440656 -2.015279,5.907901 -6.484709,9.308838 -1.503417,1.144 -2.7412937,2.167114 -2.7508358,2.273588 -0.026291,0.29336 4.2838168,0.592425 5.6565548,0.392492 0.663353,-0.09661 2.822767,-0.748179 4.798698,-1.447923 4.019265,-1.423353 5.109609,-1.423446 6.04195,-6.4e-4 2.351574,3.588957 4.200335,4.312528 15.165447,5.935479 1.308954,0.193737 9.937283,-0.101463 11.159401,-0.381799 z"
     id="path932"
     inkscape:connector-curvature="0"
     sodipodi:nodetypes="sscsccsssssssssssccccccssssssssssccccccc" />
</svg>
