<?xml version="1.0" encoding="UTF-8" standalone="no"?>
<!-- Created with Inkscape (http://www.inkscape.org/) -->

<svg
   xmlns:dc="http://purl.org/dc/elements/1.1/"
   xmlns:cc="http://creativecommons.org/ns#"
   xmlns:rdf="http://www.w3.org/1999/02/22-rdf-syntax-ns#"
   xmlns:svg="http://www.w3.org/2000/svg"
   xmlns="http://www.w3.org/2000/svg"
   xmlns:sodipodi="http://sodipodi.sourceforge.net/DTD/sodipodi-0.dtd"
   xmlns:inkscape="http://www.inkscape.org/namespaces/inkscape"
   version="1.1"
   id="svg1304"
   width="104.32"
   height="121.28"
   viewBox="0 0 104.32 121.28"
   sodipodi:docname="bibed-property-url.svg"
   inkscape:version="0.92.4 5da689c313, 2019-01-14">
  <metadata
     id="metadata1310">
    <rdf:RDF>
      <cc:Work
         rdf:about="">
        <dc:format>image/svg+xml</dc:format>
        <dc:type
           rdf:resource="http://purl.org/dc/dcmitype/StillImage" />
        <dc:title></dc:title>
      </cc:Work>
    </rdf:RDF>
  </metadata>
  <defs
     id="defs1308" />
  <sodipodi:namedview
     pagecolor="#ffffff"
     bordercolor="#666666"
     borderopacity="1"
     objecttolerance="10"
     gridtolerance="10"
     guidetolerance="10"
     inkscape:pageopacity="0"
     inkscape:pageshadow="2"
     inkscape:window-width="3200"
     inkscape:window-height="1734"
     id="namedview1306"
     showgrid="false"
     inkscape:zoom="10.438654"
     inkscape:cx="52.16"
     inkscape:cy="60.639999"
     inkscape:window-x="0"
     inkscape:window-y="66"
     inkscape:window-maximized="1"
     inkscape:current-layer="svg1304" />
  <path
     style="fill:#000000;stroke-width:0.31999999"
     d="M 6.2655258,114.59679 C 3.3866979,113.99054 3.1905884,108.04424 5.9318733,104.48 c 1.8251709,-2.3731 6.7684627,-7.52 7.2225177,-7.52 0.131942,0 0.432475,-0.192579 0.66785,-0.427955 0.235376,-0.235376 1.506031,-0.995943 2.823679,-1.690151 1.317647,-0.694208 3.069298,-1.725628 3.892557,-2.292044 0.82326,-0.566416 1.560585,-1.02985 1.638501,-1.02985 0.07792,0 0.843971,-0.31615 1.702344,-0.702557 0.858373,-0.386406 1.747836,-0.734717 1.976586,-0.774022 0.623823,-0.107184 1.279571,-0.730643 1.763956,-1.677091 4.060902,-7.934695 5.623019,-11.232586 6.28939,-13.277965 0.220695,-0.677399 0.854263,-2.045399 1.407933,-3.04 2.021827,-3.631971 3.017207,-5.993261 3.999725,-9.488365 1.032125,-3.671558 1.911942,-7.28048 2.262365,-9.28 0.21591,-1.232 0.770921,-3.769578 1.233353,-5.639059 l 0.840788,-3.399056 -1.862996,-3.960944 C 39.787158,36.021766 38.52609,32.513987 38.282384,30.523008 38.198701,29.839354 37.986102,28.904003 37.809939,28.444452 37.633776,27.9849 37.40225,26.6889 37.295437,25.564452 37.188624,24.440003 36.959526,22.8 36.786333,21.92 36.330032,19.601524 36.604835,12.976209 37.239693,10.989789 38.233222,7.8811283 41.34217,4.5088406 41.839837,6 c 0.07342,0.22 0.498131,0.4 0.943798,0.4 0.931114,0 2.968199,2.0129565 3.959479,3.912579 1.360208,2.606614 1.930512,19.483381 0.851817,25.207421 -0.281923,1.496 -0.68728,4.179373 -0.900793,5.96305 -0.441184,3.685584 -0.73577,2.750627 3.061593,9.71695 1.007351,1.848 2.62432,4.872 3.593264,6.72 1.506211,2.872682 2.279754,3.893728 5.333514,7.04 1.964486,2.024 4.346473,4.580346 5.293299,5.680768 1.920989,2.232611 3.298512,2.84512 5.545027,2.465574 1.307159,-0.220841 9.842819,-3.233123 12.30161,-4.341302 0.738342,-0.332771 1.489277,-0.60504 1.668739,-0.60504 0.179466,0 0.461366,-0.252378 0.626448,-0.560835 0.166794,-0.311655 1.344765,-0.899123 2.651261,-1.322215 1.293107,-0.418758 2.969101,-0.972579 3.724425,-1.230716 6.179402,-2.111847 10.443442,0.799472 9.803782,6.693622 -0.27494,2.533491 -2.128502,4.56711 -5.534412,6.072054 C 93.59521,78.327776 92.352,78.887731 92,79.056259 c -1.634394,0.782506 -6.055501,1.855514 -8.499472,2.062835 -1.48529,0.125997 -2.803334,0.291034 -2.928986,0.366749 -0.125651,0.07571 -1.133651,-0.09788 -2.24,-0.385757 C 77.225194,80.812205 76.104,80.528634 75.84,80.469923 73.972234,80.054563 72.092883,79.249312 69.937258,77.940762 66.985898,76.149165 67.032461,76.147264 61.92,78.268278 c -5.731514,2.377847 -8.735674,3.538176 -12.8,4.943895 -2.112,0.73047 -4.896835,1.818563 -6.188522,2.417977 -1.291689,0.599418 -2.421926,1.08985 -2.511641,1.08985 -0.08971,0 -0.616877,0.208154 -1.171475,0.462563 -1.184836,0.543514 -5.92666,2.377117 -8.747686,3.382621 -1.088628,0.388019 -2.05431,0.900902 -2.145959,1.139734 -0.985155,2.567274 -8.467434,12.919442 -10.736873,14.855082 -0.309526,0.264 -1.395115,1.488 -2.412421,2.72 -3.626682,4.39206 -6.1643568,5.90129 -8.9398972,5.31679 z m 3.3353872,-3.59471 c 1.39218,-0.72565 2.240505,-1.53725 4.882351,-4.67104 3.529732,-4.18701 5.676922,-6.492022 5.681636,-6.09926 0.0035,0.2912 0.08917,0.275 0.298886,-0.0565 0.161691,-0.255597 0.209237,-0.601846 0.105657,-0.769443 -0.103581,-0.167597 -0.0397,-0.212867 0.141951,-0.100599 0.18181,0.112365 1.044161,-0.908307 1.918355,-2.270556 C 24.440397,94.213165 25.052611,93.12 24.822116,93.12 c -0.29587,0 -2.57675,1.090579 -3.062116,1.464122 -0.264,0.203174 -1.637222,0.973161 -3.051605,1.711081 -5.159192,2.69169 -10.0844728,7.500607 -11.5150513,11.242997 -1.4254237,3.7289 -0.5413095,5.00092 2.4075693,3.46388 z M 31.604342,87.685027 C 31.909954,87.511792 32.952,87.09 33.92,86.747712 c 0.968,-0.342291 3.704,-1.405059 6.08,-2.361706 2.376,-0.956649 5.904,-2.343865 7.84,-3.0827 5.104669,-1.94809 5.414371,-2.069924 9.28,-3.650624 1.936,-0.791655 4.492,-1.774887 5.68,-2.18496 1.188,-0.410077 2.16,-0.828532 2.16,-0.929895 0,-0.202989 -4.623952,-4.707318 -6.4,-6.234435 -0.616,-0.529661 -1.539757,-1.534605 -2.05279,-2.233206 -0.513034,-0.698602 -1.31914,-1.661866 -1.791348,-2.140589 -0.472204,-0.47872 -1.321472,-1.81072 -1.88726,-2.96 C 52.262813,59.82032 51.664918,58.88 51.499949,58.88 51.334976,58.88 51.2,58.676 51.2,58.426666 c 0,-0.249332 -0.108,-0.501332 -0.24,-0.56 -0.316986,-0.14088 -2.399693,-3.605549 -3.141891,-5.226666 -0.322314,-0.704 -1.01641,-1.988077 -1.542439,-2.853507 -0.956409,-1.573504 -0.956409,-1.573504 -1.351696,-0.48 C 44.70657,49.907923 44.516781,50.76 44.502227,51.2 c -0.03355,1.014266 -1.982374,8.762246 -3.259785,12.96 -0.535584,1.76 -1.814266,4.865299 -2.841517,6.900666 -1.027251,2.035366 -2.516826,5.220348 -3.310163,7.077737 -0.793338,1.857386 -2.10105,4.656087 -2.906026,6.219331 -1.772516,3.442186 -1.881083,4.064583 -0.580394,3.327293 z m 51.862884,-9.158678 c 2.385238,-0.253741 5.459651,-1.026858 6.23048,-1.566768 0.338672,-0.237216 0.801168,-0.360157 1.027769,-0.2732 0.62929,0.241481 3.238765,-1.063466 4.617629,-2.309184 2.97919,-2.69152 2.932419,-6.461338 -0.08719,-7.027821 C 93.401696,67.001523 87.258682,68.782163 81.44,71.354112 77.081728,73.280538 71.836992,75.2 70.931501,75.2 70.639174,75.2 70.4,75.416 70.4,75.68 c 0,0.264 0.168662,0.48 0.374803,0.48 0.206141,0 0.62393,0.225456 0.928416,0.501011 0.786375,0.711661 8.535283,2.49297 9.524007,2.189367 0.234976,-0.07215 1.242976,-0.217965 2.24,-0.324029 z M 44.962032,34.72 C 45.920538,27.755502 45.556874,13.911849 44.354326,11.586382 43.680019,10.282414 42.453702,9.180993 41.53993,9.0586224 38.609482,8.6661821 38.054803,22.551133 40.647632,31.395105 c 0.835094,2.84845 3.218474,8.078463 3.523706,7.732306 C 44.291328,38.991334 44.647139,37.008 44.962032,34.72 Z"
     id="path1314"
     inkscape:connector-curvature="0"
     inkscape:export-xdpi="450.60025"
     inkscape:export-ydpi="450.60025" />
</svg>
