<?xml version="1.0" encoding="UTF-8" standalone="no"?>
<!-- Created with Inkscape (http://www.inkscape.org/) -->

<svg
   xmlns:dc="http://purl.org/dc/elements/1.1/"
   xmlns:cc="http://creativecommons.org/ns#"
   xmlns:rdf="http://www.w3.org/1999/02/22-rdf-syntax-ns#"
   xmlns:svg="http://www.w3.org/2000/svg"
   xmlns="http://www.w3.org/2000/svg"
   xmlns:sodipodi="http://sodipodi.sourceforge.net/DTD/sodipodi-0.dtd"
   xmlns:inkscape="http://www.inkscape.org/namespaces/inkscape"
   version="1.1"
   id="svg118"
   width="172.8"
   height="119.04"
   viewBox="0 0 172.8 119.04"
   sodipodi:docname="article.svg"
   inkscape:version="0.92.4 5da689c313, 2019-01-14">
  <metadata
     id="metadata124">
    <rdf:RDF>
      <cc:Work
         rdf:about="">
        <dc:format>image/svg+xml</dc:format>
        <dc:type
           rdf:resource="http://purl.org/dc/dcmitype/StillImage" />
        <dc:title></dc:title>
      </cc:Work>
    </rdf:RDF>
  </metadata>
  <defs
     id="defs122" />
  <sodipodi:namedview
     pagecolor="#ffffff"
     bordercolor="#666666"
     borderopacity="1"
     objecttolerance="10"
     gridtolerance="10"
     guidetolerance="10"
     inkscape:pageopacity="0"
     inkscape:pageshadow="2"
     inkscape:window-width="3200"
     inkscape:window-height="1745"
     id="namedview120"
     showgrid="false"
     inkscape:zoom="5.2828405"
     inkscape:cx="86.400002"
     inkscape:cy="59.52"
     inkscape:window-x="0"
     inkscape:window-y="55"
     inkscape:window-maximized="1"
     inkscape:current-layer="svg118" />
  <path
     style="fill:#000000;stroke-width:0.31999999"
     d="m 77.45187,102.12636 c -2.95047,-0.64584 -5.758316,-2.231916 -6.407804,-3.619606 -0.288506,-0.61641 -2.360554,-2.97873 -4.604554,-5.2496 -2.244,-2.27087 -4.08,-4.32996 -4.08,-4.57577 0,-0.2458 -0.140301,-0.44692 -0.311782,-0.44692 -0.171482,0 -0.520871,-0.396 -0.776426,-0.88 -0.255552,-0.484 -1.047165,-1.528 -1.759136,-2.319997 -0.711971,-0.792 -1.298579,-1.537715 -1.303574,-1.657142 -0.01155,-0.275956 -0.28825,-0.547738 -3.52562,-3.462858 -1.46592,-1.32 -3.789628,-3.433859 -5.163798,-4.697462 -2.316358,-2.129991 -3.203254,-2.771421 -4.947421,-3.578125 -0.367267,-0.169866 -1.182208,-0.789351 -1.810982,-1.376631 -0.628775,-0.58728 -1.552282,-1.325049 -2.052243,-1.639484 -2.00576,-1.261469 -4.47985,-2.700522 -6.994413,-4.068298 -2.504352,-1.362221 -4.690829,-2.798784 -9.222192,-6.05919 -1.084827,-0.780554 -3.268413,-2.208308 -4.852413,-3.172788 -3.153225,-1.919958 -6.507121,-5.102614 -7.567496,-7.181123 -1.167112,-2.287728 -0.485997,-9.033321 1.081281,-10.708745 1.440603,-1.54001 8.110835,-6.001002 10.486215,-7.013088 2.723577,-1.160442 7.442928,-2.756832 10.24,-3.463831 2.965744,-0.749631 3.572525,-0.862064 6.88,-1.274827 0.88,-0.109821 2.968,-0.400505 4.64,-0.645964 1.672,-0.245458 5.416,-0.604159 8.32,-0.797113 2.904,-0.192954 6.432,-0.491834 7.84,-0.664178 1.408,-0.172345 4.072,-0.4541 5.92,-0.626123 4.175776,-0.388706 7.105731,-0.892265 7.504,-1.289681 1.17969,-1.177165 8.593066,3.172045 14.653968,8.597057 1.101117,0.985591 2.350714,2.086196 2.77688,2.445789 0.426168,0.359594 1.068418,0.941805 1.427228,1.293805 0.35881,0.352 1.54383,1.36 2.63337,2.24 3.18173,2.569802 5.928662,4.919856 7.614942,6.514733 0.86371,0.816896 2.24499,1.989267 3.06951,2.605267 0.82453,0.616 2.13385,1.668128 2.90962,2.338061 4.46535,3.856169 10.80064,7.960342 18.37048,11.900896 2.112,1.099421 5.26856,2.752473 7.01458,3.673449 1.74602,0.920973 3.74941,1.877309 4.45199,2.125194 0.70257,0.247882 2.15401,1.000918 3.22542,1.673414 1.07141,0.6725 2.41562,1.383005 2.98714,1.578906 0.97731,0.334992 3.19976,1.813706 3.64092,2.422502 0.11003,0.151837 0.49391,0.182797 0.85307,0.0688 0.90639,-0.287677 1.15364,0.287827 0.53155,1.237257 -0.46941,0.716419 -1.15164,1.138592 -1.82802,1.131207 -0.64374,-0.007 -2.28606,1.082732 -1.83665,1.218704 0.264,0.07988 0.624,0.314051 0.8,0.520387 0.176,0.206339 1.02417,0.801773 1.88482,1.32319 0.86066,0.521415 2.08466,1.275079 2.72,1.674807 0.63535,0.399724 1.37118,0.819968 1.63518,0.933872 0.264,0.113904 1.08195,0.614854 1.81766,1.113225 0.73571,0.498368 1.48063,0.906125 1.65538,0.906125 1.0757,0 3.57085,3.745638 3.56206,5.347251 -0.007,1.26259 -0.23531,1.46376 -2.3951,2.10974 -1.056,0.31584 -2.568,0.79079 -3.36,1.05545 -2.84154,0.94954 -13.00687,3.70551 -15.32978,4.15613 -1.30338,0.25284 -3.17538,0.66063 -4.16,0.90621 -0.98462,0.24557 -2.79822,0.55604 -4.03022,0.68991 -2.89898,0.31503 -2.8009,0.29963 -3.36,0.52765 -0.74836,0.3052 -2.19129,0.56947 -4.8,0.87913 -1.32,0.15668 -4.416,0.64516 -6.88,1.0855 -2.464,0.44035 -5.19784,0.8832 -6.07519,0.98413 -0.87736,0.10093 -1.84292,0.26213 -2.14569,0.35822 -0.30277,0.0961 -1.24093,0.29762 -2.08481,0.44784 -0.84387,0.15021 -2.68631,0.488836 -4.09431,0.752506 -1.408,0.26366 -3.856002,0.57825 -5.440002,0.69909 -1.584,0.12083 -3.52778,0.35917 -4.31951,0.52964 -3.649945,0.78588 -12.801756,1.02217 -15.628128,0.4035 z m 16.107638,-2.998476 c 1.76,-0.19376 4.568,-0.49744 6.24,-0.67484 1.672002,-0.17741 5.128002,-0.73362 7.680002,-1.23604 2.552,-0.50241 5.504,-1.01085 6.56,-1.12986 1.056,-0.11901 3.504,-0.50696 5.44,-0.86212 1.936,-0.35516 4.528,-0.77074 5.76,-0.92352 1.232,-0.15278 3.176,-0.48627 4.32,-0.74107 1.144,-0.25481 3.016,-0.55898 4.16,-0.67593 1.144,-0.11696 2.8,-0.41147 3.68,-0.65448 0.88,-0.24301 2.752,-0.67374 4.16,-0.95719 5.44335,-1.09582 17.76,-4.77721 17.76,-5.3084 0,-0.64147 -2.47925,-2.258149 -4.34829,-2.835436 -2.03264,-0.627817 -7.81171,-0.962438 -7.81171,-0.452317 0,0.11122 0.504,0.677549 1.12,1.258512 1.21726,1.148031 1.38489,1.657711 0.63928,1.943831 -0.88115,0.33813 -2.02,-0.19155 -3.537,-1.645047 -0.9186,-0.880144 -1.7977,-1.43951 -2.26234,-1.43951 -0.71428,0 -1.05452,0.458861 -0.51409,0.693334 0.13522,0.05867 0.55329,0.504378 0.92905,0.990471 1.33124,1.722142 -0.0322,2.959382 -1.56195,1.417412 -1.51691,-1.528987 -3.09252,-2.461207 -4.1516,-2.456318 -1.98535,0.0092 -2.00252,0.380173 -0.11188,2.417528 1.74819,1.88385 2.13841,2.6627 1.37053,2.73549 -0.89055,0.0844 -1.32704,-0.14336 -3.22209,-1.68138 -3.46372,-2.811132 -4.23917,-2.90855 -9.62566,-1.20922 -0.51027,0.16097 -1.26627,0.29268 -1.68,0.29268 -1.11969,0 -0.94375,0.34104 1.16465,2.25756 2.01558,1.83214 2.36553,2.67889 1.25307,3.03198 -0.46974,0.14908 -0.92412,-0.0213 -1.52,-0.57006 -0.46748,-0.43049 -1.79352,-1.44482 -2.94675,-2.25407 -2.09677,-1.47135 -2.09677,-1.47135 -3.62705,-1.08097 l -1.53028,0.39037 1.78705,1.63681 c 1.87678,1.71898 2.05063,2.05128 1.36912,2.61688 -0.31714,0.2632 -1.03105,-0.11146 -2.96,-1.55341 -2.37056,-1.77207 -3.34206,-2.25811 -3.34206,-1.67206 0,0.13366 0.29711,0.42857 0.66024,0.65535 0.41405,0.25858 0.62287,0.67509 0.56,1.11698 -0.14778,1.03882 -1.95368,0.88144 -3.16127,-0.2755 -0.91732,-0.87885 -0.91732,-0.87885 -3.40814,0.0995 -1.36996,0.53807 -3.10283,1.15914 -3.85083,1.38015 -1.64435,0.48585 -1.65037,0.53354 -0.24,1.90053 1.20962,1.17241 1.43025,2.05247 0.59491,2.37302 -0.56559,0.21704 -1.23794,-0.16652 -2.99491,-1.70854 -1.14096,-1.00137 -2.02738,-1.21033 -2.871032,-0.67679 -0.40351,0.25518 -0.39204,0.3282 0.08,0.50933 0.738012,0.2832 0.702442,1.3318 -0.0533,1.57166 -0.34682,0.11008 -1.08966,-0.0945 -1.74324,-0.48015 -1.13889,-0.67196 -1.13889,-0.67196 -1.85611,0.15291 -0.56962,0.65512 -0.9188,0.78978 -1.69676,0.65432 -1.92016,-0.33432 -2.913879,0.21711 -2.794522,1.55075 0.132906,1.485 -0.833075,1.62938 -2.058061,0.30761 -0.684816,-0.73894 -0.893072,-0.80931 -1.420377,-0.48 -0.339847,0.21223 -1.17906,0.38588 -1.864922,0.38588 -0.977898,0 -1.283139,0.13812 -1.414384,0.64 -0.102211,0.39085 -0.436483,0.64 -0.858672,0.64 -0.793626,0 -2.888608,-1.48948 -2.888608,-2.05373 0,-0.30855 -4.62175,-4.00591 -5.968422,-4.77468 -0.202634,-0.11568 0.265366,0.75464 1.04,1.93404 0.77463,1.17939 1.408422,2.24232 1.408422,2.36204 0,0.11973 0.305645,0.29761 0.679213,0.3953 0.55064,0.144 0.65199,0.36307 0.535421,1.15732 -0.07909,0.53884 -0.13273,0.98515 -0.119213,0.9918 0.01354,0.007 0.600579,0.0937 1.304579,0.19344 0.704,0.0997 1.34272,0.24102 1.419376,0.31395 0.235744,0.22429 8.954077,-0.13323 12.34062,-0.50606 z m -17.621126,-1.53342 c -2.007907,-3.07439 -2.310121,-3.36638 -2.710284,-2.61868 -0.505719,0.94495 0.03808,1.92231 1.560819,2.80524 1.567011,0.90859 1.836185,0.86491 1.149465,-0.18656 z m 13.46113,-2.81551 c 1.337123,-0.20621 4.977406,-1.26066 6.079996,-1.76113 0.352,-0.15977 2.512,-0.929 4.800002,-1.70939 2.288,-0.7804 5.888,-2.02431 8,-2.76426 2.112,-0.73995 4.632,-1.5595 5.6,-1.82124 5.95258,-1.60947 11.86006,-3.083616 15.17126,-3.785814 2.09619,-0.444531 3.91149,-0.870186 4.03399,-0.945898 0.25248,-0.156041 8.47588,-1.002585 14.21469,-1.463305 2.10097,-0.168669 3.86682,-0.353543 3.9241,-0.410829 0.0573,-0.05729 -1.13441,-0.875242 -2.64823,-1.81768 -1.51381,-0.942435 -3.04847,-2.021149 -3.41035,-2.397139 -0.59058,-0.613613 -0.82526,-0.653293 -2.29171,-0.387482 -1.96065,0.355389 -1.93785,0.337626 -1.44542,1.126131 0.79419,1.271703 -0.6705,2.322327 -1.77548,1.273549 -1.51283,-1.435891 -1.75934,-1.527178 -3.55429,-1.316218 -1.7357,0.203997 -1.76555,0.224864 -1.57337,1.099831 0.33496,1.525085 -0.81557,1.828681 -2.22857,0.588057 -1.08351,-0.95134 -1.2173,-0.985145 -3.05488,-0.771872 -2.16565,0.251351 -2.16258,0.248445 -1.27193,1.204458 1.75987,1.888995 -0.52092,2.464643 -2.5211,0.636298 -1.34652,-1.230836 -1.34652,-1.230836 -3.33761,-0.938247 -2.85505,0.419549 -2.93888,0.454058 -2.47134,1.017405 1.16795,1.40729 -0.5358,1.82824 -2.6071,0.644144 -0.76596,-0.437882 -1.87942,-0.797882 -2.47434,-0.8 -1.08168,-0.0038 -1.08168,-0.0038 0.24,1.154672 2.04712,1.794422 1.35222,3.192954 -0.77886,1.567504 -0.58122,-0.443318 -1.22414,-0.806032 -1.42871,-0.806032 -0.20457,0 -0.79411,-0.300598 -1.31007,-0.668 -0.85001,-0.605261 -1.20028,-0.646365 -3.7294,-0.437651 -4.3607,0.359865 -4.33204,0.304605 -1.53572,2.960838 2.34221,2.22487 2.9583,3.26481 1.93416,3.26481 -0.93471,0 -2.60554,-0.88661 -3.27521,-1.737955 -2.30604,-2.931658 -4.819622,-3.889021 -8.354512,-3.182042 -1.36396,0.272794 -1.36703,0.268106 2.05408,3.141309 3.063372,2.572758 3.757972,3.698688 2.281782,3.698688 -0.44824,0 -1.688862,-0.80054 -3.120002,-2.01326 -3.85851,-3.269639 -5.394192,-4.122401 -6.715869,-3.729323 -0.604995,0.17993 -1.811552,0.46712 -2.681245,0.638199 -2.905587,0.571568 -3.255603,1.045449 -1.819904,2.463954 4.644135,4.58849 6.864168,7.14543 6.510768,7.49883 -0.271468,0.27147 -0.569523,0.27931 -1.100924,0.029 -1.276154,-0.6012 -7.608682,-6.5595 -7.608682,-7.15904 0,-0.60818 -1.345472,-0.58792 -2.573843,0.0387 l -1.33024,0.67864 1.072041,0.96727 c 0.589623,0.53199 1.756042,1.55661 2.592042,2.27691 3.188758,2.74748 1.503299,3.01034 -2.333472,0.36393 -3.190614,-2.20072 -3.615517,-2.34396 -4.521331,-1.52421 -0.809789,0.73285 -0.744381,1.01923 0.492889,2.15808 3.41417,3.14257 6.812253,4.58707 9.801914,4.16669 0.44,-0.0619 1.376,-0.20131 2.08,-0.30988 z m -18.08,-1.11084 c 0,-0.1795 0.395814,-0.9355 0.87959,-1.68 0.483776,-0.74451 0.882096,-1.50994 0.885156,-1.70096 0.0032,-0.19103 0.841024,-1.11785 1.86214,-2.05962 1.291005,-1.19068 1.810368,-1.88901 1.704887,-2.29237 -0.188784,-0.7219 0.304502,-1.046259 1.457558,-0.958396 0.497715,0.03792 1.447805,-0.285978 2.1628,-0.737335 0.701331,-0.442729 1.360298,-0.804966 1.464368,-0.804966 0.104067,0 0.405216,-0.216 0.669216,-0.48 0.264,-0.264 0.800912,-0.48 1.193143,-0.48 0.392227,0 0.849942,-0.119725 1.017142,-0.266054 0.433014,-0.378967 2.787885,-1.013946 3.760294,-1.013946 0.452122,0 1.227418,-0.166515 1.722874,-0.370035 0.495459,-0.203517 1.260832,-0.421037 1.700832,-0.483373 2.621006,-0.371331 7.094946,-1.128669 8.387778,-1.419862 0.82928,-0.186784 1.62362,-0.268013 1.7652,-0.180509 0.14159,0.0875 0.90716,0.03772 1.70128,-0.110643 0.79411,-0.148356 4.82377,-0.640695 8.95479,-1.094084 7.92149,-0.869401 13.92016,-1.604774 17.11095,-2.097616 1.056,-0.163107 3.18425,-0.440832 4.72944,-0.617164 1.54519,-0.176336 2.98519,-0.432708 3.2,-0.569719 0.21481,-0.137011 1.25914,-0.263673 2.32075,-0.281475 1.92714,-0.03231 6.15885,-0.899472 7.32748,-1.501546 0.7598,-0.391443 0.24682,-0.877872 -1.93738,-1.837107 -0.72583,-0.318768 -1.95121,-1.060467 -2.72305,-1.648224 -0.77185,-0.587753 -2.04998,-1.336377 -2.8403,-1.663613 -2.30928,-0.956163 -2.57359,-1.085321 -5.59694,-2.735104 -1.584,-0.864355 -4.032,-2.177747 -5.44,-2.918643 -5.92279,-3.116601 -9.67881,-5.260944 -10.88,-6.211478 -2.00053,-1.583069 -5.59842,-4.019805 -5.93533,-4.019805 -0.16757,0 -0.30467,-0.11959 -0.30467,-0.265754 0,-0.146163 -0.67974,-0.75391 -1.51054,-1.350544 -0.8308,-0.596636 -1.74463,-1.318873 -2.03073,-1.604972 -0.2861,-0.2861 -1.15435,-0.96482 -1.92945,-1.508269 -0.77511,-0.54345 -2.05728,-1.585098 -2.84928,-2.314775 -4.249642,-3.915222 -8.274162,-7.181318 -11.359998,-9.219196 -1.232,-0.81361 -2.430285,-1.663159 -2.662858,-1.887888 -0.232569,-0.224733 -0.607686,-0.408602 -0.833587,-0.408602 -0.225904,0 -0.755619,-0.415232 -1.177145,-0.922736 -0.783402,-0.943194 -5.349968,-4.44793 -7.27688,-5.58484 -1.678759,-0.990497 -2.418592,0.561832 -0.76953,1.614638 0.484,0.308999 1.052323,0.793696 1.262938,1.077111 0.210614,0.283411 1.431075,1.365913 2.712131,2.405561 3.558835,2.888183 3.784931,3.097584 3.784931,3.50545 0,0.810413 -2.944573,2.281341 -8.16,4.07623 -12.89128,4.436538 -13.761936,4.614842 -19.723325,4.03921 -4.972329,-0.480128 -8.478582,-0.569725 -9.716675,-0.248294 -0.528,0.137075 -2.256,0.56038 -3.84,0.940675 -2.869206,0.688854 -4.709469,1.327421 -7.494218,2.600489 -3.44607,1.575396 -3.279744,1.547991 -4.281139,0.705373 -0.50256,-0.422877 -1.259001,-0.768867 -1.680979,-0.768867 -0.544432,0 -0.919872,-0.302006 -1.292877,-1.04 -0.289107,-0.572 -0.821965,-1.364061 -1.184125,-1.760134 -0.36216,-0.396074 -1.246582,-1.620074 -1.965382,-2.72 -0.85804,-1.312996 -1.553232,-2.034986 -2.024094,-2.102122 -0.394452,-0.05624 -0.717186,-0.291446 -0.717186,-0.522678 0,-0.231232 -0.300524,-0.499012 -0.667832,-0.595063 -2.116499,-0.553478 2.059137,-3.15399 9.307832,-5.796752 5.598256,-2.041037 8.688643,-2.452365 20.8,-2.768467 10.366624,-0.270563 12.21105,-0.425382 17.071722,-1.432986 2.335059,-0.484051 2.878822,-0.710889 3.100262,-1.293319 0.411475,-1.082265 0.86473,-1.192151 2.006554,-0.486465 1.016985,0.628531 1.057507,0.629954 1.419779,0.04987 0.928326,-1.486488 -2.334903,-2.030429 -6.958317,-1.159867 -1.32,0.248548 -3.552,0.524435 -4.96,0.613082 -1.408,0.08865 -4.144,0.315563 -6.08,0.504258 -1.936,0.188694 -5.752,0.484851 -8.48,0.658126 -2.728,0.173275 -6.976,0.61951 -9.44,0.991628 -2.464,0.372122 -4.768,0.718141 -5.12,0.768932 -2.102854,0.303417 -8.644067,2.401612 -11.545507,3.703401 -1.162784,0.521705 -2.236412,0.948556 -2.385841,0.948556 -0.408839,0 -4.385523,2.507645 -6.429263,4.054208 -2.173757,1.64495 -2.71484,2.822266 -3.018804,6.568448 -0.231431,2.852266 0.07548,4.097344 1.009998,4.097344 0.268437,0 1.59537,1.116 2.948741,2.48 1.353372,1.364 3.036676,2.759341 3.740676,3.100758 0.704,0.341415 1.928,1.140868 2.72,1.776557 0.792,0.635687 2.372154,1.796346 3.511452,2.579242 2.031233,1.395805 2.592833,1.817021 3.924458,2.943443 0.364109,0.308 0.781447,0.56 0.927418,0.56 0.145968,0 1.167936,0.542074 2.271037,1.204611 1.103097,0.662538 2.399203,1.405568 2.880233,1.651184 0.481031,0.245613 1.133341,0.675539 1.449581,0.955389 0.31624,0.27985 1.074672,0.785971 1.685402,1.124717 0.610729,0.338745 1.182419,0.708813 1.270419,0.822371 0.22616,0.29185 3.915878,3.008589 4.3484,3.201728 2.078253,0.928026 15.181523,13.360867 17.15807,16.280187 0.97834,1.44498 7.217114,7.69957 7.69353,7.71303 0.132,0.004 0.24,-0.14008 0.24,-0.31957 z m -2.715411,-6.65069 c -0.349475,-0.0764 -0.855933,-0.3932 -1.125463,-0.70396 -0.269529,-0.31077 -1.135593,-1.09521 -1.924588,-1.743195 -3.028324,-2.487101 -5.720884,-4.948234 -9.294688,-8.495802 -2.038967,-2.024 -4.848557,-4.686909 -6.243533,-5.917578 -1.394973,-1.230668 -5.536464,-5.226982 -9.203309,-8.880694 -3.666848,-3.653715 -7.338848,-7.177584 -8.16,-7.830819 -0.821155,-0.653235 -2.29095,-1.912922 -3.266214,-2.799303 -2.072096,-1.883257 -7.082041,-5.737436 -8.466794,-6.513552 -0.528,-0.295929 -1.075156,-0.718054 -1.215901,-0.938054 -0.140745,-0.22 -0.428745,-0.410397 -0.64,-0.423104 -0.565414,-0.03401 -2.226309,-2.144992 -1.989333,-2.528426 0.334373,-0.541027 1.59757,-0.372243 2.331514,0.31153 0.377828,0.352 0.771002,0.64 0.87372,0.64 0.102718,0 0.50474,0.305734 0.89338,0.679408 0.388641,0.373674 1.71462,1.436045 2.94662,2.360826 6.205194,4.657814 9.50225,7.558467 16.172342,14.227942 3.086788,3.086502 7.190788,7.050886 9.12,8.809741 1.92921,1.758854 5.451658,5.100147 7.827658,7.425094 6.305974,6.170483 6.71271,6.536861 9.895341,8.913511 3.263046,2.436695 3.911635,3.940435 1.469248,3.406435 z m 3.600384,-3.704775 c -0.305264,-0.231804 -0.462147,-0.514342 -0.348627,-0.627862 0.262409,-0.26241 -0.831956,-1.49032 -1.328234,-1.49032 -0.204982,0 -0.664131,-0.324 -1.020326,-0.72 -0.356196,-0.396 -1.570164,-1.605859 -2.697709,-2.688576 -1.127543,-1.082717 -3.833181,-3.818717 -6.012531,-6.08 C 52.282962,62.871702 46.757381,57.339984 44.919512,55.81071 c -1.056,-0.878691 -2.28,-1.925718 -2.72,-2.326733 -0.44,-0.401011 -1.556,-1.317552 -2.48,-2.036752 -1.794218,-1.396544 -2.082614,-2.081846 -1.018269,-2.419654 0.76728,-0.243526 2.550227,0.873389 4.005613,2.509293 0.51296,0.576585 1.868656,1.787865 3.012656,2.691734 1.971162,1.557405 9.5568,9.280391 11.913114,12.128823 2.351196,2.842236 13.051494,13.245798 14.609782,14.20462 1.873728,1.152919 2.366339,1.832532 1.91407,2.640688 -0.364892,0.652026 -1.177811,0.697802 -1.951993,0.10992 z M 69.864459,70.074467 c -11.495296,-11.417514 -12.987773,-12.812298 -17.035024,-15.92 -0.229209,-0.176 -0.80671,-0.692602 -1.283334,-1.148003 -0.476624,-0.455402 -1.663245,-1.490115 -2.636938,-2.299367 -2.019558,-1.678486 -2.412201,-2.79263 -0.984166,-2.79263 0.621939,0 1.355421,0.452669 2.462934,1.52 0.867472,0.836 2.007952,1.847706 2.5344,2.248237 1.774279,1.349894 6.995251,6.251264 14.237181,13.365651 3.96,3.890259 8.840454,8.679203 10.845453,10.642099 3.098953,3.033882 3.58479,3.641997 3.240816,4.056458 -0.222547,0.268157 -0.572813,0.487555 -0.778368,0.487555 -0.205555,0 -4.976883,-4.572 -10.602954,-10.16 z m 12.495053,2.05081 c -1.056,-1.093239 -2.352,-2.331546 -2.88,-2.751796 -0.528,-0.420249 -3.172307,-2.864448 -5.876237,-5.431552 -2.703933,-2.567104 -5.583933,-5.221459 -6.4,-5.898569 -0.81607,-0.677107 -2.491763,-2.13584 -3.723763,-3.241629 -3.419146,-3.06887 -5.216448,-4.508429 -7.834678,-6.275222 -3.044384,-2.054362 -3.615936,-2.897028 -2.257408,-3.328205 0.978377,-0.310525 3.856294,1.723945 8.993651,6.357833 0.803859,0.725082 2.459859,2.180375 3.68,3.233984 1.220137,1.05361 3.412531,3.10561 4.871977,4.56 1.45945,1.454391 2.79145,2.644346 2.96,2.644346 0.168554,0 0.306458,0.127907 0.306458,0.28424 0,0.49952 4.956627,5.128285 7.817472,7.300374 2.954832,2.24345 3.534061,2.953831 3.218691,3.947472 -0.311049,0.980036 -0.811456,0.736237 -2.876163,-1.401276 z m 9.516867,1.00798 c -0.306275,-0.385664 -1.489744,-1.573664 -2.629929,-2.64 -1.140183,-1.066336 -3.228183,-3.025862 -4.64,-4.354508 -1.411815,-1.328644 -3.06113,-2.840644 -3.66514,-3.36 -0.604012,-0.519354 -1.972012,-1.75785 -3.04,-2.752212 -1.06799,-0.994358 -2.8043,-2.506358 -3.858467,-3.36 -1.054166,-0.853638 -2.474032,-2.05607 -3.155254,-2.67207 -2.190394,-1.980675 -2.668176,-2.366746 -5.346247,-4.32 -3.593958,-2.621254 -5.407347,-4.64 -4.168003,-4.64 0.161607,0 0.506723,-0.0817 0.766928,-0.181546 0.275383,-0.105673 0.892733,0.228663 1.477203,0.8 0.55226,0.53985 1.131143,0.981546 1.286407,0.981546 0.155267,0 0.330301,0.120819 0.388969,0.268486 0.05867,0.147664 1.618666,1.526666 3.466666,3.064442 3.952483,3.288979 6.387466,5.39625 9.263798,8.01704 1.152912,1.050483 2.263636,2.058483 2.468279,2.24 0.20464,0.181517 1.795293,1.698032 3.534777,3.370032 4.370893,4.201315 7.299168,6.764221 8.592052,7.52 1.2,0.701482 1.54392,2.1616 0.59492,2.525763 -0.713093,0.273642 -0.718728,0.271504 -1.336959,-0.506973 z m 8.186001,-0.587324 c -0.295422,-0.17472 -1.663422,-1.435274 -3.040002,-2.801229 -2.81794,-2.796205 -5.269164,-5.079133 -9.702866,-9.036701 -1.672,-1.492445 -3.112,-2.788944 -3.2,-2.881107 -0.622826,-0.652301 -10.046874,-8.37825 -11.2,-9.181901 -0.792,-0.551968 -1.829715,-1.374144 -2.306035,-1.827053 -0.476317,-0.452912 -0.963427,-0.823475 -1.082464,-0.823475 -0.119037,0 -0.485322,-0.310032 -0.813965,-0.688963 -1.736678,-2.002407 0.370374,-2.965354 2.216371,-1.012909 0.652352,0.689971 1.906093,1.818541 2.786093,2.507936 0.88,0.689395 1.826835,1.474054 2.10408,1.74369 0.50401,0.490172 2.888022,2.52664 5.062144,4.324172 3.215414,2.658461 9.547424,8.39472 12.673772,11.48136 1.936,1.911408 4.57103,4.274151 5.85563,5.250538 1.762532,1.339651 2.312172,1.93872 2.240002,2.441446 -0.10847,0.755613 -0.79839,0.97401 -1.59276,0.504196 z m 8.69713,-0.608004 c 0,-0.188902 -0.13403,-0.343462 -0.29785,-0.343462 -0.16382,0 -1.56782,-1.308704 -3.12,-2.908234 -1.55218,-1.599526 -3.83015,-3.671699 -5.06215,-4.604828 -1.232002,-0.933127 -2.825882,-2.252423 -3.541962,-2.931767 -0.71608,-0.679344 -2.58808,-2.387171 -4.159994,-3.795171 -1.571917,-1.408 -3.465879,-3.119533 -4.208804,-3.803405 -0.742924,-0.683872 -1.678928,-1.468787 -2.080006,-1.744256 -0.635878,-0.436733 -5.057347,-4.053174 -7.712586,-6.308336 -1.126931,-0.957129 -1.082563,-2.169529 0.08542,-2.334393 0.430141,-0.06071 0.934141,0.0848 1.12,0.32336 0.511284,0.656259 5.265114,5.035244 7.237447,6.666764 0.957264,0.791853 2.230899,1.915869 2.830297,2.497815 0.599399,0.581942 1.894093,1.734064 2.877096,2.560265 0.98301,0.826202 2.07187,1.862186 2.41971,2.302186 1.10593,1.398979 4.18584,4.263421 6.456502,6.004806 1.20828,0.926644 3.07253,2.510644 4.14278,3.52 1.07024,1.009357 2.484,2.30736 3.14168,2.884455 1.24095,1.088896 1.42568,2.058537 0.42875,2.250528 -0.30598,0.05893 -0.55633,-0.04742 -0.55633,-0.236327 z m 1.89836,-6.510131 c -4.7155,-4.666141 -7.28348,-6.968077 -11.326822,-10.153331 -1.00536,-0.792 -1.99524,-1.592109 -2.19973,-1.778022 -0.2045,-0.185911 -3.55839,-2.882615 -7.453102,-5.992672 -5.089651,-4.06426 -7.123837,-5.877207 -7.23256,-6.445946 -0.22721,-1.188576 1.192307,-1.417149 2.153856,-0.346819 0.176,0.19591 1.04,0.919197 1.92,1.607299 0.88,0.688106 2.68,2.198602 4,3.356662 1.32,1.158058 3.119996,2.674122 3.999996,3.369028 0.88,0.694908 2.07431,1.68992 2.65402,2.211142 0.57971,0.521219 1.76021,1.478294 2.62333,2.126835 0.863122,0.648538 1.480822,1.267661 1.372652,1.375827 -0.10817,0.108167 0.007,0.197789 0.25667,0.199162 0.58656,0.0032 3.88628,2.907309 12.18884,10.727392 2.82974,2.665299 3.85366,4.630112 2.41289,4.630112 -0.23743,0 -2.65395,-2.199002 -5.37004,-4.886669 z m 4.4648,-8.503833 c -1.37066,-1.060567 -3.95232,-2.804842 -4.44316,-3.001972 -0.264,-0.106028 -2.1622,-1.465097 -4.21824,-3.020153 -2.05603,-1.555056 -4.07203,-3.070186 -4.48,-3.366954 -1.46863,-1.068326 -4.951712,-3.687955 -7.492412,-5.635046 -1.42485,-1.091955 -2.69093,-1.985373 -2.813503,-1.985373 -0.122569,0 -0.396777,-0.144051 -0.60935,-0.320112 -0.21257,-0.176061 -0.734506,-0.585632 -1.159856,-0.910157 -0.870714,-0.66432 -0.741898,-1.649731 0.215657,-1.649731 1.279748,0 3.337282,1.469658 18.477704,13.19825 1.408,1.090713 3.57201,2.563308 4.80891,3.272432 3.55964,2.040771 4.10399,2.509484 3.84868,3.313907 -0.27009,0.850973 -1.11647,0.892573 -2.13443,0.104909 z M 34.199512,43.444509 c 0,-0.170474 -0.216,-0.227069 -0.48,-0.125764 -0.264,0.101309 -0.48,0.240788 -0.48,0.309959 0,0.06917 0.216,0.125763 0.48,0.125763 0.264,0 0.48,-0.139482 0.48,-0.309958 z m 6.095376,-0.994311 c 6.699747,-2.438179 12.001981,-3.169222 17.133219,-2.36224 3.597277,0.565738 8.820637,0.489091 10.422807,-0.152941 0.748598,-0.299984 0.748598,-0.299984 -0.0514,-0.322051 -1.591331,-0.0439 -3.341373,-0.742157 -4.221536,-1.684374 -1.737392,-1.859885 -0.855754,-2.965136 2.089146,-2.619021 1.488736,0.174973 1.827084,0.110202 2.395964,-0.458678 1.765098,-1.765098 5.123831,-3.567143 6.662583,-3.57464 0.201389,-9.6e-4 0.818121,-0.423981 1.370518,-0.939997 1.356707,-1.267354 0.664253,-1.723632 -1.701635,-1.121255 -1.870982,0.476372 -2.867853,0.650253 -6.413622,1.118714 -1.396221,0.184467 -2.654887,0.40727 -2.797031,0.495123 -0.313686,0.193869 -5.781193,0.430714 -13.544387,0.586723 -6.770246,0.136055 -11.5336,0.643709 -13.76,1.466468 -0.88,0.325203 -2.104,0.738588 -2.72,0.918636 -3.58073,1.046599 -6.728886,2.460458 -6.949018,3.120855 -0.06161,0.184835 0.170093,0.681862 0.5149,1.104505 0.626918,0.768442 0.626918,0.768442 1.690518,-0.247283 1.093168,-1.043961 6.477446,-3.414195 8.617811,-3.79368 0.900448,-0.159648 1.51872,-0.01405 2.81216,0.662279 1.996823,1.044112 3.013885,0.957443 5.421203,-0.461962 2.454535,-1.447248 6.02634,-1.46623 7.452957,-0.03961 2.162,2.162 -0.838694,3.738042 -8.223958,4.319437 -3.066803,0.24143 -4.836957,0.729146 -5.910042,1.628342 -1.009139,0.84561 -3.366403,3.340919 -3.156099,3.340919 0.08818,0 1.377402,-0.442922 2.864944,-0.984269 z m -3.615376,-1.654077 c 0.740877,-0.592736 0.4892,-1.228576 -0.337248,-0.852022 -1.111136,0.506269 -1.798931,1.704806 -0.802931,1.399171 0.407097,-0.124921 0.920179,-0.371139 1.140179,-0.547149 z m -3.898467,-0.486787 c -0.290035,-0.290038 -1.182339,0.240224 -0.973325,0.578413 0.143373,0.231981 0.35263,0.218403 0.668013,-0.04334 0.252585,-0.209625 0.389974,-0.450409 0.305312,-0.535073 z m 39.721949,-3.426723 c 3.101881,-0.983866 5.343296,-2.389981 4.398905,-2.759581 -2.027398,-0.793453 -5.579469,0.315571 -7.363613,2.299063 -0.340326,0.378352 -0.906774,0.805788 -1.258774,0.949859 -1.592003,0.651597 1.903107,0.246646 4.223482,-0.489341 z M 40.919512,36.714467 c -0.626678,-0.404992 -1.050298,-0.404992 -0.8,0 0.108774,0.176 0.441274,0.317795 0.738886,0.315101 0.466327,-0.0042 0.474775,-0.04777 0.06111,-0.315101 z m 38.215363,-0.20111 c 0.978887,-0.33354 1.385981,-0.609732 1.130999,-0.767319 -0.48752,-0.301305 -2.622618,0.3972 -2.795018,0.914394 -0.158131,0.4744 -0.160525,0.474611 1.664019,-0.147075 z M 50.519512,35.729385 c 0.67463,-0.202313 0.599411,-0.242624 -0.48,-0.257235 -0.704,-0.0095 -1.563107,0.196714 -1.90913,0.45832 -0.668576,0.505475 0.306781,0.423383 2.38913,-0.201085 z m 33.20536,-1.014918 c -0.07039,-0.22 -1.118512,-1.085011 -2.329171,-1.922246 -1.210656,-0.837236 -2.281069,-1.639741 -2.378691,-1.783341 -0.466285,-0.685898 -1.297466,-0.663037 -1.295476,0.03563 0.0022,0.742832 1.552148,1.911091 2.669652,2.012121 0.32542,0.02941 1.042652,0.504471 1.593846,1.055664 1.00921,1.00921 1.977258,1.344259 1.73984,0.602172 z"
     id="path128"
     inkscape:connector-curvature="0"
     inkscape:export-xdpi="10.24"
     inkscape:export-ydpi="10.24" />
</svg>
