<?xml version="1.0" encoding="UTF-8" standalone="no"?>
<!-- Created with Inkscape (http://www.inkscape.org/) -->

<svg
   xmlns:dc="http://purl.org/dc/elements/1.1/"
   xmlns:cc="http://creativecommons.org/ns#"
   xmlns:rdf="http://www.w3.org/1999/02/22-rdf-syntax-ns#"
   xmlns:svg="http://www.w3.org/2000/svg"
   xmlns="http://www.w3.org/2000/svg"
   xmlns:sodipodi="http://sodipodi.sourceforge.net/DTD/sodipodi-0.dtd"
   xmlns:inkscape="http://www.inkscape.org/namespaces/inkscape"
   version="1.1"
   id="svg266"
   width="104.96"
   height="111.36"
   viewBox="0 0 104.96 111.36"
   sodipodi:docname="collection.svg"
   inkscape:version="0.92.4 5da689c313, 2019-01-14">
  <metadata
     id="metadata272">
    <rdf:RDF>
      <cc:Work
         rdf:about="">
        <dc:format>image/svg+xml</dc:format>
        <dc:type
           rdf:resource="http://purl.org/dc/dcmitype/StillImage" />
        <dc:title></dc:title>
      </cc:Work>
    </rdf:RDF>
  </metadata>
  <defs
     id="defs270" />
  <sodipodi:namedview
     pagecolor="#ffffff"
     bordercolor="#666666"
     borderopacity="1"
     objecttolerance="10"
     gridtolerance="10"
     guidetolerance="10"
     inkscape:pageopacity="0"
     inkscape:pageshadow="2"
     inkscape:window-width="3200"
     inkscape:window-height="1734"
     id="namedview268"
     showgrid="false"
     inkscape:zoom="11.368534"
     inkscape:cx="54.541079"
     inkscape:cy="54.962024"
     inkscape:window-x="0"
     inkscape:window-y="66"
     inkscape:window-maximized="1"
     inkscape:current-layer="svg266" />
  <path
     style="fill:#000000;stroke-width:0.31999999"
     d="m 69.31601,104.74982 c -2.242612,-0.42794 -4.509447,-1.51577 -5.961828,-2.86103 -0.805814,-0.74638 -0.805814,-0.74638 -2.4,0.0121 -4.270899,2.03195 -11.455584,1.46298 -15.524,-1.22937 -1.196128,-0.79156 -1.196128,-0.79156 -1.906867,-0.035 -0.390905,0.4161 -1.952861,1.29016 -3.471011,1.94235 -3.418131,1.46842 -6.924582,1.46619 -9.558711,-0.006 -1.458156,-0.81498 -1.458156,-0.81498 -2.171908,-0.0448 -2.407757,2.59802 -7.89723,3.05404 -13.987036,1.16195 C 11.074332,102.67691 8.3652595,99.931875 9.5030179,98.794115 10.428024,97.86911 10.188733,92.322432 9.1836355,91.390941 8.2165846,90.494717 8.3210138,89.28 9.365113,89.28 c 0.637815,0 0.64547,-0.101158 0.3934956,-5.2 C 9.6172733,81.22 9.4877674,77.528525 9.4708176,75.876723 9.4427024,73.136794 9.381328,72.851738 8.7708918,72.625862 7.956248,72.324426 7.4653062,71.133405 7.1938582,68.8 7.0812499,67.832 6.713799,65.816 6.3773014,64.32 5.1314835,58.78135 5.5598947,56.660842 7.9279203,56.644899 9.0558608,56.637315 9.2199754,55.704522 9.4283664,48.116762 9.5340544,44.268541 9.6949664,38.816 9.7859488,36 c 0.090983,-2.816 0.1535811,-7.359607 0.1391075,-10.096904 -0.025344,-4.793094 0.00272,-5.017645 0.7596607,-6.08 0.432287,-0.606703 1.324708,-2.160211 1.983158,-3.45224 0.65845,-1.292029 1.823423,-3.155619 2.588828,-4.141309 0.765406,-0.985692 1.537573,-2.3340964 1.715928,-2.9964558 0.418105,-1.5527216 1.136488,-2.2523427 2.187599,-2.1304643 0.957575,0.1110329 1.041979,0.8838099 0.376474,3.4469141 -0.496543,1.912368 -0.238417,2.716728 1.181438,3.681545 1.914215,1.300743 3.372694,1.082884 6.641858,-0.99212 2.71128,-1.720904 4.101628,-3.134649 3.85304,-3.9178806 C 31.038788,8.772065 31.128813,8.64 31.677321,8.64 32.051568,8.64 32.268774,8.496 32.16,8.32 32.051226,8.144 32.114726,8 32.301114,8 32.487501,8 32.64,8.1628413 32.64,8.3618694 c 0,0.2347892 0.392966,0.2981002 1.118995,0.180282 1.208592,-0.1961274 1.149466,-0.2810164 1.571651,2.2564796 0.251226,1.509953 1.095172,2.641369 1.970256,2.641369 0.411012,0 0.862452,0.195633 1.003197,0.43474 C 39.861155,16.519959 48.96,13.365996 48.96,10.181049 c 0,-0.9002445 1.734198,-2.0846829 2.307462,-1.5759722 0.376592,0.3341856 0.534154,2.4662792 0.269101,3.6414832 -0.637142,2.825014 3.936544,5.472535 7.294314,4.222379 2.043571,-0.760858 3.526131,-1.929392 3.759677,-2.963329 0.497238,-2.201347 2.215897,-4.1948446 2.608476,-3.02561 0.07387,0.22 0.343517,0.4 0.599223,0.4 0.255709,0 1.030432,0.9 1.721609,2 1.314685,2.092307 1.771924,2.484875 4.013194,3.445596 2.618141,1.122266 4.946944,-0.887647 4.946944,-4.269544 0,-1.713656 0.02896,-1.77156 0.991629,-1.982999 0.588214,-0.1291932 1.134979,-0.074446 1.344,0.134575 0.193805,0.193804 0.650825,0.352372 1.015603,0.352372 0.431104,0 0.876608,0.396218 1.27289,1.13207 1.889772,3.509098 5.49143,5.179115 7.508742,3.481658 1.491786,-1.255255 1.670205,-1.967181 1.002739,-4.001139 -0.70591,-2.1511077 -0.648496,-2.6226962 0.331299,-2.7213535 1.260628,-0.1269344 1.892983,0.1835479 1.894781,0.9303287 0.0019,0.7660608 0.422074,1.4711338 2.508099,4.2082068 2.784695,3.653796 2.737514,3.382401 2.699908,15.530229 -0.01824,5.896 -0.135546,14.392 -0.26065,18.88 -0.227466,8.16 -0.227466,8.16 0.488784,8.64 2.905756,1.947322 2.968626,2.128682 3.071476,8.859699 0.084,5.499699 0.084,5.499699 -0.788017,5.691232 -0.479629,0.105347 -1.231584,0.524912 -1.671011,0.932371 -0.439427,0.40746 -1.332502,0.840932 -1.984614,0.963268 -1.072967,0.201289 -1.372452,0.599414 -1.16856,1.55343 0.0094,0.044 -0.185037,0.584 -0.432093,1.2 -0.588525,1.467421 -0.720336,3.33689 -0.631738,8.96 0.112339,7.129968 0.219405,8.797638 0.566733,8.827638 1.62695,0.140512 1.793366,1.009764 0.450426,2.352708 -0.899066,0.899062 -0.958119,1.079814 -0.645642,1.976188 0.693562,1.989546 -1.3816,3.940656 -4.953402,4.657296 -2.464089,0.4944 -2.630249,0.48712 -6.250502,-0.27352 l -3.719117,-0.78142 -0.979696,1.02963 c -1.902262,1.99924 -5.306585,2.83288 -8.826057,2.1613 z M 25.686479,102.02825 C 27.191274,101.43198 28.16,99.987994 28.16,98.341213 c 0,-1.257927 -0.07408,-1.418224 -0.56,-1.21184 -3.540031,1.503533 -9.425285,1.868793 -12.88,0.799382 -2.587257,-0.800886 -2.66355,-0.800166 -2.224049,0.02106 0.197158,0.368394 0.273985,1.006416 0.170726,1.417831 -0.314505,1.253084 3.200462,3.023134 6.031403,3.037264 0.540056,0.003 1.165771,0.12157 1.390477,0.26417 0.480684,0.30505 4.320044,-0.13446 5.597922,-0.64082 z m 49.366599,-0.0657 C 76.787741,101.15484 78.4,99.516538 78.4,98.561619 c 0,-0.324102 0.08497,-0.810713 0.188832,-1.08136 0.16201,-0.422195 -0.05387,-0.407533 -1.52,0.103232 -2.489834,0.867405 -5.620758,0.906215 -10.908832,0.135213 -1.2,-0.17496 -1.2,-0.17496 -1.2,1.024624 0,3.158212 6.067923,5.093632 10.093078,3.219272 z m -35.188403,-1.4431 c 2.109015,-0.99774 2.868631,-2.045119 3.116855,-4.297606 0.149872,-1.360032 0.0079,-1.413686 -1.455632,-0.550172 C 40.317898,96.384458 36.707363,97.6 35.798314,97.6 35.469242,97.6 35.2,97.713302 35.2,97.851786 c 0,0.13848 -0.864,0.169177 -1.92,0.06821 -2.070341,-0.197942 -2.031302,-0.23584 -1.716789,1.666563 0.351002,2.123121 4.742469,2.616641 8.301464,0.932941 z m 19.085658,-0.0357 c 1.2372,-0.36222 3.185609,-1.991891 3.543411,-2.96375 0.113392,-0.308 0.174688,-0.559926 0.136214,-0.55984 -0.03848,9e-5 -0.861958,0.312278 -1.829958,0.693754 -1.937027,0.763356 -7.753354,1.057184 -11.84,0.598128 -2.488605,-0.279546 -2.693165,-0.176375 -1.455411,0.734038 2.837027,2.08674 7.396134,2.6833 11.445744,1.49767 z M 89.68,100.13469 c 1.12096,-0.298322 1.2,-0.399708 1.2,-1.539234 0,-1.219875 0,-1.219875 -1.68,-0.942845 -2.006227,0.330826 -6.599776,0.385533 -7.375549,0.08784 -0.444617,-0.170614 -0.524265,-0.06535 -0.411648,0.544 0.0768,0.415552 0.150339,0.912499 0.163418,1.10433 0.02518,0.369273 1.778822,0.998049 3.383779,1.213259 1.162992,0.15595 3.097782,-0.0356 4.72,-0.46735 z M 26.554534,95.644621 c 1.375617,-0.773139 1.381767,-0.784416 1.420158,-2.604448 0.02836,-1.344736 -0.324261,-1.474176 -2.376805,-0.872455 -0.614838,0.180247 -1.621887,0.411869 -2.237887,0.51472 -0.616,0.102852 -1.408,0.234855 -1.76,0.293338 -5.148163,0.855366 -7.005904,0.915088 -9.04,0.290621 -0.401469,-0.123251 -0.72,-0.08462 -0.72,0.08732 0,0.680103 1.226597,1.613975 3.2,2.436327 2.78856,1.162038 9.335335,1.07936 11.514534,-0.145421 z m 33.226023,0.283565 c 1.866777,-0.560701 2.432249,-0.875824 2.663619,-1.484381 0.415786,-1.093597 0.426957,-1.09241 -3.601222,-0.38297 -6.425879,1.131722 -8.724026,0.952151 -12.518612,-0.978169 -1.076249,-0.547492 -1.230099,0.0781 -0.294531,1.197657 1.901693,2.275677 8.877344,3.111626 13.750746,1.647863 z M 76.72,95.624061 c 1.631098,-0.572855 2,-0.831747 2,-1.403571 0,-0.692288 -0.02528,-0.695757 -2,-0.27425 -2.373878,0.50671 -8.369648,0.293661 -10.307504,-0.366259 -1.495181,-0.509171 -1.415398,-0.553997 -1.225779,0.68871 0.149286,0.978368 0.181459,0.993722 3.082073,1.470762 4.347888,0.715059 6.156986,0.690358 8.45121,-0.115392 z M 37.983248,95.199088 c 2.424966,-0.720138 5.298765,-2.423744 4.848365,-2.874141 -0.06186,-0.06186 -0.904282,0.095 -1.872045,0.348573 -1.974115,0.517264 -8.09359,0.746701 -9.199568,0.344915 -0.657161,-0.238736 -0.72,-0.166198 -0.72,0.831101 0,1.807101 3.265318,2.441779 6.943248,1.349552 z M 90.32,95.206928 c 0.378227,-0.158986 0.56,-0.590496 0.56,-1.329376 0,-1.093981 0,-1.093981 -0.984003,-0.585133 -1.527027,0.789655 -4.966291,0.965645 -6.787523,0.347322 -2.183952,-0.741472 -2.358896,-0.571255 -1.12632,1.095894 0.702153,0.949715 0.702153,0.949715 4.24,0.828202 C 88.167968,95.497005 90.012,95.336394 90.32,95.206928 Z M 59.188829,92.31696 c 3.172045,-0.525654 3.472461,-0.691696 3.343545,-1.847994 -0.04347,-0.389929 -0.09104,-1.56096 -0.105708,-2.602294 -0.0304,-2.159328 -0.263085,-2.227286 -0.540023,-0.157731 -0.520173,3.887273 -2.139027,4.820803 -5.665571,3.26712 C 52.361667,89.275722 52.174915,89.014771 52.03008,85.12 51.901949,81.674381 51.252794,77.989203 50.357402,75.624419 l -0.5057,-1.335577 -1.636451,1.966393 C 46.619036,77.748612 45.493094,80.790886 45.12,81.76 c -0.373094,0.969114 -0.749486,5.095615 0.41101,7.79021 0.385197,0.782134 2.454746,1.969875 5.188996,2.978029 1.793388,0.661245 3.453526,0.619827 8.468828,-0.211277 z m 16.823609,-0.206614 c 2.006228,-0.369664 2.006228,-0.369664 2.202765,-2 0.177239,-1.47025 0.02989,-6.295136 -0.294118,-9.63034 -0.06839,-0.704 -0.132615,-2.63432 -0.142717,-4.2896 L 77.76,73.180803 72.88,73.382186 c -2.684,0.110758 -5.24,0.276524 -5.68,0.368368 -0.44,0.09185 -1.268,0.255568 -1.84,0.36383 -1.04,0.196842 -1.04,0.196842 -1.069677,2.481229 -0.04491,3.457008 0.01949,4.869648 0.381309,8.364387 0.182218,1.76 0.363818,3.515702 0.403555,3.901562 0.182387,1.771027 2.202163,2.928281 5.567075,3.189728 1.362756,0.105881 2.537738,0.245657 2.611072,0.310611 0.205991,0.182457 0.597159,0.14679 2.759104,-0.251562 z M 19.618703,91.514522 c 8.798588,-1.244407 8.336103,-0.908298 8.07964,-5.871796 C 27.578908,83.331226 27.291875,80 27.060492,78.24 26.829108,76.48 26.691223,74.949987 26.75408,74.839968 27.02366,74.368134 12.794228,73.412298 12.16,73.859638 c -0.088,0.06207 -0.197666,3.851338 -0.243703,8.420596 l -0.0837,8.30774 1.363703,0.618986 c 1.545966,0.701712 3.10699,0.77647 6.422406,0.307562 z m 68.925547,-0.0049 c 2.507356,-0.53936 2.391392,-0.228404 2.396377,-6.425882 0.0026,-3.141302 0.201616,-6.87345 0.457251,-8.57177 0.249028,-1.654403 0.410196,-3.050588 0.358151,-3.10263 -0.291971,-0.291974 -9.403821,-0.763235 -10.543767,-0.545322 -0.844412,0.161421 -0.844412,0.161421 -0.697084,3.568688 0.08103,1.874 0.225779,5.549863 0.32167,8.168589 0.219315,5.989434 0.203939,5.949475 2.553318,6.635085 2.267626,0.66175 3.134381,0.707699 5.154084,0.273242 z M 40.88744,90.711904 C 42.56,90.215206 42.56,90.215206 42.56,88.467603 42.56,87.506422 42.416,86.72 42.24,86.72 c -0.176,0 -0.32,0.147635 -0.32,0.32808 0,0.594502 -4.786896,2.55192 -6.240768,2.55192 -1.662531,0 -1.908733,-0.280909 -2.383946,-2.72 -0.205744,-1.056 -0.58135,-2.462915 -0.834681,-3.126477 -0.81003,-2.121734 -0.99049,-1.75416 3.870006,-7.882736 1.380717,-1.740941 1.429325,-1.704227 -1.461859,-1.104176 -1.36527,0.283357 -2.98654,0.414413 -3.783958,0.305879 l -1.395207,-0.189898 0.202168,2.478704 c 0.111192,1.363286 0.267302,2.910704 0.346911,3.438704 0.236537,1.568806 0.501281,4.651674 0.598381,6.967965 0.09743,2.324233 0.175128,2.478806 1.642953,3.268589 1.174266,0.63183 5.786323,0.453737 8.40744,-0.32465 z M 59.008416,88.72 c 1.368013,-6.715363 1.222374,-8.021286 -1.257952,-11.28 -1.138662,-1.496 -2.466333,-3.254534 -2.950378,-3.907856 -0.627884,-0.847456 -1.126851,-1.191334 -1.7412,-1.2 -1.266758,-0.01786 -1.308038,0.340317 -0.298681,2.591501 1.01807,2.270611 1.92183,6.889728 2.050297,10.479056 0.08456,2.362704 0.08456,2.362704 1.801312,3.28 2.108736,1.126749 2.174458,1.127773 2.396602,0.0373 z M 38.17976,86.839405 c 3.40048,-1.667751 4.758925,-5.733955 4.400083,-13.170663 -0.03997,-0.828441 -2.71856,1.398938 -4.499843,3.74184 -0.44,0.578727 -1.096973,1.4341 -1.459942,1.900826 -1.923988,2.473981 -2.13688,2.92857 -1.790727,3.823715 0.183949,0.475683 0.49681,1.692877 0.695248,2.704877 0.415792,2.12048 0.389517,2.110592 2.655181,0.999405 z M 61.760198,75.92 c 1.99e-4,-1.84 1.99e-4,-1.84 -1.644099,-1.726141 -0.904368,0.06262 -1.516454,0.206621 -1.360201,0.32 0.156256,0.113376 0.833744,0.890141 1.505526,1.726141 1.522614,1.894816 1.498534,1.899958 1.498774,-0.32 z M 47.470682,72.933261 c 1.693344,-2.190186 1.321916,-2.999376 -1.004493,-2.188384 -0.958176,0.334022 -0.98848,0.403661 -0.962829,2.212717 0.03126,2.205449 0.245414,2.202803 1.967322,-0.02432 z M 35.2,72.290384 C 35.2,72.130672 35.072915,72 34.917587,72 c -0.155328,0 -0.864317,-0.9 -1.575529,-2 -1.404839,-2.1728 -1.738378,-3.581578 -1.79936,-7.6 -0.03634,-2.394784 -0.03842,-2.40023 -0.954838,-2.505626 -0.518539,-0.05964 -1.038033,0.07969 -1.193146,0.32 -0.209145,0.32402 -0.318856,0.265133 -0.459567,-0.246662 -0.227773,-0.828454 -7.887646,-1.618518 -14.467711,-1.492246 -5.6611931,0.108636 -5.9226587,0.35727 -4.9007106,4.66022 0.3514013,1.479588 0.6724756,3.395344 0.7134986,4.257236 0.181791,3.819443 1.026223,4.328828 7.386574,4.455811 4.147381,0.0828 7.076015,0.320345 8.332954,0.675901 0.386363,0.109289 0.656498,-0.09613 0.872079,-0.663149 0.384844,-1.012215 1.97692,-1.152691 2.630024,-0.232055 C 30.249591,72.683459 35.2,73.25768 35.2,72.290384 Z m 26.040109,-1.078947 c -0.201696,-0.525613 -0.663379,-0.605043 -3.130957,-0.538666 -3.090166,0.08313 -2.167104,0.891639 1.112461,0.974403 1.866966,0.04711 2.178016,-0.02003 2.018496,-0.435737 z M 40.876634,70.219091 C 44.168845,68.969834 45.71919,68.105994 45.534202,67.623923 45.361779,67.174598 44.800323,67.034038 44.79953,67.44 c -2.56e-4,0.132 -0.592436,0.280669 -1.315956,0.330374 -0.723516,0.04971 -1.724153,0.301709 -2.223638,0.56 -1.10737,0.572644 -1.263744,0.58138 -1.246304,0.06963 0.01619,-0.475094 2.722717,-2.617331 4.028541,-3.188621 0.888486,-0.388707 0.859104,-0.404765 -0.919139,-0.502339 -1.010333,-0.05544 -2.342333,0.03874 -2.96,0.209286 C 39.28633,65.160397 39.04,65.135024 39.04,64.802653 39.04,64.34816 40.810365,62.72 41.304554,62.72 c 0.670041,0 0.208288,-0.537306 -1.184989,-1.378874 -1.122829,-0.678214 -1.709363,-0.843936 -2.428176,-0.686057 -0.882135,0.19375 -0.923136,0.162173 -0.592234,-0.456122 1.001847,-1.871965 4.050282,-1.289046 6.900845,1.319571 1.095674,1.002679 1.840128,1.142266 1.714547,0.321482 -0.04712,-0.308 0.08533,-0.869866 0.294336,-1.248589 0.331501,-0.600685 0.306349,-0.669328 -0.19704,-0.537689 -0.380496,0.0995 -0.954499,-0.265447 -1.685152,-1.071408 C 42.450342,57.133181 40.269696,55.36 39.671997,55.36 c -0.293043,0 -0.79344,-0.288 -1.111997,-0.64 -1.010554,-1.11665 -1.600781,-0.792134 -2.836582,1.5596 -2.868397,5.45857 -2.562679,10.314442 0.90334,14.348227 0.526036,0.612205 1.91018,0.479082 4.249876,-0.408736 z M 77.76,70.194515 c 3.263664,-0.213408 7.111664,-0.189645 11.606794,0.07168 1.543734,0.08975 2.983734,0.04857 3.2,-0.09151 0.216262,-0.14008 0.609206,-0.257571 0.873206,-0.261091 0.264,-0.0035 1.236,-0.197885 2.16,-0.431917 l 1.68,-0.425514 V 64.62697 c 0,-4.831767 0.0065,-4.81522 -1.941958,-4.960541 -0.676916,-0.05049 -1.406055,-0.200135 -1.620314,-0.332554 C 93.22703,59.030608 90.122518,59.13969 87.2,59.56289 c -3.036163,0.439657 -3.242413,0.479888 -5.44,1.061152 -1.056,0.279312 -3.612,0.598355 -5.68,0.708982 l -3.76,0.201146 v 1.885664 c 0,2.208291 -0.60065,3.564057 -2.567328,5.794899 l -1.353002,1.534736 3.160164,-0.178087 C 73.297926,70.473437 76.088,70.303846 77.76,70.194515 Z M 53.402451,69.458954 c 1.94385,-0.981252 2.356115,-1.567348 2.739527,-3.894637 0.135894,-0.824871 0.05122,-1.271184 -0.295792,-1.559184 -0.61754,-0.512509 -0.619876,-1.197155 -0.0062,-1.810848 0.647382,-0.647383 0.629612,-2.5484 -0.02618,-2.800048 -1.797869,-0.689907 -2.28433,0.429897 -1.942656,4.471891 0.114022,1.348864 0.07053,2.421574 -0.102509,2.528518 -0.783597,0.484292 -2.349664,-3.962028 -2.013981,-5.718032 0.180307,-0.943228 -0.466477,-1.181603 -0.75055,-0.276614 -0.09668,0.308 -0.45216,1.151773 -0.789956,1.87505 -0.337798,0.723276 -0.614176,1.544121 -0.614176,1.824099 0,0.279977 -0.212204,0.627805 -0.471564,0.77295 -0.34425,0.192653 -0.419341,0.585725 -0.278132,1.455901 0.17658,1.088122 0.749696,1.709347 0.749696,0.812624 0,-0.819312 1.337543,-1.852346 1.964157,-1.516992 0.589258,0.31536 0.800887,1.264659 0.376535,1.689008 -0.369389,0.369389 -1.035863,2.54865 -0.864327,2.826202 0.229482,0.371305 0.263216,0.361446 2.326087,-0.679888 z M 67.12,67.927258 c 0.22,-0.291271 0.4,-0.407741 0.4,-0.258823 0,0.606781 1.414419,-1.041197 1.981597,-2.308809 0.898249,-2.007543 0.791347,-7.845892 -0.178845,-9.767405 C 68.47888,53.920896 67.972451,53.905117 64.635654,55.446176 63.318045,56.054698 61.664,56.806624 60.96,57.117123 c -1.649101,0.727335 -2.4,1.394528 -2.4,2.132474 0,0.736681 0.127981,0.734537 2.957619,-0.0496 4.838893,-1.340925 6.033315,-0.599043 2.001274,1.24304 -1.303837,0.595674 -2.636835,1.315674 -2.962218,1.6 -0.325385,0.28433 -0.863177,0.671248 -1.195094,0.859821 -1.088627,0.618486 -0.897104,1.012249 0.387977,0.79768 1.336429,-0.223143 4.87816,0.159177 5.290026,0.571043 0.34264,0.34264 -1.684544,1.196595 -3.992106,1.681686 -1.007888,0.211872 -2.156729,0.687066 -2.552979,1.055978 C 57.774038,67.68 57.774038,67.68 59.047021,67.896922 59.747158,68.01623 60.824,68.247568 61.44,68.411011 c 1.704573,0.452272 5.197715,0.154768 5.68,-0.483753 z m -20.08,-0.5373 c 0,-0.291648 -0.223984,-0.391468 -0.6364,-0.283619 -0.350022,0.09153 -0.557523,0.294051 -0.461117,0.450042 C 46.221891,68.008474 47.04,67.884419 47.04,67.389958 Z m 1.407606,-6.542003 c -0.234384,-0.308854 -0.76702,0.39696 -0.762889,1.010931 0.0045,0.672413 0.02198,0.668362 0.426317,-0.09889 0.231878,-0.44 0.383337,-0.850419 0.336572,-0.912045 z M 78.105997,57.160323 C 78.120301,56.258144 78.169565,55.16 78.215488,54.72 78.341552,53.512067 78.730291,46.946189 78.873856,43.6 l 0.126995,-2.96 -1.500425,-0.0026 C 76.67519,40.63616 74.776,40.490448 73.28,40.31376 71.784,40.137072 69.610266,39.907757 68.449482,39.804176 l -2.110519,-0.188333 -0.223725,3.152013 c -0.123049,1.733606 -0.302608,4.513856 -0.39902,6.178333 C 65.544,51.919392 65.200112,52.767638 64.16,52.78479 c -1.22407,0.02019 -1.40904,-1.131468 -0.974086,-6.064921 0.05431,-0.616 0.209692,-2.739936 0.345299,-4.719859 l 0.246557,-3.599863 -1.088887,0.550419 c -2.061446,1.042042 -11.026982,0.588829 -14.467254,-0.731328 -0.353315,-0.13558 -0.487981,0.588506 -0.670544,3.605492 -0.125642,2.076326 -0.26392,4.279139 -0.307283,4.895139 -0.04337,0.616 -0.10696,3.316 -0.141325,6 -0.06032,4.711741 -0.08546,4.88 -0.729143,4.88 -0.39142,0 -0.611379,0.165149 -0.532755,0.4 0.209559,0.625945 2.682295,0.358406 5.807728,-0.628371 1.081536,-0.341469 2.190496,-0.437053 3.572909,-0.307962 1.583757,0.147894 2.09087,0.08324 2.41552,-0.30793 0.57856,-0.697123 8.37489,-4.557846 9.812506,-4.859126 2.284259,-0.478717 3.804048,1.231894 4.595417,5.172413 l 0.368499,1.834902 2.833421,-0.05164 2.833421,-0.05164 0.02598,-1.640323 z M 32.745158,56.72 c 1.560983,-4.301587 3.328999,-5.788618 5.451066,-4.584742 0.728077,0.413046 1.899776,1.038976 2.603776,1.39095 0.704,0.351971 1.712,1.001603 2.24,1.443619 C 44,55.773494 44,55.773494 44.211104,54.206749 44.327213,53.345037 44.504442,50.768 44.604947,48.48 c 0.100506,-2.288 0.278439,-5.580269 0.395408,-7.316154 0.212672,-3.15615 0.212672,-3.15615 -0.549101,-2.748464 -2.750016,1.471767 -12.273779,1.32689 -14.522456,-0.220915 -0.740632,-0.509789 -1.250553,-0.570355 -0.969199,-0.115117 0.108553,0.175642 0.260057,2.803642 0.336676,5.84 0.07662,3.036359 0.229328,6.96065 0.339353,8.72065 0.110026,1.76 0.21902,3.524 0.242209,3.92 0.02561,0.437411 0.248516,0.72 0.567927,0.72 0.289169,0 0.60865,0.216 0.709956,0.48 0.353048,0.920026 1.041685,0.46944 1.589438,-1.04 z m 55.593255,0.09774 c 1.682125,-0.273757 3.518125,-0.497741 4.08,-0.497741 1.021587,0 1.021587,0 1.061587,-3.04 0.02202,-1.672 0.06745,-3.436 0.100998,-3.92 0.35442,-5.11313 0.311924,-7.914134 -0.118656,-7.820784 -3.745558,0.812035 -8.163648,0.769946 -10.694144,-0.101882 -0.716764,-0.246944 -1.341145,-0.411052 -1.387513,-0.364684 -0.338752,0.338752 -0.592925,9.557817 -0.4436,16.089756 0.02291,1.002407 0.02291,1.002407 2.182915,0.577741 1.188,-0.233565 3.536285,-0.648649 5.218413,-0.922406 z M 27.01767,53.84 c -0.0906,-1.892 -0.214729,-5.528 -0.275836,-8.08 -0.221745,-9.260611 -0.579423,-11.655744 -1.589739,-10.645427 -1.131262,1.131261 -8.796176,1.764931 -11.247107,0.929817 -0.843436,-0.287388 -1.578214,-0.47783 -1.63284,-0.423206 -0.280466,0.280467 -0.235653,17.71377 0.04663,18.138816 0.175326,0.264 0.319326,0.912 0.32,1.44 0.0012,0.96 0.0012,0.96 3.361225,1.167485 4.376972,0.270281 8.445205,0.645501 8.613333,0.794416 0.07333,0.06495 0.681374,0.118099 1.351201,0.118099 h 1.217868 z M 93.098288,39.58543 c 0.635213,-0.304281 0.863389,-0.704979 1.005344,-1.765475 0.228838,-1.709568 0.276784,-1.687456 -2.423632,-1.117651 -1.549674,0.326989 -3.078256,0.41024 -4.96,0.270131 -3.784512,-0.281779 -4.313683,-0.351875 -4.765811,-0.631305 -0.594253,-0.367268 -0.866285,0.09302 -0.422106,0.714217 0.214195,0.299559 0.520986,0.846167 0.68176,1.214679 0.715002,1.638876 8.296455,2.55511 10.884445,1.315404 z M 79.04,37.376445 C 79.04,36 79.04,36 76.72,35.999021 c -1.276,-6.4e-4 -2.896,-0.11513 -3.6,-0.254653 -0.704,-0.13952 -1.859274,-0.313923 -2.567277,-0.387558 -0.708,-0.07364 -1.86,-0.335824 -2.56,-0.582644 C 66.72,34.325408 66.72,34.325408 66.73128,35.775363 c 0.0088,1.13025 0.149914,1.509229 0.64,1.718755 0.981395,0.419572 6.112726,1.089175 9.02872,1.178183 l 2.64,0.08058 z M 41.573686,37.1252 c 2.733434,-0.518717 3.66608,-1.210147 3.800772,-2.817754 0.06209,-0.741094 0.05534,-1.347446 -0.01501,-1.347446 -0.07034,0 -1.196992,0.376 -2.503674,0.835555 -2.81608,0.990407 -7.491878,0.903703 -11.390536,-0.211213 -2.738146,-0.78304 -2.639568,-0.793008 -2.527784,0.255658 0.115082,1.079603 2.244673,2.752941 4.342534,3.412166 1.570196,0.493415 5.327639,0.435892 8.293687,-0.126966 z M 62.64,36.670835 c 1.89015,-1.272909 1.999664,-2.628131 0.159923,-1.979033 -4.1656,1.469708 -7.754784,1.37518 -11.829507,-0.311559 C 47.814035,33.073658 48,33.096202 48,34.020131 c 0,2.307715 4.335213,3.774071 10.72,3.625968 2.232419,-0.05179 2.734026,-0.176579 3.92,-0.975264 z m 28.838963,-1.768928 c 0.769427,-0.148621 1.489427,-0.404854 1.6,-0.569405 0.11057,-0.164553 0.469907,-0.398636 0.798525,-0.520185 0.546125,-0.202003 0.577642,-0.461325 0.366646,-3.016659 -0.273868,-3.316758 -0.311814,-3.403321 -1.228572,-2.802637 -1.946196,1.275197 -6.35656,0.33046 -9.488164,-2.032444 -2.202508,-1.661872 -2.32136,-1.460093 -2.200502,3.735956 0.0818,3.516984 0.103616,3.615073 0.766912,3.448597 0.760982,-0.190996 2.050688,0.577043 1.646947,0.98078 -0.8104,0.8104 4.69953,1.362941 7.738208,0.775997 z M 22.4,34.188618 c 2.067406,-0.582778 2.873263,-0.980634 2.665894,-1.316164 -0.129479,-0.2095 0.05029,-0.266256 0.484067,-0.152819 0.379522,0.09925 0.70074,0.08593 0.713818,-0.0296 0.01308,-0.115523 0.0766,-0.498041 0.141152,-0.850041 0.06455,-0.352 -0.08963,-0.91881 -0.342621,-1.259577 -0.453619,-0.610992 -0.476634,-0.610229 -1.661151,0.05503 -2.929204,1.64513 -7.736973,2.366436 -10.410383,1.561857 -1.512819,-0.455292 -2.344353,-0.0434 -1.411755,0.699299 2.210068,1.760041 6.267184,2.293779 9.820979,1.292006 z M 78.910938,32.56 c -0.120016,-0.924 -0.301501,-2.4 -0.403303,-3.28 -0.101805,-0.88 -0.203667,-1.623448 -0.226365,-1.652106 -0.02269,-0.02866 -1.121507,0.1739 -2.441795,0.45013 -2.662723,0.557093 -2.885097,0.497961 -6.873283,-1.827676 -0.876595,-0.511169 -1.62719,-0.896015 -1.667994,-0.855213 -0.0408,0.0408 -0.167747,1.186756 -0.282099,2.546563 -0.248256,2.952102 0.144186,4.209969 1.408167,4.513508 0.470652,0.113024 2.151734,0.54904 3.735734,0.968928 1.584,0.419888 3.800058,0.775229 4.924573,0.789648 l 2.044573,0.02621 -0.218208,-1.68 z M 61.36,33.117786 c 0.748,-0.301002 1.36,-0.671124 1.36,-0.822487 0,-0.151366 0.197629,-0.199376 0.439174,-0.106685 0.318231,0.122116 0.398743,-0.04299 0.292352,-0.599537 -0.08658,-0.452931 0.06754,-0.982424 0.375629,-1.290517 0.402637,-0.402638 0.500711,-1.019662 0.427648,-2.690507 C 64.160592,25.453566 64.156995,25.445906 63.68,26.383855 62.213651,29.26723 55.992147,29.488023 50.803229,26.840834 49.437261,26.14397 48.975974,26.334466 48.964899,27.6 c -0.0064,0.735311 -0.0039,0.720723 -0.31287,1.798055 -0.228861,0.797994 -0.144691,1.020092 0.593392,1.565781 0.871481,0.644315 4.009933,2.174138 5.474579,2.668561 1.205123,0.406813 5.100451,0.104918 6.64,-0.514611 z M 42.700688,31.959112 c 2.93304,-0.962849 3.071955,-1.186341 3.287923,-5.289731 L 46.17121,23.2 45.071542,24.64 c -1.758659,2.302946 -2.547651,2.540493 -7.791542,2.345858 -2.770285,-0.102823 -4.893875,-0.338798 -5.564489,-0.61833 -0.875686,-0.365013 -1.183743,-0.374599 -1.6,-0.04979 -0.448173,0.349716 -0.462747,0.334657 -0.111565,-0.115283 0.329959,-0.422749 0.315306,-0.591107 -0.08,-0.919182 C 29.39585,24.844994 29.414405,24.746281 29.323059,28.48 29.28,30.24 29.28,30.24 31.046262,31.124099 c 3.300256,1.651936 8.11506,1.996906 11.654426,0.835013 z M 20.66599,30.250152 c 0.870183,-0.258417 2.077676,-0.835435 2.683316,-1.282262 0.862688,-0.636471 1.329593,-0.76956 2.15593,-0.614539 C 26.56,28.551226 26.56,28.551226 26.56,26.275613 c 0,-2.606446 0.01456,-2.594371 -1.593242,-1.320966 -3.003805,2.379058 -9.263751,1.927812 -11.644078,-0.83936 C 12.64,23.32166 12.64,23.32166 12.572389,25.951382 c -0.08176,3.18021 0.03602,3.420455 2.023342,4.126958 1.993994,0.708877 4.064433,0.767478 6.070259,0.171812 z m 39.701092,-4.799078 c 0.957952,-0.670975 1.750012,-2.523657 2.209062,-5.167126 0.218989,-1.261066 0.497424,-2.605595 0.618746,-2.987843 0.220582,-0.694996 0.220582,-0.694996 -1.327156,0.08076 -1.510073,0.756883 -2.928496,1.256649 -4.626905,1.630241 -0.620442,0.136477 -0.903165,0.456742 -1.084704,1.22874 -0.135047,0.574283 -0.272583,1.116151 -0.305639,1.204151 -0.200998,0.535069 -0.607638,2.76487 -0.545276,2.99 0.04114,0.1485 -0.109709,0.207019 -0.33521,0.130042 -0.296803,-0.101318 -0.401053,-0.953521 -0.37759,-3.086663 0.03241,-2.946704 0.03241,-2.946704 -0.782272,-2.850042 -0.666976,0.07914 -0.953181,0.444768 -1.578596,2.016663 -0.820784,2.062942 -1.460537,3.028992 -1.14998,1.736509 0.62935,-2.619242 0.522889,-4.779329 -0.274868,-5.577088 -0.788624,-0.788625 -0.788624,-0.788625 -1.174195,0.498294 -1.396029,4.659529 -0.236889,6.543377 4.927501,8.008241 2.448128,0.694403 4.93417,0.756529 5.807082,0.145118 z M 92,25.679865 c 1.043168,-0.781937 1.12504,-1.244858 0.529136,-2.991808 -0.735114,-2.155041 -1.06176,-4.485141 -0.70881,-5.056225 0.384592,-0.622281 0.826208,-0.228211 0.923242,0.82384 0.04588,0.49738 0.272749,1.768328 0.504163,2.824328 0.420755,1.92 0.420755,1.92 0.805379,0.969539 0.732845,-1.810949 0.507796,-3.862761 -0.615721,-5.613607 -1.246714,-1.942838 -1.036416,-1.94716 -2.961706,0.06088 -1.588534,1.65681 -1.588534,1.65681 -1.439072,4.4 0.08221,1.508754 0.206595,2.94119 0.276426,3.18319 0.243424,0.843599 -0.519229,0.674401 -0.899027,-0.199453 C 87.94751,23.007212 87.74105,21.75614 87.706314,19.792222 87.68,18.304444 87.68,18.304444 86.24,18.189916 L 84.8,18.075388 v 2.795802 c 0,2.795803 0,2.795803 1.36,3.512198 2.501085,1.317473 5.055469,1.884545 5.84,1.296477 z M 74.857661,24.242113 C 74.693949,23.671275 74.56,22.159275 74.56,20.882113 c 0,-2.238804 -0.462618,-3.06578 -1.12,-2.002113 -0.290835,0.470579 -1.657136,0.389629 -2.722522,-0.161304 -0.930739,-0.481304 -0.930739,-0.481304 -0.79638,2.131727 0.0739,1.437168 0.247878,2.719026 0.38663,2.848574 0.713741,0.666406 2.926582,1.581003 3.825197,1.581003 1.000899,0 1.016141,-0.02183 0.724736,-1.037887 z M 77.447046,23.45735 C 78.337341,22.053502 78.4,21.748413 78.4,18.81735 c 0,-3.458822 -0.02662,-3.514113 -1.094304,-2.272857 -0.607715,0.70651 -0.782835,1.384155 -0.958269,3.708093 -0.118067,1.563979 -0.298534,3.262957 -0.401046,3.775506 -0.282887,1.41444 0.408448,1.151507 1.500665,-0.570742 z M 42.869635,22.610922 C 43.600474,21.642931 44.16,20.544432 44.16,20.077589 c 0,-0.453341 0.113427,-0.872256 0.252058,-0.930922 0.13863,-0.05867 0.567155,-0.873509 0.952278,-1.81076 0.38512,-0.937251 0.595696,-1.654703 0.467942,-1.594338 -0.127753,0.06036 -1.006166,0.395206 -1.952032,0.744092 -1.307644,0.482331 -1.819024,0.864386 -2.134012,1.594339 -0.227844,0.528 -0.719674,1.654599 -1.092957,2.503553 -0.373283,0.848955 -0.762979,1.964955 -0.865987,2.48 -0.236583,1.182908 -0.7328,1.21825 -0.792541,0.05645 -0.08174,-1.589735 0.004,-2.138541 0.624246,-3.997092 0.613117,-1.837093 0.613117,-1.837093 -0.542941,-2.158216 -0.63583,-0.176617 -1.304121,-0.321926 -1.485091,-0.322907 -0.310656,-0.0017 -2.394665,4.891835 -2.392144,5.617053 6.4e-4,0.186362 -0.215334,0.618362 -0.479968,0.96 -0.637197,0.822622 -0.408864,-1.839683 0.441146,-5.143693 0.577526,-2.244854 0.577526,-2.244854 -0.763997,-3.539279 l -1.341523,-1.294424 -0.650925,1.299279 c -2.137704,4.266966 -2.361514,5.324397 -1.54204,7.285673 0.850456,2.035428 1.850594,2.344063 7.928123,2.446559 2.789632,0.04705 2.789632,0.04705 4.08,-1.662031 z m -18.954924,0.381441 c 0.721079,-0.554201 1.572517,-1.598201 1.892084,-2.32 0.319568,-0.7218 0.758972,-1.456363 0.976455,-1.632363 0.467893,-0.378646 2.771848,-4.745241 2.418904,-4.584452 -0.133185,0.06067 -1.30195,0.648997 -2.597257,1.307384 C 25.30959,16.421319 24.061855,16.96 23.832151,16.96 c -0.552914,0 -2.51674,2.726027 -3.05449,4.24 -0.412998,1.162747 -0.638851,1.392143 -1.007596,1.023399 -0.201974,-0.201975 0.964427,-3.66745 1.389191,-4.127399 0.478266,-0.517884 0.309775,-1.136 -0.30966,-1.136 -0.324722,0 -0.847536,-0.284127 -1.161808,-0.631394 -0.564443,-0.623703 -0.581613,-0.618497 -1.409595,0.427355 -0.461006,0.582312 -1.26067,1.946439 -1.777031,3.031394 -0.805203,1.691857 -1.879041,2.883182 -1.345442,1.492645 0.203323,-0.529849 -0.05669,-0.60918 -0.6866,-0.20949 -0.48418,0.30722 1.697938,2.318067 2.883948,2.657592 2.209792,0.632608 5.220498,0.295026 6.561643,-0.735739 z M 68.618506,21.04 c -0.109565,-0.924 -0.229789,-2.075827 -0.267168,-2.559615 -0.03738,-0.483789 -0.347722,-1.085191 -0.689652,-1.33645 -0.582899,-0.428332 -0.636156,-0.375286 -0.853638,0.850222 -0.177171,0.998356 -0.117104,1.391037 0.254326,1.662633 0.267453,0.195567 0.504967,0.712794 0.527805,1.149393 0.03576,0.68356 0.748186,1.913817 1.108272,1.913817 0.06559,0 0.0296,-0.756 -0.07995,-1.68 z m 15.218214,0.64 c -0.14943,-0.572 -0.360563,-1.76 -0.469184,-2.64 -0.187613,-1.519964 -1.191062,-2.91628 -1.81752,-2.529109 -0.317315,0.196112 0.01997,2.324795 0.560515,3.53747 0.24721,0.554599 0.449469,1.11926 0.449469,1.254803 0,0.332519 0.997811,1.416836 1.303802,1.416836 0.134534,0 0.122348,-0.468 -0.02707,-1.04 z M 15.314649,19.984973 c 0.352605,-0.448265 0.74063,-1.276265 0.862278,-1.84 0.121647,-0.563735 0.491604,-1.559236 0.822125,-2.212225 C 17.626975,14.692203 17.777032,13.76 17.3488,13.76 c -0.327317,0 -3.2688,5.88355 -3.2688,6.538249 0,0.739991 0.507426,0.611238 1.234649,-0.313276 z"
     id="path276"
     inkscape:connector-curvature="0"
     sodipodi:nodetypes="cscscccccccssscsscssscssssssssssssscscsscsccssssccssssscscsccscsccscccccccccscscscccccsccsscccccsscscccccsssccsscsccccccccsscccscsssssssscssscccsscsscssccccscsccczcscccscscsccssscccccssccscccccccccssscsssssccscscsscssssccsccsscscccssccsscscccsssscscsssscscsccccscccccsccsscssccscsscsssscccscscsssccssccscscccsccscsccsccccccsscssscscssscscscsccscccccccsccsccssccsccssccscssccscccccsccscsscccsscscsssccccscsscssccccscsccssccsccssccccccccsccsssscccsscscssccssscccscccccccsccccccsccscsccccsscccscsccscsssccsscscssssssssscsscscccccccsccssssccscsccccscccsscssscscsccscsssccscscccccscccscccsscsscccssscsssccsassccsscccsccscccsasssccscsscs" />
</svg>
