<?xml version="1.0" encoding="UTF-8" standalone="no"?>
<!-- Created with Inkscape (http://www.inkscape.org/) -->

<svg
   xmlns:dc="http://purl.org/dc/elements/1.1/"
   xmlns:cc="http://creativecommons.org/ns#"
   xmlns:rdf="http://www.w3.org/1999/02/22-rdf-syntax-ns#"
   xmlns:svg="http://www.w3.org/2000/svg"
   xmlns="http://www.w3.org/2000/svg"
   xmlns:sodipodi="http://sodipodi.sourceforge.net/DTD/sodipodi-0.dtd"
   xmlns:inkscape="http://www.inkscape.org/namespaces/inkscape"
   version="1.1"
   id="svg80"
   width="157.44"
   height="160"
   viewBox="0 0 157.44 160"
   sodipodi:docname="online.svg"
   inkscape:version="0.92.4 5da689c313, 2019-01-14">
  <metadata
     id="metadata86">
    <rdf:RDF>
      <cc:Work
         rdf:about="">
        <dc:format>image/svg+xml</dc:format>
        <dc:type
           rdf:resource="http://purl.org/dc/dcmitype/StillImage" />
        <dc:title></dc:title>
      </cc:Work>
    </rdf:RDF>
  </metadata>
  <defs
     id="defs84" />
  <sodipodi:namedview
     pagecolor="#ffffff"
     bordercolor="#666666"
     borderopacity="1"
     objecttolerance="10"
     gridtolerance="10"
     guidetolerance="10"
     inkscape:pageopacity="0"
     inkscape:pageshadow="2"
     inkscape:window-width="3200"
     inkscape:window-height="1734"
     id="namedview82"
     showgrid="false"
     inkscape:zoom="7.9125"
     inkscape:cx="78.720001"
     inkscape:cy="80"
     inkscape:window-x="0"
     inkscape:window-y="66"
     inkscape:window-maximized="1"
     inkscape:current-layer="svg80" />
  <path
     style="fill:#000000;stroke-width:0.31999999"
     d="m 73.44,152.07225 c -0.528,-0.0483 -1.968,-0.29545 -3.2,-0.54932 -1.232,-0.25386 -3.752,-0.61612 -5.6,-0.80502 -3.812778,-0.38973 -6.754058,-0.85654 -8.16,-1.29507 -0.528,-0.1647 -2.04,-0.60072 -3.36,-0.96896 -1.32,-0.36824 -4.2,-1.42877 -6.4,-2.35674 -2.2,-0.92798 -4.852442,-1.95516 -5.89431,-2.28262 -2.844362,-0.894 -6.372912,-3.40462 -9.842197,-7.00289 -1.703078,-1.76639 -3.215078,-3.30848 -3.36,-3.42686 C 19.306805,126.59158 13.128188,116.49676 10.732545,105.78781 8.8526262,97.384246 8.3354906,94.824666 8.2820054,93.658781 8.2482259,92.922451 8.0212403,91.820733 7.7775923,91.210522 7.0879062,89.48321 7.2463478,80.319507 8.0295184,76.64 8.3666675,75.056 8.8631645,72.68 9.1328451,71.36 10.611025,64.124784 11.999043,60.561414 16.558183,52.297395 18.602737,48.591382 19.592612,47.028762 20.735321,45.703354 21.239548,45.118509 22.423212,43.632 23.365685,42.4 25.139457,40.081328 34.051901,31.04 34.56375,31.04 c 0.159421,0 1.339796,-0.881371 2.623053,-1.958601 C 40.230384,26.526466 47.822099,21.44 48.59184,21.44 c 0.09333,0 1.114342,-0.563285 2.268925,-1.251745 2.508493,-1.495779 8.782528,-3.557221 16.979235,-5.578818 8.704374,-2.146804 12.074426,-2.527166 20.933274,-2.362636 8.585718,0.159457 8.039948,0.04598 18.426726,3.83128 0.264,0.09621 1.344,0.425707 2.4,0.732214 1.7729,0.514589 5.61947,2.553516 5.86667,3.109705 0.0587,0.132 0.24321,0.24 0.41009,0.24 1.34348,0 13.48569,10.517197 17.76327,15.385984 0.37401,0.425709 1.70601,1.770298 2.96,2.987974 1.25398,1.21768 2.27997,2.324928 2.27997,2.460557 0,0.135629 0.77868,1.33192 1.73041,2.658423 2.47722,3.452726 5.57767,10.035126 7.69562,16.338134 1.79396,5.338813 2.266,18.945232 0.86068,24.808928 -0.40071,1.672 -1.09987,4.624 -1.55367,6.56 -0.75855,3.236131 -1.30678,5.051085 -2.02985,6.72 -0.26484,0.61127 -0.6535,1.9557 -2.2202,7.68 -0.65796,2.40396 -2.86506,6.79545 -4.09319,8.1442 -0.30239,0.33209 -1.0538,1.26697 -1.6698,2.0775 -0.616,0.81053 -1.79396,2.2129 -2.6177,3.11639 -0.82374,0.90348 -1.97203,2.59202 -2.55178,3.7523 -1.78359,3.56966 -10.56061,11.73035 -18.19107,16.91368 -0.96831,0.65776 -2.26431,1.57023 -2.88,2.02772 -3.67921,2.73376 -12.540096,6.40594 -18.125047,7.51149 -2.262921,0.44795 -4.834403,1.02117 -5.714403,1.27384 -0.88,0.25266 -2.32,0.53302 -3.2,0.62301 -0.88,0.09 -2.752,0.31004 -4.16,0.48898 -2.93376,0.37286 -5.3348,0.50975 -6.72,0.38314 z m 5.621229,-2.61065 c 0.956323,-0.16412 2.657405,-0.38625 3.780176,-0.4936 1.122774,-0.10736 2.922774,-0.3923 4,-0.6332 1.077229,-0.24089 3.969929,-0.88218 6.428224,-1.42508 6.633581,-1.46498 15.455321,-5.90832 21.610371,-10.88472 1.144,-0.92493 2.512,-1.90664 3.04,-2.18157 1.68534,-0.87756 5.69593,-4.1017 7.71964,-6.20587 3.52081,-3.66079 3.9777,-4.22051 4.97971,-6.10047 0.5444,-1.0214 1.11375,-1.85709 1.26524,-1.85709 0.15147,0 0.27541,-0.16159 0.27541,-0.3591 0,-0.48593 3.02294,-4.18039 3.8323,-4.68361 0.35623,-0.22149 0.6477,-0.57361 0.6477,-0.78249 0,-0.20888 0.34697,-0.74766 0.77104,-1.19729 0.42407,-0.44963 1.30137,-1.89751 1.94956,-3.21751 0.6482,-1.32 1.29457,-2.62657 1.43639,-2.9035 0.14182,-0.27692 0.57118,-1.6201 0.95413,-2.98484 0.38294,-1.36474 1.05164,-3.42549 1.48598,-4.579442 0.43435,-1.153952 1.20321,-3.524701 1.70859,-5.268333 0.91887,-3.170237 0.91887,-3.170237 0.12886,-3.96024 -0.79,-0.790003 -0.79,-0.790003 -2.29227,0.239936 -1.81403,1.243673 -1.76306,1.204784 -3.68174,2.809149 -0.84671,0.707996 -1.76049,1.28727 -2.03063,1.28727 -0.27014,0 -0.87373,0.22599 -1.34132,0.502198 -0.67275,0.397405 -1.04117,0.429575 -1.76556,0.154164 -1.03618,-0.393956 -1.04862,-0.194906 0.2811,-4.496362 1.42653,-4.614605 0.52628,-13.072864 -1.81575,-17.059773 -1.28045,-2.179773 -1.28045,-2.179773 -3.09442,-1.958857 -4.4079,0.536816 -4.59386,0.821123 -4.50714,6.89086 0.087,6.090231 -0.93852,10.9612 -2.54555,12.090551 -3.19118,2.242627 -4.4762,2.111277 -7.22997,-0.739024 -2.52643,-2.614999 -3.48436,-4.458317 -4.30868,-8.291117 -0.76509,-3.557462 -1.22867,-4.763971 -2.34823,-6.111507 -0.78003,-0.938871 -0.78003,-0.938871 -2.46834,0.8 -2.88825,2.974733 -3.93654,4.398275 -3.75371,5.097414 0.0922,0.352448 0.0455,0.716263 -0.1037,0.808474 -0.60284,0.372573 0.40127,5.694304 1.27891,6.778137 0.69034,0.852538 4.14816,2.297959 6.09245,2.546743 3.9849,0.509891 6.44077,3.489747 5.71279,6.931664 -0.42838,2.025435 -2.86192,7.133235 -4.24645,8.912975 -3.69105,4.74462 -5.59468,8.08959 -7.23465,12.71238 -0.53678,1.51309 -1.33051,3.28799 -1.76383,3.94422 -0.43332,0.65623 -0.78786,1.29063 -0.78786,1.40979 0,0.11917 -0.36,0.68864 -0.8,1.26551 -0.44,0.57688 -0.8,1.20711 -0.8,1.40053 0,0.91444 -2.084134,5.59736 -3.290234,7.39295 -0.742371,1.10521 -1.494553,2.24736 -1.671513,2.5381 -0.953005,1.56575 -5.462083,6.05835 -6.702176,6.67768 -2.784602,1.3907 -4.903469,0.96334 -6.438403,-1.29857 -0.51473,-0.75852 -1.023664,-1.45113 -1.13096,-1.53913 -0.1073,-0.088 -0.938781,-1.672 -1.847738,-3.52 -0.908957,-1.848 -1.998918,-4.008 -2.422141,-4.8 -1.567939,-2.93418 -2.680169,-6.28405 -3.081158,-9.28 -0.378067,-2.82469 -0.481706,-10.72244 -0.170487,-12.99186 0.169335,-1.23478 -1.092956,-4.44136 -2.173884,-5.52229 -0.802708,-0.80271 -2.621536,-0.9874 -5.471306,-0.55558 -7.53119,1.14117 -10.889133,0.26021 -15.784384,-4.14104 C 45.998845,97.62919 44.65432,93.026192 45.553171,87.68 c 0.174752,-1.039395 1.232576,-3.842864 1.516144,-4.018118 0.16521,-0.102106 0.509882,-0.687047 0.765933,-1.299869 1.255987,-3.006 4.919731,-7.742461 7.524752,-9.727943 0.792,-0.603644 1.512,-1.176976 1.6,-1.27407 1.532598,-1.691002 4.851386,-3.150003 10.08,-4.43136 5.182643,-1.27009 8.034787,-1.161766 12.571043,0.477446 4.102797,1.48258 8.561975,2.623037 10.948957,2.800253 1.32,0.098 3.373242,0.311863 4.562762,0.475245 2.732326,0.375286 3.178054,0.249443 3.906326,-1.102874 0.32543,-0.604291 0.677018,-1.098886 0.781302,-1.0991 0.104285,-2.15e-4 0.59654,-0.350365 1.0939,-0.778109 0.89211,-0.767229 0.96654,-0.775197 5.51981,-0.590711 l 4.6155,0.187012 1.8402,-1.741437 c 1.01211,-0.957792 2.43977,-2.217914 3.17259,-2.800269 1.31926,-1.048397 1.32846,-1.070163 0.93425,-2.208832 -0.51421,-1.485267 -1.07435,-1.812083 -2.6115,-1.523712 -1.72227,0.323098 -3.48833,2.204813 -3.77975,4.027277 -0.43392,2.713565 -1.8048,3.684381 -5.06551,3.587245 -2.98456,-0.08891 -3.52275,-1.425876 -2.16391,-5.37544 0.35529,-1.03266 0.70282,-2.1712 0.7723,-2.530096 0.0695,-0.358896 0.27468,-1.296634 0.45603,-2.083863 0.41787,-1.813997 0.34744,-1.866064 -1.59227,-1.177139 -2.49199,0.885075 -8.28203,4.931453 -8.28203,5.787904 0,1.319888 -4.571021,3.720845 -7.010858,3.682499 -2.357062,-0.03705 -3.402643,-0.643328 -3.280438,-1.902166 0.157856,-1.626058 1.91159,-4.724647 3.231536,-5.709632 0.626579,-0.467578 1.416742,-1.100493 1.75591,-1.40648 0.339172,-0.305987 0.853652,-0.631555 1.143293,-0.723485 0.847005,-0.268829 2.081805,-2.678387 1.489114,-2.905821 -0.558871,-0.214461 -4.54688,-0.306557 -8.917421,-0.205933 -2.97865,0.06858 -3.156493,0.113396 -4.245936,1.069936 -1.081344,0.949434 -1.127206,1.072688 -0.935859,2.51513 0.245203,1.848445 -0.133648,2.646464 -1.723101,3.629558 -2.966614,1.834887 -6.440992,2.60769 -11.74624,2.612714 -6.112029,0.0058 -6.399674,-0.206685 -6.399894,-4.727315 C 58.08,55.016893 58.08,55.016893 59.721379,53.43464 c 0.902759,-0.87024 2.414759,-1.962995 3.36,-2.428342 0.945242,-0.465348 2.254963,-1.357786 2.910493,-1.983197 1.392454,-1.328483 1.285459,-1.608819 -1.069494,-2.802167 -0.834804,-0.423027 -1.74385,-1.091833 -2.020103,-1.48624 C 62.626026,44.340291 62.395421,44.157638 62.389824,44.328797 62.358624,45.282317 61.44,43.192998 61.44,42.16856 c 0,-3.811626 3.241869,-6.509581 7.413104,-6.169357 3.089258,0.251975 3.47823,-0.142182 2.309501,-2.340262 -0.906723,-1.705309 -0.95713,-2.67089 -0.205831,-3.94274 1.442442,-2.44186 5.173722,-0.673283 6.922589,3.281217 0.830211,1.877257 1.405383,2.190121 4.040637,2.1979 2.28633,0.0068 8.911261,-3.392538 10.334122,-5.30249 0.55912,-0.750525 0.552982,-0.806741 -0.234919,-2.151195 -1.715245,-2.926842 -2.006281,-3.030056 -5.378985,-1.907624 -4.920916,1.637677 -6.084074,1.618285 -6.517508,-0.108656 -0.268579,-1.070106 0.145127,-1.765596 2.51729,-4.231875 1.012,-1.052151 1.84,-2.058609 1.84,-2.236573 0,-0.177965 0.108,-0.371572 0.24,-0.430238 0.132,-0.05867 1.176,-1.097511 2.32,-2.308544 l 2.08,-2.201876 -5.28,0.200292 c -5.09969,0.193452 -8.35759,0.53152 -11.04,1.145604 -0.704,0.161167 -2.35615,0.531741 -3.671446,0.823498 -1.3153,0.291757 -2.9713,0.718894 -3.68,0.949194 -0.708704,0.230299 -1.79506,0.505917 -2.414125,0.612483 -0.619066,0.106566 -2.203066,0.54687 -3.52,0.978453 -10.17832,3.335617 -14.818752,6.541448 -17.315411,11.962318 -3.088922,6.70681 -3.199453,7.056388 -3.618855,11.445236 -0.581488,6.085011 -1.888857,8.081497 -5.615798,8.575891 -2.281861,0.302701 -3.002046,0.704858 -3.879607,2.16641 -3.711386,6.181196 -6.177396,8.729801 -10.57955,10.933884 -4.666585,2.336484 -6.959823,5.36234 -7.435178,9.81049 -0.08464,0.792 -0.308505,2.88 -0.497482,4.64 -0.188978,1.76 -0.30511,4.901789 -0.258072,6.981754 l 0.08552,3.781753 1.827791,0.111402 c 3.096489,0.188733 4.950114,1.425859 6.417456,4.283069 1.535579,2.99008 3.043028,5.252358 4.719045,7.082022 1.221651,1.33364 3.557656,5.68486 4.176426,7.77932 0.3241,1.09704 -0.768745,2.81324 -2.639592,4.1452 -2.187747,1.5576 -2.798863,5.7161 -1.345707,9.15724 0.609512,1.44335 0.650307,3.87053 0.07125,4.23901 -0.314287,0.2 0.201561,0.84145 1.958484,2.43537 1.311833,1.19012 4.047833,3.85831 6.08,5.92931 2.032167,2.07099 3.874849,3.76299 4.094849,3.76 0.22,-0.003 0.4,0.1075 0.4,0.24555 0,0.13806 0.468,0.52221 1.04,0.85367 0.572,0.33146 1.442547,0.93472 1.93455,1.34058 0.492004,0.40585 1.500004,0.90031 2.24,1.09879 0.739997,0.19848 3.619284,1.28538 6.398413,2.41533 5.673952,2.30694 9.750227,3.26651 17.578899,4.13817 2.591524,0.28854 5.399524,0.71376 6.24,0.94493 1.844826,0.50741 5.101428,0.58551 7.469367,0.17913 z m 17.015478,-8.73126 c -1.253059,-0.3247 -1.214685,-1.23229 0.106234,-2.51258 0.603382,-0.58482 1.097059,-1.17153 1.097059,-1.3038 0,-0.37278 3.80205,-6.34174 5.06644,-7.95396 2.43984,-3.11103 3.25511,-3.37692 4.64523,-1.515 1.83153,2.45312 0.81771,6.25514 -2.58705,9.70186 -3.23652,3.27642 -5.595554,4.2915 -8.327913,3.58348 z m 5.432253,-4.01583 c 2.58667,-1.84909 4.91028,-5.93042 3.7756,-6.63169 -0.20422,-0.12622 -0.34395,0.045 -2.85452,3.49797 -0.77548,1.06656 -1.81948,2.47077 -2.32,3.12045 -1.489832,1.9338 -1.290357,1.9357 1.39892,0.0133 z m -14.013699,4.88162 c 3.241609,-2.19982 8.472083,-9.54377 9.457965,-13.27965 0.208492,-0.79007 0.707555,-2.01248 1.10903,-2.71648 1.89961,-3.33105 2.690304,-4.92563 3.173544,-6.4 1.18686,-3.62113 4.8974,-10.21966 8.18751,-14.56 1.20852,-1.59429 2.95955,-5.606973 3.12478,-7.160771 0.21672,-2.038067 -1.04635,-3.341367 -3.93118,-4.056368 -3.10346,-0.769191 -7.48263,-2.700893 -8.5558,-3.774058 -2.202342,-2.202342 -1.275795,-12.007222 1.22537,-12.967008 0.26044,-0.09994 0.47352,-0.402227 0.47352,-0.671753 0,-0.439389 0.37215,-0.630765 1.0319,-0.530637 0.12755,0.01936 0.81287,-0.751232 1.52294,-1.712419 2.04165,-2.76368 3.26166,-3.072538 5.39963,-1.366986 1.66342,1.326982 3.01822,4.035376 3.88174,7.76 0.85933,3.706582 0.75267,3.357462 1.39842,4.577315 0.53708,1.014563 0.96376,1.57792 2.79936,3.69608 2.10028,2.423594 4.3154,-1.749152 4.22209,-7.953395 -0.0132,-0.88 -0.0623,-3.112 -0.10893,-4.96 -0.0958,-3.794211 0.68923,-5.44 2.59495,-5.44 0.46176,0 1.28884,-0.224125 1.83794,-0.498054 1.48577,-0.7412 4.24163,-0.813869 5.71055,-0.150583 1.88071,0.849229 4.22346,4.469559 4.60117,7.110349 0.15877,1.110058 0.44574,2.810288 0.63771,3.778288 0.56089,2.828253 0.6313,7.895709 0.13273,9.552326 -0.53684,1.783792 -0.47431,1.868855 0.62488,0.850154 0.47707,-0.442131 1.32229,-1.03911 1.87828,-1.326621 0.55598,-0.28751 1.28183,-0.867213 1.613,-1.28823 1.0884,-1.383664 2.84406,-2.069309 3.89824,-1.522387 1.09534,0.568262 0.92837,0.823971 1.58355,-2.425242 0.30166,-1.496 0.6101,-3.008 0.68542,-3.36 0.47789,-2.233238 -0.0384,-13.917386 -0.78094,-17.673469 C 146.24365,59.681878 144.62662,55.219654 142.89257,52 c -2.63793,-4.897914 -3.21334,-5.899232 -4.55027,-7.918256 -0.78602,-1.18704 -1.67059,-2.339504 -1.96571,-2.561034 -0.29513,-0.221529 -1.18254,-1.194316 -1.97204,-2.161747 -0.7895,-0.96743 -1.73325,-1.999197 -2.09723,-2.292816 -0.36399,-0.293619 -2.23803,-2.077421 -4.16456,-3.964003 C 126.21625,31.215564 123.632,28.877262 122.4,27.905919 121.168,26.934576 120.112,26.018377 120.05333,25.86992 119.99467,25.721464 119.815,25.6 119.65407,25.6 c -0.34796,0 -3.60704,-2.284348 -3.76074,-2.635973 -0.0587,-0.134215 -0.27466,-0.247229 -0.48,-0.251143 -0.20533,-0.0039 -0.73333,-0.293425 -1.17333,-0.64336 -1.48801,-1.183423 -5.58326,-2.922438 -8.8,-3.736846 -2.4011,-0.607906 -3.34647,-1.000221 -3.78669,-1.571424 C 101.33063,16.342564 100.81943,16 100.51731,16 100.21519,16 99.8312,15.871412 99.664,15.714249 98.92265,15.0174 94.741238,14.37215 93.995981,14.839594 c -0.393789,0.246993 -1.222643,0.609291 -1.841895,0.805108 -0.619254,0.195817 -1.874672,1.011025 -2.78982,1.811573 C 87.477613,19.106674 82.707904,24.64 83.17192,24.64 c 0.16743,0 1.476067,-0.432 2.90808,-0.96 3.070973,-1.132303 3.767994,-1.172994 5.444259,-0.317827 1.339891,0.683562 3.666682,3.532826 4.013523,4.914746 0.560125,2.231722 -4.116563,6.404492 -9.297782,8.295935 -2.927923,1.068861 -4.259936,1.460541 -4.420598,1.299882 -0.08748,-0.08748 -0.640634,-0.223219 -1.229229,-0.301638 C 77.184262,37.117328 77.072925,37.036813 74.91912,33.469994 73.900883,31.783741 73.28,31.238104 73.28,32.029526 c 0,0.19224 0.288,0.715661 0.64,1.163156 1.03463,1.315321 0.846982,2.856537 -0.502784,4.129532 C 72.311101,38.365414 72.190221,38.4 69.650125,38.4 c -3.126925,0 -4.759219,0.962221 -5.148019,3.034707 -0.293226,1.563021 0.09806,2.082007 2.410723,3.197453 4.41632,2.13009 4.169696,4.89152 -0.658224,7.370109 -3.059872,1.570899 -5.283904,3.714294 -5.392407,5.196889 -0.193923,2.649808 0.02816,2.762436 4.944058,2.50746 4.446419,-0.230624 6.000771,-0.597648 8.342202,-1.969821 1.332624,-0.780967 1.356035,-0.822983 0.871024,-1.5632 -0.819703,-1.251024 -0.136432,-3.046704 1.805772,-4.745699 1.610471,-1.4088 1.610471,-1.4088 6.952608,-1.68016 7.517453,-0.38186 8.619882,-0.328909 9.694544,0.465622 0.495924,0.366653 1.048189,0.66664 1.227258,0.66664 0.179072,0 0.572829,0.377347 0.875024,0.838554 0.741526,1.131712 -0.621715,3.897574 -2.596195,5.267379 C 89.686205,59.269978 86.77799,62.72 88.144934,62.72 c 1.043978,0 3.2857,-1.403622 4.01321,-2.512816 2.356883,-3.593402 8.989406,-7.795651 12.389236,-7.849606 3.15101,-0.05001 3.88291,2.324985 2.322,7.534835 -1.04254,3.479689 -1.1658,4.57911 -0.48405,4.317494 C 106.68619,64.094458 107.13657,64 107.38617,64 c 0.24961,0 0.45383,-0.210966 0.45383,-0.468816 0,-2.157987 2.43238,-5.662154 4.66609,-6.722115 1.2981,-0.615991 4.56546,-0.626602 5.36971,-0.01744 0.48756,0.369299 1.59496,2.895126 2.31857,5.288371 0.15977,0.528416 -0.71371,1.605277 -2.43437,3.001181 -0.616,0.499734 -1.912,1.656643 -2.88,2.570902 -2.50006,2.361267 -3.10176,2.541367 -7.76133,2.323104 -3.91867,-0.183555 -3.91867,-0.183555 -4.79792,0.840627 -0.48359,0.563303 -0.87959,1.193639 -0.88,1.400749 -10e-4,0.566138 -1.586468,1.241287 -3.12443,1.330602 C 96.377094,73.659786 86.563811,72.090493 84.547997,71.345402 83.617395,71.00143 82.629318,70.72 82.352275,70.72 c -0.277046,0 -1.849357,-0.504 -3.494022,-1.12 -3.43817,-1.287744 -5.93145,-1.449187 -9.418253,-0.60984 -1.144,0.275386 -2.416915,0.566416 -2.828698,0.646733 -0.411782,0.08032 -1.347782,0.366416 -2.08,0.635773 -0.732217,0.26936 -1.619302,0.574147 -1.971302,0.677308 -2.89191,0.84753 -9.570051,7.56024 -11.539158,11.59889 -0.517463,1.061315 -1.030128,1.929997 -1.139255,1.9304 C 49.772461,84.479584 49.499232,85.164 49.274413,86 49.04959,86.836 48.742877,87.6568 48.592822,87.824 48.442771,87.9912 48.32,89.491242 48.32,91.157424 c 0,7.823392 6.371789,12.898666 14.72,11.724826 0.968,-0.13611 1.976,-0.24038 2.24,-0.23171 0.264,0.009 0.696,-0.0578 0.96,-0.14761 4.992035,-1.69913 9.697117,2.936 9.133869,8.99806 -0.863901,9.29789 0.406915,15.78513 4.496061,22.95146 1.127539,1.97604 2.05007,3.65433 2.05007,3.72954 0,0.0752 0.655277,1.05502 1.45617,2.17737 1.664188,2.33216 2.247059,2.50716 4.119091,1.23677 z M 20.19348,120.92246 c -0.48345,-2.19949 -0.720488,-5.06794 -0.454029,-5.49433 0.133403,-0.21347 0.270865,-0.57497 0.305468,-0.80334 0.102683,-0.67765 2.306415,-3.19986 3.317836,-3.79732 0.515445,-0.30448 1.005048,-0.73048 1.088006,-0.94667 0.386621,-1.00751 -1.590654,-5.58677 -2.83492,-6.56551 -1.303128,-1.02504 -3.484819,-4.145338 -4.957668,-7.090554 -1.587681,-3.174845 -2.505714,-3.944234 -5.125527,-4.295626 -1.272147,-0.17063 -1.272147,-0.17063 -1.099695,1.550132 0.797856,7.961148 4.247325,19.338648 7.798109,25.720758 2.063256,3.70845 2.479186,4.07353 1.96242,1.72246 z M 17.726323,62.230538 c 3.74633,-1.884103 6.599376,-4.799501 8.487293,-8.672775 1.341988,-2.753238 3.565264,-4.437152 6.365059,-4.820905 2.837779,-0.38896 3.557088,-1.490346 3.929578,-6.016858 0.173801,-2.112 0.369235,-4.344 0.434304,-4.96 0.06507,-0.616 0.915494,-2.812723 1.889833,-4.881603 1.732724,-3.679209 1.741508,-4.15392 0.04761,-2.573636 -0.352,0.328391 -1.792,1.553968 -3.2,2.723505 -3.326371,2.763008 -9.250199,8.874771 -10.88,11.225171 -0.704,1.015267 -1.837972,2.58008 -2.519939,3.477363 -1.791313,2.356883 -3.736265,5.74424 -6.453673,11.239802 -2.661202,5.381897 -2.850241,6.02463 -1.506388,5.121724 0.484,-0.325187 2.016845,-1.162992 3.406323,-1.861788 z"
     id="path90"
     inkscape:connector-curvature="0" />
</svg>
