<?xml version="1.0" encoding="UTF-8" standalone="no"?>
<!-- Created with Inkscape (http://www.inkscape.org/) -->

<svg
   xmlns:dc="http://purl.org/dc/elements/1.1/"
   xmlns:cc="http://creativecommons.org/ns#"
   xmlns:rdf="http://www.w3.org/1999/02/22-rdf-syntax-ns#"
   xmlns:svg="http://www.w3.org/2000/svg"
   xmlns="http://www.w3.org/2000/svg"
   xmlns:sodipodi="http://sodipodi.sourceforge.net/DTD/sodipodi-0.dtd"
   xmlns:inkscape="http://www.inkscape.org/namespaces/inkscape"
   version="1.1"
   id="svg397"
   width="144"
   height="158.08"
   viewBox="0 0 144 158.08"
   sodipodi:docname="conference.svg"
   inkscape:version="0.92.4 5da689c313, 2019-01-14"
   inkscape:export-filename="/home/olive/conference512.png"
   inkscape:export-xdpi="333.4025"
   inkscape:export-ydpi="333.4025">
  <metadata
     id="metadata403">
    <rdf:RDF>
      <cc:Work
         rdf:about="">
        <dc:format>image/svg+xml</dc:format>
        <dc:type
           rdf:resource="http://purl.org/dc/dcmitype/StillImage" />
        <dc:title></dc:title>
      </cc:Work>
    </rdf:RDF>
  </metadata>
  <defs
     id="defs401" />
  <sodipodi:namedview
     pagecolor="#ffffff"
     bordercolor="#666666"
     borderopacity="1"
     objecttolerance="10"
     gridtolerance="10"
     guidetolerance="10"
     inkscape:pageopacity="0"
     inkscape:pageshadow="2"
     inkscape:window-width="3200"
     inkscape:window-height="1745"
     id="namedview399"
     showgrid="false"
     inkscape:zoom="4.0390941"
     inkscape:cx="116.32482"
     inkscape:cy="4.7410022"
     inkscape:window-x="0"
     inkscape:window-y="55"
     inkscape:window-maximized="1"
     inkscape:current-layer="svg397" />
  <path
     style="fill:#000000;stroke-width:0.31999999"
     d="m 12.918415,154.09908 c -2.641766,-1.14966 -1.819867,-1.60651 3.028209,-1.68321 9.531563,-0.15079 11.943956,-0.29994 12.225734,-0.75587 0.240694,-0.38945 0.452192,-18.74428 0.451462,-39.18 C 28.623345,99.219626 28.387878,90.028282 27.972089,87.04 27.497663,83.630294 27.238846,80.327085 26.699632,70.8 26.547239,68.107462 26.35855,66.88 26.097037,66.88 25.887635,66.88 24.394763,66.018125 22.779542,64.964723 21.164323,63.911322 18.798154,62.524074 17.521389,61.881952 16.244625,61.23983 14.336,60.102275 13.28,59.354051 12.224,58.60583 10.784,57.687933 10.08,57.314285 9.376,56.940634 8.7882592,56.528064 8.7739094,56.397459 8.6481187,55.252589 8.1695392,54.4 7.6526864,54.4 6.5457738,54.4 6.0330218,53.089478 6.2585616,50.836813 6.3969139,49.454966 6.3209773,48.388397 6.0224141,47.52 5.3989898,45.706714 5.6949853,44.425891 6.8060858,44.128922 8.4777862,43.682118 16.221939,42.942336 20.16,42.853251 c 6.216901,-0.140637 5.417767,0.185962 6.217329,-2.540979 0.822224,-2.804227 1.685079,-4.554397 3.545883,-7.192272 0.74492,-1.056 1.947225,-2.784 2.671786,-3.84 4.447079,-6.481305 9.198327,-11.27965 13.165002,-13.295499 1.144,-0.581376 2.44,-1.296661 2.88,-1.589522 0.44,-0.292861 1.628,-0.870036 2.64,-1.282611 1.156362,-0.471429 1.84,-0.939592 1.84,-1.260051 0,-1.083796 1.171366,-2.0730348 4.094131,-3.4575608 3.669328,-1.7381773 6.037427,-1.7805319 8.690675,-0.1554365 2.234298,1.3684937 2.89408,2.9522503 1.800621,4.3222653 -1.504006,1.884402 -1.926985,2.230009 -3.865427,3.158376 -2.561312,1.226675 -7.515526,0.924848 -9.160192,-0.558069 -0.669834,-0.603958 -2.613155,0.221163 -7.927712,3.366054 -3.895507,2.305169 -6.573398,4.840356 -9.869126,9.343202 -0.72104,0.985131 -1.523796,2.003962 -1.783901,2.26407 -0.260109,0.260108 -0.909971,1.291932 -1.444141,2.292945 -0.53417,1.001011 -1.614243,2.790179 -2.400164,3.97593 -1.382641,2.086045 -2.625109,5.301398 -2.270358,5.875398 0.230615,0.373143 5.429773,0.357632 8.623988,-0.02573 1.403385,-0.168429 5.143606,-0.38888 8.311606,-0.489888 3.168,-0.101008 6.192,-0.238797 6.72,-0.306192 0.528,-0.0674 2.76,-0.215113 4.96,-0.328253 2.2,-0.113142 5.008,-0.353875 6.24,-0.534963 2.926688,-0.430182 3.605258,-0.497769 7.556496,-0.752649 1.827926,-0.117914 4.259504,-0.328192 5.403504,-0.46729 1.144,-0.139094 2.553606,-0.197203 3.132461,-0.129126 0.578854,0.06808 1.298854,-0.0057 1.6,-0.163837 C 81.833606,38.923377 83.232,38.710014 84.64,38.607425 86.048,38.504833 87.56,38.33971 88,38.240484 c 0.44,-0.09922 2.528,-0.236044 4.64,-0.304044 2.112,-0.068 4.2,-0.203325 4.64,-0.300724 0.44,-0.0974 1.16,0.03088 1.6,0.285034 0.44,0.254166 1.232,0.690608 1.76,0.969872 1.65769,0.876758 2.23137,1.250141 2.93362,1.909373 2.13399,2.003254 3.07061,2.632182 5.84473,3.924656 1.68391,0.784544 3.78165,2.031136 4.66165,2.770205 0.88,0.739072 2.38922,1.839075 3.35382,2.444451 0.96461,0.605379 2.83661,1.820867 4.16,2.701088 1.3234,0.880217 3.19818,2.020521 4.16618,2.534003 2.49476,1.32337 5.6517,3.544336 7.52,5.29047 0.88,0.822461 2.644,2.253879 3.92,3.180928 2.62876,1.909869 2.71788,2.180944 1.69311,5.149872 -0.40561,1.175104 -0.49463,1.824503 -0.26921,1.963818 0.48267,0.29831 0.55926,2.776125 0.0976,3.159229 -0.21313,0.17688 -2.82066,0.407325 -5.79452,0.512099 -3.53066,0.124387 -6.89648,0.457475 -9.69911,0.959837 -2.36064,0.423139 -4.32089,0.769344 -4.35609,0.769344 -0.0352,0 -0.24157,1.116 -0.45858,2.48 -0.21701,1.364 -0.66248,3.632 -0.98994,5.04 -0.32746,1.408 -0.68484,2.992 -0.79418,3.52 -0.47917,2.31384 -0.97799,18.985935 -0.65858,22.011505 0.0704,0.66632 0.21903,4.62632 0.33041,8.8 0.1778,6.66261 0.30143,8.64786 0.66185,10.6285 0.048,0.264 0.18394,1.992 0.30198,3.84 0.11805,1.848 0.27226,3.576 0.34268,3.84 0.0704,0.264 0.20711,2.90914 0.30376,5.87809 0.24958,7.6676 -0.209,6.97075 4.44696,6.75755 2.13697,-0.0978 4.96459,-0.30008 6.28361,-0.4494 2.73721,-0.30987 3.88472,0.2403 2.62833,1.26014 -0.32956,0.26751 -0.53578,0.67664 -0.45827,0.90918 0.10204,0.30612 -0.15609,0.39577 -0.93546,0.32486 -0.89245,-0.0812 -3.92566,-0.41874 -8.14509,9.3e-4 -2.55448,-0.14705 -3.54089,0.16584 -5.60662,-9.1e-4 l -6.46234,0.18413 c -3.55429,0.10128 -9.91834,0.25075 -14.14234,0.33215 -4.224,0.0814 -10.128,0.21964 -13.12,0.30718 -2.992,0.0875 -9.256,0.23807 -13.92,0.3345 -4.664,0.0964 -9.2,0.24083 -10.08,0.3209 -0.88,0.0801 -3.184,0.22706 -5.12,0.32663 -1.936,0.0996 -3.88,0.23931 -4.32,0.31052 -0.44,0.0712 -4.904,0.22191 -9.92,0.33488 -5.016,0.11298 -9.984,0.26291 -11.04,0.33317 -12.855427,0.85539 -13.793887,0.87497 -15.081585,0.31458 z M 40.64,151.53405 c 3.96,-0.0916 10.08,-0.30875 13.6,-0.48256 12.418038,-0.61319 16.130858,-0.73992 32.710195,-1.11646 3.030608,-0.0688 5.653575,-0.21375 5.828816,-0.32206 C 93.301846,149.28984 92.936029,115.96655 92.325706,108.32 91.529853,98.349043 91.645568,89.19561 92.627891,84.416269 92.891994,83.131322 93.188326,80.352 93.286413,78.24 c 0.09809,-2.112 0.236445,-4.2 0.307465,-4.64 1.079856,-6.69015 1.433284,-16.141338 0.633498,-16.940771 -0.30752,-0.307383 -5.745501,-0.0036 -8.627376,0.481961 -0.528,0.08896 -6.936,0.23336 -14.24,0.320887 -19.685379,0.235897 -28.812547,0.58543 -36.96,1.415414 -1.76,0.17929 -3.866118,0.361203 -4.680263,0.404247 l -1.480263,0.07826 0.147412,2.72 c 0.127582,2.354102 0.251376,2.818598 0.920263,3.45295 0.771922,0.732071 1.057934,1.98705 0.452851,1.98705 -0.176,0 -0.32,0.276 -0.32,0.613334 0,0.337332 -0.153044,0.664346 -0.340098,0.726698 -0.303956,0.101318 0.03216,8.86592 0.470159,12.259968 0.06814,0.528 0.218692,1.896 0.334563,3.04 0.115871,1.144 0.339142,2.8 0.496156,3.68 0.637096,3.570659 0.763821,11.982608 0.682989,45.336622 -0.0229,9.44714 0.05087,17.41767 0.163931,17.7123 0.117728,0.30679 0.01472,0.65768 -0.241071,0.82121 -0.283301,0.18112 0.07996,0.23159 0.993371,0.138 0.792,-0.0812 4.68,-0.22249 8.64,-0.31408 z m 70.62584,-2.25192 4.57111,-0.22851 -0.15298,-1.16681 c -0.0841,-0.64174 -0.22169,-3.47081 -0.30567,-6.28681 -0.20755,-6.96 -0.48767,-11.03605 -0.96761,-14.08 -0.222,-1.408 -0.43027,-5.42771 -0.46283,-8.93268 -0.0326,-3.50498 -0.18303,-8.47196 -0.33437,-11.03774 -0.15135,-2.56578 -0.23064,-4.73807 -0.17622,-4.82732 0.0544,-0.0892 0.19527,-3.381082 0.31298,-7.315198 0.17754,-5.933744 0.36871,-7.951827 1.12161,-11.84 0.49917,-2.577884 0.98695,-5.479062 1.08394,-6.447062 0.63738,-6.36081 0.63733,-6.057523 9.6e-4,-6.288013 -0.32826,-0.118909 -1.3254,-0.692541 -2.21586,-1.274736 -0.89047,-0.582195 -2.40247,-1.426381 -3.36,-1.875965 -2.46798,-1.158774 -5.81094,-3.071443 -6.89657,-3.945849 -0.50842,-0.409511 -1.78841,-1.375005 -2.84441,-2.145543 -1.056,-0.770537 -2.29337,-1.691008 -2.749712,-2.045494 -0.829712,-0.644515 -0.829712,-0.644515 -0.773523,1.665542 0.03091,1.270532 -0.299367,5.118058 -0.733939,8.550058 -0.434576,3.432 -0.897831,7.896 -1.02946,9.92 -0.131628,2.024 -0.405216,4.688 -0.607971,5.92 -0.642125,3.901699 -0.542083,18.66504 0.171306,25.28 0.273613,2.5371 0.494576,14.00021 0.503961,26.1445 l 0.0096,12.38449 1.644884,0.0955 c 2.424396,0.14076 8.982244,0.038 14.190724,-0.22237 z M 124.16,72.511354 c 1.144,-0.264445 3.016,-0.569514 4.16,-0.677936 4.78094,-0.453108 4.92151,-0.503616 3.62776,-1.303584 -3.14026,-1.941741 -4.5223,-2.831837 -5.22776,-3.366932 -0.44,-0.333737 -1.54985,-1.18192 -2.46634,-1.884851 C 123.33718,64.575123 122.50089,64 122.39524,64 122.10251,64 111.38465,56.71312 109.86614,55.481686 109.13252,54.886758 108.35645,54.4 108.14154,54.4 c -0.78087,0 -6.40887,-3.828074 -8.94154,-6.081882 -1.842326,-1.639475 -2.002301,-1.67807 -3.944154,-0.951529 -1.016857,0.380454 -2.444956,0.649075 -3.320115,0.624505 -0.844653,-0.02371 -2.399731,0.0439 -3.455731,0.150269 -1.056,0.106365 -5.376,0.247882 -9.6,0.314487 -4.224,0.0666 -8.044464,0.263728 -8.489923,0.438057 -0.847495,0.331671 -3.610794,0.572135 -10.099303,0.878855 -4.003785,0.189264 -4.635657,0.244099 -8.930774,0.775049 -1.408,0.174055 -4,0.386202 -5.76,0.471437 C 39.743488,51.30288 31.953402,51.831114 31.73527,51.959395 31.616871,52.029024 29,52.252189 25.92,52.455318 c -3.08,0.203127 -6.176,0.505037 -6.88,0.670912 -0.704,0.165876 -2.432,0.364688 -3.84,0.441808 -1.408,0.07712 -3.036385,0.243536 -3.618632,0.369815 -1.058633,0.2296 -1.058633,0.2296 0.32,1.048653 0.758247,0.45048 1.810632,1.226124 2.338632,1.723654 0.528,0.49753 1.284,0.98889 1.68,1.09191 0.396,0.103021 0.72,0.292717 0.72,0.421546 0,0.128829 1.476,1.061392 3.28,2.072358 1.804,1.01097 3.848987,2.176535 4.544416,2.590151 0.695429,0.413613 1.361429,0.692067 1.48,0.618784 0.317572,-0.196269 0.262401,-1.727645 -0.06964,-1.932858 -0.156871,-0.09695 -0.215213,-0.289549 -0.129648,-0.427993 0.08556,-0.138445 0.181836,-1.055469 0.213936,-2.037831 0.08039,-2.460061 0.193961,-2.570243 2.581537,-2.50456 1.124411,0.03094 3.604118,-0.162704 5.510457,-0.430307 1.90634,-0.267603 4.204717,-0.474243 5.107504,-0.459206 0.902791,0.01504 3.729434,-0.128279 6.281434,-0.318484 4.991862,-0.372051 18.860291,-0.546198 20.96,-0.263193 0.704,0.09489 5.384,-0.02659 10.4,-0.269936 5.016,-0.243354 11.119088,-0.521827 13.562419,-0.618832 2.443328,-0.09701 4.541664,-0.237709 4.662967,-0.312675 0.254195,-0.157101 4.117952,2.688905 5.774618,4.253526 0.616,0.581776 1.516,1.295747 2,1.586602 0.484,0.290854 0.88,0.689779 0.88,0.886499 0,0.19672 0.18226,0.357673 0.40502,0.357673 0.22277,0 1.12277,0.514874 2,1.144164 1.36266,0.97751 6.72655,3.898848 11.19498,6.097123 1.63312,0.803427 1.74919,1.002086 1.7551,3.004125 0.006,2.186608 0.53039,2.314665 5.1249,1.252608 z m 12.31542,-4.330506 c 0.22674,-1.032349 -0.12514,-1.521552 -2.07974,-2.891389 -0.61363,-0.430038 -1.97968,-1.597504 -3.03568,-2.594368 -1.056,-0.996861 -3.144,-2.568307 -4.64,-3.492099 -1.496,-0.923795 -3.008,-1.928787 -3.36,-2.233315 -0.352,-0.304528 -1.576,-1.102467 -2.72,-1.773197 -2.361,-1.384259 -5.41631,-3.365344 -8,-5.187258 -1.55518,-1.096649 -6.70105,-4.063244 -8,-4.612006 -0.264,-0.11153 -1.17346,-0.878829 -2.02102,-1.705107 C 101.25416,42.361549 99.455514,41.28 98.607584,41.28 c -0.161136,0 -0.36528,0.378243 -0.453654,0.840544 -0.201623,1.05472 2.64626,4.218931 4.68255,5.202662 0.72794,0.351664 1.82752,1.124218 2.44352,1.716788 0.616,0.592569 1.38475,1.17736 1.70834,1.299532 0.32358,0.122176 1.83558,1.065357 3.36,2.095959 1.52441,1.030601 3.77966,2.524989 5.01166,3.320861 1.232,0.795868 3.29078,2.148275 4.57506,3.005347 1.28428,0.857069 2.96908,1.923267 3.744,2.369328 0.77491,0.446061 1.88414,1.20143 2.46494,1.678601 0.5808,0.477168 1.5511,1.227565 2.15623,1.667546 0.60513,0.439984 1.18113,0.909712 1.28,1.043843 0.0989,0.134128 0.97177,0.662976 1.93977,1.175219 0.968,0.512244 2.26143,1.267146 2.87428,1.677559 1.45757,0.976099 1.832,0.941385 2.08114,-0.192941 z M 18.72,50.447158 c 2.816,-0.104227 6.56,-0.338796 8.32,-0.52127 5.500064,-0.570237 5.950496,-0.607792 11.36,-0.947184 2.904,-0.182198 6.216,-0.40352 7.36,-0.49183 1.144,-0.08831 3.14593,-0.239037 4.448733,-0.334951 1.302803,-0.09591 2.480873,-0.243696 2.617929,-0.328403 0.13706,-0.0847 2.45513,-0.231734 5.151268,-0.326733 2.696137,-0.095 7.241004,-0.459744 10.099702,-0.81055 2.858698,-0.350807 7.394698,-0.700471 10.08,-0.777034 C 80.842934,45.83264 85.2,45.55207 87.84,45.285712 c 2.64,-0.266355 5.571405,-0.484605 6.514237,-0.484998 1.431526,-6.4e-4 1.682201,-0.08419 1.52,-0.506887 -0.106832,-0.278393 -0.194173,-1.178393 -0.194096,-2 L 95.680285,40.8 91.120141,41.085846 c -2.508077,0.157213 -5.323523,0.268746 -6.256547,0.24785 -0.933021,-0.0209 -2.668263,0.166445 -3.85609,0.41631 -1.18783,0.249869 -2.656448,0.37528 -3.263597,0.278692 -1.080256,-0.17185 -6.727939,0.265219 -11.503907,0.890278 -3.426416,0.448435 -9.722691,0.908797 -14.56,1.064582 -3.57616,0.115168 -8.637312,0.395239 -17.44,0.965085 -1.144,0.07406 -4.672,0.22081 -7.84,0.326119 -8.065311,0.268102 -10.539615,0.45255 -13.186509,0.983001 C 11.94491,46.511994 10.405409,46.72 9.792376,46.72 c -1.4269296,0 -1.4949219,0.140691 -1.263848,2.61521 l 0.1925667,2.06215 2.4394523,-0.380352 C 12.502246,50.807814 15.904,50.551382 18.72,50.447158 Z"
     id="path407"
     inkscape:connector-curvature="0"
     sodipodi:nodetypes="cscsssssscccssssssscsssssscsssccssscscscscccccsccccccccccsccccssssccsccccccccccccscccccccccccccsscsccscccscssccsssccccccccscccsccccccscccscscccccsscccsssscccccsccsscsccscscccccccscsccccccsscccsccccsssccsccsccccccccscccsssccssscccccscccsscsssscsc" />
</svg>
