<?xml version="1.0" encoding="UTF-8" standalone="no"?>
<!-- Created with Inkscape (http://www.inkscape.org/) -->

<svg
   xmlns:dc="http://purl.org/dc/elements/1.1/"
   xmlns:cc="http://creativecommons.org/ns#"
   xmlns:rdf="http://www.w3.org/1999/02/22-rdf-syntax-ns#"
   xmlns:svg="http://www.w3.org/2000/svg"
   xmlns="http://www.w3.org/2000/svg"
   xmlns:sodipodi="http://sodipodi.sourceforge.net/DTD/sodipodi-0.dtd"
   xmlns:inkscape="http://www.inkscape.org/namespaces/inkscape"
   version="1.1"
   id="svg923"
   width="125.44"
   height="108.8"
   viewBox="0 0 125.44 108.8"
   sodipodi:docname="jurisdiction.svg"
   inkscape:version="0.92.4 5da689c313, 2019-01-14">
  <metadata
     id="metadata929">
    <rdf:RDF>
      <cc:Work
         rdf:about="">
        <dc:format>image/svg+xml</dc:format>
        <dc:type
           rdf:resource="http://purl.org/dc/dcmitype/StillImage" />
        <dc:title></dc:title>
      </cc:Work>
    </rdf:RDF>
  </metadata>
  <defs
     id="defs927" />
  <sodipodi:namedview
     pagecolor="#ffffff"
     bordercolor="#666666"
     borderopacity="1"
     objecttolerance="10"
     gridtolerance="10"
     guidetolerance="10"
     inkscape:pageopacity="0"
     inkscape:pageshadow="2"
     inkscape:window-width="3200"
     inkscape:window-height="1745"
     id="namedview925"
     showgrid="false"
     inkscape:zoom="10.291773"
     inkscape:cx="62.720001"
     inkscape:cy="54.400002"
     inkscape:window-x="0"
     inkscape:window-y="55"
     inkscape:window-maximized="1"
     inkscape:current-layer="svg923" />
  <path
     style="fill:#000000;stroke-width:0.31999999"
     d="m 67.68,104.43105 c -2.213792,-0.2218 -2.674861,-0.62023 -2.483712,-2.1463 0.280096,-2.23617 2.453635,-3.742795 6.096771,-4.226075 C 72.643648,97.879514 72.96,97.721494 72.96,97.226026 c 0,-0.336336 0.281178,-1.162679 0.624842,-1.836314 0.624841,-1.22479 0.624841,-1.22479 3.6,-1.45417 C 78.821178,93.809386 80.88,93.568371 81.76,93.399958 c 0.88,-0.168416 6.569309,-0.301216 12.642906,-0.295116 6.073594,0.0061 12.841594,-0.129373 15.040004,-0.30105 4.52741,-0.353558 5.11709,-0.11384 5.11709,2.08024 0,1.047357 0.0104,1.054333 1.89239,1.272762 4.07614,0.473088 4.7317,0.971264 4.85185,3.68703 0.0986,2.227786 -0.2035,3.156846 -1.08557,3.338866 -3.06817,0.63316 -6.07829,0.82012 -13.99177,0.86905 -5.0088,0.031 -11.3389,0.0936 -14.0669,0.13919 -18.028234,0.30124 -23.349101,0.35343 -24.48,0.24012 z m 38.4,-2.53233 c 5.456,-0.0925 10.57994,-0.31421 11.38652,-0.49258 1.46653,-0.32432 1.46653,-0.32432 1.27482,-1.505228 -0.1917,-1.180912 -0.1917,-1.180912 -2.26652,-1.430765 -1.14115,-0.137417 -5.02682,-0.101139 -8.63482,0.08062 -3.608,0.181757 -8.288,0.408765 -10.4,0.504464 -4.359062,0.197514 -6.334797,0.354016 -9.76,0.773107 -1.32,0.161507 -5.424,0.383222 -9.12,0.492712 -6.477718,0.19188 -10.08,0.70171 -10.08,1.42663 0,0.64633 6.792477,0.67361 37.6,0.15104 z M 89.12,97.100394 c 3.967264,-0.510708 9.623424,-0.858103 13.44,-0.825472 5.06984,0.04335 9.76,-0.338599 9.76,-0.794816 0,-0.340586 -0.78577,-0.392311 -3.92,-0.258045 -2.156,0.09236 -8.888,0.206073 -14.96,0.252694 -6.072,0.04662 -11.76,0.186429 -12.64,0.310682 -0.88,0.124253 -2.392,0.33136 -3.36,0.460237 -1.483056,0.197456 -1.775779,0.345244 -1.860278,0.939225 -0.100276,0.704899 -0.100276,0.704899 4.96,0.536762 C 83.322874,97.629184 87.184,97.349613 89.12,97.100394 Z M 7.7958336,102.49535 c -1.2503632,-0.6195 -2.4431062,-2.68158 -2.4431062,-4.223772 0,-2.194218 2.3741788,-5.804663 6.4512616,-9.810516 C 13.047296,87.239478 15.676908,84.62 17.647571,82.64 c 1.970663,-1.98 3.757345,-3.6 3.970404,-3.6 0.21306,0 0.459309,-0.275053 0.54722,-0.611226 0.08791,-0.336172 1.076706,-1.300729 2.197322,-2.143459 C 26.941419,74.345923 36.48,64.797254 36.48,64.155014 c 0,-0.264704 0.301574,-0.731868 0.67017,-1.038147 0.368592,-0.306275 1.223936,-1.364217 1.900761,-2.350979 0.676826,-0.986762 1.923248,-2.553194 2.769831,-3.480963 0.846582,-0.927767 1.78159,-2.053226 2.077801,-2.501021 0.296208,-0.447792 1.952208,-2.331933 3.68,-4.186979 1.727789,-1.855047 4.207853,-4.530237 5.511255,-5.944867 1.303398,-1.414634 2.815398,-2.9697 3.36,-3.455706 L 57.44,40.312704 55.666179,38.636352 C 54.690579,37.714358 53.265222,36.456 52.49872,35.84 51.732218,35.224 50.808278,34.391181 50.445523,33.989293 49.951763,33.442269 49.570163,33.305987 48.927472,33.447146 47.758736,33.70384 45.541504,32.618643 43.991491,31.031287 43.308733,30.332079 42.578746,29.76 42.369293,29.76 41.976432,29.76 41.6,29.061632 41.6,28.332783 c 0,-0.22818 0.907488,-1.404403 2.01664,-2.613828 C 44.725792,24.50953 46.042896,22.8 46.543539,21.92 c 0.500647,-0.88 1.362963,-2.248 1.916259,-3.04 0.5533,-0.792 1.188608,-1.8 1.411799,-2.24 0.578416,-1.140301 1.263693,-1.89399 3.111254,-3.421858 1.832064,-1.515053 6.414685,-7.2288518 7.469863,-9.313733 0.382912,-0.7565751 0.869696,-1.4376907 1.081744,-1.5135902 0.743062,-0.265968 5.83416,2.5179975 5.730499,3.1336084 -0.05227,0.3104349 0.111808,0.8597504 0.364627,1.2207014 0.252819,0.3609511 0.390643,0.9202375 0.306278,1.2428586 -0.08437,0.3226211 0.0054,0.8833834 0.199588,1.2461386 0.527014,0.9847382 4.204176,3.4919882 5.304588,3.6169032 0.773652,0.08782 0.97945,0.278054 1.060368,0.980167 0.109936,0.953889 3.539348,4.262982 7.579594,7.313671 1.232,0.930252 2.312,1.775712 2.4,1.8788 0.088,0.103088 1.96,1.395886 4.16,2.872883 4.670874,3.13585 7.230694,4.995341 7.519094,5.461984 0.129418,0.209405 0.509863,0.09343 1.026426,-0.312902 1.082803,-0.851732 1.00688,-0.873401 3.06352,0.874368 0.98374,0.836 2.2609,1.808 2.83814,2.16 1.91917,1.17032 2.149,2.063085 0.95479,3.708864 -0.56318,0.776125 -1.54218,2.203136 -2.17557,3.171136 -0.63338,0.968 -1.47185,2.048 -1.86325,2.4 -0.391409,0.352 -1.231585,1.432 -1.86706,2.4 -2.734628,4.165558 -4.037156,5.908016 -5.695943,7.619754 -2.472371,2.551289 -3.940544,4.461344 -4.729958,6.153548 -1.087923,2.33209 -2.058394,2.700592 -4.030189,1.53033 C 82.8,60.54135 81.216,59.71207 80.16,59.220787 77.650662,58.05337 76.985037,57.304186 77.238723,55.932797 77.425254,54.924438 77.349421,54.825971 75.442109,53.6 c -1.095248,-0.704 -4.058797,-2.828454 -6.585664,-4.721008 -3.878074,-2.904573 -5.720896,-3.938819 -5.031952,-2.82408 0.08521,0.137875 -0.876643,1.171926 -2.137463,2.297888 -1.260816,1.125958 -2.876188,2.67743 -3.589712,3.447709 -0.713526,0.770278 -2.362947,2.426278 -3.665385,3.68 C 53.129498,56.73423 51.435405,58.624 50.667286,59.68 49.351491,61.488938 46.118403,65.079603 41.76,69.572426 c -2.434746,2.509836 -4.301814,4.622544 -5.12,5.793603 -0.352,0.503814 -1.144,1.517725 -1.76,2.253133 -0.616,0.735408 -1.39752,1.679945 -1.736714,2.098972 -0.339193,0.419028 -2.75997,3.015997 -5.379504,5.77105 -2.619534,2.75505 -5.415912,5.85105 -6.214172,6.88 -2.102831,2.710525 -8.693305,8.974076 -10.18961,9.684146 -1.9351699,0.91834 -2.4691283,0.98456 -3.5641664,0.44202 z m 3.5228874,-2.597718 c 2.14956,-1.454778 2.342877,-2.04665 1.07993,-3.306374 -0.590697,-0.589194 -1.368182,-1.54993 -1.727744,-2.134976 l -0.65375,-1.063719 -0.9881061,1.543719 C 7.2019258,97.7908 6.9847642,98.956656 8.032159,100.2882 c 0.7770464,0.98786 1.3505197,0.91971 3.286562,-0.390568 z m 5.108102,-5.020669 c 0.07371,-0.17767 -0.708323,-1.247465 -1.737857,-2.377328 -1.840761,-2.020137 -1.882662,-2.044531 -2.520423,-1.467366 -0.913336,0.826557 -0.84729,1.051366 0.967985,3.294835 1.616528,1.99784 1.616528,1.99784 2.3864,1.435366 0.42343,-0.309356 0.830183,-0.707836 0.903895,-0.885507 z M 19.8807,91.12 c 3.042641,-3.571123 6.476367,-7.362893 8.460651,-9.342867 1.067742,-1.065424 3.443742,-3.801821 5.279999,-6.08088 1.836256,-2.279063 3.982173,-4.847696 4.768701,-5.708077 1.304471,-1.426954 1.378576,-1.593136 0.843891,-1.892362 C 38.911555,67.915398 38.378781,67.498781 38.05,67.17 37.466291,66.586291 37.352262,66.674778 33.206109,70.928922 30.870749,73.325107 27.952,76.079958 26.72,77.05081 c -1.232,0.970851 -4.519474,4.054752 -7.305498,6.853113 l -5.065497,5.08793 1.206524,1.504073 C 18.09889,93.666525 17.753492,93.616688 19.8807,91.12 Z M 42.204886,66.051958 C 42.856224,65.223917 42.856224,65.223917 41.508112,64.176646 40.28353,63.225341 40.108685,63.173811 39.6,63.614285 c -0.82351,0.713081 -0.685936,1.502854 0.424554,2.43727 1.221139,1.02752 1.37238,1.027549 2.180332,3.2e-4 z M 46.037894,61.68 c 1.032487,-1.1 2.558186,-2.864 3.390448,-3.92 0.83226,-1.056 4.163978,-4.534042 7.403818,-7.728986 l 5.890618,-5.808982 -1.632986,-1.173184 c -2.317866,-1.665222 -2.278666,-1.668403 -4.004634,0.325146 -0.860838,0.994294 -3.022403,3.341904 -4.803481,5.216908 C 50.500598,50.465907 48.364595,52.792 47.535008,53.76 46.705418,54.728 45.714662,55.80937 45.333331,56.16304 43.976858,57.421126 41.92,60.253389 41.92,60.863152 c 0,0.667856 1.494003,2.816848 1.958304,2.816848 0.15529,0 1.127107,-0.9 2.15959,-2 z m 40.034989,-3.99729 c 0.0039,-0.218508 0.295117,-0.577145 0.647117,-0.796972 0.352,-0.219828 0.64,-0.566461 0.64,-0.770295 0,-0.203833 0.973059,-1.429197 2.162355,-2.723024 2.289341,-2.490566 6.181575,-7.571664 7.439933,-9.712419 0.413821,-0.704 1.302595,-1.888784 1.975056,-2.632851 0.672461,-0.744067 1.222656,-1.508704 1.222656,-1.699197 0,-0.19049 0.50162,-1.003302 1.11472,-1.80625 1.236,-1.618742 1.21445,-1.827782 -0.2566,-2.489094 -0.55997,-0.251731 -1.433602,-0.717552 -1.94141,-1.035152 -0.653968,-0.409014 -0.963123,-0.466742 -1.059849,-0.197904 -0.360631,1.00231 -2.987818,4.532653 -5.025818,6.753555 -1.249072,1.361171 -3.055177,3.481066 -4.013565,4.710874 -0.958387,1.229811 -2.451337,3.028019 -3.317667,3.996019 -5.039085,5.630464 -6.429981,7.68 -5.211942,7.68 0.246329,0 1.362329,0.562378 2.48,1.249728 2.032131,1.249725 2.032131,1.249725 2.585014,0.56 0.304087,-0.37935 0.556087,-0.868509 0.56,-1.087018 z M 80.513581,51.427862 C 82.378723,49.413024 85.284608,46.05456 86.4,44.62465 c 0.44,-0.564071 1.88,-2.289991 3.2,-3.835376 5.734147,-6.713242 6.016272,-7.165936 5.026118,-8.064845 -0.935196,-0.849014 -6.128262,-4.549327 -7.746118,-5.519485 -0.704,-0.422158 -1.922899,-1.309073 -2.708666,-1.970922 -1.67846,-1.413764 -1.828128,-1.390357 -1.084252,0.169564 0.394748,0.827796 0.455606,1.261728 0.211225,1.506106 C 82.813238,27.394761 81.448909,25.871809 80.405002,23.68 79.567101,21.920722 76.48,18.601908 76.48,19.46039 c 0,0.249153 0.576,1.750675 1.28,3.336716 0.704,1.58604 1.28,3.081526 1.28,3.323302 0,1.618444 -2.079066,-1.273385 -3.682061,-5.121476 -2.304083,-5.531098 -2.661603,-6.030386 -5.489926,-7.666846 -0.690656,-0.399612 2.639075,11.282526 4.316512,15.144199 1.112678,2.561522 0.762486,2.989644 -0.461101,0.563715 -0.466045,-0.924 -0.95313,-1.752 -1.082403,-1.84 -0.52545,-0.357682 -1.57848,-2.954202 -2.855107,-7.04 -0.742391,-2.376 -1.64561,-5.256 -2.007156,-6.4 -0.975708,-3.087336 -1.566838,-3.512606 -2.636272,-1.896584 -0.665449,1.005566 -0.746041,1.306004 -0.38726,1.443682 0.462028,0.177297 0.58183,0.570962 1.793353,5.892902 0.644247,2.830034 1.735719,6.517533 2.772403,9.366476 0.511933,1.406852 0.5477,1.833524 0.153709,1.833524 -0.156921,0 -0.381686,-0.396 -0.499478,-0.88 -0.117792,-0.484 -0.532803,-1.384 -0.922243,-2 -1.0917,-1.726799 -2.465018,-5.585366 -3.716711,-10.442724 -0.346752,-1.345616 -1.294726,-2.570237 -1.297741,-1.676458 -9.6e-4,0.24155 -0.440112,0.907182 -0.976217,1.479182 -0.536109,0.572 -0.827139,1.04 -0.646739,1.04 0.180403,0 0.524544,0.396 0.764758,0.88 0.825034,1.662327 2.489264,12.762697 1.735139,11.573333 C 63.650326,29.95518 62.04271,24.789669 61.596006,22.920576 60.662963,19.016554 60.404832,18.716914 59.148944,20.08 c -1.683392,1.827082 -1.792166,2.166076 -1.672173,5.211421 0.06217,1.577719 -0.01227,2.868579 -0.165408,2.868579 -0.300739,0 -1.159443,-1.680023 -1.390269,-2.72 -0.142048,-0.64 -0.142048,-0.64 -0.416454,0 -0.27535,0.642202 -2.037264,3.380223 -2.368077,3.68 C 52.570768,29.632717 50.88,32.01631 50.88,32.301235 c 0,0.18632 0.218035,0.338765 0.484522,0.338765 0.642518,0 5.04142,3.565274 6.844924,5.547757 0.454196,0.499264 1.955709,1.723264 3.336704,2.72 5.355735,3.86551 7.02498,5.093597 10.045796,7.390845 3.203116,2.435881 6.731494,4.821398 7.131248,4.821398 0.123184,0 0.928857,-0.761462 1.790387,-1.692138 z M 49.017142,30.607371 c 0.592621,-0.606315 2.468711,-3.297564 5.104733,-7.322729 1.237373,-1.889447 3.256791,-4.544046 4.487597,-5.899108 2.255408,-2.483103 3.618947,-4.635184 3.376685,-5.329438 C 61.913974,11.849243 62.301386,11.032 62.847066,10.24 63.783968,8.8801856 65.07209,6.3625421 64.885686,6.2555021 64.83856,6.2284397 64.409066,5.9618806 63.931258,5.6631488 c -1.233344,-0.7711043 -1.38194,-0.7154867 -2.52424,0.944791 -1.621245,2.3563965 -6.860176,8.5236422 -7.882445,9.2791732 -1.021059,0.75464 -4.983581,6.868826 -5.319821,8.208503 -0.115949,0.461986 -0.929453,1.55861 -1.807786,2.436941 -1.914089,1.91409 -1.939372,2.134148 -0.396979,3.455428 1.285277,1.101027 2.335639,1.316653 3.017155,0.619386 z"
     id="path933"
     inkscape:connector-curvature="0"
     sodipodi:nodetypes="ccsscccscsscccccccccssccsccsssssccsccsssscsscssccccccsccsssscccscscsccccsssccscccccsscsscscscssssscssccccccsccccssccsscccsssscsscccsccccscsssccsscccsccssccscscsscscssssssccsssssssscscccscsscsccscssscscscsscsssscsscccssccccc" />
</svg>
