<?xml version="1.0" encoding="UTF-8" standalone="no"?>
<!-- Created with Inkscape (http://www.inkscape.org/) -->

<svg
   xmlns:dc="http://purl.org/dc/elements/1.1/"
   xmlns:cc="http://creativecommons.org/ns#"
   xmlns:rdf="http://www.w3.org/1999/02/22-rdf-syntax-ns#"
   xmlns:svg="http://www.w3.org/2000/svg"
   xmlns="http://www.w3.org/2000/svg"
   xmlns:sodipodi="http://sodipodi.sourceforge.net/DTD/sodipodi-0.dtd"
   xmlns:inkscape="http://www.inkscape.org/namespaces/inkscape"
   version="1.1"
   id="svg304"
   width="133.75999"
   height="90.239998"
   viewBox="0 0 133.75999 90.239998"
   sodipodi:docname="book.svg"
   inkscape:version="0.92.4 5da689c313, 2019-01-14">
  <metadata
     id="metadata310">
    <rdf:RDF>
      <cc:Work
         rdf:about="">
        <dc:format>image/svg+xml</dc:format>
        <dc:type
           rdf:resource="http://purl.org/dc/dcmitype/StillImage" />
        <dc:title></dc:title>
      </cc:Work>
    </rdf:RDF>
  </metadata>
  <defs
     id="defs308" />
  <sodipodi:namedview
     pagecolor="#ffffff"
     bordercolor="#666666"
     borderopacity="1"
     objecttolerance="10"
     gridtolerance="10"
     guidetolerance="10"
     inkscape:pageopacity="0"
     inkscape:pageshadow="2"
     inkscape:window-width="3200"
     inkscape:window-height="1745"
     id="namedview306"
     showgrid="false"
     inkscape:zoom="9.6516152"
     inkscape:cx="66.879997"
     inkscape:cy="45.119999"
     inkscape:window-x="0"
     inkscape:window-y="55"
     inkscape:window-maximized="1"
     inkscape:current-layer="svg304" />
  <path
     style="fill:#000000;stroke-width:0.31999999"
     d="m 80.672119,84.065445 c -0.404775,-0.67402 -0.397955,-0.680839 0.153065,-0.153066 0.317194,0.303811 0.507834,0.621261 0.423648,0.705446 -0.08418,0.08419 -0.343705,-0.164384 -0.576713,-0.55238 z m -9.952124,-0.442551 c -2.612726,-0.19104 -3.511155,-0.443142 -4.264714,-1.196701 -0.409654,-0.409654 -1.237679,-0.907782 -1.840057,-1.10695 -1.21432,-0.401504 -8.476207,-1.032506 -9.105123,-0.791168 -0.219321,0.08416 -1.300108,-0.01043 -2.401743,-0.210189 -5.444147,-0.987209 -13.520521,-0.240269 -27.942939,2.584301 -4.857879,0.951395 -6.929868,0.54649 -7.431523,-1.452262 -0.111803,-0.44546 -0.367668,-0.814477 -0.568588,-0.820039 -1.317878,-0.03648 -2.882173,-2.757923 -2.115949,-3.681168 0.367114,-0.442342 0.270472,-5.464768 -0.157685,-8.194835 -0.06503,-0.414637 -0.216932,-2.265884 -0.337566,-4.113884 -0.120634,-1.848 -0.256321,-3.792 -0.301528,-4.32 -0.187719,-2.192515 -0.500151,-7.268426 -0.649989,-10.56 -0.08813,-1.936 -0.22597,-3.952 -0.306313,-4.48 -0.197546,-1.298246 -0.482735,-4.321568 -0.664081,-7.04 -0.08219,-1.232 -0.250841,-3.464 -0.374787,-4.96 -0.43785,-5.284725 -0.153475,-7.852986 0.840747,-7.592992 0.50717,0.132628 0.609206,-0.08796 0.733393,-1.585488 0.172865,-2.084524 0.988876,-3.094256 2.466655,-3.052239 0.928847,0.02641 0.981794,-0.03785 0.981794,-1.191501 0,-1.621867 0.296517,-1.80053 3.766609,-2.269528 l 2.966609,-0.400949 -0.07098,-1.797191 c -0.08014,-2.029346 0.953664,-3.796862 1.908287,-3.262628 0.260861,0.145985 1.065233,0.132652 1.787494,-0.02963 1.533661,-0.344591 17.434434,-0.463885 19.081974,-0.143161 0.615999,0.119916 1.911999,0.370459 2.879999,0.556763 3.047562,0.586541 6.161728,1.602866 8.467465,2.763401 2.819846,1.419299 4.37495,1.976535 6.513958,2.334126 0.935783,0.156441 2.622608,0.752381 3.748499,1.324312 2.047075,1.039875 2.047075,1.039875 2.778576,0.363627 1.167341,-1.079169 4.815888,-2.950415 6.357206,-3.26045 0.777862,-0.156466 3.142294,-0.793873 5.254294,-1.416461 5.643587,-1.663649 10.391225,-2.232703 16.639999,-1.994477 11.116312,0.423796 16.287562,1.515813 15.604712,3.295273 -0.15591,0.406294 -0.0161,0.465563 0.74158,0.314411 3.06935,-0.612302 4.95236,-0.637537 5.57428,-0.0747 0.34339,0.31076 0.54229,0.697772 0.44201,0.860026 -0.10594,0.171427 0.74938,0.267804 2.04179,0.230066 1.22326,-0.03572 2.40261,0.04538 2.62079,0.180219 0.42052,0.2599 0.33868,2.244262 -0.25775,6.249173 -0.17037,1.144 -0.40558,3.304 -0.5227,4.8 -0.11712,1.496 -0.33914,3.386986 -0.49337,4.202192 -0.15424,0.815203 -0.28208,4.528378 -0.28411,8.251494 -0.002,3.72312 -0.0737,6.882548 -0.1592,7.020954 -0.0855,0.138406 -0.24643,2.833232 -0.35755,5.988505 -0.11111,3.155271 -0.25585,6.077197 -0.32164,6.493171 -0.48057,3.038333 -0.0107,11.607869 0.69631,12.699888 0.63732,0.984365 0.62923,3.389655 -0.0147,4.372445 -0.57487,0.877373 -2.75873,1.944224 -3.46093,1.690723 -1.64136,-0.592557 -15.79031,-0.910381 -19.6095,-0.440483 -5.263055,0.647545 -9.091896,0.977561 -10.977793,0.946195 -4.100998,-0.06821 -8.272102,0.799587 -10.023792,2.085443 -2.56495,1.882848 -4.437535,2.230199 -9.878408,1.832368 z m 4.872665,-4.628089 c 0.303968,-0.15921 0.705033,-0.574173 0.891261,-0.922141 0.303974,-0.567987 0.231116,-0.636842 -0.712669,-0.673504 -0.578192,-0.02246 -1.411258,-0.07865 -1.851258,-0.124855 -0.439999,-0.04621 -0.973692,0.05657 -1.185983,0.228388 -0.212288,0.17182 -0.507165,0.237507 -0.655277,0.145968 -0.927946,-0.573501 -0.976058,0.427187 -0.05769,1.199942 1.046176,0.880301 2.088602,0.922973 3.571616,0.146202 z m -5.512665,-3.806061 c 0,-0.54479 -0.785264,-0.726397 -2.851242,-0.659389 -1.161568,0.03767 -2.827305,-0.09182 -3.701638,-0.28776 -2.023446,-0.453465 -23.657531,-0.35096 -32.093214,0.152061 -4.362652,0.260144 -7.556647,-0.289382 -8.953903,-1.540515 -0.72,-0.644704 -0.72,-0.644704 -0.72,0.866768 v 1.511475 l 8.08,-0.07172 c 4.443999,-0.03945 9.735999,-0.154508 11.759999,-0.255692 2.024,-0.101184 5.623999,-0.02534 7.999999,0.168531 5.121382,0.417894 20.479999,0.505069 20.479999,0.116243 z m 8.319999,-0.506051 c 0,-0.06748 -0.36,-0.122695 -0.8,-0.122695 -0.44,0 -0.8,0.124032 -0.8,0.275626 0,0.151594 0.36,0.206806 0.8,0.122694 0.44,-0.08411 0.8,-0.20814 0.8,-0.275625 z m -2.432796,-2.344589 c 1.257295,-0.694045 2.931023,-1.422269 3.719394,-1.618282 5.065101,-1.259331 7.221002,-1.660838 10.06528,-1.874521 3.730233,-0.28024 11.994438,-0.142467 15.688038,0.261536 1.40795,0.154 2.59773,0.242176 2.64396,0.195945 0.33992,-0.33991 0.60842,-17.283782 0.44661,-28.182783 -0.0756,-5.092976 1.23768,-19.134978 1.97895,-21.159412 0.24984,-0.682323 0.63491,-1.724051 0.85569,-2.314951 0.50339,-1.347217 0.35051,-1.456358 -2.68281,-1.915306 -8.723319,-1.319855 -16.160947,-1.169258 -22.122316,0.447931 -1.584,0.429705 -3.154106,0.781385 -3.489123,0.78151 -0.335018,1.26e-4 -1.343018,0.340275 -2.24,0.755886 -0.896983,0.415612 -2.33423,0.926558 -3.193882,1.135437 -3.164348,0.768872 -6.197916,3.044979 -6.28262,4.713896 -0.10393,2.047645 -0.06342,4.446948 0.188323,11.155009 0.145312,3.872 0.260285,7.652 0.255498,8.4 -0.0096,1.506499 0.170707,1.67568 0.767542,0.72 0.223296,-0.357555 0.746247,-0.64 1.18497,-0.64 0.431907,0 1.546688,-0.279894 2.477289,-0.621987 7.047353,-2.590627 19.007627,-3.43929 25.295999,-1.794919 1.7182,0.4493 3.40513,0.816906 3.74874,0.816906 0.90881,0 1.37407,1.041578 0.88317,1.97713 -0.39877,0.759961 -2.27761,0.803059 -4.02794,0.0924 -4.327465,-1.757027 -12.776213,-1.678188 -19.087966,0.178112 -0.528,0.155287 -1.599562,0.37216 -2.381245,0.48194 -0.781686,0.109782 -2.048249,0.412476 -2.814588,0.672656 -0.766343,0.260179 -1.638781,0.43855 -1.938755,0.396384 -0.299978,-0.04217 -1.023082,0.03546 -1.606903,0.172502 -0.813692,0.191005 -1.206339,0.11809 -1.681961,-0.312346 -0.341261,-0.308835 -0.662656,-0.5024 -0.714215,-0.430147 -0.08996,0.12608 0.201552,6.47049 0.528013,11.491373 0.08583,1.32 0.339511,5.748 0.563738,9.84 0.224224,4.091999 0.470557,7.439999 0.547405,7.439999 0.07685,0 1.168419,-0.567852 2.425715,-1.261894 z m -0.798544,-3.596666 c -0.472724,-0.883292 0.405628,-1.690262 2.381631,-2.188079 0.731341,-0.184247 2.553709,-0.706244 4.049709,-1.159988 6.152527,-1.866099 7.12126,-2.042406 12.337388,-2.245388 7.808068,-0.30385 12.657548,0.588688 12.150418,2.236256 -0.11779,0.382668 -0.22773,0.877782 -0.24432,1.100256 -0.0201,0.269308 -0.3599,0.351814 -1.01682,0.24687 -4.41845,-0.705853 -6.578008,-0.901702 -9.626667,-0.873037 -3.721571,0.03499 -9.146083,0.770083 -11.07006,1.500135 -1.258173,0.477414 -7.573984,2.080652 -8.198681,2.081196 -0.213808,1.86e-4 -0.556976,-0.314013 -0.762598,-0.698221 z m -0.406375,-6.698175 c -0.983312,-1.403879 1.036471,-2.725552 5.776077,-3.779658 5.390537,-1.198873 10.341864,-1.40295 16.581637,-0.683433 8.907607,1.027148 9.517057,1.189164 9.867637,2.623212 0.3137,1.283226 -0.41485,1.726611 -2.1098,1.283997 -9.543044,-2.492038 -23.276758,-2.18521 -27.881893,0.622918 -1.273667,0.77666 -1.650634,0.765344 -2.233658,-0.06704 z m 0.01258,-5.844448 c -0.465001,-0.70968 -0.451254,-0.804391 0.203197,-1.399802 2.649321,-2.41032 15.449314,-4.179219 16.201813,-2.239014 0.311527,0.803229 -0.307357,2.06223 -0.939629,1.911504 -2.399587,-0.572042 -6.760572,-0.08779 -10.515541,1.167673 -4.651475,1.5552 -4.321936,1.517943 -4.94984,0.559639 z m 17.227404,-1.155152 c -0.112109,-0.181395 0.01635,-0.23504 0.301113,-0.125763 0.554375,0.212732 0.655805,0.442099 0.195507,0.442099 -0.165612,0 -0.389094,-0.142352 -0.49662,-0.316336 z M 74.356986,51.019272 c -0.80199,-1.223993 -0.01338,-1.790915 4.385491,-3.152716 7.371513,-2.282067 14.268265,-2.606205 23.817513,-1.119392 3.11673,0.48527 3.76183,0.922592 3.3029,2.239085 -0.35916,1.0303 -1.59235,1.272319 -2.90457,0.570038 -1.67675,-0.897366 -13.33553,-1.541242 -16.783075,-0.92687 -3.067014,0.546556 -6.222659,1.280483 -6.975251,1.622275 -0.894057,0.406038 -3.993913,1.588307 -4.16447,1.588307 -0.07743,0 -0.382768,-0.369328 -0.678538,-0.820727 z M 73.634618,37.956854 c -1.344319,-1.43096 0.837072,-2.384711 8.125376,-3.552592 10.729122,-1.719239 12.810837,-1.73074 22.133576,-0.122272 2.28903,0.394931 3.57321,1.406374 3.05708,2.407817 -0.1673,0.324605 -0.2396,0.770291 -0.16068,0.99041 0.1431,0.399094 -0.20205,0.350989 -1.66998,-0.232759 -4.59639,-1.827846 -13.082416,-1.938214 -23.45239,-0.305014 -2.162819,0.340627 -4.448406,0.834925 -5.079081,1.098438 -1.572525,0.657044 -2.11919,0.60448 -2.953901,-0.284028 z m 0.205376,-5.442311 c -1.564806,-1.187856 1.0284,-2.711763 6.546509,-3.847076 4.067305,-0.83682 5.376623,-0.659572 5.368591,0.726769 -0.0077,1.322641 -0.347881,1.560685 -2.2351,1.56386 -1.022067,0.0017 -3.188803,0.422019 -5.16775,1.002432 -3.878026,1.137401 -3.762435,1.123206 -4.51225,0.554015 z M 73.32851,27.556755 c -1.423895,-0.902362 0.989744,-2.489535 6.351484,-4.176646 13.085829,-4.117553 30.633456,-4.501827 28.207786,-0.61772 -0.23005,0.368369 -0.24942,0.59761 -0.0505,0.59761 0.17749,0 0.32271,0.137613 0.32271,0.305806 0,0.168193 -0.612,0.08119 -1.36,-0.193348 -4.84716,-1.779028 -18.762377,-0.226222 -29.022869,3.238676 -3.613264,1.220175 -3.801207,1.2559 -4.448611,0.845622 z m 0.900537,-4.537211 c -0.62728,-1.172086 0.841703,-2.205216 4.924656,-3.463492 2.734905,-0.842838 3.293264,-0.845169 3.737238,-0.0156 0.505766,0.945034 -0.03287,1.450373 -2.19775,2.061897 -0.997258,0.2817 -2.573133,0.864412 -3.501946,1.294915 -2.05814,0.953947 -2.50718,0.972483 -2.962198,0.122278 z m 10.090947,49.620454 c 0.108774,-0.176 -0.09023,-0.32 -0.442231,-0.32 -0.352,0 -0.728995,0.144 -0.837769,0.32 -0.108775,0.176 0.09023,0.32 0.44223,0.32 0.352,0 0.728995,-0.144 0.83777,-0.32 z m -13.403078,-1.84 c -0.08265,-1.012 -0.165145,-2.056 -0.183324,-2.32 -0.02637,-0.383097 -0.09891,-0.366947 -0.359229,0.08 -0.440973,0.757104 -1.794871,0.71064 -2.287702,-0.07851 -0.877008,-1.404317 -9.235529,-4.370794 -14.486665,-5.141383 -5.337651,-0.783286 -13.569621,-0.379929 -18.204357,0.891991 -2.016819,0.553481 -2.755641,0.233686 -2.755641,-1.192765 0,-2.153638 18.092385,-3.00239 25.468881,-1.1948 4.707993,1.153683 10.126748,3.428 12.244703,5.139251 0.361741,0.292279 0.390458,-0.0717 0.173309,-2.196729 -0.143152,-1.40088 -0.266266,-3.591015 -0.273587,-4.866964 -0.01152,-2.008515 -0.08999,-2.319919 -0.584567,-2.319999 -0.314192,-5.2e-5 -0.918448,-0.227581 -1.34279,-0.50562 -4.43352,-2.904953 -22.565531,-3.738553 -33.052657,-1.519558 -1.748701,0.370013 -2.435484,0.402038 -2.764566,0.128928 -0.453309,-0.376214 -0.889751,-1.939386 -0.544351,-1.949667 0.107593,-0.0032 1.923624,-0.302474 4.035624,-0.665047 9.768956,-1.677062 26.11003,-1.017849 32.206363,1.299232 0.942499,0.358224 1.765984,0.651389 1.829968,0.651479 0.06398,8.6e-5 0.02605,-0.61184 -0.08429,-1.35984 -0.238205,-1.614723 -0.452704,-6.572307 -0.681888,-15.76 -0.0922,-3.696 -0.241344,-7.152 -0.331443,-7.68 -0.179014,-1.049075 -0.234672,-6.350576 -0.07696,-7.330334 0.136989,-0.850989 -3.008816,-2.746539 -4.561075,-2.748342 -1.297427,-0.0015 -3.598089,-0.854869 -7.980674,-2.960192 C 51.998006,15.124918 45.55655,14.013526 37.439997,13.943627 30.810154,13.886532 26.313045,14.574888 26.701553,15.587322 26.78865,15.814295 26.720431,16 26.549955,16 c -0.546693,0 -0.333686,6.706118 0.355747,11.199999 0.364516,2.376 0.734017,4.896 0.821114,5.6 0.0871,0.704 0.298799,2.144 0.470448,3.2 0.171649,1.056 0.381333,2.407978 0.465962,3.004394 0.08463,0.596416 0.209436,1.174294 0.277347,1.284176 0.143339,0.231926 0.433936,5.797545 0.661611,12.67143 0.193011,5.827264 0.366336,8.207488 0.830633,11.40679 0.40477,2.789136 0.88861,3.129187 3.581667,2.51728 4.454771,-1.012195 14.871861,-1.170058 22.305512,-0.338019 4.008684,0.448688 10.410236,2.906352 13.279999,5.098419 0.704,0.537747 1.322118,0.981731 1.373596,0.986627 0.05148,0.0049 0.02598,-0.819098 -0.05667,-1.831098 z M 33.633079,59.399858 c -1.486739,-1.791411 0.693994,-2.734515 6.846918,-2.961094 7.411279,-0.272919 10.925026,0.45335 9.429382,1.948998 -0.407479,0.407475 -1.148071,0.438864 -4.914832,0.20831 -2.439286,-0.149302 -4.884947,-0.156902 -5.434806,-0.0169 -0.549859,0.140013 -1.719744,0.405533 -2.599744,0.590042 -0.88,0.184509 -1.89806,0.420925 -2.262355,0.525369 -0.399789,0.114618 -0.821795,-0.0022 -1.064563,-0.294739 z m 32.442916,-7.186941 c -0.772134,-0.711241 -6.327942,-2.275885 -9.275999,-2.612332 -4.003667,-0.456919 -19.754015,0.57799 -22.3506,1.468591 -1.497514,0.513629 -1.57257,0.509872 -2.192125,-0.109683 -1.067904,-1.067904 -0.344787,-1.857987 2.219917,-2.425504 5.598604,-1.238854 21.752254,-1.731222 25.522808,-0.777942 3.955894,1.000138 7.052562,1.957385 7.430466,2.296921 0.478167,0.429616 0.173479,1.787031 -0.401123,1.787031 -0.228806,0 -0.465811,0.149398 -0.526678,0.332 -0.06705,0.201152 -0.235207,0.21728 -0.426666,0.04092 z M 32.313527,46.387913 c -0.526658,-0.984074 -0.10496,-1.803767 1.055939,-2.052516 4.537443,-0.972249 6.62727,-1.107129 14.734457,-0.950992 11.074098,0.21328 12.919055,0.588263 12.193765,2.478333 -0.218745,0.570042 -1.247932,0.999949 -1.71008,0.714327 -1.930444,-1.193082 -20.734894,-1.171904 -24.147844,0.0272 -1.61103,0.566016 -1.713085,0.555632 -2.126237,-0.216346 z m 34.423578,-1.880228 c -0.309881,-0.501401 -5.67358,-2.655289 -7.673113,-3.081273 -6.33445,-1.349504 -19.206677,-1.13593 -24.000913,0.398221 -1.76167,0.563731 -2.883376,-0.09902 -2.519923,-1.488877 0.719862,-2.752758 21.405816,-3.091642 29.46947,-0.482778 5.970233,1.931568 7.622873,3.074723 6.463919,4.471178 -0.438758,0.528669 -1.459564,0.636377 -1.73944,0.183529 z M 32.123127,36.884159 c -0.970346,-0.663885 -0.795925,-1.595673 0.405402,-2.165744 4.793443,-2.274637 12.356165,-1.748374 11.010418,0.766173 -0.34383,0.642454 -0.536877,0.696944 -1.723081,0.486378 -2.554327,-0.453428 -4.769302,-0.199632 -8.855868,1.01472 -0.264,0.07845 -0.640592,0.03276 -0.836871,-0.101527 z M 66.149614,34.515782 C 65.844997,34.345308 64.840715,33.940825 63.91788,33.61693 62.995042,33.293036 61.447995,32.737625 60.479995,32.382681 53.659417,29.881723 39.665488,29.672415 33.118676,31.973434 c -2.45075,0.861368 -3.653335,0.41173 -3.121978,-1.16729 0.187321,-0.556656 4.558221,-1.876805 7.767725,-2.346096 10.622725,-1.553249 32.040807,2.377089 30.180177,5.53823 -0.321072,0.545494 -1.260829,0.816432 -1.794986,0.517504 z m -0.910588,-4.396266 c -0.47401,-0.648323 -6.306586,-3.301669 -8.50552,-3.869317 -0.740569,-0.191175 -1.439133,-0.497495 -1.552368,-0.680711 -0.113232,-0.183216 -0.395897,-0.260202 -0.628144,-0.171082 -0.232246,0.08912 -1.709862,-0.101763 -3.283593,-0.424187 -4.640534,-0.950747 -15.437688,-0.03794 -18.763058,1.586259 -1.158996,0.566085 -1.318178,0.5742 -2.108275,0.107479 -3.438927,-2.031425 4.537974,-4.338509 14.702418,-4.252243 6.517408,0.05531 10.42575,0.947575 18.082412,4.128152 3.662118,1.521243 4.017097,1.760835 4.017097,2.711316 0,1.374704 -1.200842,1.903997 -1.960969,0.864334 z M 29.463655,19.244204 c -0.51319,-0.958904 1.292862,-2.322911 2.653754,-2.004226 0.152576,0.03573 0.777126,-0.09996 1.387888,-0.301529 1.210643,-0.399549 7.425404,-0.469713 10.88501,-0.122891 3.202995,0.321097 3.862646,0.838554 2.844317,2.231201 -0.386858,0.529061 -0.515984,0.550479 -0.982842,0.163023 -0.978841,-0.812367 -11.184114,-0.827605 -13.580629,-0.02028 -2.380366,0.801887 -2.803751,0.809108 -3.207498,0.0547 z m 67.603679,52.922514 c 5.691456,-0.179116 7.535116,-0.332259 7.263976,-0.603379 -0.54922,-0.549177 -14.579614,-0.461974 -17.451316,0.108467 -1.658708,0.329488 -2.04201,0.493562 -1.477047,0.632256 0.837069,0.205495 0.730967,0.206743 11.664387,-0.137344 z M 56.903797,71.798786 c 3.216039,-0.244039 2.756362,-0.41474 -2.064003,-0.766474 -2.265891,-0.165338 -5.576082,-0.439475 -7.35599,-0.609197 -3.780169,-0.360454 -10.7114,0.02086 -20.043806,1.102723 -0.980945,0.113716 -1.52,0.05406 -1.52,-0.168198 0,-0.189421 -0.294929,-0.660973 -0.655398,-1.047888 -0.496293,-0.53271 -0.593397,-0.898458 -0.4,-1.506621 0.595496,-1.872614 -0.07798,-15.05759 -1.024428,-20.055846 -0.06116,-0.323008 -0.136578,-1.019286 -0.167588,-1.547286 -0.05498,-0.936211 -0.06208,-0.940176 -0.286414,-0.16 -0.225769,0.785174 -0.194593,1.769805 0.11652,3.68 0.206572,1.268326 0.616159,13.869126 0.530478,16.32 -0.138877,3.972559 0.07968,4.510131 1.980018,4.870204 1.692993,0.320787 26.367687,0.231789 30.890611,-0.111417 z m 64.880333,-6.918791 c 0.0229,-7.052729 0.373,-16.60999 0.65939,-17.999996 0.0725,-0.352 0.13363,-3.51007 0.1358,-7.017936 0.002,-3.507865 0.13448,-6.963865 0.29405,-7.68 0.15957,-0.716135 0.38584,-3.102064 0.50282,-5.302064 0.11698,-2.2 0.3239,-4.618925 0.45981,-5.37539 0.24711,-1.375389 0.24711,-1.375389 -1.39186,-1.28 -2.02068,0.117607 -1.9689,-0.120137 -2.2562,10.359428 -0.11061,4.034778 -0.26697,7.839962 -0.34746,8.455962 -0.28305,2.166333 -0.83817,11.368259 -0.9459,15.68 -0.0286,1.144 -0.17275,4.387753 -0.32036,7.208339 -0.35259,6.737216 -0.16368,8.014448 1.28773,8.706576 1.11572,0.532051 1.42304,1.180611 0.69804,1.473155 -0.22,0.08877 -0.04,0.172771 0.4,0.186665 0.8,0.02525 0.8,0.02525 0.82414,-7.414739 z m -8.86638,5.988912 c 0.23132,-0.231318 0.159,-9.693385 -0.15277,-19.988908 -0.17745,-5.859766 -0.27232,-20.64 -0.13249,-20.64 0.0198,0 0.0937,-0.648 0.16432,-1.44 0.14015,-1.572323 0.2219,-2.013005 1.14211,-6.156612 0.68079,-3.065509 0.76647,-4.083387 0.34374,-4.083387 -0.53123,0 -1.67938,3.376515 -1.95862,5.759999 -0.55813,4.763837 -0.69579,5.980332 -1.10445,9.76 -0.22835,2.112 -0.37789,5.208 -0.33231,6.88 0.24592,9.020381 0.13367,29.606348 -0.16198,29.704895 -0.17892,0.05964 -0.32531,0.25928 -0.32531,0.443642 0,0.344304 2.13724,0.140893 2.51776,-0.239629 z m 3.14841,-6.148908 c 0.008,-2.948 0.16942,-6.728 0.35846,-8.4 0.18905,-1.672 0.35642,-4.696 0.37194,-6.72 0.0155,-2.024 0.16633,-5.048 0.33514,-6.72 0.35012,-3.467763 0.81568,-10.919419 1.08325,-17.338341 0.10038,-2.408088 0.34114,-5.118024 0.53503,-6.022081 0.41786,-1.948436 0.36181,-2.039308 -1.0349,-1.67779 -1.05364,0.272722 -1.07617,0.314891 -1.12929,2.114038 -0.0298,1.009671 -0.21701,2.296657 -0.416,2.85997 -1.24482,3.523959 -1.56894,6.97231 -1.38957,14.784204 0.097,4.224 0.22601,9.984 0.28674,12.8 0.37565,17.418847 0.47546,19.679999 0.8687,19.679999 0.0637,0 0.12239,-2.411999 0.1305,-5.359999 z m -85.666162,4.33999 c -2.249781,-0.946864 -2.137324,-0.769661 -2.47002,-3.892138 l -0.311959,-2.927852 -0.04901,3.417744 c -0.05473,3.816371 -0.157119,3.664799 2.51099,3.71702 1.071518,0.02096 1.08537,0.0073 0.32,-0.314774 z m 26.559998,-0.145133 c -3.271437,-1.049283 -13.652079,-1.507398 -17.919999,-0.790838 -1.435699,0.241046 -1.052432,0.27422 2.08,0.180044 3.242201,-0.09748 6.38959,0.105338 14.239999,0.917626 2.659558,0.275184 3.132083,0.18457 1.6,-0.306832 z m -22.633909,-0.0048 c -0.21665,-0.08765 -0.64865,-0.09299 -0.96,-0.01187 -0.31135,0.08113 -0.134089,0.152851 0.39391,0.159373 0.528,0.0065 0.78274,-0.05986 0.56609,-0.147517 z m 2.07391,-0.330685 c -0.308,-0.08049 -0.812,-0.08049 -1.12,0 -0.308,0.08049 -0.056,0.146346 0.56,0.146346 0.616,0 0.868,-0.06586 0.56,-0.146346 z M 21.331928,64.879999 c -0.08877,-0.22 -0.161403,-0.04 -0.161403,0.4 0,0.44 0.07263,0.62 0.161403,0.4 0.08877,-0.22 0.08877,-0.58 0,-0.8 z m 0.05284,-3.36 c -0.05523,-2.48 -0.05523,-2.48 -0.241979,-0.4 -0.175383,1.953411 -0.120223,2.88 0.171447,2.88 0.06917,0 0.100909,-1.116 0.07053,-2.48 z m 5.987628,-8.96 c -0.238653,-9.289283 -0.27016,-9.727334 -1.006953,-14 -0.273151,-1.584 -0.565756,-3.456 -0.650235,-4.16 -0.08448,-0.704 -0.281174,-1.856 -0.437102,-2.56 -0.155929,-0.704 -0.369095,-2.072 -0.473702,-3.04 -0.104608,-0.968 -0.343431,-2.239727 -0.530718,-2.82606 -0.187287,-0.586333 -0.361484,-2.27764 -0.387104,-3.758459 -0.05179,-2.993447 -0.08496,-3.023805 -2.726583,-2.49548 -0.882962,0.176592 -1,0.3264 -1,1.28 0,0.594 0.144,1.08 0.32,1.08 0.176,0 0.32,-0.205715 0.32,-0.457143 0,-0.49378 0.840298,-1.462857 1.268461,-1.462857 0.144511,0 0.276107,0.828 0.292437,1.84 0.01633,1.011999 0.174051,2.336922 0.350491,2.944272 0.414447,1.426622 1.205898,6.353798 1.416068,8.815727 0.09015,1.056 0.322106,2.563293 0.515462,3.349543 0.193355,0.786246 0.281366,1.722246 0.19558,2.08 -0.08579,0.35775 -0.01077,1.298457 0.1667,2.090457 0.177472,0.792 0.4412,2.376 0.586063,3.52 0.144863,1.144 0.481546,3.592 0.748186,5.44 0.26664,1.848 0.586609,5.052 0.711043,7.12 0.39069,6.492972 0.550727,4.10662 0.321906,-4.8 z m -6.375303,-1.44 c -0.109232,-1.452 -0.272508,-3.792 -0.362836,-5.2 -0.09033,-1.408 -0.300709,-3.712 -0.467515,-5.12 -0.166806,-1.408 -0.382538,-3.764947 -0.479405,-5.237664 -0.09687,-1.472713 -0.230115,-2.768713 -0.296108,-2.88 -0.06599,-0.111283 -0.213386,-1.066336 -0.327541,-2.122336 -0.532308,-4.92418 -1.16243,-7.455182 -1.813656,-7.284882 -0.957544,0.250403 -1.199583,3.616193 -0.408327,5.678175 0.09113,0.237467 0.21544,1.056122 0.276255,1.819233 0.06082,0.763111 0.327959,2.323474 0.593653,3.467474 0.571037,2.45872 1.653722,9.220736 2.126298,13.28 0.680644,5.846505 1.525591,8.470605 1.159182,3.6 z m 2.272532,-7.1956 c -0.07355,-0.486419 -0.135699,-0.1644 -0.138101,0.7156 -0.0024,0.88 0.05778,1.277981 0.133733,0.8844 0.07596,-0.393581 0.07792,-1.113581 0.0044,-1.6 z m -0.657696,-5.2844 c -0.08877,-0.22 -0.161403,-0.04 -0.161403,0.4 0,0.44 0.07263,0.62 0.161403,0.4 0.08877,-0.22 0.08877,-0.58 0,-0.8 z"
     id="path314"
     inkscape:connector-curvature="0" />
</svg>
