<?xml version="1.0" encoding="UTF-8" standalone="no"?>
<!-- Created with Inkscape (http://www.inkscape.org/) -->

<svg
   xmlns:dc="http://purl.org/dc/elements/1.1/"
   xmlns:cc="http://creativecommons.org/ns#"
   xmlns:rdf="http://www.w3.org/1999/02/22-rdf-syntax-ns#"
   xmlns:svg="http://www.w3.org/2000/svg"
   xmlns="http://www.w3.org/2000/svg"
   xmlns:sodipodi="http://sodipodi.sourceforge.net/DTD/sodipodi-0.dtd"
   xmlns:inkscape="http://www.inkscape.org/namespaces/inkscape"
   version="1.1"
   id="svg737"
   width="131.2"
   height="119.04"
   viewBox="0 0 131.2 119.04"
   sodipodi:docname="conference.svg"
   inkscape:version="0.92.4 5da689c313, 2019-01-14">
  <metadata
     id="metadata743">
    <rdf:RDF>
      <cc:Work
         rdf:about="">
        <dc:format>image/svg+xml</dc:format>
        <dc:type
           rdf:resource="http://purl.org/dc/dcmitype/StillImage" />
        <dc:title></dc:title>
      </cc:Work>
    </rdf:RDF>
  </metadata>
  <defs
     id="defs741" />
  <sodipodi:namedview
     pagecolor="#ffffff"
     bordercolor="#666666"
     borderopacity="1"
     objecttolerance="10"
     gridtolerance="10"
     guidetolerance="10"
     inkscape:pageopacity="0"
     inkscape:pageshadow="2"
     inkscape:window-width="3200"
     inkscape:window-height="1745"
     id="namedview739"
     showgrid="false"
     inkscape:zoom="6.9578878"
     inkscape:cx="48.079964"
     inkscape:cy="71.022435"
     inkscape:window-x="0"
     inkscape:window-y="55"
     inkscape:window-maximized="1"
     inkscape:current-layer="svg737" />
  <path
     style="fill:#000000;stroke-width:0.31999999"
     d="M 7.9043955,117.55773 C 7.7809779,117.43431 7.68,116.52538 7.68,115.53788 c 0,-1.79546 0,-1.79546 -2.050288,-2.68867 -2.6698779,-1.16312 -2.9169405,-1.72384 -2.599426,-5.8995 C 3.2799165,103.66679 3.281199,96.190752 3.032686,92.96 2.6744988,88.30345 2.6761147,85.323603 3.0389331,81.44 3.2526852,79.152 3.4550224,74.328 3.4885716,70.72 3.5221207,67.112 3.610409,63.728 3.684768,63.2 3.848112,62.040144 3.885546,53.222554 3.7669578,43.84 3.7191309,40.056 3.8551232,34.872 4.0691626,32.32 4.283202,29.768 4.5386992,25.16 4.6369341,22.08 4.844144,15.583277 5.1312356,10.486273 5.3060768,10.200097 5.3732493,10.09015 5.5219552,8.6501501 5.6365344,7.0000966 5.9234643,2.8680275 6.6035776,1.6115776 7.868583,2.8765829 8.297359,3.305359 13.832737,2.50179 14.004733,1.9857996 14.174163,1.4775111 15.26946,1.4883482 15.43996,2 15.53124,2.2739268 16.422159,2.4108538 18.266627,2.4344365 19.747982,2.4533765 22.76,2.6278052 24.96,2.8220557 27.16,3.0163061 32.128,3.2634611 36,3.371289 c 3.872,0.1078278 8.048,0.2476524 9.28,0.3107209 3.84895,0.1970362 10.189696,0.5512573 11.36,0.6346183 0.616,0.043878 4.36,0.2496736 8.32,0.4573241 3.96,0.2076506 8.433754,0.5144592 9.94167,0.6817971 C 76.40959,5.6230874 78.78937,5.76 80.190067,5.76 c 1.400698,0 3.694944,0.1366419 5.098327,0.3036486 C 86.691779,6.2306554 89.352,6.4545104 91.2,6.5611043 c 1.848,0.1065936 4.368,0.2547901 5.6,0.3293248 1.232,0.074535 4.76,0.2110189 7.84,0.3032979 6.04879,0.1812266 11.20876,0.3991376 15.08518,0.6370631 2.231,0.1369334 2.45962,0.094857 2.61004,-0.4803555 0.23369,-0.8936276 1.13444,-0.7824148 1.37338,0.1695654 0.27777,1.1067613 3.9714,1.2555702 3.9714,0.16 0,-0.4710064 0.21333,-0.64 0.80792,-0.64 1.42919,0 1.57718,1.1790762 0.78317,6.239694 -0.16566,1.055831 -0.3789,3.431831 -0.47388,5.28 -0.32183,6.262572 -0.48368,9.11441 -0.63566,11.200306 -0.58869,8.079613 -0.83198,12.263504 -0.79229,13.625062 0.0252,0.866215 0.0307,5.606938 0.012,10.534938 -0.0187,4.928 0.0671,11.048 0.19048,13.6 0.12342,2.552 0.21834,5.504 0.21093,6.56 -0.18194,25.95136 -0.388,34.36475 -0.8642,35.28563 -1.01788,1.96836 -2.15062,2.32764 -7.12099,2.25866 -13.81646,-0.19176 -25.29955,0.0452 -28.695819,0.59211 -1.441907,0.2322 -4.781651,0.56474 -7.421651,0.73896 -6.367767,0.42023 -7.356436,0.53459 -8.110368,0.93808 -0.468698,0.25084 -0.671783,0.24011 -0.765293,-0.0404 -0.09654,-0.28963 -1.139498,-0.24352 -4.317754,0.1909 -3.105741,0.4245 -5.792278,0.54996 -10.378525,0.48468 -9.059152,-0.12895 -8.96622,-0.13116 -14.289414,0.33956 -4.685488,0.41433 -19.113118,0.31276 -25.018646,-0.17613 -2.333836,-0.19321 -11.3197409,-0.67429 -11.4333655,-0.61211 -0.040351,0.0221 -0.1341098,0.82313 -0.2083533,1.78011 -0.1276886,1.64589 -0.6281286,2.32345 -1.2538861,1.6977 z M 43.2,112.93486 c 0,-0.16217 -0.128595,-0.29486 -0.285763,-0.29486 -0.698259,0 -0.58288,-1.15247 0.355344,-3.54939 0.976102,-2.49369 0.998685,-2.65893 0.645155,-4.72056 -0.531011,-3.09663 -1.551005,-5.367845 -2.586784,-5.75998 -1.477987,-0.559548 -3.808467,-0.646 -4.492822,-0.166659 -0.96402,0.675226 -1.484615,3.654329 -1.009549,5.777149 0.207971,0.92931 0.366649,1.76455 0.352617,1.85608 -0.08096,0.52811 1.092244,2.62695 2.208144,3.95035 1.462826,1.73482 1.561511,2.12714 0.656861,2.61129 -0.84288,0.4511 -3.353779,-1.79617 -4.194691,-3.75427 -1.943846,-4.52635 -1.625315,-11.53976 0.56223,-12.379204 0.356973,-0.136982 0.406948,-0.306473 0.173549,-0.588592 C 35.40401,95.698298 35.254787,95.16 35.252685,94.72 c -0.0022,-0.44 -0.105331,-1.482131 -0.229402,-2.315846 -0.487952,-3.278928 3.331395,-5.560957 6.860563,-4.09913 2.382816,0.986995 2.704096,5.559146 0.518112,7.37335 -0.525801,0.436378 -0.129929,1.281626 0.60025,1.281626 0.757453,0 2.219677,2.959773 2.889853,5.84953 0.541725,2.33587 0.432656,3.86934 -0.46977,6.60477 -0.380153,1.15232 -0.476605,1.89566 -0.277158,2.13598 0.168249,0.20273 0.213213,0.61017 0.09991,0.90542 -0.170518,0.44436 -0.06377,0.50111 0.619805,0.32955 0.454192,-0.114 3.041178,-0.22931 5.748861,-0.25626 l 4.923056,-0.049 -1.228384,-1.4606 C 54.632774,110.21608 54.08,109.44467 54.08,109.30516 c 0,-0.13952 -0.463187,-1.21025 -1.029302,-2.37941 -1.747024,-3.608 -1.244138,-8.109043 1.042732,-9.332937 0.564797,-0.302272 0.546714,-0.399059 -0.343017,-1.835952 -1.74512,-2.818317 -1.387296,-5.386173 1.076813,-7.727565 0.631328,-0.599888 1.059859,-1.233114 0.952288,-1.407165 C 55.579651,86.298746 54.317686,81.632669 53.728886,79.04 53.549024,78.248 53.302442,76.392403 53.180931,74.916454 L 52.96,72.232906 l -3.213702,0.06058 c -2.764532,0.05212 -3.547232,-0.05847 -5.6,-0.791203 C 33.13152,67.57057 32.084355,63.798538 38.821043,52.32 c 1.649581,-2.810691 2.567872,-3.957264 3.833578,-4.786586 1.054093,-0.690668 2.277504,-0.393222 2.044675,0.497117 -0.08757,0.334858 -0.01789,0.696167 0.154813,0.802909 0.181776,0.112346 0.05108,0.483078 -0.310349,0.88032 -0.874387,0.96103 -1.458109,3.765469 -1.253472,6.022218 C 43.684784,60.08657 47.164333,64 50.638077,64 c 1.731782,0 4.109641,0.575888 4.454419,1.078803 0.117123,0.170845 0.919738,-0.324848 1.788256,-1.104419 2.251635,-2.021037 7.128109,-3.477133 11.684096,-3.488829 3.272941,-0.0084 4.831683,-1.020845 10.729216,-6.968928 4.71921,-4.759654 4.91929,-4.918998 5.6,-4.459821 0.664176,0.44802 0.70073,0.677549 0.61793,3.880247 -0.122519,4.739104 -1.978692,8.499318 -7.351124,14.891827 -0.66048,0.785885 -1.170585,1.524739 -1.133571,1.641898 0.03701,0.117161 -0.214985,0.468483 -0.56,0.780716 -0.345014,0.312234 -0.627299,0.83512 -0.627299,1.161968 0,0.326848 -0.45369,2.284532 -1.008195,4.350404 -0.554509,2.065875 -1.166509,4.717619 -1.36,5.892764 -0.444656,2.700541 -1.386695,4.041789 -2.396058,3.411431 C 70.704086,84.835955 70.4,84.386618 70.4,84.069533 70.4,83.096883 71.366893,78.634986 71.872592,77.274 74.502538,70.196038 73.884742,64.360326 70.4,63.36384 67.324835,62.484477 60.343363,63.836509 58.281712,65.710672 56.646422,67.197245 55.352144,70.08 56.32,70.08 c 0.615555,0 0.33137,1.571398 -0.350147,1.936134 -1.030583,0.551549 -0.576845,4.372224 1.328176,11.183866 0.369165,1.32 0.752509,2.742784 0.851875,3.161744 0.09937,0.41896 0.746717,1.273139 1.438554,1.898173 2.449897,2.213334 2.918393,3.908477 1.729331,6.257174 -0.762208,1.505559 -0.762208,1.505559 0.08,1.943043 0.764294,0.397012 2.282211,2.116765 2.282211,2.585674 0,0.105446 0.468,0.775443 1.04,1.488882 1.021306,1.27384 1.038547,1.34972 0.959213,4.22123 -0.04443,1.60825 -0.129309,3.14008 -0.188611,3.40408 -0.905175,4.02949 -0.662736,4.46249 2.291436,4.09257 1.175879,-0.14725 2.857962,-0.32697 3.737962,-0.3994 0.88,-0.0724 1.672,-0.15807 1.76,-0.19032 0.088,-0.0323 0.268,-0.0416 0.4,-0.0207 0.427952,0.0676 0.257674,-0.57763 -0.688509,-2.60884 -0.510678,-1.0963 -1.194678,-2.56927 -1.52,-3.27327 -1.269069,-2.74629 -0.641881,-6.28736 1.406893,-7.943226 0.903219,-0.73 0.89951,-0.870202 -0.05232,-1.977917 -3.100861,-3.608697 2.166937,-8.444688 6.999328,-6.425587 2.601661,1.087046 2.789789,5.829606 0.256761,6.472762 -0.698009,0.177232 -0.686812,0.213305 0.405069,1.305187 1.484019,1.484009 3.352781,4.866481 3.352781,6.068551 0,0.52705 -0.295267,2.37222 -0.65615,4.10038 -0.776816,3.71993 -0.822925,3.65625 2.52223,3.48344 2.99487,-0.15471 3.050835,-0.2118 2.323046,-2.36988 -0.325283,-0.96455 -0.752908,-2.26794 -0.950275,-2.89644 -0.776387,-2.47232 -0.153862,-7.137046 1.11105,-8.32537 0.748614,-0.703286 0.748614,-0.703286 0.0555,-1.676672 -1.672519,-2.348835 -0.981866,-6.063264 1.348441,-7.252099 4.495888,-2.293632 8.03978,1.524035 5.956631,6.4168 -0.141143,0.331511 0.03348,0.632327 0.518336,0.892899 1.974889,1.06136 3.125558,4.390332 3.362224,9.727162 l 0.180931,4.08 h 3.634013 c 1.99871,0 3.63402,-0.0791 3.63402,-0.17589 0,-0.40039 -0.9551,-1.98168 -1.44,-2.38411 -2.29941,-1.90834 -1.97184,-9.894646 0.47617,-11.609299 0.6909,-0.483927 0.6909,-0.483927 -0.013,-1.863587 -0.77038,-1.510068 -0.89775,-3.956004 -0.26964,-5.17784 0.51191,-0.99577 1.93324,-2.469274 2.38185,-2.469274 0.58231,0 0.76858,-3.325798 0.58247,-10.4 -0.0926,-3.52 0.004,-9.856 0.21476,-14.08 0.21073,-4.224 0.38481,-7.896 0.38686,-8.16 0.002,-0.264 -0.009,-2.424 -0.0239,-4.8 -0.0152,-2.376 0.11238,-5.688 0.28351,-7.36 0.98312,-9.605235 1.05464,-9.279727 -1.47112,-6.694893 -2.35978,2.414957 -4.52304,3.357578 -10.264428,4.472624 -4.893744,0.950423 -6.818048,0.88208 -10.664682,-0.378758 C 83.795072,37.289181 83.795072,37.289181 82.45753,38.043104 77.737363,40.703699 75.101565,41.92 74.056086,41.92 72.703654,41.92 71.68,41.43609 71.68,40.796755 c 0,-0.847382 3.868157,-8.903878 4.73479,-9.861496 0.498036,-0.550325 0.491581,-0.609406 -0.101449,-0.928279 C 73.77881,28.644158 72.019776,25.161312 71.271811,20.024874 70.305482,13.388865 71.191773,8.9242083 73.52,8.6997254 74.704554,8.585513 74.887072,9.1233443 74.081158,10.353322 73.042902,11.937899 72.96,14.638497 73.750643,21.12 c 0.576813,4.728581 2.126864,7.055821 5.105232,7.664962 0.960403,0.196424 1.523703,1.152854 0.928608,1.576693 -0.859283,0.612001 -5.442368,8.887129 -5.107497,9.221999 0.176668,0.176666 3.703798,-1.523558 6.102048,-2.941443 2.615904,-1.546563 3.859795,-1.869245 4.98086,-1.292093 4.669872,2.40417 6.987325,2.599191 13.078948,1.100647 4.818848,-1.18544 6.013448,-1.757482 8.375818,-4.0108 1.05671,-1.007928 2.09345,-1.719965 2.50432,-1.719965 1.01516,0 1.00183,0.136597 1.08489,-11.121001 L 110.88,9.27972 109.76,9.2666493 C 105.15731,9.2129344 89.037315,8.3989747 84.8,8.0063242 80.707978,7.627137 72.869296,7.1080118 67.68,6.8725338 65.568,6.776696 61.176,6.556641 57.92,6.3835226 54.664,6.2104038 49.36351,5.9290211 46.141133,5.7582272 42.918755,5.5874336 36.419914,5.3513629 31.699267,5.2336262 21.466438,4.9784109 22.469796,4.3626563 22.049452,11.155659 21.890028,13.732046 21.547419,18.216 21.288099,21.12 c -0.478397,5.357326 -0.735193,10.238864 -0.972749,18.491334 -0.07237,2.514237 -0.194856,4.674237 -0.27218,4.8 -0.07732,0.125767 -0.241541,1.884666 -0.364926,3.908666 -0.123387,2.024 -0.285936,3.781482 -0.361223,3.905514 -0.07529,0.124032 -0.199176,2.644032 -0.27531,5.6 -0.07614,2.955968 -0.289008,7.62256 -0.473053,10.370208 -0.184045,2.747644 -0.312491,6.795753 -0.285437,8.995795 0.02705,2.200041 -0.06429,4.183696 -0.202996,4.408118 -0.138701,0.224426 -0.241993,1.685104 -0.229537,3.245955 0.01245,1.560848 -0.179328,4.376647 -0.426187,6.257328 -0.514383,3.918807 -0.540057,3.752957 0.455952,2.945485 0.721235,-0.58471 0.739817,-0.690211 0.360308,-2.045686 -0.652121,-2.329146 0.579845,-5.876045 2.22199,-6.397242 5.448033,-1.729139 10.192928,4.024813 6.575616,7.973994 -1.121632,1.224537 -1.121632,1.224537 -0.330649,2.01552 2.193685,2.193686 2.488676,5.337321 0.983886,10.485011 -0.595546,2.03729 -0.81405,3.44181 -0.746747,4.8 l 0.09514,1.92 2.56,0.18502 c 4.221286,0.30509 13.6,0.27049 13.6,-0.0502 z M 40,111.36 c 0,-0.176 0.144,-0.32 0.32,-0.32 0.176,0 0.32,0.144 0.32,0.32 0,0.176 -0.144,0.32 -0.32,0.32 -0.176,0 -0.32,-0.144 -0.32,-0.32 z M 60.304346,60.186982 c -3.205092,-0.526681 -4.788007,-2.319814 -4.776151,-5.410448 0.01702,-4.438332 3.250042,-9.568249 6.402941,-10.159737 1.685293,-0.31616 4.228326,0.01114 4.915005,0.63256 1.936707,1.752697 1.961261,9.027667 0.03871,11.471789 -0.360195,0.457916 -0.560041,1.047529 -0.451196,1.331177 0.223616,0.582727 -1.005498,1.76032 -1.854772,1.777031 C 64.281274,59.83521 63.948774,59.984 63.84,60.16 c -0.215878,0.349299 -1.513936,0.359206 -3.535654,0.02698 z m 2.836691,-2.630377 c 2.146662,-1.116061 2.897763,-2.729415 2.908723,-6.247879 0.01334,-4.285507 -0.642282,-5.157635 -3.205565,-4.26407 -3.913337,1.364195 -6.879718,10.723091 -3.263549,10.296448 0.461024,-0.05439 0.932477,0.05361 1.047677,0.24 0.275536,0.445827 1.633543,0.432589 2.512714,-0.02451 z M 25.413569,112.68277 c 0.09424,-0.15248 -0.09095,-0.51461 -0.411529,-0.80473 -0.562672,-0.5092 -0.680325,-1.91462 -0.257674,-3.07804 0.768364,-2.11506 2.135634,-6.95188 2.135634,-7.55498 0,-2.459033 -2.190033,-5.214847 -4.300063,-5.410953 -0.614731,-0.05713 -1.417748,-0.199113 -1.784483,-0.31551 -1.780782,-0.565197 -3.042224,1.557344 -3.709333,6.241443 -0.431612,3.03056 -0.400407,3.8491 0.262284,6.88 0.729257,3.33534 1.44009,3.9596 4.647709,4.08168 1.542137,0.0587 2.903387,0.13633 3.025001,0.17252 0.121613,0.0362 0.298217,-0.059 0.392454,-0.21143 z M 62.674627,112.64 c 0.122256,0 0.167299,-0.57659 0.100093,-1.28131 -0.06721,-0.70471 -0.01325,-1.53271 0.119878,-1.84 0.348781,-0.80499 0.413994,-1.21895 0.657012,-4.1706 0.218336,-2.65191 0.218336,-2.65191 -1.186637,-4.72924 -1.55808,-2.303708 -2.800455,-2.958524 -4.874816,-2.569372 -3.923133,0.735984 -3.949184,7.737032 -0.0457,12.280022 0.659158,0.76715 1.099331,1.57118 1.000768,1.82803 -0.137549,0.35844 0.137888,0.45222 1.261907,0.42966 0.790826,-0.0159 1.532717,0.066 1.64865,0.18193 0.115929,0.11593 0.410083,0.1343 0.65367,0.0408 0.24359,-0.0935 0.542915,-0.16995 0.665171,-0.16995 z m -46.523494,-0.88 c -1.415387,-3.33959 -1.656135,-5.80449 -1.023588,-10.48 0.316391,-2.338618 0.492433,-6.634557 0.524528,-12.8 0.111567,-21.431904 0.574614,-32.221606 1.82649,-42.56 0.106559,-0.88 0.237063,-3.616 0.290009,-6.08 0.145454,-6.769162 0.736903,-17.073965 1.085072,-18.905174 0.169947,-0.893846 0.333698,-2.621846 0.363891,-3.84 C 19.318626,13.016264 19.87039,7.5334147 20.317958,6.16 L 20.761153,4.8 h -2.540576 c -1.804906,0 -2.548299,0.1158275 -2.567244,0.4 -0.01467,0.22 -0.07234,0.76 -0.128167,1.2 -0.186196,1.4675549 -0.474421,7.770238 -0.651202,14.24 -0.175293,6.415285 -0.657348,15.201962 -0.965572,17.6 -1.066624,8.298531 -1.41676,10.437648 -1.951094,11.92 -0.840642,2.332112 -1.446166,1.516992 -1.010296,-1.36 0.377178,-2.48959 1.825593,-14.498723 2.006941,-16.64 0.08943,-1.056 0.255425,-7.663356 0.368868,-14.683012 L 13.529071,4.713975 11.964535,4.947441 C 9.4428621,5.3237347 8.32,5.9140714 8.32,6.863529 8.32,7.3124314 8.1026026,8.9397792 7.836895,10.479858 7.2453158,13.90873 7.1402394,15.215324 6.7238688,24.32 6.5427718,28.28 6.2888496,32.816 6.1595968,34.4 5.9186698,37.352579 5.9000314,39.55073 6.0076522,52.32 6.0417693,56.368 5.9018918,64.432 5.6968134,70.24 5.491735,76.048 5.3347277,83.464 5.3479078,86.72 c 0.024848,6.138064 0.2898736,23.02473 0.3677488,23.43178 0.045993,0.24041 1.7677725,1.20822 2.1494708,1.20822 0.1971785,0 -0.072731,-7.78488 -0.3494842,-10.08 C 6.8656131,95.889274 6.8342144,85.828643 7.4654502,85.197408 7.9656144,84.697242 8.1923478,86.507699 8.4977158,93.44 c 0.081404,1.848 0.2084676,3.673696 0.2823626,4.057101 0.073895,0.383408 0.2343491,3.695409 0.3565648,7.359999 0.1222154,3.6646 0.2623917,6.70882 0.3115027,6.76495 0.193209,0.22082 3.2917361,0.62468 5.0660901,0.66031 1.669346,0.0335 1.848291,-0.0236 1.636897,-0.52236 z m 64.878896,-3.92 c 1.077795,-4.16238 1.084749,-4.65835 0.09152,-6.52636 -1.260266,-2.370229 -3.30945,-3.862939 -4.383363,-3.193022 -0.230003,0.143475 -0.698653,0.304473 -1.04144,0.357769 -2.928135,0.455264 -3.160586,4.679653 -0.567955,10.321613 1.191286,2.59242 1.234102,2.62541 3.251667,2.50564 L 80.16,111.2 Z m 15.925334,1.705 c 0.785255,-0.75341 -0.125494,-9.57861 -1.158403,-11.225 -1.013171,-1.614925 -5.531258,-0.665542 -6.368477,1.338205 -0.518966,1.242065 -0.628512,4.861355 -0.181808,6.006735 0.157671,0.40429 0.475008,1.36611 0.705191,2.13739 0.230182,0.77129 0.57999,1.56381 0.777347,1.76117 0.343814,0.34382 5.865622,0.32741 6.22615,-0.0185 z m 25.504157,-0.44361 c 1.7559,0.0562 2.4175,-0.48149 2.53666,-2.06139 0.15636,-2.07308 0.57586,-24.96039 0.5484,-29.92 -0.018,-3.256 -0.0792,-12.4 -0.13586,-20.32 -0.0876,-12.230157 0.15406,-23.889344 0.50726,-24.478291 0.1242,-0.207082 0.43141,-4.836931 0.64774,-9.761709 0.26263,-5.978786 0.45786,-9.147478 0.66542,-10.8 0.18019,-1.434644 0.1488,-1.520198 -0.55911,-1.523522 -0.41252,-0.002 -1.27637,-0.09056 -1.91967,-0.196943 -1.16965,-0.1934217 -1.16965,-0.1934217 -1.50678,1.523522 -0.18542,0.944318 -0.43239,3.660943 -0.54882,6.036943 -0.11643,2.376 -0.25496,4.395763 -0.30784,4.488363 -0.28517,0.499374 -0.60563,14.587368 -0.47294,20.791637 0.24339,11.381187 0.19133,23.382822 -0.12632,29.12 -0.37686,6.806666 -0.42596,8.017194 -0.51269,12.64 -0.0396,2.112 -0.21214,4.2 -0.38338,4.64 -0.17123,0.44 -0.36698,4.04 -0.43499,8 -0.17049,9.9261 -0.18087,10.04608 -0.8802,10.18232 -0.55174,0.10749 -0.57262,-0.16299 -0.3824,-4.95431 0.11066,-2.787405 0.1984,-6.58001 0.19498,-8.42801 -0.004,-1.905078 0.19838,-4.191382 0.4663,-5.28 0.32344,-1.314211 0.44605,-3.232541 0.38862,-6.08 -0.0461,-2.288 0.0454,-6.896 0.20351,-10.24 0.34162,-7.226691 0.29313,-18.825242 -0.0983,-23.52 -0.41146,-4.934758 -0.0869,-17.327415 0.9051,-34.56 0.13677,-2.376 0.22284,-4.355698 0.19125,-4.399329 -0.0316,-0.043631 -1.70172,-0.1661251 -3.71143,-0.2722089 -2.0097,-0.1060835 -3.76227,-0.2590506 -3.8946,-0.3399264 -0.7019,-0.4289779 -0.98737,2.1191563 -1.0813,9.6514643 -0.0912,7.310511 -0.72524,17.199181 -1.38504,21.6 -0.14513,0.968 -0.28694,4.845891 -0.31514,8.617539 -0.0282,3.771648 -0.13901,6.999507 -0.24625,7.173021 -0.10724,0.173514 -0.2193,6.375622 -0.24903,13.782461 -0.0297,7.406838 -0.16609,13.862979 -0.30304,14.346979 -0.22767,0.804678 -0.1748,0.88 0.61771,0.88 2.11571,0 4.15187,3.697648 3.23911,5.882198 -0.25407,0.608084 -0.40078,1.166778 -0.32601,1.241546 0.0748,0.07477 -0.21737,0.517178 -0.6492,0.983133 -0.78515,0.847187 -0.78515,0.847187 0.63202,1.822227 0.77945,0.536272 1.56333,1.248141 1.74197,1.58193 0.60125,1.12344 0.36945,4.373556 -0.48604,6.814976 -0.44596,1.27269 -0.88068,2.86214 -0.96604,3.53211 -0.0854,0.66996 -0.16953,1.31796 -0.18705,1.44 -0.10122,0.70498 0.31936,0.77143 3.48393,0.55043 1.892,-0.13213 4.18678,-0.21635 5.09952,-0.18716 z m -10.55773,-1.34362 c 0.034,-0.74677 0.41312,-2.29377 0.84252,-3.43777 1.96958,-5.247328 1.17338,-7.717843 -2.6527,-8.231027 -3.65963,-0.490861 -5.37195,6.323717 -2.57161,10.234337 0.704,0.98313 1.28,2.01457 1.28,2.29209 0,0.38896 0.34836,0.50409 1.52,0.50237 1.52,-0.002 1.52,-0.002 1.58179,-1.36 z M 58.171066,94.493613 c 0.578083,-0.27337 1.193571,-0.763312 1.367744,-1.088759 0.386,-0.721251 0.05018,-2.28526 -0.427325,-1.990147 -0.211923,0.130973 -0.264448,0.01277 -0.139267,-0.313456 C 59.19784,90.513286 58.132083,89.6 57.220333,89.6 c -1.267219,0 -2.887991,4.004874 -1.874307,4.631363 0.168313,0.104023 0.216633,0.422074 0.107382,0.706781 -0.231296,0.602746 0.891325,0.419117 2.717658,-0.444531 z M 78.146394,94.25849 c 2.07528,-0.867108 2.435104,-2.214477 0.800604,-2.997872 -1.946982,-0.933165 -5.511142,1.579363 -4.518592,3.185347 0.267268,0.432445 2.504276,0.319645 3.717988,-0.187475 z M 93.12,93.802275 c 1.09488,-0.802925 1.341101,-3.398192 0.352173,-3.712064 -0.947728,-0.300797 -3.171207,0.397949 -3.556362,1.117613 -0.403453,0.753862 -0.508441,2.621606 -0.177465,3.157136 0.323948,0.524166 2.362048,0.18504 3.381654,-0.562685 z m -52.256541,0.117328 c 1.748973,-1.22503 0.989498,-4.246582 -0.959779,-3.818448 -2.211379,0.485699 -2.82903,1.462931 -2.261987,3.578845 0.233974,0.873082 2.117373,1.013149 3.221766,0.239603 z M 25.008285,92.210077 c 2.28972,-2.045866 0.30037,-5.64416 -2.573223,-4.654391 -1.860873,0.640951 -2.577882,5.01 -0.876923,5.343479 1.724646,0.338118 2.466281,0.189993 3.450146,-0.689088 z M 111.36,91.878256 C 112.84085,90.761539 112.23594,87.68 110.53588,87.68 c -1.45108,0 -2.29636,0.653069 -2.6969,2.083638 -0.8555,3.055572 0.88618,4.101572 3.52102,2.114618 z M 109.44,90.56 c -0.36828,-0.238 -0.25656,-0.310198 0.48,-0.310198 0.528,0 1.176,0.139587 1.44,0.310198 0.36828,0.238 0.25656,0.310198 -0.48,0.310198 -0.528,0 -1.176,-0.139587 -1.44,-0.310198 z M 50.968602,69.874998 c 2.425164,-0.205001 2.425164,-0.205001 2.879328,-1.584547 0.548256,-1.665347 0.545334,-1.667299 -3.045316,-2.035449 C 46.178355,65.78087 42.247619,62.37521 41.064192,57.817453 40.827494,56.905853 40.702701,55.98 40.786874,55.76 c 0.08417,-0.22 0.04243,-0.4 -0.09277,-0.4 -0.564762,0 -3.321079,6.020278 -3.419076,7.467859 -0.182128,2.690259 1.938212,4.605232 7.033856,6.352589 2.812496,0.964438 3.105476,0.994995 6.659716,0.69455 z M 78.420826,63.84 c 3.25687,-4.096016 4.157286,-6.030045 4.675315,-10.04223 0.181046,-1.402234 0.181046,-1.402234 -4.257546,3.028416 -2.441229,2.436857 -4.404323,4.538681 -4.362435,4.670716 0.04189,0.132036 -0.102109,0.174762 -0.32,0.09494 -0.937434,-0.343404 -1.372381,0.417524 -0.680947,1.1913 1.011843,1.132339 2.369907,3.663004 2.113584,3.938531 -0.125837,0.135267 -0.05536,0.190227 0.156627,0.122131 C 75.957408,66.775715 77.161341,65.424 78.420826,63.84 Z"
     id="path747"
     inkscape:connector-curvature="0"
     sodipodi:nodetypes="cscsssssssscssccsssssssssssssccssscscscccscscccssccscccssscssccccccccscscscccsccsccccccsccsssccccscssscscccsccsssssssscscssccccccccccscccsscscscsccscssccccsccccccsccsscssssssccssscsscssssssssccsccscccsssssssccsccsssssccccccscccccsccccccsscssscccccccssccccccccssssssscsccsssscscsssssssscsscscscccsccssscsccccccccccccsccccsccsccccscscccccssccssccscccccsccscccsscscccsccsscccsccccccccccccscccscccscsccccscscsccccscccccc" />
</svg>
