<?xml version="1.0" encoding="UTF-8" standalone="no"?>
<!-- Created with Inkscape (http://www.inkscape.org/) -->

<svg
   xmlns:dc="http://purl.org/dc/elements/1.1/"
   xmlns:cc="http://creativecommons.org/ns#"
   xmlns:rdf="http://www.w3.org/1999/02/22-rdf-syntax-ns#"
   xmlns:svg="http://www.w3.org/2000/svg"
   xmlns="http://www.w3.org/2000/svg"
   xmlns:sodipodi="http://sodipodi.sourceforge.net/DTD/sodipodi-0.dtd"
   xmlns:inkscape="http://www.inkscape.org/namespaces/inkscape"
   version="1.1"
   id="svg157"
   width="159.36"
   height="149.75999"
   viewBox="0 0 159.36 149.75999"
   sodipodi:docname="bibed-type-music.svg"
   inkscape:version="0.92.4 5da689c313, 2019-01-14">
  <metadata
     id="metadata163">
    <rdf:RDF>
      <cc:Work
         rdf:about="">
        <dc:format>image/svg+xml</dc:format>
        <dc:type
           rdf:resource="http://purl.org/dc/dcmitype/StillImage" />
        <dc:title></dc:title>
      </cc:Work>
    </rdf:RDF>
  </metadata>
  <defs
     id="defs161" />
  <sodipodi:namedview
     pagecolor="#ffffff"
     bordercolor="#666666"
     borderopacity="1"
     objecttolerance="10"
     gridtolerance="10"
     guidetolerance="10"
     inkscape:pageopacity="0"
     inkscape:pageshadow="2"
     inkscape:window-width="3200"
     inkscape:window-height="1734"
     id="namedview159"
     showgrid="false"
     inkscape:zoom="8.1011546"
     inkscape:cx="79.68"
     inkscape:cy="74.879997"
     inkscape:window-x="0"
     inkscape:window-y="66"
     inkscape:window-maximized="1"
     inkscape:current-layer="svg157" />
  <path
     style="fill:#000000;stroke-width:0.31999999"
     d="m 30.775636,141.99999 c -1.543224,-1.91194 -4.113045,-5.36477 -4.916023,-6.60521 -0.297212,-0.45913 -0.657212,-0.97879 -0.8,-1.15479 -0.445467,-0.54908 -2.010063,-3.00345 -2.70879,-4.24925 -2.345062,-4.18116 -3.547497,-6.12095 -4.109567,-6.62961 C 17.888565,123.04195 17.6,122.51512 17.6,122.1904 c 0,-0.32472 -0.127592,-0.59041 -0.283539,-0.59041 -0.300527,0 -0.39433,-0.18424 -2.769586,-5.44 -0.835175,-1.848 -1.896782,-3.936 -2.359125,-4.64 -1.200542,-1.82803 -1.116814,-2.07104 1.806287,-5.24239 l 2.634038,-2.85775 -1.713513,-4.589927 c -0.942432,-2.524461 -2.038082,-5.597929 -2.434778,-6.829929 -0.396695,-1.232 -0.968298,-2.744 -1.270228,-3.36 C 9.5011501,85.15449 8.1072278,70.581557 8.776183,63.199996 c 0.1600052,-1.765571 1.443257,-7.756601 1.953463,-9.12 2.606485,-6.965174 4.30847,-10.392671 6.895831,-13.886987 1.055995,-1.426157 2.836664,-3.889011 3.957044,-5.473011 1.975036,-2.792319 8.630467,-9.653014 10.577277,-10.903498 0.527888,-0.339076 2.035885,-1.384598 3.351098,-2.323384 1.315216,-0.938785 2.899306,-1.96555 3.520202,-2.281698 2.520243,-1.283262 4.41862,-2.196819 6.076998,-2.924437 0.961453,-0.42184 3.265453,-1.540324 5.12,-2.48552 5.158486,-2.629097 8.230173,-3.8699001 11.211904,-4.5290354 1.496,-0.3307027 4.376,-1.0649119 6.4,-1.6315759 4.203117,-1.1767573 9.041322,-1.3326344 16.425197,-0.5291868 2.081856,0.2265293 4.601856,0.3387363 5.6,0.2493488 3.13336,-0.2806045 7.114374,0.5583833 11.414803,2.4056376 2.5676,1.1029167 3.48063,1.4333497 3.96051,1.4333497 0.28729,0 1.4577,0.563981 2.60092,1.25329 1.14321,0.689309 3.01457,1.793632 4.15857,2.45405 2.25037,1.299114 6.01624,4.010002 7.45649,5.367611 0.49307,0.464777 1.0193,0.845049 1.1694,0.845049 0.29296,0 5.40961,5.602685 6.73411,7.373785 0.44,0.58836 2.24,2.557216 4,4.375235 3.43978,3.553171 4.06471,4.470803 5.40122,7.930978 0.47586,1.232 1.13619,2.888 1.46739,3.68 3.99938,9.563699 6.82496,23.115678 7.28427,34.936574 0.21838,5.620367 0.0206,7.216073 -1.98375,16.009189 -0.58618,2.571513 -0.58263,2.494233 -0.11465,2.494233 1.22987,0 4.68354,2.038592 5.16534,3.048937 0.50542,1.05988 0.4966,1.10273 -0.5377,2.6143 -0.57834,0.84522 -1.4655,2.25676 -1.97146,3.13676 -0.50596,0.88 -0.99925,1.672 -1.0962,1.76 -0.40347,0.36625 -1.92132,2.79006 -2.30451,3.68 -0.22734,0.528 -0.94068,1.752 -1.58519,2.72 -0.64451,0.968 -1.64047,2.69597 -2.21325,3.83993 -0.57278,1.14395 -1.88585,3.32326 -2.91794,4.84291 -1.72582,2.54109 -4.43357,7.98728 -4.43357,8.91738 0,0.71021 -2.13609,4.94691 -2.78512,5.52398 -0.60734,0.54 -0.6979,0.53617 -2.11191,-0.0893 -1.82546,-0.80749 -2.9087,-0.59644 -3.43279,0.66882 -1.61821,3.90669 -2.60972,4.39438 -5.82933,2.86722 -3.1067,-1.4736 -4.33277,-2.62545 -4.22607,-3.97023 0.0876,-1.10453 0.0876,-1.10453 -2.04357,-1.04793 -1.65879,0.044 -2.47708,0.25062 -3.69151,0.93191 -1.92105,1.07769 -1.86848,1.07833 -3.50204,-0.0424 -0.73571,-0.50474 -2.05766,-1.23711 -2.93766,-1.6275 -6.084787,-2.69933 -7.066067,-3.86106 -5.633392,-6.66934 0.593827,-1.16399 1.389178,-3.59237 1.488739,-4.54545 0.0685,-0.65573 0.453091,-1.88772 0.948995,-3.04 0.596858,-1.38685 2.347438,-5.03744 2.685378,-5.6 0.28041,-0.46678 4.26434,-8.79843 4.81993,-10.08 1.58956,-3.66659 2.38946,-5.28 2.61772,-5.28 0.14995,0 0.27263,-0.18416 0.27263,-0.40924 0,-0.596145 3.75637,-6.310756 4.14824,-6.310756 0.18247,0 0.33176,-0.158915 0.33176,-0.353146 0,-0.19423 0.684,-1.181654 1.52,-2.194275 1.82077,-2.205443 4.62202,-6.215683 6.92354,-9.91167 0.92441,-1.484499 1.91379,-2.846092 2.19862,-3.025759 0.69539,-0.43864 5.0976,0.304131 6.61151,1.115535 0.62527,0.335124 1.24823,0.609316 1.38436,0.609316 0.13613,0 0.84387,0.432 1.57275,0.96 0.72889,0.528 1.49372,0.96 1.69963,0.96 0.20592,0 0.94031,0.481686 1.63199,1.070412 0.69168,0.58873 1.57835,1.240055 1.97036,1.447389 0.39202,0.207334 0.84704,0.841648 1.01114,1.409584 0.16411,0.567939 0.31137,0.774937 0.32724,0.460003 0.0159,-0.314938 0.18204,-1.946329 0.36926,-3.625312 0.52246,-4.685497 -0.33569,-12.559042 -2.07107,-19.002075 -0.0711,-0.264 -0.23322,-0.912 -0.36025,-1.44 -1.85875,-7.725622 -4.68425,-16.864492 -5.27657,-17.066665 -0.17188,-0.05867 -0.31251,-0.231769 -0.31251,-0.384668 0,-0.152903 -0.648,-1.204976 -1.44,-2.337943 -0.792,-1.132966 -1.44,-2.140646 -1.44,-2.239289 0,-1.06657 -6.74618,-8.375908 -9.86352,-10.686914 -0.64707,-0.479692 -2.60242,-2.214363 -4.34524,-3.854825 C 108.0878,19.397591 104.17058,16.704518 99.36,15.088273 87.463571,11.091345 80.489149,10.705938 69.6,13.443731 c -2.64,0.66376 -6.014205,1.46495 -7.498237,1.780423 -1.780995,0.378602 -3.739056,1.110762 -5.76,2.153786 -1.683968,0.869109 -4.152224,2.123362 -5.485008,2.787229 -1.332784,0.663867 -2.637811,1.421599 -2.900057,1.683848 -0.26225,0.262249 -1.115792,0.802424 -1.896759,1.200388 -1.626777,0.828972 -5.342073,3.141088 -6.057795,3.769907 -0.265178,0.232982 -1.088851,0.843015 -1.830381,1.35563 -0.741529,0.512614 -2.223661,2.050958 -3.293625,3.418541 -2.47441,3.162684 -2.148148,2.80712 -6.539201,7.126514 -4.007166,3.941773 -5.365043,6.085443 -6.419787,10.13488 -0.260334,0.999491 -0.982063,3.275248 -1.603843,5.057241 -1.576743,4.518873 -2.019077,7.664636 -1.995158,14.189058 0.02062,5.624813 0.110674,6.494496 1.232085,11.898819 1.193029,5.749462 1.350523,6.399999 1.549433,6.399999 0.109697,0 0.38297,1.044 0.607273,2.32 0.724409,4.120966 0.946605,4.404374 1.886235,2.405885 0.742306,-1.5788 0.948488,-2.450285 1.042379,-4.405885 0.02687,-0.559641 0.609864,-1.280035 1.940427,-2.39774 C 27.624092,83.443495 28.48,82.5589 28.48,82.356491 c 0,-0.386708 0.708948,-0.756496 1.450334,-0.756496 0.240895,0 1.943772,-0.730119 3.784172,-1.622487 4.908729,-2.380131 5.025628,-2.345257 7.262032,2.166512 0.977094,1.971213 2.146864,3.875325 2.599488,4.23136 C 44.390662,87.01617 48,91.541075 48,91.921562 c 0,0.108566 0.64503,1.10663 1.433402,2.217913 0.788368,1.111287 2.027948,3.172519 2.75462,4.580518 0.726669,1.407997 1.677168,3.033507 2.112215,3.612237 0.435046,0.57872 1.221085,2.00077 1.746752,3.16011 0.525667,1.15933 1.660877,3.34983 2.522685,4.86776 0.861808,1.51794 2.201315,4.27189 2.976681,6.11989 2.35448,5.61164 6.450637,12.63881 7.810931,13.40007 0.565684,0.31657 -0.268208,1.78711 -1.197286,2.11137 -0.750416,0.26191 -3.52,3.00134 -3.52,3.48168 0,1.14421 -1.853731,2.99359 -3.248416,3.2408 -2.516336,0.44602 -3.381142,0.31797 -5.109811,-0.75663 -1.359504,-0.84512 -1.877719,-1.00059 -2.814071,-0.84427 -0.631235,0.10538 -1.8356,0.2044 -2.676361,0.22005 -0.959408,0.0179 -1.805165,0.24594 -2.271178,0.61251 -0.560537,0.44092 -0.832912,0.49367 -1.111341,0.21524 -0.407385,-0.40738 -0.459254,-0.23705 -0.379542,1.2465 0.140518,2.61528 -3.464854,3.30266 -5.627846,1.07297 -1.582896,-1.63171 -1.388036,-1.67118 -4.738698,0.95971 -3.566198,2.80013 -4.042416,2.84542 -5.8871,0.56 z m 5.32829,-2.32 c 1.237146,-0.968 2.403866,-1.76 2.592714,-1.76 0.188848,0 0.34336,-0.0829 0.34336,-0.18431 0,-0.1957 -2.866755,-4.02444 -3.216381,-4.29569 -0.113427,-0.088 -0.964784,-1.24 -1.891901,-2.56 -0.927116,-1.32 -2.264961,-3.00176 -2.972989,-3.73725 -0.708027,-0.73548 -1.591389,-1.84803 -1.963026,-2.47232 -0.371636,-0.6243 -1.489146,-2.32653 -2.483353,-3.78275 -0.994208,-1.45623 -2.15961,-3.36768 -2.589782,-4.24768 -1.44354,-2.95303 -3.855641,-7.34403 -5.058848,-9.20913 -1.192903,-1.84914 -1.192903,-1.84914 -2.216858,-0.98754 -2.113557,1.77845 -2.546095,2.88614 -1.851261,4.74093 1.313099,3.50519 3.931901,9.06803 5.073695,10.7775 0.661889,0.99096 1.618673,2.57496 2.126188,3.52 0.507515,0.94503 1.346151,2.35065 1.863635,3.12359 0.517485,0.77294 1.516881,2.30322 2.220881,3.40063 2.741046,4.27278 6.870259,9.43402 7.547626,9.43402 0.124819,0 1.239155,-0.792 2.4763,-1.76 z m 92.306784,-4.72 c 0.266,-0.572 0.88062,-2.048 1.36581,-3.28 1.67907,-4.26348 2.9321,-6.72741 4.28904,-8.43385 0.74956,-0.94261 1.94089,-2.88661 2.64739,-4.32 0.70651,-1.43338 1.75365,-3.32615 2.32697,-4.20615 3.65579,-5.61133 6.86325,-11.46622 6.96201,-12.70841 0.0933,-1.17362 -0.57519,-1.5573 -0.88721,-0.5092 -0.12078,0.40569 -0.64496,1.27907 -1.16484,1.94085 -0.51988,0.66178 -1.14222,1.66978 -1.38298,2.24 -0.24075,0.57022 -1.24586,2.04476 -2.23356,3.27676 -0.9877,1.232 -2.16396,3.032 -2.6139,4 -2.34753,5.05049 -4.17372,8.3111 -5.63944,10.06904 -0.484,0.5805 -0.88,1.15405 -0.88,1.27456 0,0.12051 -0.33986,0.6775 -0.75523,1.23775 -0.41538,0.56026 -1.26009,1.95465 -1.87713,3.09865 -0.61704,1.144 -1.71537,3.08261 -2.44074,4.30803 -1.56566,2.64499 -1.58452,2.60557 1.43664,3.00403 0.19994,0.0264 0.58117,-0.42006 0.84717,-0.99206 z m -75.952371,0.20646 c 0.07609,-0.0751 -0.544937,-0.80058 -1.380054,-1.61228 -1.93425,-1.87999 -4.084563,-4.69171 -8.215082,-10.7419 C 41.816442,121.27902 40.96,119.93109 40.96,119.81688 c 0,-0.11422 -0.648,-1.13464 -1.44,-2.26761 -0.792,-1.13297 -1.44,-2.17472 -1.44,-2.31501 0,-0.14029 -0.305251,-0.52939 -0.678336,-0.86467 -0.980698,-0.88132 -2.556214,-3.43388 -3.929488,-6.36632 -0.657325,-1.40363 -1.30048,-2.62658 -1.429235,-2.71767 -0.193664,-0.137 -0.89137,-2.11023 -1.190031,-3.36561 -0.04187,-0.176 -0.962056,-2.462243 -2.044854,-5.08054 -1.082798,-2.618301 -2.023045,-5.189773 -2.089439,-5.714384 -0.210816,-1.665776 -0.916641,-1.579334 -1.294984,0.158598 -0.124084,0.569981 -0.499501,1.896669 -0.834261,2.948195 -0.851857,2.675802 -0.792362,2.862023 3.427558,10.728131 0.424883,0.792 0.987994,1.944 1.251359,2.56 0.542263,1.26834 1.043164,2.08177 1.844119,2.99473 0.303824,0.34631 0.714556,1.12097 0.912738,1.72146 0.33415,1.01249 0.965593,2.0435 4.19816,6.85468 0.66918,0.99597 1.216694,1.8887 1.216694,1.98383 0,0.0951 1.224,2.00004 2.72,4.23313 1.496,2.23308 2.72,4.16436 2.72,4.29174 0,0.68573 5.311882,5.40732 6.545786,5.81837 0.62656,0.20873 2.744035,0.0331 3.032553,-0.25148 z m 56.585341,-4.33083 c 1.3561,-2.64495 5.34573,-8.25429 10.15632,-14.27956 12.39677,-15.52697 14.305,-18.390691 16.36287,-24.556066 1.07533,-3.221664 1.23,-4.196957 0.87544,-5.52 -0.32723,-1.221062 -0.64157,-0.826105 -1.71766,2.158205 -0.57081,1.583014 -1.44291,3.51694 -1.938,4.297616 -0.49509,0.780675 -1.72022,2.977481 -2.72252,4.881794 -2.96124,5.626231 -3.69085,6.857421 -5.56006,9.382381 -0.97718,1.32 -1.85706,2.472 -1.9553,2.56 -0.0982,0.088 -0.6003,0.736 -1.11572,1.44 -0.51541,0.704 -1.63496,2.072 -2.48789,3.04 -0.85292,0.968 -2.11644,2.72255 -2.80781,3.89899 -0.69137,1.17644 -1.4362,2.33452 -1.65519,2.57351 -0.47389,0.51718 -0.92648,1.24264 -1.85131,2.9675 -0.37747,0.704 -1.15873,2 -1.73614,2.88 -0.5774,0.88 -1.57302,2.608 -2.21248,3.84 -0.63946,1.232 -1.52814,2.816 -1.97485,3.52 l -0.8122,1.28 1.05441,-1.16437 c 0.57993,-0.6404 1.52407,-2.0804 2.09809,-3.2 z m 4.68939,3.44006 c 0.37767,-0.022 0.91459,-0.58859 1.39837,-1.47569 2.14661,-3.93617 4.57725,-7.36228 6.89318,-9.71628 3.66358,-3.7238 5.05312,-5.51858 6.1037,-7.88372 0.94403,-2.12527 3.66537,-7.0714 4.04945,-7.36 0.11711,-0.088 0.47021,-0.664 0.78467,-1.28 0.31446,-0.616 1.28283,-2.17568 2.15192,-3.46595 2.69249,-3.997333 3.25838,-6.030366 2.59782,-9.333141 -0.20782,-1.039094 -0.20782,-1.039094 -0.62866,-0.28 -0.23146,0.417501 -0.42595,0.983738 -0.43218,1.258301 -0.0202,0.886797 -2.23832,5.049414 -3.78602,7.1048 -0.82792,1.09952 -1.76472,2.40064 -2.08176,2.89138 -0.50735,0.78533 -3.80636,5.01384 -5.29323,6.78461 -0.83098,0.98965 -3.97532,5.05707 -4.69033,6.06727 -0.352,0.49731 -1.52878,1.90565 -2.61508,3.12963 -1.08629,1.22398 -2.80946,3.6154 -3.82927,5.31426 -1.01981,1.69886 -1.94301,3.16084 -2.05156,3.24884 -0.10854,0.088 -0.58698,1.024 -1.06318,2.08 -0.47621,1.056 -1.00423,2.17005 -1.17337,2.47566 -0.49818,0.9001 -0.39025,0.95593 1.37246,0.71006 0.924,-0.12888 1.95588,-0.25039 2.29307,-0.27003 z m -13.69384,-6.91569 c 0.59823,-1.32 1.28734,-3.264 1.53135,-4.32 0.69165,-2.99319 1.91412,-5.6928 3.84001,-8.48 0.54725,-0.792 1.34054,-2.304 1.76286,-3.36 1.59759,-3.9947 5.92156,-11.77448 8.53703,-15.359996 0.38516,-0.528 1.28138,-2.123971 1.99162,-3.546602 0.71024,-1.42263 1.93174,-3.336835 2.71443,-4.253791 0.78271,-0.916957 2.12518,-2.743655 2.98328,-4.059331 0.91569,-1.403962 1.92371,-2.554144 2.44019,-2.78432 0.91394,-0.407315 1.20617,-1.195955 0.44316,-1.195955 -0.79598,0 -2.13976,1.325833 -3.61803,3.569715 -0.80277,1.218528 -1.83893,2.60583 -2.30258,3.082895 -0.46364,0.477063 -1.20289,1.348279 -1.64277,1.936032 -0.43988,0.587754 -1.23178,1.615511 -1.75978,2.283907 -0.528,0.668397 -1.824,2.319907 -2.88,3.670022 -1.056,1.350116 -2.25056,2.842359 -2.65457,3.316093 -0.61784,0.724458 -2.49305,4.324081 -3.86613,7.421331 -0.19506,0.44 -0.48823,1.016 -0.65149,1.28 -0.16327,0.264 -0.61111,1.128 -0.99521,1.92 -0.3841,0.792 -1.31429,2.664 -2.06709,4.16 -0.7528,1.496 -1.68143,3.44 -2.06362,4.32 -0.38218,0.88 -0.95909,2.104 -1.28202,2.72 -0.579566,1.10556 -1.13108,2.7104 -2.736625,7.96327 -0.781639,2.55728 -0.794794,2.72197 -0.280186,3.50736 0.539959,0.82408 0.539959,0.82408 1.004218,-0.28328 0.255344,-0.60904 0.953721,-2.18735 1.551953,-3.50735 z m -48.394712,3.76 c -0.128288,-0.22 -0.766064,-1.048 -1.417276,-1.84 -0.651216,-0.792 -1.876365,-2.52 -2.722554,-3.84 -0.846192,-1.32 -1.625558,-2.472 -1.731926,-2.56 -0.106372,-0.088 -0.976548,-1.36063 -1.933728,-2.82806 -0.957181,-1.46743 -1.792852,-2.51049 -1.857044,-2.31791 -0.131846,0.39554 2.194631,4.24568 3.302852,5.46597 0.39959,0.44 1.244425,1.61867 1.877411,2.61926 1.624899,2.56857 5.697712,7.38509 4.482265,5.30074 z m 13.159495,-4.07364 C 64.361808,126.34585 64,125.70762 64,125.62807 64,125.01179 54.365402,105.46306 52.428909,102.15018 51.577008,100.69278 50.88,99.426947 50.88,99.337219 c 0,-0.08973 -0.267741,-0.553309 -0.594979,-1.030182 -0.327235,-0.476874 -1.298781,-1.947043 -2.158986,-3.267043 -1.649033,-2.530474 -6.009888,-7.986931 -6.719785,-8.408035 -0.892976,-0.529702 1.334409,3.847757 3.989548,7.84063 0.904311,1.359929 1.644202,2.541536 1.644202,2.625792 0,0.08426 0.344003,0.660108 0.764451,1.279673 0.790685,1.165139 4.355549,8.276466 4.355549,8.688616 0,0.1281 0.331453,0.6785 0.73656,1.22312 0.704963,0.94772 2.930202,4.84665 5.496253,9.6302 0.660886,1.232 1.447616,2.528 1.748291,2.88 0.832762,0.97492 2.898896,4.22941 2.898896,4.56622 0,0.47003 1.888614,2.95378 2.246022,2.95378 0.177104,0 -0.0398,-0.57314 -0.482009,-1.27364 z M 40.775635,114.08639 C 40.149034,112.53244 39.142179,110.4885 38.538179,109.5443 37.934182,108.6001 37.44,107.7712 37.44,107.7023 c 0,-0.0689 -0.484179,-1.1821 -1.075952,-2.47379 -0.591776,-1.29168 -1.297942,-2.92452 -1.569264,-3.62852 -0.271318,-0.704 -0.973386,-2.287997 -1.560147,-3.519997 -0.586762,-1.231999 -1.070765,-2.400483 -1.075562,-2.596627 -0.0048,-0.196147 -0.179051,-0.561865 -0.387233,-0.81271 -0.812328,-0.978793 -2.715216,-5.957302 -2.882864,-7.542406 -0.228798,-2.16327 -0.754668,-1.866131 -0.575746,0.325322 0.178701,2.188745 0.806276,4.201049 2.562569,8.216822 0.794309,1.816191 1.4489,3.74934 1.454647,4.295884 0.02102,2.000612 2.483898,7.631822 4.415597,10.096012 1.46463,1.86836 1.953862,2.55309 3.618198,5.06399 1.723392,2.59999 1.800509,2.40506 0.411392,-1.03989 z m -20.015124,-13.0941 c 1.03115,-0.15669 1.608135,-0.0768 2.187764,0.30301 0.43299,0.28371 0.846521,0.45657 0.918959,0.38413 0.165151,-0.16516 -1.41948,-4.131264 -1.815297,-4.543436 C 21.891372,96.968794 21.76,96.528755 21.76,96.158128 c 0,-0.370624 -0.272288,-1.529824 -0.605085,-2.576 -0.332797,-1.046173 -0.788828,-2.766134 -1.013403,-3.822134 -0.224575,-1.056 -0.582925,-2.28 -0.796334,-2.72 -0.361364,-0.745046 -1.428777,-5.002326 -2.086046,-8.319999 -1.009157,-5.093891 -1.151575,-15.56221 -0.276144,-20.297849 0.346857,-1.876326 0.543349,-2.486233 3.409208,-10.582149 2.407995,-6.80247 0.880696,-4.857126 16.14174,-20.559999 1.240096,-1.276 2.385002,-2.32 2.544227,-2.32 0.159229,0 1.259783,-0.626422 2.445674,-1.392049 2.291347,-1.479325 7.706157,-4.684402 9.836163,-5.822118 0.704,-0.376032 2.24271,-1.20371 3.419354,-1.839282 2.328588,-1.257803 4.454169,-1.935291 10.340646,-3.295886 2.112,-0.488165 3.984,-0.929807 4.16,-0.981428 3.817482,-1.11965 8.49664,-1.7061006 13.628886,-1.7081422 7.404013,-0.00294 20.978224,4.2570272 25.350134,7.9555912 0.56154,0.475052 1.59698,1.288239 2.30098,1.80708 1.09493,0.806956 6.7293,5.694834 7.2,6.246081 0.088,0.103059 1.168,1.034169 2.4,2.069134 2.1984,1.846807 5.47624,4.8606 7.26828,6.682782 1.25483,1.275936 6.24375,8.618259 7.30995,10.758236 0.86638,1.738937 1.51097,3.733062 1.81017,5.6 0.0846,0.528 0.65893,2.687999 1.27625,4.799999 3.82537,13.087507 4.28252,15.825945 4.08669,24.479999 -0.12129,5.359839 -0.20074,6.443113 -0.65715,8.959999 -0.21458,1.183245 -0.24813,1.49495 -0.6118,5.682835 -0.19792,2.27912 -0.16339,2.617462 0.25089,2.458486 0.26422,-0.101389 0.54775,-0.570662 0.63008,-1.042832 0.0823,-0.472169 0.37668,-1.938489 0.65413,-3.258489 1.57087,-7.473481 1.87131,-12.068438 1.16516,-17.819602 -1.12315,-9.14728 -1.96744,-13.878835 -3.32973,-18.660396 -0.27579,-0.968 -0.56731,-2.033094 -0.64783,-2.366876 -0.32025,-1.327552 -0.89151,-2.980663 -1.48215,-4.288973 -0.34162,-0.756717 -0.54413,-1.500419 -0.45003,-1.652669 0.0941,-0.152249 0.0586,-0.325116 -0.0789,-0.38415 -0.13752,-0.05903 -0.65556,-1.331331 -1.15121,-2.827331 -1.78183,-5.378044 -2.88406,-7.233929 -6.27167,-10.559999 -1.70293,-1.672 -4.22012,-4.48 -5.59375,-6.24 -3.083,-3.950175 -8.01477,-8.29576 -11.93083,-10.512764 -1.01558,-0.574947 -2.50931,-1.552188 -3.31942,-2.171647 -1.34026,-1.024858 -6.78916,-3.385398 -12.146536,-5.262054 C 94.349821,9.4660173 92.77856,9.2596051 87.68,9.1570016 85.48,9.112729 81.518928,8.8818602 78.877619,8.6439604 73.719763,8.1793975 72.188758,8.363667 65.6,10.242035 c -1.144,0.326139 -2.656,0.688601 -3.36,0.80547 -2.251616,0.373785 -5.001834,1.457278 -9.76,3.845111 -4.262467,2.139071 -11.003098,5.267383 -11.349728,5.267383 -0.350378,0 -6.978074,4.580721 -8.694813,6.009406 -5.066066,4.216022 -8.535228,8.319213 -13.958688,16.509802 -0.218224,0.329565 -0.550187,0.761564 -0.737696,0.96 -0.757286,0.801411 -2.053255,3.3595 -2.695598,5.32079 -0.374672,1.144 -0.873412,2.44 -1.108311,2.88 -0.391354,0.733062 -2.40245,7.29413 -2.867079,9.353657 -0.108403,0.480511 -0.278502,2.998809 -0.377999,5.59622 -0.0995,2.597411 -0.198837,4.796265 -0.220758,4.886342 -0.02192,0.09008 0.13642,1.531779 0.351869,3.203779 0.21545,1.672 0.4471,3.688 0.514778,4.48 0.206132,2.412233 0.576955,4.211241 1.217117,5.904729 0.535813,1.41744 1.427342,4.204307 2.512931,7.85527 0.319279,1.073773 0.587391,1.816569 1.674802,4.639999 0.271137,0.704 0.740244,1.967428 1.042459,2.807617 0.488251,1.35739 0.606717,1.47802 1.063098,1.08256 0.282489,-0.24479 1.143846,-0.54083 1.914127,-0.65788 z M 39.149578,82.234065 C 37.978202,80.415927 37.44,79.9189 37.44,80.655275 c 0,0.184403 0.324,0.652403 0.72,1.04 0.396,0.387596 1.002906,1.260003 1.348678,1.938681 0.345776,0.678678 0.683085,1.070749 0.749578,0.87127 0.06649,-0.199478 -0.432413,-1.2215 -1.108678,-2.271161 z"
     id="path167"
     inkscape:connector-curvature="0"
     inkscape:export-xdpi="350.33054"
     inkscape:export-ydpi="350.33054" />
</svg>
