<?xml version="1.0" encoding="UTF-8" standalone="no"?>
<!-- Created with Inkscape (http://www.inkscape.org/) -->

<svg
   xmlns:dc="http://purl.org/dc/elements/1.1/"
   xmlns:cc="http://creativecommons.org/ns#"
   xmlns:rdf="http://www.w3.org/1999/02/22-rdf-syntax-ns#"
   xmlns:svg="http://www.w3.org/2000/svg"
   xmlns="http://www.w3.org/2000/svg"
   xmlns:sodipodi="http://sodipodi.sourceforge.net/DTD/sodipodi-0.dtd"
   xmlns:inkscape="http://www.inkscape.org/namespaces/inkscape"
   version="1.1"
   id="svg1397"
   width="125.44"
   height="133.75999"
   viewBox="0 0 125.44 133.75999"
   sodipodi:docname="bibed-type-cup.svg"
   inkscape:version="0.92.4 5da689c313, 2019-01-14">
  <metadata
     id="metadata1403">
    <rdf:RDF>
      <cc:Work
         rdf:about="">
        <dc:format>image/svg+xml</dc:format>
        <dc:type
           rdf:resource="http://purl.org/dc/dcmitype/StillImage" />
        <dc:title></dc:title>
      </cc:Work>
    </rdf:RDF>
  </metadata>
  <defs
     id="defs1401" />
  <sodipodi:namedview
     pagecolor="#ffffff"
     bordercolor="#666666"
     borderopacity="1"
     objecttolerance="10"
     gridtolerance="10"
     guidetolerance="10"
     inkscape:pageopacity="0"
     inkscape:pageshadow="2"
     inkscape:window-width="3200"
     inkscape:window-height="1734"
     id="namedview1399"
     showgrid="false"
     inkscape:zoom="9.4647133"
     inkscape:cx="62.720001"
     inkscape:cy="66.879997"
     inkscape:window-x="0"
     inkscape:window-y="66"
     inkscape:window-maximized="1"
     inkscape:current-layer="svg1397" />
  <path
     style="fill:#000000;stroke-width:0.31999999"
     d="m 63.909622,127.81027 c -0.03829,-0.0343 -1.48022,-0.16153 -3.204281,-0.28283 -1.724064,-0.12129 -3.596064,-0.37165 -4.16,-0.55636 -0.563939,-0.1847 -4.337341,-0.39375 -8.385341,-0.46455 -4.048,-0.0708 -7.72,-0.24206 -8.16,-0.38057 -0.44,-0.13851 -3.000829,-0.22177 -5.690733,-0.18502 -6.125205,0.0837 -6.563202,-0.0213 -9.114551,-2.18574 -1.14799,-0.97387 -2.390433,-1.8669 -2.760985,-1.9845 C 22.063179,121.65309 21.76,121.42257 21.76,121.25843 c 0,-0.16414 -0.206566,-0.29844 -0.459036,-0.29844 -0.25247,0 -1.51247,-0.83005 -2.8,-1.84455 -1.28753,-1.01451 -2.722033,-2.08804 -3.187785,-2.38564 -0.465751,-0.29759 -1.027418,-0.94908 -1.248149,-1.44774 -0.226135,-0.51088 -0.9295,-1.16358 -1.611253,-1.49519 C 7.1249376,111.19489 4.9046278,103.2778 8.5865306,99.997209 11.369952,97.517167 13.776057,96.414242 19.04,95.205484 c 2.816,-0.646637 5.408,-1.358573 5.76,-1.58208 1.570666,-0.997305 3.006194,-1.226429 4.340074,-0.692717 0.700082,0.280119 1.404145,0.509306 1.564583,0.509306 0.451379,0 -2.169673,-4.838918 -3.214884,-5.935235 -1.003495,-1.05256 -1.21566,-2.206585 -0.459054,-2.496924 0.415363,-0.159389 4.352948,3.352025 4.695677,4.187455 0.400407,0.976029 4.741095,2.759543 8.859319,3.640141 6.310963,1.349472 7.158957,1.475981 11.414285,1.702857 2.112,0.112605 4.56,0.27336 5.44,0.357239 4.154333,0.395971 9.803632,0.770643 11.718685,0.777206 2.118688,0.0073 2.118688,0.0073 1.863606,-1.352739 C 70.472762,91.390073 70.306224,91.201824 68.24792,91.183907 60.199891,91.113849 52.972288,90.65678 50.88,90.085574 c -0.264,-0.07207 -1.704,-0.215651 -3.2,-0.319059 -5.597107,-0.386883 -6.610512,-0.498163 -8.64,-0.948733 -2.421222,-0.537539 -3.9604,-1.071897 -6.4,-2.221894 -0.968,-0.456304 -2.085311,-0.83105 -2.482913,-0.832768 -0.665171,-0.0029 -1.29249,-0.47607 -3.654084,-2.75631 -0.939572,-0.907207 -1.370545,-2.622992 -1.087263,-4.328595 0.09849,-0.593021 0.247575,-1.747542 0.331291,-2.5656 0.412944,-4.035196 3.801649,-6.719161 10.71198,-8.484236 4.691482,-1.198323 5.33873,-1.338141 9.460989,-2.043757 8.662432,-1.482768 18.148598,-1.461875 26.539565,0.05846 1.947238,0.352813 5.258681,0.923578 7.358761,1.268368 6.134637,1.007178 11.391277,2.763603 13.823885,4.619046 0.569299,0.434224 1.126352,0.789498 1.237895,0.789498 0.464403,0 4.032393,3.742156 4.492531,4.711826 0.409305,0.862544 0.438681,1.378794 0.163245,2.868771 C 99.351146,80.899911 99.2,81.749607 99.2,81.788807 c 0,0.357049 1.57616,-0.479015 2.05811,-1.091709 1.97696,-2.513299 6.47561,-4.293977 10.96349,-4.339625 3.55302,-0.03614 4.26949,0.36296 5.66013,3.152873 1.88137,3.774416 0.64327,8.832543 -2.76026,11.276777 -1.36807,0.982473 -6.00147,3.374969 -6.00147,3.098912 0,-0.07836 -0.396,0.05797 -0.88,0.302972 -0.484,0.244999 -1.41057,0.541453 -2.05905,0.658788 -2.21808,0.40134 -8.544204,3.656153 -8.572697,4.410684 -0.0045,0.12017 2.619747,0.199728 5.831747,0.1768 6.45335,-0.04607 7.57309,0.175264 10.60291,2.095801 2.66961,1.69222 3.26456,3.98324 2.22724,8.57667 -0.58309,2.582 -2.27841,4.83361 -4.58227,6.08588 -1.37404,0.74686 -2.14054,1.20409 -3.27492,1.95354 -0.47688,0.31505 -1.08888,0.57282 -1.36,0.57282 -0.27113,0 -0.49545,0.18 -0.49849,0.4 -0.007,0.49227 -1.02295,1.47283 -2.71447,2.61941 -0.704,0.4772 -1.86334,1.39705 -2.57631,2.04411 -2.54138,2.30644 -3.916084,2.77694 -9.068442,3.10374 -1.476614,0.0937 -2.774176,0.22555 -2.883472,0.2931 -0.470909,0.29104 -25.098358,0.90175 -25.402154,0.62992 z m 22.317085,-3.35633 c 2.456688,-0.18625 4.56353,-0.39847 4.681872,-0.47161 0.118339,-0.0731 1.204323,-0.1498 2.413293,-0.17036 2.327229,-0.0396 4.191187,-0.66339 5.527898,-1.85003 0.769769,-0.68335 0.769769,-0.68335 -0.8,-0.4943 -0.863373,0.10397 -2.28977,0.37653 -3.16977,0.60568 -1.846413,0.4808 -3.991779,0.79563 -6.72,0.98613 -1.056,0.0737 -4.44,0.36625 -7.52,0.65001 -3.08,0.28377 -7.688,0.50226 -10.24,0.48554 -2.552,-0.0167 -5.36,0.0704 -6.24,0.19357 -1.6,0.22398 -1.6,0.22398 -0.32,0.4249 1.827894,0.28692 17.093693,0.0418 22.386707,-0.35953 z M 55.04,123.97234 c -0.869635,-0.20548 -8.402909,-1.13437 -12.64,-1.55859 -2.288,-0.22907 -4.526451,-0.56308 -4.974336,-0.74224 -1.028982,-0.41161 -6.552368,-1.56132 -9.52885,-1.98346 -1.245679,-0.17667 -3.058036,-0.69676 -4.027461,-1.15576 -0.969426,-0.45901 -1.948613,-0.77063 -2.175972,-0.6925 -0.22736,0.0781 0.255854,0.44901 1.073808,0.82418 0.817955,0.37517 1.897955,1.0104 2.4,1.41161 3.872179,3.09455 4.125798,3.17409 10.438955,3.27404 6.052374,0.0958 16.667814,0.53152 16.84719,0.69147 0.07333,0.0654 0.793332,0.1022 1.6,0.0818 C 54.86,124.10245 55.304,124.03471 55.04,123.97234 Z m 18.722912,-1.8634 c 3.954483,-0.17937 6.229366,-0.32864 10.557088,-0.69271 12.426733,-1.04542 23.97404,-4.7062 27.88039,-8.83878 3.00464,-3.17864 3.18794,-7.29036 0.42402,-9.51151 -2.39739,-1.92659 -4.28637,-2.33395 -12.62441,-2.72249 -1.408,-0.0656 -2.731997,-0.16973 -2.942218,-0.23137 -0.364204,-0.1068 -3.26031,1.92911 -3.285667,2.30976 -0.0067,0.10002 0.599885,0.11066 1.347885,0.0237 2.81664,-0.32765 4.711805,-0.16788 8.50504,0.71702 4.44345,1.03658 6.13915,2.8385 4.65936,4.9512 -1.54986,2.21274 -17.138909,10.24368 -18.38697,9.47234 -0.527174,-0.32582 -0.03476,-0.70418 1.219034,-0.9367 1.35233,-0.25078 5.816688,-2.34092 8.243536,-3.85948 0.88,-0.55065 1.816,-1.09686 2.08,-1.2138 0.71105,-0.31497 3.51129,-2.2943 4.84529,-3.42487 1.94211,-1.64593 1.04361,-2.94191 -2.68924,-3.8789 -3.01611,-0.75709 -3.43605,-0.74825 -3.43605,0.0723 0,1.44453 -3.888893,3.81538 -6.258362,3.81538 -1.03415,0 -3.370544,-1.48141 -3.576099,-2.26746 -0.226288,-0.86532 -0.366374,-0.7998 -1.993923,0.93259 -1.690362,1.79925 -4.243763,3.89487 -4.745686,3.89487 -0.191488,0 -0.421056,0.11795 -0.510151,0.26211 -0.08909,0.14416 1.149952,0.25216 2.753437,0.24 4.70088,-0.0357 3.583603,1.07936 -1.627318,1.624 -1.874042,0.19588 -1.874042,0.19588 -1.72233,1.54186 0.310806,2.75746 -1.403021,4.20257 -3.976707,3.35317 C 76.992134,117.24255 75.34416,117.22044 64.64,117.55519 53.194502,117.91311 53.85895,117.9087 49.562362,117.6554 44.549139,117.35985 43.84,117.0953 43.84,115.52061 c 0,-1.31419 -0.0049,-1.31671 -4,-2.07146 -2.040624,-0.38551 -11.868394,-1.33369 -17.216811,-1.66108 -3.156985,-0.19324 -4.581446,-0.49035 -4.464169,-0.9311 0.166532,-0.62587 17.68098,-0.73665 17.68098,-0.11183 0,0.18043 -2.006048,0.23571 -5.04,0.13887 -4.951338,-0.15804 -6.082067,0.16375 -2.16,0.61471 3.480189,0.40015 3.816512,0.43327 6.56,0.64595 1.496,0.11597 3.980272,0.46442 5.520605,0.77432 2.800605,0.56347 2.800605,0.56347 2.772464,-0.25776 -0.01549,-0.45168 0.07011,-1.13401 0.190192,-1.51629 0.190304,-0.60582 -0.02186,-0.8087 -1.652461,-1.5801 -1.028941,-0.48677 -2.5188,-1.48488 -3.3108,-2.21802 -1.480554,-1.37051 -2.477869,-1.62955 -9.76,-2.53497 -1.557929,-0.1937 -4.355432,-0.88309 -4.202823,-1.0357 0.09236,-0.0924 1.147782,0.004 2.345377,0.21353 2.13296,0.37367 7.413241,1.22472 9.118864,1.46974 0.86142,0.12375 0.86142,0.12375 -0.16,-1.9391 -0.905408,-1.82855 -1.130452,-2.06662 -1.981418,-2.09607 -0.528,-0.0183 -1.183802,-0.0773 -1.457334,-0.13123 -1.539883,-0.30345 -7.871262,1.43276 -11.713233,3.21204 -3.315437,1.53543 -3.313245,1.83836 0.01166,1.61137 1.637187,-0.11177 2.758906,-0.0664 2.758906,0.11164 0,0.16499 -0.828,0.34317 -1.84,0.39595 l -1.84,0.096 1.92,0.41289 c 1.056,0.22709 4.08,0.61589 6.72,0.86399 6.505014,0.61133 10.354768,1.46742 10.655466,2.36952 0.162355,0.48706 -0.1673,0.44816 -2.186557,-0.25808 -0.9619,-0.33645 -3.188908,-0.77686 -4.948908,-0.9787 -1.76,-0.20185 -3.776,-0.43413 -4.48,-0.51619 -0.704,-0.0821 -2.144,-0.21677 -3.2,-0.29935 -1.056,-0.0826 -2.424,-0.22293 -3.04,-0.31188 -4.186,-0.60444 -5.177617,-0.54677 -6.11984,0.35594 -0.93855,0.89919 -1.744113,2.7653 -1.420063,3.28963 0.389433,0.63011 4.293141,2.54802 6.899903,3.38995 6.028838,1.94719 8.06683,2.46064 12.8,3.22482 0.616,0.0995 2.056,0.44965 3.2,0.77822 2.659034,0.7637 5.448509,1.28548 7.68,1.43657 0.968,0.0655 4.136,0.44014 7.04,0.83245 4.154474,0.56123 17.062778,1.30949 17.922912,1.03895 0.0896,-0.0282 2.0336,-0.1361 4.32,-0.23981 z M 69.76,115.00725 c 7.822061,-0.22776 7.277846,-0.23015 8.838317,0.0387 1.299667,0.22391 1.320464,0.21249 1.470147,-0.80735 0.151827,-1.03448 0.151827,-1.03448 -3.238317,-0.80807 -1.864582,0.12453 -3.822147,0.28859 -4.350147,0.36459 -0.528,0.076 -3.768,0.15279 -7.2,0.17065 -10.855219,0.0565 -16.711878,-0.51943 -18.730202,-1.84189 -0.903107,-0.59174 -0.903107,-0.59174 -0.678748,0.20219 0.123395,0.43665 0.308115,1.17605 0.410486,1.64308 0.225942,1.0308 0.478387,1.0885 5.243715,1.19847 2.020605,0.0466 3.737856,0.14881 3.816115,0.22707 0.07826,0.0783 1.950471,0.064 4.160464,-0.0317 2.209994,-0.0957 6.82617,-0.25578 10.25817,-0.35571 z m 6.470541,-3.48437 c 2.5908,-0.14003 4.633504,-0.37926 4.539347,-0.53161 -0.255926,-0.41409 0.179866,-1.55128 0.594477,-1.55128 1.068035,0 3.385309,-2.02364 5.835635,-5.09619 5.995098,-7.517439 6.883926,-8.842361 7.744208,-11.543807 C 96.495254,87.929398 96.64,87.422499 96.64,86.861264 c 0,-0.520874 -0.06531,-0.511821 -0.72,0.0998 -0.770234,0.719555 -3.747984,1.938835 -5.248541,2.149085 -0.501302,0.07024 -2.063459,0.345053 -3.471459,0.610697 -1.408,0.265642 -3.388,0.579715 -4.4,0.697939 l -1.84,0.214957 v 2.534387 c 0,2.366765 0.03916,2.51343 0.592022,2.217546 0.325613,-0.174263 1.628295,-0.604007 2.894845,-0.954986 2.514816,-0.696893 5.550061,-2.07223 6.138819,-2.781638 0.903594,-1.088768 2.42224,0.460643 1.741591,1.776873 -0.582365,1.12617 -4.617962,2.87872 -6.653459,2.889418 -1.311325,0.0069 -5.353818,1.663308 -5.353818,2.193734 0,0.339264 0.257526,0.397968 1.04,0.237078 3.193344,-0.656611 4.936307,-0.617244 5.128006,0.115824 0.277652,1.061732 -0.732636,1.854862 -2.677177,2.101722 -0.92321,0.11721 -1.978323,0.32707 -2.344698,0.46637 C 80.747229,101.70338 80.495677,101.76 80,101.76 c -0.176,0 -0.32,0.56513 -0.32,1.25583 0,1.63545 -1.25161,7.06417 -1.628669,7.06417 -0.16023,0 -0.293536,-0.18 -0.29623,-0.4 -0.0032,-0.25363 -0.09093,-0.28052 -0.24,-0.0735 -0.333082,0.4626 -1.893498,1.10843 -2.123175,0.87875 C 75.286368,110.37969 75.2,109.59733 75.2,108.74666 c 0,-0.85067 -0.108,-1.53627 -0.24,-1.52357 -0.250074,0.0241 -2.511843,2.66056 -2.999894,3.4969 -0.181008,0.31019 -0.365015,0.363 -0.520106,0.14929 -0.329453,-0.45396 -1.21872,-0.37039 -1.12,0.10526 0.103258,0.49751 -0.638995,0.49846 -1.136,0.002 -0.533162,-0.53317 -0.479594,-1.53998 0.117011,-2.19922 0.488544,-0.53984 1.137411,-2.91631 1.544519,-5.65678 0.202035,-1.36 0.202035,-1.36 -1.267207,-1.36 -1.391296,0 -3.963373,-0.23363 -10.538323,-0.95721 -1.584,-0.17432 -3.816,-0.40309 -4.96,-0.50838 -1.144,-0.10529 -3.086432,-0.394039 -4.316518,-0.641665 -1.230087,-0.247625 -3.822087,-0.604576 -5.76,-0.793228 -1.937914,-0.18865 -4.367412,-0.557287 -5.39888,-0.819194 -2.066516,-0.52472 -2.327252,-0.466822 -1.839629,0.408512 0.181126,0.325139 0.74287,1.457098 1.248323,2.515465 1.761706,3.68884 2.95233,4.98997 6.209555,6.78587 3.621194,1.99658 5.711539,2.83909 7.795978,3.14215 0.869645,0.12644 1.869171,0.28483 2.221171,0.35198 0.352,0.0671 2.872,0.20624 5.6,0.30908 2.728,0.10285 5.00216,0.22757 5.05369,0.27716 0.143123,0.13774 6.074764,-0.0232 11.336851,-0.30765 z m -63.107183,-1.61172 c 0.327353,-0.861 3.10712,-3.99117 3.544389,-3.99117 0.143093,0 0.879387,-0.41261 1.636211,-0.91692 3.122269,-2.08051 7.787961,-3.62564 15.191988,-5.03109 0.679798,-0.12904 0.666576,-0.192215 -0.569904,-2.722483 -0.954013,-1.952247 -1.388548,-2.543293 -1.763921,-2.399248 -0.273938,0.10512 -1.097481,0.272262 -1.830095,0.371427 -3.027181,0.409757 -6.767358,1.299869 -7.412026,1.763965 -0.176,0.126704 -1.328,0.467424 -2.56,0.757158 -1.232,0.289734 -2.490046,0.664131 -2.795658,0.831994 -0.305612,0.167859 -0.777718,0.3052 -1.049125,0.3052 -0.961574,0 -4.225102,1.892877 -5.222943,3.029357 -1.0461252,1.19146 -1.4955034,4.31422 -0.692274,4.81064 0.176,0.10878 0.32,0.45136 0.32,0.76129 0,0.61375 2.101497,3.23871 2.592856,3.23871 0.166641,0 0.441367,-0.36397 0.610502,-0.80883 z m 83.446888,-4.38994 c 0.452372,-0.22068 0.877351,-0.5699 0.944397,-0.77605 0.174458,-0.5364 -1.206102,-0.12766 -1.415961,0.41923 -0.209722,0.54652 -2.005575,0.57762 -2.055594,0.0356 -0.105443,-1.14264 -0.15721,-1.2 -1.083088,-1.2 -0.691037,0 -0.59048,0.84952 0.193334,1.63334 0.720621,0.72062 1.781178,0.68582 3.416912,-0.11211 z M 71.04,98.73581 c 0,-1.135817 0,-1.135817 -1.52,-1.172995 -0.836,-0.02045 -2.168,-0.0783 -2.96,-0.12855 -0.792,-0.05026 -2.937139,-0.182093 -4.766973,-0.29297 -1.829837,-0.110877 -3.413837,-0.253443 -3.52,-0.316816 C 58.166861,96.761106 56.064,96.617177 53.6,96.504636 47.67831,96.234162 45.163949,96.016329 44,95.67293 c -0.528,-0.155776 -2.616,-0.581414 -4.64,-0.945865 -2.024,-0.364451 -4.004,-0.800048 -4.4,-0.967994 -0.396,-0.167945 -0.72,-0.186761 -0.72,-0.04181 0,0.54105 1.181907,1.305107 2.252595,1.456221 0.609072,0.08596 2.307546,0.451817 3.774384,0.813008 1.466835,0.36119 4.058835,0.800121 5.76,0.975404 1.701162,0.17528 3.933792,0.484948 4.961399,0.688144 1.908988,0.377485 15.784547,1.975181 18.531622,2.133821 1.52,0.08778 1.52,0.08778 1.52,-1.048045 z m 27.2,-2.888918 c 0.775094,-0.593523 4.81323,-2.319267 6.72,-2.871869 1.61125,-0.46696 2.96794,-1.154899 5.70931,-2.89503 2.74581,-1.742947 2.74321,-6.287641 -0.004,-7.708489 -2.07898,-1.075078 -4.93023,0.200503 -8.74491,3.912259 -1.056,1.02751 -2.033833,1.832061 -2.172963,1.787894 -0.691856,-0.219635 -1.411456,0.675741 -1.787286,2.223863 -0.60224,2.480767 -1.615091,5.437772 -2.141885,6.253215 -0.251827,0.389808 -0.457866,0.797552 -0.457866,0.906099 0,0.194346 1.94306,-0.890489 2.88,-1.607942 z M 69.348461,88.424445 c 0.503325,-1.066538 0.04916,-1.161684 -1.633175,-0.342148 -1.833324,0.893088 -1.854486,1.135744 -0.09662,1.107959 1.117283,-0.01766 1.445241,-0.162851 1.729792,-0.765811 z M 59.244909,86.543238 c 1.44007,-1.153216 3.279085,-2.481142 4.086701,-2.95095 1.519337,-0.883833 1.578614,-0.924569 2.90839,-1.998752 1.101136,-0.889488 -2.034074,0.456323 -5.76,2.472525 -1.496,0.809529 -3.692,1.967961 -4.88,2.574297 -2.851222,1.455219 -2.805126,1.644983 0.473302,1.948423 0.304314,0.02816 1.73154,-0.892327 3.171607,-2.045543 z m 32.075168,0.325149 c 2.911875,-0.995475 3.566886,-1.621417 5.178211,-4.948393 2.141059,-4.420749 0.121216,-6.825072 -9.528157,-11.341836 C 84.767008,69.5469 74.139888,67.451573 68,66.837857 57.647552,65.80307 50.400842,66.226206 40.48,68.444753 c -4.185299,0.935939 -9.12,2.895798 -9.12,3.622093 0,0.139232 -0.2039,0.253149 -0.453111,0.253149 -0.662643,0 -2.248901,2.193923 -2.687569,3.717126 -0.509852,1.770377 -0.496532,5.712153 0.02068,6.119676 0.438407,0.34543 3.359217,1.231898 4.88,1.481078 0.528,0.08652 1.228189,0.261002 1.555978,0.387751 0.529248,0.204649 0.570867,0.116131 0.371718,-0.790595 -0.150691,-0.68609 -0.07054,-1.255655 0.24433,-1.736205 0.502614,-0.767088 5.319302,-3.400598 7.427974,-4.061225 0.704,-0.220557 1.424,-0.506618 1.6,-0.635693 0.176,-0.129072 0.536,-0.246656 0.8,-0.261299 0.583847,-0.03238 4.710602,-0.633447 5.6,-0.815642 6.401472,-1.311353 23.477223,-0.969661 29.474832,0.589802 3.185661,0.828316 4.051664,1.182035 5.717914,2.335488 3.33991,2.312035 3.933776,3.521625 2.757347,5.616162 -0.335453,0.597239 -0.803453,1.429619 -1.04,1.849731 -0.23655,0.420116 -0.646093,1.033437 -0.910093,1.362941 -0.623923,0.77873 1.272138,0.527008 4.600077,-0.610704 z M 51.585453,85.66225 c 1.471401,-1.10976 3.390611,-2.355943 4.264912,-2.769296 0.874301,-0.413354 1.83256,-0.959475 2.129472,-1.213603 0.296909,-0.254128 0.715158,-0.353696 0.929443,-0.221261 0.236096,0.145913 0.307056,0.107222 0.180096,-0.0982 -0.117133,-0.189523 0.425456,-0.711113 1.230557,-1.182934 C 61.111968,79.712788 61.76,79.27065 61.76,79.194426 c 0,-0.396342 -7.138781,3.051379 -9.92,4.790928 -0.968,0.605446 -2.588,1.573664 -3.6,2.15159 -2.167818,1.237984 -2.283456,1.543049 -0.584912,1.543049 1.044563,0 1.703827,-0.338448 3.930365,-2.017743 z m 30.334118,0.557497 c 1.143767,-0.683523 2.369299,-1.2048 2.723408,-1.158397 0.425907,0.05581 0.832231,-0.23456 1.200429,-0.857865 0.733382,-1.24152 0.702323,-1.718678 -0.163408,-2.510278 -0.956054,-0.874192 -2.8,-1.791789 -2.8,-1.393354 0,0.343991 -3.616566,2.900141 -4.103261,2.900141 -0.164105,0 -0.477638,0.216 -0.696739,0.48 -0.510582,0.615216 0.01034,0.621689 0.818838,0.01018 0.341639,-0.2584 0.819156,-0.4744 1.061146,-0.48 0.241994,-0.0056 1.284403,-0.389127 2.316467,-0.852291 1.535591,-0.68913 1.964323,-0.769213 2.360016,-0.440816 0.799543,0.663561 0.562829,1.041872 -1.847939,2.953308 -3.527542,2.796906 -3.61079,2.866298 -3.268528,2.724611 0.176,-0.07286 1.255808,-0.691715 2.399571,-1.375235 z M 44.074272,86.94281 C 43.910691,86.45207 42.034682,86.159536 40.8,86.43224 l -0.96,0.212032 0.96,0.06035 c 0.528,0.03319 1.224605,0.164538 1.54801,0.291872 0.97319,0.383184 1.862665,0.35552 1.726262,-0.05369 z m 28.05463,-1.057165 c 0.08193,-0.213517 -0.339456,-0.07714 -0.936422,0.303069 -0.596966,0.380204 -1.091485,0.80742 -1.098934,0.949372 -0.01933,0.368355 1.856284,-0.785788 2.035356,-1.252441 z M 45.804774,85.026186 c 0.624602,-0.476407 1.21986,-0.866192 1.322804,-0.866192 0.10294,0 1.025347,-0.553581 2.049795,-1.230179 1.024445,-0.676599 2.242169,-1.432599 2.706054,-1.68 C 53.012128,80.64785 56.64,78.095802 56.64,77.903777 c 0,-0.470496 -7.716323,3.510563 -11.439888,5.902143 -1.451936,0.932554 -2.568288,1.811402 -2.480781,1.952992 0.315034,0.509738 1.97256,0.116109 3.085443,-0.732726 z M 57.504627,84.25945 c 0.915546,-0.582701 1.747235,-1.059456 1.848199,-1.059456 0.100963,0 1.551916,-0.648 3.224342,-1.44 1.672426,-0.792 3.223936,-1.44 3.447802,-1.44 0.223868,0 0.54383,-0.129267 0.71103,-0.287258 0.1672,-0.15799 1.446957,-0.758649 2.843904,-1.334799 2.91599,-1.202653 2.741686,-1.517949 -0.859904,-1.55545 -1.525846,-0.0159 -2.160483,0.09494 -2.161642,0.377507 -0.0016,0.358058 -5.344729,3.950579 -8.371452,5.628512 -1.908666,1.058112 -3.458701,2.11511 -3.462944,2.361446 -0.006,0.347658 0.933356,-0.07478 2.780665,-1.250502 z m 14.852717,-0.262234 c 1.182733,-0.793526 2.594176,-1.531526 3.136541,-1.64 0.542361,-0.10847 0.986115,-0.323222 0.986115,-0.477222 0,-0.154 0.279501,-0.28 0.621114,-0.28 0.341612,0 0.711804,-0.146739 0.822646,-0.326086 0.110842,-0.179344 0.946013,-0.703341 1.855936,-1.164432 1.775053,-0.899488 1.716608,-1.03568 -0.63903,-1.489037 -0.875754,-0.168544 -1.033514,-0.09826 -1.12,0.499008 -0.06935,0.478912 -0.920535,1.196896 -2.73602,2.307865 -3.519097,2.153479 -5.976601,3.981146 -5.381184,4.002035 0.166903,0.0059 1.271149,-0.638601 2.453882,-1.432131 z m -31.846941,0.445008 c 0.33528,-0.372774 0.830803,-0.768774 1.101168,-0.88 1.082208,-0.445216 7.259059,-4.291126 8.308429,-5.173103 l 1.12,-0.941338 -1.051424,0.19839 c -0.578285,0.109114 -1.456976,0.575364 -1.95265,1.036106 -0.495673,0.460742 -2.650531,1.841587 -4.788576,3.068544 -2.676624,1.536028 -3.88735,2.408099 -3.88735,2.799999 0,0.757024 0.406352,0.718666 1.150403,-0.108598 z m 75.456837,-2.04223 c -0.87872,-3.422438 -2.45785,-4.310589 -6.50529,-3.658765 -2.17663,0.350535 -3.79686,1.095392 -5.46419,2.512003 l -1.11776,0.949683 1.45337,-0.701459 c 0.79936,-0.385804 1.87936,-1.000416 2.4,-1.365801 2.9274,-2.054438 7.94444,0.199437 8.66081,3.890812 l 0.24327,1.253527 0.24706,-1.12 c 0.13588,-0.616 0.17311,-1.408 0.0827,-1.76 z M 66.190602,84.211891 C 66.65777,83.888435 68.048,83.145082 69.28,82.559994 c 1.232,-0.585088 2.668749,-1.364442 3.192778,-1.731898 0.524028,-0.367456 1.856182,-1.11807 2.960345,-1.668032 2.002461,-0.997388 2.005021,-1.000441 1.007223,-1.199999 C 74.887456,77.649485 74.24,77.720647 74.24,78.201898 c 0,0.243047 -1.274237,1.183523 -2.831635,2.089949 -3.450426,2.008182 -7.044007,4.508147 -6.480253,4.508147 0.2272,0 0.795322,-0.264647 1.26249,-0.588103 z M 40.8,81.963101 c 1.232,-0.815709 3.032,-1.946749 4,-2.513417 1.978934,-1.15848 1.921133,-1.279389 -0.259872,-0.543613 -3.084557,1.040595 -7.252768,3.441939 -7.366298,4.243792 -0.144832,1.022924 0.712621,0.7423 3.62617,-1.186762 z m 20.024829,-3.755097 c 2.556425,-1.034909 2.612198,-1.091024 1.068505,-1.075005 -0.913728,0.0095 -1.553536,0.269606 -2.361248,0.96 -1.350617,1.154448 -1.288524,1.159974 1.292743,0.115005 z M 52.96,57.391612 c -1.943901,-1.371962 -2.28121,-2.302711 -1.435373,-3.960685 1.198743,-2.349731 4.313767,-4.343587 8.70321,-5.570732 1.35672,-0.379296 2.026931,-0.777664 2.600288,-1.5456 2.486704,-3.330601 0.153072,-9.194598 -3.659072,-9.194598 -2.120848,0 -3.843021,1.842339 -2.845603,3.044157 0.498163,0.600249 1.27655,0.618589 1.27655,0.03008 0,-0.615911 0.947082,-0.923325 1.48056,-0.480576 1.066,0.884704 -0.109107,3.486339 -1.574707,3.486339 -1.29801,0 -3.145127,-1.060279 -3.555795,-2.041085 -1.431844,-3.419721 1.64296,-6.577673 6.048742,-6.212313 4.993091,0.414067 8.021533,9.358086 4.435891,13.10069 -1.061222,1.107677 -3.776083,2.511834 -4.864224,2.515834 -1.416304,0.0052 -3.970131,1.412396 -5.410467,2.981235 -1.584138,1.725471 -1.618438,1.885897 -0.578211,2.70414 0.632368,0.497421 1.523078,2.365334 1.092902,2.291926 C 54.61161,58.529672 53.84,58.012693 52.96,57.391612 Z m 24,-1.867431 c -2.834032,-1.250531 -4.207606,-7.256597 -2.692752,-11.77428 0.93849,-2.798813 5.142874,-7.909904 6.506688,-7.909904 0.200106,0 0.588442,-0.252 0.86297,-0.56 0.274528,-0.308 0.846528,-0.86503 1.271116,-1.237849 1.261773,-1.107923 3.293504,-4.194236 3.863946,-5.869555 0.921626,-2.706689 0.0815,-4.757086 -3.414166,-8.332594 -6.101354,-6.24071 -6.687626,-7.47736 -5.396458,-11.3829952 0.731325,-2.2121716 2.329962,-3.4317879 5.392749,-4.1141824 2.678563,-0.596789 5.588073,1.6745372 5.601539,4.3728714 0.0053,1.0594946 -1.933418,2.9918782 -3.315331,3.3045232 -1.297104,0.293457 -2.947504,-1.31078 -2.633911,-2.5602353 0.193828,-0.7722716 0.448669,-0.9464489 2.389648,-1.6332622 0.74682,-0.2642608 -0.233612,-1.106719 -1.287968,-1.106719 -1.328019,0 -3.27494,1.0815913 -3.725011,2.0693899 -1.040371,2.2833636 -0.235632,4.0743276 3.429466,7.6323606 4.115805,3.995574 5.870611,6.852321 5.841757,9.510123 -0.03799,3.49981 -3.275594,8.328771 -8.214282,12.251795 -4.111741,3.266143 -4.788006,4.041014 -5.584054,6.398239 -1.090871,3.230243 -0.458564,7.087792 1.582854,9.656582 1.415088,1.780656 1.306109,2.073296 -0.4788,1.285692 z"
     id="path1407"
     inkscape:connector-curvature="0" />
</svg>
