<?xml version="1.0" encoding="UTF-8" standalone="no"?>
<!-- Created with Inkscape (http://www.inkscape.org/) -->

<svg
   xmlns:dc="http://purl.org/dc/elements/1.1/"
   xmlns:cc="http://creativecommons.org/ns#"
   xmlns:rdf="http://www.w3.org/1999/02/22-rdf-syntax-ns#"
   xmlns:svg="http://www.w3.org/2000/svg"
   xmlns="http://www.w3.org/2000/svg"
   xmlns:sodipodi="http://sodipodi.sourceforge.net/DTD/sodipodi-0.dtd"
   xmlns:inkscape="http://www.inkscape.org/namespaces/inkscape"
   version="1.1"
   id="svg359"
   width="133.12"
   height="98.559998"
   viewBox="0 0 133.12 98.559998"
   sodipodi:docname="book.svg"
   inkscape:version="0.92.4 5da689c313, 2019-01-14">
  <metadata
     id="metadata365">
    <rdf:RDF>
      <cc:Work
         rdf:about="">
        <dc:format>image/svg+xml</dc:format>
        <dc:type
           rdf:resource="http://purl.org/dc/dcmitype/StillImage" />
        <dc:title></dc:title>
      </cc:Work>
    </rdf:RDF>
  </metadata>
  <defs
     id="defs363" />
  <sodipodi:namedview
     pagecolor="#ffffff"
     bordercolor="#666666"
     borderopacity="1"
     objecttolerance="10"
     gridtolerance="10"
     guidetolerance="10"
     inkscape:pageopacity="0"
     inkscape:pageshadow="2"
     inkscape:window-width="3200"
     inkscape:window-height="1734"
     id="namedview361"
     showgrid="false"
     inkscape:zoom="9.6980172"
     inkscape:cx="56.71865"
     inkscape:cy="55.173707"
     inkscape:window-x="0"
     inkscape:window-y="66"
     inkscape:window-maximized="1"
     inkscape:current-layer="svg359" />
  <path
     style="fill:#000000;stroke-width:0.31999999"
     d="M 22.000229,85.57356 C 21.871737,85.44507 19.785121,85.309105 17.363304,85.271422 8.9180838,85.140014 7.3325565,83.698978 6.5131843,75.410082 5.786135,68.055138 6.5239747,64.277391 9.1301139,62.011381 9.5645514,61.633644 9.92,61.132597 9.92,60.897951 c 0,-0.23465 0.136989,-0.676682 0.30442,-0.982295 0.167431,-0.305612 0.757047,-1.995657 1.310256,-3.755657 0.55321,-1.76 1.441284,-4.208 1.973497,-5.44 3.81796,-8.838035 5.636749,-12.750774 8.999256,-19.36 2.104231,-4.136 4.121572,-8.134413 4.482982,-8.885363 0.361409,-0.750949 1.744416,-3.533635 3.073348,-6.183746 0,0 1.644804,-2.801811 3.163816,-3.761466 C 34.896234,11.475229 38.4,11.348669 38.4,11.348669 c 3.256,-0.06811 6.712,-0.192278 7.68,-0.275928 0.968,-0.08365 6.08,-0.238117 11.36,-0.343262 5.28,-0.105144 12.768,-0.284317 16.64,-0.398161 15.506698,-0.4559272 37.60308,-0.125045 38.96497,0.58348 1.4366,0.747387 2.47503,2.452914 2.47503,4.064998 0,0.478325 0.25824,1.371549 0.57386,1.984943 0.59459,1.155549 0.71621,4.895771 0.22097,6.795261 -0.20759,0.79621 -0.14876,0.879999 0.61791,0.879999 1.22087,0 1.36492,0.788687 0.56349,3.085041 -0.69907,2.003032 -0.69907,2.003032 0.0893,2.791393 0.53438,0.534373 0.74004,1.029216 0.63837,1.535963 -0.54036,2.693194 -0.54611,3.147603 -0.0398,3.147603 0.58724,0 1.17147,1.791258 1.17415,3.6 0.002,1.375056 0.16869,1.455392 1.13528,0.547328 1.01824,-0.956592 3.00228,-1.211021 3.55449,-0.455824 0.68227,0.933053 0.52073,1.870291 -0.8107,4.703792 -0.6835,1.454589 -1.63472,3.508704 -2.11382,4.564704 -1.13226,2.495616 -3.76828,7.039117 -7.381,12.722064 -1.59365,2.506864 -3.52018,5.709936 -4.28116,7.117936 -0.76099,1.408 -1.8691,3.160233 -2.46246,3.893856 -0.59336,0.733619 -1.07884,1.42552 -1.07884,1.537558 0,0.224672 -2.55281,4.072992 -2.8714,4.328585 -0.10969,0.088 -0.54247,0.664 -0.96174,1.28 -0.97564,1.433456 -1.27377,1.798308 -2.772681,3.393252 C 98.08,83.746501 98.08,83.746501 91.2,83.99324 c -3.784,0.135705 -8.032,0.29071 -9.44,0.344457 -1.408,0.05374 -6.16,0.116471 -10.56,0.139389 -7.225005,0.03763 -10.275939,0.188634 -16.8,0.831469 -3.056525,0.301168 -32.125844,0.538934 -32.399771,0.265005 z m 9.653104,-2.88232 c 0.07333,-0.07218 -2.518666,-0.101645 -5.76,-0.06547 C 20,82.691541 20,82.691541 24.32,82.865771 c 4.166356,0.168032 7.05516,0.09928 7.333333,-0.174531 z m 19.524238,0.153002 C 56.608362,82.327234 61.16577,82.122962 68.8,82.05437 c 3.96,-0.03558 8.496,-0.173594 10.08,-0.306695 1.584,-0.133097 4.32,-0.271629 6.08,-0.307843 4.846029,-0.09971 10.08,-0.524112 10.08,-0.817344 0,-0.143584 0.504,-0.443312 1.12,-0.666061 0.616,-0.222749 1.12,-0.512579 1.12,-0.644067 0,-0.369648 -2.032666,0.390592 -2.45769,0.919203 -0.325913,0.405341 -2.10264,0.440077 -12.96,0.253383 C 73.43695,80.340069 68.064198,80.38611 65.6,80.624302 c -2.024,0.195642 -5.192,0.428464 -7.04,0.517386 -4.281366,0.206003 -11.715517,0.785043 -12.600979,0.981478 -0.911917,0.202304 -5.282365,0.3853 -9.879021,0.413645 -2.265232,0.01395 -3.76,0.149767 -3.76,0.341591 0,0.418121 14.38032,0.39207 18.857571,-0.03416 z M 17.833333,82.686664 C 17.727,82.580331 17.451,82.568965 17.22,82.661416 c -0.255275,0.10215 -0.179448,0.177978 0.193333,0.193331 0.337334,0.01389 0.526334,-0.06174 0.42,-0.16807 z M 19.28,82.668069 c -0.22,-0.08877 -0.58,-0.08877 -0.8,0 -0.22,0.08877 -0.04,0.161405 0.4,0.161405 0.44,0 0.62,-0.07263 0.4,-0.161405 z M 26,80.19915 c 3.410958,-0.01869 3.410918,-0.01869 2.470268,-0.787859 -0.871303,-0.712473 -1.192448,-2.734829 -0.53818,-3.389094 0.269786,-0.269786 0.735008,-1.177149 1.033828,-2.016359 0.298821,-0.839212 0.689204,-1.921839 0.86752,-2.405839 0.178315,-0.484 0.558739,-0.89137 0.845386,-0.905264 0.436857,-0.02118 0.443519,-0.05483 0.04118,-0.207981 -0.264,-0.100496 -0.579402,-0.335715 -0.700894,-0.522707 -0.154827,-0.238304 -0.782693,-0.223952 -2.099262,0.04798 -3.933681,0.81249 -6.893409,0.233789 -6.021301,-1.177308 0.351154,-0.568183 8.215605,-1.410935 16.661457,-1.78544 2.288,-0.101456 4.52,-0.255844 4.96,-0.343082 0.683638,-0.135546 3.962762,-0.194179 12.48,-0.223162 0.968,-0.0033 2.23176,-0.01235 2.808355,-0.02016 1.357011,-0.01834 2.053661,0.616109 1.293472,1.177981 -0.364742,0.269587 -2.169414,0.420826 -5.6,0.469306 -7.222896,0.102067 -8.154406,0.272285 -8.485648,1.550585 -0.153005,0.590464 -0.535504,1.104775 -0.910045,1.223648 -0.938163,0.297764 -2.066368,1.568359 -4.030521,4.539213 -2.221552,3.360179 -2.963431,5.024566 -2.130951,4.780736 0.316436,-0.09268 1.799338,-0.203274 3.295338,-0.24576 1.496,-0.04249 3.148099,-0.193702 3.671328,-0.336038 0.523232,-0.142333 3.979232,-0.417476 7.68,-0.611424 3.700771,-0.193949 8.456672,-0.536778 10.568672,-0.76184 2.269862,-0.241888 8.354144,-0.421408 14.88,-0.439047 6.072,-0.01642 11.497715,-0.03443 12.057142,-0.04004 1.347472,-0.0135 2.141968,-0.789715 1.684077,-1.645293 -0.262995,-0.491414 -0.189904,-0.869478 0.331075,-1.712438 0.847082,-1.370608 0.59618,-1.506122 -2.109942,-1.139603 C 85.121306,74.069403 75.2,74.869374 75.2,74.547038 c 0,-0.211456 0.671315,-0.325292 4.88,-0.827513 0.924,-0.110262 1.824,-0.302093 2,-0.426294 0.176,-0.124199 1.184,-0.4009 2.24,-0.61489 1.056,-0.21399 2.568,-0.52505 3.36,-0.691245 0.792,-0.166195 2.16,-0.451571 3.04,-0.634166 1.260093,-0.261463 1.715805,-0.533911 2.145117,-1.282461 0.543225,-0.947171 0.383443,-1.27103 -0.293235,-0.594352 -0.200199,0.200198 -0.53945,0.24281 -0.774848,0.09733 -0.519552,-0.321101 -1.601901,-0.280365 -5.077034,0.191088 -6.346458,0.860986 -14.454554,0.301965 -8.749642,-0.603254 12.170685,-1.931168 12.644176,-2.034362 12.93441,-2.818944 0.141398,-0.382237 0.694298,-1.018218 1.228666,-1.413293 l 0.971574,-0.718317 -1.223917,-0.547965 c -1.786477,-0.79983 -1.874422,-1.41927 -0.345187,-2.43127 0.70241,-0.464832 1.223277,-0.898976 1.157488,-0.964768 C 92.132275,59.705607 86.888714,59.22035 81.076182,59.191626 66.01239,59.117186 54.515792,59.175656 53.810579,59.330266 52.13896,59.696788 44.002061,59.975342 38.24,59.8633 c -3.56977,-0.06941 -12.314955,0.209565 -13.28,0.423638 -0.44,0.09761 -1.448,0.326247 -2.24,0.50809 -0.792,0.181843 -2.599059,0.528627 -4.015687,0.770634 -5.882784,1.004963 -7.677408,3.64182 -7.594464,11.158601 0.07481,6.77968 1.891275,8.239993 9.530151,7.661593 1.232,-0.09328 3.644,-0.177302 5.36,-0.186704 z m 47.92,-5.444915 c 0,-0.06917 0.216,-0.208649 0.48,-0.309958 0.264,-0.101306 0.48,-0.04471 0.48,0.125763 0,0.170477 -0.216,0.309958 -0.48,0.309958 -0.264,0 -0.48,-0.0566 -0.48,-0.125763 z m -38.462118,5.094547 c 0.06229,-0.06229 -0.115853,-0.462918 -0.395872,-0.890284 -0.280023,-0.427367 -0.54353,-1.356788 -0.585572,-2.065376 -0.05312,-0.89536 -0.201766,-1.240759 -0.487299,-1.132333 -0.757161,0.28752 -2.356594,1.826758 -3.289574,3.165776 l -0.924305,1.326566 2.784682,-0.145545 c 1.531578,-0.08005 2.835648,-0.196512 2.89794,-0.258804 z m 63.1392,-1.46863 c 0.823753,-0.440858 4.362818,-5.206278 5.094728,-6.860153 0.31156,-0.704 1.01235,-1.756887 1.55733,-2.339751 0.54497,-0.582861 0.99086,-1.111504 0.99086,-1.174761 0,-0.357204 3.59118,-6.242173 5.56597,-9.12112 2.45391,-3.577427 5.09524,-8.110157 6.23154,-10.693821 1.28623,-2.924557 0.43301,-1.855814 -1.34971,1.69064 -1.50317,2.99032 -8.17381,13.376234 -9.73617,15.158813 -0.26995,0.308 -0.3605,0.562204 -0.20123,0.564899 0.15928,0.0026 0.13015,0.110694 -0.0647,0.24 -0.95075,0.630838 -6.51957,8.085395 -8.721722,11.6751 -0.747689,1.2188 -0.546851,1.491658 0.633124,0.860154 z m -1.427376,-3.900154 c 1.02464,-1.451999 2.032595,-2.95727 2.2399,-3.345043 0.207306,-0.387772 0.917344,-1.289139 1.577874,-2.003033 0.66052,-0.713898 1.42855,-1.641155 1.70673,-2.060576 5.63317,-8.493168 8.17053,-12.2112 8.39275,-12.298013 0.15017,-0.05867 0.27304,-0.248742 0.27304,-0.42239 0,-0.173648 0.62684,-1.349648 1.39296,-2.613334 3.2704,-5.394314 4.6349,-8.554189 4.51582,-10.45761 -0.0606,-0.968 -0.11202,-2.26192 -0.11434,-2.875379 -0.004,-1.115379 -0.004,-1.115379 -1.44444,0.8 -0.79212,1.053459 -1.71295,2.275379 -2.04629,2.715379 -0.33335,0.44 -0.79479,1.157027 -1.02544,1.593395 -0.23064,0.436368 -0.61283,0.98688 -0.84931,1.223354 -0.60123,0.601232 -3.30896,4.420662 -3.30896,4.667507 0,0.316016 -2.21848,3.475281 -2.66628,3.817006 -0.44781,0.341726 -1.15455,2.211163 -2.51755,2.779974 -0.396,-0.0026 1.64783,-3.95683 1.82383,-4.086135 0.176,-0.129306 0.58514,-0.757399 0.9092,-1.39576 0.32407,-0.638362 0.97207,-1.579834 1.44,-2.09216 0.46794,-0.512327 0.89658,-1.070032 0.95253,-1.239341 0.56529,-1.710557 5.51589,-9.463539 6.57466,-10.296365 0.56973,-0.44815 0.73622,-0.829001 0.62248,-1.423977 -0.0854,-0.446714 -0.0102,-1.337648 0.16714,-1.979853 0.48423,-1.753728 -0.12453,-1.419305 -1.22389,0.672355 -0.94838,1.804371 -1.50608,2.749482 -2.0196,3.422535 -0.14161,0.185606 -1.14456,1.705443 -2.22877,3.377414 -1.0842,1.671971 -2.29067,3.399971 -2.68104,3.84 -1.15883,1.306237 -2.36336,3.203305 -3.72619,5.868547 -1.19653,2.339987 -1.89857,3.126118 -2.37039,2.654298 -0.20037,-0.200365 0.30572,-1.574016 1.7137,-4.651383 0.43498,-0.950723 1.83472,-3.254723 3.11052,-5.12 1.27581,-1.865276 2.53797,-3.823411 2.80481,-4.351411 0.26685,-0.528 1.14308,-2.184 1.94719,-3.68 0.8041,-1.496 1.8577,-3.872 2.34132,-5.28 0.48362,-1.408 0.9905,-2.704423 1.12639,-2.880941 0.13589,-0.176518 0.0481,-0.680518 -0.19515,-1.12 -0.24323,-0.439482 -0.44734,-1.051059 -0.45357,-1.359059 -0.0162,-0.799347 -0.56786,-0.692648 -0.82726,0.16 -0.23432,0.770231 -5.67597,11.91656 -6.20991,12.72 -1.139,1.713888 -3.2055,5.567629 -3.54172,6.604835 -0.63929,1.972109 -2.12013,4.658963 -3.25994,5.914874 -2.041016,2.248899 -2.641553,3.010093 -3.137992,3.977465 -0.275804,0.537447 -0.842172,1.455651 -1.258588,2.040458 -0.757127,1.063283 -0.757127,1.063283 -0.0409,1.603529 0.820848,0.619168 0.692496,2.726288 -0.209709,3.44266 -0.429504,0.341033 -0.425529,0.441683 0.03565,0.902857 0.719632,0.719629 0.649917,1.471152 -0.260989,2.813443 -0.740614,1.091357 -0.749523,1.159111 -0.176368,1.341024 0.880061,0.279319 1.031271,1.146163 0.474976,2.722877 -0.555014,1.573072 -0.343264,1.902586 1.228084,1.911078 1.175494,0.0063 0.987344,0.656055 -0.365661,1.26265 C 95.574678,72.65925 95.36,72.949627 95.36,73.678786 c 0,0.507808 -0.151978,1.20726 -0.337728,1.554336 -0.288746,0.539526 -0.165459,1.886876 0.172653,1.886876 0.06149,0 0.950141,-1.188 1.974781,-2.64 z M 101.76,59.419887 c 0,-0.05506 0.36392,-0.854474 0.8087,-1.776474 0.44479,-0.922 0.72429,-1.812947 0.62112,-1.979888 -0.10318,-0.166941 1.56867,-2.636726 2.02203,-2.636726 0.82427,0 -0.56107,2.3332 -1.35874,3.8532 -1.04358,1.988563 -2.0931,3.262115 -2.0931,2.539888 z M 8.9501997,67.199999 c 0,-0.426666 -0.034467,-0.426666 -0.3101997,0 -0.1706099,0.264 -0.3101997,0.696 -0.3101997,0.96 0,0.426665 0.034467,0.426665 0.3101997,0 0.1706099,-0.264 0.3101997,-0.696 0.3101997,-0.96 z m 5.0015913,-7.201712 c 0.75241,-0.440944 2.205062,-0.940019 3.228114,-1.109059 1.023052,-0.16904 2.796095,-0.492272 3.940095,-0.718288 1.284644,-0.253805 4.435479,-0.403354 8.24,-0.391098 3.388,0.01091 6.15991,-0.06109 6.159802,-0.16 -1.06e-4,-0.09891 2.555894,-0.141686 5.68,-0.09505 3.42695,0.05116 7.83527,-0.11856 11.112902,-0.427843 C 59.44848,56.423605 83.370125,56.82406 89.6,57.721144 c 1.656227,0.238493 2.693808,-0.387884 3.060115,-1.847363 0.117427,-0.467865 0.48704,-0.997056 0.821367,-1.175981 0.334323,-0.178924 0.94734,-0.859126 1.362256,-1.511561 0.414918,-0.652432 1.607574,-2.201264 2.650345,-3.441846 1.042771,-1.240586 2.249191,-3.031962 2.680927,-3.980836 1.10795,-2.435023 4.85145,-9.835596 5.74814,-11.363558 1.32234,-2.25328 2.72241,-5.073729 3.33581,-6.72 0.32789,-0.88 1.29272,-2.99731 2.14406,-4.705133 2.29088,-4.595589 2.44703,-8.880798 0.3583,-9.832491 -1.90104,-0.86617 -21.073634,-1.338772 -36.24132,-0.893344 -4.664,0.136968 -11.54408,0.320722 -15.289066,0.408343 -6.900531,0.161451 -18.730233,0.901406 -22.396352,1.400905 -1.719046,0.234216 -2.244729,0.477685 -3.681305,1.704991 -2.017959,1.723995 -2.234127,2.084373 -6.284334,10.476729 -0.891857,1.848 -1.875219,3.736507 -2.18525,4.196682 -0.310031,0.460175 -0.986802,1.540175 -1.503936,2.4 -0.517133,0.859824 -1.201133,1.906739 -1.52,2.326473 C 22.340891,35.582889 22.08,36.128895 22.08,36.376498 c 0,0.247604 -0.449395,1.416186 -0.998656,2.596845 -1.65934,3.566826 -3.035605,6.563382 -3.557904,7.746656 -0.271902,0.616 -0.88839,1.984 -1.369972,3.04 -0.481582,1.056 -1.298525,3.432 -1.815429,5.28 -0.516903,1.848 -1.121188,3.648 -1.342855,4 -1.175556,1.866749 -0.960749,2.081933 0.956607,0.958288 z m 35.885825,-7.904851 c -1.34921,-1.027607 0.552278,-2.403619 2.802384,-2.027949 0.528,0.08815 2.703526,0.17833 4.834502,0.20039 4.481652,0.0464 4.93824,0.194461 4.296637,1.393309 -0.241606,0.451447 -0.594953,0.822282 -0.785213,0.824077 -0.190259,0.0019 -2.614998,0.03779 -5.38831,0.08 -4.339197,0.06603 -5.142458,6.4e-4 -5.76,-0.469827 z M 61.84,33.603507 C 61.268,33.254751 60.8,32.768505 60.8,32.522956 60.8,32.171276 60.069773,32.067718 57.36,32.03511 53.103165,31.983885 48.20681,31.716928 46.72,31.455001 46.104,31.346482 45.30223,31.232351 44.938288,31.201378 43.583949,31.086114 41.28,30.247013 41.28,29.869024 c 0,-0.699781 0.515309,-0.742046 3.075315,-0.252235 3.367165,0.644244 8.424227,1.020811 16.924685,1.26027 7.809293,0.219989 8.573891,0.304921 9.165811,1.018137 0.665895,0.802355 -0.379549,1.278855 -2.97191,1.354547 -1.263277,0.03689 -2.698551,0.274784 -3.189495,0.528663 -1.137577,0.588262 -1.20006,0.583792 -2.444406,-0.174899 z M 49.822006,27.313506 C 49.980362,26.901173 61.290576,26.422761 76.4,26.18928 c 3.160042,-0.04883 4.703424,-0.551521 1.92,-0.625357 -14.187318,-0.376347 -21.322701,-0.404972 -29.130621,-0.116865 -6.40952,0.236508 -7.733107,0.045 -7.821744,-1.131715 -0.06357,-0.843951 0.02794,-0.878496 3.419597,-1.290882 2.11247,-0.256851 3.356602,-0.263645 4.310166,-0.02353 0.737274,0.185648 4.427972,0.361781 8.201552,0.391405 6.124176,0.04808 13.089783,0.390208 11.82105,0.580614 -0.355446,0.05334 -0.321738,0.134106 0.129907,0.31124 0.33545,0.131562 1.27145,0.13555 2.08,0.0089 C 72.138458,24.166364 73.16,24.125862 73.6,24.203045 c 1.161136,0.203683 6.54823,0.460405 8.900752,0.424167 1.111414,-0.01712 2.191414,0.100195 2.4,0.260701 0.226979,0.174659 3.39856,0.18184 7.899248,0.01788 7.85734,-0.286232 10.16839,-0.0054 9.7134,1.180238 -0.26363,0.687023 -1.11011,0.75311 -12.082494,0.943325 -42.688903,0.740047 -40.778855,0.726683 -40.6089,0.284145 z m 8.625389,-5.550325 c -1.383309,-1.397723 0.278938,-1.925358 6.14865,-1.951726 5.550726,-0.02493 6.354182,0.114387 6.282589,1.089427 -0.04915,0.669367 -0.2,0.701439 -3.544983,0.753659 -1.921507,0.03 -4.429651,0.20891 -5.573651,0.397582 -2.610848,0.430591 -2.599514,0.43158 -3.312605,-0.288942 z"
     id="path369"
     inkscape:connector-curvature="0"
     sodipodi:nodetypes="csscscsssssssssscscsscscsccccccccscccscsscsssssscsssscsscscssccccccssccccsccccccsccccsscscccsccccccsccssssccsssccsccscscscscccscsssscccscsscccssccsccsccsccccscccccccszccccccccccccccccccssccccccccccccccccsssscccscccssscscscccssssccccccscssssssscsscssccccccccccssscssscccccssscscsccccssccscccsccsc" />
</svg>
