<?xml version="1.0" encoding="UTF-8" standalone="no"?>
<!-- Created with Inkscape (http://www.inkscape.org/) -->

<svg
   xmlns:dc="http://purl.org/dc/elements/1.1/"
   xmlns:cc="http://creativecommons.org/ns#"
   xmlns:rdf="http://www.w3.org/1999/02/22-rdf-syntax-ns#"
   xmlns:svg="http://www.w3.org/2000/svg"
   xmlns="http://www.w3.org/2000/svg"
   xmlns:sodipodi="http://sodipodi.sourceforge.net/DTD/sodipodi-0.dtd"
   xmlns:inkscape="http://www.inkscape.org/namespaces/inkscape"
   version="1.1"
   id="svg583"
   width="111.36"
   height="158.08"
   viewBox="0 0 111.36 158.08"
   sodipodi:docname="booklet.svg"
   inkscape:version="0.92.4 5da689c313, 2019-01-14">
  <metadata
     id="metadata589">
    <rdf:RDF>
      <cc:Work
         rdf:about="">
        <dc:format>image/svg+xml</dc:format>
        <dc:type
           rdf:resource="http://purl.org/dc/dcmitype/StillImage" />
        <dc:title></dc:title>
      </cc:Work>
    </rdf:RDF>
  </metadata>
  <defs
     id="defs587" />
  <sodipodi:namedview
     pagecolor="#ffffff"
     bordercolor="#666666"
     borderopacity="1"
     objecttolerance="10"
     gridtolerance="10"
     guidetolerance="10"
     inkscape:pageopacity="0"
     inkscape:pageshadow="2"
     inkscape:window-width="3200"
     inkscape:window-height="1745"
     id="namedview585"
     showgrid="false"
     inkscape:zoom="8.0781882"
     inkscape:cx="51.316242"
     inkscape:cy="81.237164"
     inkscape:window-x="0"
     inkscape:window-y="55"
     inkscape:window-maximized="1"
     inkscape:current-layer="svg583" />
  <path
     style="fill:#000000;stroke-width:0.31999999"
     d="m 74.503418,151.43243 c -1.598948,-0.20612 -1.696615,-0.82631 -0.397872,-2.52651 L 75.286432,147.36 66.683216,147.10465 C 61.951446,146.9642 51.888,146.81092 44.32,146.76403 27.745087,146.66132 27.376648,146.59402 24.066703,143.06443 L 22.693406,141.6 l 0.140551,-5.98226 c 0.136067,-5.79141 0.121178,-5.97262 -0.466703,-5.68 -0.33399,0.16624 -0.872139,0.43304 -1.195887,0.59289 -0.841744,0.41561 -1.325879,-0.009 -1.544135,-1.35381 -0.230275,-1.41902 0.154233,-1.95561 2.034782,-2.83957 0.757893,-0.35625 1.400224,-0.81187 1.427405,-1.01249 0.09619,-0.70997 0.12675,-3.72476 0.03776,-3.72476 -0.04967,0 -0.836558,0.36 -1.748634,0.8 -0.912076,0.44 -1.77537,0.8 -1.918431,0.8 -0.143061,0 -0.548111,0.288 -0.900111,0.64 -1.300402,1.3004 -3.351736,0.24701 -2.54057,-1.30461 0.246616,-0.47174 3.673929,-2.29327 5.9501,-3.16234 1.15376,-0.44052 1.461507,-1.20958 1.053418,-2.63251 -0.156423,-0.54541 -0.208079,-1.11516 -0.114791,-1.2661 0.321016,-0.51941 -0.199902,-0.27139 -2.031776,0.96738 -2.491309,1.6847 -3.07691,1.83282 -3.662354,0.92636 -1.042985,-1.61488 0.0784,-3.14611 3.448657,-4.70906 l 1.942685,-0.90092 0.06575,-6.9991 c 0.03616,-3.84951 0.08535,-7.5751 0.109306,-8.2791 0.05384,-1.582301 -0.272103,-4.537898 -0.762846,-6.917379 l -0.370691,-1.797383 -1.71257,0.757383 c -2.179014,0.963661 -2.536344,0.951011 -2.799915,-0.09914 -0.309518,-1.23322 0.673873,-2.3821 2.656516,-3.103568 1.545878,-0.562532 2.057828,-1.18952 1.335689,-1.635828 -0.381657,-0.235875 -1.561395,0.348832 -2.339079,1.159309 -1.277524,1.331395 -2.798547,0.434787 -2.858823,-1.685206 -0.03446,-1.212131 0.73757,-1.981715 2.791289,-2.782429 1.424028,-0.55521 1.595483,-0.72456 1.558932,-1.539789 -0.02258,-0.503785 -0.05859,-1.311971 -0.08,-1.795971 -0.02634,-0.595405 -0.212823,-0.88 -0.576622,-0.88 -0.719737,0 -4.451463,2.452707 -5.221864,3.432115 -0.856969,1.089459 -1.693878,0.829808 -2.05758,-0.638368 -0.266245,-1.074761 -0.207849,-1.292649 0.561715,-2.095901 0.789222,-0.823772 3.681753,-2.446627 5.788326,-3.247545 0.619238,-0.235434 0.819931,-0.492167 0.696163,-0.890551 C 18.872551,71.057174 17.797637,64.68593 17.108109,59.2 16.67674,55.768 16.26851,52.528 16.200932,52 15.851514,49.269923 15.660617,49.035923 14.449398,49.852986 11.781499,51.652694 10.291267,52.213718 9.9369965,51.55176 9.0236659,49.845184 10.033781,48.252531 12.8,47.037654 c 1.84638,-0.810902 2.091263,-1.023808 2.180275,-1.89558 0.115693,-1.133082 -0.1859,-1.224397 -1.258169,-0.380951 -2.64765,2.08264 -4.213275,2.260061 -3.8649633,0.437987 C 10.04204,44.231885 13.188931,40.96 13.93431,40.96 14.264282,40.96 14.4,40.586963 14.4,39.68 c 0,-1.395376 -0.06525,-1.477738 -0.697143,-0.88 -0.841165,0.795696 -2.997207,2.114554 -3.622857,2.216112 -0.551569,0.08953 -0.6346883,-0.06494 -0.601559,-1.118 0.046189,-1.468163 1.331533,-2.950064 3.49667,-4.031386 1.251077,-0.624819 1.608365,-1.121894 1.460878,-2.032444 -0.02189,-0.135143 0.177858,-0.766647 0.443886,-1.403341 0.266027,-0.636692 0.463307,-1.53412 0.438399,-1.994282 C 15.261518,29.388124 15.868632,27.84 16.336581,27.84 c 0.193832,0 1.601397,-0.536927 3.127921,-1.19317 1.526524,-0.656244 2.919498,-1.197522 3.095498,-1.202839 0.176,-0.0053 1.868392,-0.512391 3.760871,-1.12683 L 29.761741,23.2 29.577747,21.121746 c -0.218265,-2.465346 -0.612614,-4.648902 -1.044328,-5.782567 -0.171919,-0.451452 -0.415657,-1.675452 -0.541642,-2.72 -0.125985,-1.044549 -0.416553,-2.358151 -0.645708,-2.9191156 -1.099972,-2.6927005 0.613315,-3.345136 3.339626,-1.27176 1.447444,1.1007904 1.987771,1.35695 2.234689,1.05943 C 33.3856,8.927184 35.2,4.8200243 35.2,4.3274925 c 0,-0.5704653 1.309005,-0.8617847 1.851027,-0.4119466 0.713152,0.5918643 2.879632,5.1343347 3.103498,6.5071181 0.266262,1.632784 2.406169,7.817336 2.704864,7.817336 0.126371,0 0.170534,0.403591 0.09813,0.89687 -0.131632,0.89687 -0.131632,0.89687 2.375424,0.811369 2.869251,-0.09785 7.599357,-0.598803 11.787053,-1.248329 1.584,-0.245684 4.284,-0.467003 6,-0.49182 1.716,-0.02482 3.123203,-0.13579 3.127117,-0.246606 0.02061,-0.583837 1.243568,-1.678549 2.035632,-1.822178 1.107875,-0.200896 4.715536,-1.415804 5.157251,-1.736745 1.069389,-0.776993 2.603098,-0.569915 3.979277,0.537272 0.0766,0.06163 0.220601,0.717512 0.32,1.457517 0.210093,1.564115 -0.232387,1.423794 7.766953,2.463085 5.160532,0.670466 6.440794,1.094093 6.596026,2.182562 0.05624,0.394352 0.304922,0.717003 0.552624,0.717003 0.880202,0 1.562886,1.592133 1.484624,3.462389 -0.04836,1.155676 0.06739,1.860615 0.333197,2.029315 0.268272,0.17026 0.282521,0.260168 0.04175,0.263396 -0.36943,0.005 -0.367648,0.800189 0.01363,6.0849 0.09524,1.32 0.255412,3.984 0.355952,5.92 0.100538,1.936 0.324247,4.89 0.49713,6.564442 0.335952,3.253852 0.465379,15.654764 0.17647,16.908278 -0.09542,0.413994 -0.261459,2.7848 -0.368982,5.268454 -0.10752,2.483655 -0.247645,4.600116 -0.311382,4.703248 -0.06374,0.10313 -0.206509,2.261143 -0.317268,4.795578 -0.110758,2.534435 -0.256096,4.696605 -0.322976,4.804816 -0.06688,0.108211 -0.205139,1.987395 -0.307244,4.175965 -0.102106,2.188569 -0.268586,5.186233 -0.369959,6.661472 -0.101373,1.475238 -0.236627,4.571238 -0.300566,6.879997 -0.06394,2.30876 -0.20545,5.85375 -0.314467,7.87775 -0.211076,3.91878 0.04922,5.60481 2.247785,14.56 0.475306,1.936 1.210237,4.94027 1.633184,6.67615 0.594135,2.43849 0.981226,3.37323 1.702355,4.11082 0.513348,0.52507 1.00088,1.21286 1.083402,1.52843 0.34727,1.32796 -0.02714,1.39584 -7.263667,1.31704 -4.649917,-0.0506 -6.907853,0.0344 -6.907853,0.26007 0,0.52232 5.076563,1.0449 10.943917,1.12656 1.80263,0.0251 2.502281,0.54512 1.941507,1.44306 -0.342205,0.54795 -0.256941,0.6267 0.888013,0.82014 0.913682,0.15437 1.266562,0.37064 1.266562,0.77626 0,0.61923 -0.95509,1.62147 -1.545196,1.62147 -0.206141,0 -0.374803,0.276 -0.374803,0.61333 0,0.33734 -0.17545,0.67182 -0.389885,0.7433 -0.253709,0.0846 -0.145993,0.33879 0.308403,0.72785 0.499287,0.4275 0.605162,0.7101 0.371514,0.99163 -0.225734,0.27199 -0.197411,0.60564 0.0916,1.07902 1.026128,1.68077 -3.030003,2.75389 -6.141629,1.62486 -1.453693,-0.52746 -6.048141,-1.06086 -9.428464,-1.09462 -3.153213,-0.0315 -3.363955,0.008 -4.007734,0.75025 -0.642109,0.74035 -0.647706,0.79762 -0.101658,1.0405 0.458333,0.20385 0.426237,0.22806 -0.155174,0.117 -0.573044,-0.10946 -0.914071,0.13355 -1.562525,1.11343 -0.869891,1.3145 -1.384445,1.59494 -1.384445,0.75456 0,-0.27438 -0.146349,-0.40843 -0.325219,-0.29788 -0.178871,0.11054 -0.248522,0.32509 -0.154781,0.47677 0.238003,0.38509 -0.172186,0.52191 -1.176582,0.39243 z m -1.757245,-6.54147 c 2.264419,-0.0481 1.46247,-0.12103 -2.637341,-0.24 -3.240141,-0.094 -6.624141,-0.099 -7.52,-0.011 -1.185126,0.11642 -0.58279,0.20709 2.211168,0.33287 2.112,0.0951 4.031776,0.13108 4.266173,0.08 0.234393,-0.0511 1.890393,-0.12394 3.68,-0.16191 z M 94.56,143.98524 c -5.733027,-0.73811 -11.254202,-1.05531 -11.498154,-0.66059 -0.329363,0.53292 3.294813,0.87115 9.578154,0.89389 3.20792,0.0116 3.523958,-0.0268 1.92,-0.2333 z m -65.12,-0.76635 c 0,-0.63552 -0.396801,-0.82257 -1.263904,-0.59582 -0.73497,0.1922 -0.73497,0.1922 0.02447,0.61322 0.988121,0.54781 1.239437,0.54428 1.239437,-0.0174 z m 48.553334,-0.0522 c -0.106336,-0.10634 -0.382336,-0.1177 -0.613334,-0.0252 -0.255274,0.10215 -0.17945,0.17798 0.193334,0.19333 0.337332,0.0139 0.526333,-0.0617 0.42,-0.16807 z M 73.28,142.71894 c 0,-0.10248 -1.764,-0.19495 -3.92,-0.20549 -3.231779,-0.0158 -3.49864,0.0147 -1.52,0.1737 3.131664,0.25164 5.44,0.26513 5.44,0.0318 z m 1.68609,0.11116 c -0.21665,-0.0877 -0.64865,-0.093 -0.96,-0.0119 -0.311351,0.0811 -0.13409,0.15285 0.39391,0.15937 0.528,0.007 0.782739,-0.0599 0.56609,-0.14752 z M 55.36,142.40822 c 0,-1.43509 10.28448,-2.12899 20.88,-1.4088 1.775648,0.12069 3.12,0.089 3.12,-0.0737 0,-0.15715 -0.9,-0.29976 -2,-0.3169 -1.1,-0.0171 -4.88,-0.0792 -8.4,-0.1379 -5.866413,-0.0978 -16.153805,0.39384 -18.08,0.86412 -0.44,0.10743 -1.088,0.21417 -1.44,0.2372 -0.352,0.023 -1.72,0.1827 -3.04,0.35481 L 44,142.24 l 3.36,0.17736 c 5.969814,0.31512 8,0.3128 8,-0.009 z m -18.88,-0.75674 c 0.44,-0.0687 1.736,-0.28465 2.88,-0.47995 10.342387,-1.76559 19.992477,-2.47779 31.92,-2.35579 8.279978,0.0847 9.36,0.0385 9.36,-0.4 0,-0.27266 -0.252,-0.50774 -0.56,-0.52241 -0.308,-0.0146 -0.92,-0.0799 -1.36,-0.14497 -2.067597,-0.30575 -7.455536,-0.37616 -9.76,-0.12755 -2.224355,0.23996 -11.771181,1.03144 -17.6,1.45912 -1.056,0.0775 -3.072,0.28572 -4.48,0.46275 -1.408,0.17703 -3.784,0.45975 -5.28,0.62826 -2.316157,0.2609 -5.267776,0.67749 -7.84,1.10654 -0.352,0.0587 -1,0.26472 -1.44,0.45778 -0.780273,0.34237 1.757283,0.29127 4.16,-0.0838 z m 60.229642,0.0502 c -0.236778,-0.23678 -2.206557,-0.4594 -5.264,-0.59495 -4.444026,-0.197 -5.495405,-0.19193 -6.965642,0.0336 -0.739082,0.11338 7.535373,0.8335 10.224,0.88979 1.834474,0.0384 2.296787,-0.0373 2.005642,-0.32845 z M 34.88,139.26341 c 5.557533,-0.85742 11.347882,-1.51758 17.72649,-2.02098 2.797571,-0.22079 4.813571,-0.5 4.48,-0.62046 -0.333568,-0.12047 -0.89449,-0.17922 -1.24649,-0.13058 -2.372496,0.32789 -6.357104,0.58218 -9.92,0.63308 -2.288,0.0327 -4.592,0.15549 -5.12,0.27288 -0.528,0.1174 -1.32,0.28098 -1.76,0.36353 -0.44,0.0825 -1.558883,0.30692 -2.48641,0.49862 -0.927526,0.19169 -2.099948,0.25771 -2.605382,0.1467 -0.920669,-0.20222 -3.463567,0.41957 -5.308208,1.29795 -0.96,0.45713 -0.96,0.45713 0.48,0.34144 0.792,-0.0636 3.384,-0.41561 5.76,-0.78218 z m 51.28609,-0.27331 c -0.21665,-0.0877 -0.64865,-0.093 -0.96,-0.0119 -0.311351,0.0811 -0.13409,0.15285 0.39391,0.15937 0.528,0.007 0.782739,-0.0599 0.56609,-0.14752 z m 1.91391,-0.002 c -0.22,-0.0888 -0.58,-0.0888 -0.8,0 -0.22,0.0888 -0.04,0.1614 0.4,0.1614 0.44,0 0.62,-0.0726 0.4,-0.1614 z m -61.450857,-1.52496 c 2.162884,-0.94038 4.653453,-1.53437 7.603862,-1.81351 1.672617,-0.15824 3.834445,-0.42563 4.804057,-0.59418 0.969616,-0.16856 4.858938,-0.40567 8.642938,-0.52692 3.784,-0.12124 7.888,-0.26271 9.12,-0.31438 8.453206,-0.35452 17.188714,-0.58112 20.32,-0.52712 4.639946,0.08 4.515469,0.16494 4.123766,-2.8131 -0.173177,-1.31665 -0.3771,-4.90088 -0.453161,-7.96496 -0.07606,-3.06408 -0.3472,-6.88008 -0.602535,-8.48 -0.653488,-4.09479 -0.85167,-5.55694 -1.001507,-7.38894 -0.07197,-0.88 -0.213555,-2.464 -0.314621,-3.52 -0.227414,-2.37608 -0.21143,-1.70669 -0.171923,-7.200001 0.03281,-4.5616 -0.393341,-11.974912 -0.803712,-13.981511 -0.196499,-0.960819 -0.316073,-1.036867 -2.012608,-1.28 C 73.606954,80.732317 63.532851,80.859664 59.52,81.265456 c -1.672,0.169078 -4.192,0.401558 -5.6,0.516624 -2.420691,0.197827 -3.42104,0.35568 -10.125504,1.597789 -2.538419,0.470281 -2.847165,0.470125 -3.76,-0.0019 C 38.184346,82.4212 39.223885,81.448688 42.4,81.16497 c 1.232,-0.110052 3.32,-0.426717 4.64,-0.703696 1.32,-0.276983 4.2,-0.6301 6.4,-0.784704 2.2,-0.154608 6.304,-0.45074 9.12,-0.658071 2.820954,-0.207696 7.45497,-0.297312 10.32,-0.199577 l 5.2,0.177388 v -1.943955 -1.943952 l -8.532461,0.219392 c -4.692854,0.120666 -8.623718,0.275792 -8.735254,0.344723 -0.212295,0.131207 -2.16761,0.323136 -6.732285,0.660823 -1.496,0.110672 -3.152,0.323379 -3.68,0.472688 -0.528,0.149305 -1.789018,0.360189 -2.802259,0.468627 -1.013242,0.108435 -2.957242,0.426899 -4.32,0.707693 -3.380096,0.696464 -4.356371,0.705024 -4.489043,0.03935 -0.31425,-1.576707 7.694534,-3.222867 19.882921,-4.086819 C 61.16223,73.758339 66.476,73.515981 70.48,73.396307 l 7.28,-0.21759 v -1.149421 c 0,-0.632182 -0.227475,-2.15737 -0.505498,-3.389302 -2.004316,-8.881226 -2.225344,-11.211015 -2.094729,-22.079882 0.02115,-1.76 -0.06915,-4.352 -0.200659,-5.76 -0.131514,-1.408 -0.233146,-6.664 -0.225853,-11.68 l 0.01325,-9.12 -7.373261,0.09813 c -5.91487,0.07861 -8.322653,0.251218 -12.173248,0.87258 -3.667238,0.591775 -10.898394,1.37463 -13.24647,1.434082 -1.611808,0.248234 -2.444385,0.402123 -3.393532,0.647867 -3.712493,0.975912 -4.291498,1.149285 -5.005275,1.488983 -3.024487,0.808665 -1.259347,0.224292 -3.995574,1.013784 C 29.229618,25.736961 27.952,26.191566 26.72,26.56577 c -2.565959,0.779378 -2.664572,0.81794 -6,2.346299 -2.122827,0.972721 -2.48,1.250874 -2.48,1.931326 0,0.437218 -0.148029,1.184288 -0.328953,1.660154 -0.406277,1.068589 -0.294345,1.195923 0.714192,0.81248 1.185336,-0.450666 3.632021,-0.642963 4.134132,-0.324925 0.242346,0.153504 0.300588,0.281302 0.129427,0.283997 -0.171161,0.0026 0.0095,0.229494 0.401363,0.504 0.594943,0.416713 0.685742,0.712582 0.550071,1.792387 -0.253828,2.020208 -0.699996,2.348013 -1.818321,1.335942 C 20.987498,35.971299 17.6,36.163885 17.6,37.158822 17.6,37.313469 17.384,37.44 17.12,37.44 c -0.33795,0 -0.48,0.341581 -0.48,1.154237 0,0.975609 0.08666,1.117808 0.56,0.918848 0.308,-0.129463 0.884,-0.305655 1.28,-0.391539 0.396,-0.08589 0.71999,-0.247367 0.719979,-0.358852 -1.2e-5,-0.111481 0.793162,-0.178544 1.762609,-0.14903 1.001839,0.0305 1.684294,-0.07308 1.581136,-0.24 -0.222868,-0.360608 0.255265,-0.388339 0.672276,-0.03899 0.1672,0.140071 0.88,0.446672 1.584,0.681338 2.210069,0.736678 2.954804,1.982704 1.806278,3.022105 -0.696931,0.630714 -1.515992,0.414656 -1.744786,-0.460252 -0.115309,-0.440941 -0.467956,-0.631684 -1.231534,-0.666122 -2.057497,-0.09279 -2.875724,0.100765 -4.207785,0.995386 -0.738195,0.495776 -1.630173,0.957766 -1.982173,1.026643 -0.520492,0.101849 -0.619523,0.332598 -0.53034,1.235731 0.137489,1.39231 0.157196,1.409222 1.062933,0.912259 1.26605,-0.694662 6.576195,-0.563027 8.09647,0.200704 1.855907,0.932343 2.468316,2.158381 1.519604,3.04224 C 26.868654,48.9955 26.868654,48.9955 25.834327,48.257746 24.92482,47.60903 24.424867,47.52 21.691428,47.52 c -4.182715,0 -4.330721,0.144739 -3.829809,3.745283 0.20313,1.460093 0.586513,4.310717 0.851964,6.334717 0.26545,2.024 0.549806,4.184 0.631903,4.8 0.127493,0.956624 0.734353,4.073155 1.762765,9.052685 0.313341,1.517187 0.441738,1.642227 1.244922,1.212377 0.428208,-0.229171 0.715246,-0.237964 0.846292,-0.02592 0.109068,0.176468 0.953615,0.320858 1.876771,0.320858 1.630828,0 4.683764,1.4156 4.683764,2.171792 0,1.196746 -0.891064,1.49608 -2.323686,0.780592 -1.465126,-0.731718 -4.147819,-0.961414 -4.99075,-0.427315 -0.306876,0.194441 -0.38212,0.686288 -0.256261,1.675097 0.098,0.769911 0.185492,1.576269 0.194436,1.791914 0.01152,0.277744 0.234,0.309296 0.762935,0.108195 1.188151,-0.451734 6.613326,-0.79535 6.613326,-0.418873 0,0.29872 1.149863,0.8248 1.660499,0.759705 0.121274,-0.01546 0.311193,0.257645 0.422042,0.606899 0.273123,0.860532 -0.83623,2.289332 -1.467353,1.889888 -0.90867,-0.575107 -6.281863,0.120781 -7.077726,0.916644 -0.792354,0.792355 0.02698,1.623692 1.263704,1.282214 3.249652,-0.89727 8.148885,1.43401 7.068958,3.363738 -0.413815,0.739446 -1.049487,0.676358 -1.992676,-0.197757 -0.846438,-0.784455 -1.943746,-0.879799 -4.631863,-0.402461 -1.394416,0.247613 -1.394416,0.247613 -1.177245,2.565142 0.119443,1.274644 0.32656,2.80737 0.460259,3.406061 0.133699,0.598688 0.187937,4.932631 0.120529,9.630985 l -0.12256,8.54245 1.056716,-0.31581 c 0.581194,-0.1737 1.488716,-0.37555 2.016716,-0.44857 0.995655,-0.31735 2.794726,-0.29278 3.221612,-0.1955 -0.12066,0.19523 -0.0743,0.35497 0.103016,0.35497 0.455193,0 1.955372,1.43982 1.955372,1.87669 0,0.19982 0.140912,0.36331 0.313139,0.36331 0.195002,0 0.182669,0.28635 -0.03268,0.759 -0.42793,0.9392 -1.210593,0.91559 -2.000489,-0.0604 -0.720771,-0.89055 -2.280763,-0.77869 -4.78654,0.34321 -1.4355,0.64271 -1.533172,0.75944 -1.36,1.6253 0.102614,0.51306 0.186571,1.36364 0.186571,1.89017 0,0.84699 0.08298,0.93105 0.72,0.72936 2.098723,-0.66448 3.956027,-0.855 4.869157,-0.49948 0.598741,0.23311 0.811265,0.45477 0.575656,0.60038 -0.233715,0.14445 0.339052,0.70645 1.530403,1.50163 2.608259,1.74092 2.72681,3.98657 0.125584,2.37892 -1.180428,-0.75698 -0.418093,-0.89963 -2.526971,-1.57665 -0.784818,-0.65134 -4.973833,0.17186 -4.973833,0.97743 -0.03498,1.28118 0.0054,1.37672 0,2.23455 0,1.3682 -0.03958,1.45972 1.231681,1.14262 2.108871,-0.52604 4.650539,-1.50815 6.637055,-0.6947 1.008038,0.42119 1.62376,1.59952 1.028157,1.96762 -0.177661,0.1098 -1.424144,0.23438 -2.769958,0.27683 -4.422627,0.1395 -6.273314,1.60781 -6.414162,5.08887 -0.120887,4.60884 -0.05788,2.76378 -0.120887,4.60884 -0.08021,2.70251 -0.01245,2.299 1.757257,1.52957 z M 46.72,132.48 c 0,-0.57705 -0.213334,-0.64 -2.168797,-0.64 -2.503885,0 -3.757561,-0.60929 -3.475219,-1.68897 0.09408,-0.35975 -0.05779,-1.81891 -0.337475,-3.24257 -0.65609,-3.33955 -0.7432,-13.09854 -0.127015,-14.22915 0.228023,-0.41839 0.291716,-0.85039 0.141546,-0.96 -0.283027,-0.2066 -0.345216,-1.39152 -0.455536,-8.67931 -0.07275,-4.805962 0.262339,-5.808512 2.448109,-7.32441 1.214774,-0.842486 4.111869,-1.628604 4.67816,-1.269404 0.670387,0.425228 1.510077,0.357724 0.896227,-0.07205 -0.365744,-0.256068 -0.289571,-0.28272 0.32,-0.111972 0.44,0.123252 0.889504,0.363258 0.998899,0.533344 0.207063,0.321946 4.397824,0.168938 10.521101,-0.384131 1.848,-0.166915 4.825581,-0.30976 6.616845,-0.31743 1.791264,-0.0077 4.372864,-0.169171 5.736883,-0.35889 1.364022,-0.189718 2.94081,-0.258502 3.503971,-0.152851 l 1.023933,0.19209 -0.967008,2.952851 c -0.882493,2.694768 -0.991165,3.512223 -1.24337,9.352853 -0.152,3.52 -0.383212,7.984 -0.513808,9.92 -0.224016,3.32091 -0.162476,4.51203 0.524909,10.16 0.392285,3.22322 0.534221,3.14134 -5.759584,3.32255 -2.883523,0.083 -5.458771,0.22839 -5.722771,0.32304 -0.264,0.0947 -1.2,0.23676 -2.08,0.3158 -5.351098,0.4806 -12.803248,1.88981 -13.625197,2.57653 C 46.955712,133.28199 46.72,133.22704 46.72,132.48 Z m -1.92,-3.36 c 0,-0.53858 -0.05861,-0.56022 -0.773827,-0.28576 C 43.311165,129.10861 43.39704,129.6 44.16,129.6 c 0.355555,0 0.64,-0.21333 0.64,-0.48 z m 4.48,-0.61383 c 0,-0.2496 0.09383,-0.69836 0.208522,-0.99723 0.180035,-0.46916 0.114467,-0.49306 -0.48,-0.17491 -0.7821,0.41857 -0.936941,1.62597 -0.208522,1.62597 0.264,0 0.48,-0.20422 0.48,-0.45383 z m 8.48,-0.20899 c 4.820835,-0.37431 5.311443,-0.4829 5.066422,-1.12141 -0.188649,-0.49162 -0.943804,-0.50262 -7.146422,-0.10416 -0.44,0.0282 -1.34,-0.0581 -2,-0.19198 -1.075424,-0.2181 -1.2,-0.1753 -1.2,0.41233 0,1.12583 0.36383,1.71982 0.921293,1.5041 0.285289,-0.1104 2.246707,-0.33489 4.358707,-0.49888 z m -12.912182,-2.56277 c 0.957664,-0.51253 0.567792,-3.81949 -0.932912,-7.91321 l -0.622762,-1.6988 -0.176765,1.3788 c -0.320713,2.50161 0.221399,8.5788 0.765264,8.5788 0.176787,0 0.612016,-0.15552 0.967175,-0.34559 z m 4.84759,-0.81648 c 0.111142,-0.11115 0.05224,-0.48204 -0.130883,-0.82421 -0.667411,-1.24707 -0.456823,-4.44614 0.427469,-6.49372 1.258412,-2.91386 1.290713,-3.03768 1.419276,-5.44 0.211156,-3.94564 0.941453,-6.27489 2.615684,-8.34262 2.037856,-2.51682 3.466649,-3.24995 4.910697,-2.51972 3.351767,1.69491 4.516579,5.01214 3.420931,9.74234 -0.629814,2.71907 -0.549184,3.27661 0.515636,3.56548 0.81631,0.22146 1.056275,0.13282 1.660345,-0.6133 1.476151,-1.82328 1.562528,-2.20678 0.801875,-3.56017 -1.204361,-2.14287 -0.670329,-5.15201 0.91433,-5.15201 0.337962,0 0.850358,-0.36 1.138659,-0.8 1.379466,-2.10533 2.913344,0.24006 1.705891,2.60841 -1.18368,2.32172 -0.587532,4.27159 1.305975,4.27159 1.147005,0 1.669321,1.16296 0.805878,1.79433 -0.303193,0.2217 -0.456342,0.55667 -0.340329,0.74438 0.116009,0.18771 0.0047,0.34129 -0.247277,0.34129 -0.252016,0 -1.160515,0.31434 -2.018887,0.69854 l -1.560678,0.69854 1.275869,0.27222 c 0.701731,0.14973 1.716585,0.69938 2.255235,1.22146 C 71.882394,118.40172 72,118.34661 72,116.4613 c 0,-0.89029 0.139898,-2.58229 0.31088,-3.76 0.170986,-1.17772 0.358048,-4.8773 0.41569,-8.2213 0.08561,-4.966061 0.204534,-6.267632 0.64912,-7.104109 0.299369,-0.563261 0.54431,-1.112003 0.54431,-1.21943 0,-0.216931 -12.448438,0.05748 -14.72,0.324489 -3.215571,0.377975 -8.335245,0.841428 -11.2,1.013872 -1.961734,0.11809 -3.227133,0.346634 -3.56759,0.644352 -1.06898,0.934781 -1.533984,7.432276 -0.76296,10.660826 0.105078,0.44 0.322208,1.448 0.482508,2.24 0.160301,0.792 0.637351,2.52 1.060112,3.84 1.78816,5.58324 2.155671,6.99644 2.229764,8.57425 0.0765,1.62915 0.09916,1.66459 1.064832,1.66516 0.542668,3.2e-4 1.0776,-0.0903 1.188742,-0.20148 z m 6.137008,-1.4102 C 55.727814,123.33848 55.295107,123.2 54.870848,123.2 c -0.424259,0 -1.293814,-0.29343 -1.932346,-0.65207 -1.217164,-0.68365 -1.243712,-0.61038 -0.794764,2.19363 0.0089,0.0559 0.304262,0.0101 0.656262,-0.10156 0.372237,-0.11814 0.64,-0.0575 0.64,0.14494 0,0.19942 0.55145,0.0667 1.291302,-0.31071 0.710218,-0.36232 1.205719,-0.79725 1.101114,-0.9665 z M 68.64,124.78661 c 3.217299,-0.46062 3.359325,-0.52747 3.241072,-1.52549 -0.306112,-2.58345 -2.63,-5.05697 -5.030154,-5.35404 -1.902854,-0.23551 -2.147609,0.004 -2.989692,2.92143 -0.658237,2.28075 -0.81449,2.53829 -1.654064,2.72624 -2.391306,0.53532 -2.614586,0.88203 -0.607162,0.94283 1.056,0.032 2.352,0.16807 2.88,0.30242 1.361139,0.34635 1.653981,0.34541 4.16,-0.0134 z M 57.928618,120.24 c 1.003404,-2.21055 0.891523,-2.54339 -0.66976,-1.99254 -3.917408,1.38214 -4.087562,2.93296 -0.363213,3.31042 0.228605,0.0232 0.693443,-0.56988 1.032973,-1.31788 z m 2.731641,1.1151 c 0.187143,-0.1293 0.670074,-1.12808 1.073181,-2.21949 0.403104,-1.09142 0.870906,-2.03039 1.039558,-2.08661 0.168653,-0.0562 -0.355772,-0.42404 -1.165385,-0.81738 -1.389469,-0.67505 -1.453395,-0.68035 -1.139821,-0.0944 0.455869,0.8518 0.416282,2.20174 -0.116474,3.97195 -0.439436,1.46014 -0.375315,1.71874 0.308941,1.24596 z M 58.739373,114.88 c 0.709939,0 0.825558,-0.11362 0.680416,-0.66864 -0.09617,-0.36776 0.08116,-1.48376 0.394067,-2.48 0.487965,-1.55362 0.626202,-3.97608 0.380419,-6.66654 -0.01885,-0.20635 -0.552621,-0.54626 -1.186157,-0.75534 -1.125206,-0.37136 -1.184812,-0.34785 -2.574076,1.01518 -1.736986,1.70418 -2.423127,3.76989 -2.415479,7.27208 0.0098,4.48981 -0.130733,4.26602 2.011443,3.20317 1.019754,-0.50595 2.23897,-0.91991 2.709367,-0.91991 z m -15.703203,0.08 c -0.05896,-0.308 -0.118221,-0.836 -0.131687,-1.17333 -0.03689,-0.92423 -0.459536,-0.3061 -0.534886,0.78228 -0.04188,0.6049 0.08695,0.95105 0.353965,0.95105 0.230896,0 0.371568,-0.252 0.312608,-0.56 z m 4.144992,-26.141258 c -0.803776,-0.596864 -0.325392,-1.476713 1.003321,-1.845318 1.903165,-0.527968 8.695341,-1.497114 11.169386,-1.593712 2.372115,-0.09261 2.554304,-0.05416 2.56,0.540288 0.01,1.043078 -0.520672,1.324138 -2.878263,1.524422 C 57.806022,87.54888 56.152,87.779837 55.36,87.957658 c -1.931974,0.433769 -6.795571,1.32568 -7.218838,1.323827 -0.186362,-9.6e-4 -0.618362,-0.20905 -0.96,-0.462743 z M 48.72,71.008989 C 47.728765,70.639526 47.740998,69.44 48.736,69.44 c 0.4048,0 0.8728,-0.117718 1.04,-0.261597 0.758598,-0.652781 8.210349,-1.909587 12.144,-2.048195 2.431117,-0.08567 2.565072,-0.05453 2.660774,0.61848 0.117981,0.829699 0.06223,0.84577 -4.740774,1.36665 -3.46536,0.375811 -6.451978,0.948995 -8.96,1.71958 -0.902944,0.277431 -1.708528,0.342349 -2.16,0.174071 z M 31.857847,40.348877 c -0.679671,-1.099731 2.893689,-3.220611 7.822153,-4.64265 6.248806,-1.803005 10.29873,-2.467859 10.734803,-1.762275 0.480109,0.776835 -0.550918,1.895946 -1.748877,1.898291 -2.517043,0.0049 -8.417609,1.691754 -12.457699,3.56136 -2.634333,1.219072 -3.998032,1.515383 -4.35038,0.945274 z M 30.827884,33.2 c -0.48179,-0.771213 -0.356481,-1.151674 0.484179,-1.470062 3.156923,-1.195641 11.519892,-3.476223 14.927937,-4.070848 0.704,-0.122831 1.50872,-0.340983 1.788266,-0.484781 0.656137,-0.337517 1.891734,-0.01524 1.891734,0.493417 0,0.845794 -1.308563,1.394981 -6.053206,2.540453 -2.713261,0.655047 -6.161245,1.68618 -7.662183,2.291408 C 33.403469,33.629098 31.269604,33.907072 30.827884,33.2 Z M 94.16,133.14093 c 0.920467,-0.0161 1.200627,-0.15138 1.202688,-0.58093 0.0037,-0.7798 -1.837133,-8.75682 -3.025184,-13.10896 -0.250579,-0.91792 -0.526986,-2.06992 -0.614243,-2.56 -0.08725,-0.49007 -0.328659,-1.75504 -0.536458,-2.81104 -0.236992,-1.20438 -0.297904,-2.99343 -0.16343,-4.8 0.117907,-1.584 0.277427,-5.4 0.354493,-8.48 0.07706,-3.08 0.23791,-6.68 0.357433,-8 0.119527,-1.32 0.183792,-2.532557 0.142819,-2.694573 -0.04098,-0.162016 0.09456,-2.466016 0.301191,-5.12 0.436467,-5.606038 0.552614,-7.507878 0.646448,-10.585427 0.03757,-1.232 0.142352,-2.371814 0.232861,-2.532918 0.09051,-0.161108 0.206515,-1.709335 0.257785,-3.440509 0.05127,-1.731171 0.246749,-4.268887 0.434394,-5.639363 0.323446,-2.362304 0.264649,-7.764196 -0.169591,-15.58146 -0.107366,-1.932838 -0.243766,-3.592812 -0.30311,-3.688832 -0.05934,-0.09602 -0.199549,-1.538608 -0.311568,-3.20575 C 92.854512,38.644026 92.709891,36.848 92.645152,36.32 92.580413,35.792 92.425267,33.2 92.300381,30.56 91.89928,22.080946 91.734195,21.890636 83.83327,20.79907 81.127146,20.425201 78.79761,20.047965 78.656522,19.960769 78.515434,19.873572 78.377459,21.070728 78.349914,22.621115 78.322362,24.171501 78.240685,25.872 78.1684,26.4 c -0.212736,1.553954 -0.18584,20.846378 0.03369,24.16 0.490656,7.406259 1.417418,16.499597 1.842653,18.08 0.189421,0.704 0.436845,2.07113 0.549831,3.038067 0.190035,1.626311 0.274812,1.770205 1.131209,1.92 1.07617,0.18824 1.668637,0.953728 1.360221,1.757453 -0.162605,0.423741 -0.442621,0.517155 -1.135072,0.378666 -0.919219,-0.183844 -0.919219,-0.183844 -0.931037,1.864435 -0.01181,2.048275 -0.01181,2.048275 1.462711,2.144829 1.297718,0.08497 1.502131,0.20048 1.704739,0.96328 0.312992,1.178393 -0.325648,1.668598 -1.810867,1.389971 l -1.150541,-0.215843 0.193337,3.139571 c 0.330112,5.36064 0.476503,9.956672 0.50769,15.939571 0.01651,3.168 0.230426,7.128 0.475354,8.8 0.594745,4.06004 0.84142,6.1764 0.98839,8.48 0.330634,5.18238 0.7512,9.47035 1.039075,10.5941 0.175543,0.68524 0.416816,2.00662 0.536163,2.93639 l 0.216999,1.69049 3.888531,-0.14955 C 91.210163,133.22917 93.5,133.15245 94.16,133.14093 Z"
     id="path593"
     inkscape:connector-curvature="0"
     sodipodi:nodetypes="ccccsscscscsssssscsccscccscsccsscsccccsccsscsssccsssssccssssssscscssssscsscsccsccscccscssccccscccsssssscccccscccsssccccscccccscccccccccccccccccccccccccsscsscscccscsccccccssscccsccccscccccccccccsccccccccccscscccssssccccsccscccsccssscsccsscccscsccscsscsssccccsccccssssccccssssscccscscsscscsscscsssssccssccccsscsssccccccsccccsssccscsccccccccsccsccccssccscscssccsccccssscccccsscsssccssccccscccccsscccssscscccscssccsccccscccssccscscsccscccscccccccccccsccsccccccccscccccccssccsscscccscccscccscccsscscssscsssscccccscccsccsssccssscccccsccccccccscssccccc"
     inkscape:export-xdpi="332.5928"
     inkscape:export-ydpi="332.5928" />
</svg>
