<?xml version="1.0" encoding="UTF-8" standalone="no"?>
<!-- Created with Inkscape (http://www.inkscape.org/) -->

<svg
   xmlns:dc="http://purl.org/dc/elements/1.1/"
   xmlns:cc="http://creativecommons.org/ns#"
   xmlns:rdf="http://www.w3.org/1999/02/22-rdf-syntax-ns#"
   xmlns:svg="http://www.w3.org/2000/svg"
   xmlns="http://www.w3.org/2000/svg"
   xmlns:sodipodi="http://sodipodi.sourceforge.net/DTD/sodipodi-0.dtd"
   xmlns:inkscape="http://www.inkscape.org/namespaces/inkscape"
   version="1.1"
   id="svg211"
   width="127.36"
   height="156.8"
   viewBox="0 0 127.36 156.8"
   sodipodi:docname="report.svg"
   inkscape:version="0.92.4 5da689c313, 2019-01-14">
  <metadata
     id="metadata217">
    <rdf:RDF>
      <cc:Work
         rdf:about="">
        <dc:format>image/svg+xml</dc:format>
        <dc:type
           rdf:resource="http://purl.org/dc/dcmitype/StillImage" />
        <dc:title></dc:title>
      </cc:Work>
    </rdf:RDF>
  </metadata>
  <defs
     id="defs215" />
  <sodipodi:namedview
     pagecolor="#ffffff"
     bordercolor="#666666"
     borderopacity="1"
     objecttolerance="10"
     gridtolerance="10"
     guidetolerance="10"
     inkscape:pageopacity="0"
     inkscape:pageshadow="2"
     inkscape:window-width="3200"
     inkscape:window-height="1745"
     id="namedview213"
     showgrid="false"
     inkscape:zoom="8.1441325"
     inkscape:cx="60.207037"
     inkscape:cy="91.942803"
     inkscape:window-x="0"
     inkscape:window-y="55"
     inkscape:window-maximized="1"
     inkscape:current-layer="svg211" />
  <path
     style="fill:#000000;stroke-width:0.31999999"
     d="m 46.08,148.76617 c -5.923405,-0.75486 -19.324627,-0.98457 -24.360997,-0.41757 -3.146279,0.35421 -4.561987,0.10444 -5.199396,-0.91732 -0.525561,-0.84247 -0.678619,-4.09524 -0.206431,-4.38706 0.357663,-0.22105 0.481238,-5.55979 0.207493,-8.96422 -0.09199,-1.144 -0.254566,-6.904 -0.361285,-12.8 -0.106719,-5.896 -0.325201,-11.872 -0.485515,-13.28 -0.23293,-2.04578 -0.749614,-10.759251 -0.721052,-12.16 0.0036,-0.176 0.09833,-2.84 0.210529,-5.92 0.405476,-11.130515 0.575271,-17.494189 0.542175,-20.32 -0.08294,-7.081907 -0.330375,-12.580755 -0.619158,-13.76 -0.172402,-0.704 -0.403124,-3.44 -0.512715,-6.08 -0.109591,-2.64 -0.355696,-5.952 -0.5469,-7.36 -0.191203,-1.408 -0.329197,-3.352 -0.306653,-4.32 0.02254,-0.968 -0.100819,-3.416 -0.274139,-5.44 -0.643195,-7.511121 -0.70659,-11.391314 -0.193073,-11.817495 0.504351,-0.418574 1.989296,-0.481327 9.787117,-0.413598 6.718281,0.05835 10.299578,-0.242814 18.673834,-1.570363 l 2.193833,-0.347783 -0.192803,-2.12538 C 43.408269,12.985636 43.728544,12.823942 52,12.182536 c 2.112,-0.163774 3.867152,-0.307843 3.900339,-0.320153 0.03319,-0.01231 0.05059,-1.653105 0.03868,-3.6462096 -0.03298,-5.5167498 -0.438167,-5.2270355 7.62182,-5.4496823 3.812317,-0.1053104 6.079472,-0.3193699 7.447268,-0.7031533 3.515401,-0.986372 5.412204,0.3799054 5.530966,3.9839848 C 76.571563,7.033295 76.629373,8.128 76.66754,8.48 c 0.03817,0.352 0.08358,1.3833485 0.100928,2.291885 l 0.03152,1.651886 5.087082,0.108114 c 5.862105,0.124586 6.553926,0.392723 6.374893,2.470781 -0.09559,1.109482 -0.09559,1.109482 1.661219,1.252483 2.050953,0.166944 1.151177,0.172043 17.116808,-0.09701 13.26773,-0.223586 14.58477,-0.120284 13.93543,1.093019 -0.24085,0.450034 -0.22267,0.660941 0.0671,0.778663 0.31631,0.128492 0.3161,0.219082 -9.6e-4,0.44374 -0.45147,0.31986 -0.4472,0.255104 -0.4181,6.326436 0.0118,2.464 -0.0582,5.2 -0.15562,6.08 -0.0974,0.88 -0.22676,9.952 -0.28747,20.16 -0.10765,18.10231 -0.38275,30.430822 -0.69013,30.928179 -0.13551,0.219251 -0.14015,9.12241 -0.0162,30.991824 0.0214,3.784 1e-5,7.456 -0.0477,8.16 -0.16753,2.47472 0.24484,14.2511 0.78332,22.36978 0.15685,2.36487 0.11613,3.11162 -0.16035,2.94074 -0.22698,-0.14028 -0.49607,0.10103 -0.69443,0.62275 -0.20934,0.55061 -0.48838,0.78865 -0.78915,0.67324 -0.25592,-0.0982 -0.53992,-0.0578 -0.63111,0.0897 -0.30089,0.48685 -4.37999,0.76382 -12.97469,0.88096 -17.487201,0.23834 -57.186049,0.28486 -58.880004,0.069 z m 56.96,-2.02141 c 4.312,-0.11076 9.316,-0.36907 11.12,-0.57403 3.32282,-0.37751 3.40934,-0.42245 3.36942,-1.75003 -0.0363,-1.20577 -0.47491,-8.75978 -0.5633,-9.7007 -0.0579,-0.616 -0.0969,-4.72 -0.0866,-9.12 0.0102,-4.4 -0.0395,-10.808 -0.11044,-14.24 -0.21924,-10.60076 -0.0181,-28.47552 0.35842,-31.848538 0.2171,-1.945004 0.39533,-11.585292 0.45259,-24.48 0.052,-11.699302 0.17575,-21.586761 0.2751,-21.972128 0.28102,-1.089999 0.3504,-5.077289 0.0955,-5.489685 -0.12565,-0.203307 -0.12022,-0.544766 0.0121,-0.758799 0.41642,-0.67378 0.16963,-7.697507 -0.28128,-8.005419 -0.29316,-0.200182 -17.994078,-0.08159 -23.60147,0.158125 -0.264,0.01129 -1.74,-0.09193 -3.28,-0.229367 -2.8,-0.249886 -2.8,-0.249886 -2.795632,0.507962 0.01216,2.106901 0.172874,2.222124 2.834074,2.03176 7.370009,-0.527201 23.954478,-0.347653 24.568118,0.26598 0.52169,0.52169 0.37264,2.150132 -0.22613,2.470585 -0.54058,0.289309 -0.58653,0.676048 -0.48932,4.118944 0.059,2.089811 0.20923,3.964606 0.33383,4.166209 0.3766,0.609353 0.1294,34.521597 -0.25619,35.145497 -0.089,0.144 -0.24863,1.336656 -0.35474,2.650346 -0.10611,1.31369 -0.32736,3.108528 -0.49166,3.988528 -0.34656,1.856115 -0.46624,19.0192 -0.22314,32 0.16203,8.65171 0.18308,13.40204 0.1,22.56 -0.037,4.08072 0.22857,9.03075 0.64884,12.09257 0.2935,2.13829 -1.58884,3.56828 -2.79074,2.12008 -0.3551,-0.42787 -0.95028,-0.47788 -3.79918,-0.31925 -1.85797,0.10345 -6.69012,0.24196 -10.73812,0.30779 -4.048,0.0658 -8.193178,0.29278 -9.211507,0.50433 -2.463485,0.51176 -9.222493,0.22994 -16.189568,-0.67503 -1.730832,-0.22483 -4.282695,-0.2573 -7.2,-0.0916 -6.815283,0.38703 -7.672567,0.41769 -12.518925,0.44769 -2.464,0.0153 -5.56,-0.10338 -6.88,-0.26361 -2.426902,-0.29461 -11.29593,-0.22974 -17.056155,0.12476 -3.253859,0.20025 -5.794556,-0.28847 -6.610441,-1.27155 -0.209407,-0.25232 -0.411752,-2.33618 -0.491689,-5.06369 -0.07471,-2.5492 -0.356146,-6.48836 -0.62541,-8.75368 C 20.06704,125.53345 19.771713,121.664 19.68002,119.2 c -0.09169,-2.464 -0.233574,-6.28 -0.315293,-8.48 -0.0942,-2.5359 0.01244,-5.05415 0.291331,-6.88 0.643885,-4.215376 0.494861,-22.813517 -0.207693,-25.92 -0.278625,-1.232 -0.608487,-4.005389 -0.733025,-6.163085 -0.124538,-2.157693 -0.359741,-4.005472 -0.522673,-4.106169 -0.162932,-0.100698 -0.281148,0.296691 -0.262702,0.883084 0.01845,0.586394 -0.04921,4.81017 -0.15034,9.38617 -0.346218,15.665357 -0.238763,22.93373 0.449434,30.4 0.3567,3.86986 0.676904,11.37069 0.812801,19.04 0.07965,4.49534 0.433854,15.36419 0.519109,15.92922 0.134888,0.89399 -0.08901,1.40082 -0.542035,1.22698 -0.392095,-0.15047 -0.479086,-0.001 -0.4,0.68576 0.09623,0.83604 0.177604,0.87524 1.701066,0.8196 12.129418,-0.44299 14.938416,-0.46068 19.370618,-0.12198 7.609372,0.58149 8.303961,0.61781 15.824185,0.82735 3.869143,0.10781 7.061706,0.22235 7.094583,0.25454 0.143107,0.14011 33.323011,-0.0541 40.430614,-0.23671 z m -8.8,-6.39362 c 5.310598,-0.17567 9.48876,-0.40933 12.32,-0.68897 0.264,-0.0261 1.42777,-0.0687 2.58615,-0.0948 l 2.10616,-0.0474 -0.15592,-19.44 c -0.28867,-35.990774 -0.14537,-46.615626 0.68513,-50.8 0.51301,-2.584784 0.92268,-21.002464 0.47707,-21.448077 -0.081,-0.08098 -0.56219,0.391709 -1.06936,1.050423 -1.50533,1.95512 -4.24296,4.557654 -4.79424,4.557654 -0.28202,0 -0.42376,0.144 -0.31499,0.32 0.56429,0.913046 -0.99673,0.135843 -2.08885,-1.04 -1.26317,-1.36 -1.26317,-1.36 -1.29958,-0.4 -0.0794,2.093411 0.0804,3.244765 0.58625,4.222589 0.45309,0.875907 0.46758,1.13728 0.10104,1.822176 -0.6298,1.176784 -0.24946,6.094355 0.7648,9.888598 0.46068,1.723347 0.75846,3.261399 0.66175,3.417888 -0.0967,0.15649 -0.0402,0.368349 0.12554,0.470797 0.47228,0.291882 0.12757,1.999434 -0.53799,2.664992 -0.97231,0.972307 -1.52415,1.065344 -8.07296,1.361053 -3.432,0.154969 -7.392,0.421648 -8.8,0.592621 -3.309786,0.401904 -9.47929,0.769929 -13.055338,0.778784 -3.514726,0.0087 -3.800457,-0.21352 -3.787388,-2.9456 0.01101,-2.301892 -0.164096,-2.272167 -1.749901,0.297043 C 68.279286,75.940925 67.618954,76.8 67.459971,76.8 67.089933,76.8 65.6,75.318301 65.6,74.950307 c 0,-0.300429 1.956282,-2.926307 3.959546,-5.314819 1.239542,-1.47792 1.239542,-1.47792 1.044179,-5.076704 C 70.496275,62.579453 70.32487,58.008 70.222822,54.4 69.979539,45.798262 69.917597,45.183504 69.144752,43.700563 68.52399,42.509443 68.51807,42.408326 69.035638,41.836422 69.60751,41.204509 69.939222,41.199379 75.28,41.739859 c 1.237786,0.125264 1.84,0.07099 1.84,-0.165824 0,-0.238352 1.214202,-0.339033 3.76,-0.311782 4.603632,0.04928 12.246406,-0.155427 16.601946,-0.444669 4.173544,-0.277155 4.548714,0.04559 4.424084,3.805898 -0.078,2.353312 -0.0602,2.416518 0.68043,2.416518 0.57392,0 0.92866,0.333696 1.44576,1.36 1.3037,2.58751 1.77067,2.55671 4.47083,-0.294893 4.23129,-4.468621 4.16062,-4.298144 4.15521,-10.023062 -0.003,-2.838823 -0.0877,-5.295443 -0.18883,-5.459152 -0.10118,-0.163709 -0.25756,-2.062832 -0.34753,-4.220273 -0.20598,-4.939937 -0.0124,-4.574367 -2.40234,-4.536297 -1.12176,0.01787 -6.26006,0.05525 -11.418446,0.08308 -6.281882,0.03389 -9.312266,0.158384 -9.177143,0.377021 0.340429,0.550826 0.223523,3.846671 -0.152515,4.29977 -0.592061,0.713389 -3.812454,1.017094 -13.931456,1.313831 -2.64,0.07742 -6.672,0.264564 -8.96,0.415882 -2.288,0.151319 -7.736806,0.259142 -12.108461,0.239607 -7.947721,-0.03551 -7.948518,-0.03559 -8.56,-0.790967 C 45.075194,29.389051 44.8,28.633051 44.8,28.124549 c 0,-0.921897 -0.0057,-0.924519 -2,-0.914079 -1.1,0.0058 -3.008,0.146548 -4.24,0.312866 -8.798477,1.18778 -11.094525,1.363202 -14.176644,1.083121 -1.733761,-0.157551 -3.375682,-0.243288 -3.648712,-0.190525 -0.961557,0.185817 -1.088423,3.208007 -0.707923,16.864068 0.08827,3.168 0.228266,6.408 0.311102,7.2 0.08284,0.792 0.290858,4.608 0.46227,8.48 0.171412,3.872 0.389549,7.544 0.484749,8.16 0.0952,0.616 0.245366,2.128 0.333701,3.36 0.08834,1.232 0.391066,3.896 0.672736,5.92 0.313737,2.254429 0.499041,5.663405 0.478346,8.8 -0.01858,2.816 -0.04311,7.064 -0.05452,9.44 -0.01141,2.376 -0.167408,5.35466 -0.346676,6.61925 -0.34329,2.42163 -0.440515,8.55176 -0.161468,10.18075 0.09045,0.528 0.177641,2.86818 0.193765,5.20041 0.01613,2.33222 0.242111,6.00422 0.502193,8.16 0.260081,2.15577 0.555409,5.93559 0.656282,8.39959 0.227716,5.56236 0.130682,5.44298 4.120795,5.06954 3.138093,-0.2937 14.154835,-0.34171 23.52,-0.10251 5.105539,0.13041 15.182458,-0.18715 15.688851,-0.49441 0.188106,-0.11413 10.206192,0.75471 10.711149,0.92895 0.410566,0.14167 8.440266,0.0208 16.64,-0.25043 z m -62.272171,-1.50331 c -0.357576,-0.35758 -0.60258,-0.96057 -0.547507,-1.34751 0.09669,-0.67933 0.233973,-0.70194 4.579678,-0.75428 2.464,-0.0297 4.912,-0.13712 5.44,-0.23876 0.528,-0.10164 5.64,-0.19299 11.36,-0.203 5.72,-0.01 12.56,-0.14611 15.2,-0.30245 2.64,-0.15633 10.128,-0.44224 16.64,-0.63533 6.512,-0.1931 13.064,-0.46747 14.56,-0.6097 1.496,-0.14224 2.89452,-0.1954 3.10782,-0.11814 0.71204,0.2579 0.85549,1.43976 0.23023,1.89696 -0.3468,0.25359 -0.41624,0.42438 -0.17255,0.42438 0.22431,0 0.3482,0.18 0.27532,0.4 -0.21987,0.66369 -3.750068,0.9018 -4.647924,0.3135 -0.80536,-0.52769 -3.660349,-0.59325 -10.792896,-0.24785 -6.337942,0.30693 -15.787475,0.52471 -28.48,0.65638 -14.55433,0.15097 -18.304851,0.32064 -18.951526,0.85733 -0.895245,0.74299 -7.038208,0.67091 -7.800645,-0.0915 z m 0.152414,-6.08207 c -1.179249,-0.33405 -1.862606,-1.05321 -1.614683,-1.69928 0.213194,-0.55558 1.578494,-0.74218 7.09444,-0.96962 2.288,-0.0943 6.68,-0.31091 9.76,-0.48128 3.08,-0.17036 14.456,-0.39288 25.28,-0.49448 10.824,-0.1016 20.832,-0.25863 22.24,-0.34895 6.97652,-0.44753 6.54205,-0.47509 6.76906,0.42941 0.14586,0.58114 0.0434,0.93643 -0.35392,1.22694 -0.31002,0.22669 -0.45599,0.57596 -0.32756,0.78377 0.17177,0.27792 -0.21297,0.32103 -1.487954,0.16672 -2.447668,-0.29625 -35.034279,-0.29532 -41.810743,0.001 -3.117885,0.13642 -7.108883,0.28267 -8.868883,0.325 -1.76,0.0423 -4.856,0.29293 -6.88,0.55691 -5.044822,0.65794 -8.608534,0.84111 -9.799757,0.50367 z m -1.198964,-8.19115 c -0.382516,-0.38251 -0.201478,-2.26606 0.233861,-2.43312 1.223631,-0.46955 15.75558,-0.56627 16.99366,-0.11311 1.314806,0.48126 1.894528,1.17162 0.98384,1.17162 -0.315318,0 -0.48361,0.21679 -0.426669,0.54963 0.131197,0.76688 -1.490566,1.02193 -3.075574,0.48369 -1.47297,-0.5002 -6.965299,-0.3717 -7.628215,0.17848 -0.452828,0.37581 -6.723714,0.52 -7.080903,0.16281 z m 0.767037,-5.25999 c -1.981438,-0.32802 -2.194198,-0.46741 -2.31912,-1.5193 -0.0892,-0.75107 -0.0892,-0.75107 6.150804,-0.8692 3.432,-0.065 8.904,-0.27778 12.16,-0.47289 3.256,-0.19512 11.032,-0.40523 17.28,-0.46691 20.647354,-0.20384 35.62072,-0.47486 36.81866,-0.66642 1.29158,-0.20653 1.7423,0.14884 1.43135,1.12855 -0.26917,0.84807 -1.88142,1.42972 -3.637636,1.31233 -3.317923,-0.22177 -44.159113,0.11966 -46.452374,0.38834 -0.792,0.0928 -3.096,0.27821 -5.12,0.41205 -2.024,0.13384 -3.910253,0.36175 -4.19167,0.50648 -0.761133,0.39143 -10.09816,0.58169 -12.120014,0.24697 z m 0.486884,-7.82514 c -0.627004,-0.627 -0.983613,-2.00907 -0.613811,-2.37887 0.155391,-0.15539 2.441648,-0.29527 5.080569,-0.31084 2.638925,-0.0156 7.462042,-0.22985 10.718042,-0.47617 3.256,-0.24631 8.930336,-0.5332 12.609635,-0.63751 3.679303,-0.10432 6.775303,-0.24101 6.88,-0.30376 0.476279,-0.28543 11.503591,-0.57001 24.053837,-0.62076 13.736528,-0.0555 13.736528,-0.0555 13.736528,0.84149 0,0.52327 -0.21118,0.97806 -0.50683,1.09152 -0.35207,0.1351 -0.39424,0.26407 -0.13811,0.42237 0.72204,0.44624 -3.44262,0.50404 -14.23506,0.19755 -10.150749,-0.28827 -19.950774,-0.24454 -22.596998,0.10083 -1.340349,0.17493 -5.948349,0.40446 -10.24,0.51007 -4.291652,0.1056 -8.739002,0.3413 -9.883002,0.52377 -1.144,0.18247 -2.83121,0.3786 -3.74935,0.43583 -0.918144,0.0572 -1.850391,0.21595 -2.071661,0.35271 -0.221267,0.13675 -1.630061,0.29037 -3.130647,0.34139 -1.500588,0.051 -3.333718,0.16292 -4.073625,0.24869 -0.951315,0.11027 -1.490019,0.0112 -1.839517,-0.33831 z m 1.288675,-6.17213 c -0.685741,-0.27279 -1.114646,-1.2 -0.91256,-1.97277 0.17481,-0.66849 6.245786,-1.28135 17.208685,-1.73722 6.315718,-0.26262 11.008099,-0.49651 12.96,-0.64596 0.968,-0.0741 2.84,-0.21691 4.16,-0.3173 1.32,-0.10038 3.408,-0.31759 4.64,-0.48268 1.232,-0.165084 4.112,-0.463014 6.4,-0.662066 2.288,-0.199053 4.680621,-0.49217 5.316934,-0.651373 1.076192,-0.269255 5.908458,-0.656877 14.093434,-1.130512 4.119712,-0.238391 5.488582,0.152032 5.172462,1.475264 -0.10608,0.443997 -0.25579,0.878457 -0.33271,0.965467 -0.17606,0.19916 -3.268264,0.32178 -6.81012,0.27006 -4.646902,-0.0679 -8.698365,0.0757 -11.035792,0.39115 -1.234314,0.16656 -4.487731,0.50945 -7.229818,0.76197 -2.742083,0.25252 -5.334083,0.53464 -5.76,0.62693 -1.140518,0.24715 -4.136787,0.48006 -10.818121,0.84094 -3.275949,0.17695 -6.820269,0.39007 -7.876269,0.47359 -7.852058,0.62109 -10.580541,0.8883 -12.96,1.2692 -4.242864,0.67921 -5.551309,0.78978 -6.216125,0.52531 z M 31.062661,98.014176 C 30.580253,96.26704 29.69552,96.413024 44.32,95.826707 c 2.464,-0.09878 4.84,-0.237485 5.28,-0.308224 0.44,-0.07074 3.32,-0.213981 6.4,-0.31831 3.08,-0.104333 7.688,-0.393159 10.24,-0.641834 2.552,-0.248675 8.096,-0.749392 12.32,-1.112701 4.224,-0.363308 9.264,-0.814716 11.2,-1.003123 12.90249,-1.255651 14.88632,-1.277997 14.86982,-0.167504 -0.0257,1.727651 -0.48996,1.872698 -6.292345,1.965728 -5.009072,0.08031 -8.096867,0.247507 -11.617475,0.629066 -0.792,0.08584 -3.152048,0.307136 -5.24455,0.491779 -2.092503,0.184643 -3.944602,0.422269 -4.115776,0.528061 -0.171175,0.105792 -0.40313,0.04647 -0.51545,-0.131827 -0.132058,-0.209626 -0.769613,-0.226359 -1.804224,-0.04735 -0.88,0.152253 -3.112,0.351968 -4.96,0.443814 -1.848,0.09184 -4.08,0.302839 -4.96,0.468874 -0.88,0.166035 -3.544,0.389197 -5.92,0.495914 -2.376,0.106716 -5.688,0.329897 -7.36,0.495958 -3.381398,0.33583 -7.17377,0.63097 -10.08,0.784464 -1.056,0.05578 -2.928,0.255856 -4.16,0.444621 -1.232,0.188768 -3.133232,0.346067 -4.22496,0.349552 C 31.390083,99.2 31.390083,99.2 31.062661,98.014176 Z m 1.741454,-4.887517 c -0.317277,-0.513366 -0.286125,-2.572931 0.04388,-2.901347 0.1496,-0.148877 4.832323,-0.356694 10.406051,-0.461818 9.934151,-0.18736 10.138051,-0.178521 10.336935,0.448103 0.379065,1.194326 -0.655773,2.241894 -2.0104,2.035126 -1.447079,-0.22088 -1.547168,-0.217661 -6.300586,0.202477 -2.112,0.186672 -5.424,0.404986 -7.36,0.485139 -1.936,0.08015 -3.827747,0.239264 -4.203885,0.353575 -0.389609,0.118409 -0.782045,0.04902 -0.912,-0.161255 z m -1.389739,-7.299392 c -0.238183,-0.166041 -0.379108,-0.704195 -0.32,-1.22199 0.142731,-1.250333 0.876323,-1.305111 18.025624,-1.345914 13.52416,-0.03218 21.610499,-0.376966 38.88,-1.657766 2.2,-0.163165 7.168,-0.338272 11.04,-0.38913 7.04,-0.09247 7.04,-0.09247 7.04,0.647699 0,0.463562 -0.29896,0.897975 -0.8,1.162458 -2.18545,1.153626 -2.53161,1.229814 -4.38542,0.965197 C 98.307453,83.618528 86.877536,83.52727 85.056397,83.86137 83.580198,84.132189 81.096774,84.29031 72.8,84.641757 c -2.288,0.09692 -6.608,0.307094 -9.6,0.467059 -5.593987,0.299078 -6.325536,0.321754 -15.04,0.466189 -2.816,0.04667 -7.64,0.189286 -10.72,0.316918 -3.333488,0.138135 -5.772265,0.111965 -6.025624,-0.06466 z M 26.96,79.113306 C 25.773996,78.532371 25.690893,78.287363 26.48,77.698144 28.010415,76.555402 27.845814,70.345168 26.032119,60.8 c -0.284258,-1.496 -0.49958,-3.280058 -0.478494,-3.964573 0.02108,-0.684515 -0.196294,-2.05168 -0.483067,-3.038141 -0.414006,-1.424134 -0.481031,-2.590137 -0.3254,-5.660848 0.128735,-2.540041 0.08026,-3.983024 -0.141257,-4.204537 -0.482681,-0.482682 0.903382,-1.692384 1.936439,-1.690048 0.450813,9.6e-4 1.68366,0.149597 2.73966,0.330173 2.976278,0.508944 8.724554,0.431014 9.580586,-0.129879 0.457862,-0.300003 0.873734,-0.36407 1.165622,-0.179568 0.249584,0.157763 0.885792,0.222851 1.413792,0.14464 0.528,-0.07821 2.4,-0.226621 4.16,-0.329795 1.76,-0.103174 4.836214,-0.400976 6.836032,-0.661786 2.672589,-0.348547 3.74921,-0.380265 4.063162,-0.119708 1.659136,1.37696 3.623139,12.821068 4.473036,26.06407 0.112954,1.76 0.259959,3.857245 0.326685,4.660544 0.144407,1.738534 -0.27695,4.685491 -0.735494,5.144035 -0.550634,0.550634 -2.608365,0.85784 -7.283421,1.08737 -2.464,0.120976 -4.740445,0.357363 -5.058768,0.525305 -0.318323,0.167946 -1.038323,0.202996 -1.6,0.07789 -1.447782,-0.322468 -7.961939,-0.228519 -9.928477,0.14319 -2.731958,0.516384 -4.052771,0.653779 -4.05248,0.421546 2.95e-4,-0.235284 -2.891243,-0.19713 -3.983088,0.05255 C 28.295734,79.555091 27.532,79.393485 26.96,79.113306 Z m 5.691632,-2.13929 c -0.212701,-0.256288 -0.29417,-0.615747 -0.18104,-0.798797 0.753626,-1.219389 0.476694,-1.603414 -1.13016,-1.567213 C 29.76,74.643613 29.76,74.643613 29.76,75.855139 c 0,1.344103 0.233633,1.522787 2.039182,1.559597 1.050021,0.02141 1.180149,-0.04587 0.85245,-0.44072 z m 6.032765,-0.243104 c 1.020109,-0.02899 1.020109,-0.02899 0.806854,-1.499958 -0.266899,-1.84097 -0.05944,-1.707063 -2.259158,-1.458192 -1.875181,0.212153 -1.875181,0.212153 -1.873639,1.793276 0.0016,1.581127 0.0016,1.581127 1.15369,1.387501 0.633677,-0.106493 1.61119,-0.206675 2.172253,-0.222627 z m 6.230941,-0.454406 C 46.4,76.073008 46.4,76.073008 46.400214,74.596506 c 2.18e-4,-1.476506 2.18e-4,-1.476506 -1.84,-1.414672 -1.012118,0.03401 -2.101916,0.07001 -2.421779,0.08 -0.433104,0.01354 -0.529753,0.181401 -0.378611,0.657606 0.111622,0.351693 0.215238,1.071693 0.230259,1.6 0.03034,1.066781 0.250295,1.123709 2.925255,0.757066 z m 7.600083,-0.866122 c 0.177504,-1.856099 -0.249949,-2.414266 -1.750835,-2.286237 -0.552522,0.04713 -1.238599,0.101479 -1.524618,0.120771 C 48.844803,73.271574 48.547024,76 48.93928,76 c 1.680272,0 3.549222,-0.308144 3.576141,-0.589616 z M 56.90192,75.027603 C 59.325158,74.307978 59.008362,72.96 56.416,72.96 c -1.376,0 -1.376,0 -1.376,1.28 0,0.704 0.04586,1.28 0.10192,1.28 0.05605,0 0.848054,-0.221578 1.76,-0.492397 z M 32.379165,71.68 c 0.579664,0 0.606809,-0.177872 0.425494,-2.78784 -0.229517,-3.303818 0.01139,-2.952157 -1.875637,-2.737978 -1.523823,0.172954 -1.547635,0.192756 -1.36,1.130925 C 29.67406,67.810298 29.76,69.104 29.76,70.16 c 0,1.92 0,1.92 1,1.72 0.55,-0.11 1.278624,-0.2 1.619165,-0.2 z M 38.72,70.704259 c 0.088,-0.130861 0.113421,-1.476851 0.05649,-2.991094 C 38.672976,64.96 38.672976,64.96 37.757322,64.96 c -2.270096,0 -2.48248,0.300035 -2.460148,3.475427 l 0.02026,2.880512 1.62128,-0.186877 c 0.891706,-0.10278 1.693284,-0.293942 1.781284,-0.424803 z M 58.711126,68.967171 C 58.635958,68.259226 58.488845,66.852 58.384205,65.84 58.193949,64 58.193949,64 56.776973,64 c -1.603968,0 -1.461607,-0.367069 -1.587792,4.094051 l -0.07507,2.654051 1.36511,-0.204713 c 0.915523,-0.13729 1.44344,-0.07797 1.602947,0.180115 0.413373,0.668851 0.778269,-0.350093 0.62896,-1.756333 z m -12.08287,-1.713373 0.06826,-3.306201 -2.468256,0.225117 c -1.357539,0.123814 -2.533846,0.285193 -2.61401,0.35862 -0.08016,0.07343 -0.205606,1.502023 -0.278761,3.174653 l -0.133011,3.041149 2.678764,-0.09357 L 46.56,70.56 Z m 6.434544,0.02621 c 0.102797,-3.28 0.102797,-3.28 -0.8,-3.330086 -0.496541,-0.02755 -1.3348,-0.07981 -1.8628,-0.116125 -1.52408,-0.104841 -1.624733,0.04332 -1.585568,2.334039 0.08579,5.017436 -0.116102,4.595177 2.145568,4.487443 l 2,-0.09528 0.1028,-3.28 z M 32.56,63.506157 c 0.276957,-0.08729 0.4,-0.928106 0.4,-2.733392 v -2.607322 l -2.16,0.229843 c -2.736914,0.291236 -2.593665,0.145277 -2.27166,2.314637 0.520211,3.504675 0.416734,3.352346 2.122278,3.124205 C 31.480778,63.723082 32.34,63.575494 32.56,63.506157 Z m 5.257142,-0.781789 C 39.19367,62.717354 39.68,61.958371 39.68,59.817142 V 57.92 H 37.407645 35.13529 l 0.176185,2 c 0.0969,1.1 0.183463,2.268794 0.192355,2.597322 0.01248,0.460924 0.18058,0.553264 0.73617,0.404371 0.396,-0.106125 1.105715,-0.194922 1.577142,-0.197325 z M 50.053434,62.16 c 0.132054,-0.132 0.912054,-0.24 1.733334,-0.24 1.493232,0 1.493232,0 1.452035,-1.343616 -0.08441,-2.752803 -0.154137,-2.829498 -2.464678,-2.710826 l -2.055207,0.105559 -0.01187,2.214441 c -0.01171,2.187287 0.452458,2.867994 1.346384,1.974442 z M 45.235338,61.876506 C 46.72,61.673008 46.72,61.673008 46.72,59.796506 V 57.92 h -2.4 -2.4 V 60 c 0,2.351206 -0.02886,2.334877 3.315338,1.876506 z m 12.951056,-0.294858 c 0.05851,-0.04827 0.0059,-0.891888 -0.116874,-1.874707 C 57.846256,57.92 57.846256,57.92 56.60313,57.92 c -1.24313,0 -1.24313,0 -1.24313,1.866666 0,1.026668 0.08486,1.951526 0.188576,2.055244 0.170192,0.170192 2.380355,-0.04787 2.637818,-0.260262 z M 52.572432,53.52 c -0.167725,-2.408006 -0.243136,-2.641062 -0.858157,-2.652086 -0.370851,-0.0067 -1.220301,-0.09121 -1.887667,-0.187911 -1.213392,-0.175824 -1.213392,-0.175824 -1.12,2.492087 C 48.8,55.84 48.8,55.84 50.24,55.940202 c 0.792,0.05511 1.5768,0.23511 1.744,0.4 0.599555,0.591267 0.769366,-0.222583 0.588432,-2.820202 z M 31.44,55.794608 c 1.2,-0.198346 1.2,-0.198346 1.2,-2.256086 v -2.057738 l -1.52,0.234419 c -0.836,0.128928 -1.96491,0.224659 -2.508689,0.212733 -0.943913,-0.0207 -0.984622,0.03117 -0.898888,1.14519 0.04939,0.641783 0.0983,1.562874 0.108689,2.046874 0.02066,0.96263 0.892786,1.125206 3.618888,0.674608 z m 15.28,-1.375722 c 0,-0.869612 -0.146349,-1.671564 -0.325219,-1.782112 C 46.21591,52.526227 46.144378,52.314723 46.235818,52.166765 46.771293,51.300349 45.966282,50.88 43.771526,50.88 c -1.911116,0 -2.211481,0.07432 -2.045763,0.506173 0.106832,0.278393 0.194237,1.350115 0.194237,2.3816 0,1.875427 0,1.875427 1.36,1.99792 3.675667,0.331062 3.44,0.423328 3.44,-1.346807 z m 10.45881,1.265482 c 0.544057,-0.0034 0.673686,-0.163811 0.585363,-0.724368 -0.89656,-5.690166 -0.763501,-5.331235 -1.787024,-4.820637 -1.062496,0.530042 -1.082733,0.627952 -0.971088,4.697959 0.03075,1.120819 0.101734,1.219155 0.753939,1.044371 0.396,-0.106125 1.034464,-0.194922 1.41881,-0.197325 z m -19.009824,-0.32 C 40.017974,55.36 40.017974,55.36 39.82785,53.84 39.47009,50.97976 39.304771,50.872368 36.08,51.405392 c -1.2,0.198346 -1.2,0.198346 -1.2,2.273798 0,1.99616 0.02752,2.068084 0.72,1.882503 0.396,-0.106125 1.552045,-0.194922 2.568986,-0.197325 z M 32.182614,48.08 C 31.748641,45.583651 31.443769,45.1928 29.813656,45.042938 27.922552,44.869082 27.907771,44.88487 27.719418,47.28 l -0.157279,2 h 2.414543 c 2.414544,0 2.414544,0 2.205932,-1.2 z m 6.621287,0.64 c 0.06692,-0.132 -0.0072,-0.993606 -0.164675,-1.914682 l -0.286349,-1.674681 -2.333325,0.024 -2.333322,0.024 0.476266,1.890694 C 34.638765,48.96 34.638765,48.96 36.660496,48.96 c 1.111952,0 2.076486,-0.108 2.143405,-0.24 z m 6.952576,-0.96 c -0.01149,-2.866925 -0.268739,-3.280352 -2.038346,-3.275632 -2.843558,0.0076 -3.152713,0.189795 -2.915654,1.718419 0.390502,2.518051 0.299651,2.437213 2.739088,2.437213 2.207632,0 2.218419,-0.0043 2.214912,-0.88 z m 6.371625,-0.64 c -0.05396,-2.571462 -0.322406,-3.111283 -1.582528,-3.182349 -2.390867,-0.134835 -2.636496,0.05911 -2.427984,1.917139 0.102781,0.915866 0.190372,1.91721 0.194644,2.22521 0.0065,0.47025 0.315488,0.56 1.927766,0.56 1.92,0 1.92,0 1.888102,-1.52 z m 4.325904,0 c -0.695097,-3.086413 -0.757705,-3.213232 -1.563008,-3.165952 -0.613577,0.03603 -0.74815,0.184221 -0.622892,0.685952 0.08787,0.352 0.202931,1.047469 0.255676,1.545485 0.0595,0.561827 0.388199,1.06608 0.866058,1.328624 1.140781,0.626768 1.282278,0.574365 1.064166,-0.394109 z m 0.147188,-9.505472 c -0.08001,-0.08001 -2.15601,-0.166957 -4.613335,-0.19321 -4.754185,-0.05079 -6.000704,-0.361497 -6.391619,-1.593164 -0.31561,-0.994394 0.417264,-1.670458 1.583238,-1.460509 3.238183,0.583072 10.996474,0.766445 18.100522,0.427817 2.728,-0.130038 8.344,-0.322438 12.48,-0.427558 4.136,-0.10512 7.88,-0.236902 8.32,-0.292848 0.44,-0.05595 1.204499,-0.113722 1.698886,-0.12839 0.51257,-0.0152 0.813888,-0.164192 0.701114,-0.346666 -0.326499,-0.528288 0.58585,-0.347414 1.397997,0.277152 0.636483,0.489475 0.70079,0.689814 0.401149,1.249706 -0.196269,0.366729 -0.284384,0.857209 -0.195815,1.089961 0.124762,0.327853 -0.43415,0.432291 -2.481149,0.463619 -14.038435,0.214861 -23.883312,0.501434 -26.149952,0.761194 -2.976928,0.341158 -4.624067,0.399866 -4.851036,0.172896 z M 86.4,73.876557 c 1.848,-0.171123 6.133888,-0.492442 9.524198,-0.714042 3.578512,-0.233901 6.314482,-0.55319 6.522462,-0.761177 0.57641,-0.576404 -0.62249,-5.260925 -1.29586,-5.063399 -0.28094,0.08241 -3.5348,0.234112 -7.2308,0.337114 -8.303827,0.231411 -9.208752,0.338201 -9.963146,1.175753 -1.142838,1.26881 -2.030243,1.358756 -3.129241,0.317178 C 79.889411,68.2788 79.751946,68.245011 78.08,68.492624 c -0.968,0.14336 -2.535978,0.271168 -3.484397,0.284016 L 72.871206,68.8 l 0.197232,2.8 c 0.108474,1.54 0.200455,2.856122 0.204394,2.924717 0.01005,0.17455 9.077302,-0.273152 13.127168,-0.64816 z M 18.153535,64.087136 C 18.084263,63.423213 18.026425,63.888 18.025005,65.12 c -0.0014,1.232 0.05526,1.775213 0.125949,1.207136 0.07069,-0.568074 0.07185,-1.576074 0.0026,-2.24 z m 58.716023,1.757648 c -0.540083,-0.260195 -0.827792,-0.25455 -1.104,0.02166 -0.284745,0.284746 -0.111081,0.36841 0.730442,0.351901 1.036797,-0.02035 1.059536,-0.04308 0.373558,-0.373559 z m 6.693776,-0.98823 c 0.520784,-0.616983 0.867037,-1.496256 1.878397,-4.769997 0.269834,-0.873447 0.269834,-0.873447 -1.225949,-0.719658 -1.21991,0.125424 -7.678796,0.188951 -10.876556,0.106973 -0.939309,-0.02406 -0.880125,-0.258701 -0.757517,3.002976 l 0.105136,2.796848 1.530131,-1.664086 c 1.693187,-1.841418 1.788621,-1.835949 4.144781,0.237545 2.287219,2.012819 2.413654,2.080637 3.525936,1.8912 0.59823,-0.101888 1.352269,-0.498697 1.675641,-0.881801 z m 15.426864,0.21775 1.870192,-0.210074 -0.17646,-2.432115 C 100.58687,61.094451 100.50128,59.604 100.49373,59.12 100.47408,57.85968 98.524493,57.847702 97.21751,59.099872 96.723878,59.5728 96.32,59.802282 96.32,59.60983 c 0,-0.20048 -0.29375,-0.273094 -0.687853,-0.170032 -0.436451,0.114135 -0.830326,-0.01498 -1.077673,-0.353238 -0.352493,-0.482061 -0.659296,-0.494496 -3.203751,-0.129837 l -2.813929,0.40328 -0.735424,2.08 c -0.404484,1.144 -0.885261,2.330045 -1.068397,2.635658 -0.943997,1.575321 -0.727709,1.636195 5.027027,1.414867 2.948,-0.113379 6.20159,-0.300678 7.230198,-0.416221 z M 18.08,59.84 c 0.108774,-0.176 0.04527,-0.32 -0.141115,-0.32 -0.186386,0 -0.338885,0.144 -0.338885,0.32 0,0.176 0.0635,0.32 0.141115,0.32 0.07761,0 0.230111,-0.144 0.338885,-0.32 z m -0.312988,-4.4 c -0.34581,-5.266003 -0.442867,-20.50719 -0.150898,-23.695807 0.233914,-2.554601 0.213013,-2.685975 -0.54849,-3.447478 -1.27525,-1.27525 -0.893446,-1.83168 1.614327,-2.352673 1.784343,-0.3707 2.621373,-0.385467 4.47639,-0.07898 2.487608,0.411009 4.893534,0.227902 11.953057,-0.909706 2.151268,-0.346667 5.142157,-0.724907 6.646423,-0.840534 2.295149,-0.176419 2.712102,-0.292624 2.592493,-0.722528 -0.07839,-0.281764 -0.230996,-0.954214 -0.339117,-1.494333 l -0.196586,-0.982034 -5.187305,0.73192 c -4.40474,0.621501 -8.836786,0.997526 -13.987306,1.186714 -1.797516,0.06603 -9.199664,-0.423824 -9.782169,-0.647352 -0.446784,-0.171447 -0.477481,-0.101854 -0.191102,0.433248 0.18765,0.350628 0.330349,0.912463 0.317109,1.248522 -0.01324,0.336059 0.05796,1.331017 0.158223,2.211017 0.301771,2.648637 0.539076,5.779862 0.897312,11.84 0.187271,3.168 0.389059,6.552 0.448417,7.52 0.05936,0.968 0.193836,3.430717 0.298839,5.472701 0.105004,2.041984 0.330968,4.201033 0.502143,4.797888 C 17.459948,56.30744 17.6,57.336726 17.6,57.997888 17.6,58.65905 17.693133,59.2 17.806962,59.2 c 0.113829,0 0.09585,-1.692 -0.03995,-3.76 z M 85.76,56.752195 c 1.031715,-0.184937 1.237546,-0.430393 2.611251,-3.113933 1.915667,-3.742262 2.227866,-3.936707 3.657968,-2.278262 1.161325,1.346755 2.884573,3.801066 3.110016,4.429395 0.208963,0.582403 1.724477,-0.982147 3.292832,-3.399373 1.598263,-2.463328 1.652283,-2.66934 0.773018,-2.948409 -0.829002,-0.263114 -12.135968,0.0775 -15.663306,0.471849 -6.859299,0.766855 -9.650083,0.939936 -10.422195,0.646381 C 72.32,50.25584 72.32,50.25584 72.32,53.428605 c 0,3.172761 0,3.172761 1.2,3.298285 2.0728,0.216822 11.067834,0.235417 12.24,0.02531 z m 7.04,-0.467357 c 0,-0.113561 -0.216,-0.385737 -0.48,-0.604838 -0.264,-0.219101 -0.48,-0.596733 -0.48,-0.839181 0,-0.762614 -0.838067,-0.479133 -1.298368,0.439181 -0.242602,0.484 -0.487859,0.970426 -0.545011,1.080944 -0.05716,0.110522 0.550224,0.185066 1.349731,0.165658 C 92.145859,56.50719 92.8,56.398397 92.8,56.284838 Z M 100.48,55.36 c 0,-0.176 -0.0635,-0.32 -0.14111,-0.32 -0.0776,0 -0.23012,0.144 -0.33889,0.32 -0.108774,0.176 -0.04527,0.32 0.14111,0.32 0.18639,0 0.33889,-0.144 0.33889,-0.32 z M 87.44,47.512982 c 5.06,-0.12656 9.2,-0.321792 9.2,-0.433849 0,-0.112061 0.66913,-0.150528 1.486957,-0.08548 1.486957,0.118263 1.486957,0.118263 1.306905,-1.224121 C 99.334832,45.031218 99.174189,44.347525 99.076874,44.25021 98.90512,44.078454 96.071638,43.883386 92.48,43.796051 c -2.291462,-0.05572 -19.631341,0.406765 -19.840179,0.529171 -0.0881,0.05164 -0.203363,0.881485 -0.256147,1.844109 l -0.09597,1.750224 2.976147,-0.08823 C 76.900733,47.782794 82.38,47.639539 87.44,47.512982 Z M 64.16,28.165722 c 3.168,-0.178243 6.912,-0.390444 8.32,-0.471557 1.408,-0.08111 4.072,-0.229761 5.92,-0.330326 6.646477,-0.361692 8.64,-0.750672 8.64,-1.685854 0,-0.815911 0,-0.815911 -0.64,-0.07798 -0.510944,0.589122 -0.64,0.63126 -0.64,0.208963 0,-0.29093 0.120851,-0.528963 0.268557,-0.528963 0.147702,0 0.211565,-0.468 0.141913,-1.04 -0.26622,-2.186269 -0.38567,-3.364336 -0.600256,-5.92 -0.176086,-2.097145 -0.327414,-2.647128 -0.735939,-2.674666 -0.282851,-0.01907 -2.586496,-0.06408 -5.119213,-0.100032 -4.604937,-0.06537 -4.604937,-0.06537 -5.386489,-0.973973 C 73.693933,13.833516 73.58639,13.45287 73.756461,12.546332 74.141437,10.494221 74.272266,7.8549344 74.065098,6.32 73.829136,4.5717475 73.703066,4.5312397 70.828381,5.28 69.597795,5.6005274 67.43441,5.76 64.316768,5.76 c -3.291843,0 -4.795862,0.117969 -5.099712,0.4 -0.344758,0.32 -0.385779,0.32 -0.205117,0 0.124208,-0.22 0.09013,-0.4 -0.07573,-0.4 -0.713274,0 -1.006307,4.1404147 -0.296208,4.185263 0.254842,0.016096 0.27231,0.078013 0.04814,0.170619 -0.248963,0.102849 -0.260333,0.608237 -0.03889,1.728213 0.172134,0.870571 0.42864,1.511368 0.570019,1.423992 0.141376,-0.08737 0.04033,0.27556 -0.224554,0.806524 -0.298333,0.598024 -0.746665,0.98093 -1.17816,1.006228 -0.38311,0.02246 -1.056563,0.08226 -1.496563,0.132885 -0.44,0.05062 -2.312,0.164104 -4.16,0.252177 -1.848,0.08807 -3.982979,0.352275 -4.744397,0.587116 -1.382675,0.426452 -1.384163,0.428574 -1.197369,1.706983 0.219372,1.501407 0.244195,1.912288 0.193312,3.2 -0.02086,0.528 0.03187,1.464 0.117161,2.08 0.0853,0.616 0.256685,1.960573 0.380848,2.98794 0.179405,1.484469 0.363776,1.92088 0.898096,2.125822 0.985943,0.378163 9.729978,0.384558 16.352349,0.01196 z m -1.5,-0.544318 c 0.230998,-0.09244 0.506998,-0.08107 0.613334,0.02526 0.106333,0.106333 -0.08267,0.181965 -0.42,0.16807 -0.372784,-0.01535 -0.448608,-0.09118 -0.193334,-0.19333 z"
     id="path221"
     inkscape:connector-curvature="0"
     sodipodi:nodetypes="cssccsscsscsscsssscssccssscccscsscccccsccccccccscccccccccccccccscscccccscsccccccccccssscccsssccssccccsssccccccscccsccccccccssssscssssscccssscsccccccscccsscscsscscsscssssccsssccccccccsccccccscccscccccccssccccccccccccsccccccccsccccscccscccccsccsccscccccccccccscsccccscccccscccssscscsccccsscccssccscssccccccsssscsssscsccccsccsccscccscsccssccssccccssccccscccccccccccccscsssssssscsssccsscccccssscccccccscscccccccccccccsccssccsccccccccscscccccscccscccssccsccsccscsccccccsccscssscsccccsccscsssscssccccccsccccsccsscscsccccscsccsscccsccssccsccscssscccccccccccccccsscscsccccccccsccscsssccssssscssscsscccscscssscscssccsscccscssccssscccssscsssscccscsccsccsscsssscscccssccsccccccccscccsccccccc"
     inkscape:export-xdpi="334.0206"
     inkscape:export-ydpi="334.0206" />
</svg>
