<?xml version="1.0" encoding="UTF-8" standalone="no"?>
<!-- Created with Inkscape (http://www.inkscape.org/) -->

<svg
   xmlns:dc="http://purl.org/dc/elements/1.1/"
   xmlns:cc="http://creativecommons.org/ns#"
   xmlns:rdf="http://www.w3.org/1999/02/22-rdf-syntax-ns#"
   xmlns:svg="http://www.w3.org/2000/svg"
   xmlns="http://www.w3.org/2000/svg"
   xmlns:sodipodi="http://sodipodi.sourceforge.net/DTD/sodipodi-0.dtd"
   xmlns:inkscape="http://www.inkscape.org/namespaces/inkscape"
   version="1.1"
   id="svg452"
   width="110.08"
   height="96"
   viewBox="0 0 110.08 96"
   sodipodi:docname="book2.svg"
   inkscape:version="0.92.4 5da689c313, 2019-01-14">
  <metadata
     id="metadata458">
    <rdf:RDF>
      <cc:Work
         rdf:about="">
        <dc:format>image/svg+xml</dc:format>
        <dc:type
           rdf:resource="http://purl.org/dc/dcmitype/StillImage" />
        <dc:title></dc:title>
      </cc:Work>
    </rdf:RDF>
  </metadata>
  <defs
     id="defs456" />
  <sodipodi:namedview
     pagecolor="#ffffff"
     bordercolor="#666666"
     borderopacity="1"
     objecttolerance="10"
     gridtolerance="10"
     guidetolerance="10"
     inkscape:pageopacity="0"
     inkscape:pageshadow="2"
     inkscape:window-width="3200"
     inkscape:window-height="1734"
     id="namedview454"
     showgrid="false"
     inkscape:zoom="11.727834"
     inkscape:cx="58.348766"
     inkscape:cy="39.083068"
     inkscape:window-x="0"
     inkscape:window-y="66"
     inkscape:window-maximized="1"
     inkscape:current-layer="svg452" />
  <path
     style="fill:#000000;stroke-width:0.31999999"
     d="m 68.48,93.278771 c 0,-0.354073 -0.22792,-0.487187 -0.717229,-0.418886 -0.621312,0.08673 -0.741318,-0.07758 -0.897366,-1.228675 -0.186781,-1.377792 -1.409738,-3.491284 -2.196362,-3.795709 -0.536646,-0.207687 -4.394141,3.803993 -4.696768,4.884499 -0.123017,0.439229 -0.451053,0.72 -0.841203,0.72 -0.435069,0 -0.581056,-0.152422 -0.456605,-0.476739 -1.359564,-1.507782 -1.009225,-2.208723 -0.573398,-3.854043 0.61593,-2.29472 0.78112,-2.496546 0.556674,-3.114733 -1.746868,-0.355055 -4.046598,0.08554 -5.217737,-0.107346 -4.267378,-0.09805 -9.711459,-0.101653 -12.375209,-0.418032 -0.673635,0.02653 -2.915351,0.02144 -4.981591,-0.0113 -2.066243,-0.03274 -3.889248,0.02234 -4.051123,0.122375 C 31.244412,86.066979 29.12,83.174048 29.12,81.61464 29.12,80.852198 27.38492,77.44 26.997223,77.44 c -0.616196,0 -1.039025,-0.999894 -1.094877,-2.589133 -0.04692,-1.33495 -0.527887,-3.140889 -0.929716,-3.490867 -0.101037,-0.088 -0.351867,-0.736 -0.557399,-1.44 -0.205532,-0.704 -1.249842,-3.8 -2.320689,-6.88 -1.070848,-3.08 -2.963711,-8.624 -4.206364,-12.32 -1.269979,-3.777277 -2.510901,-6.930195 -2.833766,-7.2 -0.360415,-0.301184 -0.644785,-1.11848 -0.763341,-2.193882 -0.103918,-0.942633 -0.320298,-1.878633 -0.480843,-2.08 C 13.649684,39.044755 13.414462,38.52 13.287514,38.08 13.160566,37.64 12.618954,36.344 12.083931,35.2 8.719656,28.006422 8.3942141,25.922774 9.5858934,19.20628 10.821086,12.244539 12.691781,9.7640285 16.48,10.064811 c 4.08147,0.324066 35.796461,0.124445 52.180208,-0.3284331 6.668314,-0.1843251 6.752374,-0.1783664 7.880726,0.5586551 1.875613,1.225116 6.869238,7.512352 7.925731,12.654637 0.993488,4.835624 2.624713,9.576629 4.679312,13.6 0.853833,1.672 2.709917,5.848 4.124633,9.28 1.414714,3.432 2.91098,7.032 3.325034,8 0.414054,0.968 0.854627,2.12 0.97905,2.56 0.195312,0.690694 1.234902,3.004304 3.307116,7.36 0.29307,0.616 0.60313,1.28 0.60313,1.28 0,0 0.159,0.706883 0.50266,1.066084 0.17052,0.239602 1.42275,-0.188593 1.62009,0.597654 0.30978,1.234256 -0.72362,2.473817 -1.85518,2.225286 -1.349,-0.296288 -1.914548,1.408205 -3.497556,3.932944 -1.359556,2.168356 -1.550708,2.924608 -0.902967,3.572349 0.309315,0.309315 0.309315,0.524365 0,1.019658 -0.486169,0.778483 -0.507069,2.383398 -0.04234,3.251747 0.238585,0.445802 0.245552,0.757411 0.02192,0.981037 -0.223623,0.223622 -0.131395,0.694009 0.290355,1.480905 0.339942,0.634253 0.618074,1.407322 0.618074,1.717927 0,0.330489 0.238921,0.564739 0.576,0.564739 1.224424,0 1.613574,1.625286 0.492185,2.055603 -0.257814,0.09893 -0.379123,0.324893 -0.269584,0.502138 0.244499,0.395603 -0.08034,0.394627 -2.718601,-0.0082 C 92.20383,87.361094 77.692518,87.27825 74.194077,87.863232 72.454195,88.15416 70.757254,88.320698 70.423094,88.233312 69.882288,88.091888 69.773661,88.369386 69.43447,90.758899 69.101562,93.104211 68.48,94.745158 68.48,93.278771 Z M 82.800051,85.28 c 6.028026,0 10.960026,-0.115152 10.96,-0.255891 -2.9e-5,-0.140739 -0.218969,-0.679232 -0.486534,-1.196647 -0.267568,-0.517417 -0.484819,-1.050265 -0.482784,-1.184108 0.0019,-0.133844 -1.255047,-0.256199 -2.793517,-0.271901 C 88.458749,82.355741 86.624,82.226467 85.92,82.084154 l -1.28,-0.258756 1.44,-0.444908 c 4.8324,-1.493037 6.90207,-1.561463 7.233946,-0.239162 0.209843,0.836074 0.372883,0.916784 1.0212,0.505526 0.33159,-0.210342 0.315488,-0.346057 -0.08,-0.674284 -0.717517,-0.595485 -0.607226,-1.817773 0.216057,-2.394426 0.613437,-0.429667 0.593415,-0.589651 -0.0712,-0.56895 -2.737251,0.08525 -8.39305,0.513244 -10.08,0.762787 -6.029002,0.891837 -8.606128,0.9148 -8.92665,0.07954 -0.249241,-0.649517 -0.135776,-0.669993 5.88665,-1.062384 5.720403,-0.37271 12.650611,-1.489965 13.34856,-2.151987 0.213709,-0.202707 0.362906,-0.70799 0.331552,-1.122854 -0.06714,-0.888356 1.346509,-3.319146 3.045958,-5.237568 l 1.206068,-1.361469 -1.758957,-0.21977 C 96.48575,67.574621 92.199021,67.506771 87.92711,67.54472 83.6552,67.582666 79.368,67.524656 78.4,67.415827 70.758912,66.556698 46.333731,66.636118 46.878963,67.51832 c 0.08597,0.139094 -0.598633,0.241594 -1.521331,0.227779 -0.922698,-0.01382 -2.565558,0.07944 -3.650803,0.207245 -2.093975,0.246592 -2.39528,0.09852 -2.583834,-1.269744 -0.20848,-1.512864 1.999946,-1.694227 19.117005,-1.569949 8.536,0.06197 15.952,0.204346 16.48,0.316381 1.677318,0.35591 23.52508,0.591627 24.027182,0.439588 0.267857,-0.08111 0.717444,0.232082 0.298452,-0.999918 -0.418992,-1.232 -1.020675,-2.674934 -1.337078,-3.206522 -0.316403,-0.531587 -1.087754,-2.187587 -1.714112,-3.68 -0.626355,-1.49246 -1.275366,-2.951273 -1.442243,-3.241856 -0.166877,-0.290579 -0.755162,-1.865824 -1.307299,-3.50054 -0.552138,-1.634717 -1.296573,-3.62897 -1.654304,-4.431671 -1.300093,-2.917248 -1.535946,-3.479504 -1.535946,-3.66159 0,-0.101981 -0.983075,-2.168218 -2.184614,-4.591639 -1.201536,-2.423417 -2.648429,-5.918214 -3.215312,-7.766214 -0.566884,-1.848 -1.239808,-4.035057 -1.495386,-4.860127 -0.255578,-0.82507 -0.464688,-1.791668 -0.464688,-2.147996 0,-1.529857 -5.785129,-9.853635 -6.892694,-10.855985 C 75.039837,12.235837 60.85151,12.08622 43.36,12.583459 c -4.752,0.135087 -11.999552,0.255245 -16.10567,0.267017 -7.46567,0.0214 -7.46567,0.0214 -7.254979,0.860866 0.202753,0.807833 2.281313,6.459353 3.842889,10.448658 1.320367,3.3731 3.624825,9.889446 3.823968,10.813088 0.105905,0.491197 0.318904,0.814998 0.473331,0.719558 0.154426,-0.09544 0.204366,0.118663 0.110976,0.475783 -0.15779,0.603389 0.95328,4.230294 1.516868,4.951571 0.354176,0.45327 2.116485,5.526771 3.167884,9.12 1.762605,6.023811 4.706483,14.788477 5.495133,16.360378 0.64535,1.286284 0.583776,1.425894 -0.903549,2.048652 -2.274885,1.526795 -3.483974,3.989114 -3.633552,4.425328 -0.234553,0.729104 -0.516777,1.397642 -0.627168,1.485642 -0.197216,0.157219 -0.816323,2.267162 -1.126742,3.84 -0.08684,0.44 -0.222313,0.982877 -0.301049,1.20639 -0.342611,0.972589 1.540585,2.926436 2.88166,2.989773 0.704,0.03325 1.712,0.09734 2.24,0.142413 0.528,0.04508 4.2,0.239923 8.16,0.432992 11.063923,0.539414 13.036397,0.738581 13.367155,0.943 0.182267,-0.740479 -0.428701,-2.498962 -1.399485,-4.768136 -0.560243,-1.309546 -0.08428,-1.290694 -7.16767,-0.283914 -5.525392,0.785338 -5.637622,0.781735 -6.282003,-0.201712 -0.951111,-1.451577 -0.315891,-1.641136 6.261046,-1.868393 3.244474,-0.112106 5.944941,-0.249728 6.001037,-0.305827 0.202608,-0.202608 -1.374794,-2.878733 -1.887427,-3.20209 -0.471466,-0.297395 -3.186647,0.02352 -5.450064,0.644144 -0.376224,0.103162 -0.682355,-0.121382 -0.941805,-0.690813 -0.47151,-1.034851 -0.167626,-1.281501 2.139216,-1.736304 2.939715,-0.579577 3.815955,-0.671046 8,-0.83511 2.288,-0.08972 4.376,-0.182048 4.64,-0.205178 0.264,-0.02314 2.784,-0.01907 5.6,0.009 5.12,0.05105 5.12,0.05105 5.189584,1.041863 0.06959,0.990816 0.06959,0.990816 -2.80016,0.879363 -1.578362,-0.0613 -2.869674,-0.01053 -2.869584,0.1128 8.6e-5,0.123337 0.148138,0.915337 0.328998,1.76 l 0.328836,1.53575 4.701728,-0.09723 c 2.585952,-0.05348 4.600758,0.0037 4.47735,0.127146 -0.265923,0.265926 -6.728285,1.403152 -7.996752,1.407245 -0.998096,0.0032 -0.990992,-0.01075 -0.564742,1.110368 0.430112,1.131276 0.601728,2.151715 0.84439,5.020713 0.207072,2.448237 0.207072,2.448237 1.203712,2.08 0.679562,-0.251085 4.483549,-0.36824 11.956691,-0.36824 z M 86.56,73.015376 c -2.064102,-0.22495 -1.240195,-0.587542 3.265411,-1.437075 4.547053,-0.857347 4.708631,-0.86648 5.276839,-0.298275 0.484547,0.48455 0.516089,0.67695 0.181952,1.109932 -0.397149,0.514637 -6.033303,0.918679 -8.724202,0.625418 z m -56.301565,1.373229 c 0.118477,-0.790061 0.342797,-1.515203 0.498489,-1.611424 0.155692,-0.09622 0.283076,-0.396224 0.283076,-0.666669 0,-0.270442 0.283746,-0.890198 0.630546,-1.377235 0.346801,-0.487034 0.567022,-0.949043 0.489384,-1.026682 -0.07764,-0.07764 0.624723,-0.823385 1.560809,-1.657216 0,0 1.470995,-0.977805 1.701971,-1.516054 C 35.568465,66.19367 34.47873,63.586662 34.47873,63.586662 33.959539,61.965997 33.619961,60.246787 33.350912,60.16 32.627729,59.926724 32.313398,60.747659 31.69732,61.589296 31.081242,62.430933 28.8,66.995322 28.8,67.599622 c 0,0.267972 -0.215113,0.89968 -0.478028,1.403799 -0.635207,1.217955 -0.606289,1.900089 0.175798,4.146905 0.361773,1.039322 0.738145,2.140055 0.83638,2.446074 0.283567,0.883354 0.690425,0.351699 0.924285,-1.207795 z M 28.378699,62.08 c 0.357858,-0.792 0.811842,-1.835741 1.008852,-2.319421 0.19701,-0.48368 0.916059,-1.49168 1.597886,-2.24 1.186544,-1.302256 1.22183,-1.403382 0.823145,-2.359069 -0.705165,-1.690348 -1.520744,-1.578067 -2.826928,0.389188 C 28.353745,56.4964 27.84,57.421437 27.84,57.606336 c 0,0.184899 -0.205045,0.655114 -0.455655,1.044922 -1.103922,1.717078 -1.493044,4.756803 -0.930487,7.268742 0.158362,0.70712 0.242729,0.61424 0.726676,-0.8 0.301132,-0.88 0.840306,-2.248 1.198165,-3.04 z M 25.494321,56.729104 C 26.080444,55.458112 26.56,54.349331 26.56,54.265146 c 0,-0.769178 2.416852,-3.569229 3.237411,-3.750711 0.488381,-0.108016 -1.271928,-6.150045 -3.712174,-12.741549 -0.290583,-0.784912 -0.725017,-2.152912 -0.965409,-3.04 -0.568642,-2.098384 -2.615497,-8.020016 -3.057928,-8.846706 -0.322692,-0.602955 -0.410013,-0.556622 -1.403754,0.744841 -2.17071,2.842893 -3.328725,6.003309 -3.553217,9.697321 -0.07037,1.157908 -0.204825,2.229687 -0.298793,2.381732 -0.277402,0.448844 0.496024,3.574393 1.269416,5.129926 0.393772,0.792 0.962144,2.232 1.263049,3.2 0.300904,0.968 0.667312,2.048 0.814239,2.4 0.146928,0.352 0.514051,1.576 0.81583,2.72 0.301779,1.144 0.697294,2.44 0.878922,2.88 0.181628,0.44 0.380488,1.059667 0.441912,1.377037 0.06142,0.317369 0.307205,0.965369 0.546179,1.44 0.238975,0.47463 0.543024,1.294963 0.675664,1.822963 0.241165,0.96 0.241165,0.96 0.57923,0.16 0.185935,-0.44 0.81762,-1.839904 1.403744,-3.110896 z M 14.842098,34.383379 C 14.951377,34.098605 14.89773,33.970157 14.716335,34.082266 14.542351,34.189792 14.4,34.413274 14.4,34.578886 c 0,0.460298 0.229365,0.358868 0.442098,-0.195507 z m 0.335263,-1.206985 c -0.235421,-0.613498 1.350351,-5.427333 2.103123,-6.384327 0.351734,-0.447158 0.640446,-0.934301 0.641582,-1.08254 0.0012,-0.14824 0.612155,-0.981388 1.35782,-1.851441 1.366094,-1.593979 1.554228,-2.429687 0.732054,-3.251861 -1.076104,-1.076104 -4.874312,6.775804 -5.472819,11.313775 -0.18702,1.418016 -0.141858,1.68 0.28961,1.68 0.29267,0 0.441697,-0.181078 0.34863,-0.423606 z M 12.684587,28.0849 c -0.243324,-0.156905 -0.201903,-0.23673 0.124537,-0.24 0.33796,-0.0034 0.672753,-0.721892 1.083302,-2.3249 1.112263,-4.342885 2.985993,-7.6 4.372072,-7.6 0.484969,0 0.452648,-0.245857 -0.29447,-2.24 -0.881809,-2.353644 -1.076988,-2.538754 -1.855742,-1.76 -0.264,0.264 -0.365674,0.48 -0.225941,0.48 0.139732,0 -0.04516,0.209584 -0.410881,0.465742 -0.447379,0.313357 -0.731097,0.967735 -0.867137,2 -0.111208,0.843842 -0.265009,1.822258 -0.341778,2.174258 -0.07677,0.352 -0.235867,1.651356 -0.249332,1.871356 -0.01347,0.22 -0.315227,0.762385 -0.670581,0.762385 -0.529379,0 -0.609824,-0.506904 -0.445309,-1.162385 C 13.027044,20.018427 13.053234,18.88 12.834691,18.88 c -0.19508,0 -0.370788,0.18 -0.390462,0.4 -0.01967,0.22 -0.112153,0.904 -0.205509,1.52 -0.09336,0.616 -0.18526,1.624 -0.20423,2.24 -0.01897,0.616 -0.116542,1.192 -0.216827,1.28 -0.100285,0.088 -0.100285,0.489093 0,0.891319 0.182337,0.731318 0.182337,0.731318 0.739205,0.08 0.04932,-1.296419 -0.141334,-1.422476 -0.03429,-2.732141 0.08277,-1.012732 0.535978,-2.456431 1.090831,-2.027978 0.885861,0.684057 -0.09965,1.321485 -0.07469,2.3488 0.02213,0.910819 -0.298853,1.334096 -0.362774,2.205424 -0.129857,0.08026 -0.272419,0.62252 -0.316805,1.205029 -0.04439,0.582511 -0.21985,1.198258 -0.38992,1.368328 -0.530239,0.530239 -0.399174,1.569938 0.135368,1.073836 0.322069,-0.298909 0.344116,-0.477405 0.08,-0.647717 z m 0.528248,-10.165342 c 0.09211,-0.352242 0.03691,-0.559744 -0.122678,-0.461114 C 12.930571,17.557074 12.8,17.845272 12.8,18.098885 c 0,0.66232 0.217439,0.567869 0.412835,-0.179327 z M 51.28609,10.3501 c -0.21665,-0.08765 -0.64865,-0.09299 -0.96,-0.01186 -0.311351,0.08113 -0.13409,0.152852 0.39391,0.159374 0.528,0.0065 0.782739,-0.05986 0.56609,-0.147517 z"
     id="path462"
     inkscape:connector-curvature="0"
     sodipodi:nodetypes="scsccscccccscssccssssccssssscsssscscccsssscccsscccsccscccccccscccccccsccsccsccccsscsssccscssssscsscsscccsscccccccscsssscccssccccscsccccsscccssccsscsccsscszscccscssscsssscsscssssccsscssccccsccsccccsssscccssssscsccsssccssccsssccsccccsccsccc" />
</svg>
