<?xml version="1.0" encoding="UTF-8" standalone="no"?>
<!-- Created with Inkscape (http://www.inkscape.org/) -->

<svg
   xmlns:dc="http://purl.org/dc/elements/1.1/"
   xmlns:cc="http://creativecommons.org/ns#"
   xmlns:rdf="http://www.w3.org/1999/02/22-rdf-syntax-ns#"
   xmlns:svg="http://www.w3.org/2000/svg"
   xmlns="http://www.w3.org/2000/svg"
   xmlns:sodipodi="http://sodipodi.sourceforge.net/DTD/sodipodi-0.dtd"
   xmlns:inkscape="http://www.inkscape.org/namespaces/inkscape"
   version="1.1"
   id="svg638"
   width="109.44"
   height="69.760002"
   viewBox="0 0 109.44 69.760002"
   sodipodi:docname="skimmed.svg"
   inkscape:version="0.92.4 5da689c313, 2019-01-14">
  <metadata
     id="metadata644">
    <rdf:RDF>
      <cc:Work
         rdf:about="">
        <dc:format>image/svg+xml</dc:format>
        <dc:type
           rdf:resource="http://purl.org/dc/dcmitype/StillImage" />
        <dc:title></dc:title>
      </cc:Work>
    </rdf:RDF>
  </metadata>
  <defs
     id="defs642" />
  <sodipodi:namedview
     pagecolor="#ffffff"
     bordercolor="#666666"
     borderopacity="1"
     objecttolerance="10"
     gridtolerance="10"
     guidetolerance="10"
     inkscape:pageopacity="0"
     inkscape:pageshadow="2"
     inkscape:window-width="3200"
     inkscape:window-height="1734"
     id="namedview640"
     showgrid="false"
     inkscape:zoom="11.796418"
     inkscape:cx="54.720001"
     inkscape:cy="34.880001"
     inkscape:window-x="0"
     inkscape:window-y="66"
     inkscape:window-maximized="1"
     inkscape:current-layer="svg638" />
  <path
     style="fill:#000000;stroke-width:0.31999999"
     d="M 11.722206,65.427141 C 10.86542,65.187307 10.094693,64.921362 10.00948,64.836149 9.5362093,64.362879 9.8114019,56.920008 10.46042,52.640002 c 0.106755,-0.704001 0.232232,-1.568001 0.27884,-1.920001 0.04661,-0.352 0.233865,-1.576 0.416129,-2.72 0.182264,-1.144 0.352161,-3.304 0.377551,-4.8 0.02539,-1.496 0.0602,-3.152 0.07737,-3.68 0.04096,-1.259853 -0.392023,-6.456198 -0.580268,-6.964019 -0.08073,-0.217789 -0.209292,-3.491981 -0.285685,-7.275981 -0.07639,-3.784 -0.241184,-7.636 -0.3662,-8.560001 -0.159194,-1.176607 -0.118063,-1.68 0.13727,-1.68 0.200515,0 0.364573,-0.270913 0.364573,-0.602029 0,-1.995615 7.115308,-5.7064623 13.28,-6.9259193 6.680064,-1.3214042 15.029424,-1.3945613 18.194413,-0.1594198 0.377072,0.1471533 2.442403,0.7383863 4.589619,1.3138515 2.24136,0.6006954 3.821635,1.1796247 3.71056,1.3593516 -0.106413,0.172178 -0.03672,0.216169 0.15487,0.09776 0.421876,-0.2607313 2.559792,0.556934 4.637053,1.773481 2.422288,1.418611 3.252119,1.41371 5.673485,-0.03351 3.511594,-2.0988364 10.640438,-4.9099881 14.24,-5.6153293 0.768128,-0.1505161 7.65312,-0.5564531 9.76,-0.5754464 1.132131,-0.010205 6.371814,0.8266586 7.84,1.252178 3.213501,0.9313587 3.883427,1.1725891 6.209597,2.2359792 4.989003,2.2806835 5.707383,3.4121855 4.522043,7.1226115 -1.00305,3.139835 -2.19645,9.768418 -2.5703,14.276444 -0.18975,2.288 -0.55659,6.032 -0.81522,8.32 -0.652763,5.774995 -0.717595,8.616231 -0.25191,11.04 0.37258,1.939191 0.35806,2.109152 -0.214607,2.510612 -0.579597,0.406326 -0.584374,0.476195 -0.08469,1.238806 0.291247,0.444509 0.546907,1.042733 0.568127,1.329389 0.0212,0.286656 0.42521,0.938221 0.89777,1.44792 0.94504,1.019325 1.16211,2.657117 0.39137,2.95288 -0.2573,0.09873 -0.555,0.454215 -0.66156,0.789955 -0.28175,0.887693 -1.121985,0.760432 -4.077141,-0.61752 -6.245155,-2.912035 -18.487923,-4.059056 -26.560368,-2.488432 -4.078505,0.793539 -4.438246,1.017085 -5.03238,3.127159 -0.400042,1.420745 -2.11146,2.994413 -3.751984,3.44999 C 59.137542,64.324805 53.44,63.892149 53.44,63.046523 53.44,62.890658 53.16336,62.675327 52.825245,62.568015 52.487133,62.460703 51.897226,61.766997 51.514346,61.02645 49.923312,57.94916 48.958317,57.486686 44.16,57.501886 c -3.895565,0.01235 -9.436381,0.543712 -11.04,1.058752 -0.528,0.169581 -2.328,0.593597 -4,0.94226 -1.672,0.348659 -3.748405,0.999142 -4.614233,1.445517 -0.865828,0.446374 -1.818408,0.811587 -2.116845,0.811587 -0.298437,0 -0.886032,0.267401 -1.305767,0.594224 -1.239298,0.964969 -5.833276,3.224134 -6.85734,3.372211 -0.520198,0.07522 -1.646822,-0.05947 -2.503609,-0.299296 z m 2.957056,-3.890522 c 1.590956,-1.070185 2.445678,-1.434758 4.360738,-1.860022 1.668571,-0.370525 5.585484,-1.645971 5.853333,-1.905991 0.05133,-0.04983 -0.275292,-0.0906 -0.725836,-0.0906 -0.450543,0 -0.897041,0.126 -0.992218,0.28 -0.09518,0.154 -0.461039,0.28 -0.813025,0.28 -1.587756,0 -8.388619,2.684627 -10.042254,3.964163 -0.928665,0.718573 1.189684,0.119194 2.359262,-0.667546 z M 16.8,56.212443 c 1.408,-0.690851 2.632,-1.34527 2.72,-1.454265 0.539413,-0.668116 4.688951,-1.97249 11.2,-3.520631 8.592262,-2.042995 18.502083,-1.652493 23.280102,0.917366 1.984304,1.067258 1.863533,1.191447 2.173402,-2.234912 0.135293,-1.496 0.278634,-3.008 0.318534,-3.36 0.0399,-0.352 0.165495,-2.280185 0.279092,-4.284854 0.1136,-2.004672 0.262163,-3.734848 0.33014,-3.844839 0.06798,-0.10999 0.216416,-1.326233 0.32986,-2.702765 0.113446,-1.376531 0.265484,-2.958355 0.337862,-3.515161 0.455229,-3.50212 0.542074,-5.024286 0.590864,-10.356242 0.05387,-5.887168 0.0483,-5.939045 -0.672768,-6.267586 C 57.28719,15.406348 56.96,15.136385 56.96,14.988636 56.96,14.840886 56.719645,14.72 56.425875,14.72 56.132106,14.72 55.135827,14.293385 54.211923,13.771966 51.545123,12.266917 46.737482,10.616865 41.12,9.2786284 36.986912,8.2940146 28.346061,8.0679686 26.08,8.8851798 c -0.528,0.1904131 -2.04,0.6675971 -3.36,1.0604093 -2.106717,0.6269269 -5.122485,2.1257679 -9.013894,4.4799169 -1.03924,0.6287 -1.139837,0.799735 -0.876994,1.491065 0.312868,0.822906 0.38058,5.574221 0.139462,9.786033 -0.0788,1.376432 0.07944,4.976432 0.351634,8.000002 0.512762,5.695773 0.455073,11.586262 -0.172929,17.657395 -0.79709,7.705767 -0.807187,7.366026 0.199126,6.699978 C 13.837882,57.734686 15.392,56.903294 16.8,56.212443 Z m 41.226742,1.570954 C 58.276832,57.131678 57.738739,56.823339 55.2,56.163614 c -1.232,-0.32015 -2.456,-0.660361 -2.72,-0.756025 -0.264,-0.09566 0.234694,0.502493 1.108208,1.329238 1.691482,1.600922 4.015526,2.148912 4.438534,1.04657 z M 98.88,57.62324 c 0,-0.611062 -3.404442,-1.89855 -5.451075,-2.061475 L 91.36,55.397061 l 1.76,0.414368 c 0.968,0.227901 2.624,0.783017 3.68,1.233587 1.056,0.450573 1.956,0.83177 2,0.847104 0.044,0.01533 0.08,-0.105661 0.08,-0.26888 z M 24.670819,55.691518 c 1.447248,-0.345667 4.87637,-0.923219 7.620272,-1.283452 2.743898,-0.360234 6.140909,-0.905415 7.548909,-1.211517 1.408,-0.306103 3.7408,-0.556547 5.184,-0.556547 3.752323,0 2.824842,-0.415649 -1.344,-0.602308 -5.434627,-0.243337 -12.722528,0.888788 -18.72,2.908016 -4.710088,1.585796 -4.802354,1.823751 -0.289181,0.745808 z M 62.679981,53.961266 C 63.75799,53.52323 64.64,53.231816 64.64,53.313678 c 0,0.08186 0.324,-0.02931 0.72,-0.247027 0.396,-0.217728 0.864,-0.426739 1.04,-0.46447 0.176,-0.03773 1.4,-0.446743 2.72,-0.908919 4.09311,-1.433136 10.011715,-2.471766 12.96,-2.274291 1.408,0.09431 4,0.24968 5.76,0.345274 1.76,0.09559 3.668,0.248272 4.24,0.339283 1.440122,0.229136 1.299626,-0.09498 -0.347152,-0.800874 C 88.115763,47.75219 75.884512,47.386165 71.84,48.707352 c -7.370835,2.407773 -10.597347,4.037446 -12.047597,6.08511 -0.74192,1.04754 -0.74192,1.04754 0.09282,0.506384 0.459104,-0.297635 1.716746,-0.899545 2.794759,-1.33758 z M 93.81129,52.570206 C 91.851552,51.771797 80.769283,51.212165 78.4,51.791966 c -0.792,0.193815 -1.899501,0.355911 -2.461114,0.360211 -0.561612,0.0043 -1.107612,0.14778 -1.213331,0.318836 -0.122009,0.197417 0.730867,0.239827 2.335107,0.116118 1.390029,-0.10719 2.606599,-0.06714 2.703485,0.08899 0.09689,0.156134 3.512407,0.283882 7.590039,0.283882 6.137904,0 7.249212,-0.06709 6.457104,-0.389796 z M 62.4,49.723064 c 3.863296,-1.834167 4.186746,-1.958074 7.04,-2.696858 4.71545,-1.220957 7.20417,-1.543043 10.809264,-1.398921 10.553696,0.421913 10.499382,0.41296 14.567283,2.400841 1.408976,0.688531 2.599763,1.251875 2.646192,1.251875 0.04643,0 0.0177,-0.972 -0.06388,-2.16 -0.08156,-1.188 -0.0062,-3.312 0.167427,-4.72 0.173645,-1.408 0.599488,-4.864 0.946317,-7.68 0.346829,-2.816 0.707814,-6.272 0.802192,-7.68 0.179334,-2.675437 0.368841,-3.742701 1.722585,-9.701073 0.97249,-4.280365 1.07773,-4.052254 -2.797382,-6.063567 C 93.56793,8.8503951 86.542109,7.5775314 80.16,7.9998165 72.865075,8.4825004 69.435725,9.5339897 63.879728,12.991586 62.634982,13.766214 61.432829,14.4 61.208275,14.4 c -0.300061,0 -0.413971,0.784563 -0.429769,2.96 -0.03553,4.892922 -0.252682,11.496798 -0.434042,13.200001 -0.825779,7.755152 -1.155517,11.318986 -1.287923,13.92 -0.08511,1.672 -0.253415,4.044013 -0.374003,5.27114 -0.219252,2.231139 -0.219252,2.231139 0.549104,1.671251 C 59.65424,51.114453 61.08,50.349755 62.4,49.723064 Z"
     id="path648"
     inkscape:connector-curvature="0" />
</svg>
