<?xml version="1.0" encoding="UTF-8" standalone="no"?>
<!-- Created with Inkscape (http://www.inkscape.org/) -->

<svg
   xmlns:dc="http://purl.org/dc/elements/1.1/"
   xmlns:cc="http://creativecommons.org/ns#"
   xmlns:rdf="http://www.w3.org/1999/02/22-rdf-syntax-ns#"
   xmlns:svg="http://www.w3.org/2000/svg"
   xmlns="http://www.w3.org/2000/svg"
   xmlns:sodipodi="http://sodipodi.sourceforge.net/DTD/sodipodi-0.dtd"
   xmlns:inkscape="http://www.inkscape.org/namespaces/inkscape"
   version="1.1"
   id="svg1016"
   width="138.24001"
   height="78.720001"
   viewBox="0 0 138.24001 78.720001"
   sodipodi:docname="article.svg"
   inkscape:version="0.92.4 5da689c313, 2019-01-14">
  <metadata
     id="metadata1022">
    <rdf:RDF>
      <cc:Work
         rdf:about="">
        <dc:format>image/svg+xml</dc:format>
        <dc:type
           rdf:resource="http://purl.org/dc/dcmitype/StillImage" />
        <dc:title></dc:title>
      </cc:Work>
    </rdf:RDF>
  </metadata>
  <defs
     id="defs1020" />
  <sodipodi:namedview
     pagecolor="#ffffff"
     bordercolor="#666666"
     borderopacity="1"
     objecttolerance="10"
     gridtolerance="10"
     guidetolerance="10"
     inkscape:pageopacity="0"
     inkscape:pageshadow="2"
     inkscape:window-width="3200"
     inkscape:window-height="1745"
     id="namedview1018"
     showgrid="false"
     inkscape:zoom="9.3388306"
     inkscape:cx="72.237832"
     inkscape:cy="33.302653"
     inkscape:window-x="0"
     inkscape:window-y="55"
     inkscape:window-maximized="1"
     inkscape:current-layer="svg1016" />
  <path
     style="fill:#000000;stroke-width:0.32000002"
     d="m 117.95802,74.331953 c -0.0371,-0.03742 -2.72915,-0.08485 -5.98234,-0.105379 -5.01451,-0.03165 -6.35186,-0.148077 -8.78529,-0.764826 -1.57871,-0.400121 -4.166383,-0.829069 -5.750383,-0.953216 -3.578771,-0.280486 -6.605149,-0.679833 -9.920001,-1.308992 -7.119629,-1.351309 -14.088439,-1.672778 -21.19708,-0.977808 -5.534429,0.541069 -9.996631,0.736643 -22.642923,0.992423 -5.781088,0.116928 -10.601143,0.378876 -12.784006,0.694758 -2.623264,0.37961 -3.535315,0.41313 -3.628571,0.13336 -0.06851,-0.205536 -0.337996,-0.58713 -0.598853,-0.847987 -0.260857,-0.260858 -0.379899,-0.474285 -0.264539,-0.474285 0.115361,0 -0.211713,-0.54 -0.726832,-1.2 -0.515118,-0.66 -1.560797,-2.28 -2.323733,-3.6 -0.762935,-1.32 -2.071998,-3.205619 -2.909028,-4.190266 -0.83703,-0.984643 -2.05839,-2.784643 -2.714132,-4 -1.627411,-3.016246 -3.964586,-6.873491 -4.635114,-7.649734 -0.304062,-0.352 -1.575489,-2.774954 -2.825393,-5.384346 C 9.019897,42.086266 7.5560671,39.310077 7.0168459,38.526346 5.6700967,36.568912 3.3685398,31.844044 2.7543646,29.775893 2.2468817,28.067012 2.2468817,28.067012 3.0858874,27.289448 c 1.3233152,-1.226407 1.8860301,-1.316306 8.6296706,-1.378671 7.259054,-0.06713 8.414952,-0.116142 9.084444,-0.385188 0.264,-0.106092 1.092,-0.276751 1.84,-0.379242 0.748,-0.102491 1.939231,-0.277741 2.647181,-0.389444 1.005516,-0.158655 1.435752,-0.07113 1.966136,0.4 C 27.932274,25.76 27.932274,25.76 27.7331,21.6 c -0.109546,-2.288 -0.268639,-4.497499 -0.35354,-4.909999 -0.0849,-0.412499 -0.242871,-2.788499 -0.351046,-5.28 C 26.92034,8.9185006 26.672781,6.5530903 26.478384,6.1535342 25.682066,4.5168157 24.333093,4.5663821 66.400005,4.6866637 c 8.976,0.025664 19.128001,0.043253 22.560001,0.039085 3.432001,-0.00417 10.056001,0.086517 14.720004,0.2015213 4.664,0.1150044 12.152,0.2084297 16.64,0.2076118 11.49322,-0.00208 11.01803,-0.095985 11.80665,2.332826 1.97568,12.6574322 0.7901,19.6070072 -0.61696,30.5213702 -0.85792,6.654767 -0.46883,11.613597 -0.63898,13.139078 -0.16493,1.478571 -1.10407,6.971963 -0.95415,8.725671 0.92285,10.795138 2.35757,12.569144 1.0631,13.540951 -0.6809,0.511172 -1.64703,0.623626 -6.87324,0.8 -3.34453,0.112873 -6.11132,0.174601 -6.14841,0.137175 z m 9.36144,-2.482195 2.03945,-0.241754 -0.21404,-3.244003 c -0.11773,-1.784199 -0.33646,-3.784647 -0.48608,-4.44544 -0.42644,-1.88337 -0.30591,-7.589002 0.21179,-10.026196 0.32145,-1.51336 0.49817,-4.68944 0.5593,-10.052364 0.0904,-7.92938 0.42641,-10.986497 1.37028,-12.466338 0.62918,-0.986463 0.69378,-13.950647 0.0956,-19.193301 C 130.25872,6.5965658 131.88588,7.1646779 115.77447,6.900834 108.15452,6.7760481 100.84001,6.607233 99.520007,6.5256897 91.702605,6.0427665 34.623241,6.1298074 31.890046,6.6288193 l -2.829957,0.5166781 0.228182,4.3472516 c 0.1255,2.390988 0.335297,5.427251 0.466216,6.747251 0.23319,2.351164 0.103176,25.477773 -0.157412,28.000001 -0.322161,3.118204 -0.407365,12.362176 -0.132728,14.4 0.166036,1.232 0.38553,3.752 0.487764,5.6 0.102235,1.848 0.212764,3.387929 0.245621,3.42207 0.03286,0.03414 0.91981,-0.05866 1.971006,-0.206211 1.051194,-0.147555 4.647265,-0.293568 7.991265,-0.324474 10.720109,-0.09908 26.78468,-0.775817 27.396792,-1.154121 1.196711,-0.73961 15.044238,0.08631 21.286463,1.269603 2.264211,0.42921 5.988749,0.94288 8.276749,1.141491 2.288,0.198611 5.240003,0.639319 6.560003,0.979348 1.32,0.340032 2.904,0.657401 3.52,0.705267 2.35239,0.18279 18.17529,0.0072 20.11945,-0.223216 z M 49.225316,66.723966 c -0.11808,-0.121005 -2.248202,-0.32872 -4.733604,-0.461591 -4.642829,-0.248205 -5.814855,-0.594249 -4.463034,-1.317721 0.551594,-0.295204 1.870439,-0.331287 5.234356,-0.143207 6.361402,0.355674 11.879133,0.353264 18.896971,-0.0083 7.083213,-0.36488 12.753399,-0.371245 29.440002,-0.03305 8.365853,0.169555 13.457993,0.133347 16.320003,-0.116048 9.582,-0.83497 9.43898,-0.843632 8.5551,0.518099 -0.6074,0.935782 -12.16755,1.494582 -26.565558,1.284134 -8.598388,-0.125677 -12.187895,-0.07783 -12.040602,0.160496 0.115421,0.186755 -0.131875,0.117706 -0.549546,-0.153443 -0.756483,-0.491107 -6.310452,-0.54744 -9.727809,-0.09867 -2.121088,0.278544 -20.136071,0.605159 -20.366279,0.369245 z m 58.557134,-3.841488 c -0.0563,-0.05266 -1.11044,-0.174429 -2.34244,-0.270608 -7.169376,-0.5597 -7.294077,-0.611853 -6.657248,-2.784285 0.298205,-1.017271 0.409821,-2.246848 0.298336,-3.28648 -0.254812,-2.376189 -0.27128,-6.88865 -0.02659,-7.28458 0.472148,-0.763952 0.196144,-12.474685 -0.364726,-15.475248 -0.06361,-0.340294 -0.209322,-1.85952 -0.323805,-3.376055 -0.27873,-3.692289 -0.239184,-3.727571 4.066773,-3.628316 1.82999,0.04218 5.66527,0.128662 8.52286,0.192177 2.85759,0.06351 5.2836,0.203461 5.39113,0.310993 0.10753,0.107532 0.33039,1.897505 0.49523,3.977719 0.16484,2.080212 0.35997,4.120961 0.43362,4.534996 0.0737,0.414032 0.22101,2.502032 0.32746,4.64 0.22672,4.553706 0.30814,5.53119 0.76363,9.16721 0.5199,4.15023 0.67249,12.405341 0.23567,12.750189 -0.32646,0.257728 -10.57425,0.761868 -10.81991,0.532288 z m 5.43882,-2.133408 3.65875,-0.370935 -0.19531,-4.509065 c -0.10742,-2.479988 -0.33998,-5.445069 -0.51679,-6.589069 -0.17681,-1.144 -0.33451,-3.268 -0.35044,-4.72 -0.0254,-2.319328 -0.32948,-3.343981 -0.6801,-2.292109 -0.14483,0.434486 -7.5539,1.075273 -9.0934,0.786461 -1.17639,-0.220692 -1.72279,-0.94353 -1.14784,-1.51848 0.21823,-0.218237 2.17799,-0.319466 5.4406,-0.281031 5.82705,0.06865 5.68753,0.143779 5.00437,-2.694842 -0.21179,-0.88 -0.40218,-1.434361 -0.42309,-1.231916 -0.15888,1.538425 -10.27801,1.63254 -10.27801,0.09559 0,-0.616893 1.02905,-1.284733 1.44617,-0.93855 0.41381,0.343427 5.62695,0.395676 7.75383,0.07771 0.992,-0.148304 1.04,-0.220387 1.04,-1.561952 0,-1.526848 -0.0621,-1.53721 -5.28,-0.881344 -4.80272,0.60367 -5.6,0.479433 -5.6,-0.872627 0,-0.608173 0.99213,-1.035799 2.12533,-0.916055 0.32706,0.03456 2.41831,0.04626 4.6472,0.02598 l 4.05254,-0.03684 -0.14347,-1.36 c -0.0789,-0.748 -0.19824,-1.519717 -0.2652,-1.714928 -0.0798,-0.232816 -2.25046,-0.431598 -6.30906,-0.577776 -3.40304,-0.122567 -6.4169,-0.289432 -6.69748,-0.370811 -0.43084,-0.12496 -0.47919,0.06436 -0.31108,1.217776 0.4136,2.837663 0.40786,17.108152 -0.008,20.046831 -0.34911,2.466617 -0.34174,3.026838 0.0496,3.764777 0.32139,0.606096 0.43977,1.761063 0.39345,3.838615 -0.0663,2.971674 -0.0663,2.971674 0.96,3.135187 0.56444,0.08994 1.81826,0.294192 2.78626,0.453907 2.51455,0.41489 3.81169,0.414154 7.94126,-0.0045 z m -8.99136,-2.909069 c -0.43881,-1.223818 0.24473,-1.428666 4.89484,-1.466912 2.48077,-0.02042 4.63662,-0.115043 4.79077,-0.210314 0.56287,-0.347875 0.61297,0.406563 0.0602,0.9068 -1.0906,0.986976 -9.43174,1.646359 -9.74582,0.770426 z m 0.2205,-5.481741 c -0.54045,-1.4084 0.18621,-1.56416 7.5496,-1.618272 2.58412,-0.01898 2.72511,0.01597 2.82225,0.700013 0.0602,0.424176 -0.0712,0.733136 -0.32,0.751974 -0.23224,0.01757 -1.07025,0.06274 -1.86225,0.100349 -0.792,0.03761 -2.91392,0.184432 -4.71537,0.326285 -2.87495,0.226377 -3.29967,0.19455 -3.47423,-0.260349 z m -0.21301,-4.54753 c -1.22812,-1.228118 2.96699,-2.117056 7.69031,-1.629568 2.84585,0.293719 3.10224,1.536711 0.29508,1.430573 -0.91453,-0.03458 -3.03195,0.04946 -4.70539,0.186758 -1.67343,0.137296 -3.14943,0.142804 -3.28,0.01222 z M 37.512716,61.182609 c -0.292669,-0.193575 -0.412733,-1.42161 -0.42664,-4.363655 -0.01286,-2.724416 -0.180313,-4.590224 -0.500445,-5.576608 -0.449686,-1.385584 -0.546499,-3.012691 -1.198163,-20.137473 -0.111702,-2.935426 -0.253987,-2.858049 5.412535,-2.943463 21.842018,-0.329235 20.304155,-0.469599 22.080002,2.015292 0.96,1.343298 0.96,1.343298 0.988867,8.543298 0.01587,3.960001 0.117174,7.560001 0.225101,8.000001 1.03431,4.216643 1.459872,10.248873 0.821827,11.649225 -0.459392,1.00826 -1.009235,1.119735 -6.515796,1.321024 -2.464,0.09007 -4.696,0.229968 -4.96,0.310884 -0.264,0.08092 -2.784,0.305904 -5.600001,0.499968 -5.558278,0.383049 -5.938486,0.416694 -8.32,0.73622 -0.88,0.118071 -1.78328,0.09345 -2.007287,-0.05471 z m 12.567288,-2.501127 c 1.232,-0.09635 2.672,-0.23198 3.2,-0.301404 0.528,-0.06942 2.94,-0.223517 5.36,-0.342432 4.085297,-0.200746 4.400001,-0.26113 4.400001,-0.84425 0,-0.501373 -0.145213,-0.58488 -0.72,-0.414038 -1.860711,0.553043 -3.075924,0.56286 -3.97441,0.03211 -0.877133,-0.518135 -1.003757,-0.512349 -2.673169,0.122153 -4.055667,1.54146 -6.296877,0.437472 -4.797907,-2.363379 0.274931,-0.513709 0.307798,-1.023309 0.1052,-1.631101 -0.294656,-0.883965 -0.294656,-0.883965 -1.004259,0.318727 -0.390282,0.661478 -0.68936,1.369062 -0.664615,1.572409 0.18401,1.512218 -0.731715,2.02313 -1.768272,0.986573 -1.197581,-1.197581 1.780858,-7.191379 3.562887,-7.169942 0.535501,0.0064 2.334544,3.24287 2.334544,4.199782 0,0.233242 0.353421,0.273827 1.04,0.119427 0.572,-0.12863 1.369757,-0.308518 1.772794,-0.399747 0.594877,-0.134656 0.803811,0.02227 1.110153,0.833875 0.231399,0.613043 0.601668,0.999751 0.957252,0.999751 0.318937,0 0.662774,0.216 0.76408,0.48 0.234454,0.610973 0.859072,0.60847 2.051613,-0.0082 1.515379,-0.783626 1.120291,-4.311776 -0.482839,-4.311776 -0.978582,0 -3.373053,-1.925879 -3.373053,-2.712954 0,-0.973686 -0.149917,-0.987914 -1.76,-0.167046 -1.822819,0.929324 -4.483424,0.886828 -5.008532,-0.08 -0.95559,-1.759431 -0.178796,-6.284199 2.003079,-11.667786 0.574637,-1.417863 0.303024,-1.534663 -2.073088,-0.891479 -3.282391,0.888503 -4.319796,2.198007 -4.894541,6.178301 -0.160557,1.111911 -0.06623,1.558794 0.486976,2.30704 0.843875,1.141405 0.849744,1.41361 0.05809,2.694535 -0.948688,1.535008 -1.612557,4.511981 -1.607085,7.206621 0.0059,2.920729 0.08725,3.065603 1.989674,3.54464 3.032314,0.763542 2.425616,1.860016 -0.784861,1.418461 -2.784889,-0.383021 -3.958016,-2.745229 -3.299795,-6.644471 0.124953,-0.740224 0.3004,-1.776198 0.389875,-2.302163 0.08948,-0.525965 0.380442,-1.377395 0.646589,-1.892064 0.5396,-1.043475 0.605408,-2.310947 0.267478,-5.151635 -0.406819,-3.419751 0.966941,-6.98705 3.017837,-7.836561 0.532567,-0.220598 0.968304,-0.551616 0.968304,-0.735596 0,-0.183981 0.08361,-0.250903 0.185799,-0.148714 0.102189,0.102189 1.215587,-0.09957 2.474218,-0.448355 3.993434,-1.106637 5.337565,-0.263216 4.294637,2.694813 -2.442183,6.926704 -2.494525,7.123337 -2.404797,9.034413 0.112051,2.386611 0.631123,2.463158 3.770144,0.55599 2.326109,-1.41327 3.279767,-1.780214 4.533952,-1.744557 0.846423,0.02406 0.858618,-0.006 0.985162,-2.433533 0.321597,-6.169193 0.128099,-9.101952 -0.687053,-10.413238 L 60.064127,29.689345 48.776094,29.80732 c -6.208416,0.06489 -11.390036,0.219977 -11.514705,0.344646 -0.124669,0.124669 -0.04085,1.851481 0.186269,3.837362 0.227114,1.985882 0.437559,5.914692 0.467655,8.730692 0.04161,3.893459 0.193078,5.577155 0.632272,7.02832 0.39408,1.302096 0.564467,2.826928 0.536358,4.8 -0.0717,5.033005 -0.353498,4.753376 4.548925,4.513875 2.313924,-0.113043 5.215137,-0.284365 6.447137,-0.380714 z M 62.280232,48.149444 c -0.112999,-0.294471 -0.617418,-0.469443 -1.353338,-0.469443 -1.1732,0 -1.1732,0 -0.410045,0.592214 1.403114,1.088829 2.206845,1.03287 1.763383,-0.122771 z m -1.960228,-2.389443 c 0.108775,-0.176 -0.02672,-0.32 -0.301113,-0.32 -0.274387,0 -0.498887,0.144 -0.498887,0.32 0,0.176 0.135501,0.32 0.301114,0.32 0.165613,0 0.390112,-0.144 0.498886,-0.32 z m 24.480002,11.820544 c -1.144,-0.138538 -4.838954,-0.180304 -8.211008,-0.09281 -6.079402,0.157738 -6.132868,0.153219 -6.35179,-0.536541 -0.465334,-1.466137 -0.503974,-1.461273 9.442798,-1.188521 3.416192,0.09367 6.161959,0.03535 6.492087,-0.137898 1.190307,-0.624666 2.384883,0.40449 1.973606,1.70031 -0.202137,0.63688 -0.198435,0.636596 -3.345693,0.255463 z m -15.317604,-7.12946 c -0.888624,-1.070726 0.02416,-1.373388 4.917603,-1.630572 4.688599,-0.246416 10.727777,-0.161716 11.580312,0.162419 0.436368,0.165904 0.912012,0.228339 1.056988,0.138736 0.144977,-0.0896 0.593671,-0.04081 0.997101,0.108432 1.308544,0.484064 -0.549286,1.388067 -2.648416,1.288697 -0.938291,-0.04442 -2.048016,0.03411 -2.466058,0.174503 -0.566812,0.190361 -0.697955,0.154755 -0.515763,-0.140035 0.248016,-0.4013 -3.368458,-0.33024 -9.934218,0.195196 -2.120429,0.16969 -2.643098,0.117664 -2.987549,-0.297376 z m -0.680051,-7.516969 c -0.624413,-0.208138 -0.312618,-1.033655 0.508291,-1.345763 1.41567,-0.538237 12.303639,-0.409671 17.329364,0.204627 1.01346,0.123878 1.36,0.307683 1.36,0.72135 0,0.514583 -0.689036,0.554096 -9.437655,0.541175 -5.19071,-0.0077 -9.582711,-0.06229 -9.76,-0.121389 z m 18.878939,-6.08026 c -0.615293,-0.05838 -1.263293,-0.218387 -1.440001,-0.355564 -0.43576,-0.338292 -6.619622,-0.397818 -8.801283,-0.08472 -2.665015,0.382461 -8.231227,-0.07403 -8.961534,-0.734956 -1.345523,-1.21768 -0.111814,-1.876004 2.414938,-1.28864 1.22959,0.285827 4.378768,0.438752 9.550545,0.463776 6.612906,0.032 7.864739,0.115568 8.756051,0.584563 1.826794,0.961225 1.0753,1.661667 -1.518716,1.415545 z M 69.252197,31.202471 c -1.125811,-1.718204 -0.823834,-1.790566 7.14186,-1.71141 11.750247,0.116763 12.574973,0.183502 12.449236,1.00741 -0.105005,0.688042 -0.129783,0.68991 -8.328964,0.627849 -6.960708,-0.05269 -8.251226,0.0096 -8.403223,0.405717 -0.312541,0.814469 -2.256109,0.590421 -2.858909,-0.329566 z M 58.951396,18.832041 c -2.323043,-0.207465 -3.271392,-0.616112 -3.271392,-1.409656 0,-0.539016 0.826765,-0.755212 2.24,-0.58575 0.616,0.07386 8.564644,0.190793 17.663649,0.259842 9.099009,0.06905 16.685845,0.213425 16.85964,0.320836 0.536013,0.331274 0.255907,1.451557 -0.416278,1.6649 -0.796628,0.25284 -29.908828,0.03265 -33.075619,-0.250172 z M 43.598067,12.553469 c -1.087206,-0.951608 -0.293177,-1.373846 2.86089,-1.521327 3.047101,-0.142479 5.112058,-0.333735 8.741047,-0.809592 3.657827,-0.4796392 31.46318,-0.681714 34.080002,-0.2476756 1.171671,0.1943386 7.004372,0.3624936 13.356404,0.3850616 11.85399,0.04212 12.46059,0.120217 11.14577,1.435035 -0.70942,0.709415 -11.20163,0.875912 -20.607892,0.327019 -11.068183,-0.645873 -34.447458,-0.435544 -39.894284,0.358904 -4.891021,0.713381 -8.915354,0.743547 -9.681937,0.07258 z M 29.600002,8.0000001 c 0.108774,-0.176 0.261272,-0.32 0.338886,-0.32 0.07761,0 0.141114,0.144 0.141114,0.32 0,0.176 -0.152498,0.32 -0.338885,0.32 -0.186387,0 -0.249889,-0.144 -0.141115,-0.32 z M 27.723943,65.200001 c -0.112668,-1.452 -0.343296,-3.770643 -0.512506,-5.152538 -0.329019,-2.687024 -0.101941,-11.247462 0.298355,-11.247462 0.02132,0 0.123574,-4.927495 0.227237,-10.949988 l 0.18848,-10.949986 -1.722754,0.179917 c -0.947514,0.09896 -3.450753,0.406 -5.562754,0.682325 -2.112,0.276323 -6.216,0.591707 -9.12,0.700852 -5.8352169,0.219313 -6.5300624,0.377721 -6.2057869,1.414775 0.2691658,0.860809 6.8794139,13.745986 7.1627249,13.962105 0.11536,0.088 0.31591,0.448 0.445669,0.8 0.268367,0.728009 2.701191,5.119024 3.900485,7.04 0.439518,0.704 1.018742,1.763996 1.287165,2.355552 0.585221,1.289718 2.210686,3.773011 3.904087,5.964448 0.680008,0.88 1.577364,2.176 1.994126,2.88 0.416761,0.704 0.853256,1.352 0.969989,1.44 0.116733,0.088 0.436114,0.592 0.709736,1.12 0.516561,0.99679 1.714357,2.4 2.048668,2.4 0.105562,0 0.09975,-1.188 -0.01292,-2.64 z"
     id="path1026"
     inkscape:connector-curvature="0"
     sodipodi:nodetypes="ccssssssccsssccsssssscsscscsssssccssscsccccsccccssscsssssccscsscsccssscsscsccscccscsccsccssccccccccssccscsccsccscssccccsscccccsccccccccscccccscscscccccssscccscscccccssccscsccscscccsccsscssssccccscccscsssscscsscsscscsscccssccsssccssccccccsccccccsccccsccccccsscccsscscscscsssccsssscssccssssscsssccsssccscscssscc" />
</svg>
