<?xml version="1.0" encoding="UTF-8" standalone="no"?>
<!-- Created with Inkscape (http://www.inkscape.org/) -->

<svg
   xmlns:dc="http://purl.org/dc/elements/1.1/"
   xmlns:cc="http://creativecommons.org/ns#"
   xmlns:rdf="http://www.w3.org/1999/02/22-rdf-syntax-ns#"
   xmlns:svg="http://www.w3.org/2000/svg"
   xmlns="http://www.w3.org/2000/svg"
   xmlns:sodipodi="http://sodipodi.sourceforge.net/DTD/sodipodi-0.dtd"
   xmlns:inkscape="http://www.inkscape.org/namespaces/inkscape"
   version="1.1"
   id="svg1388"
   width="204.8"
   height="136.96001"
   viewBox="0 0 204.8 136.96001"
   sodipodi:docname="open_book.svg"
   inkscape:version="0.92.4 5da689c313, 2019-01-14">
  <metadata
     id="metadata1394">
    <rdf:RDF>
      <cc:Work
         rdf:about="">
        <dc:format>image/svg+xml</dc:format>
        <dc:type
           rdf:resource="http://purl.org/dc/dcmitype/StillImage" />
        <dc:title></dc:title>
      </cc:Work>
    </rdf:RDF>
  </metadata>
  <defs
     id="defs1392" />
  <sodipodi:namedview
     pagecolor="#ffffff"
     bordercolor="#666666"
     borderopacity="1"
     objecttolerance="10"
     gridtolerance="10"
     guidetolerance="10"
     inkscape:pageopacity="0"
     inkscape:pageshadow="2"
     inkscape:window-width="3200"
     inkscape:window-height="1745"
     id="namedview1390"
     showgrid="false"
     inkscape:zoom="6.3037108"
     inkscape:cx="105.98501"
     inkscape:cy="93.158085"
     inkscape:window-x="0"
     inkscape:window-y="55"
     inkscape:window-maximized="1"
     inkscape:current-layer="svg1388" />
  <path
     style="fill:#000000;stroke-width:0.32000002"
     d="m 113.92,130.57922 c -0.616,-0.12496 -2.22485,-0.95306 -3.57523,-1.84023 -3.65651,-2.40225 -4.38378,-2.47202 -23.095525,-2.21574 -14.674899,0.201 -17.95432,0.27422 -29.809245,0.66563 -2.816,0.093 -6.344,0.0257 -7.84,-0.14945 -4.480099,-0.5246 -10.573901,-0.67088 -12.96,-0.3111 -1.232,0.18577 -2.744,0.41397 -3.36,0.50713 -0.616,0.0932 -3.051589,0.53346 -5.412421,0.97844 -8.897148,1.67698 -10.098942,0.79653 -10.119717,-7.41389 -0.0067,-2.64 -0.107105,-5.376 -0.223166,-6.08 -0.116061,-0.704 -0.443102,-3.728 -0.726757,-6.72 -0.283655,-2.992 -0.718595,-7.024 -0.966534,-8.960003 -0.846481,-6.609639 -1.053243,-9.047098 -1.262225,-14.880001 -0.06621,-1.848 -0.274327,-5.931424 -0.462481,-9.074279 -0.188154,-3.142855 -0.262635,-5.842855 -0.165513,-6 0.09712,-0.157146 0.06009,-0.285722 -0.0823,-0.285722 -0.142386,0 -0.271082,-0.612 -0.28599,-1.36 -0.05807,-2.913539 -0.482812,-12.298558 -0.604645,-13.360001 -0.0707,-0.616 -0.206315,-2.848 -0.301358,-4.96 -0.09504,-2.112001 -0.283974,-5.928001 -0.419848,-8.480001 -0.469599,-8.820041 -0.159946,-25.317694 0.495508,-26.399619 0.106497,-0.175789 0.19899,-0.607297 0.20554,-0.958907 0.01564,-0.839769 1.651615,-1.398925 4.171908,-1.425911 2.011897,-0.02154 2.72,-0.623759 2.72,-2.3132655 0,-0.701841 0.579173,-0.8343859 4.48,-1.025256 C 35.06912,7.9910831 42.708602,7.3247097 43.212,6.8691413 44.009098,6.147778 46.836416,5.4259578 50.24,5.0748788 c 3.633469,-0.3747917 4.771706,-0.2068701 5.765059,0.8505076 1.20177,1.2792244 2.554682,1.4674433 11.674941,1.6242318 4.752,0.081693 9.964746,0.2979465 11.583882,0.4805638 1.619136,0.1826173 4.787136,0.4509213 7.04,0.5962311 2.252864,0.1453098 6.858742,0.5971633 10.23528,1.0041188 4.707208,0.5673341 6.311968,0.6568341 6.879998,0.3837111 1.39208,-0.6693377 1.96724,-0.7598494 2.22086,-0.3494903 0.20264,0.3278791 0.45497,0.3257229 1.30558,-0.011155 2.0404,-0.8080807 7.48093,-2.050915 9.8544,-2.2511368 2.95515,-0.2492919 33.51087,0.3304551 39.68,0.7528663 2.74773,0.1881414 6.73922,0.476233 9.12,0.6582487 1.056,0.080733 4.92877,0.2875962 8.60617,0.4596954 3.67739,0.1720992 6.9219,0.3877277 7.21003,0.4791747 0.28812,0.091447 1.80808,0.2259796 3.37768,0.298961 2.26387,0.105263 2.93986,0.250345 3.26998,0.701806 0.22888,0.313011 0.41614,0.407292 0.41614,0.209513 0,-0.714501 3.34474,-1.0652988 5.6,-0.587331 0.352,0.0746 0.73772,0.146656 0.85714,0.160122 0.85951,0.09691 1.1305,1.100205 1.14544,4.240773 0.009,1.817041 0.11499,5.103711 0.23633,7.303712 0.12133,2.2 0.24993,7.168 0.28576,11.04 0.0358,3.872001 0.26498,8.948055 0.5092,11.28012 0.36619,3.49671 0.37406,4.983485 0.0448,8.48 -0.30421,3.231044 -0.31367,4.925149 -0.0398,7.119882 0.77911,6.242631 0.76842,5.574033 0.68055,42.560006 -0.0125,5.28 0.0312,10.104 0.0972,10.72 0.38884,3.62864 0.57661,5.01265 0.73808,5.44 0.64589,1.70954 0.2813,2.74897 -1.29988,3.70582 -0.89193,0.53975 -1.65477,0.61418 -6.29492,0.61418 -2.904,0 -8.376,0.12519 -12.16,0.27819 -5.56916,0.2252 -7.79789,0.18077 -11.69759,-0.23319 -3.96142,-0.4205 -5.86657,-0.45469 -10.72,-0.19238 -3.24633,0.17545 -8.78241,0.32042 -12.30241,0.32216 -8.16896,0.004 -17.41637,0.70179 -18.4505,1.39218 -0.41223,0.2752 -1.4695,1.43457 -2.3495,2.57636 -1.59279,2.06665 -2.16825,2.44392 -4.96,3.25175 -1.57315,0.45521 -2.75848,0.49335 -4.48,0.14414 z m 6.24379,-8.72208 c 0.95374,-1.13344 1.09347,-2.05262 0.23621,-1.55379 -1.09388,0.63651 -2.32,2.06471 -2.32,2.70236 0,0.43008 1.40888,-0.34648 2.08379,-1.14857 z m -7.20379,0.58205 c 0,-0.0665 -0.252,-0.31845 -0.56,-0.56 -0.50754,-0.39804 -0.51886,-0.38672 -0.12082,0.12082 0.41804,0.53304 0.68082,0.70255 0.68082,0.43918 z m -85.910993,-1.35386 c -0.238171,-0.45908 -0.592639,-2.00708 -0.787707,-3.44 -0.195067,-1.43293 -0.478273,-3.46932 -0.629347,-4.52532 l -0.274679,-1.92 -0.03864,1.80609 c -0.04189,1.95825 0.536665,8.23034 0.798231,8.65356 0.0885,0.14319 0.431865,0.26035 0.76304,0.26035 0.546298,0 0.561979,-0.0774 0.169099,-0.83468 z m 90.531153,-2.20232 c 1.69195,-1.69196 1.48226,-1.7866 -1.08597,-0.49016 -2.32469,1.17349 -2.41592,1.31524 -1.55279,2.41253 0.67928,0.86357 0.69754,0.86744 0.94422,0.20061 0.13834,-0.37399 0.90089,-1.32933 1.69454,-2.12298 z M 85.12,121.00188 c 0,-0.39877 -2.003635,-0.67428 -4.933334,-0.67835 -3.354487,-0.005 -2.997642,0.21195 0.758963,0.46071 1.664093,0.1102 3.092093,0.26682 3.173331,0.34806 0.256707,0.25671 1.00104,0.15973 1.00104,-0.13042 z m -43.68,-1.83252 c 8.912358,-1.29105 12.559216,-1.69909 16.8,-1.87974 2.552,-0.10871 7.376,-0.32241 10.72,-0.47488 3.344,-0.15248 8.229459,-0.2974 10.856579,-0.32206 2.627117,-0.0247 4.876327,-0.10648 4.998247,-0.18183 0.121916,-0.0754 0.924457,-0.21106 1.78342,-0.30157 12.698983,-1.33814 17.386144,-1.43603 20.920734,-0.43693 2.97548,0.84107 2.83509,0.97299 2.35444,-2.21234 -0.72293,-4.79101 -1.06439,-9.56551 -1.23009,-17.200003 -0.0879,-4.048 -0.30859,-8.368001 -0.49051,-9.600001 -0.18192,-1.232 -0.47016,-3.824 -0.64053,-5.76 -0.17037,-1.936 -0.46731,-4.672 -0.65988,-6.080001 -0.19256,-1.408 -0.40221,-3.64 -0.46588,-4.96 -0.26804,-5.556999 -0.54293,-10.453191 -0.62882,-11.200001 -0.0506,-0.44 -0.18779,-2.168 -0.30485,-3.84 -0.11707,-1.672 -0.49336,-5.92 -0.8362,-9.440001 -0.34285,-3.52 -0.75636,-8.92 -0.91891,-12.000001 -0.16256,-3.08 -0.37694,-6.32 -0.47639,-7.2 -0.0995,-0.88 -0.21695,-4.291607 -0.2611,-7.581349 -0.0912,-6.794989 0.17749,-6.232631 -3.12026,-6.531031 -1.500672,-0.13579 -3.614147,-0.401212 -7.36,-0.92431 -0.44,-0.06144 -3.032,-0.272689 -5.76,-0.469434 C 83.992,10.377134 80.824,10.074648 79.68,9.9016871 77.90056,9.6326545 72.560301,9.4504529 58.404374,9.1757946 55.528749,9.1200007 55.528749,9.1200007 55.082058,10.400001 54.641594,11.662167 54.321776,17.27967 54.690342,17.280352 54.794656,17.280545 54.88,18.360525 54.88,19.680307 v 2.399603 l 4.16,0.0088 c 8.913853,0.01877 15.973603,0.774605 13.998006,1.498664 -0.221097,0.08103 -0.307264,0.300606 -0.191484,0.487943 0.14639,0.236864 -0.608388,0.27459 -2.478007,0.123858 -1.478681,-0.119214 -5.540729,-0.293442 -9.026768,-0.387174 l -6.338253,-0.17042 0.204832,2.659231 c 0.11266,1.462578 0.248912,3.811232 0.302781,5.219232 0.05387,1.408 0.113907,2.719287 0.133418,2.913972 0.07054,0.703817 30.393229,1.132118 40.231382,0.568262 2.770832,-0.158806 3.613479,-0.110656 3.816659,0.218096 0.155367,0.251392 0.107719,0.472909 -0.117904,0.548115 -0.208256,0.06942 -0.30366,0.247552 -0.212009,0.395847 0.09165,0.148297 -0.08745,0.348669 -0.398007,0.44527 -0.730435,0.22721 -33.245456,0.32464 -38.484646,0.115319 -4.015085,-0.160413 -4.934019,-0.08062 -4.635414,0.402541 0.0885,0.1432 0.238595,1.59903 0.333542,3.235181 0.09494,1.63615 0.2384,3.040595 0.318794,3.120985 0.08039,0.08039 2.174467,-0.03833 4.6535,-0.26383 4.923978,-0.447898 5.809802,-0.269462 4.597133,0.926013 -0.518217,0.51087 -1.26872,0.652931 -4.307555,0.815373 -5.403629,0.288851 -5.12593,0.166262 -4.895584,2.161104 0.10655,0.922765 0.279645,1.713654 0.384656,1.75753 0.105011,0.04388 0.170829,0.994601 0.146266,2.112723 -0.08833,4.020474 -0.799434,3.678253 7.677459,3.694762 4.073961,0.0079 8.631203,-0.11617 10.127203,-0.275786 3.848854,-0.410653 8.539798,-0.626928 17.891206,-0.824877 4.472164,-0.09467 8.251914,-0.24672 8.399434,-0.337897 0.14753,-0.09118 0.55657,0.03618 0.90897,0.283008 0.6093,0.426771 0.61316,0.473737 0.0788,0.957344 -0.47558,0.430393 -2.03711,0.540518 -10.160176,0.716518 -13.121766,0.284307 -14.523853,0.341671 -18.558224,0.759267 -1.936,0.200397 -6.328,0.398285 -9.76,0.439757 l -6.24,0.07541 0.09409,1.12 c 0.08176,0.973277 0.31689,2.36992 0.908452,5.396173 0.144694,0.740221 0.199814,0.751565 2.612636,0.537607 C 62.410829,63.413569 64.024,63.194837 64.64,63.04771 c 0.616,-0.147126 2.776,-0.356784 4.8,-0.465904 2.024,-0.109123 5.12,-0.333533 6.88,-0.498688 1.76,-0.165155 5.936,-0.318947 9.28,-0.34176 3.344,-0.02282 7.441395,-0.137174 9.105322,-0.254141 4.304521,-0.302585 6.254678,-0.06787 6.254678,0.752788 0,0.734246 -3.576029,1.009177 -14.076093,1.082198 -9.018057,0.06271 -23.467504,1.195648 -27.537539,2.159136 -0.612266,0.144941 -0.633869,0.274218 -0.341392,2.042701 l 0.312237,1.887965 6.901392,-0.210736 c 11.595897,-0.354086 32.90351,-0.286746 33.295699,0.105226 1.195026,1.194387 0.529096,1.25127 -15.437968,1.318681 -15.497062,0.06543 -24.203242,0.309543 -24.62031,0.690336 -0.123184,0.112471 -0.08257,0.833805 0.09026,1.602967 0.172828,0.769162 0.345616,2.244874 0.383974,3.279363 0.04421,1.192205 0.208026,1.881124 0.447405,1.881527 0.271833,3.2e-4 0.296262,0.284464 0.08717,1.01351 -0.159766,0.557082 -0.227088,1.313082 -0.149603,1.68 0.213632,1.011601 0.808896,9.39732 0.932768,13.140213 0.032,0.966915 0.032,0.966915 2.752,1.174518 2.873062,0.219287 33.11145,0.03918 35.448614,-0.211139 1.268766,-0.135888 1.344666,-0.101834 1.040336,0.466806 -0.507382,0.948055 -0.734006,0.967373 -13.140572,1.120013 -16.587904,0.204083 -26.615885,0.526759 -27.288832,0.878087 -0.392253,0.204787 -0.733162,0.17631 -1.051424,-0.08783 C 58.49769,96.82993 58.68047,96.834055 43.2,96.896756 31.631547,96.94361 30.171777,96.868916 29.49863,96.19578 c -0.888381,-0.888381 0.72222,-1.066195 9.331946,-1.030279 4.548819,0.01898 8.320518,-0.04632 8.381562,-0.1451 0.06104,-0.09878 -0.028,-1.610781 -0.197834,-3.360001 -0.16985,-1.749216 -0.375498,-4.548394 -0.456998,-6.220394 -0.290564,-5.961027 -0.197716,-5.759658 -2.656912,-5.762291 -1.177216,-0.0013 -5.082871,0.230406 -8.679229,0.514816 -6.260875,0.495126 -6.556739,0.49262 -6.96,-0.05887 -1.046879,-1.431693 0.01901,-1.647056 9.456806,-1.910755 l 8.372602,-0.233936 -0.03779,-2.948186 c -0.0208,-1.621504 -0.15088,-3.131171 -0.289101,-3.354816 -0.409629,-0.662797 -8.081161,-0.316765 -15.289983,0.689673 -2.473055,0.345268 -2.676105,0.329354 -3.101545,-0.243091 -1.113154,-1.497782 0.291636,-1.836931 9.267845,-2.237485 2.288,-0.102102 4.52,-0.234416 4.96,-0.294035 0.44,-0.05962 1.558742,-0.120237 2.486096,-0.13471 1.580138,-0.02467 1.675437,-0.07156 1.516454,-0.746314 -0.09331,-0.396 -0.216822,-1.512 -0.274486,-2.48 -0.124352,-2.087482 0.290077,-1.979104 -5.968064,-1.560707 -4.499562,0.300825 -5.19423,0.379593 -7.84,0.888966 -2.48628,0.478666 -4.237725,-1.013968 -2.16,-1.840819 0.862455,-0.343223 1.932809,-0.427476 11.234426,-0.884314 l 4.594425,-0.225651 -0.233197,-1.62874 C 44.827397,60.092937 44.746975,58.739605 44.77694,57.981336 l 0.05448,-1.378672 -8.095709,0.01949 c -10.710942,0.02576 -12.248387,-0.208803 -11.646625,-1.776969 0.174877,-0.455725 0.580743,-0.493197 3.1558,-0.291364 1.625312,0.127396 5.947811,0.256884 9.605551,0.287757 l 6.650436,0.05613 -0.196484,-3.368849 c -0.360976,-6.189146 -0.217817,-5.938944 -3.355836,-5.865168 -1.489706,0.03502 -3.500554,0.15009 -4.468554,0.255699 -0.968,0.105613 -2.97639,0.323027 -4.463088,0.483146 -1.729607,0.186278 -2.838626,0.178637 -3.07944,-0.02122 C 28.730478,46.209533 28.325033,46.159571 28.036484,46.270298 27.382886,46.521091 26.56,45.872343 26.56,45.106246 c 0,-0.679689 1.172031,-1.009436 3.236038,-0.910454 2.611559,0.125245 13.705716,-0.446426 13.5501,-0.698221 -0.125834,-0.203603 -0.386778,-3.939895 -0.451565,-6.46569 -0.01424,-0.555389 -5.62848,-0.586947 -9.934573,-0.05584 -4.017756,0.495542 -7.431732,0.546115 -7.705205,0.114138 -0.867806,-1.370775 -0.393003,-1.522228 5.397511,-1.721713 5.08403,-0.175142 12.050388,-0.520496 12.095582,-0.599628 0.01533,-0.02685 -0.08242,-1.200833 -0.217232,-2.608833 -0.134816,-1.408 -0.255366,-3.676 -0.267888,-5.04 -0.02277,-2.48 -0.02277,-2.48 -1.427318,-2.48 -0.912903,0 -1.668983,-0.216073 -2.16,-0.617286 -1.004631,-0.820893 -0.540557,-1.263571 1.589056,-1.515791 1.969779,-0.233292 1.889427,0.27472 1.02184,-6.460488 -0.432557,-3.357978 -0.533751,-5.0989 -0.319642,-5.498966 C 41.631254,9.3057504 41.398413,9.1796794 38.8,9.3743159 34.644438,9.6855921 24.239759,10.556031 22.88,10.706157 c -0.704,0.07773 -1.405632,0.148639 -1.559182,0.157582 -0.617331,0.03596 0.567957,0.976262 1.230613,0.976262 1.117208,0 2.770245,0.674493 2.637958,1.076373 -0.06583,0.199995 -0.842981,0.40641 -1.726997,0.458701 l -1.607302,0.09507 0.09336,5.184927 c 0.08922,4.954854 0.327908,9.672524 0.610662,12.069771 0.144028,1.221101 0.367303,2.972035 0.631868,4.955156 1.244541,9.328768 1.920839,28.473528 1.283023,36.320002 -0.424773,5.225588 -0.442404,6.256884 -0.147713,8.640001 0.163228,1.32 0.364907,3.768 0.448176,5.44 0.249112,5.002058 0.78659,10.758164 1.464127,15.680008 0.351306,2.552 0.93407,6.944 1.29503,9.76 0.360959,2.816 0.820103,5.89221 1.020318,6.83603 l 0.364029,1.71604 4.661014,-0.21959 C 36.142544,119.73172 39.68,119.42431 41.44,119.16936 Z m 24.32,-6.54797 c -11.525235,-0.79228 -21.314918,-0.89602 -27.473904,-0.29113 -5.372461,0.52764 -7.138705,0.43497 -7.353338,-0.38578 -0.253232,-0.96837 -0.10146,-1.11057 1.628096,-1.52549 2.971232,-0.71278 23.411776,-0.36051 36.399146,0.62731 3.597542,0.27362 23.114288,0.41272 30.72,0.21893 2.3643,-0.0602 2.56,-0.0165 2.56,0.57164 0,0.44866 -0.28368,0.69751 -0.96,0.84213 -1.338611,0.28625 -31.223098,0.23777 -35.52,-0.0576 z m 24.128262,-6.83979 c -0.07612,-0.0761 -3.592121,-0.22434 -7.813331,-0.32938 -4.221213,-0.10505 -8.682931,-0.32346 -9.914931,-0.48535 -5.147197,-0.67641 -11.277834,-0.88149 -19.04,-0.63691 -1.672,0.0527 -4.912,0.0708 -7.2,0.0401 -4.61848,-0.0618 -8.066826,0.12328 -10.72,0.57526 -4.846394,0.8256 -6.030812,0.80204 -6.263382,-0.1246 -0.117414,-0.46781 -0.139333,-0.92471 -0.04871,-1.01534 0.310934,-0.31093 5.833821,-1.04582 9.67209,-1.28699 7.323059,-0.46013 25.741616,-0.53655 28.32,-0.11751 4.983088,0.80986 19.56488,1.61034 29.53512,1.62136 3.947992,0.004 4.685322,0.28455 3.741502,1.42179 -0.372932,0.44935 -9.845176,0.76071 -10.26836,0.33752 z m -16.484598,13.29896 c 2.797357,-0.50672 2.521341,-0.62349 -1.145853,-0.48474 -1.813795,0.0686 -5.279526,0.17435 -7.701619,0.23495 -4.531715,0.11339 -6.132701,0.38421 -2.896477,0.48996 1.005063,0.0328 1.858784,0.0911 1.897162,0.1295 0.218873,0.21888 8.265264,-0.0832 9.846787,-0.36967 z M 58.8,119.13942 c -0.308,-0.0805 -0.812,-0.0805 -1.12,0 -0.308,0.0805 -0.056,0.14635 0.56,0.14635 0.616,0 0.868,-0.0659 0.56,-0.14635 z m 32.24,-0.79971 c 4.056061,0.16158 15.60972,0.006 16.21139,-0.21819 2.69895,-1.00602 -8.473214,-1.24835 -17.65139,-0.38287 -5.102221,0.48113 -7.105491,1.08545 -2.56,0.77227 1.672,-0.1152 3.472,-0.19224 4,-0.17121 z m 83.2,-0.27033 c 1.0785,-0.18507 0.0913,-0.22299 -3.02895,-0.11635 -2.54593,0.087 -4.69393,0.22319 -4.77333,0.3026 -0.25225,0.25224 6.13556,0.0998 7.80228,-0.18625 z m 13.52573,-0.21802 c -0.48085,-0.073 -1.34485,-0.0745 -1.92,-0.003 -0.57515,0.0712 -0.18173,0.13096 0.87427,0.13275 1.056,0.002 1.52658,-0.0565 1.04573,-0.12949 z m -72.79087,-1.37532 c 3.48961,-2.05892 10.45811,-2.64339 29.50514,-2.47471 6.22103,0.0551 10.31627,0.0359 18.24,-0.0853 2.112,-0.0323 6.072,0.10099 8.8,0.29623 2.728,0.19523 6.184,0.40567 7.68,0.46763 2.96898,0.12299 9.20324,-0.55516 9.7036,-1.05552 0.2037,-0.2037 0.10758,-1.51791 -0.27564,-3.76859 -0.67075,-3.93945 -0.77671,-9.20205 -0.30796,-15.295813 0.33025,-4.2933 0.36392,-43.947143 0.0402,-47.360004 -0.55598,-5.861654 -0.83611,-11.606039 -0.99873,-20.480001 -0.1,-5.456 -0.25181,-10.424001 -0.33738,-11.040001 -0.34566,-2.48836 -0.50025,-3.184573 -0.74002,-3.332757 -0.50523,-0.312248 -5.84761,-0.840198 -11.59234,-1.14559 C 171.45128,11.02939 166.64,10.743477 164,10.566291 153.38346,9.853753 145.41707,9.5775873 131.68,9.4458733 116.37698,9.2991447 115.38044,9.3664183 110.24,10.893235 c -1.232,0.365929 -2.67054,0.770254 -3.19676,0.898501 -0.52622,0.128247 -1.1244,0.56944 -1.3293,0.980429 -0.39144,0.785143 -0.40966,9.951774 -0.0284,14.267837 0.10884,1.232 0.28239,4.616 0.38566,7.520001 0.16689,4.69296 0.49911,9.394128 0.97237,13.760001 0.0859,0.792 0.30315,3.96 0.48288,7.04 0.17973,3.08 0.39597,5.96 0.48054,6.400001 0.0846,0.44 0.22739,2.744 0.31739,5.12 0.09,2.376 0.37106,5.76 0.62459,7.52 0.25353,1.760001 0.52659,4.208001 0.60681,5.440001 0.0802,1.232 0.44188,4.4 0.80369,7.04 0.45167,3.295661 0.66007,6.555063 0.66493,10.400001 0.007,5.221153 0.37277,9.445553 1.42845,16.480003 0.23771,1.584 0.36857,2.988 0.29078,3.12 -0.2858,0.48501 1.17178,0.22111 2.2312,-0.40397 z m 1.83553,-7.01661 c -0.18267,-0.34132 -0.22373,-0.68141 -0.0913,-0.75576 0.53252,-0.29886 2.09153,-0.55712 4.30665,-0.71344 1.28381,-0.0906 4.20621,-0.3051 6.49421,-0.47669 6.26053,-0.46951 10.72,-0.41656 10.72,0.12729 0,0.98693 -0.96141,1.23497 -5.19838,1.34119 -2.33289,0.0585 -6.04162,0.32661 -8.24162,0.59582 -5.66188,0.69287 -7.57056,0.66458 -7.98961,-0.11841 z M 166.4,102.67839 c -13.62583,-0.62711 -24.22879,-0.9069 -40.96,-1.08083 -5.896,-0.0613 -10.828,-0.12181 -10.96,-0.1345 -0.57156,-0.0549 -0.17048,-1.23211 0.55143,-1.618464 0.76771,-0.410864 14.93933,-0.302355 20.00857,0.153203 0.968,0.08699 4.856,0.214631 8.64,0.283631 3.784,0.069 11.416,0.29934 16.96,0.51185 5.544,0.21252 12.90077,0.29422 16.34838,0.18157 5.19473,-0.16974 6.3327,-0.12731 6.64395,0.24771 0.77603,0.93507 -0.41172,1.26559 -5.00152,1.39182 -2.41495,0.0664 -5.11081,0.15603 -5.99081,0.19915 -0.88,0.0431 -3.688,-0.0177 -6.24,-0.13514 z m 9.92,-9.885436 c -3.85273,-0.388355 -12.00891,-0.634397 -26.4,-0.796384 -7.392,-0.0832 -14.88,-0.22223 -16.64,-0.308947 -1.76,-0.08672 -6.56989,0.006 -10.68865,0.206102 -7.06631,0.343251 -7.51228,0.331456 -7.9076,-0.209181 -0.29336,-0.401187 -0.3247,-0.749049 -0.10457,-1.160384 0.28984,-0.541571 0.88227,-0.590576 7.58761,-0.627619 4.00026,-0.02211 7.48921,-0.04141 7.75321,-0.0429 2.10893,-0.01194 25.23364,0.431052 29.28,0.560921 2.816,0.09038 7.208,0.229021 9.76,0.30809 12.52916,0.388208 14.18932,0.628902 13.13125,1.903795 -0.44727,0.538938 -1.71399,0.575485 -5.77125,0.166509 z M 147.81685,83.070915 C 147.15002,82.40759 126.16,81.769084 120.72333,82.246742 c -3.81994,0.335613 -4.77304,0.204867 -5.0583,-0.693904 -0.50967,-1.605824 -0.18913,-1.645667 11.20509,-1.392819 11.43697,0.253798 11.01988,0.237337 16.64988,0.657174 2.112,0.157495 4.14013,0.252349 4.50697,0.210784 0.78089,-0.08848 1.99416,1.088887 1.54947,1.503623 -0.37585,0.350534 -1.57873,0.719216 -1.75959,0.539315 z m 19.51725,-9.269089 c -0.42511,-0.379504 -12.07045,-0.633974 -31.45514,-0.687344 -20.89123,-0.05752 -22.05792,-0.09086 -22.36475,-0.639146 -0.24041,-0.429577 -0.19907,-0.669609 0.16059,-0.932604 0.72184,-0.527821 34.23075,-0.31081 47.4452,0.30727 2.464,0.115248 8.42805,0.232147 13.25344,0.259773 8.77766,0.05026 9.33287,0.125168 8.67314,1.17023 -0.27973,0.443095 -15.24397,0.940068 -15.71248,0.521821 z M 113.17333,62.82667 c -0.48237,-0.482374 -0.18192,-1.380589 0.50667,-1.514685 0.72461,-0.141107 8.7436,-0.676246 15.62878,-1.042969 3.36915,-0.17945 3.72882,-0.145293 3.92771,0.373001 0.39684,1.034157 -0.66156,1.823514 -1.71477,1.278877 -0.48432,-0.250451 -0.93483,-0.404026 -1.00115,-0.34128 -0.0663,0.06275 -1.56057,0.209111 -3.32057,0.325248 -1.76,0.116141 -4.70107,0.419059 -6.5357,0.673152 -3.51745,0.487162 -7.13246,0.607159 -7.49097,0.248656 z m -2.11535,-8.073063 c -0.23427,-0.437753 -0.20926,-0.702064 0.0899,-0.950374 0.62695,-0.520324 10.42377,-1.352007 17.81209,-1.512125 3.608,-0.07819 6.73539,-0.205389 6.94975,-0.282659 0.21437,-0.07727 0.46326,-0.02157 0.55311,0.123824 0.0898,0.145372 0.75595,0.155952 1.48023,0.02352 1.19102,-0.217792 7.90265,-0.204324 36.61691,0.07348 5.71914,0.05533 9.37021,0.212755 9.5151,0.410266 0.72238,0.984733 -1.31756,2.228022 -2.58055,1.572771 -0.96981,-0.503139 -0.92733,-0.502326 -29.65455,-0.56737 -21.8964,-0.04958 -28.93241,0.168573 -35.31183,1.094832 -5.21884,0.757751 -5.07226,0.75738 -5.47019,0.01386 z m -0.40469,-7.091799 c -1.57667,-0.9192 0.77786,-1.791856 6.46671,-2.396749 0.968,-0.102928 1.9334,-0.242617 2.14532,-0.310422 0.21193,-0.0678 1.43593,-0.212282 2.72,-0.321063 1.28408,-0.108777 2.52511,-0.259315 2.75786,-0.334524 0.23275,-0.07521 0.70016,0.01149 1.0387,0.192662 0.43648,0.2336 1.38378,0.190835 3.25682,-0.147021 1.45271,-0.262038 3.1453,-0.472819 3.7613,-0.468403 0.616,0.0044 2.48711,-0.151325 4.15802,-0.34609 3.29012,-0.383507 13.88972,-0.418787 15.69207,-0.05223 0.79688,0.16207 1.13773,0.417702 1.20857,0.9064 0.12356,0.852557 -0.80328,1.197722 -1.99723,0.743786 -1.07615,-0.409156 -11.39735,-0.412909 -14.42143,-0.0052 -1.232,0.16608 -3.464,0.455926 -4.96,0.644105 -1.496,0.188176 -3.87351,0.517348 -5.28337,0.731488 -1.64159,0.249341 -3.19504,0.293421 -4.32,0.122583 -1.74579,-0.265114 -3.49766,-0.07595 -8.54314,0.922489 -2.69553,0.533412 -2.95383,0.541713 -3.6802,0.118234 z m -0.67996,-7.875139 c -0.95034,-0.950346 0.2994,-1.624167 3.50037,-1.887271 10.37159,-0.852502 14.40675,-0.942573 39.97887,-0.892374 27.11852,0.05324 29.51621,0.119968 29.95735,0.833753 0.63355,1.025098 -1.4151,2.072448 -2.55138,1.304371 -0.8347,-0.564227 -12.5501,-0.730825 -51.57854,-0.733472 -0.968,-6.4e-5 -2.408,0.06556 -3.2,0.145844 -0.792,0.08028 -3.456,0.301664 -5.92,0.491964 -2.464,0.190304 -4.984,0.481216 -5.6,0.646477 -1.29172,0.346541 -4.27189,0.405479 -4.58667,0.09071 z M 111.76,31.364931 c -0.477,-0.2016 -0.72,-0.577792 -0.72,-1.114617 0,-0.793528 0.0514,-0.811239 2.48,-0.855076 3.0786,-0.05557 4.24614,-0.125229 6.48,-0.38663 0.968,-0.113273 5.864,-0.424119 10.88,-0.690768 5.016,-0.26665 9.624,-0.552788 10.24,-0.635861 3.67663,-0.495826 22.84768,-0.493932 28,0.0028 5.51747,0.531901 7.91543,0.710744 10.25884,0.765119 1.66808,0.03871 2.43481,0.591769 2.17411,1.568236 -0.13947,0.522375 -0.34844,0.676598 -0.715,0.527675 -0.28487,-0.115718 -2.02995,-0.337246 -3.87795,-0.49227 -1.848,-0.155024 -5.16,-0.495335 -7.36,-0.756246 -4.47619,-0.530857 -26.79639,-0.451322 -32.16,0.114599 -1.584,0.167129 -4.68,0.391125 -6.88,0.497769 -3.99022,0.193423 -11.28341,0.742544 -12.8,0.963742 -0.44,0.06417 -1.304,0.193818 -1.92,0.288096 -0.616,0.09428 -1.624,0.247098 -2.24,0.3396 -0.616,0.0925 -1.444,0.03125 -1.84,-0.13612 z m 0.26366,-10.840725 c -0.72123,-1.347637 0.77998,-1.782248 10.29568,-2.980673 3.45551,-0.435193 3.98452,-0.273509 3.33754,1.020067 -0.35725,0.714286 -0.5631,0.785662 -1.99643,0.69224 -1.52834,-0.09961 -5.02432,0.466325 -8.76768,1.419338 -2.25731,0.574684 -2.48723,0.562585 -2.86911,-0.150972 z M 144,116.42329 c 6.248,0.005 12.44,-0.0914 13.76,-0.214 3.74708,-0.34794 -12.07647,-0.66444 -19.04,-0.38082 -3.168,0.12902 -7.03533,0.17488 -8.59406,0.1019 -1.55874,-0.073 -3.07074,-0.025 -3.36,0.10669 -0.83334,0.37931 1.72957,0.7297 3.95406,0.54059 1.056,-0.0898 7.032,-0.15924 13.28,-0.15436 z m 22.24,-0.58328 c -0.10877,-0.176 -0.65727,-0.30104 -1.21889,-0.27788 -1.02111,0.0421 -1.02111,0.0421 0.0989,0.27788 0.616,0.12966 1.1645,0.25471 1.21889,0.27787 0.0544,0.0232 0.01,-0.10187 -0.0989,-0.27787 z m 2,0.0994 c -0.308,-0.0805 -0.812,-0.0805 -1.12,0 -0.308,0.0805 -0.056,0.14635 0.56,0.14635 0.616,0 0.868,-0.0659 0.56,-0.14635 z M 191.72334,115.12 c 0.1195,-1.9852 -0.10524,-4.6252 -0.55866,-6.56287 -0.39336,-1.68098 -0.4524,-2.93411 -0.26743,-5.67713 0.35998,-5.338617 0.24957,-11.935773 -0.19165,-11.451091 -0.22102,0.242803 -0.38065,2.088995 -0.82444,9.535351 -0.18078,3.0332 -0.10901,3.94724 0.51511,6.56 0.41172,1.7236 0.74213,4.17635 0.76444,5.67464 0.035,2.34942 0.45128,3.77089 0.56263,1.9211 z M 21.76,103.69889 c 0,-0.16561 -0.144,-0.39011 -0.32,-0.49888 -0.176,-0.10878 -0.32,0.0267 -0.32,0.30111 0,0.27439 0.144,0.49889 0.32,0.49889 0.176,0 0.32,-0.1355 0.32,-0.30112 z m -0.421404,-1.67888 c -0.102152,-0.25528 -0.177978,-0.17945 -0.193333,0.19333 -0.01389,0.33733 0.06174,0.52633 0.16807,0.42 0.106334,-0.10633 0.117702,-0.38233 0.02526,-0.61333 z m -0.04243,-0.87385 C 21.120573,100.86205 20.8,93.722852 20.8,90.096557 c 0,-0.977101 -0.13558,-1.776551 -0.301289,-1.776551 -0.462424,0 -0.04912,11.036561 0.476347,12.720004 0.06867,0.22 0.209874,0.4 0.313784,0.4 0.103911,0 0.107206,-0.13223 0.0073,-0.29385 z m 34.690383,-7.306153 c -0.330157,-0.66 -0.907037,-1.884 -1.281961,-2.72 -0.374922,-0.836 -0.790125,-1.52 -0.922669,-1.52 -0.23089,0 -2.581917,4.747933 -2.581917,5.214214 0,0.124183 1.212035,0.225786 2.693414,0.225786 h 2.693415 z M 191.46561,77.600006 c 0.09,-7.538452 -0.49066,-18.259234 -0.754,-13.920001 -0.0588,0.968 -0.0968,2.552 -0.0846,3.52 0.0122,0.968 0.063,6.728 0.11291,12.800001 0.10481,12.76273 0.56261,11.248621 0.72566,-2.4 z m -170.782497,2.64 c -0.117378,-1.628 -0.27502,-3.464 -0.350315,-4.08 -0.0753,-0.616 -0.219295,-3.928001 -0.319998,-7.360001 -0.100704,-3.432 -0.245806,-6.816 -0.322448,-7.520001 -0.07664,-0.704 -0.215678,-3.08 -0.308968,-5.28 -0.194734,-4.592336 -0.495056,-9.076788 -0.685769,-10.240001 -0.07214,-0.44 -0.428064,-3.104 -0.790944,-5.92 -1.017799,-7.898279 -1.349129,-7.034564 -0.797908,2.08 0.247327,4.08962 0.487775,6.670247 0.819932,8.800001 0.443402,2.843043 0.916698,9.452842 0.951352,13.286061 0.01674,1.851335 0.153794,4.515335 0.304571,5.920001 0.150777,1.404666 0.530987,4.965939 0.844912,7.91394 0.616511,5.789539 1.001612,7.199344 0.655583,2.4 z m 2.007802,-15.920001 c 0.01492,-5.858071 -0.411231,-16.904389 -0.73453,-19.040002 -0.07993,-0.528 -0.237441,-2.04 -0.350022,-3.36 -0.29352,-3.441491 -0.803285,-8.904919 -0.970371,-10.400001 -0.304121,-2.721267 -0.766778,-11.035846 -0.791484,-14.224037 -0.03612,-4.660573 -0.278234,-4.758327 -1.47669,-0.596206 -0.867614,3.013144 -0.993182,4.650895 -0.498376,6.500243 0.18836,0.704 0.561901,3.44 0.830091,6.08 0.26819,2.64 0.710368,6.384001 0.982617,8.320001 0.919978,6.54208 1.425098,11.825364 1.431489,14.972612 0.0035,1.722938 0.142035,4.458938 0.307859,6.08 0.41471,4.054129 0.634531,7.775915 0.693838,11.74739 0.08846,5.923434 0.557634,0.967389 0.575579,-6.08 z M 190.9386,61.060004 c -0.10216,-0.255273 -0.17798,-0.179449 -0.19334,0.193335 -0.0139,0.337331 0.0617,0.526333 0.16807,0.42 0.10634,-0.106336 0.1177,-0.382336 0.0252,-0.613335 z m 0.96316,-31.533912 c -0.0811,-0.311349 -0.15285,-0.13409 -0.15938,0.39391 -0.007,0.528 0.0599,0.782741 0.14752,0.56609 0.0877,-0.21665 0.093,-0.64865 0.0119,-0.96 z M 191.68,25.760002 c 0,-0.968 -0.11994,-1.76 -0.26652,-1.76 -0.14659,0 -0.23059,0.324 -0.18667,0.72 0.0439,0.396 0.0919,1.188 0.10652,1.76 0.0454,1.76953 0.34667,1.143765 0.34667,-0.72 z m -0.34202,-7.977582 c -0.0145,-2.346712 0.12086,-4.249184 0.33002,-4.64 0.30454,-0.569032 0.2627,-0.662419 -0.29674,-0.662419 -0.61684,0 -0.65126,0.192357 -0.65126,3.64 0,3.326728 0.21379,5.640001 0.52124,5.640001 0.0667,0 0.11022,-1.789912 0.0967,-3.977582 z"
     id="path1398"
     inkscape:connector-curvature="0"
     sodipodi:nodetypes="cssccccscssssscssccssccsssscsssscccsssscscscccccccccccssccsccccccccscsscsccscccscccccccscccscscccccccsscsccccccscssscssccccssccscsccccscccsssccccsscccsccccccccsccsscscscsccccccssccsccscsccscscscccscccccssssscccccccscscccccscccscscccscscssccscccsssssssssccccsccccsccccccccsccsccccccccccccsscccsscccccccccccccccscscccccssssccscscsscsccccccccsscccccccccscscccccsccccccscccccssssccccsccssccccsccccscccscccsscsscccsccccscscccccccscccsscccccccccsssssccccssssccccccsccsccccccccccccccsscsccccccsscsssccccccsscsccccsssccccscccscscssssscsssscsssssssssssccccccccccssccsccssscc" />
</svg>
