<?xml version="1.0" encoding="UTF-8" standalone="no"?>
<!-- Created with Inkscape (http://www.inkscape.org/) -->

<svg
   xmlns:dc="http://purl.org/dc/elements/1.1/"
   xmlns:cc="http://creativecommons.org/ns#"
   xmlns:rdf="http://www.w3.org/1999/02/22-rdf-syntax-ns#"
   xmlns:svg="http://www.w3.org/2000/svg"
   xmlns="http://www.w3.org/2000/svg"
   xmlns:sodipodi="http://sodipodi.sourceforge.net/DTD/sodipodi-0.dtd"
   xmlns:inkscape="http://www.inkscape.org/namespaces/inkscape"
   version="1.1"
   id="svg1202"
   width="179.52"
   height="159.36"
   viewBox="0 0 179.52 159.36"
   sodipodi:docname="citation.svg"
   inkscape:version="0.92.4 5da689c313, 2019-01-14">
  <metadata
     id="metadata1208">
    <rdf:RDF>
      <cc:Work
         rdf:about="">
        <dc:format>image/svg+xml</dc:format>
        <dc:type
           rdf:resource="http://purl.org/dc/dcmitype/StillImage" />
        <dc:title></dc:title>
      </cc:Work>
    </rdf:RDF>
  </metadata>
  <defs
     id="defs1206" />
  <sodipodi:namedview
     pagecolor="#ffffff"
     bordercolor="#666666"
     borderopacity="1"
     objecttolerance="10"
     gridtolerance="10"
     guidetolerance="10"
     inkscape:pageopacity="0"
     inkscape:pageshadow="2"
     inkscape:window-width="3200"
     inkscape:window-height="1745"
     id="namedview1204"
     showgrid="false"
     inkscape:zoom="7.1913991"
     inkscape:cx="89.760002"
     inkscape:cy="79.68"
     inkscape:window-x="0"
     inkscape:window-y="55"
     inkscape:window-maximized="1"
     inkscape:current-layer="svg1202" />
  <path
     style="fill:#000000;stroke-width:0.31999999"
     d="M 20.433685,150.07549 C 19.307383,149.48041 14.72,145.11787 14.72,144.64185 c 0,-0.12862 -0.410643,-0.75057 -0.91254,-1.38213 -0.838628,-1.05528 -2.397398,-3.96013 -2.951197,-5.49972 -0.126616,-0.352 -0.531182,-1.3823 -0.8990345,-2.28955 -0.3678525,-0.90726 -0.8306064,-2.70726 -1.0283418,-4 -0.197735,-1.29275 -0.5762627,-2.76083 -0.8411725,-3.26241 -0.3627856,-0.68689 -0.3979363,-1.08176 -0.1424304,-1.6 0.1865728,-0.37842 0.492352,-1.91633 0.6795092,-3.41757 1.2265836,-9.83876 5.913947,-15.20585 12.273003,-14.05274 1.075261,0.19499 2.35857,0.5632 2.851797,0.81826 1.388863,0.71821 4.783483,1.7153 5.855399,1.71988 2.024646,0.009 4.416531,-4.79801 5.093549,-10.23587 1.036992,-8.329184 0.608045,-10.886787 -3.488463,-20.8 -1.3455,-3.256 -2.817175,-6.926026 -3.270389,-8.155616 -0.453214,-1.229587 -1.009829,-2.525587 -1.236921,-2.88 C 26.475675,69.249974 26.188745,68.265629 26.065146,67.41695 25.892048,66.2284 25.675796,65.811312 25.123853,65.601466 23.941989,65.152122 23.70834,63.68 24.818885,63.68 c 0.564012,0 0.620643,-0.625872 0.06111,-0.675421 -0.22,-0.01949 -0.724,-0.0092 -1.12,0.02291 -0.956518,0.07748 -0.908009,-0.358531 0.168045,-1.510451 0.888046,-0.950656 0.888046,-0.950656 0.908509,-6.35384 0.01816,-4.794336 0.11739,-5.77417 0.880634,-8.695418 2.066065,-7.907696 6.643471,-16.869216 10.10375,-19.780847 C 36.359421,26.23383 36.8,25.663607 36.8,25.419772 c 0,-0.243835 0.403331,-0.651908 0.896294,-0.906828 0.81504,-0.421473 1.670704,-1.698103 2.113268,-3.152944 0.112377,-0.369425 0.493846,-0.56 1.120934,-0.56 0.866278,0 1.748246,-0.584004 4.509504,-2.986011 0.264,-0.229653 1.182691,-0.820773 2.041536,-1.313601 0.858845,-0.492828 2.050378,-1.227788 2.647853,-1.633244 1.480681,-1.004818 4.984509,-2.28686 7.310611,-2.674936 3.405859,-0.568217 10.536541,-0.475139 12.32,0.160815 0.782986,0.2792 9.340176,0.785787 15.36,0.909313 3.08,0.0632 5.96,0.201844 6.4,0.308095 0.806874,0.194843 12.77745,0.741805 22.24,1.016196 2.816,0.08166 6.056,0.215979 7.2,0.298495 11.58551,0.835648 23.21401,0.876887 30.4,0.10781 6.5626,-0.702359 8.65722,-0.70392 11.36836,-0.0085 1.4034,0.359992 3.6132,0.899572 4.91065,1.199067 2.22835,0.514374 4.10815,1.635372 4.94374,2.948155 0.14451,0.227041 0.70148,0.861614 1.2377,1.410162 3.70019,3.78524 3.13937,12.047741 -1.20525,17.756806 -0.42636,0.560256 -0.7752,1.113594 -0.7752,1.229635 0,0.99312 -2.65912,3.422864 -5.04262,4.607639 -5.05915,2.514768 -8.67643,3.043337 -12.3615,1.806297 -1.38216,-0.463977 -3.03567,-0.848105 -3.67445,-0.853616 -0.63879,-0.0055 -4.93526,-0.0367 -9.54772,-0.06931 l -8.38629,-0.05929 -0.63778,1.76 c -0.35078,0.968 -0.77553,2.336 -0.94388,3.04 -0.16835,0.704 -0.61112,2.432 -0.98393,3.84 -3.14522,11.878442 -3.19042,16.118176 -0.24051,22.56 0.28208,0.616 1.02905,2.632 1.65993,4.48 0.63088,1.848 1.36483,3.756 1.63099,4.24 0.26617,0.484 0.40626,0.88 0.31132,0.88 -0.095,0 0.09,0.468 0.41106,1.04 0.32103,0.572 0.769,1.616 0.9955,2.32 0.9272,2.882013 3.62742,7.379962 6.48258,10.798512 2.01188,2.408881 3.07246,4.263811 4.89512,8.561491 0.48518,1.144 1.1355,2.656 1.44518,3.36 1.50564,3.42292 2.59748,8.90477 2.51754,12.64 -0.13228,6.18091 -1.38232,10.13516 -4.82754,15.2709 -1.99082,2.9677 -2.48637,3.4169 -5.383,4.87959 -4.47789,2.26117 -6.7834,2.54579 -13.28,1.63947 -2.40426,-0.33542 -16.23732,-0.0718 -21.6,0.41156 -3.97083,0.35794 -9.722381,0.54623 -20.96,0.68619 -19.915731,0.24802 -26.868554,0.43015 -29.536122,0.77369 -1.355132,0.17451 -3.615878,0.47328 -5.023878,0.66393 -1.408,0.19065 -3.136,0.41576 -3.84,0.50024 -2.728886,0.32749 -10.15712,0.69176 -15.2,0.7454 -2.904,0.0309 -5.856,0.19062 -6.56,0.35496 -1.808633,0.4222 -2.401261,0.36965 -3.726315,-0.33044 z M 47.2,147.70533 c 2.112,-0.28402 4.704,-0.65339 5.76,-0.82081 1.056,-0.16742 4.44,-0.37509 7.52,-0.46149 13.639677,-0.38261 22.615408,-0.57621 31.691472,-0.68356 5.36169,-0.0634 10.684528,-0.26432 11.828528,-0.44647 1.144,-0.18215 5.788,-0.42398 10.32,-0.53739 4.532,-0.11342 8.24,-0.32651 8.24,-0.47354 0,-0.14702 -0.38432,-0.51913 -0.85404,-0.8269 -2.41168,-1.5802 -5.04227,-10.4822 -4.84606,-16.39923 0.12066,-3.63846 1.2931,-7.69594 2.2238,-7.69594 0.15196,0 0.2763,-0.2401 0.2763,-0.53355 0,-0.29345 1.08883,-1.58761 2.41962,-2.87592 2.13645,-2.06825 2.31434,-2.32568 1.52,-2.19968 -4.04341,0.64138 -7.87853,0.84752 -12.40478,0.66676 -2.82416,-0.11279 -6.92502,-0.26846 -9.11302,-0.34593 -2.187999,-0.0775 -6.147999,-0.29931 -8.799999,-0.49297 C 90.329818,113.38505 86,113.15739 83.36,113.07279 c -2.64,-0.0846 -4.944,-0.16038 -5.12,-0.16841 -0.816022,-0.0372 -12.524608,0.46814 -15.52,0.66989 -1.848,0.12447 -5.808,0.18689 -8.8,0.13871 -2.992,-0.0482 -9.998054,-0.15106 -15.569008,-0.22861 -10.129005,-0.141 -10.129005,-0.141 -14.184345,-1.50729 -3.935296,-1.32586 -4.082129,-1.35048 -4.960366,-0.83169 C 18.203599,111.73769 16.96,111.8565 16.96,111.36 c 0,-1.23622 -2.820925,1.64465 -4.153468,4.24173 -1.546337,3.01377 -2.177236,4.86686 -2.415992,7.09633 -0.216261,2.01942 -0.216261,2.01942 1.3366,2.27298 0.854073,0.13946 1.76886,0.31782 2.03286,0.39637 0.264,0.0785 1.848,0.18303 3.52,0.2322 3.867959,0.11374 6.452596,0.40499 6.815625,0.76802 0.620504,0.6205 0.0747,1.47407 -0.904413,1.41438 -7.730927,-0.47131 -10.455749,-0.36643 -8.634769,0.33235 0.871982,0.33461 0.11023,1.18508 -1.969881,2.1993 -1.987137,0.96889 -2.045469,1.03187 -1.837045,1.9835 0.274406,1.25289 2.024802,5.68595 2.403394,6.08684 0.157899,0.1672 0.287089,0.48481 0.287089,0.70579 0,1.06088 3.983945,6.33357 5.983079,7.91851 l 1.663078,1.31851 11.136921,-0.0525 C 40.416819,148.23561 44.374806,148.0853 47.2,147.70536 Z m 12.895542,-3.55077 c -0.26312,-0.24748 -8.325932,-0.54736 -16.969804,-0.63116 -13.894602,-0.13472 -18.182588,-0.57477 -18.43481,-1.89186 -0.106777,-0.55758 0.02669,-0.59028 1.596276,-0.39105 3.724393,0.47273 11.101046,0.77572 19.792796,0.81298 5.016,0.0215 10.416,0.1872 12,0.36822 1.584,0.18102 5.184,0.24839 8,0.14972 2.816,-0.0987 7.577133,-0.24382 10.580291,-0.32254 3.003162,-0.0787 5.667162,-0.21963 5.92,-0.31314 0.252842,-0.0935 3.699709,-0.60789 7.659709,-1.14309 3.96,-0.5352 8.352,-1.13897 9.76,-1.3417 2.58089,-0.37161 9.60766,-0.4298 10.98126,-0.0909 0.48138,0.11875 0.7039,0.37519 0.63469,0.73143 -0.0948,0.48823 -0.63397,0.55001 -4.90126,0.56167 -2.63708,0.007 -5.44269,0.12673 -6.23469,0.2656 -1.786035,0.31319 -1.899645,0.32925 -8.16,1.15315 -2.816,0.3706 -6.467107,0.8917 -8.113571,1.15798 -1.646464,0.26629 -5.750464,0.55302 -9.12,0.63717 -3.369536,0.0842 -8.099434,0.2035 -10.510887,0.26521 -2.411449,0.0617 -4.427449,0.0718 -4.48,0.0223 z m 78.051418,-0.7712 c 3.25516,-1.4704 5.00153,-2.83426 5.91044,-4.61587 0.36697,-0.71932 0.93796,-1.67405 1.26887,-2.12163 0.88429,-1.19607 2.46646,-5.61546 2.86616,-8.00586 0.80124,-4.7919 0.19462,-10.06277 -1.78288,-15.49138 -1.42162,-3.90262 -1.39496,-3.86217 -2.56955,-3.89747 -13.58896,-0.40843 -15.25238,-0.57217 -15.62295,-1.53788 -0.54005,-1.40735 2.0887,-1.62959 11.67637,-0.98713 2.45341,0.1644 2.45341,0.1644 2.67894,-0.86239 0.34481,-1.56994 -0.61305,-2.18375 -3.40781,-2.18375 -1.81288,0 -2.32394,-0.11939 -2.87655,-0.672 -0.93543,-0.93543 -0.35476,-1.408 1.73011,-1.408 0.91404,0 1.69132,-0.144 1.7273,-0.32 0.0379,-0.18555 -0.55228,-0.28551 -1.40471,-0.23792 -1.75455,0.0979 -2.47767,-0.34822 -2.00272,-1.235683 0.1785,-0.333517 0.53547,-0.606397 0.79328,-0.606397 0.66421,0 0.58073,-0.416112 -0.17861,-0.890326 -0.50073,-0.312711 -0.5766,-0.536477 -0.33498,-0.987952 0.17418,-0.32545 0.19098,-0.711546 0.038,-0.872698 -1.03583,-1.091062 -6.37644,-13.746624 -6.55881,-15.542326 -0.0298,-0.293319 -0.20336,-0.725319 -0.38572,-0.96 -0.48373,-0.622525 -2.91808,-7.002183 -3.294,-8.632509 -0.54885,-2.380314 -0.39502,-7.292211 0.3357,-10.718963 0.37005,-1.735373 0.79937,-3.776138 0.95403,-4.535034 0.15467,-0.758893 0.5133,-2.054893 0.79695,-2.88 0.28366,-0.825104 0.57942,-1.836656 0.65725,-2.247888 0.99394,-5.251549 2.59302,-8.52417 5.97621,-12.230659 2.15139,-2.356973 2.15123,-2.357226 -1.82242,-2.856173 -4.6488,-0.583725 -4.41218,-2.634045 0.3422,-2.965222 1.37663,-0.09589 2.91072,-0.361652 3.40909,-0.590573 1.5402,-0.707468 0.008,-0.989544 -6.18613,-1.138903 -6.61818,-0.159583 -7.5522,-0.276178 -7.82086,-0.976291 -0.5505,-1.43458 0.14569,-1.530687 11.56539,-1.596579 10.38986,-0.05995 10.78463,-0.08484 11.41979,-0.72 0.70396,-0.703967 0.57584,-0.780736 -1.1218,-0.672154 -0.46062,0.02946 -1.07759,-0.186537 -1.37105,-0.479995 -0.87552,-0.875522 -0.0918,-1.425755 2.03071,-1.425755 2.32137,0 4.5471,-0.754694 6.57782,-2.230385 0.88,-0.639482 2.39081,-1.570841 3.35736,-2.069686 2.08243,-1.074761 5.44264,-3.397939 5.44264,-3.762924 0,-0.141353 -0.216,-0.257005 -0.48,-0.257005 -0.264,0 -0.48,-0.144 -0.48,-0.32 0,-0.431149 -4.89155,-0.41273 -7.07632,0.02665 -2.63002,0.528919 -25.72466,0.947178 -26.48123,0.479592 -0.49052,-0.303162 -3.76678,-0.502816 -11.40245,-0.694858 -4.048,-0.10181 -8.44,-0.297515 -9.76,-0.434899 -1.32,-0.137385 -4.18018,-0.276758 -6.355949,-0.309719 -2.175773,-0.03296 -5.415773,-0.206495 -7.2,-0.385631 C 89.939824,15.141994 86.032,14.958512 83.04,14.913394 80.048,14.868276 75.8,14.640225 73.6,14.406615 71.4,14.173005 68.952,13.957024 68.16,13.926659 67.368,13.896294 65.872656,13.688147 64.837014,13.464113 62.824131,13.028678 61.479402,13.107168 57.458861,13.894767 54.976138,14.381116 49.6,16.691717 49.6,17.272413 c 0,0.15503 -0.226285,0.508159 -0.502858,0.78473 -0.457142,0.457143 -0.449868,0.50328 0.08,0.507514 0.320573,0.0026 1.21057,0.223266 1.977776,0.490455 0.767204,0.267189 4.079204,0.706561 7.36,0.976383 7.475812,0.614832 7.47282,0.614233 7.345856,1.471755 -0.100208,0.676797 -0.15704,0.680787 -10.09464,0.70869 -9.777929,0.02745 -10.004048,0.0426 -10.465126,0.70092 -0.356272,0.50868 -0.950016,0.722899 -2.433357,0.877938 -2.274496,0.237732 -2.858723,0.489677 -2.108745,0.909385 0.286601,0.16039 0.521094,0.644463 0.521094,1.075718 0,0.727609 -0.115296,0.784099 -1.600355,0.784099 -1.462343,0 -1.714215,0.117287 -2.920602,1.36 -5.926987,6.105462 -10.023508,16.847021 -10.033822,26.309862 L 26.72,59.019725 28,59.233485 c 0.704,0.117568 2.324,0.387142 3.6,0.599049 C 34.834083,60.369629 34.88025,62.08 31.660663,62.08 28.485376,62.08 27.2,62.41527 27.2,63.243494 27.2,63.954778 27.314771,64 29.12,64 c 1.901449,0 1.92,0.0089 1.92,0.92 0,0.766221 -0.160464,0.952093 -0.96,1.112 -0.958335,0.191667 -1.288607,0.927139 -0.605836,1.349114 0.25315,0.156454 0.243523,0.287267 -0.03375,0.458633 -0.293542,0.181418 -0.258231,0.437671 0.145141,1.053293 0.476255,0.726858 0.480554,0.842934 0.04034,1.089286 -0.636519,0.356215 0.350057,3.245626 3.802906,11.137674 0.231005,0.528 0.525651,1.32 0.654768,1.76 0.129117,0.44 0.344016,0.944 0.477552,1.12 2.370106,3.12376 3.041955,18.11885 1.029543,22.97857 -0.277536,0.67021 -1.063136,1.96621 -1.745783,2.88 l -1.241171,1.66143 2.658144,0.20683 c 4.201078,0.32688 27.282109,0.45999 30.818144,0.17774 3.916467,-0.31263 19.410042,-0.37275 23.36,-0.0907 1.584,0.11313 4.9128,0.35643 7.397334,0.54066 7.139218,0.5294 22.185258,0.48967 25.242668,-0.0667 4.46993,-0.81335 7.78912,-0.56892 10.49985,0.77324 6.39795,3.16781 8.04131,8.49335 4.80733,15.57884 -2.16798,4.74994 -5.109,6.98015 -9.46288,7.17582 -2.63066,0.11822 -7.10796,0.86118 -7.48959,1.2428 -0.0778,0.0778 0.36185,1.00022 0.977,2.04982 1.59316,2.7183 3.32594,4.12279 6.07599,4.92481 1.24977,0.36448 2.4163,0.71998 2.5923,0.79 1.21942,0.48514 5.49469,-0.27797 8.06696,-1.43989 z M 48.447939,108.03184 c -0.474544,-1.23664 0.849373,-1.44845 9.312061,-1.4898 3.93471,-0.0192 6.853846,-0.19157 8.273168,-0.48845 1.640419,-0.34313 4.675466,-0.45503 12.042243,-0.44399 5.416992,0.008 10.766064,-0.12309 11.886832,-0.29156 4.435879,-0.66679 31.978607,-1.09847 32.921097,-0.51598 0.14327,0.0885 0.15378,0.55631 0.0234,1.03947 -0.23714,0.87847 -0.23714,0.87847 -4.69191,0.87847 -2.45013,0 -5.17478,-0.12255 -6.05478,-0.27235 -0.95114,-0.16189 -3.80612,-0.12622 -7.04,0.088 -2.992,0.19817 -7.959997,0.37381 -11.039997,0.3903 -3.949543,0.0212 -5.794429,0.15081 -6.259699,0.4399 -0.495693,0.308 -4.115434,0.46076 -14.56,0.61448 -7.645165,0.11253 -16.313968,0.27842 -19.264007,0.36866 -4.58136,0.14013 -5.390637,0.0939 -5.548355,-0.31713 z m 76.245391,-0.72517 c -0.70788,-0.70788 0.54709,-2.38556 1.39328,-1.86258 0.53273,0.32924 0.34589,1.396 -0.30557,1.74465 -0.72903,0.39017 -0.80701,0.39862 -1.08771,0.11793 z M 45.12,99.436506 c 0,-1.066586 2.447238,-1.765175 9.12,-2.603402 7.27249,-0.913565 28.219603,-2.087315 27.895622,-1.563104 -0.08703,0.140822 1.684775,0.302941 3.937344,0.360266 2.422778,0.06165 4.174013,-0.02269 4.287607,-0.206468 0.110112,-0.178169 1.078653,-0.239526 2.270637,-0.143843 1.39952,0.112339 2.233846,0.03802 2.55375,-0.227472 0.574778,-0.477024 1.699686,-0.610678 6.85964,-0.815021 2.18054,-0.08635 5.42054,-0.380998 7.2,-0.654768 6.0054,-0.923929 6.73212,-0.960531 6.48894,-0.326816 -0.11745,0.306055 -0.21354,0.610164 -0.21354,0.675792 0,0.06563 -0.49887,0.212919 -1.1086,0.327303 -0.60973,0.114387 -1.27536,0.408912 -1.47918,0.654502 -0.20478,0.246736 -0.94705,0.446525 -1.65899,0.446525 -0.70863,0 -3.96699,0.34985 -7.24082,0.777443 -8.426522,1.100583 -8.899546,1.1352 -17.79241,1.302032 -19.55695,0.366893 -26.331923,0.687661 -30.203677,1.430029 -2.147571,0.411773 -4.291913,0.425667 -4.692323,0.0304 -0.274179,-0.270653 -3.337728,0.177968 -5.504,0.806 -0.518554,0.150336 -0.72,0.07496 -0.72,-0.269402 z M 57.951562,93.958029 C 57.715101,93.673114 57.311267,93.44 57.05415,93.44 c -0.257116,0 -0.408006,-0.18 -0.335315,-0.4 0.132154,-0.399955 0.796883,-0.473818 10.321165,-1.146826 2.288,-0.161676 5.024,-0.519206 6.08,-0.794512 4.092406,-1.066912 10.647613,-1.692908 11.76,-1.123033 1.505386,0.771209 0.37911,1.751827 -2.504966,2.181005 -8.976247,1.335747 -11.100477,1.548352 -17.415034,1.742995 -1.496,0.04611 -3.588166,0.194675 -4.649254,0.330134 -1.592682,0.203328 -2.004263,0.15592 -2.359184,-0.271734 z M 59.12,82.816762 C 57.756,82.633568 56.640214,82.392851 56.640477,82.28184 56.640797,82.101542 44.861933,82.398038 40.8,82.68057 c -2.320346,0.161395 -4.249283,-0.813194 -3.06192,-1.547021 1.147603,-0.709258 23.903466,-1.39777 24.437402,-0.739389 0.876342,1.080595 2.803801,1.425136 7.584518,1.35576 4.490131,-0.06516 10.235046,-0.551315 10.825242,-0.916077 0.15855,-0.09799 1.495731,-0.255107 2.971513,-0.349152 9.416496,-0.600067 12.170992,-0.692649 13.841395,-0.465238 1.090791,0.148505 2.211444,0.128979 2.67318,-0.04657 0.43726,-0.166246 1.60809,-0.231066 2.60185,-0.144042 3.68845,0.322999 6.64687,0.627392 7.48682,0.770324 0.44661,0.076 0.24351,1.571017 -0.23856,1.756003 -0.2632,0.101001 -1.3072,0.0151 -2.32,-0.190858 -3.91615,-0.796438 -25.61449,-0.341558 -29.68144,0.622237 -1.358893,0.322032 -16.446688,0.346285 -18.8,0.03021 z M 56.8,72.609091 c -5.289456,-0.210377 -6.844992,-0.465523 -7.114134,-1.166886 -0.313028,-0.815744 0.441049,-0.923472 5.434262,-0.776355 7.747853,0.228281 25.10017,0.07061 28.079872,-0.255149 5.422173,-0.592778 11.477277,-0.764522 11.988746,-0.340042 0.904902,0.751002 0.06034,1.521015 -1.712061,1.560947 -0.872199,0.01965 -2.857261,0.20106 -4.411251,0.40313 C 87.511446,72.23681 85.664,72.456595 84.96,72.523152 82.658451,72.740746 61.717008,72.804653 56.8,72.609091 Z M 39.334003,62.520899 c -0.235561,-2.545206 0.05957,-2.860931 2.905997,-3.108787 2.956534,-0.25744 20.160643,-0.281456 21.12,-0.02947 1.183478,0.310838 13.22321,0.396058 15.054576,0.10656 0.867702,-0.137165 7.231392,-0.337597 14.141533,-0.445398 11.411521,-0.178029 14.783471,-0.375936 16.272621,-0.955072 0.79593,-0.309536 1.41743,0.65207 1.00561,1.55591 -0.39183,0.859974 -1.4257,1.060605 -6.80224,1.320022 -1.84366,0.08896 -4.025412,0.235844 -4.84835,0.326413 -0.860579,0.09472 -1.582339,0.02538 -1.698886,-0.163193 -0.267386,-0.432644 -1.988646,-0.422445 -2.257997,0.01338 -0.141881,0.229564 -2.583005,0.313324 -7.458886,0.255926 C 82.78159,61.350256 78.224,61.417856 76.64,61.54743 c -3.428125,0.280407 -11.086288,0.287284 -12.575043,0.0113 -0.580272,-0.107571 -4.684272,-0.02896 -9.12,0.174676 -11.73552,0.538777 -12.726035,0.597577 -14.224957,0.844428 -0.748,0.123188 -1.371699,0.09757 -1.385997,-0.05692 z m 26.718698,-6.814233 c -0.374349,-0.376132 -0.04238,-1.036845 0.653977,-1.3016 0.432672,-0.164503 4.212672,-0.382688 8.4,-0.484861 C 79.294006,53.818035 83.44,53.60152 84.32,53.439062 87.89096,52.779824 90.238608,53.046714 89.623494,54.041984 89.356006,54.47479 87.885382,54.718771 81.76,55.34656 78.548544,55.675699 66.301331,55.95648 66.052701,55.706666 Z M 81.12,44.729888 C 69.744102,44.162266 63.931296,44.017661 62.650397,44.270422 c -0.753719,0.148733 -5.606387,0.292733 -10.783706,0.32 -9.990355,0.05262 -10.764672,-0.06778 -8.661529,-1.34678 1.499676,-0.912007 2.1427,-0.921402 46.714838,-0.682656 16.60475,0.08894 19.04542,0.03841 21.6,-0.447232 7.39319,-1.405482 8.91758,-1.552695 9.44,-0.911639 0.264,0.323955 0.732,0.685485 1.04,0.803402 0.308,0.11792 0.56,0.429849 0.56,0.693181 0,0.831084 -0.99777,1.058723 -5.6,1.277632 -2.464,0.1172 -6.064,0.349241 -8,0.515644 -4.90609,0.42169 -8.71758,0.39529 -8.86982,-0.06143 -0.0768,-0.230448 -1.220298,-0.416135 -3.03906,-0.493511 C 94.376928,43.82327 94.09623,43.868643 93.664944,44.48439 93.142883,45.229734 91.702518,45.25792 81.12,44.729888 Z M 98.833894,38.895763 C 98.721507,38.791802 95.367488,38.563411 89.12,38.234301 84.346038,37.982813 73.512848,37.08281 70.4,36.679075 68.913354,36.486256 59.411066,35.895885 54.410387,35.685648 c -3.863501,-0.162429 -5.427561,-0.615866 -4.68431,-1.358029 0.402675,-0.402083 10.889129,-0.133731 14.73119,0.376976 3.121943,0.414983 5.802867,0.588621 14.742733,0.954861 1.232,0.05047 3.621584,0.201747 5.310189,0.33617 2.581593,0.20551 3.196761,0.161468 3.865542,-0.276733 0.437447,-0.286627 0.866583,-0.449914 0.953635,-0.362861 0.509834,0.509837 9.982314,1.220317 17.218574,1.291472 5.63424,0.05541 8.18457,0.19001 8.26666,0.43631 0.0653,0.195901 0.32273,0.356186 0.57207,0.356186 0.24933,0 0.45333,0.126368 0.45333,0.280819 0,0.553498 -0.86634,0.9836 -1.9436,0.964925 -0.60302,-0.01046 -4.21315,0.05623 -8.02251,0.148182 -3.80936,0.09196 -6.977356,0.119783 -7.039996,0.06184 z M 76.16,29.343024 c 0,-1.158152 -0.137008,-1.130478 6.745126,-1.362422 3.41818,-0.115201 7.902928,-0.303279 9.966109,-0.417951 4.600938,-0.255722 6.210291,0.140578 4.919895,1.211514 -0.557732,0.462875 -2.156532,0.588188 -10.43113,0.817585 -3.608,0.100024 -7.604,0.270662 -8.88,0.379195 -2.32,0.197331 -2.32,0.197331 -2.32,-0.627921 z m 49.22232,104.894236 c 0.0563,-0.0524 -0.21159,-0.71056 -0.59526,-1.46262 -0.84343,-1.65327 -0.73116,-3.60026 0.29034,-5.03481 0.97467,-1.3688 0.92734,-1.4027 -1.60972,-1.1527 -5.26634,0.51893 -5.5843,0.77207 -4.9902,3.97287 0.60893,3.28075 0.93541,4.12212 1.63922,4.22445 0.66916,0.0973 5.06387,-0.3594 5.26562,-0.54719 z m 5.76831,-0.99353 c 2.8786,-1.7497 6.13083,-7.82701 6.12817,-11.45148 -0.003,-4.52125 -6.56,-9.13342 -10.73017,-7.54793 -2.29614,0.87299 -7.15485,6.66375 -7.88653,9.39941 -0.4914,1.83731 -0.40704,1.90568 1.86467,1.51117 1.03028,-0.17893 3.24123,-0.40948 4.91323,-0.51234 1.672,-0.10286 3.56919,-0.34507 4.21598,-0.53824 1.48663,-0.44401 2.18402,-0.18087 2.18402,0.82407 0,0.80004 -0.19048,0.91763 -2.10893,1.30193 -1.19165,0.2387 -3.1692,2.2219 -3.46283,3.4727 -0.5721,2.43702 2.74296,4.84111 4.88239,3.54071 z m 29.86833,-88.800572 c 0.29643,-0.155737 0.80805,-0.283158 1.13693,-0.283158 1.13862,0 5.68109,-2.449837 6.7052,-3.616237 4.56599,-5.200371 6.82415,-13.203958 4.76482,-16.887933 -1.66664,-2.981492 -3.65272,-4.768719 -6.02389,-5.420763 -2.79025,-0.767289 -3.28,-0.651975 -6.59157,1.552026 -1.52375,1.014122 -3.88645,2.474575 -5.25045,3.245451 -1.364,0.770876 -2.48,1.53257 -2.48,1.692652 0,0.265044 1.90243,0.09837 3.26795,-0.28631 0.3087,-0.08696 0.79383,0.132816 1.11111,0.503376 0.40764,0.476093 0.94669,0.657738 1.95187,0.657738 1.68823,0 4.32792,1.189712 5.77176,2.601335 1.90694,1.864385 1.25193,5.592588 -1.46922,8.362527 -3.49641,3.559101 -8.3569,3.698692 -8.90744,0.255815 -0.19257,-1.204247 -0.21284,-1.219098 -1.90159,-1.393392 -2.39491,-0.247178 -2.97199,-0.0313 -3.20261,1.198022 -0.57253,3.051882 2.82709,7.218867 6.7477,8.270781 0.80284,0.215405 3.66213,-0.08033 4.36943,-0.45193 z M 150.08,42.871606 c 0,-0.150608 -0.14983,-0.366438 -0.33297,-0.479619 -2.15661,-1.332864 -2.50641,-5.326409 -0.7597,-8.673462 0.63104,-1.209187 1.47869,-2.846525 1.88368,-3.638525 0.81487,-1.593578 1.71229,-2.518485 2.99797,-3.089834 0.85102,-0.378186 0.85102,-0.378186 0.051,-0.3851 -3.09828,-0.02678 -5.26601,1.137337 -9.1522,4.914934 -0.9053,0.88 -2.48911,2.392 -3.51957,3.36 -1.99086,1.870176 -5.2974,5.577955 -6.45944,7.243277 l -0.70007,1.003277 7.99564,0.0094 c 4.3976,0.0052 7.99564,-0.113776 7.99564,-0.264388 z m -12.16,-6.994489 c 0,-0.155584 0.74448,-1.019584 1.6544,-1.92 0.90992,-0.900413 1.5604,-1.637117 1.44551,-1.637117 -0.61551,0 -4.06808,2.197184 -3.75581,2.39017 0.19906,0.12303 0.27437,0.499571 0.16735,0.836761 -0.10877,0.342714 -0.044,0.613069 0.14699,0.613069 0.18786,0 0.34156,-0.127296 0.34156,-0.282883 z m 22.49372,-0.58368 c 2.01513,-0.722282 3.38441,-1.929591 3.62508,-3.196256 0.24046,-1.265633 -1.54169,-3.104426 -3.37647,-3.483775 -0.62829,-0.129899 -1.35833,-0.292264 -1.62233,-0.36081 -3.54195,-0.919648 -5.32365,-0.02942 -7.27411,3.634501 -0.71624,1.34546 -0.71624,1.34546 0.31682,1.049181 0.56819,-0.162953 2.06038,-0.296278 3.31599,-0.296278 2.9859,0 3.42226,0.456534 2.52337,2.64 -0.30281,0.735549 0.46543,0.739693 2.49165,0.01344 z M 142.72,30.590612 c 0,-0.204063 -0.38855,-0.40318 -0.86344,-0.442483 -0.7998,-0.06619 -0.81979,-0.03954 -0.27111,0.36166 0.39239,0.286927 0.50108,0.58452 0.32201,0.881666 -0.23013,0.381859 -0.18982,0.383251 0.27111,0.0094 0.29779,-0.24155 0.54143,-0.606143 0.54143,-0.810206 z M 48.574922,20.31741 c 0.0522,-0.04432 -0.436282,-0.18024 -1.08553,-0.302039 -0.890102,-0.166984 -1.306992,-0.09163 -1.694922,0.306366 -0.47687,0.489246 -0.397539,0.51132 1.08553,0.30204 0.88,-0.12418 1.642714,-0.262045 1.694922,-0.306367 z"
     id="path1212"
     inkscape:connector-curvature="0" />
</svg>
