<?xml version="1.0" encoding="UTF-8" standalone="no"?>
<!-- Created with Inkscape (http://www.inkscape.org/) -->

<svg
   xmlns:dc="http://purl.org/dc/elements/1.1/"
   xmlns:cc="http://creativecommons.org/ns#"
   xmlns:rdf="http://www.w3.org/1999/02/22-rdf-syntax-ns#"
   xmlns:svg="http://www.w3.org/2000/svg"
   xmlns="http://www.w3.org/2000/svg"
   xmlns:sodipodi="http://sodipodi.sourceforge.net/DTD/sodipodi-0.dtd"
   xmlns:inkscape="http://www.inkscape.org/namespaces/inkscape"
   version="1.1"
   id="svg1295"
   width="140.16"
   height="158.39999"
   viewBox="0 0 140.16 158.39999"
   sodipodi:docname="video.svg"
   inkscape:version="0.92.4 5da689c313, 2019-01-14">
  <metadata
     id="metadata1301">
    <rdf:RDF>
      <cc:Work
         rdf:about="">
        <dc:format>image/svg+xml</dc:format>
        <dc:type
           rdf:resource="http://purl.org/dc/dcmitype/StillImage" />
        <dc:title></dc:title>
      </cc:Work>
    </rdf:RDF>
  </metadata>
  <defs
     id="defs1299" />
  <sodipodi:namedview
     pagecolor="#ffffff"
     bordercolor="#666666"
     borderopacity="1"
     objecttolerance="10"
     gridtolerance="10"
     guidetolerance="10"
     inkscape:pageopacity="0"
     inkscape:pageshadow="2"
     inkscape:window-width="3200"
     inkscape:window-height="1745"
     id="namedview1297"
     showgrid="false"
     inkscape:zoom="8.061869"
     inkscape:cx="70.080002"
     inkscape:cy="84.161626"
     inkscape:window-x="0"
     inkscape:window-y="55"
     inkscape:window-maximized="1"
     inkscape:current-layer="svg1295" />
  <path
     style="fill:#000000;stroke-width:0.31999999"
     d="m 19.68,150.15962 c -1.936705,-0.1216 -6.9474,-1.04605 -7.738412,-1.4277 -0.384128,-0.18533 -0.913599,-0.2544 -1.176604,-0.15347 -1.0519405,0.40367 -1.3238413,-0.69528 -1.3626982,-5.50762 -0.03767,-4.66541 -0.3093255,-11.64034 -0.6181277,-15.87084 -0.3697504,-5.06547 -0.4786896,-6.06558 -0.7843584,-7.20074 -0.1760637,-0.65385 -0.3070131,-1.53317 -0.2909991,-1.95404 0.016014,-0.42087 -0.073186,-3.14122 -0.1982233,-6.04522 C 7.0556016,101.43313 7.248377,79.62948 7.8240394,76.5462 8.0216378,75.487854 8.4621062,63.933193 8.8024461,50.879997 8.9750922,44.258432 9.002247,43.642948 9.4660038,35.839998 c 0.1412138,-2.376 0.244848,-4.752 0.230298,-5.28 -0.1693962,-6.147093 -0.105754,-10.775297 0.1826124,-13.279999 0.1924978,-1.672 0.3524908,-3.996593 0.3555408,-5.165763 0.0063,-2.404123 0.470942,-2.9119191 1.842352,-2.013337 0.785254,0.514518 1.516192,0.511847 9.043193,-0.03304 0.616,-0.04459 1.433714,-0.096104 1.817143,-0.1144668 0.383429,-0.018365 0.930726,-0.2669715 1.216217,-0.5524624 0.401719,-0.4017186 0.867116,-0.4729049 2.058493,-0.3148633 0.84668,0.1123162 2.603383,0.052321 3.903783,-0.1333235 C 31.416036,8.7670942 34.784,8.6031899 37.6,8.5885067 40.416,8.5738219 43.547107,8.4479444 44.558013,8.3087761 47.082902,7.9611825 54.881821,7.9019374 67.04,8.1379896 c 5.632,0.1093459 14.416,0.2672278 19.52,0.3508489 5.104,0.083621 11.656,0.2568435 14.56,0.3849385 6.43209,0.2837187 12.73057,0.2722557 16.16,-0.029411 7.16194,-0.6299922 12.91564,-0.2855388 14.62385,0.8754781 1.20411,0.8183879 1.20923,0.8777339 0.44595,5.1601539 -0.69611,3.90551 -1.09681,7.605369 -1.29961,12 -0.40912,8.865148 -0.65932,11.704895 -2.10046,23.839998 -0.18811,1.584 -0.40124,3.528 -0.47361,4.32 -0.45895,5.022771 -0.79956,9.176809 -0.95768,11.679999 -0.10006,1.584 -0.28464,3.384 -0.41018,4 -0.12555,0.616 -0.23429,8.823999 -0.24165,18.239999 -0.007,9.415999 -0.0471,20.791996 -0.0884,25.279996 -0.0518,5.64202 0.0748,9.49305 0.41031,12.48 0.26692,2.376 0.48669,5.33755 0.48838,6.58123 0.004,2.61733 0.51661,5.77514 1.08833,6.69877 0.73459,1.18673 0.64371,3.56019 -0.18061,4.71693 -0.40883,0.57369 -0.95962,1.47479 -1.22398,2.00244 -0.5937,1.18499 -1.47622,1.34176 -8.96066,1.59171 -2.904,0.097 -6.936,0.31198 -8.96,0.47777 -2.024,0.16579 -12.082365,0.39438 -22.351923,0.50798 -10.269559,0.11359 -19.053559,0.25352 -19.52,0.31094 -1.600887,0.19707 -9.497261,0.18428 -18.608077,-0.0302 -7.142214,-0.1681 -10.612013,-0.0993 -16,0.31716 -6.138601,0.47449 -9.024434,0.53205 -13.28,0.26486 z m 9.76,-2.33738 c 0,-0.36538 -0.153127,-0.95044 -0.340282,-1.30015 -0.434785,-0.8124 -0.59591,-3.98474 -0.786342,-15.4821 -0.08454,-5.104 -0.164565,-9.928 -0.177838,-10.72 -0.03944,-2.35356 -0.0027,-2.50825 0.644447,-2.71365 0.685867,-0.21768 1.940015,0.42226 1.940015,0.98991 0,0.19928 0.684,0.44314 1.52,0.54192 0.836,0.0988 2.456,0.32568 3.6,0.50422 4.929341,0.7693 16.741293,0.95502 22.342205,0.35129 1.640214,-0.1768 6.752214,-0.31589 11.36,-0.30909 4.607789,0.007 9.241795,-0.13665 10.297795,-0.31879 1.104435,-0.1905 4.134938,-0.259 7.1344,-0.16128 2.86792,0.0934 6.39592,0.0251 7.84,-0.15196 5.51354,-0.67586 10.91741,-0.95706 11.15031,-0.58023 0.13476,0.21805 0.97644,0.3305 2.12336,0.28369 1.79864,-0.0734 1.94797,-0.0209 2.79663,0.98321 1.53426,1.81533 2.09606,3.46596 1.90087,5.58504 -0.19809,2.15057 -0.20397,4.90185 -0.0308,14.42014 0.10995,6.04504 0.0668,6.8022 -0.39567,6.94764 -0.28549,0.0898 0.48893,0.0942 1.72093,0.01 1.232,-0.0843 3.536,-0.15613 5.12,-0.15957 4.90056,-0.0107 5.34337,-0.13833 6.71431,-1.93603 1.06433,-1.39564 1.16203,-1.67306 0.86286,-2.4501 -0.47016,-1.22114 -1.01719,-5.8121 -1.01719,-8.53671 0,-1.25327 -0.2315,-4.07438 -0.51444,-6.26912 -0.3954,-3.06708 -0.488,-6.02673 -0.40019,-12.79045 0.0628,-4.84 0.0672,-15.423996 0.01,-23.519996 -0.12693,-17.876293 0.31884,-24.849361 2.82305,-44.159997 0.62758,-4.839456 0.98126,-8.892655 1.28447,-14.719999 0.43324,-8.326397 0.61096,-10.788916 0.98864,-13.698415 0.35611,-2.743379 0.43519,-7.221825 0.13285,-7.524164 -0.50044,-0.500436 -5.74374,-0.9480571 -9.16987,-0.782831 -4.41621,0.212972 -4.05719,-0.4487035 -4.30029,7.925411 -0.0869,2.992 -0.31069,6.375999 -0.49741,7.519999 -0.18671,1.144 -0.30379,4.096 -0.26018,6.56 0.1415,7.993747 0.13964,8.034281 -0.4068,8.868255 -1.39206,2.124544 -4.59044,2.634093 -14.32954,2.282909 -8.220176,-0.296413 -11.853197,-0.262685 -21.76,0.202022 -6.694676,0.314029 -11.433738,0.502954 -20.8,0.829194 -2.904,0.101149 -5.856,0.240662 -6.56,0.310029 -3.216506,0.316928 -24.317215,0.126179 -25.508006,-0.230592 -2.623839,-0.786119 -2.67764,-1.161517 -2.53701,-17.701817 0.02694,-3.167999 -0.07559,-6.551999 -0.227825,-7.519999 -0.152239,-0.968 -0.189131,-3.092033 -0.08198,-4.720073 0.225376,-3.424444 0.721328,-3.188715 -5.565186,-2.64516 -5.919423,0.511816 -5.515842,0.219241 -5.74609,4.165605 -0.09754,1.671795 -0.251025,3.471628 -0.341078,3.999628 -0.09005,0.528 -0.21902,4.343999 -0.286594,8.479999 -0.06757,4.136 -0.291531,9.536 -0.497683,11.999999 -0.206152,2.464 -0.423751,7.072 -0.483555,10.24 -0.0598,3.168 -0.19535,7.703999 -0.301215,10.079999 -0.105866,2.376 -0.267104,6.048 -0.358307,8.16 -0.1761222,4.078508 -0.3849356,7.858278 -0.6364223,11.519999 -0.6673191,9.716371 -0.2902189,32.849955 0.6546473,40.159995 0.639949,4.95103 0.703149,5.77141 1.281887,16.64 0.04217,0.792 0.09417,3.1401 0.115544,5.21799 0.04604,4.475 0.32513,4.71511 6.321836,5.43883 6.15336,0.74262 11.63703,0.68864 11.63703,-0.11457 z m 43.759693,-36.32922 c -0.109767,-0.10977 -7.732602,-0.24157 -16.939635,-0.2929 -22.76696,-0.12692 -25.11391,-0.32388 -26.350618,-2.21133 -0.276719,-0.42233 -0.838996,-0.85217 -1.249503,-0.9552 -0.825976,-0.20731 -1.211249,-1.36437 -1.183261,-3.5536 0.08415,-6.58239 0.04739,-8.797058 -0.196533,-11.839996 -0.155191,-1.936 -0.233116,-7.119999 -0.173167,-11.519999 0.05995,-4.4 -0.01202,-9.123929 -0.159924,-10.497619 -0.150105,-1.394099 -0.146769,-2.573113 0.0076,-2.668489 0.15206,-0.09398 0.08948,-0.396182 -0.139065,-0.671562 -0.228546,-0.275382 -0.37091,-0.551856 -0.316363,-0.614387 0.05455,-0.06253 0.02069,-0.7244 -0.07524,-1.470819 -0.09593,-0.746416 -0.249203,-2.869123 -0.340612,-4.717123 -0.09141,-1.848 -0.248184,-4.368 -0.348388,-5.599999 -0.270943,-3.331207 -0.282993,-3.323207 5.30506,-3.522045 6.44953,-0.229494 11.600486,-0.480998 14.24,-0.695296 2.414883,-0.196058 2.778365,-0.20641 4,-0.11393 0.44,0.03331 1.331322,-0.02282 1.98071,-0.124736 0.665588,-0.104454 1.26858,-0.04313 1.382112,0.140573 0.110772,0.179232 0.320372,0.252346 0.465783,0.162477 0.145411,-0.08987 4.707459,-0.234611 10.137888,-0.321651 C 68.676922,50.318349 74.632,50.169971 76.48,50.075661 c 1.848,-0.09431 7.176,-0.233104 11.84,-0.308435 9.67623,-0.156279 17.31688,-0.419495 18.72,-0.64489 1.76973,-0.284288 7.57886,-0.231481 7.88199,0.07165 0.61422,0.614224 0.86499,22.5546 0.31111,27.220085 -0.18191,1.532259 -0.48451,4.657926 -0.67246,6.945926 -0.42764,5.20607 -0.5922,6.670006 -0.95324,8.479999 -0.3859,1.934666 -0.77445,7.432822 -0.80279,11.359994 -0.0261,3.62283 -0.88606,6.1173 -2.20131,6.38565 -1.04554,0.21332 -3.86076,0.60827 -4.06142,0.56978 -0.098,-0.0188 -1.82596,0.26239 -3.84,0.62486 -3.65395,0.6576 -28.94629,1.26864 -29.502187,0.71274 z M 98.24,109.62169 c 1.496,-0.13316 4.016,-0.52863 5.6,-0.87883 1.584,-0.35019 3.50493,-0.71678 4.26873,-0.81465 0.94253,-1.12979 1.78438,-2.28942 2.41076,-4.24822 -0.0839,-0.68714 0.13706,-3.864172 0.66782,-9.602681 0.0734,-0.793475 0.21024,-1.657475 0.30411,-1.92 0.25429,-0.711139 0.85009,-5.599935 0.99414,-8.157314 0.14737,-2.616227 0.40824,-5.361562 0.63857,-6.72 0.74794,-4.411398 0.83147,-9.273791 0.27211,-15.839999 -0.0675,-0.792 -0.17601,-3.523446 -0.2412,-6.069881 l -0.11853,-4.629885 -3.79825,0.108016 C 107.14922,50.907651 104,51.013398 102.24,51.083238 100.48,51.153075 93.424,51.28793 86.56,51.382912 57.297507,51.78784 51.447856,51.938806 42.950509,52.508371 40.183728,52.693824 36.336,52.89631 34.4,52.958339 c -1.936,0.06203 -4.148414,0.216941 -4.916476,0.344246 l -1.396476,0.231466 0.198424,5.746681 c 0.109132,3.160672 0.256133,5.840057 0.326668,5.954185 0.179772,0.290877 0.608771,7.19945 0.579055,9.325078 -0.119215,8.527661 -0.0808,15.189599 0.105296,18.257673 0.122173,2.014278 0.256297,5.534326 0.298053,7.822322 0.10267,5.62581 0.09091,5.53282 0.725456,5.73762 0.308,0.0994 0.788114,0.58316 1.066919,1.075 1.017407,1.79484 2.741695,1.92921 27.626719,2.1529 9.489498,0.0853 17.289504,0.19095 17.333344,0.23479 0.192042,0.192 19.439156,-1.8e-4 21.893018,-0.21861 z M 55.166157,103.6426 c -0.311178,-0.34385 -0.736941,-0.5595 -0.946141,-0.47922 -0.2092,0.0803 -0.570509,-0.23864 -0.802909,-0.70871 -0.462992,-0.93648 -0.500121,-2.27994 -0.575293,-20.814621 -0.04545,-11.206303 -0.07296,-11.695084 -0.738595,-13.119999 -0.841629,-1.801673 -0.939145,-2.919872 -0.278566,-3.194281 0.517638,-0.215034 0.620387,-0.792115 0.741872,-4.166749 0.107977,-2.999392 0.803811,-3.395318 3.558096,-2.024557 1.103216,0.549053 2.692464,1.152151 3.531661,1.340218 0.839196,0.188067 2.05184,0.621056 2.694764,0.962198 4.434599,2.353037 9.48258,4.318208 16.848954,6.559274 1.584,0.4819 3.096,1.054326 3.36,1.272057 0.264,0.217734 1.848,0.926861 3.52,1.575837 1.672,0.648979 3.655853,1.462556 4.40856,1.807955 0.752707,0.345395 1.559261,0.627993 1.792339,0.627993 0.233079,0 1.057226,0.339748 1.83144,0.754996 5.16169,2.768454 5.788592,3.262886 5.506215,4.342694 -0.198154,0.757744 -4.73754,5.454867 -5.297127,5.481199 -0.220784,0.0104 -1.003062,0.334387 -1.738397,0.72 -0.735331,0.38561 -2.716486,1.40073 -4.402566,2.255824 -1.68608,0.855091 -3.138096,1.672013 -3.226701,1.815379 -0.08861,0.143367 -0.57199,0.350915 -1.074189,0.461216 -0.502198,0.110301 -1.253168,0.517379 -1.668822,0.904618 -0.415651,0.387241 -0.79609,0.666144 -0.845414,0.619785 -0.114951,-0.108038 -2.66144,1.256819 -4.725338,2.532663 -0.88,0.543993 -3.688,2.071263 -6.24,3.393939 -2.552,1.322671 -4.928,2.65151 -5.28,2.952969 -0.708192,0.606513 -3.373808,1.924713 -3.892067,1.924713 -0.734967,0 -1.870951,1.30148 -1.393527,1.59654 0.293479,0.18139 0.0071,0.24165 -0.810265,0.17054 -0.813402,-0.0708 -1.625706,0.0987 -2.278176,0.47536 -0.989008,0.57089 -1.027997,0.56991 -1.579808,-0.0398 z M 46.08,147.86298 c 12.107098,0.1875 17.937696,0.15862 32.96,-0.16324 7.304,-0.15649 17.096,-0.32254 21.76,-0.36899 4.664,-0.0465 8.80107,-0.13996 9.19348,-0.20776 0.72602,-0.12546 1.39453,-0.56309 0.85985,-0.56289 -0.17371,7e-5 -0.26146,-4.60002 -0.21519,-11.28 0.0812,-11.71816 -0.0396,-13.06007 -1.23273,-13.69862 -0.34283,-0.18348 -0.53193,-0.4815 -0.4202,-0.66227 0.13332,-0.21573 -0.27598,-0.26527 -1.19104,-0.14415 -1.87633,0.24834 -12.004298,0.64865 -14.99417,0.59264 -1.32,-0.0247 -4.704,0.1659 -7.52,0.4236 -2.816,0.25771 -8.36,0.60248 -12.32,0.76615 -7.017878,0.29006 -32.577103,0.64308 -38.575548,0.80392 l -3.682014,-1.40809 -0.183872,4.28889 c -0.400748,9.34759 -0.07842,18.27671 0.916193,19.06782 0.544478,0.43307 0.583497,0.61792 0.258597,1.225 -0.72657,1.35761 -0.314919,1.55027 2.919572,1.36642 1.64289,-0.0934 6.803072,-0.1107 11.467072,-0.0385 z M 53.6,42.868199 c 2.464,-0.134435 8.224,-0.348186 12.8,-0.475005 4.576,-0.126816 8.396675,-0.274307 8.49039,-0.327753 0.822237,-0.468919 15.589962,-0.710954 28.46961,-0.466599 5.77838,0.109629 7.64736,-0.0896 9.49329,-1.011977 0.67744,-0.338503 0.69074,-0.471728 0.58166,-5.826646 -0.0658,-3.22939 0.0389,-6.334516 0.25487,-7.560221 0.20158,-1.144 0.38579,-3.951999 0.40936,-6.239999 0.0236,-2.288 0.13841,-5.528 0.2552,-7.2 l 0.21236,-3.04 -4.56337,-0.006 C 107.49352,10.710723 103.424,10.60952 100.96,10.48912 87.941085,9.8529655 47.517773,9.3264468 46.054419,9.7739674 c -0.27807,0.085039 -4.45407,0.2874556 -9.28,0.4498156 -4.82593,0.16236 -9.088145,0.390537 -9.471589,0.50706 -1.084767,0.329645 -1.179441,1.704734 -1.116146,16.21142 0.06599,15.125136 0.131571,15.655568 1.973969,15.966857 1.62876,0.275191 20.192723,0.245328 25.439347,-0.04092 z"
     id="path1305"
     inkscape:connector-curvature="0"
     sodipodi:nodetypes="cccsscssssssscsccsscsssssscccccccccccccccsscccccccsccscsscccccccsccccccssccssccsccccssssccccsscsscssssccscccsccsssccccsssscccccssssccccccccccccccccccscccsssccssscsccscccccsccssscscccscccsccscccccsccccccscccccccccsccsccccccscscccccccsssssccc" />
</svg>
