<?xml version="1.0" encoding="UTF-8" standalone="no"?>
<!-- Created with Inkscape (http://www.inkscape.org/) -->

<svg
   xmlns:dc="http://purl.org/dc/elements/1.1/"
   xmlns:cc="http://creativecommons.org/ns#"
   xmlns:rdf="http://www.w3.org/1999/02/22-rdf-syntax-ns#"
   xmlns:svg="http://www.w3.org/2000/svg"
   xmlns="http://www.w3.org/2000/svg"
   xmlns:sodipodi="http://sodipodi.sourceforge.net/DTD/sodipodi-0.dtd"
   xmlns:inkscape="http://www.inkscape.org/namespaces/inkscape"
   version="1.1"
   id="svg545"
   width="83.839996"
   height="105.6"
   viewBox="0 0 83.839996 105.6"
   sodipodi:docname="quality.svg"
   inkscape:version="0.92.4 5da689c313, 2019-01-14">
  <metadata
     id="metadata551">
    <rdf:RDF>
      <cc:Work
         rdf:about="">
        <dc:format>image/svg+xml</dc:format>
        <dc:type
           rdf:resource="http://purl.org/dc/dcmitype/StillImage" />
        <dc:title></dc:title>
      </cc:Work>
    </rdf:RDF>
  </metadata>
  <defs
     id="defs549" />
  <sodipodi:namedview
     pagecolor="#ffffff"
     bordercolor="#666666"
     borderopacity="1"
     objecttolerance="10"
     gridtolerance="10"
     guidetolerance="10"
     inkscape:pageopacity="0"
     inkscape:pageshadow="2"
     inkscape:window-width="3200"
     inkscape:window-height="1734"
     id="namedview547"
     showgrid="false"
     inkscape:zoom="11.988637"
     inkscape:cx="41.919998"
     inkscape:cy="52.799999"
     inkscape:window-x="0"
     inkscape:window-y="66"
     inkscape:window-maximized="1"
     inkscape:current-layer="svg545" />
  <path
     style="fill:#000000;stroke-width:0.31999999"
     d="m 25.355714,101.68 c -0.193837,-0.396 -0.593746,-1.296 -0.888685,-2 -0.294939,-0.704 -0.731342,-1.712 -0.969785,-2.24 -0.238442,-0.528 -0.720754,-1.648486 -1.071804,-2.489971 -0.638274,-1.529968 -0.638274,-1.529968 -1.851857,-1.001479 -5.469435,2.381834 -9.373584,2.947709 -9.373584,1.358631 0,-0.578925 1.734051,-4.566803 3.10781,-7.147181 4.502969,-8.458077 7.663465,-15.242813 7.029709,-15.090896 -2.438129,0.584435 -2.958744,0.574634 -3.539083,-0.06663 -0.568313,-0.627977 -0.546377,-0.68095 0.970051,-2.342489 0.853332,-0.934989 1.688858,-1.798615 1.856725,-1.919168 C 21.668007,67.991926 13.776015,60.8 11.911435,60.8 11.41209,60.8 9.5160699,59.020912 9.2391292,58.292502 8.8102399,57.164438 9.5447272,56.57927 12.338877,55.822931 c 1.168317,-0.316249 2.196364,-0.763021 2.28455,-0.992829 0.291945,-0.7608 -3.48435,-7.67775 -5.5182668,-10.107676 -1.4179359,-1.694013 -2.0053676,-3.740743 -1.2352524,-4.303866 0.6396435,-0.467718 1.4002246,-0.48983 3.9700912,-0.115418 2.149109,0.313111 2.040703,0.414295 1.952439,-1.822348 -0.07923,-2.007834 -0.07468,-1.956096 -0.683365,-7.760794 -0.616853,-5.882569 -0.0705,-6.907312 2.913951,-5.465384 0.757452,0.365961 1.407915,0.665384 1.445472,0.665384 0.215476,0 1.513178,-2.5508 2.240135,-4.403272 C 20.174125,20.330527 21.0635,18.28 21.685018,16.96 c 0.621519,-1.32 1.451664,-3.264 1.844767,-4.32 1.033046,-2.7750918 1.851853,-2.8069024 3.632005,-0.141103 0.725015,1.085718 1.318209,2.106585 1.318209,2.268594 0,0.417036 3.688127,-2.171108 5.539705,-3.887491 2.671936,-2.4768387 3.606173,-2.2813664 3.945737,0.825575 0.09464,0.865933 0.226663,1.629955 0.293383,1.697826 0.06672,0.06787 2.087244,-1.37213 4.490057,-3.2 2.402813,-1.8278708 4.605738,-3.4986919 4.895389,-3.7129364 1.505619,-1.1136508 2.384723,0.2676605 1.946422,3.058354 C 49.434238,10.544968 49.221636,13.736 49.118244,16.64 c -0.276189,7.757367 -0.421862,10.209885 -0.62608,10.540314 -0.215334,0.34842 0.01133,0.500484 1.151315,0.772374 0.632973,0.150967 0.890205,0.06218 1.030707,-0.355757 0.197444,-0.587305 0.419476,-0.957428 1.965811,-3.276931 1.165888,-1.748834 1.42368,-2.174204 2.852381,-4.706602 0.616429,-1.09263 1.776461,-2.887701 2.577853,-3.989044 0.801389,-1.101344 1.407926,-2.149874 1.347862,-2.330066 -0.152781,-0.45834 -2.233936,-0.244197 -4.732595,0.486964 -3.289072,0.962453 -5.501635,0.564736 -4.943904,-0.888684 0.09812,-0.255702 0.178404,-0.525135 0.178404,-0.59874 0,-0.0736 0.492368,-0.133828 1.094153,-0.133828 0.601786,0 1.933786,-0.20859 2.96,-0.463533 1.026214,-0.254943 3.341846,-0.555694 5.145846,-0.668334 3.877818,-0.242128 4.202214,0.251 2.16,3.283514 -1.438493,2.13604 -1.430909,2.174375 0.56,2.831007 0.924,0.30475 2.832,1.15923 4.24,1.898845 1.408,0.739615 3.532,1.68856 4.72,2.108767 2.431568,0.860067 2.598947,1.222922 1.176876,2.551336 l -0.983126,0.918376 0.976595,1.210011 c 0.537127,0.665506 1.471587,1.60262 2.076582,2.082475 0.604992,0.479855 2.267517,2.174625 3.694493,3.766156 2.942368,3.281665 3.011942,3.830644 0.573357,4.524046 -0.745127,0.211872 -1.491578,0.50495 -1.658778,0.65128 -0.1672,0.146329 -0.5344,0.266054 -0.816,0.266054 -0.872697,0 -1.306092,0.659622 -0.779427,1.186285 0.252685,0.252688 0.459427,0.71951 0.459427,1.037389 0,0.317878 0.19232,0.737574 0.427383,0.932656 0.235059,0.195081 0.972371,1.616713 1.638473,3.159184 0.666099,1.542467 1.403722,3.236486 1.639159,3.764486 0.711331,1.595264 -0.21097,2.22937 -3.098291,2.130154 -2.286768,-0.07858 -2.286768,-0.07858 -2.086244,0.815632 0.110285,0.491817 0.340269,1.671843 0.511069,2.622281 0.1708,0.950435 0.462781,2.189341 0.648845,2.753123 0.186064,0.563783 0.397232,1.298151 0.469264,1.631933 0.07203,0.333783 0.432253,1.732211 0.800493,3.107616 0.669523,2.500743 0.669523,2.500743 -0.06031,3.109354 -0.98327,0.819955 -0.893043,0.841782 -3.926384,-0.949875 l -2.674624,-1.57978 -1.284502,1.97978 C 67.817846,63.909098 66.636896,65.952 65.899984,67.36 c -2.706704,5.171645 -3.213299,5.92 -4.007513,5.92 -0.416656,0 -4.403043,-4.381002 -4.701639,-5.167059 -0.120934,-0.318359 -0.302163,-0.246551 -0.684774,0.271331 -0.286176,0.387347 -0.751033,0.934989 -1.033021,1.216976 -0.470272,0.470272 -0.460857,0.570886 0.11378,1.215728 0.666176,0.747565 1.501673,2.855536 1.864051,4.703024 0.120825,0.616 0.613408,2.056 1.094624,3.2 0.777465,1.848269 1.41224,4.008291 1.739744,5.92 0.590374,3.44617 0.950809,4.96 1.180953,4.96 0.150547,0 0.193859,0.208118 0.09625,0.462486 -0.09761,0.254368 0.194908,1.645591 0.650041,3.091607 0.969939,3.081619 1.066055,4.694457 0.297335,4.989443 -0.638432,0.244989 -1.047197,0.0029 -5.408976,-3.205206 -4.507744,-3.315325 -4.078874,-3.302112 -5.588867,-0.172192 -2.845802,5.898792 -3.603923,6.993862 -4.841878,6.993862 -0.751146,0 -1.120675,-0.75653 -1.384349,-2.834163 C 44.990161,96.596758 42.697064,89.172477 41.268705,85.92 40.091163,83.238656 39.744437,82.375117 39.534136,81.6 38.969966,79.520586 38.654968,79.015606 38.17204,79.4164 37.542174,79.939142 35.796894,83.453872 34.274171,87.266115 33.585701,88.98975 32.523592,91.408 31.91393,92.64 c -0.609662,1.232 -1.43188,3.032 -1.827152,4 -1.31153,3.211869 -1.993114,4.63401 -2.492184,5.2 -0.693062,0.786 -1.815075,0.70581 -2.23888,-0.16 z m 2.618855,-5.84 c 0.03975,-0.176 0.313735,-0.877587 0.608852,-1.559078 0.295118,-0.681495 0.536578,-1.365495 0.536578,-1.52 0,-0.154509 0.144,-0.280922 0.32,-0.280922 0.176,0 0.285701,-0.108 0.243781,-0.24 -0.1962,-0.617795 2.069613,-4.640538 2.369431,-4.206704 0.225549,0.326368 0.257031,0.261814 0.116871,-0.239632 -0.203994,-0.729808 0.281497,-2.223997 1.783174,-5.488032 0.509709,-1.107904 0.926742,-2.078909 0.926742,-2.157795 0,-0.07888 0.644826,-1.179591 1.432947,-2.446019 1.439412,-2.312986 1.635712,-3.061341 0.543818,-2.073191 C 36.533825,75.920883 36.12684,76.16 35.952347,76.16 c -0.17449,0 -0.719094,0.504 -1.210227,1.12 -1.670893,2.095699 -3.39736,1.378176 -3.02099,-1.255526 0.604708,-4.231524 0.533668,-4.385719 -1.986624,-4.312128 -3.512608,0.102566 -3.734883,0.193926 -4.89888,2.013545 -0.578821,0.904845 -1.29225,1.885018 -1.585396,2.178163 -0.700328,0.70033 -1.66179,2.410586 -4.191538,7.455946 -1.147206,2.288 -2.504838,4.952 -3.016962,5.92 -1.586186,2.998163 -2.316343,4.552054 -2.195665,4.672733 0.242558,0.242557 4.493526,-1.15368 5.891721,-1.935146 1.81999,-1.017213 2.057382,-1.015939 3.285705,0.01763 0.801703,0.674586 2.256508,3.099165 2.256508,3.760695 0,0.08307 0.304254,0.846966 0.676121,1.697555 L 26.632241,99.04 27.267268,97.6 c 0.349264,-0.792 0.66755,-1.584 0.707301,-1.76 z m 20.311243,0.227722 c 0.514266,-1.018752 0.984336,-2.134752 1.044605,-2.48 0.06027,-0.345248 0.198237,-0.699722 0.306595,-0.787722 0.108355,-0.088 0.506106,-0.769696 0.883891,-1.51488 1.242547,-2.450944 2.936592,-2.114752 7.265677,1.441917 1.129379,0.927872 2.053417,1.603449 2.053417,1.501283 0,-0.102166 -0.414771,-1.869334 -0.921712,-3.927037 C 58.411344,88.243578 57.81352,85.624 57.589792,84.48 57.366061,83.336 56.642384,81.032 55.981623,79.36 55.320858,77.688 54.593441,75.286861 54.365137,74.024134 l -0.415095,-2.295862 -1.135024,1.175862 c -1.597027,1.654496 -3.53502,4.254407 -3.53502,4.7424 0,0.537101 -1.201175,1.172186 -1.789808,0.946308 -0.423424,-0.162484 -0.99336,-1.267613 -1.254666,-2.432842 -0.0592,-0.264 -0.347776,-1.488 -0.641277,-2.72 -0.801584,-3.364733 -0.812105,-3.419869 -0.923536,-4.840058 -0.05696,-0.726035 -0.202726,-1.480496 -0.323916,-1.676585 -0.317597,-0.513879 -1.427319,-9.107818 -1.220691,-9.453309 0.09919,-0.165846 -0.275911,-0.200086 -0.876349,-0.08 C 41.672388,57.505523 40.445563,57.6 39.523473,57.6 c -1.676524,0 -1.676524,0 -2.224854,1.52 -0.301581,0.836 -0.661971,1.808 -0.800867,2.16 -0.845287,2.14217 -1.804803,7.116448 -2.053677,10.646576 -0.196566,2.788189 0.08188,3.096758 1.381424,1.530896 C 36.052574,73.183862 36.41163,72.96 36.6234,72.96 c 0.211769,0 0.723238,-0.36 1.136598,-0.8 0.41336,-0.44 0.906461,-0.803203 1.095779,-0.807117 0.189322,-0.0039 0.704221,-0.28871 1.144221,-0.632883 0.86664,-0.677898 2.709952,-0.854026 3.057229,-0.292122 0.118249,0.191332 0.468493,0.281588 0.77832,0.200567 0.439267,-0.114871 0.526838,0.0022 0.397667,0.532121 -0.222006,0.91057 -0.720506,1.512698 -1.072339,1.295255 -0.661002,-0.408522 -1.533991,0.304886 -2.163367,1.767904 -0.672275,1.562749 -0.672275,1.562749 0.12409,4.310832 0.438,1.511446 1.072237,3.359491 1.409414,4.106765 0.337181,0.747273 0.780576,1.934678 0.985325,2.638678 0.204749,0.704 0.456899,1.496 0.56033,1.76 0.10343,0.264 0.206636,0.552 0.229344,0.64 0.129334,0.501226 1.545558,5.086787 1.77894,5.76 0.152535,0.44 0.452733,1.628 0.667111,2.64 0.475238,2.243421 0.394752,2.244064 1.53375,-0.01229 z m 2.445146,-24.291527 c 1.036467,-1.372905 2.250012,-2.943641 2.696764,-3.490518 2.441443,-2.988618 2.507619,-2.133805 -0.54295,-7.013475 C 52.25785,60.269386 51.519998,58.522419 51.519998,58.040922 51.519998,57.798413 51.399047,57.6 51.251217,57.6 51.103386,57.6 50.791626,57.021837 50.55841,56.315197 50.101668,54.931245 49.876017,54.893846 47.935889,55.880541 47.460628,56.122243 46.79426,56.32 46.45507,56.32 c -0.339187,0 -0.765818,0.18 -0.948064,0.4 -0.313837,0.378851 -0.283984,4.106227 0.0371,4.632941 0.08283,0.135881 0.249568,1.154797 0.370518,2.264253 0.120947,1.109456 0.351635,2.476505 0.512637,3.037888 0.161005,0.561379 0.292733,1.44342 0.292733,1.960086 0,0.90993 0.217273,1.732077 1.209952,4.578374 0.567804,1.628058 0.461161,1.682023 2.801008,-1.417347 z M 26.239999,69.853523 c 1.144,-0.139437 3.03665,-0.249408 4.205889,-0.244381 2.363301,0.01018 2.037016,0.478557 3.12716,-4.489142 0.15449,-0.704 0.66775,-2.700803 1.140579,-4.437341 0.911959,-3.349312 0.904301,-3.392093 -0.721795,-4.033577 -1.118877,-0.441386 -2.311834,0.157462 -2.311834,1.160515 0,0.23672 -0.18,0.436976 -0.399999,0.445008 -0.37693,0.01376 -2.356517,2.517833 -4.097573,5.183209 -0.430335,0.658797 -0.890427,1.198797 -1.022427,1.2 -0.132,0.0013 -0.24,0.278186 -0.24,0.61552 0,0.337332 -0.11378,0.661332 -0.252844,0.72 -0.139064,0.05867 -0.751064,0.826666 -1.36,1.706666 -0.608936,0.88 -1.287156,1.715155 -1.507156,1.855901 -0.722704,0.462352 -0.426932,0.920211 0.48,0.743049 0.484,-0.09455 1.816,-0.28599 2.96,-0.425427 z M 63.282352,67.44 c 0.739773,-1.452 1.983747,-3.819782 2.764387,-5.261741 L 67.46609,59.556522 66.133043,58.868534 C 65.399869,58.490141 64.055594,57.689923 63.145767,57.090272 62.235943,56.490624 61.41984,56 61.332208,56 c -0.221177,0 -5.135247,-2.911075 -5.332211,-3.158781 -0.088,-0.110672 -0.614969,-0.519894 -1.171043,-0.909389 -1.01104,-0.708172 -1.01104,-0.708172 -1.84,0.378647 -0.455926,0.597753 -0.828956,1.243133 -0.828956,1.434182 0,0.609651 1.480889,4.611661 2.436531,6.584567 1.212025,2.502204 6.503154,9.750774 7.117625,9.750774 0.122739,0 0.828425,-1.188 1.568198,-2.64 z M 23.351766,65.037814 c 0.91301,-1.381235 2.856687,-3.92847 3.355765,-4.397814 0.18715,-0.176 0.502666,-0.68 0.701145,-1.12 0.198479,-0.44 1.169451,-1.687453 2.157714,-2.772118 l 1.796841,-1.972116 -1.162505,-1.294956 c -1.130986,-1.259844 -1.186996,-1.282292 -2.065725,-0.827882 -0.496771,0.25689 -1.090371,0.467904 -1.319111,0.468918 -0.614558,0.0029 -5.776078,1.729789 -8.895891,2.976589 -1.496,0.597863 -3.008,1.201927 -3.36,1.342368 -0.352,0.140439 -0.919256,0.308967 -1.260569,0.374506 -1.440002,0.276509 -1.139782,0.592016 2.921064,3.069798 1.374728,0.83881 3.291505,2.367591 4.259505,3.397287 2.132845,2.26879 1.910138,2.210204 2.871767,0.75542 z M 73.071593,56.88 c -1.912992,-7.450944 -1.956291,-7.568906 -2.861478,-7.796093 -0.44793,-0.112422 -3.648451,-0.0911 -7.112268,0.04738 -3.463818,0.138484 -6.65624,0.24169 -7.094272,0.229344 -1.074006,-0.03027 1.10568,1.890829 4.316422,3.80433 1.232,0.734234 2.751741,1.672486 3.3772,2.085005 C 64.322656,55.662483 64.994656,56 65.190531,56 c 0.195872,0 0.404131,0.108 0.4628,0.24 0.151882,0.341734 2.673107,1.68 3.165037,1.68 0.226179,0 0.689542,0.252 1.029696,0.56 0.340153,0.308 1.431491,1.011245 2.425197,1.562768 0.993705,0.55152 1.82478,1.01952 1.846835,1.04 C 74.142144,61.103248 73.670323,59.212 73.071593,56.88 Z M 43.173201,54.58425 c 0.450314,-0.407527 0.929859,-0.531639 1.564067,-0.404797 1.496218,0.299245 5.358912,-1.416605 4.691504,-2.084013 -0.07298,-0.07298 0.340134,-0.303664 0.918032,-0.512634 1.621651,-0.586396 3.946323,-4.132876 3.98863,-6.084988 0.01267,-0.584202 0.19936,-1.274663 0.41489,-1.534359 0.398573,-0.480249 0.487408,-2.703837 0.177523,-4.443459 -0.574246,-3.223709 -1.395658,-4.972106 -3.081939,-6.56 -3.392531,-3.19459 -3.544042,-3.309869 -3.892361,-2.961548 -0.249575,0.249573 -0.708004,0.219874 -1.630599,-0.105636 -1.726755,-0.609235 -3.201484,-0.570231 -6.057481,0.16021 -8.156326,2.086036 -11.59351,6.220868 -11.859782,14.266974 -0.08333,2.517958 -0.0628,2.59416 1.249745,4.64 2.345756,3.656278 5.309839,6.064323 7.186773,5.838582 0.701386,-0.08436 1.256624,0.01299 1.400336,0.24553 0.377347,0.61056 4.135129,0.260086 4.930662,-0.459862 z M 19.359999,53.419155 c 0.176,-0.118662 0.824,-0.363305 1.44,-0.543654 7.023863,-2.056387 6.947785,-2.012176 6.266828,-3.641936 -0.515916,-1.234759 -0.760091,-2.454506 -0.800514,-3.998874 -0.02143,-0.81887 -0.189515,-1.047097 -0.906314,-1.230637 -1.565436,-0.400832 -6.872429,-1.151068 -10.32,-1.458915 -1.848,-0.165014 -3.684,-0.353206 -4.08,-0.418208 -0.9858612,-0.161821 -0.925144,0.05692 0.665042,2.395863 0.761772,1.120464 1.608556,2.492819 1.88174,3.049676 0.273185,0.556861 1.246677,2.311959 2.163317,3.900221 1.770521,3.067779 1.914282,3.143616 3.689901,1.946464 z m 50.159998,-6.177069 c 3.828,0.07324 6.959999,0.01056 6.959999,-0.139289 0,-0.523674 -1.670729,-4.384519 -1.981318,-4.578573 -0.172339,-0.10768 -0.295085,-0.32368 -0.272768,-0.48 C 74.280361,41.6628 72.609677,39.04 72.312262,39.04 c -0.270624,0 -2.991149,1.186189 -6.232265,2.717357 -2.119376,1.001235 -6.527587,2.745805 -8.064934,3.191731 -0.54464,0.157981 -1.695066,1.706534 -1.695066,2.281677 0,0.218832 2.864599,0.272349 4.48,0.08369 0.968,-0.113047 4.892,-0.145613 8.72,-0.07237 z m -7.92,-5.699091 C 64.108659,40.617632 66.28408,39.575949 72.253901,36.441462 73.889545,35.582659 75.419913,34.88 75.654716,34.88 c 1.814816,0 0.24864,-2.216653 -4.694719,-6.644569 -0.836,-0.74883 -1.52,-1.504141 -1.52,-1.67847 0,-0.6588 -0.818231,-0.259472 -3.171687,1.547907 -1.335571,1.025676 -2.649372,1.945284 -2.919558,2.043572 -0.270185,0.09829 -1.821366,1.120159 -3.447075,2.270824 -1.625705,1.150666 -3.112755,2.144429 -3.304553,2.208362 -0.235808,0.0786 -0.172035,0.630457 0.19695,1.704307 0.300122,0.873437 0.625021,2.707171 0.721997,4.074969 0.202163,2.851364 -0.23584,2.729514 4.083926,1.136093 z M 26.84858,39.902877 c 0.225144,-1.090039 0.596939,-2.526362 0.826213,-3.191834 0.406925,-1.181107 0.39512,-1.221193 -0.495226,-1.681609 C 25.935496,34.386099 22.198002,31.786528 20.662399,30.496491 19.97072,29.915421 19.245864,29.44 19.051608,29.44 c -0.194255,0 -1.132874,-0.502322 -2.08582,-1.11627 -2.400594,-1.546617 -2.437676,-1.426776 -1.583111,5.11627 0.183894,1.408 0.362021,3.586998 0.395838,4.842218 l 0.06148,2.28222 1.76,0.199021 c 3.817989,0.431738 5.001794,0.586496 6.023105,0.787408 2.751062,0.541184 2.775933,0.528477 3.225476,-1.64799 z m 3.503354,-7.306919 c 0.62333,-0.72822 1.910228,-1.821014 2.859767,-2.428428 1.726441,-1.10439 1.726441,-1.10439 1.0948,-1.79596 -0.347402,-0.380364 -0.872397,-1.167722 -1.166656,-1.749686 -1.338238,-2.646663 -5.030031,-8.516778 -5.613211,-8.925253 -0.355649,-0.249107 -0.646635,-0.721086 -0.646635,-1.048843 0,-0.597895 -0.980091,-2.562248 -1.28,-2.565449 -0.459208,-0.0049 -2.955644,5.374401 -3.78582,8.157661 -0.524964,1.76 -1.181237,3.630723 -1.458383,4.157161 -0.498253,0.946427 -0.490513,0.969123 0.690149,2.023754 1.996586,1.783457 3.432707,2.810768 6.474054,4.631133 1.777623,1.063978 1.491351,1.110083 2.831935,-0.45609 z M 58.411898,30.88 c 1.663907,-1.144 3.103993,-2.08 3.200198,-2.08 0.0962,0 0.348835,-0.147787 0.561408,-0.328415 0.21257,-0.180628 1.034493,-0.749843 1.826493,-1.264923 2.790595,-1.814871 5.368748,-4.403604 4.64,-4.659039 -0.352,-0.12338 -1.936,-0.837909 -3.52,-1.587841 -6.259926,-2.963714 -6.398717,-2.990826 -7.32776,-1.43141 -0.369731,0.620604 -1.153987,1.952604 -1.742787,2.96 -0.5888,1.007395 -1.209299,1.831628 -1.378886,1.831628 -0.169584,0 -0.239159,0.111936 -0.154605,0.248746 0.08455,0.13681 -0.338947,1.030138 -0.941114,1.985172 -0.602166,0.955034 -1.094848,1.996566 -1.094848,2.314515 0,0.457199 2.429757,3.970479 2.813309,4.067874 0.05132,0.01302 1.454685,-0.912307 3.118592,-2.056307 z M 37.797073,27.886287 C 37.905464,27.772829 37.657841,25.664 37.246801,23.2 c -0.41104,-2.464 -0.823184,-5.128 -0.915875,-5.92 -0.667667,-5.704934 -0.382422,-5.344651 -2.594758,-3.277365 -0.893107,0.834551 -2.096887,1.880226 -2.675065,2.323723 -1.165783,0.894224 -1.109071,1.25215 0.658137,4.153642 0.375187,0.616 1.255197,2.2 1.955578,3.52 0.700384,1.32 1.477539,2.631175 1.727017,2.913722 0.257315,0.291424 0.36023,0.757022 0.237837,1.075978 -0.189034,0.492614 -0.08099,0.533805 0.872285,0.332565 0.598422,-0.12633 1.176726,-0.32252 1.285116,-0.435978 z m 3.08865,-0.740011 c 0.421673,-0.421673 3.239705,-0.541537 4.754499,-0.202231 1.193507,0.267339 1.263408,-0.171935 1.563296,-9.824045 0.09843,-3.168 0.252429,-6.228 0.342221,-6.8 0.08979,-0.572 0.07472,-1.04 -0.03348,-1.04 -0.343488,0 -5.592256,4.201455 -5.592256,4.476405 0,0.144806 -0.684,0.716058 -1.52,1.269448 -1.831539,1.212387 -1.959657,1.518174 -1.600454,3.819887 0.154006,0.986843 0.34512,2.37026 0.424701,3.07426 0.557052,4.927933 0.89543,5.992322 1.661478,5.226276 z"
     id="path555"
     inkscape:connector-curvature="0" />
</svg>
