<?xml version="1.0" encoding="UTF-8" standalone="no"?>
<!-- Created with Inkscape (http://www.inkscape.org/) -->

<svg
   xmlns:dc="http://purl.org/dc/elements/1.1/"
   xmlns:cc="http://creativecommons.org/ns#"
   xmlns:rdf="http://www.w3.org/1999/02/22-rdf-syntax-ns#"
   xmlns:svg="http://www.w3.org/2000/svg"
   xmlns="http://www.w3.org/2000/svg"
   xmlns:sodipodi="http://sodipodi.sourceforge.net/DTD/sodipodi-0.dtd"
   xmlns:inkscape="http://www.inkscape.org/namespaces/inkscape"
   version="1.1"
   id="svg1211"
   width="161.28"
   height="159.36"
   viewBox="0 0 161.28 159.36"
   sodipodi:docname="bibed-property-url.svg"
   inkscape:version="0.92.4 5da689c313, 2019-01-14">
  <metadata
     id="metadata1217">
    <rdf:RDF>
      <cc:Work
         rdf:about="">
        <dc:format>image/svg+xml</dc:format>
        <dc:type
           rdf:resource="http://purl.org/dc/dcmitype/StillImage" />
        <dc:title></dc:title>
      </cc:Work>
    </rdf:RDF>
  </metadata>
  <defs
     id="defs1215" />
  <sodipodi:namedview
     pagecolor="#ffffff"
     bordercolor="#666666"
     borderopacity="1"
     objecttolerance="10"
     gridtolerance="10"
     guidetolerance="10"
     inkscape:pageopacity="0"
     inkscape:pageshadow="2"
     inkscape:window-width="3200"
     inkscape:window-height="1734"
     id="namedview1213"
     showgrid="false"
     inkscape:zoom="3.9721385"
     inkscape:cx="104.55659"
     inkscape:cy="14.224076"
     inkscape:window-x="0"
     inkscape:window-y="66"
     inkscape:window-maximized="1"
     inkscape:current-layer="svg1211" />
  <path
     style="fill:#000000;stroke-width:0.31999999"
     d="m 72.8,155.05646 c -6.208774,-0.4496 -6.301696,-0.46141 -11.435066,-1.45367 -4.50087,-0.87 -8.913193,-2.24533 -12.309616,-3.83695 -1.509152,-0.70721 -2.932137,-1.28584 -3.162192,-1.28584 -0.732422,0 -9.082678,-4.39521 -10.474659,-5.5134 C 34.68231,142.37524 33.144,141.22858 32,140.41846 c -2.055381,-1.45551 -2.960426,-2.3495 -6.4,-6.32183 -0.968,-1.11793 -2.596135,-2.98301 -3.618078,-4.14462 -1.021943,-1.1616 -2.092703,-2.61601 -2.379466,-3.23201 -0.286763,-0.616 -0.781948,-1.46256 -1.100411,-1.88124 -0.318463,-0.41867 -1.159746,-2.00267 -1.869518,-3.52 -0.709773,-1.51732 -1.425707,-2.97476 -1.590965,-3.23876 -1.993305,-3.18431 -3.460872,-6.56736 -3.034068,-6.99416 0.07921,-0.0792 -0.125326,-0.58993 -0.45453,-1.13493 C 10.987246,109.01436 8.96,103.1331 8.96,102.42844 c 0,-0.1806 0.252,-0.24729 0.56,-0.14821 0.3497597,0.11251 0.4222096,0.0787 0.1929792,-0.09 C 9.5111174,102.04158 9.2951174,101.56 9.2329792,101.12 9.1708406,100.68 8.9360282,100.17503 8.7111738,99.99784 8.4594416,99.799472 8.2550016,98.664032 8.1791328,97.042941 8.0988768,95.328099 7.8963715,94.250656 7.5983008,93.952586 6.0861872,92.440474 5.9083965,80.836077 7.2325494,70.08 7.6005958,67.090365 9.0721421,61.905696 10.273535,59.365757 10.959091,57.916384 11.52,56.58848 11.52,56.414861 c 0,-0.173616 0.288,-0.576304 0.64,-0.894861 0.352,-0.318557 0.642391,-0.736874 0.645314,-0.929597 0.006,-0.396729 3.552479,-6.737443 4.304212,-7.695488 C 17.379287,46.551117 17.6,46.095117 17.6,45.881581 c 0,-0.213536 0.108665,-0.436247 0.241477,-0.494915 C 17.974289,45.328 18.729003,44.272 19.518618,43.04 c 1.34942,-2.105437 2.686368,-3.967661 3.90554,-5.44 0.291474,-0.352 1.268693,-1.574083 2.171597,-2.715744 C 28.357024,31.392826 36.479642,23.42986 40.32,20.44942 41.288,19.698171 42.152,18.987505 42.24,18.870162 42.969738,17.897097 49.618435,13.668771 53.258742,11.86265 62.072064,7.4899584 67.197693,6.173319 77.6,5.6100189 c 1.936,-0.1048375 4.55473,-0.3482407 5.819398,-0.540896 2.53777,-0.3865962 7.415623,-0.013398 11.460602,0.876832 2.12776,0.4682841 3.129942,0.6596531 9.92,1.8942515 1.584,0.2880099 4.72683,1.1617856 6.98405,1.9417238 2.25724,0.7799378 4.29919,1.4180698 4.53768,1.4180698 0.91906,0 4.57895,1.947096 5.98305,3.183042 0.8097,0.712723 2.89037,2.249441 4.6237,3.414928 1.73334,1.165487 3.68626,2.600607 4.33983,3.189155 0.65357,0.588549 1.80557,1.453944 2.56,1.923101 1.54954,0.963612 4.68356,4.105618 8.10912,8.129774 1.27347,1.496 2.77398,3.152 3.33449,3.68 1.37225,1.292672 6.08808,8.571795 6.08808,9.397254 0,0.356935 1.39257,3.182519 2.47031,5.012356 1.81916,3.088665 2.96866,7.57136 2.96931,11.579388 2.1e-4,1.269949 0.22969,3.933949 0.50996,5.92 1.54843,10.972436 0.0398,28.45154 -3.26693,37.851002 -0.43341,1.232 -1.06741,3.25945 -1.40887,4.50545 -1.88309,6.87131 -4.65405,11.26236 -10.58553,16.77455 -1.98857,1.848 -5.20693,4.88821 -7.15192,6.75602 -1.94498,1.86781 -4.32833,4.09058 -5.29633,4.93948 -0.968,0.8489 -1.95813,1.74054 -2.2003,1.98142 -0.24216,0.24088 -1.46616,1.14909 -2.72,2.01824 -1.25383,0.86915 -3.18039,2.23077 -4.28123,3.02583 -2.42413,1.75076 -6.7171,4.15593 -8.5199,4.77333 -0.72521,0.24836 -1.97267,0.7338 -2.77212,1.07877 -1.8205,0.78554 -9.763884,2.77581 -13.58645,3.40418 -10.430294,1.71457 -14.220778,1.93466 -22.72,1.31919 z m 16.339683,-2.55724 c 8.323421,-1.06179 16.759977,-3.02464 20.668537,-4.80876 1.83529,-0.71917 3.65222,-1.76819 5.07739,-2.56863 1.231,-0.69138 10.42873,-6.77196 19.19439,-15.2132 3.256,-3.1355 6.28,-6.005 6.72,-6.37668 1.88696,-1.59396 4.89637,-4.73775 5.52519,-5.7719 0.37457,-0.616 0.76355,-1.192 0.8644,-1.28 0.51262,-0.44727 2.61019,-5.54423 3.02889,-7.36 0.2638,-1.144 0.77657,-2.94221 1.13949,-3.99602 1.23483,-3.58552 2.842,-10.234182 3.32715,-13.76398 0.52911,-3.849674 1.29762,-15.990163 1.03871,-16.409078 -0.0887,-0.143562 -0.25023,-1.617594 -0.3589,-3.275626 -0.10866,-1.658032 -0.23512,-3.052157 -0.28102,-3.098051 -0.0459,-0.0459 -1.63154,0.777449 -3.52364,1.829654 -3.78463,2.104637 -4.40475,2.220179 -7.41304,1.381184 -1.11833,-0.311897 -3.23086,-0.54919 -5.10723,-0.573683 -1.76,-0.02298 -4.01647,-0.242918 -5.01438,-0.488768 -2.52523,-0.622131 -5.38562,0.248797 -5.38562,1.639805 0,0.909814 0.5193,2.540269 0.90074,2.828051 0.89148,0.672589 3.99098,4.978576 4.40452,6.118992 0.55983,1.543827 0.44441,5.191514 -0.23123,7.307546 -0.84588,2.649187 -1.63974,4.417971 -2.52233,5.619974 -0.51693,0.704 -1.18884,1.784 -1.49314,2.4 -0.3043,0.616 -0.76128,1.372 -1.01551,1.68 -0.25423,0.308 -0.365,0.56 -0.24614,0.56 0.11885,0 -0.093,0.605933 -0.47085,1.34652 -0.42562,0.83429 -0.55666,1.38994 -0.34448,1.46067 0.18836,0.0628 0.26315,0.32085 0.16621,0.57349 -0.13483,0.35135 0.12102,0.45932 1.08838,0.45932 1.38918,0 2.14211,0.59147 2.48073,1.94875 0.31226,1.25164 -0.41434,2.56903 -2.79288,5.06372 -1.1858,1.2437 -2.98099,3.51395 -3.98931,5.04499 -2.41513,3.66713 -6.71259,7.97802 -13.05471,13.09552 -1.056,0.8521 -2.12294,1.74592 -2.37099,1.98627 -3.94592,3.82362 -12.752159,7.32147 -15.22901,6.04899 -1.64625,-0.84575 -2.827632,-2.91221 -2.57705,-4.50773 0.08643,-0.55028 0.234877,-2.08051 0.329892,-3.40051 0.174496,-2.42423 0.395088,-3.63521 1.458278,-8.0054 3.019478,-12.41143 0.941405,-17.4228 -7.62376,-18.38504 -2.134067,-0.23975 -4.450909,-1.34204 -4.672358,-2.222987 -0.09216,-0.366615 -0.893735,-1.452115 -1.78128,-2.412221 C 78.166173,96.014246 77.44,95.131878 77.44,95.013536 c 0,-0.118346 -0.215542,-0.394058 -0.478986,-0.612694 -1.028368,-0.853472 -1.806348,-4.414109 -1.407459,-6.441629 0.34033,-1.729869 3.332947,-6.950403 4.165088,-7.265879 C 79.873389,80.634666 80,80.46487 80,80.316006 c 0,-0.604531 4.002134,-6.321385 5.235571,-7.478758 0.728435,-0.683514 2.576055,-2.454464 4.105815,-3.935443 3.777145,-3.656701 4.97711,-4.261805 8.451436,-4.261805 1.671472,0 3.051858,0.169197 3.583068,0.439184 0.47526,0.241549 2.32653,0.540128 4.11393,0.663507 1.7874,0.123376 4.05612,0.333741 5.0416,0.467472 3.13084,0.424864 3.53533,-0.05569 3.43123,-4.076441 -0.0467,-1.802144 -0.20609,-4.027472 -0.35429,-4.945175 -0.1482,-0.917699 -0.20285,-3.048397 -0.12145,-4.73488 0.16555,-3.430096 0.0783,-3.613395 -1.89581,-3.982313 -1.13135,-0.211428 -1.29777,-0.13448 -2.59429,1.199513 -0.76196,0.783987 -2.01155,1.845965 -2.77685,2.359949 -1.45333,0.976064 -2.51912,2.277136 -4.55301,5.558115 -1.55841,2.513955 -1.938694,2.643466 -7.086144,2.413277 -6.809827,-0.304528 -7.409408,-0.572323 -9.193238,-4.106074 -0.935248,-1.852716 -0.971827,-2.074188 -0.827133,-5.00792 0.175808,-3.564649 0.516381,-4.384156 2.793568,-6.72206 1.224573,-1.25722 1.605997,-1.883255 1.605997,-2.63593 0,-0.776205 0.385683,-1.366691 1.80511,-2.763632 1.211597,-1.192406 1.658759,-1.825258 1.36,-1.924752 -0.535046,-0.178186 -2.759148,-2.432298 -3.982646,-4.036387 -1.347786,-1.76704 -1.282992,-3.614411 0.177536,-5.061733 3.302966,-3.273104 5.758899,-3.237772 6.75809,0.09723 0.316864,1.057595 0.574403,1.353553 1.304998,1.499672 0.500627,0.100125 0.987731,0.307446 1.082458,0.460714 0.38806,0.627897 0.809817,0.08698 3.172834,-4.069282 2.72812,-4.798422 7.43575,-9.927832 10.71056,-11.67017 1.5377,-0.81812 1.5377,-0.81812 0.53438,-1.213849 -0.55183,-0.217651 -1.40929,-0.604523 -1.90548,-0.859715 C 109.14905,11.562066 99.262832,9.4413693 96.64,9.1272109 96.376,9.0955885 95.44,8.9018813 94.56,8.6967482 91.569597,7.9996678 90.036717,7.7817734 87.628506,7.7114566 l -2.404375,-0.070205 0.136298,1.6993744 c 0.260384,3.246523 -2.190794,7.01577 -5.894749,9.064528 -1.202125,0.664928 -2.90568,1.813025 -3.78568,2.551326 -0.88,0.738301 -2.464,1.905126 -3.52,2.592943 -1.783558,1.161706 -4.951357,4.153775 -4.957366,4.682359 -0.0054,0.474573 -1.934128,1.208218 -3.176378,1.208218 -1.540406,0 -2.758842,-1.420959 -5.397814,-6.295022 -2.712708,-5.01024 -5.205492,-6.906198 -8.17856,-6.220432 -1.697335,0.391507 -6.609882,3.34822 -6.609882,3.978288 0,0.18818 -0.363754,0.721822 -0.808339,1.185871 -0.818451,0.854277 -2.352432,4.661421 -3.273763,8.125048 -0.585453,2.200932 -0.32313,4.116868 1.120832,8.186247 0.777011,2.189776 1.126195,2.676422 3.986438,5.555744 C 46.589325,45.691402 48,47.246358 48,47.411203 c 0,0.164842 0.288,0.895805 0.64,1.624362 0.876163,1.813446 0.811322,2.796675 -0.435274,6.600563 -1.516355,4.627034 -3.221571,6.25817 -8.044726,7.695248 -1.232,0.367078 -2.414416,0.780736 -2.627587,0.919235 -0.431504,0.280349 -1.419687,2.437658 -1.570874,3.429389 -0.470157,3.08399 -0.729533,3.967994 -1.344774,4.583235 C 34.233542,72.646458 33.92,73.086531 33.92,73.241178 c 0,0.323244 -1.17119,0.818665 -3.09664,1.309897 -1.54144,0.393264 -2.820132,1.723885 -3.153202,3.281261 -0.123233,0.576214 -0.354811,1.21049 -0.514618,1.409501 -0.285968,0.356118 -0.15036,7.853517 0.227869,12.598163 0.108185,1.357117 0.430954,2.817152 0.742791,3.36 0.600698,1.045699 1.091876,1.084803 10.2738,0.817962 3.817056,-0.110932 8.317485,1.603244 10.607341,4.040248 0.964547,1.02653 4.112659,6.42183 4.112659,7.04836 0,0.22739 0.159405,0.41343 0.354237,0.41343 0.194829,0 0.268211,0.22418 0.163072,0.49817 -0.105143,0.27399 0.0071,1.96599 0.249405,3.76 0.515004,3.81292 0.543395,5.07928 0.177152,7.90183 -0.148442,1.144 -0.351591,2.7773 -0.45144,3.62956 -0.09985,0.85226 -0.334586,1.83551 -0.521629,2.18501 -0.187043,0.34949 -0.26328,0.83558 -0.169415,1.08019 0.09387,0.24461 0.03296,0.52985 -0.135356,0.63388 -0.168314,0.10402 -0.306026,0.53361 -0.306026,0.95463 0,0.91185 -0.536611,3.01862 -1.873811,7.35673 -1.803543,5.851 -2.368048,10.4 -1.290576,10.4 0.156413,0 0.284387,0.1594 0.284387,0.35424 0,0.19483 -0.216,0.27135 -0.48,0.17004 -1.551261,-0.59528 -0.05689,0.31674 2.32,1.4159 3.754438,1.73618 5.916877,2.42132 10.48,3.3204 5.581773,1.09979 6.161853,1.17791 11.98399,1.61379 7.702685,0.57668 8.526474,0.56072 15.235693,-0.29515 z m 32.341577,-27.5436 c -0.28669,-0.2867 -0.52126,-0.69495 -0.52126,-0.90723 0,-0.80999 2.60796,-5.37456 3.73438,-6.53609 0.2175,-0.22428 1.07452,-1.41991 1.90449,-2.65695 2.41016,-3.5923 4.15172,-4.71302 5.72346,-3.68318 0.85524,0.56037 0.9329,0.95777 0.83644,4.27991 -0.11599,3.99457 -2.7591,7.84191 -5.63922,8.20853 -1.33589,0.17005 -2.77081,0.63227 -5.15829,1.6616 -0.1973,0.0851 -0.5933,-0.0799 -0.88,-0.36659 z m 7.36135,-4.35559 c 1.30634,-1.22723 2.69491,-5.93607 2.05554,-6.9706 -0.40093,-0.64871 -1.42308,0.87625 -1.49249,2.22666 -0.0634,1.23379 -0.18858,1.43182 -3.30669,5.23211 -0.74546,0.90856 1.72475,0.46904 2.74364,-0.48817 z M 46.37888,141.68 c 0.419027,-1.98 1.159856,-4.824 1.646285,-6.32 0.486429,-1.496 1.185315,-4.232 1.553081,-6.08 0.367767,-1.848 0.872141,-4.10508 1.120829,-5.01575 1.524048,-5.5808 1.327197,-12.91622 -0.462221,-17.22425 -2.065193,-4.97197 -2.871084,-5.95748 -6.287065,-7.688317 C 41.133386,97.924643 38.591725,97.745094 32.67497,98.555213 26.957701,99.338016 25.385477,98.148186 24.647264,92.48 22.915983,79.186803 24.540975,73.560691 30.615391,71.816915 32.960538,71.143696 32.63345,71.60217 33.110189,68.32 c 0.70775,-4.872611 1.546576,-5.719184 7.911331,-7.984422 2.693123,-0.95849 4.105142,-2.561012 5.215645,-5.919309 1.01127,-3.058215 0.577651,-4.265827 -2.797165,-7.789965 -1.012,-1.056778 -1.84,-2.03431 -1.84,-2.172294 0,-0.137984 -0.252,-0.332368 -0.56,-0.431965 -0.308,-0.09959 -0.721146,-0.505299 -0.918099,-0.901562 -0.196957,-0.396265 -0.594291,-1.170016 -0.882967,-1.719446 -2.391273,-4.551251 -2.988844,-8.721408 -1.850739,-12.9154 0.35736,-1.316899 0.598304,-2.445804 0.535431,-2.508678 -0.186032,-0.186033 -7.826759,7.320987 -9.252417,9.090507 C 27.950044,35.962573 26.496,37.748378 25.44,39.03592 c -2.676901,3.26385 -4.076012,5.304275 -5.606698,8.17665 -0.725466,1.361356 -1.59674,2.887446 -1.936166,3.391312 C 17.557711,51.107747 16.992,51.94617 16.64,52.467043 16.288,52.987917 16,53.514077 16,53.636291 c 0,0.122211 -0.534363,1.172045 -1.187473,2.332957 -0.65311,1.160915 -1.215338,2.283725 -1.249394,2.495139 -0.03406,0.211411 -0.463499,1.219411 -0.954318,2.24 -1.093628,2.274042 -1.28749,2.823648 -2.065451,5.855613 -0.7666456,2.987866 -0.7706309,3.475683 -0.03368,4.122464 0.651204,0.571526 0.674139,0.717008 0.674464,4.278275 1.47e-4,1.606288 0.247897,3.33312 0.702844,4.898867 0.702617,2.418128 0.702617,2.418128 2.007811,2.161668 4.339566,-0.852698 6.334511,0.360438 7.200607,4.378726 0.341596,1.584848 0.213509,15.53467 -0.1534,16.70665 -0.55004,1.75694 -2.66557,3.54006 -3.856654,3.25066 -0.519499,-0.12623 -0.829764,0.099 -1.349208,0.97938 -0.409461,0.69399 -0.92155,1.14331 -1.303021,1.14331 -0.537545,0 -0.589494,0.1273 -0.359126,0.88 0.445751,1.45644 1.961576,5.0186 2.274059,5.344 0.160565,0.1672 0.291937,0.50081 0.291937,0.74135 0,0.24054 0.36,0.90933 0.8,1.48621 0.44,0.57687 0.8,1.13185 0.8,1.2333 0,0.10145 0.697969,1.31185 1.551042,2.68979 0.853073,1.37795 1.734081,3.06305 1.957795,3.74467 0.262532,0.79991 1.225418,2.04799 2.71566,3.52 1.269899,1.25438 2.796038,2.92868 3.391422,3.72068 1.692831,2.25186 5.373127,5.78515 7.746062,7.43665 1.189091,0.82758 2.485091,1.80073 2.88,2.16255 0.619437,0.56755 6.495101,3.79726 6.966525,3.82933 0.09268,0.006 0.511347,-1.60853 0.930374,-3.58853 z M 99.2,133.1258 c 4.45913,-1.61575 7.41364,-3.84637 17.29847,-13.06013 3.97587,-3.70595 4.63392,-4.46894 6.54235,-7.58567 0.97923,-1.59923 2.18511,-3.13829 2.98194,-3.80583 1.16225,-0.9737 2.93724,-2.86659 2.93724,-3.13236 0,-0.17316 -0.58211,-0.21373 -1.37046,-0.0955 -2.18739,0.32802 -3.23886,-0.91128 -3.0074,-3.54463 0.17322,-1.970745 0.84624,-3.287398 4.57063,-8.94167 1.67199,-2.538378 2.83107,-6.443046 2.56474,-8.64 -0.25212,-2.079686 -0.70061,-3.121834 -1.90844,-4.434579 -3.7132,-4.035747 -4.26218,-5.169978 -3.90109,-8.060003 0.11994,-0.959981 0.24914,-1.745418 0.28712,-1.745418 0.038,0 1.28218,-0.504 2.7649,-1.12 3.12098,-1.296618 4.31265,-1.381632 6.15954,-0.439424 1.15248,0.587955 1.71381,0.658925 4.1245,0.521475 2.18805,-0.124758 3.15806,-0.03215 4.49321,0.428976 3.13223,1.081783 3.9226,0.925581 7.68572,-1.51895 1.17863,-0.765642 2.4501,-1.392077 2.82547,-1.392077 0.64337,0 0.67202,-0.114672 0.49968,-2 -0.10056,-1.1 -0.259,-3.152 -0.3521,-4.56 -0.28361,-4.289411 -1.01827,-6.555283 -3.57845,-11.036896 -0.75505,-1.321706 -1.37388,-2.587891 -1.37519,-2.813741 -0.004,-0.646077 -1.56438,-3.568403 -3.00668,-5.630067 -0.72364,-1.034387 -1.6582,-2.402387 -2.0768,-3.04 -0.41861,-0.637613 -1.85861,-2.328061 -3.2,-3.756554 -1.3414,-1.428489 -3.60612,-3.877034 -5.03272,-5.441209 -1.4266,-1.564175 -3.0106,-3.057562 -3.52,-3.318638 -0.5094,-0.261076 -1.81828,-1.218878 -2.90862,-2.128448 -1.09035,-0.909571 -2.56635,-1.981935 -3.28,-2.383031 C 125.7039,20.050319 125.12,19.604666 125.12,19.461075 125.12,19.317484 124.91552,19.2 124.66559,19.2 c -0.24992,0 -1.36592,-0.76665 -2.48,-1.703666 -2.72476,-2.29172 -4.85236,-3.182602 -6.53289,-2.735499 -3.72082,0.989922 -3.76951,1.019388 -7.05659,4.270634 -3.37405,3.33727 -5.25693,5.969326 -7.26374,10.153869 -1.532773,3.196099 -3.229714,4.351478 -4.371148,2.976134 C 96.742794,31.898282 95.991446,31.51138 95.291565,31.30169 94.188755,30.97128 93.918778,30.693695 93.267136,29.220218 92.853581,28.285098 92.378867,27.52 92.212214,27.52 c -0.371382,0 -2.892739,1.992551 -2.915699,2.304185 -0.02528,0.343378 4.344576,4.735815 4.711488,4.735815 0.318071,0 1.351997,2.23863 1.351997,2.927309 0,0.194896 -0.864,1.181606 -1.92,2.192691 -1.389254,1.330166 -1.92,2.06983 -1.92,2.675779 0,0.557127 -0.54088,1.434704 -1.615872,2.621747 -1.949638,2.152858 -2.212566,2.789031 -2.443488,5.912132 -0.35529,4.805094 0.876566,5.878137 7.111648,6.194809 4.825043,0.245056 4.640304,0.341056 7.182112,-3.732182 0.86342,-1.383629 1.89038,-2.53504 2.83916,-3.183232 0.81754,-0.558535 2.3135,-1.851063 3.32435,-2.872285 2.07742,-2.098726 2.97136,-2.305421 5.80096,-1.341277 2.34285,0.798288 2.5035,1.241402 2.62805,7.248775 0.12242,5.904921 0.38064,10.703372 0.61586,11.444496 0.16791,0.529043 -0.8836,2.151196 -2.05045,3.163203 -1.31357,1.139245 -2.50075,1.438637 -4.1358,1.042998 -0.82309,-0.199168 -3.43369,-0.439693 -5.80133,-0.534502 -2.36764,-0.09481 -4.38364,-0.277699 -4.48,-0.406419 -0.0964,-0.128724 -1.3272,-0.282573 -2.7352,-0.341885 -2.404675,-0.101303 -2.637661,-0.05125 -3.84,0.824861 -1.841952,1.342188 -9.12,8.498604 -9.12,8.967584 0,0.217468 -0.126067,0.395398 -0.28015,0.395398 -0.15408,0 -1.243396,1.548 -2.420695,3.44 -1.177302,1.892 -2.487728,3.924093 -2.912061,4.51576 -1.605792,2.239043 -1.179072,5.35663 1.085396,7.929869 0.642131,0.729689 1.566784,1.924451 2.054787,2.655027 0.999318,1.496064 3.062329,2.570515 4.979254,2.59328 2.954688,0.03509 7.165392,1.965454 7.9968,3.666064 2.305136,4.71508 2.413331,8.12317 0.548567,17.28 -1.475348,7.24462 -1.836621,12.32449 -0.946461,13.30811 0.668281,0.73844 2.217264,0.7304 4.294563,-0.0223 z M 13.711852,105.26 c 0.293941,-0.363 1.324972,-0.91772 2.291179,-1.2327 1.653559,-0.53906 1.769627,-0.64595 1.976121,-1.82 0.18672,-1.06161 0.28879,-5.010062 0.201825,-7.8073 -0.01368,-0.44 0.0091,-1.952576 0.05061,-3.361283 0.08304,-2.818051 -0.331399,-4.837104 -1.21752,-5.931418 -0.551318,-0.680848 -0.672366,-0.696777 -2.662035,-0.350291 -3.653445,0.636221 -4.043488,0.418122 -4.9142437,-2.747891 L 9.0172272,80.48 8.9636243,82.24 c -0.029482,0.968 -0.071202,2.264 -0.092712,2.88 -0.059736,1.710704 0.4041565,6.440874 0.7374941,7.52 0.163097,0.528 0.3594045,1.464 0.4362396,2.08 0.11199,0.897843 1.464976,6.28952 2.629852,10.48 0.246417,0.88645 0.362683,0.89318 1.037354,0.06 z M 65.192966,26.406886 c 0.716871,-1.280977 9.423956,-7.987833 13.019828,-10.028859 3.182646,-1.806476 4.813913,-4.338362 4.459782,-6.9220196 L 82.467414,7.9591962 79.553709,8.1546778 C 68.749658,8.8795245 60.147878,10.845169 55.28,13.70161 c -1.153392,0.676804 -1.124627,0.756821 0.514301,1.43069 2.004416,0.824144 3.858224,3.086718 5.430313,6.6277 0.742317,1.672 1.602154,3.508 1.910746,4.08 0.596826,1.106268 1.600938,1.382908 2.057606,0.566886 z"
     id="path1221"
     inkscape:connector-curvature="0"
     sodipodi:nodetypes="cscsssccsccscssccscssssssccscsscssssssscsccssscsccsccscscccscscscssccccccccccsccsscccssscccsccccccccssccscscssssccccsccccsssscsccssssccscccsscsssscsssscsssscssccsscscssssssccsccccssssccscscsccccsccccccccsscssssssscssccsscssssssccssssscssccsscscscccsccccccsccscsccccsscccsscccccccssccsscssssssscsssssssscccscccscccssccscscscccscccscsccssssssssscsssscs" />
</svg>
