<?xml version="1.0" encoding="UTF-8" standalone="no"?>
<!-- Created with Inkscape (http://www.inkscape.org/) -->

<svg
   xmlns:dc="http://purl.org/dc/elements/1.1/"
   xmlns:cc="http://creativecommons.org/ns#"
   xmlns:rdf="http://www.w3.org/1999/02/22-rdf-syntax-ns#"
   xmlns:svg="http://www.w3.org/2000/svg"
   xmlns="http://www.w3.org/2000/svg"
   xmlns:sodipodi="http://sodipodi.sourceforge.net/DTD/sodipodi-0.dtd"
   xmlns:inkscape="http://www.inkscape.org/namespaces/inkscape"
   version="1.1"
   id="svg64"
   width="163.84"
   height="163.84"
   viewBox="0 0 163.84 163.84"
   sodipodi:docname="logo.svg"
   inkscape:version="0.92.4 5da689c313, 2019-01-14">
  <metadata
     id="metadata70">
    <rdf:RDF>
      <cc:Work
         rdf:about="">
        <dc:format>image/svg+xml</dc:format>
        <dc:type
           rdf:resource="http://purl.org/dc/dcmitype/StillImage" />
        <dc:title></dc:title>
      </cc:Work>
    </rdf:RDF>
  </metadata>
  <defs
     id="defs68" />
  <sodipodi:namedview
     pagecolor="#ffffff"
     bordercolor="#666666"
     borderopacity="1"
     objecttolerance="10"
     gridtolerance="10"
     guidetolerance="10"
     inkscape:pageopacity="0"
     inkscape:pageshadow="2"
     inkscape:window-width="3200"
     inkscape:window-height="1745"
     id="namedview66"
     showgrid="false"
     inkscape:zoom="7.7941896"
     inkscape:cx="81.919998"
     inkscape:cy="81.919998"
     inkscape:window-x="0"
     inkscape:window-y="55"
     inkscape:window-maximized="1"
     inkscape:current-layer="svg64" />
  <path
     style="fill:#000000;stroke-width:0.31999999"
     d="m 114.72302,161.02892 c -2.84974,-1.76954 -4.35529,-3.48429 -7.10633,-8.09379 -1.73744,-2.91117 -2.67459,-3.97804 -4.78297,-5.44503 -1.14457,-0.79638 -2.20823,-2.96739 -1.95269,-3.98556 l 0.20275,-0.80779 -3.457345,0.25333 c -1.90155,0.13933 -8.49735,0.28545 -14.65735,0.3247 -6.16,0.0393 -12.424,0.23234 -13.92,0.42907 -1.496,0.19674 -3.404,0.3588 -4.24,0.36013 l -1.52,0.002 v 2.52269 c 0,2.39014 -0.0393,2.53022 -0.74815,2.66572 -0.65167,0.12457 -0.79595,-0.0357 -1.11878,-1.2427 -0.20384,-0.76214 -0.47917,-1.37981 -0.61185,-1.37259 -0.13267,0.007 -0.576146,0.72721 -0.985486,1.6 -0.60543,1.29085 -0.89595,1.58688 -1.55732,1.58688 -0.699833,0 -0.780162,-0.10027 -0.57683,-0.72 0.55642,-1.69595 0.54308,-3.32962 -0.03187,-3.90457 -0.473088,-0.47308 -0.913485,-0.53443 -2.668163,-0.3717 -1.155856,0.10721 -4.045556,0.27299 -6.421556,0.36842 -2.376,0.0954 -5.04,0.2399 -5.92,0.32106 -1.549916,0.14294 -12.028979,0.73841 -14.813758,0.84179 -0.755567,0.028 -1.477554,0.23647 -1.604415,0.46316 -0.179968,0.32158 -0.528562,0.33654 -1.586242,0.0681 -1.339476,-0.34 -1.723115,-0.7304 -0.965814,-0.98283 0.499379,-0.16646 -1.209677,-2.8709 -3.591497,-5.68324 -0.968939,-1.1441 -2.37563,-2.87217 -3.12597,-3.84017 -2.776665,-3.58213 -3.864384,-4.65591 -4.287615,-4.23268 -0.662229,0.66223 -0.904679,0.44499 -0.904679,-0.81059 0,-0.81327 -0.239357,-1.4615 -0.738485,-2 -3.2032355,-3.45588 -4.8481555,-5.64866 -4.9070035,-6.54135 -0.03536,-0.53646 -0.16551,-2.29258 -0.289213,-3.90249 -0.252498,-3.28608 0.0081,-4.83195 1.524601,-9.04283 1.02399,-2.84338 2.45201,-5.49182 4.1900545,-7.77099 0.578408,-0.75849 1.140276,-1.61089 1.248594,-1.89422 0.259217,-0.67804 2.627139,-1.25243 6.091452,-1.4776 1.54,-0.10009 2.8,-0.24645 2.8,-0.32525 -2e-6,-0.338521 -1.120612,-2.001595 -1.348997,-2.001595 -0.138052,0 -0.251005,-0.153702 -0.251005,-0.341565 0,-0.187859 0.260852,-0.258771 0.57967,-0.157584 0.818397,0.259751 4.54033,-3.224598 4.54033,-4.250502 0,-0.693747 -0.09062,-0.731293 -1.28,-0.530349 -0.841467,0.142166 -1.28,0.09699 -1.28,-0.131872 0,-0.191472 -0.210989,-0.348128 -0.468865,-0.348128 -0.914078,0 -2.63656,-1.877328 -3.005363,-3.275539 -0.802184,-3.041242 -0.509871,-5.869507 0.977432,-9.457095 0.83689,-2.018697 1.188412,-2.482313 2.611917,-3.444806 2.774544,-1.875987 5.15972,-3.678701 5.265422,-3.9796 0.0553,-0.157421 -0.592702,-0.330483 -1.44,-0.384589 l -1.540543,-0.09837 -1.108697,-2.24 c -1.103015,-2.228522 -1.108754,-2.262954 -1.12,-6.72 -0.02093,-8.296486 1.234007,-13.296544 4.353454,-17.345478 1.057031,-1.371988 2.030133,-2.606074 2.162449,-2.742413 0.132317,-0.136343 2.533828,-0.821373 5.336685,-1.522291 7.94657,-1.987226 8.590832,-2.250874 6.514899,-2.666061 -1.118384,-0.223677 -0.978713,-0.843757 0.190052,-0.843757 0.901686,0 0.811843,-0.530394 -0.358304,-2.115232 -0.863028,-1.168879 -1.565191,-1.333594 -6.850538,-1.607011 l -3.68,-0.190371 -1.027699,-1.163693 c -2.027577,-2.295881 -2.591515,-5.887253 -1.509157,-9.61088 0.847667,-2.91622 2.34388,-4.036625 9.256856,-6.931792 1.584,-0.663382 5.373053,-2.478495 8.420118,-4.033584 3.047066,-1.5550898 5.735066,-2.8274364 5.973335,-2.8274364 0.238269,0 0.481213,-0.108 0.539881,-0.24 0.05867,-0.132 0.970666,-0.8135622 2.026666,-1.514583 l 1.92,-1.2745831 12.160007,0.098618 c 6.688,0.05424 13.816,0.2371207 15.84,0.4064016 2.024,0.169281 3.896,0.316808 4.16,0.3278375 0.264,0.01103 2.208,0.1455501 4.32,0.2989344 2.112,0.1533843 7.008,0.4281779 10.879995,0.6106521 3.872,0.1824746 8.552,0.4685399 10.4,0.6357012 4.68381,0.4236748 7.93821,0.6038784 14.57887,0.8072636 6.24708,0.1913312 13.22182,0.4888019 15.50113,0.6611183 0.792,0.05988 2.94427,0.175255 4.78283,0.256397 2.65178,0.117034 3.42452,0.25926 3.73802,0.687992 0.41819,0.571907 0.26209,1.4382498 -0.25914,1.4382498 -0.1704,0 -1.33982,0.612 -2.59871,1.36 -1.25889,0.748 -3.64512,1.970971 -5.30274,2.717712 -1.65762,0.746742 -3.46079,1.697964 -4.00706,2.113829 -0.54626,0.415864 -1.5692,1.054066 -2.2732,1.418227 -2.55121,1.319674 -5.31683,3.600221 -5.81664,4.796436 -1.1992,2.870084 -0.18026,8.240683 1.82146,9.60051 0.58836,0.399692 1.1684,0.615692 1.28896,0.48 0.72143,-0.81196 1.36383,-7.472125 0.80753,-8.37223 -0.0958,-0.155063 -0.67983,-0.376781 -1.29777,-0.492708 -1.36826,-0.256686 -1.46404,-0.949261 -0.22023,-1.592459 0.49681,-0.256914 1.09918,-0.703137 1.33859,-0.991605 0.60248,-0.725941 2.70084,-1.756914 3.58535,-1.761566 0.40301,-0.0021 1.35945,-0.36212 2.12541,-0.8 0.76597,-0.43788 1.52197,-0.796146 1.68,-0.796146 0.70221,0 0.16649,0.660051 -1.23266,1.518737 l -1.52,0.932852 -0.3426,6.694206 c -0.18842,3.681813 -0.31045,6.740183 -0.27116,6.796378 0.21956,0.314032 1.38428,-0.812733 1.25867,-1.217655 -0.0827,-0.266484 -0.0456,-0.628518 0.0824,-0.804518 0.33958,-0.466995 2.54226,-2.10514 4.45975,-3.316747 1.47578,-0.932497 1.62382,-1.122618 1.29017,-1.656879 -0.4057,-0.649633 -1.05242,-0.604179 -3.07631,0.216216 -1.82691,0.740546 -1.88607,0.480236 -0.12092,-0.532066 0.924,-0.529908 1.68,-1.025782 1.68,-1.10194 0,-0.07616 -0.17149,-0.514852 -0.38109,-0.974874 -0.37368,-0.820148 -0.61736,-0.859834 -1.93891,-0.315779 -0.91968,0.378617 -0.63375,-0.296377 0.37896,-0.894601 0.81298,-0.48024 0.91602,-0.696065 0.76794,-1.608592 -0.11052,-0.68099 0.11205,-1.867952 0.62897,-3.354336 l 0.8,-2.300402 -0.68794,-0.0016 c -0.63127,-0.0015 -0.60886,-0.06707 0.27207,-0.796532 2.31791,-1.919377 5.26587,-3.755775 5.73818,-3.574532 0.38054,0.146026 -0.0416,0.748177 -1.76833,2.522237 -1.24751,1.281729 -2.49669,2.762416 -2.77597,3.290416 -0.73488,1.389419 -1.03372,3.65198 -0.66949,5.069004 0.38954,1.5155 2.6505,4.051007 3.61237,4.051007 1.68516,0 1.9378,1.574509 0.40466,2.522038 l -1.05857,0.654236 0.32254,1.950241 c 0.63758,3.855181 -1.21448,9.352407 -3.29296,9.774032 -2.98182,0.604871 -5.86542,1.739453 -4.42091,1.739453 0.62146,0 1.41543,0.946963 1.67883,2.002333 0.31407,1.258435 -0.47316,2.276896 -2.13823,2.766275 -1.59743,0.469498 -3.2624,1.915898 -4.12,3.579136 -0.3255,0.631261 -0.90461,2.359261 -1.28693,3.84 -0.56022,2.169773 -0.66261,3.260826 -0.52761,5.622 0.0921,1.611357 0.35715,3.267357 0.58893,3.68 0.23177,0.41264 0.44007,0.994051 0.46288,1.292022 0.0228,0.297972 0.36626,1.341972 0.76321,2.32 l 0.72173,1.778234 h 2.04283 c 1.12356,0 2.05386,0.108 2.06732,0.24 0.0135,0.132 0.0752,0.508694 0.13713,0.837101 0.19496,1.033366 -0.83157,2.710736 -1.88331,3.077373 -0.53643,0.187001 -2.4565,0.430627 -4.26682,0.541392 -3.12918,0.191462 -3.29148,0.236515 -3.29148,0.913683 0,1.164758 0.87174,2.899011 1.74474,3.471027 0.44839,0.293798 0.81526,0.79944 0.81526,1.123645 0,0.906176 -1.17706,2.197129 -2.40969,2.642854 -0.61067,0.220823 -1.11068,0.552567 -1.11113,0.73721 -3.2e-4,0.184643 1.22354,1.514877 2.72,2.956073 1.49645,1.441197 2.72082,2.773197 2.72082,2.96 0,0.186804 0.11103,0.339642 0.24674,0.339642 0.40813,0 2.63116,4.573574 3.12507,6.429392 1.10639,4.157102 -0.0732,10.477072 -2.52078,13.506102 -0.59754,0.73948 -1.24322,1.64738 -1.43485,2.01755 -0.30136,0.58211 -0.74889,0.70327 -3.31243,0.89679 -1.6302,0.12307 -3.02756,0.28731 -3.10525,0.365 -0.0777,0.0777 0.0979,0.40547 0.39013,0.72841 0.29225,0.32293 0.53137,0.76432 0.53137,0.98084 0,0.21653 0.12307,0.31763 0.27348,0.22467 0.36883,-0.22795 1.32483,0.92916 2.26912,2.74645 0.65223,1.2552 0.70969,1.57622 0.35799,2 -0.23043,0.27764 -0.79732,0.50938 -1.25977,0.51498 -0.46245,0.006 -1.06581,0.1856 -1.34079,0.4 -1.3134,1.02405 -3.38006,6.59064 -3.03318,8.16994 0.10977,0.49979 0.053,1.29436 -0.12626,1.76572 -0.40136,1.05567 0.42857,5.52255 1.1847,6.37636 0.27384,0.30921 0.65889,0.88521 0.85566,1.28 0.19678,0.39479 0.74957,0.90566 1.22841,1.13526 1.05714,0.50689 1.1298,1.42717 0.15064,1.90786 -0.42911,0.21066 -3.879,0.4299 -8.53892,0.54266 -7.40567,0.17919 -12.19022,0.44166 -12.46488,0.68381 -0.2584,0.22781 2.56786,4.20529 4.21885,5.9373 1.21296,1.2725 1.94629,2.40965 2.47603,3.83944 0.41395,1.11731 1.00951,2.46016 1.32347,2.98412 0.55867,0.93234 0.55621,0.96048 -0.11535,1.31989 -0.60377,0.32313 -0.86037,0.20033 -2.13634,-1.02234 -0.79759,-0.76426 -1.49623,-1.3435 -1.55254,-1.28719 -0.18127,0.18127 2.13799,4.4737 3.15836,5.84539 0.99867,1.34253 1.00308,2.05394 0.0124,2.00471 -0.29761,-0.0148 -1.65984,-0.72155 -3.02717,-1.5706 z m -2.11488,-6.29851 c -0.37723,-0.64871 -0.46832,-0.44107 -0.15953,0.36363 0.10974,0.28598 0.26694,0.45256 0.34933,0.37017 0.0824,-0.0824 -0.003,-0.4126 -0.1898,-0.7338 z m -78.439056,-9.5675 c 1.144,-0.066 4.802851,-0.32646 8.130778,-0.57874 3.327926,-0.25229 6.251004,-0.38187 6.495724,-0.28796 0.418375,0.16054 7.095636,-0.46088 8.057056,-0.74983 0.350247,-0.10527 0.317095,-0.27305 -0.15759,-0.79758 -0.49969,-0.55214 -0.844592,-0.63262 -2.043558,-0.47679 -0.793325,0.10311 -3.53041,0.26925 -6.08241,0.36921 -2.552,0.1 -5.936,0.41193 -7.52,0.69327 -3.304352,0.58691 -9.734189,0.88885 -12.245747,0.57505 -1.23556,-0.15437 -2.004577,-0.47271 -2.774092,-1.14836 -0.585558,-0.51412 -1.29764,-0.93477 -1.582406,-0.93477 -0.284765,0 -0.517755,-0.216 -0.517755,-0.48 0,-0.264 0.144,-0.48 0.32,-0.48 0.61017,0 0.314067,-0.74135 -0.88,-2.20324 -1.460903,-1.78859 -5.313352,-5.79676 -5.571545,-5.79676 -0.102662,0 -0.283629,0.60643 -0.40215,1.34762 -0.17617,1.1017 -0.10496,1.43746 0.390243,1.84 0.333155,0.27081 1.58883,1.78838 2.790389,3.37238 2.84109,3.74537 4.395971,5.69775 4.793063,6.01838 0.176,0.14212 1.76,0.16384 3.52,0.0483 1.76,-0.11556 4.136,-0.26413 5.28,-0.33015 z m 34.720001,-2.41215 c 2.112,-0.20465 9.384,-0.40497 16.16,-0.44517 13.96207,-0.0828 17.279995,-0.29579 17.279995,-1.10914 0,-0.42857 -7.396085,-0.43734 -11.864425,-0.0141 -1.83457,0.17379 -6.07157,0.38178 -9.41557,0.46222 -8.34152,0.20066 -18.4,0.57266 -18.4,0.6805 0,0.70077 0.50224,1.03634 1.38496,0.92536 0.55827,-0.0702 2.74304,-0.29506 4.85504,-0.4997 z m -30.880001,-0.0107 c 5.633824,-0.81513 6.868768,-0.94123 10.88,-1.11097 6.716832,-0.28422 6.517939,-0.22335 5.116662,-1.56586 -0.526163,-0.50412 -0.956662,-1.11444 -0.956662,-1.3563 0,-0.33807 -0.324179,-0.39112 -1.402166,-0.22947 -1.487488,0.22307 -2.426845,-0.33127 -1.090922,-0.64377 1.031242,-0.24124 9.960723,-0.74604 10.258299,-0.57994 0.42961,0.23981 -0.0984,0.73266 -0.784856,0.73266 -0.56775,0 -0.46755,0.2108 0.704686,1.48253 1.35898,1.47432 1.37915,1.48295 3.64075,1.55583 1.25081,0.0403 4.50621,-0.0519 7.23421,-0.20494 2.728,-0.15303 7.10195,-0.2811 9.7199,-0.2846 2.61795,-0.003 5.78595,-0.14029 7.04,-0.30397 2.21189,-0.28871 8.83203,-0.6134 12.936425,-0.63449 l 2.01633,-0.0104 0.50261,-1.2 c 0.81027,-1.9345 1.09553,-5.33165 0.75209,-8.95636 -0.44992,-4.74851 -0.2612,-4.56363 -4.658615,-4.56363 -3.09048,0 -3.66874,-0.0777 -3.66874,-0.49291 0,-0.43142 0.62872,-0.46814 5.039995,-0.29433 2.772,0.10922 5.82245,0.33103 6.77877,0.49291 2.22343,0.37637 8.43817,0.35554 11.54123,-0.0387 1.32,-0.1677 3.696,-0.39677 5.28,-0.50905 1.584,-0.11229 3.06832,-0.35329 3.29849,-0.53558 0.40102,-0.31759 1.4401,-2.48087 1.26571,-2.6351 -0.0463,-0.041 -3.0362,-0.16683 -6.6442,-0.27972 -3.608,-0.11289 -7.64,-0.33698 -8.96,-0.49799 -2.49774,-0.30465 -7.01335,-0.27868 -44.479995,0.25586 -15.150023,0.21615 -24.451911,0.48563 -28.320001,0.82044 -3.168,0.27421 -6.804,0.58635 -8.08,0.69365 -1.276,0.1073 -2.32,0.32681 -2.32,0.48779 0,0.16098 -0.369702,0.2927 -0.821565,0.2927 -0.69703,0 -0.791701,0.10914 -0.624557,0.72 0.119789,0.43779 -0.107632,0.2406 -0.580222,-0.50311 -0.427477,-0.6727 -1.118426,-1.45313 -1.535443,-1.73427 l -0.758213,-0.5111 0.774595,0.85301 c 0.873545,0.96197 0.736752,1.40749 -0.267188,0.8702 -0.687659,-0.36803 -0.82262,-0.15149 -0.473171,0.75916 0.106831,0.27839 0.419492,0.50617 0.694803,0.50617 0.723531,0 1.657276,0.94332 1.455144,1.47007 -0.09496,0.24746 -0.04925,0.45472 0.101581,0.46058 0.420792,0.0163 1.827094,1.26316 1.638002,1.45225 -0.09179,0.0918 -0.766409,-0.14559 -1.499151,-0.52751 -1.451474,-0.75655 -1.981065,-0.61964 -1.372501,0.35482 0.599581,0.96008 0.460859,1.12814 -0.332114,0.40235 -0.396,-0.36245 -1.017556,-0.74886 -1.381237,-0.85869 -0.36368,-0.10983 -1.35308,-0.84397 -2.198666,-1.63142 l -1.53743,-1.43172 -0.850461,1.19464 c -1.819021,2.55516 -2.847379,4.44454 -3.052437,5.60818 -0.243594,1.38232 -0.287135,1.31831 4.219469,6.20325 1.829742,1.98335 2.866709,2.87641 3.194056,2.75079 0.408778,-0.15686 0.387184,-0.26602 -0.137838,-0.69679 -0.463819,-0.38056 -0.575123,-0.75457 -0.436538,-1.46689 0.230406,-1.18427 1.205356,-1.48804 1.356374,-0.42261 0.100223,0.70706 0.207212,0.73438 2.49786,0.63792 1.316234,-0.0554 3.260234,-0.3053 4.32,-0.55527 1.059766,-0.24997 2.574848,-0.44408 3.366848,-0.43135 1.391754,0.0224 1.352381,0.048 -1.175251,0.76448 -1.438391,0.40774 -3.83081,0.8426 -5.316493,0.96636 -2.837983,0.2364 -3.813225,0.55483 -3.265581,1.06624 0.30572,0.2855 1.274203,0.21105 7.677325,-0.59017 3.150186,-0.39418 4.548416,-0.40978 4.144,-0.0462 -0.1672,0.15031 -1.816,0.4464 -3.664,0.65799 -7.867564,0.90082 -8.32,0.99808 -8.32,1.78868 0,0.78345 0.582786,1.39174 1.886588,1.96914 1.00339,0.44437 6.742538,0.48282 9.633412,0.0645 z m -12.628766,-8.46139 c -0.732106,-1.11734 -0.429895,-1.3014 0.587951,-0.35809 0.456723,0.42327 0.736748,0.86325 0.622277,0.97772 -0.370766,0.37077 -0.657475,0.22397 -1.210228,-0.61963 z m 0.03698,-2.52199 c -0.09914,-0.25837 -0.05931,-0.54451 0.08853,-0.63587 0.517905,-0.32009 0.166827,-2.06031 -0.574944,-2.84989 -1.085963,-1.15596 -0.600315,-1.61918 0.89681,-0.85541 0.673076,0.34338 1.56524,0.68891 1.982585,0.76784 0.417346,0.0789 1.182743,0.36671 1.700881,0.63952 0.792669,0.41735 0.854138,0.52975 0.387597,0.70878 -0.330835,0.12695 -1.213037,-0.1289 -2.187273,-0.63436 -1.962354,-1.0181 -2.409062,-0.80385 -0.982174,0.47108 1.220988,1.09095 1.269544,1.25806 0.365544,1.25806 -0.498365,0 -0.620744,0.1394 -0.469162,0.53442 0.113051,0.2946 0.02072,0.65139 -0.205764,0.7951 -0.58951,0.37405 -0.798565,0.3325 -1.002626,-0.19927 z m 84.777792,-7.83719 c -3.19642,-0.11587 -4.81461,-0.29557 -4.89691,-0.54379 -0.0898,-0.27091 0.76483,-0.33269 3.17399,-0.22946 5.54703,0.23767 7.94915,0.4815 7.75993,0.78767 -0.0994,0.16088 -0.42429,0.2624 -0.72191,0.22558 -0.29761,-0.0368 -2.6894,-0.14482 -5.3151,-0.24 z m 14.01896,17.42926 c 3.14873,-0.0801 5.79069,-0.21131 5.87101,-0.29163 0.34238,-0.34238 -2.51626,-1.44347 -4.25958,-1.6407 -1.51932,-0.17189 -7.75516,0.20148 -11.1764,0.66918 -0.352,0.0481 -1.54,0.0995 -2.64,0.11416 -1.9166,0.0255 -2,0.0603 -2,0.8322 v 0.80553 l 4.24,-0.17158 c 2.332,-0.0944 6.81624,-0.23709 9.96497,-0.31716 z m -5.36556,-2.75364 c 3.71767,-0.21111 7.35367,-0.30413 8.08,-0.20671 0.72632,0.0974 1.32059,0.0572 1.32059,-0.0894 0,-0.33558 -3.34147,-0.76956 -3.99482,-0.51885 -0.26685,0.1024 -0.48518,0.0633 -0.48518,-0.0869 0,-0.1502 0.792,-0.37204 1.76,-0.49298 l 1.76,-0.2199 -0.005,-1.17698 c -0.009,-2.06441 0.0281,-2.05166 -6.60382,-2.29303 -5.85297,-0.21301 -5.6629,-0.30079 1.00872,-0.46585 5.17952,-0.12815 4.76961,-0.006 5.22574,-1.55128 0.50362,-1.70567 0.27174,-2.36609 -0.84203,-2.39825 -0.47504,-0.0137 -1.51171,-0.14952 -2.30371,-0.30179 l -1.44,-0.27685 2.31265,-0.24361 c 1.27195,-0.13399 2.38269,-0.35696 2.4683,-0.49548 0.0856,-0.13853 0.24823,-0.83072 0.36136,-1.5382 0.19716,-1.23297 0.16248,-1.30138 -0.83606,-1.64947 -1.53036,-0.53349 -2.77983,-0.44478 -3.7592,0.26688 -0.7078,0.51432 -1.45477,0.64122 -4.06705,0.69093 -1.76,0.0335 -3.79177,0.12317 -4.51504,0.19929 l -1.31505,0.13839 -0.2059,2.67873 c -0.12667,1.64794 -0.52086,3.51451 -1.02438,4.85068 -0.94557,2.50921 -1.72111,5.44379 -1.4977,5.6672 0.0845,0.0845 0.53263,0.0959 0.99585,0.0254 0.46322,-0.0705 3.88396,-0.30092 7.60163,-0.51203 z m -103.981918,-8.10945 -0.409497,-1.58077 -0.421242,1.01697 c -0.387046,0.93441 -0.359769,1.08107 0.336006,1.80667 0.934576,0.97464 1.016114,0.7698 0.494733,-1.24287 z m -2.34189,-2.43721 c 0.250885,-1.25443 -0.578564,-2.64134 -1.419956,-2.37429 -1.7214695,0.54638 -2.3698185,-4.12386 -1.2853465,-9.25871 0.3683385,-1.74403 0.6697065,-3.45626 0.6697065,-3.80494 0,-1.15689 1.415495,-3.5291 3.335348,-5.58969 l 1.895349,-2.03428 -1.325287,-1.32529 -1.325287,-1.32528 -0.840513,0.78523 c -1.637278,1.52959 -3.1962635,4.88666 -4.6741785,10.06523 -0.496642,1.74022 -0.604588,2.84688 -0.483812,4.96 0.171604,3.00242 0.499569,4.12119 1.50197,5.12359 0.438639,0.43864 0.60007,0.88679 0.468622,1.30095 -0.145017,0.45691 0.22692,1.16069 1.3436315,2.54244 0.849286,1.05084 1.634157,1.91117 1.744157,1.91183 0.11,6.4e-4 0.288018,-0.4389 0.395596,-0.97679 z m 14.204402,-2.74373 c 0.99823,-0.26752 0.899541,-0.66803 -0.225495,-0.91512 -0.530492,-0.11652 -1.031554,-0.47882 -1.141564,-0.82543 -0.107838,-0.33977 -0.320661,-0.61776 -0.472941,-0.61776 -0.15228,0 -0.357708,-0.252 -0.456508,-0.56 -0.0988,-0.308 -0.51533,-0.9491 -0.925623,-1.42467 -0.558089,-0.64688 -0.933064,-0.81575 -1.488706,-0.67045 -0.655044,0.1713 -0.724625,0.0996 -0.589444,-0.60757 0.115037,-0.60178 -0.1527,-1.15011 -1.073222,-2.19796 -0.674573,-0.76789 -1.226497,-1.50938 -1.226497,-1.64775 0,-0.50922 0.966868,-0.23192 1.354263,0.3884 0.219828,0.352 0.586298,0.64 0.814378,0.64 0.22808,0 -0.310559,-0.87148 -1.196975,-1.93661 -1.533072,-1.84218 -1.993739,-2.86339 -1.291666,-2.86339 0.176,0 0.32,0.21099 0.32,0.46886 0,0.57462 1.761319,2.6237 2.676028,3.11324 0.652953,0.34945 0.655669,0.34001 0.118601,-0.41223 -0.302311,-0.42343 -0.934338,-1.41787 -1.404505,-2.20987 -0.470167,-0.792 -1.207016,-1.8243 -1.637443,-2.294 -0.430427,-0.4697 -0.696055,-0.99402 -0.590286,-1.16516 0.24721,-0.39999 -2.198144,-2.62084 -2.885782,-2.62084 -2.053414,0 -4.601784,7.14036 -4.682481,13.12 -0.02953,2.18822 0.443106,3.51532 1.636632,4.59544 0.651073,0.58922 0.665742,0.57455 1.846718,-1.84619 0.654737,-1.34207 1.655876,-2.98389 2.224753,-3.64849 0.78653,-0.91889 0.994653,-1.41589 0.868738,-2.07457 -0.223933,-1.17143 0.374448,-1.10021 0.873223,0.10394 0.221013,0.53357 0.81238,1.48673 1.314149,2.11812 0.501769,0.63139 0.831707,1.2784 0.733195,1.4378 -0.09851,0.15939 -0.034,0.25024 0.143354,0.20188 0.177356,-0.0484 1.338987,0.95607 2.581402,2.23207 2.286233,2.34804 2.493497,2.46407 3.783704,2.11831 z m 2.8,-3.95831 c -0.108774,-0.176 -0.333274,-0.32 -0.498885,-0.32 -0.165614,0 -0.301115,0.144 -0.301115,0.32 0,0.176 0.224499,0.32 0.498886,0.32 0.274388,0 0.409888,-0.144 0.301114,-0.32 z m 12.32,-1.11611 c 2.904,-0.27674 5.928,-0.49036 6.72,-0.47469 0.792,0.0156 4.392,-0.0661 8,-0.18179 3.608005,-0.11564 8.504001,-0.23211 10.880001,-0.25883 4.28424,-0.0482 4.31917,-0.0545 4.21988,-0.76858 -0.0671,-0.48224 0.065,-0.72 0.4,-0.72 0.27794,0 0.50012,0.27 0.50012,0.60778 0,0.55204 0.36372,0.62875 3.96638,0.83655 2.1815,0.12582 5.6015,0.139 7.6,0.0293 7.70377,-0.42294 28.472925,-0.58903 30.301665,-0.24231 0.99657,0.18894 4.54795,0.42844 7.89195,0.53221 3.344,0.10377 6.4094,0.25753 6.81199,0.34168 0.65886,0.13773 3.26801,-0.372 3.26801,-0.63845 0,-0.65736 -1.31486,-2.87477 -2.5062,-4.22651 l -1.4938,-1.69494 -9.6,0.10895 c -5.28,0.0599 -9.852,0.21364 -10.16,0.34159 -0.308,0.12795 -0.56,0.0933 -0.56,-0.0771 0,-0.17729 -2.22319,-0.40983 -5.2,-0.5439 -2.86,-0.1288 -6.423995,-0.2886 -7.919995,-0.35511 -1.496,-0.0665 -2.936,0.0166 -3.2,0.18476 -0.32925,0.20968 0.28659,0.30722 1.96081,0.31059 3.15757,0.006 4.09387,0.88788 1.80765,1.70193 -0.32755,0.11663 -0.66165,-3.2e-4 -0.82267,-0.2881 -0.2053,-0.36684 -0.86593,-0.48449 -2.72057,-0.48449 -2.51018,0 -3.1336,-0.2791 -2.45359,-1.09846 0.33621,-0.40511 -0.46488,-0.47283 -6.13245,-0.51837 -8.60649,-0.0692 -13.13119,0.0622 -13.71918,0.39846 -0.34664,0.19821 -0.20805,0.27717 0.49883,0.2842 0.53837,0.005 1.24783,0.20641 1.57659,0.44681 0.56874,0.41587 0.53878,0.50906 -0.61738,1.92 -1.18047,1.4406 -1.26594,1.48292 -2.99556,1.48292 -2.42436,0 -4.38683,-0.95876 -4.85286,-2.37084 -0.19086,-0.57832 -0.24697,-1.31222 -0.12468,-1.6309 0.19676,-0.51275 0.0873,-0.5575 -0.9513,-0.38896 -0.79772,0.12946 -1.17592,0.0688 -1.18076,-0.18942 -0.004,-0.20894 -0.28089,-0.0236 -0.615506,0.41188 -0.58522,0.76161 -0.63217,0.77024 -1.23289,0.22659 -0.59108,-0.53492 -0.69946,-0.53618 -2.024498,-0.0237 -0.769993,0.29785 -1.536787,0.66388 -1.703987,0.81341 -0.1672,0.14953 -0.5992,0.26789 -0.96,0.263 -0.399776,-0.005 -1.293043,0.70123 -2.287002,1.80917 -1.769353,1.97227 -2.580953,2.117 -1.977468,0.35264 0.360707,-1.05458 0.845097,-1.57751 1.236934,-1.33534 0.120461,0.0745 0.396966,-0.079 0.614461,-0.34111 0.217491,-0.26206 0.617808,-0.47648 0.88959,-0.47648 0.271783,0 0.386151,-0.108 0.254151,-0.24 -0.316068,-0.31607 -0.941588,-0.32442 -1.162573,-0.0155 -0.09675,0.13524 -0.639335,0.33858 -1.205747,0.45186 -0.83337,0.16667 -0.994768,0.11457 -0.845994,-0.27313 0.27081,-0.70572 -1.064867,-0.9446 -2.061382,-0.36868 -0.457034,0.26415 -1.40697,0.83007 -2.11097,1.2576 -1.678877,1.01959 -2.818768,1.01008 -3.637162,-0.0303 -0.639737,-0.81329 -0.653369,-0.81533 -2.263225,-0.33725 -0.890787,0.26453 -1.619613,0.35033 -1.619613,0.19068 0,-0.56387 -1.410858,-1.59522 -2.182208,-1.59522 -0.706262,0 -0.764941,-0.10223 -0.60927,-1.06152 0.132492,-0.81646 0.03235,-1.14889 -0.433789,-1.44 -0.952272,-0.5947 -1.030602,-0.47962 -0.809251,1.189 0.18408,1.38767 0.111817,1.6817 -0.629949,2.56324 -0.539955,0.6417 -1.346275,1.12378 -2.267683,1.35579 -0.863412,0.21741 -1.6212,0.65215 -1.912976,1.09745 -0.276317,0.42171 -0.678335,0.66253 -0.939024,0.56249 -1.36182,-0.52257 0.32048,1.97407 1.851955,2.74842 1.541472,0.77941 1.947869,0.77477 11.452195,-0.13098 z m 59.199996,-2.24389 c 0,-0.264 0.216,-0.48 0.48,-0.48 0.264,0 0.48,0.216 0.48,0.48 0,0.264 -0.216,0.48 -0.48,0.48 -0.264,0 -0.48,-0.216 -0.48,-0.48 z m -22.305785,-1.06177 c -0.24562,-0.1518 -0.27774,-0.40128 -0.0907,-0.704 0.23079,-0.37342 0.37068,-0.38799 0.68711,-0.0716 0.47723,0.47723 -0.0242,1.12922 -0.59646,0.77555 z m 13.49263,-0.39952 c -0.29451,-0.47653 0.0469,-0.73561 0.65964,-0.5005 0.28274,0.1085 0.42445,0.34229 0.31491,0.51953 -0.25938,0.41969 -0.70883,0.41092 -0.97455,-0.019 z m -55.506841,-0.45871 c 0,-0.51647 0.293085,-0.59304 1.093827,-0.28576 0.779037,0.29894 0.599917,0.76576 -0.293827,0.76576 -0.497779,0 -0.8,-0.18133 -0.8,-0.48 z m 62.400001,-1.57333 c 0,-0.27867 0.228,-0.50667 0.50667,-0.50667 0.27866,0 0.449655,0.171 0.379995,0.38 -0.197785,0.59335 -0.886665,0.69176 -0.886665,0.12667 z m -23.68,-0.69334 c 0,-0.56509 0.68888,-0.46668 0.88666,0.12667 0.0697,0.209 -0.10133,0.38 -0.38,0.38 -0.27866,0 -0.50666,-0.228 -0.50666,-0.50667 z m -6.58618,2.55243 c 0.2784,-0.10683 0.50618,-0.45712 0.50618,-0.77843 0,-0.32131 0.288,-0.67561 0.64,-0.78733 0.352,-0.11172 0.64,-0.3187 0.64,-0.45995 0,-0.40382 -3.00988,-0.64768 -3.24755,-0.26311 -0.27992,0.45291 -1.23245,0.0583 -1.23245,-0.51058 0,-0.43348 -1.74253,-0.91717 -2.08183,-0.57787 -0.3869,0.3869 -0.10309,1.92217 0.44744,2.42039 0.99557,0.90098 3.20246,1.38888 4.32821,0.95688 z m -25.413821,-2.04576 c 0,-0.176 -0.224499,-0.32 -0.498886,-0.32 -0.274388,0 -0.409888,0.144 -0.301114,0.32 0.108774,0.176 0.333274,0.32 0.498886,0.32 0.165613,0 0.301114,-0.144 0.301114,-0.32 z m -15.238906,-2.42335 c 2.00857,-0.91956 2.26417,-1.4015 2.014413,-3.7983 -0.143699,-1.37902 -0.385267,-1.72738 -3.136438,-4.52296 -3.381838,-3.43644 -4.021524,-3.73152 -8.032248,-3.70522 -2.663514,0.0175 -4.726821,0.70252 -4.726821,1.56938 0,0.26765 0.944964,1.36724 2.099919,2.44354 1.154956,1.0763 2.698,2.60491 3.428988,3.39691 2.759738,2.99008 5.460658,5.44 5.997345,5.44 0.306024,0 1.365704,-0.37051 2.354842,-0.82335 z m 14.518983,-0.37665 c 0.152342,-0.45729 1.359923,-0.55201 1.359923,-0.10667 0,0.16134 -0.18,0.35368 -0.4,0.42743 -0.22,0.0738 0.302672,0.14502 1.161494,0.15838 1.974829,0.0307 2.669101,-0.64855 4.467504,-4.37094 1.586551,-3.28388 2.142704,-6.32161 1.753693,-9.578761 -0.471427,-3.947194 -0.348432,-3.830049 -4.145043,-3.947844 -4.064022,-0.126093 -4.684272,0.250451 -3.680378,2.234291 1.573104,3.108684 0.167885,12.181204 -2.189779,14.137894 -0.287337,0.23847 -0.64912,0.6703 -0.803961,0.95962 -0.24056,0.4495 -0.09054,0.52318 1.03088,0.50632 0.749996,-0.0113 1.369513,-0.19113 1.445667,-0.41972 z m 78.101699,-0.24 c 0.20047,-0.44 0.50482,-0.8 0.67634,-0.8 0.17151,0 0.77389,-1.404 1.33864,-3.12 0.86444,-2.62666 1.03126,-3.62697 1.05502,-6.3262 0.0265,-3.011181 -0.0363,-3.337194 -1.03183,-5.36 -0.59078,-1.200336 -1.26822,-2.153805 -1.53028,-2.153805 -0.25862,0 -0.9696,0.208653 -1.57995,0.46367 -1.23666,0.516714 -1.1803,0.282199 -1.27785,5.316455 -0.0326,1.68307 -0.21464,3.77107 -0.40448,4.64 -0.18985,0.86894 -0.42065,3.05588 -0.5129,4.85988 l -0.16772,3.28 h 1.53525 c 1.32706,0 1.58468,-0.10848 1.89976,-0.8 z m 5.9505,0.31096 c 0.71528,-0.29886 1.30524,-0.82773 1.5171,-1.36 1.75082,-4.39875 2.10873,-11.09335 0.80026,-14.968632 -0.65935,-1.952791 -0.8437,-2.217786 -1.52,-2.184855 -3.93179,0.19146 -4.4625,0.262432 -4.32075,0.577808 1.86073,4.139904 1.94981,4.487478 1.93384,7.544719 -0.0161,3.07825 -0.9372,7.2815 -1.92659,8.7915 -0.23887,0.36457 -0.35043,0.98362 -0.2479,1.37567 0.15107,0.57772 0.41454,0.71283 1.39,0.71283 0.66198,0 1.7303,-0.22007 2.37404,-0.48904 z m 8.81865,-0.55096 c 1.98164,-2.09574 3.59554,-6.98656 3.56394,-10.80029 -0.017,-2.045841 -0.92701,-5.552358 -1.79193,-6.904397 -0.39618,-0.619312 -0.66136,-0.656313 -3.88528,-0.542128 -1.90304,0.0674 -3.51116,0.173645 -3.57361,0.23609 -0.0624,0.06245 0.19114,1.199328 0.56351,2.526403 0.99599,3.549472 0.94899,8.711662 -0.11258,12.366052 -0.4343,1.49505 -0.88315,2.95961 -0.99745,3.25459 -0.23725,0.61224 0.42139,0.77674 3.42625,0.85573 1.67129,0.0439 1.90601,-0.039 2.80715,-0.99205 z m -81.896846,-0.63022 c 2.956573,-4.08143 3.51607,-8.68568 1.780211,-14.649785 l -0.512249,-1.76 -1.783396,0.110912 c -1.508124,0.0938 -1.750595,0.192579 -1.570902,0.64 0.531603,1.323645 0.950608,5.512413 0.75847,7.582403 -0.169798,1.82929 -0.538179,2.92821 -1.957699,5.84 l -1.748544,3.58669 h 2.028007 c 2.015715,0 2.033936,-0.008 3.006102,-1.35022 z m 7.505921,0.77645 c 1.584,-0.12501 7.488,-0.13527 13.12,-0.0228 5.632,0.11246 15.64857,0.29869 22.25906,0.41384 l 12.019065,0.20936 0.70888,-1.53331 c 0.61049,-1.32049 1.97299,-5.61239 1.97299,-6.21496 0,-0.11203 -0.288,-0.27901 -0.64,-0.37106 -0.352,-0.0921 -0.64,-0.39684 -0.64,-0.67732 0,-0.626 0.0109,-0.626 -1.24584,9.6e-4 -1.27509,0.6361 -2.59416,0.3732 -2.59416,-0.51702 0,-0.90164 -0.36137,-0.79185 -1.6,0.48609 -0.62203,0.64178 -1.40033,1.12 -1.82277,1.12 -0.82162,0 -0.81083,0.0445 -0.44626,-1.84 0.43778,-2.26301 0.18564,-1.98282 -3.599595,4 -0.47325,0.748 -1.07441,1.36 -1.33591,1.36 -0.65398,0 -0.62625,-0.14168 0.64454,-3.29318 0.616,-1.52765 1.12,-2.95286 1.12,-3.16713 0,-0.21427 -0.54,0.13393 -1.2,0.77378 -1.23288,1.19522 -2.74264,1.81712 -3.08126,1.26922 -0.31014,-0.50182 0.46161,-2.30269 0.98679,-2.30269 0.29781,0 0.41233,0.18401 0.29874,0.48 -0.57011,1.48572 2.45881,-0.88188 3.68447,-2.88 0.650565,-1.06059 0.783455,-1.916561 0.245975,-1.584376 -0.189895,0.117367 -0.945895,0.05098 -1.679995,-0.147529 -0.82864,-0.224074 -1.69872,-0.256823 -2.29472,-0.08638 -0.65613,0.187645 -1.16259,0.144579 -1.6,-0.136051 -0.79079,-0.507341 -5.04929,-1.165328 -7.83996,-1.21136 l -2.07995,-0.0343 -0.83439,2.4 c -0.45891,1.319996 -1.13042,2.975996 -1.49224,3.680006 -0.36181,0.704 -0.5948,1.34356 -0.51774,1.42125 0.0771,0.0777 0.89708,-0.60631 1.82226,-1.52 0.92517,-0.91369 1.84105,-1.66126 2.03528,-1.66126 0.62262,0 1.39392,1.55085 1.30901,2.63203 -0.0686,0.87293 0.0378,1.06467 0.63773,1.15004 0.396,0.0563 0.72,-0.0516 0.72,-0.2398 0,-0.18824 0.17485,-0.34226 0.38857,-0.34226 0.24424,0 0.18709,0.20148 -0.15388,0.54245 -0.32192,0.32191 -1.08762,0.55613 -1.88338,0.57609 -1.05458,0.0265 -1.40801,0.18397 -1.65502,0.73755 -0.33409,0.74871 -1.17629,0.97073 -1.17629,0.3101 0,-0.2166 0.31376,-1.15084 0.69725,-2.07608 0.38349,-0.92524 0.60801,-1.77151 0.49893,-1.8806 -0.25974,-0.25974 -2.37342,2.0034 -4.58619,4.91049 -1.66131,2.18259 -2.36999,2.77328 -2.36999,1.9754 0,-0.18952 0.8516,-1.88152 1.89244,-3.76 1.78291,-3.21772 3.72709,-8.466017 3.35762,-9.063838 -0.0923,-0.149382 -0.37534,-0.271587 -0.62895,-0.271587 -0.25361,0 -0.46111,-0.12903 -0.46111,-0.286733 0,-0.24495 -4.67964,-0.569859 -11.19614,-0.77735 l -1.75614,-0.05592 -1.22459,3.2 c -0.67352,1.760008 -1.31024,4.060818 -1.41492,5.112938 l -0.19033,1.91294 0.77106,-0.50327 c 0.42408,-0.2768 1.34706,-1.45687 2.05106,-2.62239 1.84974,-3.062356 2.63686,-2.84298 1.56436,0.43601 -0.2836,0.86706 -0.43306,1.79169 -0.33211,2.05473 0.30803,0.80273 1.09931,0.19153 1.54541,-1.1937 0.56111,-1.74232 1.39893,-2.0789 1.09116,-0.43836 -0.19362,1.03211 -0.14396,1.16111 0.44695,1.16111 0.94908,0 2.91037,-0.873 3.76494,-1.67582 0.40119,-0.37691 1.10162,-1.32037 1.55652,-2.09658 0.53235,-0.908391 0.9373,-1.301077 1.13639,-1.101979 0.1991,0.199098 -0.0974,1.107479 -0.83215,2.549149 -1.12695,2.21133 -1.40829,3.28523 -0.86066,3.28523 0.15445,0 0.46008,-0.216 0.67919,-0.48 0.2191,-0.264 0.54415,-0.48 0.72233,-0.48 0.17819,0 -0.0422,0.288 -0.48965,0.64 -1.19761,0.94204 -1.83268,0.83115 -1.83268,-0.32 0,-0.528 -0.0676,-0.96 -0.15015,-0.96 -0.0826,0 -0.71444,0.29412 -1.40413,0.65361 -0.68969,0.35949 -1.95413,0.78432 -2.80986,0.94408 -0.85572,0.15975 -1.94523,0.38514 -2.42111,0.50087 -0.74436,0.18101 -0.89451,0.0938 -1.07469,-0.62408 -0.1152,-0.45896 -0.29576,-0.83448 -0.40126,-0.83448 -0.1055,0 -0.72773,0.52331 -1.38274,1.1629 -1.31851,1.28749 -2.19606,1.2819 -2.19606,-0.014 0,-1.32888 -0.4982,-1.20144 -1.53038,0.3915 -1.13578,1.7528 -2.17233,2.78061 -2.41244,2.3921 -0.0915,-0.14804 0.48257,-1.05059 1.27569,-2.00567 0.79312,-0.95508 1.81068,-2.46333 2.26125,-3.35168 0.78676,-1.55116 2.64588,-6.6923 2.64588,-7.316796 0,-0.304084 -11.163207,-0.04182 -11.474603,0.269574 -0.08615,0.08615 0.192388,1.269562 0.61898,2.629798 1.427757,4.552584 0.887347,9.075344 -1.553872,13.004454 -0.923437,1.48626 -0.674324,1.75341 1.469296,1.5757 0.82511,-0.0684 2.796203,-0.22665 4.380199,-0.35165 z m 44.639995,-5.98623 c 0,-0.2759 0.2888,-0.48 0.67918,-0.48 0.56744,0 0.61364,0.079 0.28082,0.48 -0.2191,0.264 -0.52473,0.48 -0.67918,0.48 -0.15445,0 -0.28082,-0.216 -0.28082,-0.48 z m -12.979215,-1.53467 c -0.10248,-0.26708 -0.5545,-0.36852 -1.26995,-0.28499 -0.67818,0.0792 -1.11083,-0.009 -1.11083,-0.22533 0,-0.19526 -0.20751,-0.35501 -0.46112,-0.35501 -0.66044,0 -0.86999,-0.48496 -0.62733,-1.4518 0.16453,-0.65555 0.35725,-0.80301 0.87314,-0.66811 0.3641,0.0952 0.8556,0.0125 1.09222,-0.18392 0.61094,-0.50705 1.34544,0.20947 0.78709,0.76783 -0.2112,0.2112 -0.384,0.6469 -0.384,0.96822 0,0.54175 0.0675,0.54931 0.9288,0.10391 0.83185,-0.43016 0.94876,-0.42829 1.12,0.018 0.34436,0.8974 0.2009,1.72591 -0.29885,1.72591 -0.26952,0 -0.56165,-0.1866 -0.64917,-0.41467 z m -29.83945,-4.08933 c 0.0631,-0.1892 0.25147,-0.344 0.41867,-0.344 0.1672,0 0.3556,0.1548 0.41866,0.344 0.0631,0.1892 -0.12533,0.344 -0.41866,0.344 -0.29334,0 -0.48174,-0.1548 -0.41867,-0.344 z m 6.06667,-0.92 c 0.0704,-0.2112 0.2324,-0.3732 0.36,-0.36 0.38262,0.0396 0.30852,0.47849 -0.104,0.616 -0.2112,0.0704 -0.3264,-0.0448 -0.256,-0.256 z m 1.13403,-2.780639 c -0.25566,-0.255657 0.0333,-0.755366 0.43685,-0.755366 0.16561,0 0.30112,0.216 0.30112,0.48 0,0.494851 -0.37759,0.635744 -0.73797,0.275366 z m 43.587695,15.324639 c -0.23575,-0.308 -0.45705,-0.60767 -0.49177,-0.66593 -0.12788,-0.21452 -1.39796,0.61876 -1.39796,0.91719 0,0.16981 0.52163,0.30874 1.15918,0.30874 1.05394,0 1.12027,-0.0508 0.73055,-0.56 z m -75.222232,-1.1579 c 0.06613,-0.34673 -0.02323,-0.51305 -0.212752,-0.39593 -0.436416,0.26972 -2.030396,-0.45534 -2.552886,-1.16124 -0.534723,-0.72243 -1.024195,-0.72481 -1.013661,-0.005 0.01053,0.71992 2.196551,2.33323 3.028535,2.2351 0.350204,-0.0413 0.688044,-0.34415 0.750764,-0.673 z m 0.372506,-1.34099 c 0,-0.27438 -0.144,-0.40988 -0.32,-0.30111 -0.176,0.10877 -0.32,0.33327 -0.32,0.49889 0,0.16561 0.144,0.30111 0.32,0.30111 0.176,0 0.32,-0.2245 0.32,-0.49889 z m -20.96,-1.74111 c -0.89401,-0.93315 -1.444354,-1.20912 -1.435806,-0.72 0.0037,0.21444 1.867056,1.61054 2.215675,1.66011 0.07693,0.0109 -0.274013,-0.41211 -0.779869,-0.94011 z m 20.935114,-0.82054 c 0.990275,-1.12787 1.020844,-1.24974 0.958956,-3.82301 -0.03516,-1.46191 -0.338515,-3.71516 -0.674124,-5.007233 -0.33561,-1.292073 -0.621392,-2.673222 -0.635072,-3.069222 -0.0137,-0.396 -0.141172,-0.72 -0.283309,-0.72 -0.142141,0 -0.339955,-0.256845 -0.439591,-0.570762 -0.17935,-0.565081 -1.821932,-1.723513 -2.322396,-1.637868 -0.142768,0.02442 -0.403578,3.2e-4 -0.579578,-0.05333 -0.655965,-0.200374 -7.83941,-0.129686 -7.839699,0.07715 -1.66e-4,0.118352 0.755699,0.892547 1.679699,1.720435 1.775411,1.590739 1.612925,1.600442 -0.688601,0.04111 -1.345105,-0.911335 -1.428048,-0.92776 -1.84,-0.364384 -0.740521,1.012723 -0.598913,1.213165 2.236926,3.166281 2.573921,1.772727 1.988696,1.813898 -0.735333,0.05173 -2.503721,-1.619648 -2.737994,-1.695844 -3.012743,-0.979856 -0.194207,0.506092 0.258949,1.066022 4.496509,5.555949 l 2.296759,2.43355 0.364557,-0.96 c 0.200508,-0.528 0.668067,-1.284 1.039024,-1.68 l 0.674464,-0.72 -0.695783,-0.74063 c -1.014525,-1.079913 -0.918585,-1.631449 0.184221,-1.059081 0.934512,0.485021 5.52,4.904601 5.52,5.320271 0,0.13521 -0.396,0.50481 -0.88,0.82133 -1.129101,0.73839 -1.489638,1.10449 -1.968032,1.99838 -0.338096,0.63174 -0.292598,0.80522 0.347018,1.32315 0.878864,0.71166 1.351094,0.52184 2.796128,-1.12396 z m 2.536729,0.50113 c 0.37313,-1.07036 -0.05557,-1.32262 -0.580585,-0.34163 -0.407687,0.76178 -0.43546,1.72321 -0.04277,1.48052 0.158672,-0.0981 0.43918,-0.61057 0.623353,-1.13889 z m -10.70056,-2.12115 c 0.217696,-0.56731 -0.08232,-1.0522 -1.561712,-2.5241 -1.093813,-1.08828 -4.197448,-4.500811 -5.054034,-5.557054 -0.457257,-0.563837 -0.685167,-0.631433 -1.2,-0.355904 -0.349545,0.187072 -0.635533,0.443063 -0.635528,0.568871 1.4e-5,0.324902 2.135877,1.988747 2.552937,1.988747 0.190927,0 0.441782,0.252 0.557456,0.56 0.115674,0.308 0.579154,0.93529 1.029957,1.39399 0.450803,0.45869 1.467641,1.63809 2.259641,2.62087 1.579146,1.95954 1.756637,2.07242 2.051283,1.30458 z m 81.765383,-4.81276 c 0.36483,-1.43732 0.66333,-3.273325 0.66333,-4.08 v -1.466685 h -1.42111 c -0.78162,0 -1.51372,0.149834 -1.6269,0.332966 -0.11318,0.183133 -0.80568,0.706525 -1.53889,1.163101 -0.73321,0.456573 -1.59612,1.104541 -1.91758,1.43993 -0.32147,0.335385 -0.97929,0.688758 -1.46183,0.785267 -0.77965,0.15593 -0.92165,0.389911 -1.27505,2.100911 -0.21873,1.05899 -0.31389,2.00925 -0.21146,2.11168 0.10243,0.10243 0.81779,-0.43358 1.58968,-1.19114 1.65934,-1.62852 2.27012,-1.51542 1.96948,0.36469 l -0.20261,1.26702 1.04814,-0.21242 c 0.57647,-0.11683 1.4383,-0.48908 1.91517,-0.82721 1.14528,-0.81208 1.21296,-0.78925 1.21296,0.40921 0,1.61099 0.52144,0.69924 1.25667,-2.19732 z m -3.49667,1.01332 c 0,-0.264 0.144,-0.48 0.32,-0.48 0.176,0 0.32,0.216 0.32,0.48 0,0.264 -0.144,0.48 -0.32,0.48 -0.176,0 -0.32,-0.216 -0.32,-0.48 z m -0.96,-2.24 c 0,-0.264001 0.216,-0.480001 0.48,-0.480001 0.264,0 0.48,0.216 0.48,0.480001 0,0.264 -0.216,0.48 -0.48,0.48 -0.264,0 -0.48,-0.216 -0.48,-0.48 z m -7.04,2.72 c 0.352,-0.352 0.64,-0.70561 0.64,-0.78579 0,-0.0802 0.35795,-0.67326 0.79544,-1.31794 0.83544,-1.231081 0.80771,-1.739917 -0.0943,-1.730813 -0.34626,0.0035 -0.79733,0.608452 -1.25265,1.680003 -1.307675,3.07744 -1.320365,3.38642 -0.0885,2.15454 z M 41.553119,95.322479 c -0.35271,-0.822839 -0.802409,-1.496074 -0.999331,-1.496074 -0.196918,0 -0.302406,0.108 -0.234413,0.24 0.06799,0.132 0.475994,0.981158 0.906666,1.887018 0.950947,2.000176 1.226806,1.468035 0.327078,-0.630944 z m 55.495966,-0.216074 c 0.10877,-0.176 -0.0182,-0.32 -0.28223,-0.32 -0.264,0 -0.569,0.144 -0.67777,0.32 -0.10878,0.176 0.0182,0.32 0.28223,0.32 0.264,0 0.56899,-0.144 0.67777,-0.32 z m -31.2,-2.418026 c 1.32,-0.09815 3.26561,-0.162745 4.32358,-0.143536 2.01186,0.03653 4.38872,-0.678211 3.69047,-1.10975 -0.73748,-0.455789 -33.934051,-1.062294 -33.934051,-0.619981 0,0.313536 1.383514,1.419325 2.301645,1.839619 0.639462,0.292724 3.486243,0.370928 11.04,0.303274 5.5981,-0.05014 11.258356,-0.171469 12.578356,-0.269626 z m 9.28,-0.141974 c 0,-0.407581 -1.28932,-0.407581 -1.92,0 -0.35704,0.230736 -0.17261,0.311456 0.72,0.315101 0.66,0.0027 1.2,-0.139101 1.2,-0.315101 z m 31.203595,-0.05694 c 0.1035,-0.103494 0.0176,-1.167881 -0.19096,-2.365302 -0.43714,-2.510243 -0.22524,-7.502192 0.42015,-9.89776 l 0.43105,-1.6 -1.72779,-0.06307 c -1.92615,-0.0703 -3.57605,0.807293 -3.57605,1.902132 0,0.335289 -0.1473,0.507667 -0.3348,0.391788 -0.18413,-0.113801 -0.26648,-0.64039 -0.18298,-1.170195 0.13586,-0.862048 0.0786,-0.943638 -0.5452,-0.776342 -0.38336,0.102819 -0.949015,0.188912 -1.257015,0.191315 -0.308,0.0026 -0.56,0.159808 -0.56,0.349795 0,0.217072 0.38644,0.271706 1.04,0.147034 0.893485,-0.170445 0.814605,-0.08379 -0.56,0.615177 -0.88,0.447466 -1.816,0.796717 -2.08,0.776119 -1.07074,-0.08355 -1.30427,0.10488 -2.12701,1.716243 -1.1057,2.165558 -1.40805,5.858656 -0.63175,7.716595 0.28298,0.677267 0.43496,1.360096 0.33774,1.517399 -0.0972,0.157305 0.0117,0.303651 0.24213,0.325219 5.338345,0.499718 10.916145,0.610189 11.302485,0.223849 z m 4.9564,-0.199516 c 0.81292,-0.39609 1.14776,-0.786692 1.22125,-1.424631 0.11411,-0.990451 -0.28681,-1.13928 -0.94207,-0.349718 -0.24155,0.291059 -1.08718,0.936323 -1.87918,1.43392 -1.4259,0.895865 -1.4306,0.904633 -0.48,0.895433 0.528,-0.0051 1.464,-0.25486 2.08,-0.555004 z m -71.686415,-0.23128 c -0.222631,-0.268253 -0.470682,-0.421834 -0.551226,-0.34129 -0.221917,0.22192 0.228976,0.829024 0.615712,0.829024 0.212192,0 0.187914,-0.18361 -0.06449,-0.487734 z m 38.08642,-0.02959 c 0,-0.06747 -0.468,-0.120473 -1.04,-0.117779 -0.70709,0.0033 -0.90062,0.09321 -0.60458,0.280778 0.39712,0.251616 1.64458,0.127974 1.64458,-0.162999 z m 51.177795,0.04375 c 3.94779,-0.08471 7.31071,-0.286938 7.47316,-0.449386 0.45702,-0.457018 -0.0844,-1.179242 -3.2929,-4.392691 l -2.94707,-2.95161 -1.28676,0.453997 c -1.28978,0.455059 -4.69905,2.228118 -7.84423,4.079546 -1.62012,0.953692 -1.68,1.03886 -1.68,2.389459 v 1.400515 l 1.2,-0.187901 c 0.66,-0.103347 4.43001,-0.257213 8.3778,-0.341929 z M 93.220585,91.346401 c -0.88524,-2.284778 -0.70708,-5.656944 0.43531,-8.239498 0.81914,-1.851811 0.83951,-2.204684 0.11319,-1.961398 -0.36532,0.122365 -0.3097,0.0094 0.16,-0.324797 0.86281,-0.614003 0.92997,-1.074307 0.15673,-1.074307 -0.72261,0 -2.5656,1.677046 -2.03672,1.853338 0.24262,0.08087 0.0838,0.409225 -0.42681,0.882451 -0.60879,0.564208 -0.8233,1.09935 -0.85336,2.128931 -0.0745,2.550346 0.0412,4.247709 0.39345,5.77528 0.32256,1.398659 0.42736,1.52 1.31286,1.52 0.78582,0 0.92252,-0.10271 0.74535,-0.56 z m -3.47385,-0.48 c -0.68032,-2.852403 -0.43095,-7.490314 0.50105,-9.318618 0.23515,-0.461299 0.20607,-0.547612 -0.12678,-0.376268 -0.23756,0.122291 -0.15444,-0.0029 0.18472,-0.278077 0.33915,-0.275232 0.55515,-0.557127 0.48,-0.626432 -0.27265,-0.251427 -1.57695,0.429405 -1.58831,0.829085 -0.0184,0.647747 -2.28978,2.236867 -2.66331,1.863334 -0.21053,-0.210534 -0.13673,-0.518096 0.21854,-0.910659 0.93578,-1.034026 0.58377,-1.110915 -0.95567,-0.208749 -1.44457,0.846576 -1.50619,0.855187 -1.93427,0.270406 -0.25178,-0.343952 -0.36013,-0.931456 -0.25164,-1.364496 0.14631,-0.583993 0.0808,-0.718371 -0.28228,-0.579043 -0.60465,0.232029 -2.11393,-0.458896 -2.11721,-0.969225 -0.004,-0.573853 -1.06875,-1.047645 -3.84646,-1.711082 -1.48024,-0.353546 -2.95688,-0.51489 -3.66325,-0.400262 -1.01677,0.164998 -1.15607,0.286937 -0.98943,0.86606 0.10667,0.370714 0.28335,1.650928 0.39262,2.844919 0.22417,2.449465 0.63999,2.644406 1.38403,0.648841 0.61261,-1.643091 1.10917,-2.227478 2.10511,-2.477443 1.82542,-0.45815 4.42258,1.065872 5.54597,3.254397 0.20234,0.394179 0.79318,0.936614 1.31299,1.205418 1.79475,0.928102 2.4261,3.540505 1.03215,4.270844 -0.84205,0.441178 -1.99451,-0.123363 -2.00596,-0.98264 -0.009,-0.705968 -0.0214,-0.708979 -0.35978,-0.09031 -0.81347,1.487258 -2.71135,1.936598 -3.84529,0.910403 -1.2805,-1.158835 -0.43128,-3.3008 1.68416,-4.247907 l 1.22455,-0.548246 -0.70695,-1.006832 c -0.82513,-1.175136 -2.02535,-1.759204 -3.31256,-1.611994 -1.23985,0.141795 -2.19158,1.997888 -1.80981,3.529568 0.35602,1.428365 0.15594,3.135008 -0.36754,3.135008 -0.4458,0 -0.80537,-0.955677 -0.81268,-2.16 -0.003,-0.480947 -0.19745,-0.72 -0.58593,-0.72 -0.42334,0 -0.73038,0.472122 -1.12858,1.735344 -0.61528,1.951898 -2.05534,3.704656 -3.04374,3.704656 -0.4963,0 -0.70799,-0.271206 -0.86501,-1.108192 -0.25066,-1.336118 0.62336,-2.946022 2.28923,-4.21664 0.96752,-0.737968 1.0884,-0.997248 1.07832,-2.313149 -0.0101,-1.317478 -0.0545,-1.408019 -0.4,-0.815513 -0.21376,0.366576 -0.92865,1.317408 -1.58865,2.112956 -0.66,0.795549 -1.2,1.654823 -1.2,1.909495 0,0.623897 -0.64598,1.231043 -1.30977,1.231043 -0.29797,0 -0.63087,0.232218 -0.73978,0.516038 -0.13733,0.357869 -0.31947,0.420461 -0.59424,0.204208 -0.21792,-0.171507 -1.08021,-0.400969 -1.91621,-0.509916 -1.14867,-0.149693 -1.52,-0.09443 -1.52,0.226195 0,0.540224 -1.10259,1.554221 -1.38401,1.272803 -0.11664,-0.11664 -0.46495,0.0067 -0.774026,0.273987 -0.75665,0.654448 -2.54935,1.232138 -3.130983,1.008944 -0.299264,-0.114838 -0.470982,-0.62007 -0.470982,-1.385741 0,-1.017289 0.223213,-1.410758 1.432855,-2.525763 0.78806,-0.726416 1.58006,-1.320755 1.76,-1.320755 0.739806,0 0.24872,-0.990221 -0.86714,-1.748464 -1.655168,-1.124717 -1.899049,-1.042435 -1.899049,0.640717 0,2.406467 -1.362317,3.730019 -4.20026,4.080742 -1.160844,0.143459 -1.483264,0.05147 -2.08167,-0.593878 -0.679949,-0.733293 -0.765216,-0.746071 -2.146406,-0.32161 -0.791082,0.243111 -2.08633,0.740461 -2.87833,1.105229 -0.792,0.364765 -1.953059,0.666371 -2.580131,0.670237 -0.843533,0.0052 -1.379392,0.256765 -2.059869,0.967027 l -0.919738,0.96 7.339869,0.0082 c 13.30228,0.01482 23.45306,0.366752 31.33987,1.08655 2.992,0.273072 6.304,0.543239 7.36,0.600375 1.056,0.05714 2.25961,0.13111 2.67469,0.16439 0.63094,0.05059 0.72653,-0.05755 0.58296,-0.659494 z m -5.33765,-2.16 c 0,-0.176 0.288,-0.32 0.64,-0.32 0.352,0 0.64,0.144 0.64,0.32 0,0.176 -0.288,0.32 -0.64,0.32 -0.352,0 -0.64,-0.144 -0.64,-0.32 z m 2.24,-0.826666 c 0,-0.278668 0.17099,-0.449667 0.38,-0.38 0.59335,0.197783 0.69176,0.886666 0.12666,0.886666 -0.27866,0 -0.50666,-0.228 -0.50666,-0.506666 z m -60.706668,1.706666 c 0.117334,-0.32 0.231467,-0.32 0.570667,0 0.2332,0.22 1.029107,0.4 1.768682,0.4 h 1.344681 l -0.471885,-1.52 c -0.66425,-2.139622 -0.396484,-5.707587 0.672016,-8.954582 0.476836,-1.449021 0.783034,-2.770397 0.680445,-2.936391 -0.103584,-0.167603 -1.924969,-0.276733 -4.095961,-0.245417 l -3.909434,0.05639 -0.759807,1.377331 c -3.052798,5.533911 -1.570588,12.222669 2.708508,12.222669 0.784782,0 1.406538,-0.166682 1.492088,-0.4 z m 7.627112,-0.24 c -0.06575,-0.264 -0.242317,-0.984 -0.392365,-1.6 -0.679373,-2.789091 -0.10095,-7.150547 1.316899,-9.92976 l 0.648029,-1.27024 h -1.583514 -1.58351 l -0.676938,1.80928 c -0.372316,0.995104 -0.831987,2.53224 -1.021491,3.415862 -0.452413,2.109527 -0.192349,5.862045 0.498509,7.19312 0.490707,0.94545 0.675306,1.047789 1.731597,0.96 0.861888,-0.07163 1.149936,-0.228358 1.062784,-0.578262 z m 3.912688,0.453706 c 0.420032,-0.161181 0.40215,-0.322954 -0.132631,-1.2 -0.603059,-0.989021 -0.823321,-3.152826 -0.426265,-4.187533 0.304643,-0.793891 1.234288,-0.599645 2.781165,0.581113 2.44015,1.862612 2.691436,1.932544 2.85832,0.795488 0.08167,-0.556476 -0.0071,-1.022198 -0.204794,-1.074684 -2.182406,-0.579348 -3.177795,-1.053933 -3.970202,-1.892938 -1.694889,-1.794554 -1.488281,-3.68463 0.594333,-5.437034 l 0.996045,-0.838118 h -1.789254 c -1.674445,0 -1.830196,0.06674 -2.427252,1.04 -0.920291,1.50017 -1.287129,2.939126 -1.488812,5.84 -0.317008,4.559651 1.019539,7.214013 3.209347,6.373706 z m 73.302223,-0.304032 1.17351,-0.490327 -0.6199,-0.869673 c -0.34094,-0.47832 -0.92344,-1.143991 -1.29443,-1.479271 -0.90176,-0.814937 -0.84991,-1.272432 0.20546,-1.812992 0.484,-0.247904 1.6,-0.865728 2.48,-1.372941 0.88,-0.507212 1.64218,-0.889801 1.69372,-0.850198 0.13042,0.100192 2.11042,-0.714998 2.30628,-0.949523 0.088,-0.105373 0.772,-0.388599 1.52,-0.629389 0.748,-0.240787 1.36,-0.558749 1.36,-0.706579 0,-0.407303 -0.41827,-0.324343 -1.22949,0.243859 -0.40255,0.281952 -0.81689,0.427648 -0.92077,0.32377 -0.10388,-0.103879 0.94943,-0.731293 2.3407,-1.39425 3.04383,-1.450438 5.65593,-2.982451 5.44491,-3.193475 -0.0845,-0.08446 -1.71096,0.455366 -3.61445,1.199603 -1.9035,0.74424 -3.6659,1.431834 -3.91646,1.52799 -0.31803,0.122055 -0.39537,0.01802 -0.25621,-0.344636 0.19242,-0.50145 -0.57409,-0.280669 -6.32823,1.822732 -0.5703,0.208471 -0.57901,0.194736 -0.08,-0.126112 0.6229,-0.400508 0.7492,-1.453561 0.214,-1.784332 -0.40531,-0.250493 -1.99568,1.190937 -2.86684,2.598339 -1.2881,2.081021 -1.10846,6.072733 0.35715,7.935955 0.78159,0.993629 0.57829,0.958451 2.03105,0.35145 z m 4.02464,-9.403296 c 0.44,-0.358682 1.004,-0.655348 1.25333,-0.659261 0.58186,-0.0091 0.4364,0.111094 -0.93333,0.771449 l -1.12,0.539959 z m -73.785046,8.001299 c 0.334288,-0.369379 0.548676,-0.715632 0.476423,-0.76945 -1.954519,-1.455801 -3.493594,-2.458227 -3.774247,-2.458227 -0.461446,0 -0.461856,1.980029 -6.4e-4,2.992333 0.422992,0.928361 1.529277,1.508521 2.207076,1.157433 0.265968,-0.137769 0.757084,-0.552707 1.091369,-0.922089 z m 18.355675,-0.207101 c 0.70832,-0.496128 1.669376,-2.041696 1.669376,-2.684685 0,-0.184739 -0.3472,-0.335891 -0.771556,-0.335891 -0.95488,0 -2.42844,1.665379 -2.42844,2.744554 0,0.894758 0.51473,0.98758 1.53062,0.276022 z m 11.218326,-0.540576 c 0.8879,-1.44023 1.24525,-2.930755 0.65621,-2.73705 -0.67043,0.220468 -1.88516,2.169271 -1.88516,3.024372 0,1.049152 0.47323,0.938512 1.22895,-0.287322 z m 50.217405,-0.01366 c 1.68607,-1.036342 8.23299,-4.012298 10.29286,-4.678707 1.91439,-0.619341 2.83105,-1.935139 1.36189,-1.954903 -0.29761,-0.004 -3.38511,1.399994 -6.86111,3.119994 -4.61442,2.283315 -6.32,3.2784 -6.32,3.68728 0,0.717834 0.0932,0.707229 1.52636,-0.173664 z M 80.969085,86.528132 c 0.79365,-0.681584 0.76638,-2.621731 -0.0369,-2.621731 -0.84202,0 -2.28315,1.212147 -2.28315,1.920368 0,0.763683 0.89979,1.668739 1.38579,1.393901 0.20582,-0.116391 0.62621,-0.428032 0.93421,-0.692538 z M 46.151058,86.250555 c 1.517088,-0.723446 0.977748,-1.38415 -1.129897,-1.38415 -1.520291,0 -2.212077,0.493789 -2.212077,1.578963 0,0.525479 2.08657,0.403847 3.341974,-0.194813 z m 8.9781,-0.42415 c 0.235251,0 0.745145,-0.513594 1.1331,-1.141318 0.853908,-1.381648 0.718279,-3.339463 -0.306944,-4.430759 -0.684963,-0.729113 -0.900748,-1.787923 -0.364374,-1.787923 0.166019,0 0.493322,0.273357 0.727338,0.607462 0.234012,0.334103 1.331987,1.138749 2.439941,1.788103 1.7207,1.008477 2.854916,2.193657 3.372876,3.524435 0.0685,0.176 0.34924,0.032 0.62388,-0.32 0.48718,-0.624432 0.50819,-0.615021 0.86347,0.386925 0.37521,1.058182 1.42458,1.667129 1.95641,1.135302 0.18847,-0.188467 0.11647,-0.454793 -0.19221,-0.710973 -1.14583,-0.950953 0.20166,-5.131254 1.65403,-5.131254 0.24661,0 0.73503,0.648 1.08537,1.44 0.70315,1.589571 0.91704,1.704602 1.63632,0.88 0.69895,-0.801293 1.07399,-1.607923 1.64439,-3.536726 l 0.50177,-1.69673 -4.64669,0.153347 c -4.22547,0.139447 -4.63698,0.104704 -4.53971,-0.383273 0.0819,-0.411117 0.38574,-0.512055 1.29896,-0.431594 0.66341,0.05845 1.192,-0.03928 1.192,-0.22039 0,-0.3644 -1.30743,-0.589975 -5.759996,-0.993792 -1.672,-0.151639 -3.832005,-0.427568 -4.800005,-0.613181 -0.968,-0.185613 -3.416,-0.574599 -5.44,-0.864407 -4.524979,-0.64792 -4.765869,-0.69238 -5.76,-1.063072 -0.44,-0.16407 -1.808,-0.380985 -3.04,-0.482038 -1.232,-0.10105 -3.248,-0.334864 -4.48,-0.519587 -1.232,-0.184723 -3.104,-0.406807 -4.16,-0.493517 -1.844883,-0.151491 -1.988858,-0.10713 -3.68,1.133904 -0.968,0.710358 -2.313605,1.661843 -2.990234,2.11441 -0.676628,0.452563 -1.171559,0.88152 -1.099846,0.953232 0.35562,0.355622 11.624016,0.636416 31.190973,0.777248 6.396478,0.04604 7.395868,0.118604 7.239658,0.525686 -0.15422,0.401898 -1.31976,0.457987 -7.821188,0.376378 -4.201981,-0.05274 -7.639651,-0.0239 -7.639273,0.0641 3.2e-4,0.088 0.340697,0.555334 0.756262,1.038522 0.415562,0.483184 1.011622,1.563184 1.324579,2.4 0.790343,2.113305 0.915795,2.217731 2.548711,2.121539 1.699747,-0.100126 2.090358,0.358274 2.090358,2.453141 0,1.086125 0.09445,1.29903 0.506173,1.141037 0.278393,-0.106832 0.698649,-0.194237 0.933901,-0.194237 z m 7.919927,-5.025834 c -0.74198,-0.142912 -0.9434,-0.558332 -0.4258,-0.87822 0.16181,-0.100007 0.52181,0.04578 0.8,0.323971 0.42906,0.429062 0.69001,0.880432 0.4258,0.736505 -0.044,-0.02397 -0.404,-0.105984 -0.8,-0.182256 z m -2.886666,-0.794166 c 0.19778,-0.59335 0.886666,-0.691763 0.886666,-0.126666 0,0.278666 -0.228,0.506666 -0.506666,0.506666 -0.27867,0 -0.44967,-0.171002 -0.38,-0.38 z m 23.424256,5.536259 c 0.0965,-0.156057 -0.0391,-0.461689 -0.30112,-0.679184 -0.26206,-0.217491 -0.48749,-0.341808 -0.50096,-0.276256 -0.20838,1.014368 -0.1732,1.239181 0.19392,1.239181 0.23803,0 0.51171,-0.127683 0.60816,-0.283741 z m 40.754845,-2.335929 c 3.8084,-1.918007 5.32078,-2.845364 5.61462,-3.44273 0.28566,-0.580752 0.62968,-0.800301 1.18755,-0.757878 0.43197,0.03284 0.61348,-0.01245 0.40337,-0.100676 -0.21012,-0.08822 -0.30271,-0.367091 -0.20577,-0.619721 0.26779,-0.697847 -0.0849,-0.580576 -2.94901,0.980675 -2.8976,1.579485 -3.02348,1.622797 -3.02258,1.04 6.4e-4,-0.411792 2.23948,-2.025069 4.07938,-2.939533 0.572,-0.284297 1.04,-0.581641 1.04,-0.660765 0,-0.26416 -1.72285,0.504701 -6.13471,2.73777 -2.56548,1.298518 -4.42363,2.067498 -4.49301,1.859386 -0.0737,-0.221111 -0.8316,0.0058 -2.01074,0.602064 l -1.89246,0.956937 1.02234,0.528675 c 0.99313,0.513572 1.05918,0.504295 2.31197,-0.324758 1.76494,-1.167987 2.05573,-0.639434 0.43607,0.792634 -1.134,1.002649 -1.5294,1.961152 -0.81279,1.97032 0.11733,0.0016 2.55893,-1.17858 5.42577,-2.6224 z m -71.292436,1.33967 c 0,-0.352 -0.144,-0.64 -0.32,-0.64 -0.176,0 -0.32,0.288 -0.32,0.64 0,0.352 0.144,0.64 0.32,0.64 0.176,0 0.32,-0.288 0.32,-0.64 z m 14.880001,0.32 c 0.10877,-0.176 0.0453,-0.32 -0.14112,-0.32 -0.18639,0 -0.33888,0.144 -0.33888,0.32 0,0.176 0.0635,0.32 0.14111,0.32 0.0776,0 0.23011,-0.144 0.33889,-0.32 z M 49.971183,84.369784 c 0.109277,-0.284774 0.05563,-0.413222 -0.125763,-0.301113 -0.173984,0.107526 -0.316336,0.331008 -0.316336,0.49662 0,0.460298 0.229366,0.358868 0.442099,-0.195507 z m -3.321987,-1.254749 c 0.101302,-0.590592 0.463501,-1.101097 0.955114,-1.346192 1.056617,-0.52678 1.165619,-2.141593 0.209123,-3.098089 -0.376394,-0.376394 -0.636349,-0.828349 -0.577683,-1.004349 0.05867,-0.176 -0.0019,-0.211494 -0.134455,-0.07888 -0.132617,0.132618 -0.590502,0.01219 -1.01752,-0.267593 -1.330755,-0.87194 -6.474691,-0.503421 -6.474691,0.463862 0,0.161277 0.36584,0.385049 0.812979,0.497273 0.980906,0.246192 2.544845,2.580541 2.862189,4.272122 0.311325,1.659498 0.380566,1.719037 1.872666,1.610179 1.195206,-0.0872 1.345536,-0.1928 1.492278,-1.048333 z m -0.640112,-2.541964 c 0,-0.278666 0.228,-0.506666 0.506666,-0.506666 0.565097,0 0.466684,0.688883 -0.126666,0.886666 -0.209002,0.06967 -0.38,-0.101332 -0.38,-0.38 z m -1.44,-2.106666 c -0.108774,-0.176 0.01824,-0.32 0.28223,-0.32 0.264,0 0.568996,0.144 0.67777,0.32 0.108774,0.176 -0.01824,0.32 -0.28223,0.32 -0.264,0 -0.568996,-0.144 -0.67777,-0.32 z m -1.88361,4.421955 c -0.510768,-2.553837 -2.439424,-4.537651 -3.875673,-3.986509 -0.589575,0.22624 -0.638733,2.381351 -0.07054,3.092359 0.782832,0.979597 2.332442,1.892169 3.229824,1.902057 0.864538,0.0095 0.907725,-0.05123 0.716389,-1.007907 z m 6.053082,0.68272 c 0.113981,-0.184425 0.120774,-0.560646 0.0151,-0.836038 -0.155293,-0.404691 -0.283469,-0.424922 -0.668355,-0.105495 -0.261917,0.217373 -0.476215,0.593591 -0.476215,0.836039 0,0.51624 0.827831,0.593558 1.129472,0.105494 z m 19.030529,-0.603843 c 0,-0.688246 -0.66117,-1.96552 -0.93109,-1.798704 -0.33034,0.20416 0.28461,2.097872 0.68124,2.097872 0.13742,0 0.24985,-0.134627 0.24985,-0.299168 z m 53.439995,-2.420832 c 0.2191,-0.264 0.51978,-0.48 0.66818,-0.48 0.40582,0 6.6819,-3.565056 6.90144,-3.920288 0.25933,-0.4196 -0.98863,-0.02074 -2.76962,0.885213 -0.792,0.40287 -2.4335,1.181069 -3.64779,1.729331 -1.21428,0.548262 -2.11553,1.089094 -2.00277,1.20185 0.11276,0.112755 0.0446,0.398259 -0.1514,0.634451 -0.27121,0.326797 -0.24168,0.429443 0.1236,0.429443 0.264,0 0.65926,-0.216 0.87836,-0.48 z M 97.387925,79.916581 c 0.52184,-0.394701 0.53788,-0.47145 0.10034,-0.48 -0.28645,-0.0056 -0.70008,0.205824 -0.91918,0.469824 -0.51059,0.615216 0.0103,0.62169 0.81884,0.01018 z m -6.89884,-0.844403 c 0.792,-0.186221 2.232,-0.395447 3.2,-0.464951 0.968,-0.0695 2.72833,-0.194588 3.91185,-0.277971 1.18351,-0.08339 2.412365,-0.291037 2.730795,-0.461453 0.97191,-0.52015 6.03713,-1.058441 9.4471,-1.003961 0.48937,0.0078 2.86537,-0.273299 5.28,-0.624707 4.22465,-0.614826 5.27339,-0.720381 11.27025,-1.134349 1.496,-0.103271 3.152,-0.245085 3.68,-0.315143 1.27822,-0.169596 3.92385,-0.42103 6.9712,-0.662524 2.16261,-0.17138 2.55768,-0.298871 2.99518,-0.966596 0.27719,-0.423046 0.42068,-0.986288 0.31885,-1.251648 -0.19139,-0.498758 -1.82662,-0.674419 -2.25843,-0.242604 -0.13192,0.131926 -1.05592,0.249734 -2.05333,0.261801 -3.30301,0.03995 -11.75353,1.198915 -16.17478,2.218317 -2.05363,0.473504 -8.58456,1.255133 -13.47812,1.613078 -1.58369,0.11584 -3.52769,0.324439 -4.32,0.463556 -0.79231,0.139113 -4.024085,0.699817 -7.181715,1.246003 -6.47874,1.120649 -6.98149,1.244787 -6.72461,1.660419 0.23071,0.373306 0.59133,0.36465 2.38576,-0.05727 z M 114.05,78.908373 c 0.68149,-0.284918 1.58305,-0.648947 2.00346,-0.808954 0.42041,-0.160006 0.69134,-0.363955 0.60208,-0.453219 -0.21458,-0.214579 -3.70156,1.096314 -3.93926,1.480922 -0.25102,0.40615 -0.10284,0.381846 1.33372,-0.218749 z m -4.74492,-0.185968 c 0.60403,-0.604029 0.44884,-0.953216 -0.256,-0.576 -0.352,0.188384 -0.64,0.48145 -0.64,0.651258 0,0.423804 0.43333,0.387408 0.896,-0.07526 z m -16.370605,-2.27473 c 0.16686,-0.166851 -0.84189,-2.78127 -1.07312,-2.78127 -0.087,0 -0.85902,0.630061 -1.71553,1.400131 -0.8565,0.770074 -1.86462,1.480506 -2.24025,1.578736 -0.60451,0.15808 -0.65891,0.07994 -0.47352,-0.680134 1.06136,-4.351431 1.05682,-11.177424 -0.009,-13.360679 -0.52567,-1.076921 -0.78086,-1.271996 -1.77237,-1.354883 -1.37358,-0.114829 -1.55054,0.26745 -1.55735,3.364279 -0.01,4.466496 0.65512,8.443392 1.83507,10.975235 l 1.12407,2.411923 2.87025,-0.705974 c 1.57864,-0.388288 2.93388,-0.7696 3.01164,-0.847364 z m -10.98944,-1.327417 c -1.82561,-6.529562 -2.17033,-9.47937 -1.44842,-12.394311 0.18792,-0.758748 0.51431,-2.243542 0.72532,-3.299542 0.21101,-1.056 0.76162,-2.64 1.22357,-3.52 0.46195,-0.88 0.89606,-1.729978 0.96469,-1.888838 0.17623,-0.40793 -2.15653,0.01347 -2.73578,0.494208 -1.10311,0.915497 -2.49404,4.383673 -3.83195,9.55463 -0.75787,2.929174 -0.76721,8.633578 -0.0173,10.597094 0.50627,1.325632 0.70142,1.508234 1.91385,1.790784 0.74255,0.17305 1.86921,0.306804 2.50369,0.297232 l 1.15358,-0.01741 -0.45121,-1.613852 z m 18.624045,0.316214 c 1.76,-0.243529 4.496,-0.533142 6.08,-0.64359 5.00438,-0.348941 11.10642,-1.129648 13.81851,-1.767968 1.44017,-0.338963 4.53617,-0.844231 6.88,-1.122813 6.11691,-0.72705 8.58149,-1.137542 8.58149,-1.429306 0,-0.140518 -0.252,-0.556588 -0.56,-0.924601 -0.47917,-0.572538 -1.05508,-0.699827 -3.99015,-0.881943 -1.88658,-0.117059 -3.37075,-0.308947 -3.29815,-0.426422 0.0726,-0.117475 1.54282,-0.251203 3.26715,-0.297174 1.72433,-0.04597 3.20341,-0.15184 3.28683,-0.235264 0.30364,-0.303645 -0.54897,-1.243655 -1.21836,-1.343242 -0.7942,-0.118157 -0.91026,-0.632278 -0.20392,-0.903328 0.39624,-0.152051 0.47935,-0.88584 0.46095,-4.069955 -0.0185,-3.20369 0.11239,-4.346119 0.74691,-6.518669 0.75416,-2.582205 0.75701,-2.638125 0.14444,-2.832547 -0.3437,-0.109088 -1.43734,-0.115392 -2.4303,-0.01402 l -1.8054,0.184329 1.28,-0.446611 c 0.704,-0.245638 1.94443,-0.53583 2.75651,-0.64487 0.95952,-0.128835 1.72758,-0.465498 2.19353,-0.961482 1.03573,-1.10248 0.59548,-1.505683 -1.37379,-1.258192 -1.29931,0.16329 -1.81693,0.407021 -2.40184,1.130938 -0.84379,1.04432 -1.33441,0.947219 -1.33441,-0.264103 0,-0.774592 -0.0706,-0.810771 -1.2,-0.615296 -0.66,0.114231 -4.872,0.347284 -9.36,0.517898 -4.488,0.170614 -8.52,0.382506 -8.96,0.47087 -0.44,0.08836 -2.31293,0.299175 -4.16208,0.468471 -3.19433,0.292454 -15.597145,2.807398 -17.861145,3.621744 -1.38259,0.497309 -5.2787,5.041811 -4.76385,5.556659 0.0988,0.09879 0.94629,-0.04211 1.88335,-0.313123 1.71394,-0.495696 4.59713,-1.097578 8.74373,-1.825306 1.232,-0.216214 3.31112,-0.660429 4.620265,-0.987139 2.70455,-0.674944 3.53973,-0.737229 3.53973,-0.263974 0,0.4116 0.0362,0.401958 -4.799995,1.278556 -2.2,0.398768 -4.1384,0.849568 -4.30756,1.001773 -0.19043,0.171354 -0.041,0.543296 0.3924,0.976695 0.68256,0.682563 0.7399,0.68718 2.30756,0.185865 2.06571,-0.660589 2.27874,0.04406 0.2476,0.818992 l -1.36,0.518874 0.0972,4.564601 c 0.0931,4.371034 -0.007,5.245972 -1.12275,9.813949 -0.1776,0.72712 -0.12827,0.757114 0.89882,0.546423 0.59771,-0.122608 2.52675,-0.422172 4.286745,-0.665699 z M 75.175195,74.906405 c -0.31752,-1.226797 -0.38472,-5.826499 -0.11395,-7.8 0.40782,-2.972381 1.82918,-8.2188 2.8091,-10.36873 0.43337,-0.9508 0.71889,-1.797782 0.63449,-1.882185 -0.0844,-0.0844 -1.18439,0.113929 -2.44441,0.440736 -1.53723,0.398707 -2.43734,0.817609 -2.73589,1.273261 -0.59199,0.903488 -1.94732,5.578553 -2.31099,7.971536 -0.43429,2.857635 -0.11018,7.402332 0.65526,9.187968 0.57736,1.346892 0.76514,1.5151 1.81219,1.623369 1.53792,0.159027 1.83083,0.08193 1.6942,-0.445955 z m -4.98901,-0.68 c -0.47637,-1.576666 -0.84288,-6.282858 -0.65162,-8.367075 0.1114,-1.213888 0.55174,-3.412064 0.97853,-4.884835 0.91364,-3.152775 0.91705,-3.18353 0.29599,-2.66809 -0.63913,0.530429 -0.60687,0.173104 0.08,-0.886016 l 0.56,-0.863501 -1.03782,0.734995 c -0.5708,0.404247 -1.18159,0.646135 -1.35732,0.53753 -0.17573,-0.108605 -0.68725,0.170288 -1.13673,0.619763 -0.8883,0.888304 -1.10813,0.987344 -1.10813,0.499235 0,-0.174896 0.58132,-0.739104 1.29184,-1.253795 0.71051,-0.514694 1.1547,-1.02056 0.98709,-1.124147 -0.16761,-0.10359 -0.73372,0.172621 -1.25803,0.613795 -1.10768,0.932048 -1.39905,1.006016 -1.12234,0.284915 0.29617,-0.771798 -0.94171,-0.04483 -1.81575,1.06633 -0.6596,0.83855 -0.6817,1.116685 -0.55765,7.018518 0.12513,5.953469 0.10896,6.15065 -0.51788,6.314576 -0.42219,0.110404 -0.80362,-0.05433 -1.09758,-0.474 -1.83704,-2.622742 -2.276176,-2.686086 -3.053636,-0.440467 -0.348,1.005184 -0.60099,1.272269 -1.20512,1.272269 -0.829444,0 -1.139419,-0.794678 -1.213086,-3.109958 -0.02982,-0.937504 -0.143593,-1.149383 -0.536249,-0.998704 -0.274116,0.105187 -0.422634,0.388668 -0.330045,0.629955 0.247936,0.646105 -0.564365,0.533481 -1.403907,-0.19465 -0.711098,-0.616733 -1.287658,-0.606649 -1.287658,0.02253 0,0.171264 -0.219306,0.836263 -0.487344,1.47777 -0.357277,0.855085 -0.582202,1.07152 -0.842768,0.810953 -0.260566,-0.260566 -0.20657,-1.262947 0.20232,-3.755801 0.540272,-3.293853 0.539104,-3.414256 -0.03723,-3.843347 -0.674528,-0.502192 -1.599549,-0.971879 -2.461587,-1.249892 -0.659648,-0.212739 -0.561763,-0.96566 0.13416,-1.031936 0.248848,-0.02371 0.632451,-0.0597 0.852451,-0.08 0.22,-0.02029 0.4,-0.244633 0.4,-0.498512 0,-0.312134 0.429814,-0.493462 1.327411,-0.56 1.784656,-0.132294 2.282848,-0.900451 1.277815,-1.970259 -0.697168,-0.742102 -0.494992,-1.483881 0.274774,-1.008141 0.176,0.108775 0.32,-0.05728 0.32,-0.369001 0,-0.311725 0.5916,-1.169568 1.314666,-1.90632 1.285984,-1.31032 1.298611,-1.34464 0.578873,-1.573079 -0.589113,-0.186976 -0.928393,-0.01805 -1.701929,0.847434 -0.531376,0.594531 -1.183415,1.031411 -1.448976,0.970842 -0.265559,-0.06057 -0.804919,0.293801 -1.198573,0.787494 -0.393658,0.49369 -0.791914,0.821443 -0.885015,0.728342 -0.244704,-0.244704 2.35034,-2.792867 3.080138,-3.024496 0.805962,-0.255801 0.574032,-0.9115 -0.37127,-1.049635 -0.540397,-0.07896 -1.075917,0.256931 -1.97129,1.236455 -0.676134,0.73968 -1.149846,1.473484 -1.052698,1.630678 0.09715,0.157194 -0.04495,0.370838 -0.315782,0.474765 -0.71641,0.274915 -1.471786,1.91488 -1.06799,2.318675 0.178656,0.178656 0.231488,0.568064 0.117408,0.86535 -0.15736,0.410077 -0.442516,0.493504 -1.181559,0.345696 -0.958521,-0.191702 -0.97255,-0.175657 -0.875072,1.000986 0.08563,1.033542 0.196775,1.182227 0.819069,1.095699 0.88831,-0.123517 0.943917,0.43776 0.08871,0.895453 -0.628096,0.336144 -0.6281,0.343075 -0.0013,1.371258 0.787478,1.291536 0.789145,1.513404 0.01136,1.513404 -1.165994,0 -0.980615,0.578173 0.455158,1.419594 1.402739,0.822058 2.336358,1.956669 1.937917,2.35511 -0.344535,0.344535 -9.125584,-1.978156 -9.128912,-2.414704 -0.0039,-0.516956 0.508157,-0.504454 2.377165,0.05803 2.627785,0.790848 3.31767,-0.03011 0.979785,-1.165955 -1.452855,-0.705911 -1.850448,-1.212081 -0.951965,-1.212081 0.537632,0 1.087638,-1.154509 1.004947,-2.109466 -0.03592,-0.414822 0.152288,-0.610534 0.587133,-0.610534 0.508566,0 0.660397,-0.246438 0.739318,-1.2 0.08744,-1.056499 0.01427,-1.2 -0.611875,-1.2 -1.198832,0 -4.089798,-1.040339 -4.281869,-1.540867 -0.154777,-0.403338 0.200269,-0.44064 2.426717,-0.25496 2.514867,0.209731 2.601946,0.194265 2.437907,-0.433018 -0.215792,-0.82519 0.214768,-1.111731 0.732727,-0.487632 0.538019,0.648272 0.957075,0.599165 0.957075,-0.112157 0,-0.32375 0.369334,-0.756915 0.820742,-0.962592 0.617764,-0.281472 0.770711,-0.531593 0.618436,-1.011363 -0.111268,-0.350576 -0.07916,-0.637411 0.07135,-0.637411 0.534649,0 2.507715,-1.893517 1.98711,-1.906995 -0.276301,-0.0072 -0.986237,0.418995 -1.577635,0.946995 -1.116413,0.996733 -1.976541,1.31928 -1.28,0.48 0.731658,-0.881594 -0.115718,-0.493389 -1.184765,0.542774 -0.580381,0.562525 -1.055235,0.861744 -1.055235,0.664935 0,-0.387639 2.507517,-2.647709 2.9376,-2.647709 0.14432,0 0.2624,-0.144 0.2624,-0.32 0,-0.638192 -1.031226,-0.298003 -1.98359,0.654358 -1.148432,1.148436 -1.670695,0.990455 -0.57641,-0.174358 0.412054,-0.438611 0.663475,-0.883194 0.55871,-0.987955 -0.372963,-0.372967 -1.536003,0.248925 -2.636208,1.409606 -0.980476,1.034375 -1.117289,1.095648 -1.119728,0.501504 -0.0016,-0.372265 0.295677,-1.056265 0.660452,-1.52 0.527049,-0.670035 0.564374,-0.843155 0.181788,-0.843155 -0.264787,0 -0.79495,0.440291 -1.178134,0.978426 -0.836166,1.174284 -1.268074,0.999436 -0.484659,-0.196205 0.637645,-0.973168 0.502678,-1.248467 -0.461968,-0.942301 -0.943069,0.299318 -1.777431,2.388912 -2.594349,6.497347 -0.917283,4.613194 -0.756195,9.89136 0.385232,12.622288 0.661654,1.58305 0.887136,1.839616 1.617066,1.84 0.466508,2.43e-4 2.554508,0.299347 4.64,0.664672 2.085488,0.365325 4.799104,0.797811 6.030259,0.961079 1.231152,0.163267 2.671152,0.427859 3.2,0.58798 1.066729,0.322983 2.886444,0.556634 6.721547,0.86305 1.408,0.112496 3.208,0.313405 4,0.446464 0.792,0.133056 1.92479,0.258861 2.51732,0.279562 0.97462,0.03405 1.05658,-0.03101 0.85978,-0.682362 z m -20.18473,-8.252342 c -0.32255,-0.521898 0.393927,-1.16936 0.821191,-0.742096 0.231417,0.231417 0.191145,0.45176 -0.131511,0.719539 -0.34375,0.285286 -0.523667,0.291171 -0.68968,0.02256 z m -7.672371,-5.747658 c 0.108774,-0.176 0.405274,-0.32 0.658886,-0.32 0.253613,0 0.461114,0.144 0.461114,0.32 0,0.176 -0.296499,0.32 -0.658886,0.32 -0.362388,0 -0.569888,-0.144 -0.461114,-0.32 z m 2.456538,-5.013482 c 0.155696,-0.802806 0.903462,-0.91304 0.903462,-0.133184 0,0.393066 -0.206621,0.666666 -0.503462,0.666666 -0.297997,0 -0.461242,-0.217718 -0.4,-0.533482 z m -5.850093,13.624973 c -1.188067,-3.817264 -0.657495,-11.594649 1.130521,-16.571725 0.612989,-1.706304 0.612272,-1.6616 0.02304,-1.435488 -0.264,0.101309 -0.48,0.02026 -0.48,-0.180086 0,-0.200352 0.216,-0.447165 0.48,-0.54847 0.610157,-0.234141 0.629367,-1.075722 0.02454,-1.075722 -0.250499,0 -0.933968,0.396 -1.518822,0.88 l -1.063373,0.88 0.530951,-0.826208 c 0.313619,-0.488016 0.425116,-0.997456 0.272393,-1.244566 -0.189123,-0.306007 -0.393043,-0.170061 -0.759318,0.506208 -0.275418,0.508512 -0.50432,0.708566 -0.508672,0.444566 -0.0044,-0.264 0.125645,-0.691171 0.288883,-0.949267 0.176573,-0.279181 0.180013,-0.609984 0.0085,-0.816653 -0.423178,-0.509898 -0.01622,-1.704243 0.653075,-1.916672 0.740119,-0.234902 2.231837,-1.402579 2.231837,-1.747021 0,-0.144742 -0.591405,-0.319565 -1.31423,-0.388496 L 37.6206,43.722965 36.835179,45.494683 c -0.431981,0.974448 -1.298003,3.327168 -1.924489,5.228272 l -1.139069,3.456551 0.166,5.823449 c 0.155555,5.456583 0.574496,8.22345 1.245149,8.22345 0.14647,0 0.268515,0.252 0.271209,0.56 0.0087,0.999971 0.508378,1.394227 2.106045,1.661872 0.862979,0.14457 1.661955,0.279789 1.775501,0.30049 0.113545,0.0207 -0.06645,-0.839191 -0.4,-1.910871 z M 33.46295,67.986405 c -0.576244,-1.612131 -0.66241,-2.652403 -0.69578,-8.4 -0.03749,-6.45713 -0.02346,-6.602653 0.894122,-9.28 0.512714,-1.496 1.33823,-3.579283 1.834483,-4.629517 0.49625,-1.050237 0.796755,-2.013357 0.667792,-2.140269 -0.128966,-0.126908 -0.990483,-0.330179 -1.914483,-0.451705 -1.388307,-0.182595 -1.68,-0.136301 -1.68,0.266637 0,0.268176 -0.761667,1.5492 -1.692595,2.84672 -1.691936,2.358204 -2.628375,4.317235 -3.646338,7.628134 -0.795148,2.586198 -0.705642,7.5848 0.179959,10.050096 0.373436,1.039552 0.678974,2.587552 0.678974,3.44 0,1.532381 0.01176,1.550064 1.04,1.564026 0.572,0.0078 1.76,0.214048 2.64,0.458403 2.440515,0.67767 2.424202,0.690694 1.693866,-1.352525 z m 14.779715,-0.887734 c -0.222631,-0.268253 -0.470682,-0.421834 -0.551226,-0.34129 -0.221917,0.22192 0.228976,0.829024 0.615712,0.829024 0.212192,0 0.187914,-0.18361 -0.06449,-0.487734 z m 9.102461,-0.952266 c 0.206697,-0.877725 0.182121,-0.916874 -0.286743,-0.456813 -0.302275,0.296602 -0.42607,0.729245 -0.301526,1.053802 0.256451,0.668297 0.300931,0.623155 0.588269,-0.596989 z m -1.736042,0.498886 c 0,-0.432118 -0.583341,-0.731676 -0.965219,-0.49566 -0.178871,0.110547 -0.242375,0.335046 -0.141114,0.498886 0.240215,0.388675 1.106333,0.38615 1.106333,-0.0032 z m 0.64,-1.752713 c 0,-0.510983 -0.46232,-1.146173 -0.834237,-1.146173 -0.459728,0 -0.609907,0.68919 -0.232429,1.066666 0.23305,0.233052 1.066666,0.295187 1.066666,0.07951 z m 1.352778,-5.532762 0.09992,-4.546592 -0.726349,0.682371 c -0.399488,0.375303 -0.726346,0.988471 -0.726346,1.362589 0,0.374122 -0.150893,0.831114 -0.335318,1.015539 -0.23376,0.23376 -0.219504,0.589514 0.04707,1.174589 0.338854,0.743709 0.295056,0.911312 -0.384682,1.472042 l -0.76707,0.632777 0.72,0.514781 c 0.742192,0.53065 0.981942,1.438493 0.379888,1.438493 -0.187062,0 0.06494,0.413779 0.56,0.91951 1.073728,1.096874 0.999514,1.402554 1.13289,-4.666099 z m -10.952778,4.245475 c 0,-0.73991 -0.551549,-0.871686 -0.733661,-0.175286 -0.107849,0.412416 -0.008,0.6364 0.283619,0.6364 0.247524,0 0.450042,-0.207501 0.450042,-0.461114 z m 19.607911,-7.31767 c -0.22468,-0.390486 -1.51169,0.573235 -1.64141,1.229094 -0.0966,0.48841 0.0282,0.458896 0.83841,-0.198233 0.52354,-0.424643 0.88489,-0.888528 0.803,-1.030861 z m 5.27173,-1.354259 c 0.9238,-0.113805 1.76175,-0.339773 1.86211,-0.502157 0.10036,-0.162381 0.31694,-0.212131 0.4813,-0.110554 0.16435,0.101578 0.94204,0.08823 1.7282,-0.02966 1.56924,-0.235321 1.43828,-0.06954 3.89775,-4.934166 1.11812,-2.211526 1.20814,-2.594266 1.20814,-5.136598 0,-2.356413 -0.12685,-3.006292 -0.89211,-4.57042 -0.62578,-1.279056 -1.07632,-1.823402 -1.50917,-1.823402 -0.53439,0 -6.00363,1.761098 -6.25742,2.01489 -0.051,0.05095 0.26225,0.50566 0.69601,1.01046 0.95482,1.111194 1.52377,3.011264 1.51004,5.042944 -0.0108,1.598736 -1.16082,4.030586 -3.02903,6.405232 -1.12489,1.429815 -2.77553,1.9968 -4.431,1.52202 -0.60513,-0.173552 -1.20919,-0.315546 -1.34235,-0.315546 -0.41716,0 -0.26341,0.958698 0.15789,0.984483 0.80306,0.04915 1.47296,0.237767 2.04993,0.577165 0.32454,0.190909 0.95007,0.285254 1.39007,0.209664 0.44,-0.07559 1.55584,-0.230554 2.47964,-0.344355 z M 56.895164,54.61908 c 0.33817,-0.407472 0.318374,-0.454297 -0.120819,-0.285763 -0.288893,0.110858 -0.525261,0.330154 -0.525261,0.487325 0,0.411507 0.185238,0.353715 0.64608,-0.201562 z m 37.593921,-2.419568 c 0.41977,-0.185869 0.10779,-0.216121 -0.90662,-0.08792 -2.59209,0.327594 -4.79467,0.898682 -4.92037,1.275767 -0.11808,0.354256 4.44508,-0.575959 5.82699,-1.187847 z m -13.93328,0.68017 c 0.88935,-0.889347 1.76926,-2.73008 2.42289,-5.068547 0.80874,-2.893399 0.50113,-6.88681 -0.71817,-9.323354 -0.69687,-1.392544 -1.03114,-1.757274 -1.53144,-1.670954 -0.90083,0.155424 -0.89995,0.116176 -0.0411,1.845287 2.17221,4.373219 1.83119,8.564185 -1.08215,13.298953 -0.88472,1.437856 -0.90654,1.545338 -0.31381,1.545338 0.35037,0 0.91907,-0.282026 1.26377,-0.626723 z m -10.49357,-1.350855 c 3.13228,-3.392867 3.70644,-7.761286 1.34418,-10.226956 -0.4704,-0.490989 -0.98018,-0.815508 -1.13285,-0.721152 -0.15267,0.09436 -0.6969,-0.181274 -1.20939,-0.612506 -1.20144,-1.01095 -4.92852,-2.557971 -8.2151,-3.409894 -2.970776,-0.770061 -4.054477,-0.86913 -5.399991,-0.493652 -0.842019,0.234973 -0.910144,0.207344 -0.55432,-0.224816 0.349414,-0.424374 0.217699,-0.540428 -0.949674,-0.836739 -0.745443,-0.189216 -1.42,-0.279379 -1.499014,-0.200368 -0.07901,0.07901 0.01981,0.143661 0.219632,0.143661 0.199808,0 0.287168,0.198374 0.194128,0.440829 -0.13383,0.348752 -0.332275,0.365462 -0.950083,0.08 -0.429504,-0.198455 -0.713383,-0.540829 -0.630839,-0.760829 0.20834,-0.555261 -0.135945,-0.503238 -1.713395,0.258906 -0.750077,0.362396 -1.605126,0.600256 -1.900105,0.528572 -0.353716,-0.08595 -0.01878,-0.369884 0.98367,-0.833878 0.836,-0.38695 1.52,-0.75081 1.52,-0.808573 0,-0.282569 -1.83991,-0.05213 -2.805693,0.351402 -0.770361,0.321875 -1.021907,0.34239 -0.853305,0.06959 0.176454,-0.285507 0.03738,-0.318678 -0.530964,-0.12663 -0.42352,0.14311 -1.309158,0.252233 -1.96808,0.242496 -1.136544,-0.0168 -1.187619,0.02582 -0.994985,0.830205 0.263789,1.101494 0.232374,1.076041 1.603213,1.298867 1.59358,0.259027 1.812416,0.989043 0.29648,0.989043 -1.051316,0 -1.146666,0.07698 -1.146666,0.925763 0,0.527706 0.20639,1.004963 0.48,1.109959 0.663459,0.254592 0.60103,0.762736 -0.121894,0.992185 -0.342122,0.108583 -0.685245,0.607792 -0.795021,1.156672 -0.106221,0.531101 -0.63512,1.608048 -1.175331,2.393219 -1.001252,1.455271 -1.015556,2.059732 -0.04887,2.065344 0.297613,0.0016 2.845114,0.650071 5.661114,1.440762 10.293947,2.89039 11.472977,3.177165 11.592187,2.819552 0.0638,-0.191283 0.6136,-1.174259 1.22187,-2.18439 0.608266,-1.010135 1.105946,-1.951696 1.105946,-2.092365 0,-0.140669 -0.91501,-0.353751 -2.033346,-0.473514 -2.169861,-0.232371 -2.962821,-0.536899 -2.662661,-1.022566 0.111398,-0.18025 2.020751,0.01043 4.760997,0.475462 2.51625,0.427021 5.22301,0.807408 6.01501,0.845309 1.34348,0.06429 1.49081,0.186019 1.328,1.097242 -0.0264,0.14775 -0.40282,0.4303 -0.83647,0.627888 -0.8653,0.394252 -2.51007,3.315491 -2.34611,4.166857 0.0901,0.468077 1.08258,0.862339 2.46373,0.978762 0.24704,0.02083 1.00484,-0.564051 1.684,-1.299719 z m -7.57315,-7.992908 c -0.704,-0.167386 -2.539996,-0.600618 -4.079996,-0.96274 -1.97788,-0.465081 -2.800005,-0.79887 -2.800005,-1.136822 0,-0.263133 0.18,-0.409827 0.4,-0.325984 0.22,0.08384 2.380005,0.634787 4.800001,1.224326 2.42,0.589536 4.4,1.184343 4.4,1.321796 0,0.317369 -1.07932,0.269523 -2.72,-0.120576 z M 44.545724,35.419535 c 0.339152,-0.256586 0.694982,-0.388176 0.790733,-0.292423 0.200861,0.200861 -0.611872,0.772058 -1.087373,0.764215 -0.176,-0.0029 -0.04251,-0.21521 0.29664,-0.471792 z m 8.98336,0.16687 c 0.108774,-0.176 0.34177,-0.32 0.51777,-0.32 0.176,0 0.231004,0.144 0.12223,0.32 -0.108774,0.176 -0.34177,0.32 -0.51777,0.32 -0.176,0 -0.231004,-0.144 -0.12223,-0.32 z m 30.882111,16.936019 c 0.61484,-0.189187 2.05389,-0.470646 3.19789,-0.625465 4.26878,-0.577696 11.74433,-1.865658 13.599995,-2.343146 1.056,-0.271722 3.72,-0.794291 5.92,-1.16127 2.2,-0.36698 5.44,-0.936685 7.2,-1.266013 1.76,-0.329328 4.352,-0.770563 5.76,-0.980528 1.408,-0.209962 4.072,-0.713687 5.92,-1.119392 1.848,-0.405703 4.008,-0.82792 4.8,-0.938259 0.792,-0.110343 1.61823,-0.311824 1.83607,-0.447741 0.47093,-0.293821 2.10577,-6.670531 1.82617,-7.122941 -0.18594,-0.300851 -7.03147,-0.228698 -7.33751,0.07734 -0.0776,0.07764 0.0622,0.911885 0.31065,1.853888 0.39349,1.491651 0.39091,1.830505 -0.02,2.62512 -0.8463,1.636569 -1.36161,1.162541 -1.18232,-1.087613 0.14092,-1.768608 0.0778,-2.073555 -0.54575,-2.63575 -0.78774,-0.71026 -0.83478,-0.676442 -2.01246,1.446697 -0.43385,0.78217 -0.66263,0.937968 -0.98475,0.670631 -0.31961,-0.265258 -0.58756,-0.121069 -1.12443,0.605091 -0.79555,1.076035 -1.46705,1.215673 -1.92353,0.39999 -0.29222,-0.522163 -0.34556,-0.520848 -0.94692,0.02336 -0.61405,0.555703 -0.6491,0.555559 -0.96224,-0.004 -0.17873,-0.319385 -0.37178,-0.509904 -0.42898,-0.423369 -0.0572,0.08653 -0.57696,1.108598 -1.15502,2.271251 -1.44668,2.909683 -1.84996,3.420624 -2.32801,2.949507 -0.2956,-0.291315 -0.21961,-0.639514 0.33562,-1.537907 0.59364,-0.960531 0.69364,-1.494605 0.57832,-3.088851 -0.14591,-2.017216 -0.48773,-2.502967 -1.76753,-2.511767 -0.88406,-0.0061 -1.41325,0.81681 -2.32236,3.611277 -0.70731,2.174186 -1.27012,2.602483 -1.59749,1.215702 l -0.17013,-0.720668 -0.77448,0.824393 c -0.96553,1.027767 -1.10819,1.026304 -1.5832,-0.01622 l -0.38302,-0.840624 -1.24958,1.353546 c -1.32328,1.433366 -1.88917,1.524505 -2.403,0.387005 -0.17374,-0.384605 -0.41025,-0.69929 -0.52558,-0.69929 -0.11533,0 -0.75878,0.72 -1.42987,1.6 -1.178755,1.54569 -2.016795,2.029558 -2.078345,1.2 -0.0163,-0.22 -0.005,-1.012 0.0242,-1.76 0.0296,-0.748 -0.0154,-1.36 -0.0999,-1.36 -0.0846,0 -0.5244,0.612 -0.9774,1.36 -0.453,0.748 -1.15069,1.72207 -1.55041,2.164598 -0.92213,1.020874 -2.96282,2.292695 -3.23768,2.017828 -0.39502,-0.394983 -0.20875,-1.062429 0.29647,-1.062429 0.27808,0 1.33301,-0.828 2.34429,-1.84 1.33547,-1.336419 2.29183,-2.745613 3.4944,-5.14897 0.91064,-1.819932 1.655705,-3.561379 1.655705,-3.869881 0,-0.503319 -0.686635,-0.603853 -6.686825,-0.979075 -6.59994,-0.412724 -8.67147,-0.351876 -10.40052,0.30551 l -0.88285,0.335658 0.63679,1.03838 c 1.932,3.150378 2.19519,9.077527 0.57788,13.013549 -1.17465,2.858711 -1.18178,2.837619 0.75764,2.240848 z M 58.634309,52.250306 c 0.18023,-0.291613 -3.286006,-1.469786 -3.549366,-1.206429 -0.07444,0.07445 0.625037,0.426867 1.554397,0.783168 0.92936,0.356298 1.717249,0.663914 1.750859,0.683587 0.0336,0.01968 0.14346,-0.09747 0.24411,-0.260326 z m -4.465225,-1.610711 c -1.427418,-0.58768 -12.470198,-3.564665 -13.863315,-3.73736 -1.366899,-0.169446 -1.441187,-0.145228 -0.856685,0.279271 0.817939,0.594038 2.610902,1.207331 2.845062,0.973168 0.09871,-0.09871 0.362951,-0.03573 0.587204,0.139945 0.383827,0.300685 2.627801,0.93905 4.407734,1.253911 3.579168,0.633129 5.899885,1.111094 6.030877,1.242086 0.08568,0.08568 0.455789,0.146042 0.822457,0.134131 0.654893,-0.02128 0.655364,-0.0263 0.02666,-0.285152 z m 60.799996,-1.769641 c 0.704,-0.06488 3.116,-0.217543 5.36,-0.339248 3.51953,-0.190883 4.08,-0.29512 4.08,-0.758791 0,-0.295632 0.1728,-0.71031 0.384,-0.92151 0.29867,-0.298666 0.25972,-0.384 -0.17528,-0.384 -0.3076,0 -0.89292,0.36 -1.30069,0.8 -0.85086,0.918086 -1.14803,1.000918 -1.14803,0.32 0,-0.653206 -0.85649,-0.608141 -1.23313,0.06488 -0.22957,0.410218 -0.41145,0.458192 -0.7359,0.194112 -0.53486,-0.435328 -2.70363,-0.283046 -3.32608,0.233543 -0.25381,0.210649 -0.78625,0.296918 -1.18318,0.191708 -0.71872,-0.190499 -3.83908,0.271095 -5.36171,0.793156 -0.74716,0.256172 0.17509,0.217641 4.64,-0.193853 z m 15.28,-1.011722 c 1.012,-0.110393 1.84,-0.324717 1.84,-0.476272 0,-0.151555 -0.144,-0.275555 -0.32,-0.275555 -0.176,0 -0.32,-0.216 -0.32,-0.48 0,-0.621578 -0.28932,-0.60696 -1.01676,0.05137 -0.73332,0.663638 -1.17275,0.293664 -0.64841,-0.545927 0.66523,-1.065219 -0.33579,-0.762252 -1.62799,0.492717 -0.63509,0.616794 -1.23951,0.975504 -1.34798,0.8 -0.10814,-0.174989 -0.10763,-0.462163 0.001,-0.638163 0.31028,-0.502038 -0.2092,-0.374666 -0.8548,0.209597 -1.11174,1.006112 -0.75067,1.495993 0.9348,1.268291 0.836,-0.112941 2.348,-0.295667 3.36,-0.406061 z m 5.61728,-0.431827 c 0.4283,0 0.39209,-0.132547 -0.1967,-0.72 -0.61759,-0.616182 -0.76557,-0.650787 -1.02622,-0.24 -0.48089,0.757898 -0.37865,1.373142 0.19181,1.154237 0.2784,-0.106832 0.7424,-0.194237 1.03111,-0.194237 z m 5.91811,-0.750429 c 0.23465,-0.617171 -0.36182,-1.809571 -0.90519,-1.809571 -0.34567,0 -0.47811,0.232416 -0.41032,0.72 0.0839,0.603718 -0.0678,0.736195 -0.93988,0.820275 -0.94124,0.09075 -1.27344,0.359619 -0.90257,0.730493 0.28952,0.289514 3.0244,-0.109894 3.15796,-0.461197 z m -9.21539,-1.489571 c 0.10877,-0.176 0.0538,-0.32 -0.12223,-0.32 -0.176,0 -0.409,0.144 -0.51777,0.32 -0.10877,0.176 -0.0538,0.32 0.12223,0.32 0.176,0 0.409,-0.144 0.51777,-0.32 z m 6.88,-0.64 c 0,-0.176 -0.144,-0.32 -0.32,-0.32 -0.176,0 -0.32,0.144 -0.32,0.32 0,0.176 0.144,0.32 0.32,0.32 0.176,0 0.32,-0.144 0.32,-0.32 z m -37.13229,-3.28 c 0.007,-0.132 0.22829,-0.24 0.49229,-0.24 0.33524,0 0.48,0.337779 0.48,1.12 0,0.661181 0.15817,1.12 0.38611,1.12 0.39586,0 2.47671,-2.208195 2.48775,-2.64 0.003,-0.132 0.22214,-0.24 0.48614,-0.24 0.32,0 0.48,0.32 0.48,0.96 0,2.042349 0.92413,0.867786 1.76241,-2.24 0.46312,-1.716979 1.33507,-2.014202 1.17347,-0.4 -0.12905,1.289114 0.45872,1.379402 0.73683,0.113181 0.32227,-1.467251 1.20325,-2.070032 2.63449,-1.80256 1.60936,0.300758 1.98089,0.657113 2.21563,2.125123 0.24702,1.544739 0.75717,1.305053 0.75717,-0.355744 0,-1.638298 0.41656,-1.826234 1.36414,-0.615446 l 0.77533,0.990688 0.40909,-0.98762 c 0.5612,-1.354867 1.29144,-1.290691 1.29144,0.113492 0,0.605612 0.13848,1.1867 0.30773,1.291302 0.34002,0.210144 1.7669,-2.344454 1.47343,-2.637926 -0.10093,-0.100922 -2.23497,-0.225216 -4.74233,-0.276208 -2.50735,-0.051 -7.0344,-0.174221 -10.06011,-0.273837 l -5.50127,-0.18112 -1.13873,3.522422 c -0.626285,1.937331 -1.135755,3.849082 -1.132135,4.248336 0.006,0.625847 0.20249,0.505347 1.427705,-0.874083 0.78161,-0.88 1.42665,-1.708 1.43342,-1.84 z m -60.221296,0.08252 c 0.211049,-0.831466 0.205516,-1.342599 -0.01693,-1.565056 -0.227127,-0.227127 -0.200349,-0.486979 0.08569,-0.831639 0.608109,-0.732726 0.198999,-0.921542 -0.845424,-0.390188 -0.500355,0.254556 -2.205737,0.761225 -3.789737,1.125929 -3.640611,0.838224 -5.600925,1.533123 -4.96,1.758243 0.539907,0.189639 6.043747,1.113812 7.52,1.262717 1.434662,0.144711 1.663917,-0.01069 2.006409,-1.360006 z m 101.000156,-0.1036 c 1.888,-0.675808 3.04597,-1.28832 3.43872,-1.818925 0.78821,-1.064854 1.69828,-5.694384 1.41561,-7.201163 -0.26335,-1.403746 -0.0813,-1.449254 -4.7087,1.176955 -3.8321,2.174845 -3.47089,1.562166 -3.97615,6.744208 -0.25365,2.601421 -0.31657,2.58337 3.83052,1.098925 z M 72.317235,38.429023 c 0.93051,-0.37256 3.4825,-1.25192 5.67107,-1.954135 4.4524,-1.428573 4.59646,-1.857251 0.61322,-1.824803 -1.29384,0.01053 -2.9149,-0.08085 -3.60235,-0.203094 -1.04317,-0.185498 -1.21894,-0.141565 -1.0627,0.265612 0.21847,0.569306 -1.07033,0.942263 -1.74671,0.505472 -0.34041,-0.21983 -0.32909,-0.331798 0.0593,-0.586771 0.34419,-0.225942 -0.046,-0.316486 -1.37888,-0.32 -1.15889,-0.0032 -1.78441,0.115603 -1.66111,0.315101 0.11538,0.186694 -0.21001,0.32 -0.78112,0.32 -0.65679,0 -0.97888,-0.157942 -0.97888,-0.48 0,-0.572794 -0.22479,-0.591453 -1.55187,-0.128829 -0.55406,0.193146 -0.92705,0.481146 -0.82887,0.64 0.0982,0.158858 -0.22599,0.28425 -0.72038,0.278653 -0.81571,-0.0092 -0.84707,-0.04951 -0.33888,-0.43528 0.308,-0.233805 0.56,-0.517226 0.56,-0.629821 0,-0.397581 -1.24065,-0.198358 -1.71429,0.275277 -0.264,0.264 -0.62579,0.48 -0.80397,0.48 -0.17819,0 -0.40543,0.131805 -0.505,0.292899 -0.0996,0.161095 1.15194,0.741328 2.78112,1.289405 1.62918,0.54808 3.61014,1.341354 4.40214,1.762838 1.79119,0.953226 1.57171,0.944816 3.58815,0.137476 z m 52.686355,-2.853479 c 0.62274,0.0077 0.72375,-0.116201 0.57839,-0.709869 -0.80734,-3.297286 -0.93742,-5.138707 -0.59701,-8.451597 0.19597,-1.90722 0.65056,-4.318216 1.01021,-5.357769 0.35964,-1.039553 0.6539,-1.948677 0.6539,-2.020275 0,-0.0716 -0.46619,-0.08506 -1.03598,-0.0299 -0.84778,0.08206 -1.17483,0.352698 -1.80024,1.48976 -1.39505,2.536307 -2.79912,9.530644 -2.54014,12.653603 0.18416,2.220672 0.68706,2.878582 1.99816,2.614028 0.53801,-0.10856 1.31773,-0.193152 1.73271,-0.187977 z m -4.99375,-2.051389 c -0.26623,-3.316737 1.06595,-10.182409 2.53968,-13.08876 0.34331,-0.677055 0.57433,-1.280882 0.51338,-1.341837 -0.0945,-0.09455 -2.5899,-0.373101 -8.41382,-0.939213 -0.704,-0.06843 -3.224,-0.214208 -5.6,-0.323947 -2.376,-0.109739 -4.896,-0.26208 -5.6,-0.338536 -2.30594,-0.250431 -45.959084,-0.470546 -50.961986,-0.256969 l -4.881994,0.208415 -0.485952,1.631549 c -1.023712,3.437027 -1.551923,8.13864 -1.18249,10.525374 0.189533,1.224496 0.463367,2.336729 0.608516,2.471628 0.30502,0.283479 5.470048,0.583072 13.703915,0.794883 9.787496,0.251778 16.902296,0.501983 18.239996,0.641445 2.24862,0.234432 9.99588,0.78288 18.39765,1.302413 4.486705,0.277443 8.199905,0.546701 8.251565,0.598352 0.0517,0.05165 3.45678,0.120871 7.56695,0.153818 l 7.47304,0.0599 z m -31.201825,-1.85775 c 0.11484,-0.924 0.21605,-1.968 0.22493,-2.32 0.0282,-1.118652 -0.60187,-0.998857 -1.26386,0.240295 -0.80047,1.498332 -1.76,1.629017 -1.76,0.239705 0,-0.853333 -0.10667,-0.96 -0.96,-0.96 -0.81067,0 -0.96,0.124444 -0.96,0.8 0,1.049066 -1.14186,1.111793 -1.45629,0.08 -0.12068,-0.396 -0.4415,-0.972883 -0.71294,-1.281962 -0.56874,-0.647614 -0.31368,-1.038038 0.67814,-1.038038 0.63173,0 0.68339,-0.144285 0.60151,-1.68 -0.07,-1.31249 0.0143,-1.68 0.3855,-1.68 0.44617,0 0.66059,0.687087 0.89777,2.876731 0.0484,0.447194 0.32349,0.84192 0.62694,0.899735 0.4285,0.08164 0.56125,-0.183184 0.64,-1.276731 0.14278,-1.982632 0.94706,-1.857507 1.41581,0.220265 l 0.36097,1.6 0.57859,-1.28 c 0.31822,-0.704 0.66081,-1.916487 0.76129,-2.694415 0.1952,-1.511129 0.79983,-2.06589 1.12725,-1.034273 0.10937,0.344598 0.20833,1.419584 0.21991,2.388858 0.0182,1.522947 0.1144,1.78736 0.7083,1.946703 1.29678,0.347925 1.40813,0.223492 1.54955,-1.731637 0.15242,-2.107256 0.77958,-3.236033 1.1055,-1.989717 0.14609,0.558639 0.41898,0.714481 1.25112,0.714481 1.02332,0 1.06806,-0.05233 1.16268,-1.36 0.0688,-0.950291 0.24266,-1.36 0.57726,-1.36 0.36001,0 0.45272,0.303568 0.3735,1.223028 -0.0877,1.017656 0.007,1.252296 0.56114,1.397322 0.85031,0.222361 0.85411,0.636976 0.008,0.905426 -0.83144,0.263885 -0.68688,1.272864 0.18247,1.27365 0.91567,8.32e-4 0.78407,0.897045 -0.16427,1.118722 -0.6102,0.142634 -0.82322,0.423026 -0.89785,1.181771 -0.0664,0.675079 -0.30284,1.048375 -0.73573,1.16158 -0.58781,0.153717 -0.62124,0.05579 -0.42583,-1.247343 0.19303,-1.287322 0.15229,-1.414156 -0.45424,-1.414156 -0.46079,0 -0.60948,-0.148045 -0.4821,-0.48 0.10131,-0.264 0.38479,-0.48 0.62996,-0.48 0.24517,0 0.44577,-0.216 0.44577,-0.48 0,-0.302353 -0.30486,-0.48 -0.82373,-0.48 -0.78594,0 -0.81985,0.07304 -0.7392,1.592533 0.0465,0.875893 -0.0149,1.691893 -0.13627,1.813333 -0.12112,0.121441 -0.22048,0.484801 -0.22048,0.807467 0,0.373334 -0.23273,0.586667 -0.64,0.586667 -0.45414,0 -0.64,-0.213333 -0.64,-0.734596 0,-0.607556 -0.18794,-0.747253 -1.08675,-0.807784 l -1.08674,-0.07319 -0.22573,2.247785 c -0.19011,1.893025 -0.31924,2.247785 -0.81819,2.247785 -0.52787,0 -0.56969,-0.183101 -0.38366,-1.68 z m 26.174995,0.02661 c -0.0805,-0.234635 -0.18861,-0.85861 -0.24017,-1.38661 -0.0879,-0.899707 -0.1874,-0.966051 -1.58474,-1.056348 -1.42251,-0.09192 -1.50057,-0.05274 -1.69956,0.853267 -0.11471,0.522289 -0.41577,1.029126 -0.66902,1.126305 -0.36252,0.139113 -0.46044,-0.161452 -0.46044,-1.413267 0,-1.553286 -0.0221,-1.589957 -0.96,-1.589957 -0.85333,0 -0.96,0.106667 -0.96,0.96 0,0.746667 -0.14222,0.96 -0.64,0.96 -0.35556,0 -0.64,-0.213333 -0.64,-0.48 0,-0.316001 -0.31614,-0.48 -0.92531,-0.48 -0.72012,0 -0.96983,0.177402 -1.12609,0.8 -0.12645,0.50378 -0.42695,0.8 -0.81158,0.8 -0.54902,0 -0.59241,-0.177951 -0.42913,-1.76 0.1773,-1.717909 0.16226,-1.76 -0.62889,-1.76 -0.91567,0 -1.33849,0.68971 -0.774,1.262549 0.28705,0.291283 0.26242,0.469302 -0.105,0.758994 -0.264,0.208151 -0.48,0.664485 -0.48,1.014075 0,0.349589 -0.24161,0.682147 -0.53691,0.739017 -0.38257,0.07368 -0.56654,-0.155026 -0.64,-0.795618 -0.0818,-0.713333 -0.24594,-0.879331 -0.794735,-0.803705 -1.12867,0.155535 -1.23028,-0.569785 -0.13759,-0.982227 0.946715,-0.357346 0.991185,-0.456355 1.034535,-2.303241 0.0427,-1.821175 0.0924,-2.642236 0.21997,-3.636511 0.0301,-0.234666 0.23473,-0.367485 0.45473,-0.295153 0.22565,0.07419 0.46974,0.887815 0.56,1.866666 l 0.16,1.735154 1.52,0.09753 c 1.43339,0.09198 1.52,0.149283 1.52,1.005764 0,0.52898 0.20917,0.988497 0.50092,1.100453 0.37559,0.144124 0.45385,0.04389 0.31278,-0.400585 -0.10829,-0.341177 0.0187,-0.764448 0.29907,-0.997169 0.26798,-0.222398 0.48723,-0.662951 0.48723,-0.979006 0,-1.950063 1.13677,-2.120801 1.51129,-0.22699 0.24406,1.234154 0.35685,1.36 1.21883,1.36 0.86665,0 0.95858,-0.105147 1.0492,-1.2 0.11397,-1.377119 0.8939,-1.656569 1.20161,-0.430543 0.19982,0.796132 0.38412,0.861724 3.73907,1.330725 1.50658,0.21061 2.11563,0.938183 0.97003,1.158806 -0.45035,0.08673 -0.5518,0.476988 -0.56,2.154409 -0.007,1.344966 -0.14735,2.095087 -0.40986,2.184159 -0.21991,0.07462 -0.46572,-0.05631 -0.54624,-0.290945 z m -0.5702,-4.006477 c -0.30595,-0.08009 -0.88195,-0.083 -1.28,-0.0065 -0.39805,0.07654 -0.14773,0.142073 0.55627,0.145625 0.704,0.0036 1.02968,-0.05907 0.72373,-0.139168 z m -52.171145,1.819867 0.17168,-1.28 h -1.812166 c -1.31563,0 -1.86265,0.131524 -1.99637,0.48 -0.10131,0.264 -0.45171,0.48 -0.77868,0.48 -0.524143,0 -0.573768,-0.191933 -0.419458,-1.622236 l 0.175018,-1.622237 -1.066304,0.102237 c -0.988522,0.09478 -1.085571,0.207272 -1.330503,1.542236 -0.145312,0.792 -0.328057,1.764 -0.406099,2.16 -0.222611,1.129579 -1.089699,0.902335 -1.089699,-0.285586 v -1.005586 l -1.900637,0.198656 c -1.759337,0.183887 -1.917126,0.146697 -2.122461,-0.50026 -0.133532,-0.420724 -0.07756,-0.747006 0.140634,-0.819736 0.199357,-0.06645 0.362464,-0.516687 0.362464,-1.000523 0,-0.794654 -0.14671,-0.908089 -1.517514,-1.173333 -1.098848,-0.212622 -1.549225,-0.461011 -1.632454,-0.900323 -0.09031,-0.476671 0.01203,-0.557592 0.477514,-0.37759 1.771641,0.685089 2.255971,0.601455 2.623571,-0.453041 0.412413,-1.183046 1.122253,-1.144331 1.266963,0.0691 0.08144,0.682891 0.298605,0.848524 1.28,0.97627 0.777066,0.101148 1.303616,0.0028 1.537197,-0.287101 0.474041,-0.58835 0.645523,-0.560149 1.442976,0.237304 0.560873,0.560874 0.920841,0.645003 2.080002,0.486122 0.77096,-0.105672 1.40175,-0.157935 1.40175,-0.11614 0,0.0418 -0.13395,0.543041 -0.29767,1.113879 l -0.29766,1.037888 h 1.23149 c 0.67732,0 1.454066,0.08541 1.726116,0.189805 0.41783,0.160337 0.46744,-0.05081 0.31956,-1.36 -0.30817,-2.728068 1.25567,-3.693885 1.68039,-1.037803 l 0.20393,1.275275 2.10726,-0.09364 2.10727,-0.09364 -0.0946,-1.520751 c -0.0725,-1.165694 0.0264,-1.567161 0.42345,-1.719532 0.74275,-0.285019 0.91456,0.01655 0.89116,1.564195 -0.0177,1.171419 0.0998,1.425999 0.81373,1.762918 0.75522,0.356411 0.92846,0.302641 1.82521,-0.566522 0.54493,-0.528166 1.15335,-0.960305 1.35204,-0.960305 0.2316,0 0.3984,0.968593 0.46477,2.698781 0.0991,2.582928 0.0726,2.704655 -0.61649,2.835625 -0.5378,0.102215 -0.72,-0.01388 -0.72,-0.458781 0,-0.501417 -0.25307,-0.595625 -1.6,-0.595625 -1.37712,0 -1.6,0.08759 -1.6,0.628741 0,0.345808 -0.288,0.782874 -0.64,0.971259 -0.60655,0.324613 -0.64,0.243357 -0.64,-1.554505 0,-2.179108 -0.27212,-2.423839 -2.12595,-1.911973 -1.43789,0.39702 -1.92343,0.967053 -2.20308,2.586478 -0.1503,0.870332 -0.36696,1.2 -0.78865,1.2 -0.49361,0 -0.55549,-0.193326 -0.40974,-1.28 z M 54.009084,26.44752 c 0,-0.429614 -0.126,-0.781115 -0.28,-0.781115 -0.154,0 -0.73,-0.09 -1.28,-0.2 -0.945802,-0.18916 -1,-0.1469 -1,0.779725 0,0.869854 0.11663,0.991832 1.04,1.08768 1.357597,0.140921 1.52,0.04623 1.52,-0.88629 z m 16.173151,0.797595 c 0.11601,-0.187709 0.14512,-0.407099 0.0647,-0.487532 -0.22319,-0.223193 -1.19784,0.218678 -1.19784,0.543058 0,0.400573 0.87785,0.357556 1.13315,-0.05553 z m 2.06685,0.02129 c 0,-0.176 -0.144,-0.32 -0.32,-0.32 -0.176,0 -0.32,0.144 -0.32,0.32 0,0.176 0.144,0.32 0.32,0.32 0.176,0 0.32,-0.144 0.32,-0.32 z m 60.319995,7.847482 c 1.056,-0.06516 2.028,-0.129504 2.16,-0.14298 0.4526,-0.04621 0.24034,-0.664502 -0.22812,-0.664502 -0.94466,0 -2.93015,-2.508821 -3.31913,-4.193976 -0.46848,-2.029576 -0.47654,-5.175236 -0.0175,-6.846024 0.44984,-1.637416 2.43754,-3.567314 5.29903,-5.144938 1.20217,-0.66279 2.61189,-1.499581 3.13272,-1.859536 0.52082,-0.359954 3.06665,-1.70049 5.65739,-2.978969 2.59073,-1.278478 4.79496,-2.461267 4.89826,-2.62842 1.11871,-1.8101088 -7.75002,2.164378 -12.46261,5.585071 -0.528,0.383256 -2.112,1.302987 -3.52,2.043848 -2.40129,1.263509 -2.67201,1.334025 -4.3667,1.137427 l -1.8067,-0.209592 -0.72147,1.867554 c -1.02757,2.659917 -1.25339,8.716129 -0.45191,12.11952 l 0.57018,2.421168 1.6283,-0.193587 c 0.89556,-0.106471 2.4923,-0.246903 3.5483,-0.312064 z m -71.519995,-0.487482 1.12,-0.613174 -1.49383,-0.01341 c -1.604166,-0.0144 -2.506166,0.215424 -2.506166,0.638566 0,0.223958 0.26976,0.320234 1.6,0.571027 0.088,0.01661 0.664,-0.245763 1.279996,-0.583009 z m -3.199996,-0.514237 c 0,-0.06917 -0.296504,-0.125763 -0.658891,-0.125763 -0.362388,0 -0.573776,0.137712 -0.469751,0.306026 0.170755,0.276288 1.128642,0.123299 1.128642,-0.180263 z M 45.049084,33.346405 c 0,-0.176 -0.432,-0.32 -0.96,-0.32 -0.528,0 -0.96,0.144 -0.96,0.32 0,0.176 0.432,0.32 0.96,0.32 0.528,0 0.96,-0.144 0.96,-0.32 z m -0.275293,-1.111374 c 0.08326,-0.08325 0.0073,-1.022718 -0.168861,-2.087694 -0.373286,-2.257099 0.112397,-6.978365 1.074976,-10.449725 0.332778,-1.2001 0.546413,-2.240638 0.474746,-2.312307 -0.07167,-0.07167 -1.02368,-0.0017 -2.115578,0.155397 l -1.985267,0.285703 -0.934169,2.56 c -0.9788,2.68231 -1.555399,7.064673 -1.266612,9.626761 0.125232,1.111068 0.312106,1.42893 0.995124,1.692649 1.494358,0.576985 3.594723,0.860135 3.925641,0.529216 z M 147.25808,29.981757 c 2.40172,-1.484027 2.98424,-2.388836 0.81614,-1.267668 -1.49839,0.774847 -4.76677,3.148573 -4.77663,3.469119 -0.005,0.152242 0.31549,0.0708 0.71149,-0.180982 0.396,-0.251782 1.85805,-1.160993 3.249,-2.020469 z M 38.485954,28.186356 c 0.129764,-3.622189 0.761236,-6.889533 1.774026,-9.179109 l 0.637248,-1.440608 -4.713254,0.214162 c -4.698413,0.213488 -4.71642,0.217232 -5.719194,1.189161 -1.105002,1.07101 -1.602473,2.399385 -1.92328,5.135656 -0.264616,2.256991 0.469788,4.657769 1.89865,6.206722 0.987097,1.07006 1.07127,1.095823 3.888934,1.190311 1.584,0.05312 3.140253,0.08358 3.458336,0.06769 0.511062,-0.02553 0.592317,-0.419159 0.698534,-3.383985 z m 95.306586,-10.902699 1.65326,-1.057252 -1.19836,-0.09932 c -1.38291,-0.114612 -1.62759,-0.682216 -0.31836,-0.738544 l 0.88,-0.03786 -0.91773,-0.202139 c -0.78841,-0.173655 -0.93318,-0.375375 -1.02734,-1.431516 -0.0844,-0.946724 -0.007,-1.190151 0.33501,-1.058763 1.1006,0.422339 2.73006,0.580696 2.73006,0.265317 0,-0.183727 0.288,-0.425457 0.64,-0.537177 0.352,-0.11172 0.64,-0.481424 0.64,-0.821564 0,-0.736264 0.60095,-0.797484 1.45884,-0.148613 0.84072,0.635887 1.10116,0.604918 1.10116,-0.130938 0,-0.782221 0.37539,-1.025359 0.97528,-0.631689 0.39752,0.26087 0.38375,0.367027 -0.0953,0.734163 -0.308,0.236058 -0.56,0.675025 -0.56,0.975483 0,0.406961 -0.16908,0.492624 -0.66293,0.33588 -0.40753,-0.129346 -0.87436,-0.01907 -1.21171,0.286231 -0.30183,0.273151 -1.11951,0.73639 -1.81707,1.02942 -1.20573,0.506503 -1.23176,0.546431 -0.52773,0.809498 0.45367,0.169518 0.65027,0.422797 0.5075,0.653803 -0.35808,0.579385 0.33334,0.233022 4.11244,-2.060095 1.89227,-1.148214 4.16027,-2.346489 5.04,-2.662834 0.87972,-0.316345 1.5995,-0.681903 1.5995,-0.8123518 0,-0.464679 -6.16605,-0.96733 -13.28968,-1.083362 -2.82133,-0.04595 -6.13333,-0.169217 -7.36,-0.273918 -1.22666,-0.104699 -4.3183,-0.272387 -6.8703,-0.372639 -2.552,-0.1002514 -4.856,-0.2356304 -5.12,-0.3008422 -0.60192,-0.1486832 -5.6415,-0.4901523 -9.44,-0.6396294 C 97.185525,6.9629605 87.117895,6.3983794 86.883825,6.2537179 86.738855,6.1641221 81.838735,5.9646837 75.994665,5.8105211 70.150595,5.6563589 63.396155,5.4410802 60.984805,5.3321237 L 56.600534,5.1340213 55.224809,6.0686626 C 53.670601,7.1245624 40.85655,13.656131 36.626073,15.548798 c -1.527344,0.683316 -2.776989,1.362797 -2.776989,1.509957 0,0.14716 0.18,0.211608 0.4,0.143218 0.22,-0.06839 2.632,-0.212304 5.36,-0.31981 2.728,-0.107505 6.76,-0.29903 8.96,-0.425611 2.2,-0.126581 8.428,-0.216836 13.840001,-0.200567 5.412,0.01627 9.84,-0.05827 9.84,-0.165648 0,-0.31968 -3.94913,-1.257837 -6.95698,-1.652705 -3.43015,-0.450306 -3.60302,-0.496726 -3.60302,-0.967457 0,-0.382576 3.39855,-0.235878 4.52188,0.195186 0.34442,0.132164 0.56901,-0.01307 0.6807,-0.440191 0.189,-0.722752 -0.0543,-0.859331 -2.06873,-1.161417 -0.78538,-0.117776 -1.62762,-0.33753 -1.87165,-0.488344 -0.89556,-0.553487 0.0632,-0.716085 2.16694,-0.367488 1.18773,0.196812 2.25986,0.254485 2.38253,0.128162 0.12267,-0.126323 0.32084,-0.625678 0.44037,-1.109678 0.20199,-0.8178758 0.14712,-0.8799998 -0.77735,-0.8799998 -0.70485,0 -0.99469,-0.151525 -0.99469,-0.52 0,-0.408324 0.20835,-0.478328 0.97018,-0.325962 0.81826,0.163652 1.01561,0.07456 1.26026,-0.5689157 0.3653,-0.9608093 0.92434,-1.3183347 1.36788,-0.8748016 0.2434,0.2434074 0.22736,0.4813533 -0.0554,0.8220999 -0.59407,0.7158044 -0.13063,1.1506924 1.19599,1.1223164 0.64961,-0.01389 1.00112,-0.09789 0.78112,-0.186666 -0.51794,-0.208994 -0.50855,-0.7973104 0.0244,-1.5261253 0.49198,-0.6728211 1.81562,-0.4353648 1.81562,0.3257155 0,0.3357114 0.22185,0.4088514 0.8,0.2637453 0.95948,-0.240816 1.13904,0.5993185 0.24,1.1229625 -0.308,0.179393 -0.416,0.347159 -0.24,0.372813 0.176,0.02565 0.464,0.0801 0.64,0.12099 0.176,0.04089 0.644,0.09628 1.04,0.123088 1.40865,0.09536 0.69322,0.6887398 -0.83041,0.6887398 -1.13485,0 -1.70294,0.168553 -2.11951,0.628858 -0.54919,0.606849 -0.54253,0.639671 0.1904,0.937853 0.41774,0.169948 1.15552,0.393706 1.63952,0.497239 0.62047,0.132728 0.88,0.386192 0.88,0.859451 0,0.56725 -0.1363,0.640314 -0.88,0.47174 -2.40218,-0.544497 -2.97854,-0.57812 -3.43377,-0.200313 -0.58402,0.484688 -0.36219,0.906509 0.68634,1.305159 0.58151,0.221091 0.73952,0.460793 0.5979,0.907 -0.18699,0.589169 0.22594,0.606848 14.45852,0.619011 8.05805,0.0069 16.667005,0.17212 19.131005,0.367183 10.24532,0.811076 12.6711,0.983631 16.48,1.172279 2.2,0.108962 4.03982,0.231127 4.08848,0.271477 0.0487,0.04035 1.24796,0.101309 2.6651,0.135465 2.41947,0.05831 2.67745,-0.0024 4.22988,-0.99515 z m -3.1725,-1.977544 c -0.27111,-0.706498 0.0896,-1.067179 0.57837,-0.578375 0.28861,0.28861 0.28984,0.467497 0.005,0.752176 -0.28468,0.28468 -0.42346,0.243346 -0.58354,-0.173801 z M 82.169085,13.20529 c 0,-0.341613 0.16581,-0.723593 0.36847,-0.848845 0.25728,-0.159007 0.19932,-0.351421 -0.19204,-0.637595 -0.82471,-0.603044 -0.30762,-1.10981 0.93148,-0.912885 1.18105,0.187699 1.72207,-0.268672 1.1441,-0.9650878 -0.40194,-0.484308 0.0734,-0.997217 0.61436,-0.662894 0.1685,0.104141 0.5322,-0.24736 0.80821,-0.781115 0.56626,-1.0950175 1.28267,-1.330037 0.96054,-0.3151064 -0.1144,0.3604454 -0.047,0.8492884 0.14967,1.0863164 0.19671,0.237029 0.31661,0.626118 0.26643,0.8646438 -0.065,0.309154 0.41415,0.479627 1.66878,0.593683 2.16034,0.196396 2.31227,0.764563 0.24,0.897533 -1.17219,0.07522 -1.52233,0.221664 -1.53018,0.64 -0.009,0.50153 -0.0423,0.500207 -0.43528,-0.01753 -0.5331,-0.702283 -1.15454,-0.725254 -1.15454,-0.04268 0,0.513989 -0.36582,0.505295 -1.693,-0.04024 -0.44723,-0.183832 -0.65577,-0.01621 -0.95015,0.763695 -0.41723,1.105361 -1.19685,1.351659 -1.19685,0.378107 z m -12.15359,0.453382 c 0.47645,-0.574085 0.42745,-0.636578 -0.71361,-0.910134 -0.65852,-0.157872 -0.94457,-0.06332 -1.18874,0.392909 -0.17685,0.330445 -0.23061,0.691742 -0.11947,0.802883 0.37842,0.378418 1.61578,0.203594 2.02182,-0.285658 z m 0.88238,-2.570412 c 0.99615,-0.69773 0.89017,-0.997055 -0.44149,-1.2468758 -1.32337,-0.248264 -1.25156,-0.288906 -1.52839,0.8650208 -0.18372,0.765828 -0.11576,0.88 0.52379,0.88 0.40419,0 1.05493,-0.224165 1.44609,-0.498145 z"
     id="path74"
     inkscape:connector-curvature="0" />
</svg>
