<?xml version="1.0" encoding="UTF-8" standalone="no"?>
<!-- Created with Inkscape (http://www.inkscape.org/) -->

<svg
   xmlns:dc="http://purl.org/dc/elements/1.1/"
   xmlns:cc="http://creativecommons.org/ns#"
   xmlns:rdf="http://www.w3.org/1999/02/22-rdf-syntax-ns#"
   xmlns:svg="http://www.w3.org/2000/svg"
   xmlns="http://www.w3.org/2000/svg"
   xmlns:sodipodi="http://sodipodi.sourceforge.net/DTD/sodipodi-0.dtd"
   xmlns:inkscape="http://www.inkscape.org/namespaces/inkscape"
   version="1.1"
   id="svg490"
   width="153.60001"
   height="126.08"
   viewBox="0 0 153.60001 126.08"
   sodipodi:docname="thesis.svg"
   inkscape:version="0.92.4 5da689c313, 2019-01-14"
   inkscape:export-filename="/home/olive/thesis16.png"
   inkscape:export-xdpi="10"
   inkscape:export-ydpi="10">
  <metadata
     id="metadata496">
    <rdf:RDF>
      <cc:Work
         rdf:about="">
        <dc:format>image/svg+xml</dc:format>
        <dc:type
           rdf:resource="http://purl.org/dc/dcmitype/StillImage" />
        <dc:title></dc:title>
      </cc:Work>
    </rdf:RDF>
  </metadata>
  <defs
     id="defs494" />
  <sodipodi:namedview
     pagecolor="#ffffff"
     bordercolor="#666666"
     borderopacity="1"
     objecttolerance="10"
     gridtolerance="10"
     guidetolerance="10"
     inkscape:pageopacity="0"
     inkscape:pageshadow="2"
     inkscape:window-width="3200"
     inkscape:window-height="1745"
     id="namedview492"
     showgrid="false"
     inkscape:zoom="2.9715977"
     inkscape:cx="76.800003"
     inkscape:cy="63.040001"
     inkscape:window-x="0"
     inkscape:window-y="55"
     inkscape:window-maximized="1"
     inkscape:current-layer="svg490" />
  <path
     style="fill:#000000;stroke-width:0.32000002"
     d="m 72.479861,118.39914 c -0.119021,-0.70447 -0.283882,-1.67647 -0.366359,-2.16 -0.08248,-0.48352 -0.204483,-1.31114 -0.271123,-1.83914 -0.320278,-2.53764 -0.403325,-2.60774 -2.111555,-1.78241 -0.754068,0.36433 -1.603184,0.66241 -1.886925,0.66241 -0.283741,0 -0.652695,0.13574 -0.819895,0.30165 -0.1672,0.16591 -0.952,0.44933 -1.744,0.62983 -3.037024,0.69215 -2.556861,-1.17557 1.703408,-6.62584 0.866,-1.10789 1.521005,-2.06646 1.455568,-2.13014 -0.06544,-0.0637 -2.103305,0.0822 -4.528595,0.32426 -2.451703,0.24467 -9.626903,0.49835 -16.160001,0.57136 -6.462711,0.0722 -11.99075,0.2317 -12.284529,0.35441 -0.300019,0.12531 -0.861072,0.009 -1.28,-0.26504 -0.410221,-0.26848 -1.345222,-0.58381 -2.077786,-0.70073 -0.866534,-0.1383 -1.718213,-0.57693 -2.437425,-1.25531 -0.608021,-0.5735 -1.269926,-1.09754 -1.470902,-1.16454 -0.375322,-0.1251 -1.841853,-3.686435 -2.98504,-7.24888 -0.865022,-2.695616 -0.607956,-4.496441 0.849981,-5.954377 0.584271,-0.584272 1.216474,-1.350368 1.404894,-1.702432 0.314553,-0.587751 0.625178,-0.633539 3.796504,-0.559661 3.055678,0.07118 7.35997,-0.228461 9.693922,-0.674845 0.44,-0.08415 4.168941,-0.226461 8.286535,-0.316237 4.117597,-0.08978 7.588237,-0.226083 7.712535,-0.302902 1.064963,-0.658186 15.191946,-1.02544 24.676289,-0.641504 4.68376,0.189603 5.338477,0.154912 5.509956,-0.291949 0.239692,-0.624627 0.980537,-0.655558 1.570525,-0.06557 0.470531,0.470534 25.102787,0.513635 33.844167,0.05922 4.52634,-0.235299 4.20624,-0.357027 6.49831,2.471184 2.60772,3.217706 2.88395,4.000627 3.03947,8.614797 0.13707,4.066756 0.13707,4.066756 -0.86036,5.423046 -0.54858,0.74595 -0.99742,1.53245 -0.99742,1.74777 0,0.55253 -3.64247,0.88893 -7.00068,0.64655 -1.51763,-0.10954 -4.91932,-0.34196 -7.55932,-0.51649 -2.64,-0.17453 -5.592,-0.38961 -6.56,-0.47795 -5.49601,-0.50158 -18.880004,-0.94703 -18.880004,-0.62836 0,0.10208 1.116,1.39933 2.48,2.88278 2.955101,3.21389 5.382925,7.4959 4.250042,7.4959 -0.170474,0 -0.232659,0.20143 -0.138182,0.44763 0.485788,1.26595 -2.82161,0.55274 -5.361258,-1.1561 -1.290705,-0.86847 -1.340545,-0.7735 -1.117415,2.12934 0.145946,1.89867 0.09776,2.76876 -0.162234,2.92944 -0.227961,0.14089 -0.283116,0.0883 -0.143776,-0.1372 0.147066,-0.23796 0.04966,-0.29809 -0.278726,-0.17207 -0.394579,0.15141 -0.423184,0.29203 -0.131018,0.64406 0.205572,0.2477 0.268852,0.55489 0.140621,0.68263 -0.219977,0.21915 -0.466803,-0.0389 -2.191072,-2.29119 -0.916147,-1.19666 -2.491379,-3.07277 -3.126413,-3.72357 -0.274685,-0.28151 -0.707917,-0.79109 -0.962739,-1.1324 -0.254823,-0.34131 -0.894077,-0.84395 -1.42057,-1.11697 -0.665865,-0.3453 -0.929155,-0.6966 -0.864928,-1.15406 0.09522,-0.67826 -1.798349,-1.9268 -2.204211,-1.45337 -0.281395,0.32826 -1.297284,2.99951 -1.423789,3.74383 -0.192915,1.13505 -1.326736,4.76294 -1.896714,6.06892 -1.075766,2.46489 -2.852394,2.91364 -3.207763,0.81022 z M 34.573839,104 c 0.935607,0 1.361568,-2.16855 1.194272,-6.08 -0.234627,-5.485635 -1.887946,-7.880909 -5.335827,-7.730368 -2.927478,0.127818 -3.91038,2.474701 -2.710669,6.472288 0.488239,1.626877 0.541133,1.686896 0.826717,0.93808 0.918678,-2.408816 1.989364,-3.182579 3.562172,-2.574307 1.380218,0.533789 3.089498,2.546259 3.089498,3.63751 0,0.982445 -2.028381,2.776797 -3.13896,2.776797 -0.96296,0 -0.96296,0 -0.358455,1.25118 0.625514,1.29467 1.111127,1.67488 1.843588,1.44347 C 33.780569,104.06059 34.24302,104 34.573839,104 Z m 27.751781,-0.0222 c 1.008912,-0.16875 3.119184,-0.39318 4.689495,-0.49873 1.892851,-0.12723 3.212378,-0.39257 3.915158,-0.7873 0.583028,-0.32747 1.257648,-0.51957 1.499156,-0.42689 0.273593,0.10499 0.589942,-0.19564 0.83927,-0.79758 0.22009,-0.53134 0.616816,-1.14588 0.881616,-1.36565 1.182212,-0.981144 2.732682,-5.91699 2.494663,-7.941643 -0.177037,-1.50592 -0.82217,-3.492858 -1.212394,-3.734029 -0.913213,-0.564397 -11.591313,-0.411776 -17.51258,0.250307 -3.256,0.364067 -7.792001,0.653706 -10.080001,0.643642 -3.446544,-0.01517 -11.248519,0.708736 -11.623597,1.078483 -0.05698,0.05617 0.104998,0.511504 0.359945,1.011859 1.256477,2.465946 2.142442,9.619051 1.480067,11.949741 -0.10784,0.37945 0.299293,0.51746 1.943585,0.65883 3.608963,0.31028 20.409831,0.2794 22.325617,-0.041 z m 67.0163,-2.77201 c 0.99881,-0.99881 1.00473,-1.02456 1.03133,-4.488343 0.0299,-3.888816 -0.24211,-4.568119 -2.8984,-7.23913 l -1.23484,-1.241683 -16.16,0.04217 c -8.888,0.0232 -16.736004,0.105456 -17.440004,0.182803 -0.704,0.07734 -1.733539,0.149123 -2.287866,0.159514 -1.007862,0.01888 -1.007862,0.01888 -1.129197,4.098886 -0.108108,3.63537 -0.214672,4.270458 -0.977811,5.827658 -0.471062,0.961212 -0.778576,1.825215 -0.683363,1.920005 0.162042,0.16132 1.833171,0.21167 10.454999,0.31499 1.901219,0.0228 5.789222,0.26598 8.640002,0.54045 2.85078,0.27446 7.05524,0.56998 9.34324,0.65671 2.288,0.0867 4.232,0.23154 4.32,0.32181 0.088,0.0903 1.9279,0.10665 4.08867,0.0364 3.90687,-0.12698 3.93424,-0.13326 4.93324,-1.13226 z M 32.457525,98.663184 c 0.241588,-0.629574 -0.555779,-1.558003 -1.066815,-1.242166 -0.192889,0.119216 -0.350708,0.568256 -0.350708,0.997868 0,0.92112 1.085981,1.108285 1.417523,0.244301 z M 133.87224,94.818387 c -0.82845,-0.161958 -0.99129,-0.87928 -1.25723,-5.53839 -0.13075,-2.290541 -0.32696,-3.436653 -0.61646,-3.600826 -0.23356,-0.132451 -0.8904,-0.996451 -1.45964,-1.92 -1.49124,-2.41943 -1.28404,-4.960467 0.65362,-8.015843 0.81844,-1.290544 0.94548,-1.760237 0.82094,-3.035078 -0.081,-0.82954 -0.23077,-2.516253 -0.33274,-3.748253 -0.2457,-2.968775 -0.37168,-3.884506 -0.7704,-5.6 -0.18407,-0.792 -0.35523,-2.52 -0.38036,-3.84 -0.0786,-4.129047 -0.23334,-4.434163 -1.56996,-3.095463 -0.616,0.616964 -1.85655,1.491642 -2.75678,1.943735 -0.90022,0.452093 -1.83447,1.060198 -2.0761,1.351347 -0.61815,0.744819 -0.60638,9.478496 0.0146,10.840381 0.88753,1.946432 1.51122,4 1.21486,4 -0.16778,0 -0.22394,0.211389 -0.1248,0.46975 0.0992,0.258365 0.0589,0.544775 -0.0895,0.636467 -0.14836,0.09169 -0.36159,0.656292 -0.47384,1.254666 -0.27008,1.439613 -1.07669,1.706566 -5.35412,1.772 -1.87311,0.02864 -3.88911,0.196266 -4.48,0.372474 -3.38603,1.009744 -8.95166,1.298883 -27.474338,1.427312 -10.296001,0.07139 -23.040002,0.241744 -28.320002,0.378563 -17.784517,0.460854 -20.830645,0.339693 -22.087554,-0.878551 -0.645289,-0.62544 -1.263024,-0.963372 -1.555718,-0.851056 -1.596624,0.612682 -2.213485,-2.99615 -2.177943,-12.741625 0.0058,-1.584 0.15153,-3.496099 0.323892,-4.249111 0.354809,-1.55008 0.213267,-1.786572 -1.774192,-2.964368 -2.034243,-1.205523 -3.736686,-2.35695 -4.408487,-2.981632 -0.352,-0.327308 -1.36,-1.133564 -2.24,-1.791676 -2.41293,-1.804512 -4.000017,-3.696487 -4.000017,-4.768426 0,-0.98433 2.15042,-2.945024 6.880001,-6.272995 1.232,-0.866899 3.176,-2.315856 4.32,-3.219907 1.144,-0.904052 2.728,-2.062714 3.52,-2.57481 0.792,-0.512096 1.512,-1.020742 1.6,-1.130326 0.671204,-0.835831 17.587854,-11.546583 22.423973,-14.197703 1.333184,-0.730841 3.061184,-1.764642 3.84,-2.297335 2.836913,-1.940388 7.83993,-5.153335 8.77603,-5.635983 0.528,-0.272234 2.098355,-1.480641 3.489677,-2.685348 C 81.036216,7.2434086 83.115503,6.0626346 84.018034,7.0599219 84.326674,7.4009648 84.712476,7.68 84.875372,7.68 c 0.437018,0 3.412176,2.0584666 4.884634,3.379602 0.704,0.631651 1.919293,1.677643 2.700653,2.324427 0.78136,0.646784 1.93336,1.657175 2.56,2.245314 1.11584,1.04728 4.277434,3.250657 4.664323,3.250657 0.107645,0 1.590558,0.98631 3.295368,2.191799 1.70481,1.20549 4.68366,3.179721 6.61966,4.387181 6.21302,3.874989 11.35045,7.43813 13.12,9.099583 1.302,1.222461 3.45951,2.870045 9.01124,6.881437 6.77651,4.896349 7.8411,6.351293 5.9492,8.130573 -1.68555,1.585219 -1.90819,2.219705 -2.25599,6.429427 -0.62161,7.523862 -0.45467,12.075059 0.61375,16.732275 0.31738,1.383459 0.5008,1.60792 1.88857,2.311159 3.4814,1.764156 4.57474,6.842044 2.10514,9.777004 -0.73789,0.876928 -0.87446,3.64073 -0.20455,4.139562 0.19823,0.147606 1.12826,3.035917 1.51984,4.72 0.15255,0.656083 0.0519,0.72 -1.13399,0.72 -0.81659,0 -1.4002,-0.176528 -1.56659,-0.473856 -0.33081,-0.591117 -2.32662,-1.042451 -2.32662,-0.526144 0,0.425958 -1.17422,1.65921 -1.52,1.596422 -0.132,-0.02397 -0.5495,-0.104083 -0.92777,-0.178032 z M 42.720003,61.133616 c 1.232,-0.157642 3.248,-0.37768 4.48,-0.488976 1.232,-0.111296 2.96,-0.398826 3.84,-0.638954 2.25145,-0.614361 7.967607,-1.124825 12.404292,-1.107728 2.070362,0.008 3.930682,-0.08833 4.134049,-0.214012 0.203366,-0.125687 2.469433,-0.259741 5.035709,-0.297895 2.566272,-0.03816 5.817952,-0.188553 7.225952,-0.334221 6.682097,-0.691296 28.677975,0.771767 32.190805,2.141184 1.20699,0.470522 2.47622,0.03766 3.03008,-1.033398 1.05742,-2.044829 -0.25788,-2.61871 -8.98088,-3.918451 -12.886964,-1.920176 -27.76717,-2.536583 -39.719078,-1.645344 -3.171485,0.236496 -15.556535,2.065091 -16.600929,2.451053 -0.528,0.195123 -1.608,0.468179 -2.4,0.606784 -6.862567,1.201014 -9.192026,1.94463 -9.32874,2.977952 -0.136297,1.030156 -0.143081,1.348832 -0.03339,1.56839 0.157075,0.31441 1.942311,0.289312 4.722132,-0.06638 z"
     id="path500"
     inkscape:connector-curvature="0" />
</svg>
