<?xml version="1.0" encoding="UTF-8" standalone="no"?>
<!-- Created with Inkscape (http://www.inkscape.org/) -->

<svg
   xmlns:dc="http://purl.org/dc/elements/1.1/"
   xmlns:cc="http://creativecommons.org/ns#"
   xmlns:rdf="http://www.w3.org/1999/02/22-rdf-syntax-ns#"
   xmlns:svg="http://www.w3.org/2000/svg"
   xmlns="http://www.w3.org/2000/svg"
   xmlns:sodipodi="http://sodipodi.sourceforge.net/DTD/sodipodi-0.dtd"
   xmlns:inkscape="http://www.inkscape.org/namespaces/inkscape"
   version="1.1"
   id="svg173"
   width="113.92"
   height="119.04"
   viewBox="0 0 113.92 119.04"
   sodipodi:docname="movie.svg"
   inkscape:version="0.92.4 5da689c313, 2019-01-14">
  <metadata
     id="metadata179">
    <rdf:RDF>
      <cc:Work
         rdf:about="">
        <dc:format>image/svg+xml</dc:format>
        <dc:type
           rdf:resource="http://purl.org/dc/dcmitype/StillImage" />
        <dc:title></dc:title>
      </cc:Work>
    </rdf:RDF>
  </metadata>
  <defs
     id="defs177" />
  <sodipodi:namedview
     pagecolor="#ffffff"
     bordercolor="#666666"
     borderopacity="1"
     objecttolerance="10"
     gridtolerance="10"
     guidetolerance="10"
     inkscape:pageopacity="0"
     inkscape:pageshadow="2"
     inkscape:window-width="3200"
     inkscape:window-height="1734"
     id="namedview175"
     showgrid="false"
     inkscape:zoom="10.635081"
     inkscape:cx="56.959999"
     inkscape:cy="59.52"
     inkscape:window-x="0"
     inkscape:window-y="66"
     inkscape:window-maximized="1"
     inkscape:current-layer="svg173" />
  <path
     style="fill:#000000;stroke-width:0.31999999"
     d="m 59.76,114.38121 c -0.428589,-0.44266 -0.254922,-9.33537 0.242704,-12.42783 0.265488,-1.64985 0.46097,-3.484295 0.434403,-4.076551 -0.02656,-0.592256 0.04946,-1.580829 0.168938,-2.196829 0.183629,-0.946723 0.11247,-0.872464 -0.459949,0.48 -0.372454,0.88 -1.76265,3.832 -3.089328,6.56 -5.847066,12.02311 -5.245562,11.17925 -7.858211,11.0244 -7.367498,-0.43668 -7.831101,-0.70986 -6.102304,-3.59577 0.497062,-0.82974 1.366982,-2.48972 1.933158,-3.68883 0.566176,-1.1991 2.014864,-3.5031 3.219309,-5.12 1.204448,-1.616888 2.658038,-3.764757 3.230208,-4.773038 0.572166,-1.008282 1.175197,-1.916605 1.340067,-2.0185 0.164867,-0.101894 0.654669,-0.932937 1.088448,-1.846764 0.433776,-0.913824 1.226058,-2.138384 1.760621,-2.721248 C 57.04728,88.476422 56.946602,88 55.249597,88 53.488749,88 52.841542,87.325363 52.593539,85.231366 l -0.186701,-1.576409 -6.76342,0.0081 c -6.885156,0.0082 -11.815111,-0.452883 -13.826176,-1.293159 -1.07301,-0.448332 -1.207682,-0.747395 -1.49094,-3.310902 -0.07517,-0.680307 -0.370403,-0.85255 -2.289228,-1.335562 -2.202926,-0.554528 -2.202926,-0.554528 -4.96,1.126986 -8.411736,5.130246 -11.407245,6.349107 -14.2794954,5.810269 -1.839424,-0.345079 -2.1365847,-1.149885 -2.1607197,-5.85192 -0.037313,-7.26952 0.6838083,-31.217952 0.9474051,-31.46329 0.8354752,-0.777609 2.2906243,-0.647977 3.249642,0.289491 1.211643,1.18442 3.278375,2.610992 5.166094,3.565924 0.792,0.400646 2.594252,1.487219 4.005005,2.414608 2.117495,1.39198 4.312754,2.161107 4.314769,1.511712 4.8e-4,-0.15681 -4.885001,-4.742378 -5.309006,-4.983085 -0.247923,-0.140746 -0.451371,-0.500746 -0.452107,-0.8 -7.36e-4,-0.299255 -0.364871,-1.260669 -0.809188,-2.13648 -4.679872,-9.224705 -4.315148,-20.24244 0.943038,-28.487649 0.673439,-1.056 1.403442,-2.208 1.62223,-2.56 0.786812,-1.265873 4.188317,-4.500011 5.285259,-5.025205 7.100147,-3.3994075 8.751901,-3.88618 14.24,-4.1965403 7.235824,-0.4091961 13.831702,2.3932147 19.837264,8.4283183 1.406496,1.413413 2.606496,2.422149 2.666666,2.241635 0.409747,-1.229242 1.775081,0.272084 1.71198,1.882497 -0.032,0.816332 0.321524,1.979055 1.068141,3.513183 0.613773,1.261167 1.115949,2.47289 1.115949,2.692718 0,0.219829 0.419926,1.256049 0.933171,2.302711 0.557904,1.137741 0.839962,2.099601 0.701392,2.391853 -0.127475,0.268856 -0.151401,0.99283 -0.05317,1.60883 0.250707,1.572138 2.546439,1.938822 2.625248,0.419318 0.02566,-0.494626 0.08856,-1.7492 0.139792,-2.787945 0.05124,-1.038745 0.226839,-1.974745 0.390231,-2.08 C 71.140058,27.446118 71.385296,27 71.521638,26.56 c 0.311178,-1.004202 4.968794,-5.551602 6.763293,-6.603249 6.011802,-3.52315 15.785104,-2.249572 20.862183,2.71859 3.805176,3.723541 5.655456,8.001088 5.397146,12.477321 -0.27494,4.76449 -1.68127,7.840295 -5.232762,11.444621 -2.167527,2.199776 -2.581725,3.311405 -0.505623,1.357005 3.430975,-3.229853 3.759145,-3.468752 4.768695,-3.471514 1.3128,-0.0036 1.36985,0.292516 1.35588,7.037226 -0.009,4.565862 0.31138,8.121581 0.80485,8.920029 0.7429,1.202045 -2.30783,1.595987 -5.7353,0.740598 -1.408,-0.351392 -2.605338,-0.595446 -2.660752,-0.542342 -0.246189,0.235929 -0.125178,10.902358 0.15976,14.081715 0.373376,4.166192 0.392122,4.129702 -2.454278,4.777104 -1.205133,0.274099 -2.594064,0.651555 -3.086519,0.838784 C 89.988982,81.084589 79.081642,82.88 76.502432,82.88 c -0.946618,0 -1.479869,0.808934 -1.687549,2.56 -0.08155,0.687622 -0.274688,0.81153 -1.374883,0.882086 -1.970285,0.126359 -3.36,0.402029 -3.36,0.666512 0,0.13178 1.008,1.296736 2.24,2.588794 1.232,1.292061 2.24,2.371187 2.24,2.398061 0,0.02688 0.739792,0.835392 1.643981,1.796707 1.575942,1.675504 5.396019,6.50545 5.396019,6.82251 0,0.38117 3.05671,5.27628 3.886835,6.22449 0.509991,0.58254 0.837978,1.20361 0.728861,1.38016 -0.109114,0.17656 0.03645,0.5805 0.323475,0.89767 0.488807,0.54012 0.465453,0.59711 -0.368653,0.89954 -0.489785,0.17759 -2.261321,0.84503 -3.936748,1.48318 -4.45856,1.69824 -4.425879,1.71305 -6.922196,-3.13708 -0.821676,-1.59645 -2.358928,-4.40844 -3.416115,-6.24888 -1.057187,-1.84044 -2.10959,-3.707532 -2.338672,-4.149088 -0.355241,-0.684726 -0.418272,0.137072 -0.428477,5.586258 -0.01642,8.76531 -0.400867,10.14424 -2.905968,10.42287 -5.329606,0.59277 -6.243712,0.65323 -6.462342,0.42742 z m 6.289552,-3.03934 C 66.419882,110.99275 66.623248,99.926077 66.30208,97.6 l -0.243008,-1.76 -0.789536,1.292122 c -0.434243,0.710668 -0.97135,1.574668 -1.193571,1.92 -1.675664,2.604008 -2.272416,6.000148 -1.848749,10.521308 l 0.23225,2.47845 1.650268,-0.21852 c 0.907645,-0.12019 1.780564,-0.34136 1.939818,-0.49149 z M 53.64383,104.95176 c 2.398301,-4.70009 3.34264,-6.983322 1.718263,-4.15443 -0.799559,1.39246 -0.666067,-1.437429 0.169693,-3.59733 0.12118,-0.313178 0.07006,-0.56 -0.115984,-0.56 -0.18297,0 -0.415082,0.259645 -0.515802,0.576992 -0.100723,0.317344 -0.692198,1.073344 -1.314394,1.68 -1.790329,1.745618 -4.606188,5.646478 -5.976774,8.279738 -0.691885,1.3293 -1.413613,2.60444 -1.60384,2.83365 -0.499277,0.60159 -0.0038,0.94782 1.835008,1.28221 2.295818,0.41749 2.430189,0.27069 5.80383,-6.34083 z m 29.19032,3.67921 c 0.06278,-0.0619 -0.334044,-0.58924 -0.881833,-1.17179 -0.547792,-0.58255 -1.575386,-2.1693 -2.283546,-3.5261 -0.708157,-1.35681 -1.433168,-2.55691 -1.611133,-2.6669 -0.177964,-0.10999 -0.660931,-0.72787 -1.073264,-1.373079 -1.817955,-2.844701 -3.480067,-3.915213 -3.980108,-2.563469 -0.328128,0.887014 0.117308,2.05512 1.655072,4.340218 0.609158,0.90521 1.938307,3.1455 2.953667,4.97842 l 1.846105,3.33258 1.630445,-0.61863 c 0.896746,-0.34026 1.681811,-0.66931 1.744595,-0.73125 z M 58.555101,95.101114 C 58.550877,94.634787 58.507328,94.626339 58.24,95.04 c -0.404992,0.626678 -0.404992,1.050298 0,0.8 0.176,-0.108774 0.317795,-0.441274 0.315101,-0.738886 z M 64.16,94.72 c 0.154621,-0.533334 0.125267,-0.693334 -0.08807,-0.48 -0.176,0.176 -0.424371,0.68 -0.551933,1.12 -0.154621,0.533334 -0.125267,0.693334 0.08807,0.48 0.176,-0.176 0.424371,-0.68 0.551933,-1.12 z m 1.752883,-3.28 c 0.01552,-0.523846 -0.321689,-0.188272 -0.803926,0.8 -0.507482,1.04 -0.507482,1.04 0.144665,0.24 0.358682,-0.44 0.655348,-0.908 0.659261,-1.04 z M 61.12,88 c 0,-0.176 -0.152499,-0.32 -0.338886,-0.32 -0.186388,0 -0.249888,0.144 -0.141114,0.32 0.108774,0.176 0.261274,0.32 0.338886,0.32 C 61.056499,88.32 61.12,88.176 61.12,88 Z m 7.336954,-3.03799 c 1.156675,-0.252858 2.533814,-0.500749 3.06031,-0.550874 0.611162,-0.05819 0.995661,-0.293606 1.063462,-0.651136 0.0989,-0.521491 -0.451062,-0.559664 -7.997264,-0.555101 -9.229683,0.0056 -9.070464,-0.03082 -8.941376,2.044723 0.04599,0.739415 9.040192,0.537556 12.814868,-0.287612 z M 14.484277,81.264534 c 1.097648,-0.519673 2.376212,-1.196787 2.841254,-1.504697 0.465042,-0.307911 1.636891,-1.029165 2.604109,-1.602787 2.216111,-1.314298 2.219235,-1.331533 2.106257,-11.625034 -0.08451,-7.700019 -0.08451,-7.700019 -1.060205,-8.390723 -0.536631,-0.379888 -1.41289,-1.125088 -1.947244,-1.656 -0.534354,-0.530912 -1.902354,-1.456371 -3.04,-2.056576 C 14.850802,53.828512 13.344,52.953018 12.64,52.483174 c -2.091351,-1.395747 -2.08,-1.392848 -2.08,-0.531443 0,0.589405 0.367527,1.019981 1.450124,1.698887 1.250875,0.784432 2.12411,2.081814 1.692034,2.513891 -0.07409,0.07409 -0.654706,-0.0249 -1.290264,-0.219949 -0.635558,-0.195056 -1.384235,-0.266899 -1.663727,-0.159648 -0.7677564,0.294614 -0.62984,1.649942 0.211833,2.081706 4.000854,2.052377 4.640106,3.878169 0.967686,2.763852 -1.988381,-0.603331 -1.89595,-0.63055 -1.9339545,0.56953 -0.071972,2.272653 0.022048,2.368378 2.5329155,2.57888 2.17867,0.182653 2.963702,0.569254 2.723272,1.34112 -0.05482,0.176 -1.240482,0.464 -2.634798,0.64 -2.526675,0.318934 -2.535445,0.323331 -2.6324336,1.320288 -0.097313,1.000285 -0.097313,1.000285 1.8332656,1.13993 2.143998,0.155084 2.158055,0.161472 2.313625,1.051552 0.09543,0.545987 -0.158135,0.676339 -1.867409,0.96 C 9.9270698,70.61929 9.8340352,70.691718 9.7921952,72.154662 9.76056,73.260822 10.009899,73.591197 10.4,72.96 c 0.108774,-0.176 0.341771,-0.32 0.517771,-0.32 0.176,0 0.218024,0.165002 0.09338,0.366669 -0.160675,0.259977 0.03201,0.30176 0.662186,0.143597 2.488609,-0.624602 3.66227,0.894662 1.282287,1.659875 C 10.236119,75.684518 9.6,76.125238 9.6,77.135014 c 0,1.086391 0.1006998,1.10384 2.72,0.471386 2.81442,-0.679568 3.101287,-0.64439 2.981255,0.365571 -0.08583,0.722205 -0.393698,0.957261 -2.021255,1.543229 -2.677009,0.963798 -3.36,1.379027 -3.36,2.042726 0,1.314791 1.350904,1.227956 4.564277,-0.293392 z M 64.96,81.098154 c 12.84544,-0.197133 20.606762,-1.132919 28.046938,-3.381629 1.5304,-0.462547 1.826112,-1.536765 1.557008,-5.656119 -0.124877,-1.9116 -0.238807,-7.68431 -0.253172,-12.82824 -0.02611,-9.352598 -0.02611,-9.352598 -0.848448,-9.144364 -8.82288,2.234169 -17.754249,-1.08041 -20.967017,-7.781204 -0.48168,-1.00463 -1.071159,-2.196937 -1.309952,-2.649577 -0.238794,-0.452637 -0.436864,-1.100637 -0.440154,-1.44 C 70.726909,36.330618 70.336774,35.52 69.447181,35.52 c -0.880183,0 -0.880183,0 -1.108986,3.76 -0.251888,4.13929 -1.075241,6.184243 -4.131117,10.260406 -2.483283,3.312394 -9.388889,8.245495 -13.164131,9.403952 -7.062662,2.167226 -10.457267,2.568218 -14.224454,1.680279 -2.271027,-0.53529 -2.968656,-0.435277 -2.882128,0.413181 0.03152,0.3092 0.0241,0.634182 -0.01651,0.722182 -0.04062,0.088 -0.113117,1.08223 -0.161107,2.209402 -0.04799,1.127171 -0.176208,2.855171 -0.284935,3.84 -0.526201,4.766224 -0.555683,12.077475 -0.05039,12.496832 1.178096,0.977734 5.510643,1.283561 15.376586,1.085408 5.28,-0.106045 12.552,-0.238116 16.16,-0.293488 z M 30.426667,75.12 c 0.01467,-0.396 0.07549,-1.08 0.135159,-1.52 0.05967,-0.44 0.212972,-3.915533 0.34067,-7.723408 0.230362,-6.869293 0.226805,-6.926282 -0.455159,-7.291258 -0.582905,-0.311961 -0.689583,-0.281056 -0.702121,0.203408 -0.145791,5.633312 -0.312475,8.804119 -0.476793,9.069991 -0.111936,0.181117 -0.0296,0.538864 0.182971,0.794995 0.289269,0.34855 0.298135,0.68713 0.03524,1.345984 -0.193185,0.484157 -0.333645,1.318397 -0.312133,1.853862 0.02151,0.535466 -0.125952,1.282 -0.327697,1.658964 -0.20174,0.376963 -0.366804,0.972838 -0.366804,1.324169 0,0.58192 0.186683,0.688563 1.68,0.959715 C 30.292,75.82039 30.412,75.516 30.426667,75.12 Z m -0.802921,-0.13351 c -0.1126,-0.293431 -0.07401,-0.664231 0.08576,-0.824 C 29.883497,73.988502 30,74.20247 30,74.696 c 0,0.959277 -0.09228,1.030522 -0.376254,0.29049 z m -3.889678,-1.177386 c 0.435858,-2.9036 0.560166,-4.752592 0.70796,-10.530432 0.161696,-6.321328 0.161696,-6.321328 -0.565054,-6.210419 C 25.154238,57.17855 24.336814,58.88 25.00656,58.88 c 0.171166,0 0.197939,0.18 0.05949,0.4 -0.446448,0.709446 -0.325494,15.860195 0.125241,15.687837 0.215213,-0.0823 0.45946,-0.603725 0.542772,-1.158733 z M 102.3749,56.900013 C 102.25433,55.613005 102.19668,53.228 102.24678,51.6 c 0.0501,-1.628 -0.008,-2.96 -0.12867,-2.96 -0.12087,0 -1.16774,0.934109 -2.326385,2.075795 -2.213603,2.181213 -2.500327,2.845315 -2.508202,5.809459 -0.0038,1.427856 0.877283,2.049786 3.577947,2.525575 0.5715,0.100685 1.09955,0.243523 1.17344,0.317417 0.42137,0.421364 0.53405,-0.396726 0.33999,-2.468233 z m -56.16089,1.137869 c 4.585267,-1.196948 4.440707,-1.081463 4.291222,-3.428064 -0.107709,-1.690781 -0.358739,-2.35512 -1.772125,-4.689818 -2.875504,-4.749894 -5.796185,-6.655936 -8.89007,-5.801674 -3.113943,0.859802 -7.040787,8.46177 -5.908861,11.438957 0.192947,0.507495 0.340691,0.958717 0.32832,1.002717 -0.614646,2.185827 6.072013,3.012678 11.951514,1.477882 z M 30.766516,54.869066 c -0.254499,-2.953968 1.909622,-8.454797 4.207391,-10.694468 5.88968,-5.740761 15.795475,-0.554384 18.136215,9.495581 l 0.389001,1.670179 1.915127,-1.350179 c 2.133206,-1.503926 7.00256,-6.103683 7.554499,-7.13624 0.348909,-0.652729 0.306745,-0.663337 -2.106359,-0.529904 -4.575875,0.253021 -9.689603,-2.249558 -11.211184,-5.486582 -1.81239,-3.85569 -0.841168,-8.251837 2.443287,-11.0593 l 1.41,-1.205234 -1.33296,-0.178788 c -5.502035,-0.737977 -9.572675,-5.958367 -8.642227,-11.083213 0.418115,-2.30296 2.150172,-5.794092 3.260451,-6.571761 0.380397,-0.26644 0.619225,-0.55684 0.530733,-0.645333 -0.310599,-0.3106 -5.640442,-0.578496 -7.113741,-0.3575613 -1.489136,0.2233098 -1.489136,0.2233098 -0.715274,1.2435233 1.049779,1.383964 2.108704,4.664744 2.107703,6.53012 C 41.59713,21.316615 35.69168,27.84 32.24761,27.84 c -2.94871,0 -6.858985,-3.201534 -8.939367,-7.319099 l -1.158672,-2.293286 -1.642352,2.560281 c -1.704116,2.656566 -2.904984,6.301096 -3.39171,10.293543 l -0.219616,1.801438 1.712054,-0.473357 c 2.544121,-0.703411 7.184858,-0.707167 8.645729,-0.007 1.350117,0.647088 2.570234,1.99248 3.518903,3.880208 0.364094,0.724499 0.84082,1.53327 1.059392,1.79727 0.863517,1.042992 1.074759,2.403946 0.635792,4.096196 C 32.023107,43.890397 30.530646,46.72 30.071157,46.72 c -0.147416,0 -0.349387,0.252 -0.448824,0.56 -0.551839,1.709283 -3.242729,3.720976 -4.894217,3.658893 -1.028803,-0.03868 -1.040203,-0.02429 -0.560804,0.707357 0.8847,1.35022 6.062172,4.872348 6.543185,4.451193 0.08277,-0.07247 0.107982,-0.625241 0.05602,-1.228377 z m 4.857385,-16.651383 c -1.519274,-0.769235 -1.998631,-1.456109 -2.420784,-3.468739 -1.36055,-6.48646 9.18912,-9.75978 11.386112,-3.532846 0.250336,0.709529 0.540454,1.89987 0.644704,2.645198 0.344886,2.465722 -2.202845,4.411002 -5.873933,4.48495 -0.44,0.0089 -1.232,0.09932 -1.76,0.201012 -0.587382,0.113129 -1.354394,-0.01478 -1.976099,-0.329575 z m 2.910121,-1.695651 c 0.09449,-0.15288 0.714986,-0.371648 1.378887,-0.48615 2.138541,-0.368826 3.156489,-1.50185 2.70455,-3.010285 -0.916787,-3.059961 -2.370995,-3.62471 -4.906854,-1.905597 -1.472279,0.99809 -1.534435,1.102051 -1.542352,2.579805 -0.01149,2.142745 1.598617,4.063504 2.365769,2.822227 z M 25.943658,47.91961 c 1.74229,-1.522196 3.816658,-5.025252 3.811625,-6.436816 -0.0049,-1.360298 -0.147673,-1.698461 -1.705967,-4.039287 -2.178476,-3.272441 -2.687703,-3.619293 -5.009316,-3.412 -3.538944,0.315984 -6.08,1.314624 -6.08,2.389453 0,0.747363 1.521118,6.713965 1.972982,7.73904 0.193956,0.44 0.506075,1.16 0.693598,1.6 0.972936,2.282877 1.733927,2.880026 3.669705,2.87961 1.433093,-3.08e-4 2.000135,-0.154525 2.647373,-0.72 z M 85.558307,47.28 c 1.283696,-4.790093 -4.201926,-8.041062 -7.23119,-4.285453 -1.467443,1.819299 -0.117565,3.223421 4.232883,4.402983 2.701997,0.732611 2.771206,0.729897 2.998307,-0.11753 z M 93.12,47.241571 c 0.781536,-0.346473 0.926592,-0.500381 0.48,-0.509299 -0.352,-0.007 -1.54,-0.438547 -2.64,-0.958938 -2,-0.946156 -2,-0.946156 -2,-2.669414 0,-2.666301 1.014758,-4.297914 3.463597,-5.569059 l 1.974912,-1.025143 -1.449597,-0.997347 C 91.125485,34.257821 89.887597,32.409997 89.688752,30.645857 89.5348,29.28 89.5348,29.28 87.407402,29.269921 82.910541,29.248616 80.548182,27.69773 80.149274,24.504964 79.873942,22.301283 79.587034,22.369449 75.92,25.509779 74.420387,26.793998 74.243741,27.2 75.184595,27.2 c 0.890007,0 2.713296,1.998598 3.217763,3.527145 1.065101,3.227287 -0.735468,7.931034 -3.247129,8.482689 -0.499341,0.109673 -0.971392,0.302153 -1.049005,0.427737 -0.106934,0.173021 0.488768,1.772103 0.939901,2.523037 0.02662,0.04434 0.650793,-0.49241 1.387021,-1.192768 3.522899,-3.351251 9.261689,-2.381418 11.462464,1.937117 0.396617,0.778275 0.709296,1.559043 0.694841,1.735043 -0.01446,0.176 -0.0092,1.020989 0.01165,1.877754 0.03791,1.557753 0.03791,1.557753 1.717914,1.389043 0.924,-0.09279 2.184,-0.392141 2.8,-0.665226 z m -8.853469,-9.189446 c -4.456336,-1.304509 -3.282397,-8.206708 1.378029,-8.10215 2.373366,0.05325 4.894144,2.370537 4.910176,4.513804 0.0054,0.726314 -1.778256,2.652115 -2.458835,2.654739 -0.211255,9.6e-4 -0.499255,0.199959 -0.64,0.442538 -0.349607,0.602563 -1.960957,0.850666 -3.18937,0.491069 z M 86.692045,35.28 c 1.166269,-0.663792 1.190774,-0.816368 0.326166,-2.030602 -1.323795,-1.859096 -3.308278,-0.0862 -2.206953,1.971639 0.407328,0.761097 0.634627,0.768224 1.880787,0.05896 z m 11.716681,8.96 c 1.078884,-1.137536 2.083844,-3.071037 1.807204,-3.476982 -0.562839,-0.825901 -2.613581,-2.043306 -3.446135,-2.04576 -3.860409,-0.01139 -6.550717,4.687315 -3.269641,5.710524 2.933788,0.914906 3.897715,0.878029 4.908572,-0.187782 z m -35.11464,-0.620394 c 0.579748,-0.24198 1.192016,-0.35472 1.360599,-0.250531 C 65.675664,44.000077 66.18968,36.383862 65.2,35.289078 64.590899,34.61529 64.446637,33.6 64.96,33.6 c 0.366566,0 0.430195,-2.865426 0.0751,-3.382033 C 63.93039,28.610788 58.74809,28.48391 57.205722,30.02628 57.000173,30.231826 56.655085,30.4 56.438858,30.4 c -0.216231,0 -0.583431,0.18474 -0.816,0.410532 -0.232573,0.225792 -0.894119,0.74192 -1.470103,1.146949 -2.017997,1.419044 -2.947344,4.627025 -2.133936,7.366068 1.140762,3.84136 7.008375,6.077014 11.275267,4.296057 z M 101.69572,37.33728 c 0.54691,-1.512467 0.5114,-1.550698 -0.7494,-0.806806 -1.080771,0.63767 -1.10833,0.696912 -0.59041,1.269209 0.74127,0.819091 0.89568,0.765799 1.33981,-0.462403 z M 74.617926,36.4 C 76.420448,34.958701 75.96257,29.44 74.040464,29.44 73.4732,29.44 72.96,31.775536 72.96,34.357126 c 0,2.589456 0.383456,3.061943 1.657926,2.042874 z M 99.402467,33.893754 C 100.69158,33.097037 101.44,32.102733 101.44,31.186805 c 0,-1.189756 -2.394746,-4.777617 -3.244333,-4.860733 C 97.780051,26.285412 96.9,26.161657 96.24,26.051062 c -0.908874,-0.152298 -1.2,-0.09288 -1.2,0.244934 0,0.245308 -0.432,0.701204 -0.96,1.013101 -0.528,0.311898 -0.96,0.818145 -0.96,1.124995 0,0.306849 -0.142608,0.700515 -0.316906,0.874813 -0.20576,0.205762 -0.209644,0.690891 -0.01107,1.383262 0.919124,3.204799 4.10704,4.748777 6.610448,3.201587 z M 63.942838,26.020867 c -0.265731,-0.962391 -0.717148,-1.891071 -1.426556,-2.934768 -0.04258,-0.06265 -0.626164,0.446883 -1.296852,1.132287 -0.670684,0.685403 -1.57943,1.482152 -2.01943,1.770553 -0.793142,0.51987 -0.784915,0.524525 0.96,0.543096 1.366829,0.01455 3.608266,0.365734 4.054205,0.635209 0.02982,0.01802 -0.0923,-0.497854 -0.271367,-1.146377 z m 24.684797,0.705527 c 2.194704,-1.134926 2.739235,-2.827663 1.452365,-4.514838 -0.44,-0.57687 -0.8,-1.293811 -0.8,-1.593203 0,-0.541917 -0.556134,-0.550336 -5.069334,-0.07674 -0.292487,0.03069 -0.373312,0.325147 -0.253581,0.923809 0.112217,0.561093 0.0071,1.018687 -0.290666,1.265849 -1.102368,0.914882 -0.0639,3.7108 1.558794,4.19683 1.207613,0.361705 2.456022,0.287694 3.402422,-0.201708 z M 54.327587,25.747075 c 1.381536,-0.125487 3.681747,-1.499567 5.41984,-3.237662 1.401575,-1.401572 1.401575,-1.401572 0.827072,-2.416041 C 59.297136,17.837766 53.7452,12.8 52.536739,12.8 c -0.164105,0 -0.480336,-0.219251 -0.702736,-0.487225 -0.514224,-0.619601 -1.463792,-0.348211 -2.670275,0.763175 -3.346762,3.082959 -3.80697,8.224265 -0.966467,10.79704 1.774307,1.607073 3.327469,2.390929 4.282739,2.161432 0.44,-0.105706 1.271414,-0.235012 1.847587,-0.287347 z M 35.074947,24.241249 C 39.097373,20.74905 39.989574,17.682486 38.089478,13.880062 36.112096,9.9229706 34.57847,9.5128678 31.045173,11.996364 30.20516,12.586796 29.392354,12.949783 29.238938,12.803003 28.863256,12.44357 26.50406,13.59763 25.56018,14.60256 c -1.556625,1.657308 -0.204941,6.4941 2.408095,8.616988 3.555632,2.888674 4.757251,3.061426 7.106672,1.021701 z M 93.936,24.021384 c 0.1672,-0.164238 0.88,-0.349667 1.584,-0.412064 1.28,-0.113449 1.28,-0.113449 0.358205,-0.509355 -0.506986,-0.217747 -1.343277,-0.696027 -1.858423,-1.062844 -1.125369,-0.801334 -1.351923,-0.666344 -0.895673,0.533682 0.188105,0.494761 0.268653,1.090731 0.178995,1.324381 -0.188003,0.489926 0.186573,0.564618 0.632896,0.1262 z"
     id="path183"
     inkscape:connector-curvature="0"
     sodipodi:nodetypes="cscccsccccccccssccscssssccssccsssssssccsscccccccssssscccscsccsccscscsccccccscscccscccscccsccscccccscccccccscccccccscscsccccsssssccccccscsscsscscccccssscssscssssccsssccsscssscsccscsssccssssccccssscccccsccccsccssscccccsscccccssssccscsscscssccssscsscsscsscscsscssccscccssscscccssccscssscssssscscccsccsssssssccccscssccccccccccsccsccssccssscscsscccccsssscsssscsccccsccsccscsscscsccsccscsscsssscssscscsccc" />
</svg>
