<?xml version="1.0" encoding="UTF-8" standalone="no"?>
<!-- Created with Inkscape (http://www.inkscape.org/) -->

<svg
   xmlns:dc="http://purl.org/dc/elements/1.1/"
   xmlns:cc="http://creativecommons.org/ns#"
   xmlns:rdf="http://www.w3.org/1999/02/22-rdf-syntax-ns#"
   xmlns:svg="http://www.w3.org/2000/svg"
   xmlns="http://www.w3.org/2000/svg"
   xmlns:sodipodi="http://sodipodi.sourceforge.net/DTD/sodipodi-0.dtd"
   xmlns:inkscape="http://www.inkscape.org/namespaces/inkscape"
   width="210mm"
   height="297mm"
   viewBox="0 0 210 297"
   version="1.1"
   id="svg8"
   inkscape:version="0.92.4 5da689c313, 2019-01-14"
   sodipodi:docname="bookmark.svg"
   inkscape:export-filename="/home/olive/image256.png"
   inkscape:export-xdpi="21.893602"
   inkscape:export-ydpi="21.893602">
  <defs
     id="defs2" />
  <sodipodi:namedview
     id="base"
     pagecolor="#ffffff"
     bordercolor="#666666"
     borderopacity="1.0"
     inkscape:pageopacity="0.0"
     inkscape:pageshadow="2"
     inkscape:zoom="1.4"
     inkscape:cx="377.14288"
     inkscape:cy="560"
     inkscape:document-units="mm"
     inkscape:current-layer="layer1"
     showgrid="false"
     inkscape:window-width="3200"
     inkscape:window-height="1745"
     inkscape:window-x="0"
     inkscape:window-y="55"
     inkscape:window-maximized="1" />
  <metadata
     id="metadata5">
    <rdf:RDF>
      <cc:Work
         rdf:about="">
        <dc:format>image/svg+xml</dc:format>
        <dc:type
           rdf:resource="http://purl.org/dc/dcmitype/StillImage" />
        <dc:title />
      </cc:Work>
    </rdf:RDF>
  </metadata>
  <g
     inkscape:label="Calque 1"
     inkscape:groupmode="layer"
     id="layer1">
    <path
       style="fill:#000000;stroke-width:0.50631088"
       d="m 176.63305,252.79689 c -0.83619,-0.30559 -2.91241,-2.46422 -5.19613,-5.40286 -4.80904,-6.18817 -4.27061,-5.48455 -6.45785,-8.4384 -1.03098,-1.3924 -2.05456,-2.75942 -2.27458,-3.03787 -1.06016,-1.34168 -7.91608,-11.36369 -13.90306,-20.32345 -5.91858,-8.85732 -11.92142,-16.38411 -13.06692,-16.38411 -0.34265,0 -1.89458,1.76584 -6.37842,7.25702 -0.41681,0.51068 -1.59428,2.10533 -2.61658,3.54412 -1.02228,1.43887 -2.1385,2.90818 -2.48046,3.26512 -0.34206,0.35702 -2.3965,3.17666 -4.56566,6.26589 -2.16913,3.0893 -5.53876,7.61094 -7.48808,10.04804 -1.94933,2.4371 -4.22773,5.30886 -5.06313,6.38169 -0.83542,1.07281 -2.65814,3.3222 -4.05046,4.99858 -1.39241,1.67647 -3.208184,3.9594 -4.035165,5.0733 -2.48568,3.34794 -3.115001,3.86198 -5.340801,4.36208 -4.669264,1.0491 -6.361258,-0.71353 -6.104652,-6.35953 0.505894,-11.12762 0.01257,-64.74588 -0.725148,-78.50597 -0.949586,-17.76206 -1.590509,-24.47521 -3.045512,-31.89758 -2.200595,-11.226 -3.865331,-18.69542 -4.381774,-19.66038 -0.323518,-0.6041 -0.606301,-1.19303 -0.628848,-1.30867 -0.02505,-0.11603 -1.749837,-0.25833 -3.838374,-0.31755 -7.536838,-0.21294 -17.534757,-0.83582 -20.758788,-1.29342 -9.07927,-1.28847 -11.566431,-1.4989 -14.636996,-1.23828 -19.409699,1.64702 -21.572861,1.46695 -24.248455,-2.0184 -2.84782,-3.70965 -1.980353,-7.958302 4.028641,-19.731231 6.393629,-12.526583 10.443318,-18.079837 14.010059,-19.21186 0.605362,-0.191971 1.100628,-0.586045 1.100628,-0.875717 0,-0.289436 0.34146,-0.395282 0.759465,-0.235011 0.417407,0.160257 0.759467,0.124984 0.759467,-0.07893 0,-0.34146 10.594682,-2.136014 12.910941,-2.187144 0.556724,-0.01203 8.987055,-0.09389 18.733504,-0.181199 9.746473,-0.0873 18.408584,-0.379733 19.249019,-0.650391 1.506912,-0.484984 6.611423,-0.50651 7.087555,-0.02992 0.219962,0.220081 6.919994,0.09687 13.662004,-0.25116 1.39236,-0.07174 3.89858,0.03588 5.56942,0.233807 1.67081,0.200339 7.13898,0.499334 12.15145,0.664921 16.05225,0.529236 20.8934,1.899743 27.52245,7.790514 3.47486,3.087858 7.45069,6.151976 7.98243,6.151976 0.39049,0 4.71946,4.673113 4.7357,5.112225 0.006,0.16634 0.48919,0.849751 1.07398,1.518939 4.48749,5.137206 12.74827,29.843481 14.8811,44.506211 0.75613,5.19828 0.95119,7.16009 1.78739,17.97406 0.3014,3.89855 0.88407,9.36672 1.29474,12.15144 0.5657,3.83459 0.72275,9.36291 0.64799,22.78399 -0.0539,9.74654 -0.0771,20.45501 -0.0478,23.79667 0.16559,20.93508 0.14704,28.16439 -0.0785,30.63177 -0.14004,1.53161 -0.38811,4.83531 -0.55076,7.34154 -0.34804,5.3668 -0.78051,6.41258 -3.1101,7.5235 -1.95626,0.93289 -2.85793,0.97767 -4.87219,0.24225 z m -1.41764,-21.70394 c 0.10055,-18.21244 -0.33607,-65.17345 -0.61129,-65.80559 -0.36716,-0.84298 -0.872,-6.21208 -1.16646,-12.40463 -0.10575,-2.22774 -0.43594,-6.21492 -0.73309,-8.86045 -0.29722,-2.64545 -0.63677,-6.51873 -0.75445,-8.60725 -0.21469,-3.81145 -0.49633,-5.69953 -2.03742,-13.67041 -0.84651,-4.37812 -6.16548,-20.89645 -7.89692,-24.524582 -0.52326,-1.096564 -0.95149,-2.371352 -0.95149,-2.832827 0,-1.753052 -3.96484,-6.946294 -7.1549,-9.371622 -1.77344,-1.348334 -4.57504,-3.686293 -6.2257,-5.195407 -5.2161,-4.769035 -8.47966,-5.67783 -21.30166,-5.93174 -5.01247,-0.09932 -10.36671,-0.313954 -11.89832,-0.477207 C 109.76179,72.90832 92.581588,72.744759 79.336015,73.07636 l -12.6169,0.315745 2.798729,1.85626 c 1.539328,1.020973 4.004367,3.242384 5.477861,4.93654 1.473541,1.694156 3.082063,3.080266 3.574579,3.080266 1.00961,0 3.207223,3.207321 2.862636,4.178018 -0.123258,0.347427 0.44612,1.933576 1.265438,3.524405 0.819341,1.590867 1.343674,3.128814 1.165155,3.417586 -0.178869,0.288851 -0.132268,0.525062 0.102207,0.525062 1.368476,0 6.420959,14.328308 5.60074,15.883288 -0.352828,0.66907 -0.336094,0.84613 0.05987,0.60297 0.311567,-0.19264 0.556749,-0.006 0.556749,0.42759 0,0.42457 0.328903,1.74791 0.731355,2.94117 0.402462,1.19319 0.833193,2.73911 0.95758,3.43524 0.124254,0.69619 0.508898,2.29106 0.854442,3.54419 0.345633,1.25312 0.68368,3.07583 0.751449,4.05047 0.06766,0.97468 0.250015,2.11388 0.404831,2.53159 0.882126,2.38082 1.830027,9.52515 1.833438,13.81887 0.0022,2.72721 0.100435,5.11952 0.218953,5.31627 0.195656,0.32532 0.38274,3.3535 1.103804,17.8255 0.131518,2.64551 0.344458,11.41735 0.473031,19.49302 0.128507,8.07568 0.406636,20.03726 0.6193,26.5813 0.212187,6.54409 0.39048,13.80524 0.39647,16.13592 l 0.01251,4.23763 2.493868,-2.85625 c 1.37159,-1.57096 4.56135,-5.79568 7.08835,-9.38827 10.09896,-14.35767 11.74079,-16.62793 14.66712,-20.28049 1.67323,-2.08852 4.04442,-5.05046 5.26938,-6.582 4.96872,-6.2128 7.4359,-6.26816 14.00121,-0.31454 6.19711,5.61992 5.92085,5.32499 8.65038,9.23391 1.33847,1.91678 3.20119,4.57873 4.13945,5.91546 0.93826,1.33678 4.34522,6.34926 7.57107,11.13886 3.22581,4.7896 6.34887,9.32458 6.9402,10.07769 0.59142,0.75314 2.09808,2.844 3.34839,4.64633 1.25031,1.80236 2.32022,3.23007 2.3776,3.17264 0.0599,-0.0599 0.11723,-2.48995 0.13327,-5.40578 z M 77.016652,103.84616 c 0,-0.0974 -0.272088,-0.95209 -0.605124,-1.89867 -0.593201,-1.68661 -0.611638,-1.69575 -0.927741,-0.45509 -0.402456,1.57912 -0.09093,2.53161 0.827583,2.53161 0.388101,0 0.705282,-0.0802 0.705282,-0.17762 z M 64.55189,101.87191 c 0.695187,-1.62909 0.677549,-1.67064 -1.76998,-4.170306 l -2.472079,-2.524847 -2.075134,2.075134 -2.075134,2.075147 0.821645,1.588902 c 0.452084,0.87385 0.644958,1.62465 0.42876,1.66841 -0.362973,0.0737 3.525305,0.67105 5.554945,0.85355 0.556725,0.0479 1.14494,-0.53042 1.586802,-1.56599 z m -39.430949,-1.51894 c 0.770769,-1.183437 2.233248,-2.949227 3.249916,-3.923869 1.016611,-0.974694 2.686179,-2.82538 3.710144,-4.11284 L 33.942711,89.975628 32.24031,88.426479 30.537967,86.877357 28.6042,90.00767 c -2.79077,4.517798 -4.523129,8.037497 -5.127055,10.41675 -0.676584,2.66543 -0.123179,2.64141 1.643796,-0.0711 z m 19.573899,-0.0418 c 0.899984,-1.13094 0.295411,-1.9843 -3.006707,-4.242057 -1.23242,-0.84272 -1.485869,-0.654658 -6.175781,4.582607 l -1.25258,1.39882 4.796777,-0.34088 c 4.015064,-0.28524 4.933887,-0.51308 5.638291,-1.39845 z m 8.525228,-10.940015 c 0,-0.183132 -0.921302,-1.232321 -2.047353,-2.331865 l -2.047251,-1.999129 -1.979714,2.209208 c -2.156927,2.407081 -2.182706,2.281697 0.96592,4.708922 l 1.72679,1.331157 1.690792,-1.792752 c 0.92997,-0.986057 1.690816,-1.942519 1.690816,-2.125541 z m 16.825515,2.471604 c 0.853662,-1.499972 0.844193,-1.592018 -0.359392,-3.498405 -1.726264,-2.734537 -2.04357,-2.804327 -3.581821,-0.7875 l -1.358254,1.780735 1.704971,1.983248 c 2.083752,2.423751 2.479268,2.481163 3.594321,0.522042 z M 38.537051,83.263447 c 0,-0.278666 0.379734,-0.50651 0.843867,-0.50651 0.464034,0 0.68985,-0.153829 0.50171,-0.342066 -0.188388,-0.188383 0.172859,-0.894318 0.801682,-1.56916 l 1.143812,-1.226932 -1.983046,-1.721894 c -2.499658,-2.170523 -2.430708,-2.180026 -4.575813,0.62934 -1.722196,2.255431 -2.318882,3.601533 -1.323923,2.986656 0.259535,-0.160326 0.614391,-0.05988 0.789307,0.222964 0.174611,0.282863 0.735906,0.514891 1.246602,0.514891 0.510695,0 1.059724,0.34145 1.220049,0.75947 0.325912,0.848802 1.335828,1.0403 1.335828,0.252946 z m 20.252416,-2.057316 c 0,-0.506523 0.22772,-1.061582 0.506496,-1.233697 0.991247,-0.612591 0.472425,-1.265792 -1.999729,-2.518617 l -2.506,-1.269922 -0.703678,1.387967 c -0.673415,1.32835 -0.614667,1.477434 1.366873,3.47028 2.121431,2.133508 3.336213,2.193247 3.336213,0.163842 z"
       id="path21"
       inkscape:connector-curvature="0"
       inkscape:export-xdpi="411.41782"
       inkscape:export-ydpi="411.41782"
       inkscape:export-filename="/home/olive/path512.png" />
  </g>
</svg>
