<?xml version="1.0" encoding="UTF-8" standalone="no"?>
<!-- Created with Inkscape (http://www.inkscape.org/) -->

<svg
   xmlns:dc="http://purl.org/dc/elements/1.1/"
   xmlns:cc="http://creativecommons.org/ns#"
   xmlns:rdf="http://www.w3.org/1999/02/22-rdf-syntax-ns#"
   xmlns:svg="http://www.w3.org/2000/svg"
   xmlns="http://www.w3.org/2000/svg"
   xmlns:sodipodi="http://sodipodi.sourceforge.net/DTD/sodipodi-0.dtd"
   xmlns:inkscape="http://www.inkscape.org/namespaces/inkscape"
   version="1.1"
   id="svg1025"
   width="114.56"
   height="104.96"
   viewBox="0 0 114.56 104.96"
   sodipodi:docname="commentary.svg"
   inkscape:version="0.92.4 5da689c313, 2019-01-14">
  <metadata
     id="metadata1031">
    <rdf:RDF>
      <cc:Work
         rdf:about="">
        <dc:format>image/svg+xml</dc:format>
        <dc:type
           rdf:resource="http://purl.org/dc/dcmitype/StillImage" />
        <dc:title></dc:title>
      </cc:Work>
    </rdf:RDF>
  </metadata>
  <defs
     id="defs1029" />
  <sodipodi:namedview
     pagecolor="#ffffff"
     bordercolor="#666666"
     borderopacity="1"
     objecttolerance="10"
     gridtolerance="10"
     guidetolerance="10"
     inkscape:pageopacity="0"
     inkscape:pageshadow="2"
     inkscape:window-width="3200"
     inkscape:window-height="1734"
     id="namedview1027"
     showgrid="false"
     inkscape:zoom="11.269204"
     inkscape:cx="55.397594"
     inkscape:cy="49.101223"
     inkscape:window-x="0"
     inkscape:window-y="66"
     inkscape:window-maximized="1"
     inkscape:current-layer="svg1025" />
  <path
     style="fill:#000000;stroke-width:0.31999999"
     d="M 10.32,99.94807 C 9.6984,99.697248 9.8488707,98.973245 10.56132,98.786934 15.548633,95.861722 22.209822,90.317174 21.066988,83.2 c -0.138227,-0.616 -0.333381,-1.48 -0.433676,-1.92 -0.100295,-0.44 -0.319276,-1.700294 -0.486624,-2.800653 -0.167348,-1.100358 -0.453706,-2.667465 -0.63635,-3.482461 -0.182644,-0.814995 -0.264382,-1.54951 -0.181639,-1.632252 0.08274,-0.08274 0.03111,-0.464304 -0.114739,-0.847917 -0.768278,-2.020723 -1.01142,-8.858986 -0.471444,-13.25913 0.370605,-3.019977 0.36152,-3.125648 -0.362591,-4.217587 -0.408496,-0.616 -1.274942,-2.272 -1.925436,-3.68 -0.650493,-1.408 -1.203634,-2.588771 -1.229202,-2.623933 -0.02557,-0.03516 -1.193716,1.029363 -2.595886,2.365613 -3.2045623,3.053904 -4.6366292,3.966826 -6.3383492,4.040608 -1.3035616,0.05652 -1.3330099,0.03449 -1.4258662,-1.066765 -0.060617,-0.718902 0.1796029,-1.64224 0.666023,-2.56 C 5.9496694,50.725984 6.9924714,48.712 7.8485462,47.04 c 0.8560749,-1.672 1.636594,-3.112 1.7344871,-3.2 0.2711414,-0.243741 0.8431967,-1.528822 1.7806037,-4 0.467342,-1.232 1.116403,-2.816 1.442358,-3.52 0.325954,-0.704 0.909785,-2.288 1.297401,-3.52 0.387616,-1.232 0.904696,-2.636147 1.149067,-3.120326 0.443509,-0.87874 0.441159,-0.88172 -1.304077,-1.653546 -1.378187,-0.6095 -1.888134,-1.047147 -2.408387,-2.066926 -0.807492,-1.582815 -0.916755,-5.017417 -0.190176,-5.97804 C 12.014312,19.102629 11.9556,17.71726 11.232411,17.210719 10.473209,16.678953 10.267006,15.298612 10.843078,14.604488 11.082486,14.31602 11.166414,14.08 11.029586,14.08 c -0.427591,0 0.926031,-1.323353 1.833768,-1.792761 C 13.339029,12.041257 14.023369,11.84 14.384109,11.84 14.933668,11.84 15.04,11.63679 15.04,10.58653 c 0,-2.7368839 2.273391,-5.8436644 4.594783,-6.2791601 0.831937,-0.1560723 1.63694,0.036528 3.415656,0.8172119 1.865911,0.8189536 2.379134,0.9355846 2.589259,0.588414 C 26.341292,4.5538112 26.51471,4.4224976 27.099051,4.60796 27.439475,4.7160064 27.853453,5.1564573 28.019002,5.5867402 28.32,6.3690723 28.32,6.3690723 30.511668,5.4245363 c 2.579372,-1.1116246 3.21893,-1.1551817 4.599743,-0.3132662 1.56113,0.9518589 1.838423,3.867856 0.594215,6.2487299 -0.619824,1.186072 -0.640957,1.76 -0.06481,1.76 0.242448,0 0.60632,0.199418 0.808599,0.443151 0.26312,0.317039 1.175248,0.44228 3.205164,0.44009 1.56056,-0.0017 2.983079,0.08698 3.161152,0.19704 0.178074,0.110056 2.24538,0.273059 4.594016,0.36223 2.348637,0.08917 6.79025,0.378763 9.87025,0.643538 5.698266,0.489855 15.568698,0.691217 17.6,0.359049 4.52103,-0.7393 20.133264,-0.428658 23.033552,0.458307 7.474401,2.285818 8.308251,4.871701 8.814981,27.336595 0.17604,7.803923 0.62815,15.636858 0.93082,16.126589 0.75353,1.219238 0.29976,21.580048 -0.5304,23.799155 C 105.85615,86.68807 97.089626,89.545722 86.4,90.042822 80.801917,90.303152 72.98727,90.798429 67.523389,91.239187 62.65303,91.632067 54.88576,91.473594 51.04,90.902877 49.808,90.720048 46.856,90.281334 44.48,89.927958 39.628592,89.206422 36.201642,89.030957 35.889062,89.48809 35.774077,89.656246 35.104,90.214864 34.4,90.729456 c -0.704,0.514592 -2,1.526186 -2.88,2.247984 -5.15853,4.231152 -9.283303,5.912749 -16.791605,6.845648 -2.885511,0.358522 -3.767648,0.383532 -4.408395,0.124982 z m 14.54288,-5.141171 c 2.838809,-1.428214 3.593365,-1.936736 5.69712,-3.839481 5.422192,-4.904116 4.985763,-4.774439 12.16,-3.613133 2.112,0.341872 5.352,0.782435 7.2,0.97903 1.848,0.196595 3.792,0.40384 4.32,0.460544 3.748045,0.402525 10.04239,0.500935 12.65416,0.197843 1.664211,-0.193126 5.90584,-0.497856 9.42584,-0.677174 16.290474,-0.829885 21.443901,-1.518234 25.2241,-3.369216 3.17654,-1.555402 3.09962,-1.401718 3.75041,-7.492682 0.53371,-4.995206 0.37658,-14.610278 -0.30874,-18.89263 -0.18308,-1.144 -0.34143,-3.952 -0.3519,-6.24 -0.0105,-2.288 -0.12554,-6.032 -0.25571,-8.32 -0.15654,-2.751667 -0.1252,-4.241251 0.0926,-4.4 0.21846,-0.159242 0.22157,-0.320758 0.009,-0.48 -0.176,-0.132 -0.32,-1.464 -0.32,-2.96 0,-11.731722 -1.76196,-16.190737 -7.099779,-17.967513 -2.135859,-0.710955 -2.408128,-0.722941 -13.380224,-0.589084 -20.190669,0.246323 -24.673623,0.168065 -30.4,-0.53069 -0.528,-0.06443 -3.336,-0.19006 -6.24,-0.279181 l -5.28,-0.162039 -0.04088,1.743192 c -0.0475,2.02558 -0.813591,3.451861 -2.50584,4.665315 -1.328519,0.952636 -1.56688,2.503048 -0.773402,5.030562 0.440509,1.403177 -0.72808,2.756105 -2.380582,2.756105 -1.1041,0 -1.1041,0 -0.615648,1.466667 0.268649,0.806666 0.908332,2.098631 1.42152,2.871031 C 43.394061,44.99104 42.68977,51.378451 35.6,46.638499 l -1.36,-0.909245 -0.03391,1.855373 c -0.04801,2.626896 0.04802,3.733904 0.351331,4.049831 0.144918,0.15095 2.688784,0.324867 5.653034,0.38648 2.964249,0.06161 7.405542,0.327977 9.869542,0.591923 7.881114,0.84423 22.362406,1.034336 23.43575,0.307657 0.81169,-0.549536 1.501028,-0.591497 8.400621,-0.51136 8.766471,0.101824 10.716234,0.430237 9.539629,1.606842 -0.298666,0.298666 -0.236262,0.384 0.280819,0.384 0.365648,0 0.84408,0.216 1.063181,0.48 0.405565,0.488675 0.258432,0.594893 -0.694157,0.501114 C 89.080366,54.514219 85.158162,54.980291 83.918434,54.778626 82.112255,54.493186 76.282128,55.349565 66.72,55.219315 57.922157,55.099475 50.315258,54.834413 47.166931,54.537994 41.570096,54.01104 34.164608,54.070902 33.084205,54.65183 c -0.526359,0.283021 -0.809402,0.262221 -1.28,-0.09405 C 31.471892,54.306195 30.722533,54.095776 30.138963,54.090176 28.861033,54.07792 27.84,53.581126 27.84,52.971597 c 0,-0.6908 0.924516,-1.451597 1.763972,-1.451597 0.417041,0 0.861842,-0.18 0.988447,-0.4 0.126604,-0.22 0.110021,-0.290918 -0.03685,-0.157597 -0.294478,0.267309 -3.379399,-5.857225 -3.144291,-6.242403 0.08057,-0.132 0.01861,-0.24 -0.137692,-0.24 -0.156301,0 -0.581013,-0.684 -0.943804,-1.52 -0.36279,-0.836 -1.085359,-2.486838 -1.605709,-3.668531 l -0.94609,-2.148535 -0.366804,3.588535 C 23.209436,42.705162 22.964931,45.4 22.867835,46.72 c -0.0971,1.32 -0.308393,3.408 -0.469549,4.64 -0.842284,6.439094 -1.006868,17.266963 -0.318592,20.96 0.213209,1.144 0.508184,2.944 0.6555,4 0.334659,2.398918 1.056898,5.440685 1.61079,6.783968 0.361949,0.877789 0.351689,1.106202 -0.07187,1.6 C 24.002363,85.020787 23.371001,86.612 22.871089,88.24 22.371176,89.868 21.844672,91.2 21.701078,91.2 21.557485,91.2 21.44,91.380704 21.44,91.601562 c 0,0.22086 -0.792,1.454355 -1.76,2.7411 -0.968,1.286749 -1.76,2.461274 -1.76,2.610058 0,0.55383 4.088617,-0.70983 6.94288,-2.145821 z M 70.293334,81.706666 c -0.82936,-0.82936 0.621053,-2.342032 2.255408,-2.352221 0.490192,-0.0032 1.899258,-0.23216 3.131258,-0.50912 2.181962,-0.490515 14.240045,-0.850957 14.240013,-0.425664 -3.2e-5,0.419318 -1.354275,1.585046 -2.008871,1.729229 C 87.520016,80.23504 85.4,80.360259 83.2,80.427155 c -2.599139,0.07903 -5.002941,0.361741 -6.863789,0.807239 -2.812793,0.673398 -5.622189,0.892963 -6.042877,0.472272 z M 85.92,69.561978 C 76.158192,67.680934 46.074861,66.12832 37.44,67.059901 c -6.772317,0.73064 -9.28,0.519296 -9.28,-0.782109 0,-1.27967 3.405812,-1.55817 17.12,-1.399933 7.121574,0.08217 22.947955,0.632919 25.6,0.890861 0.88,0.08559 2.464,0.218173 3.52,0.294627 5.979603,0.432925 7.609024,0.595751 10.018099,1.001098 1.800947,0.303024 3.727927,0.381792 5.975715,0.244259 2.77978,-0.170083 3.399367,-0.121238 3.821901,0.301296 1.898656,1.898656 -2.815699,3.007942 -8.295715,1.951978 z M 90.4,43.824502 c -0.88,-0.163225 -2.68,-0.516105 -4,-0.784179 -4.513766,-0.916681 -7.528179,-1.130765 -18.08,-1.284035 -24.145782,-0.35073 -26.406854,-0.524256 -26.807773,-2.057366 -0.333725,-1.276167 0.60521,-1.79664 2.329885,-1.291511 1.841571,0.539363 8.468899,0.897338 20.317888,1.097466 14.465539,0.244323 22.170288,0.853933 26.397888,2.088637 0.614838,0.179568 2.167357,0.326486 3.450042,0.326486 1.82878,0 2.373968,0.10896 2.525872,0.504813 C 97.056291,43.7864 93.979661,44.488467 90.4,43.824502 Z M 83.814195,30.736688 C 83.086054,30.293544 73.516586,29.739138 63.68,29.570217 c -4.664,-0.08009 -9.800544,-0.286158 -11.414541,-0.457921 -1.613997,-0.171763 -3.773997,-0.320424 -4.8,-0.330357 -2.310035,-0.02237 -4.060941,-0.590422 -4.209609,-1.365748 -0.16257,-0.847805 0.896387,-1.895384 1.691568,-1.673394 4.365996,1.21885 9.59366,1.734451 19.532582,1.926486 8.093069,0.15637 9.810778,0.241175 16.16,0.797831 1.820925,0.159646 3.186013,0.14774 3.404112,-0.02969 0.223389,-0.181736 0.903594,-0.180179 1.76,0.004 0.767738,0.165135 2.759306,0.319702 4.425706,0.343482 3.334614,0.04759 3.9539,0.376515 2.714297,1.441675 -0.857645,0.736951 -8.092947,1.141182 -9.12992,0.510082 z m -71.754879,17.89768 c 0.736624,-0.805245 1.708624,-1.661728 2.16,-1.903299 C 14.670692,46.489501 15.04,46.100186 15.04,45.865926 c 0,-0.678137 0.860252,-0.494108 1.496774,0.320196 0.320774,0.410368 1.015226,1.657091 1.543226,2.770499 l 0.96,2.024374 0.180604,-2.291789 c 0.131228,-1.665235 0.333838,-2.403836 0.741098,-2.701632 0.308273,-0.225414 0.607172,-0.908832 0.664222,-1.51871 0.434565,-4.645645 0.5874,-5.860016 0.993676,-7.895373 0.638031,-3.196403 0.641242,-3.182777 -0.804606,-3.413977 -0.695754,-0.111255 -1.652781,-0.561658 -2.126728,-1.0009 C 18.21432,31.719377 17.7226,31.36 17.595555,31.36 c -0.22674,0 -1.884393,4.083856 -3.431178,8.453178 -0.430918,1.217248 -1.104109,2.729248 -1.495979,3.36 -0.391871,0.630752 -1.548008,2.789344 -2.569194,4.79687 -1.8567016,3.650045 -1.8567016,3.650045 -0.6179528,2.889226 0.6813118,-0.418452 1.8414408,-1.419661 2.5780648,-2.224906 z M 31.537838,45.679939 C 31.566584,43.488445 31.97353,41.92 32.513386,41.92 c 0.266412,0 0.395388,-0.144 0.286614,-0.32 -0.108774,-0.176 0.02173,-0.32 0.289981,-0.32 0.480013,0 1.398342,0.723712 3.812803,3.004774 1.228086,1.160234 2.012067,1.50064 1.739338,0.755226 -0.08049,-0.22 -0.55328,-1.66 -1.050634,-3.2 -0.497357,-1.54 -1.022906,-2.8 -1.167888,-2.8 -0.144979,0 -0.2636,-0.166406 -0.2636,-0.369795 0,-0.203386 -0.36,-0.841779 -0.8,-1.41865 -0.44,-0.57687 -0.8,-1.157181 -0.8,-1.289581 0,-0.1324 -0.292336,-0.551904 -0.649635,-0.932233 C 33.184467,34.257059 32,31.261744 32,30.198754 32,29.490959 31.446192,29.12 30.389517,29.12 c -0.328976,0 -1.463404,0.756 -2.52095,1.68 -2.709514,2.367357 -2.724353,2.197562 0.929862,10.64 0.914156,2.112 1.824052,4.236 2.021992,4.72 0.502815,1.229475 0.696695,1.099738 0.717417,-0.480061 z M 24.211534,30.4 c 0.397944,0 0.981144,-0.275724 1.296,-0.612719 2.473331,-2.647245 4.428665,-3.174849 7.263215,-1.959819 3.394502,1.455053 4.083718,0.755951 1.634867,-1.658311 C 32.851466,24.636956 32.005318,22.08 33.052435,22.08 c 0.271827,0 0.550951,-0.170159 0.620275,-0.37813 0.06932,-0.207972 0.535162,0.158253 1.035197,0.813831 0.909152,1.191962 0.909152,1.191962 1.428205,0.400713 0.285478,-0.435187 1.090576,-1.245439 1.789104,-1.800558 2.886205,-2.293668 2.375718,-3.760453 -1.59279,-4.576564 -2.154141,-0.442993 -2.255511,-0.434572 -3.641783,0.302516 -1.614058,0.858202 -2.225659,0.971044 -1.676469,0.309311 0.262079,-0.315787 0.269274,-0.483303 0.02426,-0.564973 -0.19155,-0.06385 0.141553,-0.689854 0.740229,-1.391118 0.690463,-0.808779 1.048735,-1.531546 0.979752,-1.976515 -0.05981,-0.385818 0.311767,-1.590674 0.825735,-2.677458 C 34.954814,7.6427968 33.941732,6.4342333 31.169533,7.6605091 30.430998,7.9871987 29.373746,8.3539843 28.820085,8.4755888 28.266423,8.5971933 27.148152,9.2724797 26.335038,9.976225 25.07713,11.064937 24.814049,11.179641 24.571005,10.745347 24.413901,10.464618 24.360543,10.113286 24.45243,9.9646086 24.869952,9.2890451 21.574901,7.04 20.16762,7.04 c -0.748003,0 -2.545484,1.4844243 -2.874544,2.3739002 -0.290261,0.7846018 0.16762,2.0424278 1.025518,2.8171538 0.396045,0.35765 0.539747,0.773071 0.409441,1.183631 -0.267749,0.8436 -1.4526,1.209627 -1.906454,0.588945 -0.300787,-0.411351 -0.577298,-0.366071 -2.069112,0.338829 -1.721928,0.813632 -1.721928,0.813632 -0.870266,1.5462 0.640079,0.550573 1.088436,0.685213 1.804729,0.541954 1.331459,-0.266291 1.27163,0.593378 -0.136464,1.960823 -1.733798,1.683748 -2.062567,2.393922 -2.003868,4.328564 0.05638,1.85814 0.120572,1.90995 1.756011,1.417252 0.700293,-0.210973 0.730796,-0.160743 0.535279,0.881454 -0.199676,1.064364 -0.161685,1.118853 1.02877,1.475522 1.801595,0.539771 2.737216,1.515412 2.497947,2.604795 -0.349347,1.590568 0.662685,1.933811 1.33307,0.452128 1.366818,-3.020934 2.418698,-3.210024 2.223109,-0.399636 -0.09866,1.417652 -0.03965,1.855353 0.215699,1.6 C 23.329818,30.558182 23.81359,30.4 24.211534,30.4 Z M 20.48,25.716417 c -2.085994,-0.913748 -2.97109,-2.385832 -3.116093,-5.182657 -0.2091,-4.033116 1.494436,-6.42074 4.753415,-6.66224 0.93145,-0.06902 1.78285,-0.269995 1.892,-0.446604 0.109151,-0.176608 0.845117,-0.387752 1.635481,-0.469207 2.554145,-0.263231 4.918056,3.203086 4.858713,7.124566 -0.03771,2.492128 -0.556816,3.331487 -2.749272,4.445416 -3.204973,1.628362 -5.439972,1.99421 -7.274244,1.190726 z m 5.84,-3.102151 c 2.156254,-0.959823 2.420734,-2.021358 1.141696,-4.582384 -1.332508,-2.66809 -3.044055,-3.171654 -5.803852,-1.707585 -2.816472,1.494135 -3.215733,4.070088 -0.937844,6.050798 1.777134,1.545285 2.588,1.579917 5.6,0.239171 z"
     id="path1035"
     inkscape:connector-curvature="0"
     sodipodi:nodetypes="cccsssccssscssscscscscsssscscsssscsssssscccsssscsssscscssscssssccssscccccssscsccsssscscsccscssssccsssccsscccscscscsssscssscssccscccscsssssssssssssccssscscssccsssccccccscscscscssscsscscssssssccsssscssssssssscsccccssccscssssccscccssscscsssssccsssccscsssssss" />
</svg>
