<?xml version="1.0" encoding="UTF-8" standalone="no"?>
<!-- Created with Inkscape (http://www.inkscape.org/) -->

<svg
   xmlns:dc="http://purl.org/dc/elements/1.1/"
   xmlns:cc="http://creativecommons.org/ns#"
   xmlns:rdf="http://www.w3.org/1999/02/22-rdf-syntax-ns#"
   xmlns:svg="http://www.w3.org/2000/svg"
   xmlns="http://www.w3.org/2000/svg"
   xmlns:sodipodi="http://sodipodi.sourceforge.net/DTD/sodipodi-0.dtd"
   xmlns:inkscape="http://www.inkscape.org/namespaces/inkscape"
   width="210mm"
   height="297mm"
   viewBox="0 0 210 297"
   version="1.1"
   id="svg97"
   inkscape:version="0.92.4 5da689c313, 2019-01-14"
   sodipodi:docname="bookmark-thin.svg">
  <defs
     id="defs91" />
  <sodipodi:namedview
     id="base"
     pagecolor="#ffffff"
     bordercolor="#666666"
     borderopacity="1.0"
     inkscape:pageopacity="0.0"
     inkscape:pageshadow="2"
     inkscape:zoom="0.98994949"
     inkscape:cx="334.56194"
     inkscape:cy="560"
     inkscape:document-units="mm"
     inkscape:current-layer="layer1"
     showgrid="false"
     inkscape:window-width="3200"
     inkscape:window-height="1745"
     inkscape:window-x="0"
     inkscape:window-y="55"
     inkscape:window-maximized="1" />
  <metadata
     id="metadata94">
    <rdf:RDF>
      <cc:Work
         rdf:about="">
        <dc:format>image/svg+xml</dc:format>
        <dc:type
           rdf:resource="http://purl.org/dc/dcmitype/StillImage" />
        <dc:title></dc:title>
      </cc:Work>
    </rdf:RDF>
  </metadata>
  <g
     inkscape:label="Calque 1"
     inkscape:groupmode="layer"
     id="layer1">
    <path
       style="fill:#000000;stroke-width:0.43062931"
       d="m 99.700095,239.65678 c -0.356948,-0.35707 -0.336696,-1.06384 0.0774,-2.70799 0.308205,-1.22369 0.693185,-3.48448 0.855445,-5.02403 0.38985,-3.69871 0.4872,-4.44896 1.00581,-7.75131 2.40915,-15.34017 3.46685,-34.68787 3.62541,-66.31688 0.11036,-21.99904 0.0129,-27.12041 -0.74998,-39.41148 -0.28106,-4.52879 -0.35293,-5.28134 -0.90373,-9.46497 -0.18712,-1.42107 -0.3543,-2.88554 -0.37154,-3.25434 -0.0165,-0.36876 -0.34209,-1.13859 -0.7219,-1.71059 -0.69054,-1.03996 -0.69054,-1.03996 -12.488237,-1.34453 -11.857727,-0.30619 -17.300439,-0.58328 -23.128969,-1.17775 -1.732103,-0.1765 -7.351815,-0.36468 -12.488249,-0.41808 -5.13643,-0.0534 -9.968762,-0.20752 -10.738514,-0.3423 -1.627683,-0.28534 -1.823743,0.28736 -0.538285,1.57295 2.303924,2.30388 0.164128,2.2753 -2.575089,-0.0357 l -2.083657,-1.75696 -5.529612,0.0153 c -3.041286,0.0101 -6.765922,0.12358 -8.276963,0.25634 -3.268391,0.28635 -3.784357,-0.0305 -4.163932,-2.562575 -0.320022,-2.133903 0.827235,-11.837196 1.795079,-15.182628 0.358829,-1.240313 0.547089,-2.425596 0.418336,-2.633874 -0.128738,-0.208533 0.148917,-0.725339 0.617034,-1.148966 0.468081,-0.423679 0.851105,-1.000197 0.851105,-1.281259 0,-0.951876 4.422605,-9.4644 5.817744,-11.197821 6.178648,-7.676813 13.301588,-11.882925 26.693858,-15.762608 4.571386,-1.324341 12.44848,-1.754578 15.596038,-0.851884 0.758273,0.217688 17.611941,0.524078 37.452613,0.681344 19.84066,0.157156 36.18859,0.35654 36.32872,0.443513 0.13979,0.08648 1.65027,0.283301 3.35584,0.437922 3.18701,0.287876 5.19664,0.677832 11.91065,2.310648 6.59947,1.604991 7.3207,1.884476 7.32058,2.836964 -1.1e-4,0.473523 1.19791,2.614191 2.66222,4.75659 3.06092,4.47858 5.20077,8.923487 7.24639,15.052376 0.79053,2.368479 2.14483,6.147251 3.00958,8.397272 2.34161,6.092824 3.58098,11.42736 4.33662,18.665696 0.37281,3.57069 0.74656,6.60353 0.83063,6.7396 0.0839,0.1363 0.27667,9.63905 0.42825,21.11777 0.15157,11.47873 0.46437,22.71135 0.69509,24.96141 0.41299,4.02572 0.55738,6.77749 1.21014,23.03864 0.34892,8.68699 0.29602,32.1411 -0.0753,33.58908 -0.12155,0.47354 -0.35858,2.70224 -0.52669,4.95228 -0.1683,2.25002 -0.48267,4.91831 -0.69887,5.92956 -0.21617,1.01123 -0.40995,3.42141 -0.4308,5.35599 -0.0204,1.93451 -0.21821,3.99255 -0.43894,4.57337 -0.29704,0.7815 -0.23039,1.24516 0.25685,1.78333 1.21168,1.33889 0.1501,3.77698 -1.17202,2.69129 -0.29601,-0.24313 -1.02271,-0.50908 -1.61485,-0.591 -0.94129,-0.13024 -1.07986,-0.36826 -1.10253,-1.89294 -0.0305,-2.05852 -7.44968,-15.47051 -8.88117,-16.05531 -0.19326,-0.0789 -0.35145,-0.30874 -0.35145,-0.51107 0,-0.20191 -0.85565,-1.61734 -1.90147,-3.14493 -1.04582,-1.52758 -2.23407,-3.42919 -2.6405,-4.22585 -0.40639,-0.79663 -1.93065,-3.09563 -3.38708,-5.10882 -1.45644,-2.0132 -3.32027,-4.80524 -4.14189,-6.20455 -0.82168,-1.39935 -2.48485,-3.62787 -3.69597,-4.95225 -1.21115,-1.3244 -3.48504,-4.39432 -5.05312,-6.822 -1.56805,-2.42762 -3.14066,-4.41392 -3.49465,-4.41392 -0.5667,0 -4.56963,3.7301 -5.9762,5.5688 -0.28432,0.37129 -1.89185,1.97674 -3.57283,3.56739 -1.68094,1.59064 -2.95733,2.99097 -2.83639,3.11193 0.12105,0.12105 -0.10356,0.34381 -0.49876,0.49539 -1.11481,0.42774 -9.12044,8.68468 -11.3781,11.73516 -2.02543,2.73673 -8.19588,10.42794 -8.69081,10.83275 -0.14475,0.11839 -1.35744,1.76555 -2.6948,3.6603 -9.61704,13.62537 -13.04422,17.46853 -14.383476,16.12929 z m 5.229995,-7.67393 c 0,-0.16168 0.24898,-0.58045 0.55331,-0.9299 0.3043,-0.34941 1.52868,-2.04028 2.72079,-3.75741 1.1921,-1.71714 2.34804,-3.12209 2.56875,-3.12209 0.2207,0 0.4013,-0.27313 0.4013,-0.60725 0,-0.33416 0.82358,-1.62208 1.83018,-2.86236 1.84707,-2.27588 6.12122,-7.78697 10.87337,-14.02007 2.95784,-3.87958 3.73199,-4.68121 13.99547,-14.49228 4.14478,-3.96214 8.08148,-7.9793 8.74814,-8.92711 2.15606,-3.06513 4.96612,-1.78637 8.50524,3.87048 0.81342,1.30023 2.63631,3.81941 4.05078,5.5982 1.4145,1.77878 3.69779,4.88134 5.07401,6.89451 5.22223,7.63948 8.07219,11.97 8.07219,12.26592 0,0.1683 1.0658,1.81892 2.36842,3.66736 1.30267,1.84849 2.36849,3.55745 2.36849,3.7977 0,0.24009 0.15764,0.50152 0.35043,0.58039 0.29856,0.12219 2.71144,3.90176 6.26485,9.81316 l 0.89424,1.48765 0.52139,-4.07143 c 0.28686,-2.23927 0.73281,-6.00924 0.99125,-8.37772 0.25837,-2.36848 0.67513,-6.11114 0.92592,-8.31707 0.42775,-3.76235 0.37843,-9.14469 -0.28788,-31.30082 -0.41248,-13.71664 -0.49183,-15.41207 -0.97822,-20.88556 -0.85528,-9.62609 -0.89703,-10.79423 -0.93163,-26.05306 -0.0304,-13.23888 -0.25686,-18.57138 -1.0356,-24.33769 -0.11144,-0.82504 -0.32806,-2.85655 -0.48215,-4.51449 -0.48117,-5.1885 -1.46519,-9.517756 -3.62743,-15.954661 -1.14961,-3.422486 -1.9985,-6.222729 -1.8864,-6.222729 0.11182,0 -0.0844,-0.287878 -0.43639,-0.640197 -0.35197,-0.351963 -0.97158,-1.660126 -1.37659,-2.906747 -1.15632,-3.559049 -4.0884,-10.360434 -4.87564,-11.309768 -0.39266,-0.473523 -1.05775,-1.543297 -1.47766,-2.376871 -0.67417,-1.338476 -2.10821,-3.004706 -4.19405,-4.873163 -0.36315,-0.325515 -1.23517,-0.696143 -1.93784,-0.824062 -0.70265,-0.128169 -2.8984,-0.834336 -4.87948,-1.569796 -1.981,-0.73541 -4.08281,-1.337155 -4.67062,-1.337155 -0.58782,0 -2.12629,-0.307713 -3.41882,-0.683174 -1.29255,-0.375868 -2.59722,-0.588369 -2.89928,-0.472507 -0.30212,0.115955 -1.50286,0.03051 -2.66841,-0.191238 -1.62723,-0.308733 -35.02244,-1.016372 -40.66055,-0.861548 -0.59212,0.01527 -6.793195,0.115461 -13.780151,0.220738 -6.986953,0.105297 -12.893064,0.208025 -13.124642,0.22837 -0.231635,0.02034 0.349723,0.655151 1.291875,1.410701 2.333044,1.871052 7.787088,7.544575 9.02862,9.391976 0.557096,0.828942 1.803226,2.379209 2.769179,3.445017 0.965955,1.065808 1.756562,2.070988 1.756892,2.233746 3.32e-4,0.162749 0.675406,0.186153 1.500169,0.05238 1.756396,-0.284827 2.638547,0.878839 1.36948,1.806812 -0.933104,0.682309 -0.927107,0.71532 0.521853,2.883045 0.680757,1.018507 1.366521,2.270265 1.523873,2.781781 0.157277,0.511516 0.569292,1.165039 0.915393,1.452307 0.346123,0.287367 0.629258,0.885502 0.629258,1.329526 0,0.444022 0.649435,2.212791 1.443141,3.930593 0.79373,1.717804 1.97623,5.351826 2.62778,8.075523 0.65153,2.723746 1.36605,5.678973 1.58785,6.567122 0.22181,0.888188 0.66573,1.614859 0.98652,1.614859 0.92352,0 1.24806,1.41492 0.45714,1.99322 -0.59368,0.43436 -0.63286,0.87803 -0.26705,3.02576 0.23573,1.38436 0.54662,4.12713 0.69081,6.09502 0.14421,1.96795 0.33817,4.48712 0.43116,5.5982 0.70036,8.37357 1.02771,59.80704 0.43313,68.05478 -0.11368,1.57637 -0.401,7.12933 -0.63855,12.33991 -0.59215,12.98856 -1.15602,19.0133 -2.62397,28.03524 -1.32898,8.16798 -1.32844,8.4754 0.0129,7.42022 0.60677,-0.47708 1.10322,-1.00035 1.10322,-1.16236 z M 91.511087,99.539965 l 1.653002,-1.015956 -2.08364,-2.393654 c -1.214861,-1.395647 -2.352982,-2.323667 -2.729597,-2.225761 -0.35526,0.09259 -2.240743,0.723203 -4.189943,1.401845 -3.48886,1.214687 -3.533704,1.248611 -2.882322,2.178566 0.363923,0.519603 0.946163,0.944704 1.293862,0.944704 0.347682,0 0.816377,0.484198 1.041481,1.076533 0.588567,1.548028 5.399929,1.568588 7.897157,0.03567 z m 10.450673,0.361628 c -0.14385,-0.374846 -0.26138,-0.981526 -0.26138,-1.348593 0,-0.835148 -2.683029,-0.566606 -4.77721,0.478102 -0.761154,0.379425 -1.693264,0.693338 -2.071368,0.696956 -0.378105,0.0038 -0.978114,0.194292 -1.333373,0.424192 -0.439043,0.28381 0.851673,0.4196 4.029387,0.42418 4.087994,0.005 4.642504,-0.0788 4.413954,-0.674521 z M 79.737934,98.64424 c -0.316724,-0.591717 -0.845199,-1.075927 -1.174413,-1.075927 -0.329232,0 -0.478057,-0.195303 -0.330704,-0.433336 0.305468,-0.49438 -3.924949,-7.711152 -4.692956,-8.005839 -0.277042,-0.106257 -2.144712,0.412489 -4.150383,1.153238 -2.00567,0.740546 -4.276468,1.552699 -5.046219,1.804771 -1.817978,0.595232 -1.799056,0.665575 0.861256,3.200938 1.243442,1.185025 2.574825,2.615456 2.958631,3.178699 0.658767,0.966789 1.008212,1.036562 6.244128,1.247133 6.402085,0.257359 6.075833,0.322973 5.330642,-1.069577 z M 47.110357,94.147509 c -2.068144,-2.592019 -4.291321,-5.498761 -4.940393,-6.459441 -1.373492,-2.032893 -2.016239,-2.124648 -4.587398,-0.654894 -2.671518,1.527118 -2.74954,0.961383 -0.09287,-0.673258 1.210021,-0.744566 2.200045,-1.429012 2.200045,-1.521071 0,-0.09206 -1.211146,-1.693085 -2.691434,-3.55783 -1.480289,-1.864692 -3.66035,-4.671852 -4.84458,-6.238139 -1.18423,-1.566237 -2.329371,-2.796582 -2.544755,-2.734174 -0.574784,0.166833 -3.220001,5.398921 -3.509414,6.941609 -0.182449,0.972374 -0.01176,1.59711 0.642062,2.351032 0.4898,0.564719 0.890499,1.154359 0.890499,1.310299 0,0.156147 0.339145,0.669748 0.753602,1.141847 0.414473,0.471997 0.947382,1.156138 1.18423,1.520156 0.736111,1.131417 4.697446,6.451863 5.490524,7.374291 0.414471,0.482162 0.755387,0.992214 0.757575,1.133606 0.0021,0.141393 0.825762,1.173629 1.830172,2.293865 2.015234,2.247581 1.429516,2.114171 10.538697,2.400473 l 2.683686,0.08437 z m 16.443918,2.45189 c -2.570857,-3.596742 -2.262843,-3.448216 -5.090064,-2.454535 -3.23892,1.138389 -3.537042,0.855944 -0.44799,-0.42419 2.79674,-1.159182 2.814231,-0.960426 -0.378208,-4.297608 -2.821763,-2.949678 -3.312029,-3.068593 -6.335602,-1.536431 -1.176355,0.596092 -2.138831,0.933559 -2.138831,0.749906 0,-0.183616 1.162699,-0.864912 2.583775,-1.513852 2.921777,-1.334357 2.862174,-1.240364 1.78425,-2.813417 -0.43975,-0.641774 -1.122446,-1.699697 -1.517129,-2.351032 -0.412437,-0.680632 -1.097449,-1.184264 -1.610838,-1.184264 -0.663322,0 -6.865803,2.850442 -8.060775,3.704463 -0.216313,0.154619 3.192357,4.746617 5.721009,7.707233 1.213749,1.421071 2.530377,3.096619 2.925836,3.723386 0.39545,0.626766 1.066732,1.111216 1.491723,1.076584 0.498244,-0.04073 0.821658,0.281267 0.910527,0.905845 0.13514,0.950256 0.25019,0.968914 5.958036,0.968914 h 5.820224 z m -28.12528,0 c -0.70825,-1.006558 -2.062846,-2.799072 -3.010216,-3.983288 -0.947371,-1.184266 -3.029067,-3.857607 -4.625992,-5.940853 -3.477804,-4.536867 -3.375088,-4.617991 -4.377375,3.458806 -1.023459,8.247426 -1.218712,7.759459 3.054085,7.632562 1.942104,-0.05742 4.306229,0.04579 5.253609,0.229381 0.947387,0.184121 2.458514,0.356542 3.358065,0.384016 l 1.635552,0.05085 z m 61.87002,-0.132753 c 0.526801,-0.368749 1.151276,-0.551339 1.387704,-0.405368 0.23646,0.145984 0.429886,0.06046 0.429886,-0.190219 0,-0.250744 0.402972,-0.45623 0.895475,-0.45623 0.78163,0 0.85924,-0.178012 0.6106,-1.399555 -0.717053,-3.522745 -1.133647,-4.16268 -2.552045,-3.92022 -2.581319,0.440963 -7.101801,2.218324 -7.124884,2.801097 -0.0228,0.579724 4.035415,4.241218 4.700943,4.241218 0.381967,0 1.125519,-0.302126 1.652321,-0.670925 z M 84.259886,94.33168 c 1.657914,-0.805549 2.820628,-1.475652 2.583771,-1.489137 -0.236859,-0.01531 -0.173454,-0.187676 0.140897,-0.387052 0.433451,-0.274651 -0.02539,-1.143574 -1.898047,-3.594958 l -2.469599,-3.232619 -3.375001,1.125467 c -1.856256,0.618988 -3.327527,1.319197 -3.269514,1.556065 0.251003,1.024709 4.443283,7.533697 4.837849,7.511358 0.23936,-0.01531 1.791675,-0.683777 3.449608,-1.489327 z m -17.00986,-4.540636 c 2.013193,-0.750514 4.107792,-1.535711 4.654667,-1.744967 0.994322,-0.380436 0.994322,-0.380436 -0.174208,-2.459106 -0.642696,-1.143321 -1.584725,-2.600765 -2.093408,-3.238673 l -0.924885,-1.159953 -2.776573,1.028628 c -9.528036,3.529806 -9.121466,3.216802 -7.171382,5.521097 3.29788,3.896869 3.516667,4.093248 4.179491,3.751 0.35527,-0.183616 2.293102,-0.94755 4.306291,-1.698026 z m 24.330552,0.329081 c 0.947396,-0.537919 2.627732,-1.320929 3.734088,-1.739983 3.029987,-1.147746 3.219078,-1.559623 2.057884,-4.482442 -0.541513,-1.363096 -1.003951,-2.514148 -1.027624,-2.557888 -0.194239,-0.359085 -11.439102,3.312014 -11.439102,3.734624 0,0.16733 0.407295,0.769793 0.905163,1.338935 0.49783,0.569144 1.499617,1.858393 2.226157,2.864989 1.542934,2.137673 1.344205,2.090466 3.543434,0.841765 z m -15.93245,-3.71423 c -0.934545,-0.364678 1.031694,-0.934993 3.144876,-0.912053 0.545912,0.0052 0.89111,-0.153608 0.767098,-0.353998 -0.123975,-0.200904 0.260219,-0.58608 0.853771,-0.85651 1.192199,-0.543205 1.136999,-0.77788 -0.883018,-3.754564 -0.562172,-0.828385 -1.085514,-1.69629 -1.162934,-1.928626 -0.109441,-0.328566 -6.505753,1.437862 -7.166331,1.97903 -0.600911,0.492343 3.620704,6.230511 4.556055,6.192824 0.632676,-0.02544 0.615442,-0.0829 -0.109441,-0.366206 z m -8.975983,-5.521347 c 1.359951,-0.196325 1.359951,-0.196325 0.55599,-1.553163 -0.442192,-0.746346 -1.356569,-2.016772 -2.031988,-2.823082 l -1.228029,-1.466038 -3.203625,1.315438 c -5.465906,2.244324 -7.935187,3.275444 -8.075361,3.372182 -0.07417,0.05138 0.651706,1.130505 1.613008,2.398487 0.961296,1.267982 1.748652,2.443193 1.749673,2.611596 8.61e-4,0.16836 2.085022,-0.586079 4.631114,-1.676605 2.546098,-1.090526 5.241245,-2.070988 5.989218,-2.178815 z M 45.63058,81.801434 c 2.061579,-1.09251 3.877907,-2.063155 4.036281,-2.156946 0.430493,-0.254816 -2.334166,-4.384585 -3.125342,-4.668445 -0.376326,-0.13479 -1.411733,0.05849 -2.300881,0.430291 -2.48689,1.039104 -2.762531,0.517873 -0.328924,-0.621938 l 2.153755,-1.008791 -2.153302,-3.205358 c -2.338434,-3.480925 -2.930872,-3.922151 -4.359126,-3.246555 -0.516924,0.244645 -2.458468,1.140676 -4.314534,1.991542 l -3.374671,1.546961 0.983477,1.618369 c 0.540915,0.89008 1.096245,1.715261 1.23407,1.833665 0.137826,0.118511 1.004321,1.281157 1.925553,2.583776 1.552693,2.195601 5.457235,6.872236 5.747976,6.884645 0.07003,0.0029 1.814085,-0.888452 3.875668,-1.980963 z m 42.289652,-0.187172 c 1.539494,-0.522707 3.477327,-1.200032 4.306284,-1.505152 0.828975,-0.305169 1.839738,-0.659422 2.246151,-0.787391 1.055239,-0.332127 -2.182195,-5.685577 -3.379896,-5.58894 -0.882428,0.0712 -10.44892,3.407634 -10.812125,3.770787 -0.124165,0.1241 0.526617,1.403529 1.446145,2.84312 1.860082,2.912087 1.54207,2.846984 6.193441,1.267576 z M 71.460885,78.510628 c -0.355981,-0.252784 -0.130818,-0.299068 0.63734,-0.131737 1.220007,0.266515 5.24374,-1.223938 4.976661,-1.84318 -1.304476,-3.024236 -2.751032,-5.667113 -3.101859,-5.667113 -0.24556,0 -2.152043,0.706977 -4.23665,1.571015 l -3.790197,1.571018 1.076885,1.33573 c 0.592291,0.734646 1.493555,2.046168 2.002813,2.91448 0.839071,1.430637 1.022514,1.534752 1.955716,1.109548 0.7738,-0.352472 0.892943,-0.566345 0.47927,-0.85997 z m -16.447317,-0.89069 c 1.63786,-0.786984 4.092183,-1.875273 5.454046,-2.418475 2.892999,-1.153952 2.905288,-1.197335 1.076575,-3.803746 -0.769752,-1.097087 -1.518915,-2.167218 -1.664805,-2.378091 -0.150904,-0.218198 -0.615011,-0.185137 -1.076576,0.0763 -1.027,0.581604 -4.118065,1.880001 -4.686974,1.968756 -0.236865,0.0356 -1.593331,0.634958 -3.014408,1.328812 l -2.583774,1.261677 1.722518,2.669427 c 0.94738,1.468176 1.738932,2.682244 1.758996,2.69791 0.01984,0.01527 1.376543,-0.615426 3.014402,-1.40236 z M 81.07975,75.680224 c 1.114706,-0.85397 4.731165,-2.658287 5.328156,-2.658287 0.561216,0 3.641712,-1.473618 3.654368,-1.748171 0.0056,-0.132233 -0.916052,-1.27612 -2.049245,-2.541305 l -2.060353,-2.300374 -2.353608,0.55724 c -2.00098,0.473524 -6.718201,2.287049 -7.198116,2.76698 -0.219254,0.219214 3.044189,6.710697 3.373678,6.710697 0.153038,0 0.740281,-0.353998 1.30512,-0.78678 z M 66.877612,72.35468 c 1.448989,-0.667255 1.448989,-0.667255 0.157102,-0.448092 l -1.291889,0.218706 1.291889,-0.608814 c 0.71054,-0.334672 1.541839,-0.617564 1.847329,-0.628246 0.909357,-0.03051 3.966166,-1.724008 3.966166,-2.19565 0,-0.240067 -0.485982,-1.395237 -1.079968,-2.567398 l -1.079967,-2.131208 -2.158373,0.850764 c -1.945746,0.766945 -6.432024,2.906493 -6.816072,3.250676 -0.125581,0.112401 3.441952,4.926519 3.650912,4.926519 0.0351,0 0.715928,-0.300086 1.512871,-0.667257 z M 53.631381,70.239086 c 5.14424,-2.4171 5.65857,-2.952574 4.148644,-4.319025 -0.471592,-0.42673 -1.351768,-1.619538 -1.955984,-2.650507 -1.316296,-2.246104 -0.967217,-2.220013 -5.422095,-0.405368 -6.254362,2.547361 -6.836885,2.836102 -6.821602,3.381289 0.01932,0.68648 4.189324,6.346019 4.675897,6.346019 0.202989,0 2.621801,-1.058534 5.37514,-2.352254 z M 35.168145,68.296168 c 1.657919,-0.765061 3.450413,-1.560184 3.983318,-1.766987 1.247699,-0.484203 1.210889,-0.749448 -0.340622,-2.45525 -1.559013,-1.713987 -2.064595,-1.536938 -4.780025,1.673659 -1.032376,1.220631 -2.131635,2.483221 -2.442797,2.805736 -0.547029,0.566954 -0.32221,1.640239 0.272516,1.301042 0.161278,-0.09206 1.649701,-0.793137 3.307626,-1.5582 z m 43.286761,-1.727619 c 1.297964,-0.707233 2.989742,-1.615166 3.759488,-2.017584 1.71878,-0.898675 1.725181,-0.812872 -0.228175,-3.066353 l -1.601997,-1.848163 -3.97536,1.587548 -3.975339,1.587549 1.343913,2.521418 c 1.558603,2.924245 1.571847,2.927753 4.67747,1.235585 z M 65.179113,64.906388 c 2.058416,-0.983871 3.947803,-1.788911 4.198638,-1.788911 0.825475,0 0.480236,-0.905185 -1.328861,-3.484231 -0.981701,-1.399512 -2.094175,-2.544562 -2.472169,-2.544562 -1.301227,0 -9.088497,3.229823 -8.915614,3.697801 0.32231,0.872483 4.295045,6.154982 4.536026,6.031489 0.131682,-0.06764 1.923555,-0.927666 3.98198,-1.911586 z M 48.302338,62.486335 c 2.486885,-1.098462 4.669986,-2.145246 4.85135,-2.326162 0.366051,-0.365187 -2.579154,-4.363375 -3.214269,-4.363375 -1.764219,0 -10.816881,5.012779 -10.388966,5.752764 0.77286,1.336445 3.013486,3.288008 3.584333,3.121895 0.355269,-0.103246 2.680668,-1.086661 5.167552,-2.185122 z m 26.985455,-2.673039 c 3.319911,-1.927049 3.308267,-2.06051 -0.363114,-4.157692 -2.260778,-1.29138 -2.90542,-1.373877 -4.952629,-0.633585 -1.778427,0.643096 -1.777917,0.653677 0.181013,3.787521 1.789937,2.863464 1.895266,2.884063 5.13473,1.003756 z m -18.37287,-1.15029 c 5.496443,-2.063409 5.915411,-2.455756 5.931256,-5.554354 0.0073,-1.355973 0.151915,-1.361619 -5.877607,0.229386 -4.224017,1.114535 -4.414667,1.385168 -2.788688,3.958875 0.675312,1.068909 1.227838,1.940883 1.227838,1.93773 0,-0.0032 0.678241,-0.260413 1.507201,-0.571532 z m 11.502328,-5.290738 c 0.08911,-0.267531 -0.379275,-0.579365 -1.040889,-0.692686 -0.6616,-0.113413 -1.590477,-0.353998 -2.06417,-0.534302 -0.616387,-0.234982 -0.500478,-0.0032 0.407709,0.815619 1.273669,1.148101 2.39513,1.31915 2.69735,0.411472 z"
       id="path164"
       inkscape:connector-curvature="0" />
  </g>
</svg>
