<?xml version="1.0" encoding="UTF-8" standalone="no"?>
<!-- Created with Inkscape (http://www.inkscape.org/) -->

<svg
   xmlns:dc="http://purl.org/dc/elements/1.1/"
   xmlns:cc="http://creativecommons.org/ns#"
   xmlns:rdf="http://www.w3.org/1999/02/22-rdf-syntax-ns#"
   xmlns:svg="http://www.w3.org/2000/svg"
   xmlns="http://www.w3.org/2000/svg"
   xmlns:sodipodi="http://sodipodi.sourceforge.net/DTD/sodipodi-0.dtd"
   xmlns:inkscape="http://www.inkscape.org/namespaces/inkscape"
   version="1.1"
   id="svg824"
   width="145.92"
   height="192"
   viewBox="0 0 145.92 192"
   sodipodi:docname="reference.svg"
   inkscape:version="0.92.4 5da689c313, 2019-01-14">
  <metadata
     id="metadata830">
    <rdf:RDF>
      <cc:Work
         rdf:about="">
        <dc:format>image/svg+xml</dc:format>
        <dc:type
           rdf:resource="http://purl.org/dc/dcmitype/StillImage" />
        <dc:title></dc:title>
      </cc:Work>
    </rdf:RDF>
  </metadata>
  <defs
     id="defs828" />
  <sodipodi:namedview
     pagecolor="#ffffff"
     bordercolor="#666666"
     borderopacity="1"
     objecttolerance="10"
     gridtolerance="10"
     guidetolerance="10"
     inkscape:pageopacity="0"
     inkscape:pageshadow="2"
     inkscape:window-width="3200"
     inkscape:window-height="1734"
     id="namedview826"
     showgrid="false"
     inkscape:zoom="6.59375"
     inkscape:cx="63.860473"
     inkscape:cy="92.966825"
     inkscape:window-x="0"
     inkscape:window-y="66"
     inkscape:window-maximized="1"
     inkscape:current-layer="svg824" />
  <path
     style="fill:#000000;stroke-width:0.31999999"
     d="m 51.52,185.91008 c -1.32,-0.12453 -3.652912,-0.24525 -5.18425,-0.26826 -1.531337,-0.023 -3.475337,-0.17186 -4.32,-0.3308 -0.844662,-0.15893 -2.75975,-0.46644 -4.25575,-0.68335 -4.336822,-0.62881 -6.791389,-1.49686 -10.88,-3.84769 -0.44,-0.25299 -0.872,-0.53198 -0.96,-0.61998 -0.088,-0.088 -1.192807,-0.85978 -2.455128,-1.71508 -3.324505,-2.25253 -4.067829,-3.09911 -5.021319,-5.7188 C 17.479031,170.07611 17.395044,169.28 18.08,169.28 c 0.389626,0 0.48639,-0.55731 0.513941,-2.96 0.04453,-3.88305 0.17386,-5.49259 0.759333,-9.44969 0.655289,-4.42897 0.656247,-4.41799 -0.384486,-4.40292 -1.689717,0.0245 -0.985424,-1.95812 0.909221,-2.55945 0.407758,-0.12942 0.616973,-0.51967 0.648425,-1.2095 0.09302,-2.04022 0.227156,-3.30011 0.56836,-5.33844 0.191499,-1.144 0.421956,-2.58976 0.512127,-3.21281 0.09017,-0.62305 0.225705,-1.45349 0.301187,-1.84544 0.07548,-0.39195 0.218845,-1.61018 0.318584,-2.70719 0.09974,-1.09701 0.315329,-3.14656 0.479088,-4.55456 0.163759,-1.408 0.385971,-3.856 0.493805,-5.44 0.302967,-4.45037 0.443535,-6.38249 0.791555,-10.88 0.177047,-2.288 0.397898,-5.24 0.49078,-6.56 0.09288,-1.32 0.234263,-3.048 0.31418,-3.84 0.07992,-0.792 0.228916,-3.6 0.331108,-6.24 0.102192,-2.64 0.238288,-5.304 0.302435,-5.92 0.468645,-4.500365 0.740555,-8.212682 0.972702,-13.28 0.08869,-1.936 0.229111,-4.6 0.31204,-5.92 0.415131,-6.60769 0.597259,-10.314858 0.620987,-12.64 0.01437,-1.408 0.120385,-2.704563 0.235593,-2.881254 0.334933,-0.513671 0.284147,-4.911636 -0.05917,-5.123815 -0.507032,-0.313363 -0.35614,-1.491616 0.248203,-1.938112 0.448675,-0.331485 0.480482,-0.494355 0.16,-0.819277 -0.542034,-0.549545 -0.504983,-1.712051 0.06977,-2.189052 0.258374,-0.214429 0.447682,-0.484061 0.420685,-0.599181 -0.027,-0.11512 0.04708,-1.217309 0.164605,-2.449309 0.117529,-1.232 0.297418,-3.32 0.399754,-4.64 0.102336,-1.32 0.240834,-2.616 0.307774,-2.88 0.06694,-0.264 0.214245,-2.784 0.327346,-5.6 0.113102,-2.816 0.393133,-5.768 0.622292,-6.56 0.229159,-0.792 0.749397,-2.592 1.156084,-4 1.075185,-3.722426 2.588405,-6.028679 3.783425,-5.766208 0.666138,0.146308 1.214205,-0.0064 2.044064,-0.569564 C 39.59825,12.687454 51.524589,8.968681 56,8.4470931 57.830995,8.2336992 60.219219,7.8627834 63.754435,7.2427485 68.591821,6.3943286 75.449312,6.2378224 81.005123,6.8490416 88.310112,7.6526957 93.13129,8.319792 94.483878,8.7140698 c 0.887229,0.2586259 1.51849,0.2535542 2.4,-0.01928 0.964272,-0.2984509 1.25914,-0.2856093 1.521236,0.06625 0.178812,0.2400531 1.330812,0.9041318 2.559996,1.4757302 1.22919,0.571599 3.88906,2.138162 5.91082,3.481251 5.08571,3.378518 5.45004,3.579301 10.88407,5.998276 0.968,0.430908 3.776,1.818903 6.24,3.084433 2.464,1.26553 6.136,3.137398 8.16,4.159707 4.99217,2.521511 4.89236,2.359582 4.91958,7.98111 0.0153,3.158755 -0.14596,5.372266 -0.52004,7.138455 -0.29822,1.408 -0.61377,3.136 -0.70121,3.84 -0.0874,0.704 -0.45877,2.648 -0.82516,4.32 -0.91585,4.179417 -1.18194,6.345312 -1.23835,10.08 -0.0266,1.76 -0.25421,4.424 -0.50584,5.92 -0.25163,1.496 -0.60547,3.8 -0.78632,5.12 -0.18085,1.32 -0.40358,2.76 -0.49496,3.2 -0.0914,0.44 -0.24028,1.592 -0.33089,2.56 -0.0906,0.968 -0.22805,2.192 -0.30543,2.72 -0.0774,0.528 -0.21456,2.76 -0.30486,4.96 -0.18768,4.572844 -0.70258,11.868243 -1.15184,16.319998 -0.16873,1.672 -0.32395,4.696 -0.34492,6.72 -0.021,2.024 -0.1513,3.824 -0.28961,4 -0.13831,0.176 -0.32686,0.968 -0.41899,1.76 -0.0921,0.792 -0.39973,2.664 -0.68354,4.16 -0.84265,4.44178 -1.44164,8.06579 -1.58672,9.6 -0.34465,3.6447 -0.53414,5.21872 -0.65103,5.40785 -0.0696,0.1127 -0.21684,2.14604 -0.32709,4.51853 -0.11025,2.37249 -0.28254,4.8753 -0.38288,5.5618 -0.10034,0.6865 -0.20211,4.51307 -0.22617,8.5035 -0.0432,7.17303 -0.0528,7.26887 -0.84373,8.44964 -0.87815,1.31099 -3.93651,3.19821 -5.76,3.55433 -1.71067,0.33408 -6.85323,2.16968 -10.57808,3.77576 -1.83806,0.79253 -3.70192,1.54732 -4.14192,1.67732 -0.44,0.12999 -2.6,1.09389 -4.8,2.14199 -8.737338,4.16257 -13.440941,6.63514 -15.066592,7.92015 -2.310189,1.82609 -9.28345,5.56545 -9.573408,5.13366 -0.269437,-0.40123 -1.635168,-0.18395 -4.48,0.71275 -4.73801,1.49343 -10.830662,1.89185 -18.24,1.1928 z m 11.84,-1.85916 c 0,-0.14799 0.828,-0.45426 1.84,-0.6806 2.691709,-0.602 7.295027,-2.16106 9.68,-3.27843 1.144,-0.53597 2.26,-0.97991 2.48,-0.98653 0.403581,-0.0121 0.525341,-0.34466 0.416512,-1.13747 -0.03673,-0.26754 0.09142,-0.33896 0.336467,-0.18751 0.270586,0.16723 0.335251,0.0869 0.204426,-0.25405 -0.155671,-0.40568 -0.03155,-0.45568 0.665622,-0.26818 0.834707,0.22451 0.87568,0.16797 1.576973,-2.1759 0.396,-1.32352 0.72,-2.73846 0.72,-3.14432 0,-0.40586 0.108,-0.73836 0.24,-0.73889 0.132,-6.4e-4 0.247674,-1.62052 0.257053,-3.6 0.0094,-1.97947 0.105753,-6.45484 0.214169,-9.94526 0.188784,-6.07803 0.172973,-6.32437 -0.37415,-5.82923 -0.512163,0.4635 -0.71641,0.46901 -1.97417,0.0533 -4.025785,-1.33077 -9.721184,-2.46228 -13.242902,-2.63098 -0.88,-0.0422 -3.04,-0.15855 -4.8,-0.25865 -3.637821,-0.20691 -16.226506,-0.5604 -18.4,-0.51667 -1.963517,0.0395 -8.275926,0.62948 -11.84,1.1066 -1.367049,0.18301 -6.18206,1.17433 -7.382904,1.52 -1.182416,0.34036 -1.572472,1.31648 -2.086682,5.2219 -0.06952,0.528 -0.199831,1.32 -0.28958,1.76 -0.508455,2.49271 -0.811219,11.10832 -0.426385,12.13345 0.18527,0.49353 0.17281,0.8461 -0.03443,0.97418 -0.439122,0.27139 0.170338,2.44393 0.884551,3.15315 1.736784,1.72465 6.703287,5.00971 9.655428,6.38652 1.25247,0.58412 5.700899,1.59054 8.08,1.82802 1.188,0.11859 2.16,0.35666 2.16,0.52904 0,0.17237 0.120259,0.23909 0.267245,0.14824 0.146982,-0.0908 2.702982,-0.0323 5.68,0.13016 2.977014,0.16243 7.140755,0.38807 9.252755,0.50143 2.112,0.11336 3.9,0.26229 3.973334,0.33096 0.263248,0.2465 2.266666,0.11903 2.266666,-0.14423 z m -16.88,-5.79825 c -0.396,-0.37268 -0.72,-0.94748 -0.72,-1.27734 0,-0.53548 -0.104358,-0.56035 -0.973962,-0.23211 -1.050009,0.39634 -3.57456,-0.62536 -4.237443,-1.71491 -0.410989,-0.67553 1.347139,-3.24197 2.813629,-4.10722 1.24575,-0.73501 1.367798,-1.15442 0.587005,-2.01719 -0.892464,-0.98616 -0.153581,-2.03138 1.787747,-2.52892 1.87975,-0.48177 1.956608,-0.65387 0.693626,-1.55319 -1.672624,-1.19101 -4.374231,-0.93625 -7.404237,0.69821 -2.5212,1.36 -2.5212,1.36 -3.368355,0.51815 -1.795988,-1.78473 0.237568,-5.46828 4.096796,-7.42087 2.579204,-1.30496 4.230058,-1.09145 5.186378,0.67076 0.47319,0.87196 0.47319,0.87196 0.49303,-0.56804 0.01091,-0.792 0.304679,-2.06772 0.652813,-2.83494 0.348135,-0.76723 0.632973,-1.60946 0.632973,-1.87164 0,-1.85933 3.514851,-5.35571 4.446963,-4.4236 0.402896,0.4029 0.419376,0.66227 0.09846,1.54975 -0.636336,1.75975 -0.473648,3.37367 0.494576,4.9063 0.905891,1.43397 1.178531,1.62664 1.52,1.07413 0.589824,-0.95436 4.229328,-0.0619 5.537325,1.35783 1.934051,2.09925 3.293862,8.50045 1.95767,9.21555 C 59.981443,168.11808 59.2,167.88574 59.2,167.2251 c 0,-2.12719 -2.08137,-3.11855 -5.040848,-2.40098 -1.011533,0.24527 -1.949834,0.41128 -2.085107,0.36893 -0.818067,-0.25616 -0.898023,1.47388 -0.104778,2.26713 1.147543,1.14754 1.04856,1.69836 -0.418198,2.32718 -0.736627,0.31581 -0.69433,0.36616 1.006918,1.1985 2.167251,1.06034 2.546013,1.48871 2.546013,2.8795 0,2.50662 -2.083501,4.66059 -3.868752,3.9996 -0.555968,-0.20585 -0.916429,-0.14589 -1.320314,0.21962 -0.952403,0.86192 -2.611436,0.9431 -3.434934,0.16809 z m 6.125763,-3.07884 c 0.339939,-0.88587 0.210211,-1.65923 -0.311936,-1.85959 C 51.420771,172.97921 51.2,173.0962 51.2,173.89383 c 0,1.08167 0.315533,1.78617 0.8,1.78617 0.226339,0 0.498934,-0.22778 0.605763,-0.50617 z M 45.056,174.336 c 0.426746,-0.42675 0.524384,-1.536 0.135203,-1.536 -0.510371,0 -1.671203,1.01284 -1.671203,1.45814 0,0.55952 1.003478,0.61038 1.536,0.0779 z M 39.68,162.56 c 1.070925,-0.63144 2.062352,-0.96 2.896794,-0.96 1.188524,0 1.243392,-0.0404 0.868944,-0.64 -0.725882,-1.16232 -3.065815,-0.46687 -4.965738,1.47585 -1.341866,1.37209 -0.980006,1.40953 1.2,0.12415 z m 10.701328,-0.69456 c 0.855136,-1.44763 0.70521,-3.29809 -0.380957,-4.70185 -0.484205,-0.62579 -0.969091,-1.3596 -1.077523,-1.63069 -0.35457,-0.88646 -1.314806,1.93064 -1.435958,4.21275 -0.109431,2.06126 -0.07956,2.16375 0.7596,2.60605 1.280604,0.67498 1.475036,0.63069 2.134838,-0.48626 z m 5.919571,0.21035 c 0.450506,0.10703 1.08569,0.2741 1.411523,0.37126 0.522394,0.15578 0.565309,0.05 0.36305,-0.89519 -0.31015,-1.44933 -0.655606,-1.80953 -2.111411,-2.20154 -1.617808,-0.43563 -2.308343,-0.0522 -2.787754,1.54793 -0.564947,1.88563 -0.518128,1.95575 0.964592,1.44491 0.737495,-0.25408 1.709495,-0.3744 2.16,-0.26737 z M 84.48,175.36 c 0,-0.176 0.141517,-0.32 0.314483,-0.32 0.525971,0 6.500314,-2.91972 7.525517,-3.6778 1.282688,-0.94847 2.887981,-1.74846 6.72,-3.34888 1.76,-0.73505 3.488,-1.46393 3.84,-1.61973 6.07852,-2.69036 16.13482,-6.18596 16.9244,-5.88297 0.2975,0.11416 0.5156,0.0355 0.5156,-0.18591 0,-0.21107 0.28751,-0.74928 0.63892,-1.19601 1.0741,-1.36551 1.37407,-3.22058 1.43732,-8.8887 0.0531,-4.75802 0.27169,-8.06716 0.67559,-10.2271 0.0645,-0.34491 0.1943,-1.64091 0.28846,-2.88 0.0942,-1.2391 0.26557,-3.0449 0.38091,-4.0129 0.11534,-0.968 0.19238,-1.84513 0.17119,-1.94919 -0.0212,-0.10405 0.0879,-1.11205 0.24236,-2.24 0.15447,-1.12794 0.37134,-2.84281 0.48193,-3.81081 0.24275,-2.12495 0.52592,-3.8955 1.56097,-9.76 0.45165,-2.55899 0.87865,-6.53822 0.99582,-9.28 0.31259,-7.315056 0.50338,-10.511699 0.65905,-11.042643 0.13226,-0.45113 0.26919,-2.195536 0.62392,-7.948967 0.0797,-1.293382 0.31867,-2.831904 0.53094,-3.418931 0.28505,-0.788281 0.29254,-1.179881 0.0286,-1.497849 -0.19652,-0.236791 -0.2891,-1.002272 -0.20574,-1.701069 0.17059,-1.430029 0.37203,-2.550541 0.45851,-2.550541 0.0318,0 0.0908,-0.648 0.13112,-1.44 0.10338,-2.029725 0.48883,-3.2 1.05396,-3.2 0.34867,0 0.39281,-0.112128 0.15745,-0.4 -0.21606,-0.264272 -0.22616,-0.997206 -0.0298,-2.16 0.1635,-0.968 0.35404,-2.151955 0.42342,-2.631014 0.0694,-0.479056 0.23244,-1.043005 0.36236,-1.253223 0.12992,-0.210214 0.2748,-2.605296 0.32196,-5.322403 0.0472,-2.717104 0.18058,-5.501539 0.29649,-6.187632 0.11592,-0.686093 0.25804,-1.571056 0.31583,-1.966586 0.0578,-0.395526 0.32002,-1.799142 0.58274,-3.119142 0.26271,-1.32 0.57027,-3.11 0.68347,-3.977776 0.1132,-0.867776 0.28369,-1.703779 0.37887,-1.857782 0.0952,-0.154 0.21933,-1.646452 0.27589,-3.316554 0.0566,-1.670106 0.26073,-3.226797 0.4537,-3.459315 0.25467,-0.306855 0.25046,-1.305725 -0.0154,-3.643245 l -0.36621,-3.220479 -2.75736,-1.424953 c -1.51654,-0.783723 -4.41336,-2.317563 -6.43736,-3.408532 -3.31621,-1.787493 -5.98606,-3.111232 -10.24,-5.077106 -3.20317,-1.48028 -6.70351,-3.527437 -9.44,-5.52093 C 104.15228,14.395242 99.898029,12.16 99.400326,12.16 c -0.276678,0 -0.854102,6.279375 -0.971056,10.56 -0.117286,4.292873 -0.419584,6.916207 -1.622499,14.08 -0.251203,1.496 -0.613913,4.364144 -0.806025,6.373654 -0.192112,2.009511 -0.433319,3.78961 -0.536016,3.955776 -0.102698,0.16617 -0.0048,0.41457 0.217584,0.552 0.508844,0.314484 0.154579,1.91857 -0.423719,1.91857 -0.231117,0 -0.412739,0.382992 -0.417315,0.88 -0.0044,0.484 -0.129226,2.032 -0.27727,3.44 -0.148042,1.408 -0.312372,3.208 -0.365178,4 -0.05281,0.792 -0.185181,2.168381 -0.294166,3.058621 -0.149732,1.223081 -0.0824,1.714694 0.275555,2.011766 0.602797,0.500279 0.335661,1.569706 -0.454771,1.820579 -0.332999,0.10569 -0.61745,0.434458 -0.632116,0.730599 -0.01466,0.296137 -0.07094,0.898435 -0.125046,1.338435 -0.14303,1.163114 -0.453978,7.134973 -0.649811,12.48 -0.222717,6.078666 -0.780618,11.363011 -1.739888,16.48 -0.769968,4.107181 -1.269277,7.2009 -1.446099,8.96 -0.213386,2.1229 -0.669956,5.84612 -1.137981,9.28 -0.281226,2.06333 -0.389661,3.22246 -0.808256,8.64 -0.08159,1.056 -0.246275,2.712 -0.365962,3.68 -0.119683,0.968 -0.241949,2.48 -0.271699,3.36 -0.101267,2.99549 -0.661411,8.6144 -1.020813,10.24 -0.116736,0.528 -0.226963,2.328 -0.244947,4 -0.01798,1.672 -0.139805,4.48 -0.270704,6.24 -0.345286,4.64248 -0.455581,17.12 -0.151334,17.12 0.142563,0 0.259206,-0.35107 0.259206,-0.78014 0,-0.42908 0.210794,-1.68908 0.468429,-2.8 0.257635,-1.11093 0.557939,-2.81186 0.667341,-3.77986 0.109401,-0.968 0.466387,-3.344 0.793302,-5.28 0.326915,-1.936 0.683184,-5.032 0.791709,-6.88 0.169229,-2.88168 0.883059,-9.1429 1.273513,-11.17037 0.06678,-0.34678 0.209079,-2.33131 0.316212,-4.41007 0.107132,-2.07876 0.32655,-5.21956 0.487593,-6.97956 0.161043,-1.76 0.376967,-4.856 0.479831,-6.88 0.236704,-4.65755 0.411379,-6.63682 0.982803,-11.13639 0.252598,-1.98901 0.461763,-5.37301 0.464813,-7.52 0.0054,-3.773456 0.44991,-9.27137 1.104812,-13.66361 0.0656,-0.44 0.212666,-1.88 0.3268,-3.2 0.114135,-1.32 0.423527,-3.48 0.687536,-4.8 0.63321,-3.165904 0.693085,-3.586499 1.229988,-8.64 0.252432,-2.376 0.673209,-5.472 0.935052,-6.88 0.572484,-3.078358 1.202596,-8.611286 1.63993,-14.4 0.106374,-1.408 0.326637,-3.928 0.489472,-5.6 0.162838,-1.672 0.378934,-5.056 0.480218,-7.52 0.101283,-2.464 0.377916,-5.848 0.614742,-7.52 0.236822,-1.672 0.366304,-3.616 0.287738,-4.32 -0.601024,-5.385412 -0.564864,-5.839943 0.508736,-6.395124 0.98422,-0.50896 2.24943,-0.409581 2.24943,0.176688 0,0.16414 0.18,0.302436 0.4,0.307325 0.22,0.0049 0.80712,0.424012 1.30472,0.931384 1.00588,1.025643 4.55576,2.836073 7.25528,3.700172 0.968,0.309851 3.848,1.566052 6.4,2.791558 2.552,1.225506 4.928,2.352194 5.28,2.503751 0.352,0.151557 1.144,0.491416 1.76,0.755242 0.616,0.263826 1.78673,0.882281 2.60162,1.374344 0.81489,0.492063 2.22375,1.32666 3.1308,1.85466 1.77572,1.033661 2.10096,1.657386 1.8756,3.596883 -0.16882,1.452919 -1.36842,7.763549 -2.02317,10.643117 -0.60619,2.666022 -1.37609,10.96273 -1.58865,17.12 -0.38212,11.068557 -0.46918,12.620749 -0.78753,14.041299 -0.18372,0.819808 -0.40955,2.027895 -0.50185,2.684631 -0.0923,0.656739 -0.51611,3.35407 -0.94182,5.99407 -0.4257,2.64 -0.85219,5.664 -0.94775,6.72 -0.0956,1.056 -0.32829,3.648 -0.5172,5.76 -0.1889,2.112 -0.45889,4.28193 -0.59997,4.82207 -0.14108,0.54014 -0.28205,2.41214 -0.31329,4.16 -0.0514,2.87531 -0.45829,6.90168 -0.82243,8.13793 -0.0778,0.264 -0.22585,0.984 -0.32909,1.6 -0.10323,0.616 -0.39315,2.128 -0.64426,3.36 -0.55932,2.74417 -1.93604,10.45173 -2.37206,13.28 -0.17637,1.144 -0.40046,4.24 -0.498,6.88 -0.0975,2.64 -0.25218,5.304 -0.34367,5.92 -0.0915,0.616 -0.21739,2.56 -0.27979,4.32 -0.12043,3.39711 -0.4025,7.89657 -0.56169,8.96 -0.18561,1.23998 -1.99291,1.96895 -2.38008,0.96 -0.23425,-0.61045 -0.88442,-0.61608 -1.38577,-0.012 -0.45419,0.54726 -3.77047,1.8639 -10.24995,4.06948 -2.552,0.86869 -5.250432,1.85912 -5.996512,2.20097 -0.746083,0.34184 -1.44432,0.62154 -1.551638,0.62154 -0.107322,0 -0.64889,0.19468 -1.203488,0.43263 -7.642647,3.27907 -9.649028,3.84099 -10.538522,2.95149 -0.471018,-0.47102 -0.513459,-0.38778 -0.515619,1.01131 -0.0013,0.83851 -0.153523,2.02762 -0.338288,2.64245 -0.41664,1.38646 -0.418784,1.60212 -0.01594,1.60212 0.176,0 0.32,-0.144 0.32,-0.32 z m 6.4,-8.6372 c 1.144,-0.48717 2.944,-1.17958 4,-1.53868 1.056,-0.35911 2.619264,-0.95387 3.473917,-1.32169 2.093133,-0.90082 12.716673,-4.56623 13.352753,-4.60705 0.45818,-0.0294 0.76514,-0.85538 0.31788,-0.85538 -0.29028,0 -1.84022,0.5161 -4.82455,1.60648 -1.496,0.5466 -3.656,1.2594 -4.8,1.58402 -1.144,0.32461 -2.485373,0.74755 -2.980832,0.93985 -0.495456,0.19231 -1.318128,0.34965 -1.828154,0.34965 -0.510025,0 -1.668352,0.29209 -2.574054,0.64908 -3.856266,1.52 -6.263053,1.07987 -5.908765,-1.08054 0.333594,-2.03421 0.820973,-7.34604 0.686378,-7.48064 -0.180307,-0.1803 -1.172288,5.31338 -1.919815,10.6321 -0.07421,0.528 -0.241468,1.30039 -0.371692,1.71643 -0.279831,0.89403 -0.0016,0.84512 3.376934,-0.59363 z m 3.588816,-5.26297 c 0.75415,-0.2531 2.235184,-0.66769 3.291184,-0.92132 2.5029,-0.60115 9.79591,-2.9139 11.84,-3.75468 3.17375,-1.30544 2.92288,-0.9179 3.1675,-4.89323 0.37496,-6.09357 0.53295,-7.65664 1.00782,-9.9706 0.25284,-1.232 0.61123,-3.248 0.79643,-4.48 0.38998,-2.59427 0.55197,-3.53124 0.80219,-4.64 0.32946,-1.45986 0.41134,-2.36396 0.60864,-6.72 0.25954,-5.73041 0.79867,-12.83078 0.99882,-13.15463 0.0882,-0.14272 0.23792,-1.23732 0.33269,-2.43243 0.0948,-1.19512 0.7399,-5.57794 1.43363,-9.73962 0.69373,-4.161672 1.33548,-8.841672 1.4261,-10.399998 0.26544,-4.564439 0.40291,-6.123255 0.91308,-10.353322 0.26533,-2.2 0.56093,-5.584 0.6569,-7.52 0.096,-1.936 0.25303,-4.096 0.34903,-4.8 0.096,-0.704 0.2259,-2.504 0.28866,-4 0.0627,-1.496 0.26915,-4.16 0.45865,-5.92 0.45711,-4.245494 0.67749,-7.865578 0.86688,-14.24 0.17395,-5.854598 0.20491,-6.171306 0.73,-7.466854 0.20216,-0.498768 0.27957,-1.04922 0.17203,-1.223226 -0.29583,-0.478669 -4.82529,-2.498006 -7.08577,-3.159001 -1.0982,-0.321128 -3.2582,-1.237312 -4.8,-2.035964 C 110.14635,28.300106 106.11091,26.56 105.59223,26.56 c -0.34189,0 -0.93167,6.961651 -1.12507,13.28 -0.097,3.168 -0.23143,6.12 -0.2988,6.56 -0.0674,0.44 -0.28503,2.456 -0.48367,4.48 -0.46469,4.734918 -0.93049,8.904989 -1.10805,9.92 -0.077,0.44 -0.43621,2.708 -0.7983,5.04 -0.36208,2.332 -0.94354,6.076 -1.29212,8.32 -0.34858,2.244 -0.846662,5.808 -1.106838,7.92 -0.260179,2.112 -0.756419,6.144 -1.102761,8.96 -0.346339,2.816 -0.715587,6.412278 -0.820547,7.991728 -0.10496,1.579452 -0.469146,5.179452 -0.809303,8.000002 -0.34016,2.82055 -0.699603,7.00027 -0.798765,9.28827 -0.09916,2.288 -0.246201,4.88 -0.326758,5.76 -0.08055,0.88 -0.225958,2.896 -0.323123,4.48 -0.288586,4.70468 -0.482186,7.57252 -0.637264,9.44 -0.08038,0.968 -0.230899,2.984 -0.33448,4.48 -0.103581,1.496 -0.24264,2.936 -0.309024,3.2 -0.06638,0.264 -0.209021,1.272 -0.316973,2.24 -0.107955,0.968 -0.462806,3.2 -0.788563,4.96 -0.325757,1.76 -0.684288,4.136 -0.796736,5.28 -0.112448,1.144 -0.279341,2.76238 -0.370874,3.59641 -0.255229,2.32557 0.183101,2.58992 2.824605,1.70342 z M 116.45283,154.8 c 0.0364,-1.276 0.14175,-3.832 0.23403,-5.68 0.0923,-1.848 0.16443,-3.612 0.16034,-3.92 -0.004,-0.308 0.0916,-0.5602 0.21269,-0.56045 0.12106,-2.5e-4 0.22011,-1.64266 0.22011,-3.6498 0,-2.00715 -0.108,-3.58244 -0.24,-3.50067 -0.132,0.0818 -0.2425,0.60819 -0.24556,1.16981 -0.003,0.56161 -0.21663,2.01748 -0.47462,3.23528 -0.52796,2.49221 -1.04319,7.20198 -1.27419,11.64775 -0.0852,1.64005 -0.23785,3.11605 -0.33918,3.28 -0.10132,0.16394 0.23526,0.29808 0.74795,0.29808 0.93217,0 0.93217,0 0.99843,-2.32 z m -25.452395,-6.4 c 0.274778,-1.628 0.568691,-3.68 0.653146,-4.56 0.821289,-8.55779 1.141216,-13.4748 1.624029,-24.96 0.167376,-3.98158 0.648732,-9.9274 0.964624,-11.91525 0.217273,-1.36726 0.76966,-6.66013 0.960646,-9.20475 0.179811,-2.395722 0.907366,-7.9524 2.430125,-18.56 0.353718,-2.464 0.914045,-6.568 1.245174,-9.12 0.331127,-2.552 0.817344,-6.08 1.080477,-7.84 0.263134,-1.76 0.639644,-4.856 0.836694,-6.88 0.19704,-2.024 0.49313,-4.546803 0.65797,-5.606227 0.31575,-2.029245 0.53444,-5.379559 0.7829,-11.993773 0.0826,-2.2 0.30908,-5.368 0.50319,-7.04 0.33046,-2.84628 0.41111,-3.681043 0.56095,-5.805764 0.10159,-1.440651 1.4572,-1.35391 5.33964,0.341668 0.352,0.153729 1.144,0.463181 1.76,0.687672 0.616,0.224491 1.48,0.653088 1.92,0.952438 1.23699,0.841574 4.75337,2.394122 6.88,3.037645 6.86316,2.076811 8.21182,3.501464 7.10593,7.506341 -0.33604,1.216915 -0.5427,4.031085 -0.66976,9.12 -0.10106,4.048 -0.24573,7.792 -0.32148,8.32 -0.0757,0.528 -0.23014,2.544 -0.34307,4.48 -0.11294,1.936 -0.27221,4.24 -0.35394,5.12 -0.0817,0.88 -0.28836,3.904 -0.45917,6.72 -0.27459,4.526995 -0.45947,6.410346 -1.13085,11.52 -0.38785,2.951872 -0.44061,3.625645 -0.4952,6.323635 -0.0315,1.556624 -0.18446,3.506608 -0.33993,4.333296 -0.15546,0.826688 -0.42079,2.223069 -0.58963,3.103069 -0.52634,2.743408 -0.63255,3.400646 -1.26696,7.84 -1.01256,7.08555 -1.58574,12.7089 -1.745,17.12 l -0.15019,4.16 0.76093,-3.04 c 0.41851,-1.672 0.82691,-3.544 0.90756,-4.16 0.26561,-2.02878 0.87492,-6.01596 1.03531,-6.77488 0.0866,-0.40982 0.22861,-2.32912 0.31556,-4.26512 0.087,-1.936 0.29398,-4.672 0.46007,-6.08 0.16609,-1.408 0.38681,-3.424 0.49049,-4.48 0.10368,-1.056 0.24637,-2.208 0.31709,-2.56 0.0707,-0.352 0.21598,-1.36 0.32278,-2.24 0.30068,-2.477421 0.47563,-3.782182 0.6007,-4.48 0.0631,-0.352 0.43694,-2.656 0.83076,-5.12 0.39382,-2.464 0.89392,-5.56 1.11132,-6.88 0.2174,-1.32 0.42284,-5.485069 0.45652,-9.255706 0.0337,-3.77064 0.11262,-6.938832 0.17541,-7.040428 0.0628,-0.1016 0.20511,-1.336532 0.31625,-2.744295 0.47861,-6.061926 0.89333,-9.714973 1.28963,-11.359571 0.23326,-0.968 0.51655,-2.522794 0.62952,-3.455094 0.11297,-0.932301 0.56903,-3.092301 1.01346,-4.8 0.77533,-2.979143 0.78453,-3.121479 0.22698,-3.51408 -2.02815,-1.428128 -4.08853,-2.615025 -6.18109,-3.560663 -1.32,-0.596514 -4.056,-1.874666 -6.08,-2.840338 -3.7407,-1.784728 -7.81065,-3.496961 -10.02356,-4.216927 -0.67296,-0.218946 -2.16803,-1.031416 -3.32237,-1.80549 C 102.93972,20.153333 101.94416,19.52 101.88171,19.52 c -0.0624,0 -0.0254,1.044 0.0823,2.32 0.12317,1.458945 0.0114,3.567046 -0.30119,5.68 -0.27338,1.848 -0.60132,5.52 -0.72876,8.16 -0.25911,5.367373 -0.28155,5.684525 -0.57727,8.16 -0.11564,0.968 -0.27095,2.984 -0.34513,4.48 -0.215516,4.346195 -0.787436,10.290502 -1.123772,11.68 -0.316605,1.308 -1.113367,7.815309 -1.4497,11.84 -0.218531,2.615018 -0.369868,3.676483 -0.958096,6.72 -0.238112,1.232 -0.67326,4.4 -0.967001,7.04 -0.293738,2.64 -0.672512,5.44569 -0.841719,6.234864 -0.169206,0.789174 -0.373398,3.957174 -0.453756,7.04 -0.08036,3.082826 -0.288474,6.613136 -0.462474,7.845136 -0.525229,3.71891 -0.932659,9.11184 -1.438448,19.04 -0.264502,5.192 -0.622826,10.448 -0.796269,11.68 -0.173443,1.232 -0.532493,4.3599 -0.797891,6.9509 -0.748086,7.3033 -0.611264,9.27721 0.277891,4.0091 z M 80.32,148.28816 c -2.281344,-1.07305 -4.715466,-1.79219 -7.528109,-2.22411 -0.699539,-0.10743 -2.351891,-0.45604 -3.671891,-0.7747 -8.925907,-2.15478 -16.537875,-2.62018 -28.8,-1.76083 -5.137891,0.36006 -12.181458,1.47673 -12.96,2.05464 -0.176,0.13064 -1.015706,0.42587 -1.866014,0.65606 -1.66782,0.4515 -2.453986,1.03572 -2.453986,1.82364 0,0.39337 0.21709,0.45051 1.04,0.27375 0.572,-0.12286 1.76,-0.34035 2.64,-0.48332 0.88,-0.14296 2.752,-0.48633 4.16,-0.76304 4.12031,-0.80977 10.233478,-1.33429 14.88,-1.27674 2.376,0.0294 6.912,0.0743 10.08,0.0997 9.569686,0.0767 19.110582,1.14778 23.120029,2.59553 3.466563,1.25173 4.22768,1.1283 1.359971,-0.22054 z M 82.898368,145.36 c 0.01011,-0.308 0.08183,-1.172 0.159389,-1.92 0.109657,-1.05754 0.03441,-1.36 -0.338368,-1.36 -0.263664,0 -0.479389,0.12046 -0.479389,0.26768 0,0.14723 -1.188,-0.12868 -2.64,-0.61313 -1.452,-0.48445 -4.152,-1.34237 -6,-1.90649 -1.848,-0.56411 -3.501469,-1.10939 -3.674374,-1.21171 C 69.421997,138.3183 64.116483,137.622 57.44,136.97774 c -9.49696,-0.91643 -28.845886,0.70382 -31.024,2.5979 -0.1672,0.1454 -0.545568,0.26436 -0.840818,0.26436 -0.691996,0 -1.176756,0.59653 -1.375526,1.69268 -0.08705,0.48005 -0.256199,1.18136 -0.375891,1.55847 -0.182314,0.57442 -0.120777,0.6482 0.379307,0.45473 1.941638,-0.75119 8.565149,-2.10791 10.348899,-2.11982 1.148416,-0.008 2.736029,-0.14235 3.528029,-0.29931 2.539485,-0.50327 12.271629,-0.78079 13.035958,-0.37173 0.37889,0.20278 2.154564,0.37341 3.983808,0.38282 1.81513,0.009 5.150983,0.2962 7.413008,0.63745 2.262029,0.34124 4.43369,0.53991 4.82592,0.44147 0.423895,-0.1064 1.15768,0.0833 1.809162,0.46767 1.252736,0.73913 6.359501,1.72384 6.847715,1.32041 0.414394,-0.34244 2.084429,-0.0326 2.084429,0.3867 0,0.17431 0.196886,0.24138 0.437523,0.14904 0.240637,-0.0923 1.140637,0.1689 2,0.58052 1.913328,0.91648 2.357159,0.96101 2.380845,0.2389 z M 76.16,138.09889 c 0,-0.0776 -0.144,-0.23012 -0.32,-0.33889 -0.176,-0.10877 -0.32,-0.0453 -0.32,0.14111 0,0.18639 0.144,0.33889 0.32,0.33889 0.176,0 0.32,-0.0635 0.32,-0.14111 z M 74.88,137.6 c -0.264,-0.17061 -0.768,-0.30228 -1.12,-0.29261 -0.64,0.0176 -0.64,0.0176 0,0.29261 0.956675,0.4111 1.756128,0.4111 1.12,0 z m 9.082925,-3.44 c 0.115571,-1.716 0.218041,-3.336 0.227709,-3.6 0.0097,-0.264 0.145276,-2.208 0.301353,-4.32 0.156077,-2.112 0.376547,-5.136 0.489936,-6.72 0.113386,-1.584 0.252931,-2.95822 0.310103,-3.05382 0.05717,-0.0956 0.186726,-1.17561 0.2879,-2.4 0.101175,-1.2244 0.264916,-2.80218 0.363866,-3.50618 0.310842,-2.21147 0.417117,-3.13872 0.609306,-5.31621 0.102732,-1.16391 0.236947,-2.38791 0.298262,-2.72 0.06131,-0.33208 0.28215,-1.68379 0.490746,-3.00379 0.208598,-1.32 0.504201,-2.904 0.656892,-3.52 0.259431,-1.046614 0.696647,-3.706064 0.790048,-4.805626 0.02269,-0.267094 0.155194,-0.66999 0.294458,-0.895324 0.139264,-0.225335 0.17496,-0.613607 0.07932,-0.862829 -0.195907,-0.510528 0.363414,-3.87024 0.781353,-4.693402 0.171053,-0.336902 0.140532,-0.581248 -0.08186,-0.655379 -0.2576,-0.08587 -0.253111,-0.425725 0.01642,-1.242384 0.204057,-0.618298 0.363197,-1.763376 0.353641,-2.544618 -0.04052,-3.313433 0.244679,-6.694908 0.600864,-7.124083 0.303735,-0.365984 0.280343,-0.501046 -0.112924,-0.651958 -0.32338,-0.124093 -0.439415,-0.443395 -0.333373,-0.91737 0.08946,-0.399865 0.230777,-1.598784 0.314041,-2.664265 0.08326,-1.065479 0.24801,-2.541479 0.366106,-3.28 C 91.248462,64.528541 91.197402,64.32 90.73833,64.32 c -0.298912,0 -2.081318,-0.490682 -3.960899,-1.090406 -4.269629,-1.362324 -8.327158,-2.34769 -10.617421,-2.578432 -6.837958,-0.688916 -9.238908,-0.81554 -15.2,-0.801629 -13.896316,0.03242 -17.60686,0.542134 -29.485491,4.050387 -1.881515,0.55569 -1.838371,0.36912 -2.206178,9.54008 -0.191527,4.775571 -0.817314,12.961763 -1.2598,16.48 -0.07747,0.616 -0.225829,2.704 -0.329677,4.64 -0.103848,1.936 -0.399413,6.12909 -0.656811,9.31797 -0.257397,3.18889 -0.537949,6.93289 -0.623449,8.32 -0.0855,1.38712 -0.229085,3.09803 -0.319079,3.80203 -0.08999,0.704 -0.181453,2.17691 -0.203243,3.27313 -0.02451,1.23322 -0.161162,1.91801 -0.35841,1.79611 -0.205226,-0.12684 -0.214907,-0.0114 -0.02717,0.32406 0.165327,0.29542 0.191501,1.87348 0.06044,3.6439 -0.127147,1.71754 -0.308617,4.14656 -0.403267,5.39782 l -0.172091,2.27501 1.672117,-0.41361 c 6.62978,-1.63996 9.597386,-1.90607 20.552116,-1.84296 9.418934,0.0543 13.287644,0.47951 18.4,2.0225 0.616,0.18591 1.696,0.40892 2.4,0.49558 1.954966,0.24062 4.49079,0.76648 7.84,1.62579 4.837824,1.24125 6.221184,1.68031 6.891801,2.18735 0.980397,0.74126 1.008458,0.68143 1.231123,-2.62468 z M 69.173635,118.08709 C 66.596717,117.90358 65.92,117.43105 65.92,115.81516 c 0,-0.72728 -0.163075,-0.88736 -1.04,-1.02091 -1.295795,-0.19735 -1.333786,-0.15929 -1.292566,1.29486 0.03615,1.27543 -0.290429,1.65823 -1.421338,1.66599 -0.735453,0.005 -0.938771,-0.43038 -1.118349,-2.3951 -0.08136,-0.89014 -0.190233,-0.96733 -1.496032,-1.06076 -1.507257,-0.10784 -1.938265,0.21307 -1.946816,1.4495 -0.0048,0.69392 -0.827254,1.37158 -1.663862,1.37093 -0.231571,-1.8e-4 -0.825344,-0.72018 -1.319498,-1.6 -0.543981,-0.96853 -1.119549,-1.59967 -1.458838,-1.59967 -0.308208,0 -0.839901,-0.21142 -1.181539,-0.46982 -1.163232,-0.87983 -1.639088,-0.62255 -1.608781,0.86982 0.02656,1.30711 -0.01283,1.3639 -1.012381,1.46028 -0.968826,0.0934 -1.04,0.0332 -1.04,-0.88 0,-1.1804 -0.0043,-1.18085 -1.872838,-0.19822 -2.25513,1.18592 -3.996407,1.54389 -7.156906,1.47131 -2.678934,-0.0615 -5.854192,-2.36313 -5.757498,-4.17337 0.0579,-1.08388 0.483194,-2.53369 1.233748,-4.20575 0.502224,-1.11884 0.922329,-2.10625 0.933568,-2.19425 0.01882,-0.14719 0.747609,-1.74046 2.028764,-4.43514 C 38.585027,99.364016 40,99.566861 40,101.49044 c 0,0.82027 0.07377,0.8926 0.614966,0.60296 1.015802,-0.54364 4.48146,-0.49412 5.047709,0.0721 0.633127,0.63313 1.160791,5.43191 0.915277,8.32388 -0.18417,2.16942 -0.18417,2.16942 0.583466,1.66645 0.740928,-0.48548 0.767875,-0.64055 0.774585,-4.45717 0.0073,-4.1333 0.296723,-5.29869 1.316074,-5.29869 1.224617,0 1.407894,0.7499 1.174419,4.80536 -0.21704,3.77 -0.209254,3.83464 0.461798,3.83464 0.579879,0 0.653172,-0.1338 0.487213,-0.8894 -0.352157,-1.60336 -0.296169,-5.3229 0.101043,-6.71279 0.841191,-2.94341 3.247943,-4.007093 3.67242,-1.62305 0.201158,1.1298 0.536313,4.81222 0.825068,9.06524 0.05934,0.87397 0.159863,0.7697 1.121741,-1.16358 0.581107,-1.16798 1.158896,-2.53132 1.283971,-3.02966 0.125076,-0.49835 0.592029,-1.67682 1.037671,-2.61883 0.808979,-1.71005 0.812182,-1.71243 2.02751,-1.5071 0.95369,0.16113 1.282647,0.0888 1.519277,-0.33403 0.428221,-0.76519 1.561136,-0.32719 1.81984,0.70357 0.114221,0.4551 0.101014,2.42993 -0.02934,4.38854 -0.377126,5.66599 -0.397536,5.46687 0.571792,5.57911 0.999594,0.11575 1.335824,-1.62869 1.170803,-6.07441 -0.05015,-1.35101 0.0087,-2.55631 0.130861,-2.67843 0.409661,-0.40966 1.876912,0.18683 2.127792,0.86502 0.293891,0.79447 0.24337,5.26359 -0.08264,7.3098 -0.215312,1.35142 -0.20119,1.3923 0.2296,0.66449 1.074567,-1.81545 2.212234,-0.78328 1.404138,1.27393 -0.495562,1.26158 -0.495562,1.26158 0.678697,1.23909 0.64584,-0.0124 1.462256,-0.13828 1.814256,-0.2798 0.964055,-0.38759 1.76,0.18278 1.76,1.26121 0,0.83111 -0.152937,0.97743 -1.36,1.30117 -0.748,0.20062 -1.432,0.38936 -1.52,0.41943 -0.088,0.0301 -1.215865,-0.0205 -2.506364,-0.11243 z m -30.970281,-4.78441 c -0.276845,-0.55495 -0.482797,-1.95824 -0.504858,-3.44 -0.03727,-2.50268 -0.03727,-2.50268 -0.652746,-1.11343 -1.09927,2.48126 -1.09718,3.40855 0.01018,4.51591 1.237178,1.23717 1.754333,1.25409 1.147431,0.0375 z m 5.616736,-0.74312 c 0.530099,-1.52064 0.402291,-3.91314 -0.325309,-6.08966 -0.84432,-2.52566 -0.926003,-2.59697 -1.993783,-1.74047 -2.015827,1.61695 -2.436425,8.57245 -0.540998,8.94662 1.415296,0.2794 2.524416,-0.15357 2.86009,-1.11649 z M 61.099104,110.8 c 0.432976,-1.81333 0.688432,-5.20328 0.391258,-5.19206 -0.427652,0.0162 -2.853421,6.36395 -2.48922,6.51385 1.235792,0.50859 1.736189,0.19332 2.097962,-1.32179 z M 54.440608,91.289837 c -0.797882,-0.797879 -1.177565,-0.934323 -2.54303,-0.913875 -1.847146,0.02768 -3.005047,-0.788589 -3.813264,-2.688125 -0.473207,-1.112167 -0.473207,-1.112167 -1.252954,-0.205658 -0.741245,0.861747 -0.751392,0.928583 -0.205552,1.353539 0.540454,0.420762 0.517786,0.49386 -0.385808,1.244068 -0.528,0.438368 -1.203501,0.79775 -1.501114,0.798624 C 44.441274,90.87937 44.108774,91.024 44,91.2 c -0.644093,1.042163 -3.36,-0.01834 -3.36,-1.311984 0,-0.344445 -0.468,-1.52216 -1.04,-2.617142 -0.966358,-1.849901 -1.03879,-2.206135 -1.022925,-5.030874 0.02704,-4.814995 0.92368,-5.94344 4.99304,-6.283882 2.611095,-0.218444 3.158992,0.03303 4.319703,1.982692 0.3427,0.575635 0.401369,0.581971 0.8,0.08641 1.266006,-1.57384 4.32104,-2.339321 5.56902,-1.395395 0.794752,0.60112 1.101162,0.607709 1.101162,0.02368 0,-0.334147 0.29505,-0.437197 1.04,-0.363232 2.948867,0.29279 4.549299,0.659024 5.044675,1.1544 0.424227,0.424227 0.942663,0.518848 2.272471,0.414758 2.744345,-0.214813 3.162854,-0.360737 3.162854,-1.10281 0,-0.628141 0.128256,-0.660266 2,-0.500954 2.31376,0.196935 3.014566,0.332227 3.32407,0.641735 0.373524,0.373523 0.75593,0.24894 0.75593,-0.246269 0,-0.257879 0.428723,-0.957155 0.952717,-1.553952 0.523993,-0.596797 0.847993,-1.197312 0.72,-1.33448 -0.127994,-0.137168 0.08123,-0.08621 0.464934,0.113248 0.9076,0.471776 1.005751,1.312806 0.471959,4.044048 -0.240784,1.232 -0.471671,2.456 -0.513085,2.72 -0.04141,0.264 -0.444461,1.704 -0.895661,3.2 -1.370838,4.545152 -1.367248,4.48 -0.24696,4.48 0.748573,0 0.966096,0.142249 0.966096,0.631782 0,0.77224 -1.499747,1.608218 -2.885146,1.608218 -0.54831,0 -1.266723,0.14439 -1.59647,0.320864 -0.400774,0.214489 -0.66529,0.214489 -0.79785,0 C 69.491466,90.70439 69.049318,90.56 68.617984,90.56 c -0.902061,0 -1.805923,-0.915379 -1.959686,-1.984656 -0.20521,-1.427021 -0.457997,-1.758579 -0.754672,-0.989846 -0.332922,0.862649 -2.11321,1.79232 -4.463626,2.330921 -0.968,0.221818 -2.203914,0.734323 -2.746474,1.138899 -1.689811,1.260068 -3.147017,1.340423 -4.252918,0.234519 z m 2.754819,-1.413264 c 0.271239,-0.271239 0.244087,-0.482775 -0.107043,-0.833904 -0.367846,-0.367847 -0.3876,-0.570333 -0.09055,-0.928253 0.208956,-0.251779 0.422979,-1.352525 0.475603,-2.446099 C 57.56912,83.68 57.56912,83.68 57.080803,84.96 c -0.268573,0.704 -0.693625,1.752886 -0.94456,2.330858 -0.922403,2.12455 -0.212553,3.857452 1.059184,2.585715 z m -4.306278,-2.555424 c -0.167411,-0.167411 -0.834848,-0.390467 -1.483191,-0.49568 -1.05542,-0.171271 -1.156185,-0.128186 -0.962707,0.411619 0.454259,1.267376 0.758403,1.418493 1.785706,0.887254 0.610067,-0.315481 0.85271,-0.610675 0.660192,-0.803193 z m -8.620659,0.03988 c 0.311561,-0.527433 1.140924,-1.420611 1.843027,-1.984835 1.239481,-0.996077 1.273821,-1.076681 1.182518,-2.77575 -0.05994,-1.115328 -0.250361,-1.801488 -0.525133,-1.892195 -0.325353,-0.107408 -0.393212,0.13878 -0.276656,1.003689 0.08494,0.630304 -0.01286,1.374803 -0.217347,1.654448 C 45.735488,84.104077 44.8,83.631782 44.8,82.621763 c 0,-1.932371 -1.033517,1.113639 -1.471971,4.338237 -0.216695,1.59368 0.144867,1.747859 0.940461,0.40103 z M 62.750627,87.131005 C 63.573251,86.645069 63.68,86.403741 63.68,85.029968 c 0,-3.176886 -0.985744,-3.63033 -1.717325,-0.789968 -0.283321,1.1 -0.605622,2.324 -0.716224,2.72 -0.245312,0.878317 0.217687,0.930954 1.504176,0.171005 z m 8.125079,-0.610083 C 71.142067,85.883427 71.36,85.308464 71.36,85.243222 c 0,-0.06524 -0.576,-0.09604 -1.28,-0.06846 -1.472451,0.0577 -1.557008,0.292787 -0.56,1.556921 0.898176,1.138819 0.784426,1.156503 1.355706,-0.210761 z M 53.464483,83.44 c 0.01347,-0.924 0.06818,-1.90105 0.121591,-2.171222 0.05341,-0.270173 -0.219949,-1.112704 -0.60746,-1.872292 l -0.704569,-1.381068 -1.177021,1.110076 C 49.977757,80.181098 49.92,80.336691 49.92,82.296326 c 0,2.060756 0,2.060756 1.36,2.394429 2.214614,0.543351 2.157862,0.575843 2.184483,-1.250755 z M 40.85193,82.48 c -0.08877,-0.22 -0.161405,-0.04 -0.161405,0.4 0,0.44 0.07263,0.62 0.161405,0.4 0.08877,-0.22 0.08877,-0.58 0,-0.8 z M 57.776477,80.501062 C 57.545347,78.651158 56.988266,78.063635 56.922106,79.6 c -0.02083,0.484 -0.0054,1.024 0.03424,1.2 0.03967,0.176 0.151971,0.891939 0.249548,1.590976 0.157984,1.131773 0.21113,1.195414 0.485264,0.581062 0.171255,-0.383798 0.209111,-1.480179 0.08532,-2.470976 z m 14.474621,1.914506 c 0.05649,-0.05649 0.370787,-0.80824 0.698441,-1.670563 0.546448,-1.438135 0.551671,-1.568992 0.0631,-1.581504 -0.29295,-0.0075 -1.278525,-0.12248 -2.19016,-0.255507 -1.657523,-0.241866 -1.657523,-0.241866 -1.998218,0.985068 -0.400752,1.443223 -0.438748,2.464752 -0.104262,2.802887 0.214643,0.216982 3.276886,-0.02618 3.531099,-0.280381 z M 42.136029,79.094013 c 0.263264,-0.586295 0.410067,-1.134586 0.326227,-1.218426 -0.240118,-0.240115 -1.386118,1.550138 -1.625382,2.53913 -0.304749,1.259677 0.166867,1.872784 0.530396,0.689523 0.159552,-0.519331 0.505495,-1.423936 0.768759,-2.010227 z M 65.28,80.301114 C 65.28,80.135501 65.068518,80 64.810042,80 64.524576,80 64.412118,80.187712 64.523574,80.478163 64.712467,80.970406 65.28,80.837571 65.28,80.301114 Z M 27.1655,136.33489 c 3.66806,-1.08439 7.128551,-1.67084 10.4345,-1.76833 1.76,-0.0519 4.202912,-0.2584 5.428694,-0.45889 1.631456,-0.26684 2.680183,-0.27079 3.913508,-0.0148 0.926649,0.19237 2.083737,0.3079 2.571305,0.25673 0.790807,-0.083 6.408224,0.233 9.366493,0.52687 5.41591,0.53803 5.44105,0.53855 5.275565,0.10893 -0.102941,-0.26725 -0.787027,-0.44753 -1.839722,-0.48484 -0.921712,-0.0327 -2.805542,-0.29333 -4.186288,-0.57924 -4.104214,-0.84986 -19.828214,-0.97012 -25.104121,-0.19201 -5.646966,0.83284 -8.385434,1.74392 -8.385434,2.78982 0,0.56082 0.0067,0.56033 2.5255,-0.18429 z m 39.627834,-3.08822 c -0.106336,-0.10634 -0.382336,-0.1177 -0.613334,-0.0252 -0.255274,0.10215 -0.17945,0.17798 0.193334,0.19333 0.337332,0.0139 0.526333,-0.0617 0.42,-0.16807 z M 91.524368,61.2 c 0.0026,-0.132 0.08974,-0.558419 0.19408,-0.947603 0.264998,-0.988413 -3.146179,-2.534979 -7.558448,-3.426864 -1.32,-0.266823 -4.55889,-0.941946 -7.19753,-1.500279 -4.797529,-1.015148 -4.797529,-1.015148 -14.08,-0.824892 -5.10536,0.10464 -9.78647,0.257145 -10.40247,0.338899 -0.616,0.08175 -2.272,0.25824 -3.68,0.392189 -1.408,0.133952 -2.632,0.261068 -2.72,0.282486 -0.088,0.02141 -1.024,0.150122 -2.08,0.28601 -4.20113,0.540604 -11.584522,2.219737 -13.04,2.965558 -0.647641,0.331866 -0.88,0.690947 -0.88,1.359923 0,0.908995 0,0.908995 1.68,0.491283 2.706515,-0.672944 10.118294,-2.343612 12.72,-2.867177 3.277066,-0.659475 15.343088,-1.014666 15.684829,-0.461719 0.168342,0.272381 0.536333,0.317716 1.160825,0.143005 0.50289,-0.140691 1.058346,-0.216566 1.234346,-0.168611 0.176,0.04795 1.544,0.140266 3.04,0.205139 1.496,0.06487 3.181469,0.198557 3.745485,0.297079 0.590301,0.103113 1.307382,0.0044 1.689763,-0.23265 0.534266,-0.331181 0.713578,-0.332618 0.916147,-0.0073 0.147975,0.23761 0.968954,0.418339 1.990237,0.438128 0.956102,0.01853 1.882368,0.124525 2.058368,0.235555 0.176,0.111031 0.896,0.228935 1.6,0.262013 1.919411,0.09019 3.184915,0.311414 3.867478,0.676093 C 81.804365,59.31623 82.944,59.630954 84,59.835619 c 1.056,0.204669 2.426624,0.517415 3.045834,0.694995 0.619206,0.177581 1.58718,0.354813 2.151052,0.39385 0.563872,0.03904 1.125245,0.171005 1.247501,0.293258 0.297008,0.297011 1.074483,0.284252 1.079981,-0.01773 z m 0.844704,-5.884483 C 92.757475,52.24471 92.660515,52.056877 90.229334,51.170426 89.1792,50.787526 88.32,50.351472 88.32,50.201418 c 0,-0.505642 -2.378806,-1.294778 -5.76,-1.9108 -1.848,-0.336688 -3.576,-0.693876 -3.84,-0.793751 -0.264,-0.09987 -1.704,-0.254675 -3.2,-0.344006 -1.496,-0.08933 -3.872,-0.273632 -5.28,-0.409559 -3.908541,-0.377328 -12.520451,-0.09758 -18.4,0.597709 -2.904,0.343411 -6.864,0.785603 -8.8,0.98265 -5.584022,0.568342 -7.203776,0.932313 -9.71584,2.183222 C 30.761866,51.782806 30.4,52.281059 30.4,54.533162 v 1.371497 l 3.44,-0.740973 c 1.892,-0.407536 4.448,-0.963996 5.68,-1.236579 5.549075,-1.22775 22.639334,-2.593622 23.174051,-1.852096 0.102272,0.141827 1.553949,0.2512 3.225949,0.243056 3.4456,-0.01677 5.927322,0.219843 10.08,0.961107 1.584,0.282746 3.672,0.643184 4.64,0.800973 0.968,0.157789 2.12,0.376083 2.56,0.485104 0.44,0.109018 1.736,0.322615 2.88,0.474656 2.32919,0.309555 4.491843,0.8784 4.931232,1.297063 0.448003,0.42687 1.251059,-0.177239 1.35784,-1.021453 z m -0.57649,-7.094586 C 86.182768,43.259792 63.901901,41.04097 47.68,43.828013 c -0.968,0.16631 -3.075098,0.524761 -4.682438,0.796557 -3.13057,0.529369 -9.630327,2.477875 -11.077562,3.320844 -1.638627,0.954452 -0.892216,1.011047 0.96,0.07279 2.275168,-1.152506 5.079517,-1.805002 9.04,-2.103367 1.672,-0.125961 3.328,-0.283539 3.68,-0.350176 0.352,-0.06663 1.648,-0.201001 2.88,-0.298595 1.232,-0.09759 3.752,-0.380272 5.6,-0.628176 4.92479,-0.66064 9.582621,-0.804944 9.385312,-0.290768 -0.123942,0.322989 1.150918,0.382666 6.189296,0.289728 9.811408,-0.180979 17.052784,1.179437 22.185392,4.167911 1.240637,0.722364 1.226016,0.542355 -0.04742,-0.583831 z m 1.763575,-4.568643 c 0.0709,-0.851021 0.289763,-1.600928 0.486371,-1.666464 0.400298,-0.133434 0.489645,-1.218573 0.117472,-1.42671 -0.132,-0.07382 -0.06,-0.09034 0.16,-0.03671 0.540416,0.131741 0.512509,-0.730755 -0.0304,-0.939085 -0.42849,-0.164428 -0.282189,-2.64231 0.25616,-4.338492 0.581821,-1.833152 1.162426,-6.795848 1.296854,-11.084826 0.08275,-2.64 0.234688,-6.096 0.337648,-7.68 0.245332,-3.774383 0.212183,-4.397447 -0.249123,-4.682551 C 95.097184,11.28203 90.778365,10.502646 85.44,9.9041942 82.36,9.5589139 79.483213,9.194247 79.047142,9.093823 78.200963,8.8989546 70.878752,8.9235453 68.48,9.1293117 66.366618,9.3105984 60.11911,10.137032 59.25488,10.34963 c -0.409814,0.100814 -1.821664,0.333032 -3.137443,0.51604 -1.315779,0.183008 -3.068477,0.533078 -3.89488,0.777933 C 51.39615,11.888458 49.424,12.448775 47.84,12.888751 c -5.005526,1.39035 -8.860448,2.938969 -9.89759,3.976113 -0.557085,0.557085 -0.973495,0.70941 -1.546295,0.565646 -1.866963,-0.468578 -4.236409,7.802192 -4.540634,15.84949 -0.08982,2.376 -0.235725,5.184 -0.324224,6.24 -0.510489,6.09129 -0.511763,5.996874 0.07777,5.762522 4.563301,-1.814029 9.443333,-3.111732 13.190975,-3.50776 1.144,-0.12089 3.358064,-0.433232 4.920141,-0.69409 1.56208,-0.260861 3.838864,-0.52351 5.059523,-0.58367 C 56.614336,40.406582 58.3968,40 56.958531,40 56.25688,40 55.36,38.993862 55.36,38.206733 c 0,-0.713453 -0.03117,-0.72105 -1.109722,-0.270403 -1.652348,0.690393 -2.949184,0.5956 -3.506726,-0.25633 -0.835898,-1.277251 -0.322829,-2.300035 1.83807,-3.66415 0.767671,-0.484612 1.166148,-0.946157 1.058672,-1.226231 -0.09479,-0.247017 -0.02208,-0.541987 0.161559,-0.655485 0.183648,-0.1135 0.267209,-0.461395 0.185699,-0.773101 -0.08151,-0.311705 0.111226,-0.78887 0.428314,-1.060367 2.190492,-1.87556 -2.848884,-3.373244 -5.615866,-1.669014 -2.342288,1.442655 -3.172755,1.051314 -3.084109,-1.453323 0.145792,-4.119154 4.809539,-6.923457 8.765373,-5.270605 1.189597,0.497047 2.132896,2.197656 2.184755,3.938752 0.01766,0.592976 0.258048,0.154108 0.748474,-1.366476 0.651939,-2.021362 1.697773,-4.212675 2.458739,-5.151741 0.156765,-0.193458 0.424234,-1.085751 0.594368,-1.982875 C 60.805114,15.565689 61.590566,14.4 62.45223,14.4 c 1.150669,0 1.411968,1.489483 0.594135,3.386771 -0.528119,1.225183 -0.530087,1.375026 -0.03152,2.4 0.292464,0.601276 0.548493,1.165229 0.56895,1.253229 0.02045,0.088 0.133079,0.671094 0.250269,1.295765 l 0.213072,1.135765 2.508893,-0.644579 c 3.821779,-0.98188 4.802195,-0.250417 5.585862,4.167473 0.246397,1.389067 0.537827,2.754505 0.647619,3.034308 0.250928,0.639473 -0.609584,1.388781 -1.293497,1.126339 -0.28168,-0.108091 -0.679514,-0.64439 -0.884074,-1.191777 -0.367613,-0.983699 -0.392387,-0.993123 -2.135001,-0.812218 -0.96969,0.100667 -2.391796,0.404856 -3.160234,0.675977 C 64.548256,30.498174 63.433638,30.72 62.839766,30.72 c -1.05246,0 -1.416614,0.394045 -0.746748,0.808045 0.183158,0.113199 0.251648,0.462183 0.152198,0.775523 -0.130093,0.409885 0.217856,0.873629 1.240298,1.653069 2.454496,1.871142 3.034947,3.593693 1.758006,5.217059 -0.894,1.136534 -1.101027,1.074451 4.260429,1.277642 7.689929,0.29144 15.546934,1.450064 17.376051,2.562345 0.352,0.214048 1.479904,0.648685 2.506454,0.965853 1.026551,0.317168 2.250551,0.907715 2.72,1.31232 1.026186,0.884442 1.261623,0.61817 1.449703,-1.639568 z m -31.156695,-3.5768 c 0.0013,-0.179994 -2.09224,-1.977238 -2.313366,-1.986109 C 59.95745,38.084227 59.76184,38.44 59.651405,38.88 c -0.110432,0.44 -0.337674,0.8 -0.504983,0.8 -0.167305,0 -0.218297,0.138982 -0.113312,0.308851 0.159994,0.258874 3.364733,0.341354 3.366352,0.08664 z M 63.68,37.301789 C 63.68,36.623824 62.29167,35.2 61.630602,35.2 c -0.498269,0 -0.100103,1.17944 0.669267,1.98249 C 63.35504,38.283853 63.68,38.311942 63.68,37.301789 Z M 60.052454,28.72 c 2.064746,-2.308355 2.462391,-4.47188 1.251047,-6.806748 -0.53688,-1.034838 -0.856951,-0.670747 -1.940115,2.206958 -1.441968,3.830961 -1.037613,6.530195 0.689068,4.59979 z m 6.097268,-1.092387 C 66.71607,27.392426 67.847475,27.2 68.663958,27.2 c 1.222215,0 1.450196,-0.08944 1.290279,-0.506172 C 69.847405,26.415433 69.76,26.050793 69.76,25.883516 c 0,-1.331324 -4.123005,-0.523682 -5.52,1.081295 -1.419565,1.630908 -0.87591,1.819592 1.909722,0.662802 z M 52.434429,25.568085 c 2.052803,0.412263 2.275145,0.293891 1.627065,-0.866229 -0.840918,-1.505316 -3.504915,-1.281335 -5.112483,0.429841 -0.714205,0.760238 -0.714205,0.760238 0.509479,0.422362 0.868339,-0.23976 1.732524,-0.235687 2.975939,0.01403 z"
     id="path834"
     inkscape:connector-curvature="0"
     sodipodi:nodetypes="cccscsccscsccssccssssccsscsscccccccsssssccsssscccsssscccscssccccccsccccssccccccccccccscccccssccscccccccsccscccsccsccccsccsccsscscccscccsccscccccscccccssccssccsscssccscccscccscscsccccsccccscccccccccsscsccccccccsccccccsscssssccscccsccccsccsccsccsssccsscssscccscccscsccssccssssssccccscccscccccccccccccsscccsccccccscccscscccccccsccccccscccscssccssscccccsccscscccsccsscccccsscccccscccsssssscccccsssscccccsccccsccscccsscccsscccsscsssscsccccccssccscssscccccccssccccccccccsssccscssccccccccccscccsssssccccccsccsccccccccsccccccccsssssscsssccccsscccccsccccscccsccscscccscccscsscccccssscccccccccccccccccsccscccccccccccccccccccccsssccsssssccssssssscssccccssssccsccsccsccccssscccsccccscssccsscsscsccccccccsscsscssccccscccccccccsscsscscsccccccsssccccccccccssccccsssscsccsccccccccccccccsscsscssscsssccscssccsscssccccsscccccccscscssscscssscscscssssccccscssccsccssccscsccscccsccssscssccccscccsssssssssscssscscscc" />
</svg>
