<?xml version="1.0" encoding="UTF-8" standalone="no"?>
<!-- Created with Inkscape (http://www.inkscape.org/) -->

<svg
   xmlns:dc="http://purl.org/dc/elements/1.1/"
   xmlns:cc="http://creativecommons.org/ns#"
   xmlns:rdf="http://www.w3.org/1999/02/22-rdf-syntax-ns#"
   xmlns:svg="http://www.w3.org/2000/svg"
   xmlns="http://www.w3.org/2000/svg"
   xmlns:sodipodi="http://sodipodi.sourceforge.net/DTD/sodipodi-0.dtd"
   xmlns:inkscape="http://www.inkscape.org/namespaces/inkscape"
   version="1.1"
   id="svg1497"
   width="208"
   height="208"
   viewBox="0 0 208 208"
   sodipodi:docname="bibed-type-audio.svg"
   inkscape:version="0.92.4 5da689c313, 2019-01-14">
  <metadata
     id="metadata1503">
    <rdf:RDF>
      <cc:Work
         rdf:about="">
        <dc:format>image/svg+xml</dc:format>
        <dc:type
           rdf:resource="http://purl.org/dc/dcmitype/StillImage" />
        <dc:title></dc:title>
      </cc:Work>
    </rdf:RDF>
  </metadata>
  <defs
     id="defs1501" />
  <sodipodi:namedview
     pagecolor="#ffffff"
     bordercolor="#666666"
     borderopacity="1"
     objecttolerance="10"
     gridtolerance="10"
     guidetolerance="10"
     inkscape:pageopacity="0"
     inkscape:pageshadow="2"
     inkscape:window-width="3200"
     inkscape:window-height="1745"
     id="namedview1499"
     showgrid="false"
     inkscape:zoom="5.6568543"
     inkscape:cx="104.74681"
     inkscape:cy="100.75663"
     inkscape:window-x="0"
     inkscape:window-y="55"
     inkscape:window-maximized="1"
     inkscape:current-layer="svg1497" />
  <path
     style="fill:#000000;stroke-width:0.31999999"
     d="m 141.62459,175.85657 c -0.1058,-0.17119 -0.5198,-0.25733 -0.92,-0.19143 -1.56881,0.25835 -2.09101,-0.75722 -1.67585,-3.25915 0.22503,-1.35614 -0.4772,-2.0665 -2.04285,-2.0665 -0.30851,0 -0.68989,-0.31568 -1.00951,-0.4 -1.05765,-0.27903 -0.67169,-0.15466 -1.37832,-0.21751 -0.49259,-0.0438 -0.81933,0.10622 -0.72211,0.26353 0.0972,0.1573 -0.18218,0.2653 -0.62089,0.24 -0.43871,-0.0253 -0.79776,-0.16339 -0.79788,-0.30685 -3.2e-4,-0.37017 -4.27015,-0.12595 -4.56023,0.26083 -0.15341,0.20455 -0.33687,0.17007 -0.50851,-0.0956 -0.14767,-0.22856 -0.95002,-0.47945 -1.78299,-0.55754 -2.66409,-0.24973 -5.7418,-0.76932 -7.3885,-1.24735 -4.23792,-1.23026 -6.61151,-1.78549 -6.89195,-1.61216 -0.16943,0.10471 -0.30805,0.0565 -0.30805,-0.10717 0,-0.2694 -2.17379,-0.64427 -5.12,-0.88296 -0.616,-0.0499 -2.2,-0.26089 -3.52,-0.46887 -1.32,-0.20797 -3.336,-0.42713 -4.48,-0.487 -6.854766,-0.35877 -11.829914,-0.85961 -12.470241,-1.25536 -0.483088,-0.29856 -4.375635,-0.46576 -4.773459,-0.20504 -0.244032,0.15994 -0.514099,1.0235 -0.60015,1.91904 -0.08605,0.89554 -0.326948,1.76975 -0.535328,1.94268 -0.545479,0.45271 -2.993517,0.70509 -3.223872,0.33236 -0.107098,-0.17329 -1.032228,-0.31507 -2.05584,-0.31507 -3.580544,0 -4.833751,-0.82619 -5.298468,-3.49307 -0.264112,-1.51565 -0.205993,-1.46237 -3.135824,-2.87489 -3.611321,-1.74108 -5.51432,-2.46258 -7.638153,-2.89593 -1.084669,-0.22127 -2.150387,-0.68377 -2.656487,-1.15281 -0.464835,-0.43079 -0.981737,-0.78326 -1.148668,-0.78326 -0.166932,0 -0.303514,-0.11191 -0.303514,-0.24868 0,-0.13678 -0.770573,-1.05063 -1.712384,-2.03079 -0.941811,-0.98015 -2.122902,-2.63225 -2.624646,-3.67131 -0.501741,-1.03907 -1.531168,-2.8935 -2.287613,-4.12094 -0.756448,-1.22745 -1.375357,-2.49334 -1.375357,-2.81309 0,-0.31975 -0.278326,-1.47548 -0.618506,-2.56828 -1.451372,-4.66244 -1.599123,-8.71197 -0.54535,-14.94691 0.252838,-1.496 0.63231,-3.728 0.843267,-4.96 0.390547,-2.28081 2.942064,-7.94035 4.193043,-9.30062 0.334151,-0.36335 0.609642,-0.79535 0.612202,-0.96 0.004,-0.25564 1.00975,-1.44466 5.30295,-6.26916 1.995901,-2.24289 4.78193,-4.477712 6.73904,-5.405732 1.206343,-0.57202 2.769354,-1.42633 3.473354,-1.89848 1.515443,-1.01634 7.715034,-4.16601 8.200086,-4.16601 0.18553,0 0.587581,-0.30905 0.893447,-0.68678 0.42456,-0.52431 0.688224,-0.61285 1.114553,-0.37426 0.30714,0.17188 1.159968,0.2213 1.895175,0.10981 3.240275,-0.49135 14.861984,0.28976 18.776743,1.26201 0.616,0.15299 1.912,0.37357 2.88,0.49017 2.27043,0.2735 10.44572,1.65358 12.04645,2.03358 0.67845,0.16105 2.81755,0.72323 4.75355,1.24928 1.936,0.52606 4.024,1.05863 4.64,1.1835 1.13016,0.22911 1.42408,0.27177 5.7506,0.83479 1.31483,0.17111 2.53163,0.45213 2.704,0.6245 0.17237,0.17237 0.6158,0.3134 0.9854,0.3134 0.3696,0 0.8088,0.13457 0.976,0.29905 0.1672,0.164472 1.26033,0.644912 2.42918,1.067642 2.42832,0.87823 2.85351,0.73337 3.99034,-1.359552 0.33246,-0.61208 1.00427,-1.54808 1.4929,-2.08 0.48864,-0.53193 1.34078,-1.68714 1.89366,-2.56714 2.36061,-3.75733 3.10572,-4.83423 3.74287,-5.4096 0.37128,-0.33528 0.67505,-0.77818 0.67505,-0.98422 0,-0.20604 0.38026,-0.72372 0.84501,-1.15041 0.46476,-0.42667 1.67491,-1.81178 2.68923,-3.07801 1.01432,-1.26623 2.37791,-2.940718 3.03021,-3.721073 0.6523,-0.780355 1.49414,-1.920541 1.87077,-2.533744 0.37663,-0.613203 1.26078,-1.947981 1.96478,-2.966176 1.47585,-2.134518 2.0893,-3.093542 3.78759,-5.921245 0.67518,-1.124185 1.75518,-2.565788 2.4,-3.203558 2.12603,-2.102768 3.21729,-3.448576 3.67116,-4.527475 0.36487,-0.867335 5.897,-8.012525 6.64651,-8.584493 0.11532,-0.088 0.73582,-0.952 1.3789,-1.92 1.29162,-1.944227 3.20114,-4.486006 6.11584,-8.140861 4.96733,-6.228723 8.14671,-10.879753 8.15639,-11.931763 0.002,-0.215942 -0.35639,-0.628502 -0.79639,-0.916803 -1.68188,-1.102007 -0.94014,-2.675986 1.12,-2.376661 1.98876,0.288956 8.60863,4.089688 8.85873,5.086152 0.10664,0.424912 0.47006,1.048723 0.80758,1.38625 1.56407,1.564064 -1.07584,2.290688 -3.14647,0.866054 -1.72953,-1.189946 -1.6908,-1.197834 -2.91339,0.593382 -0.56845,0.832839 -1.60318,2.30625 -2.29938,3.27425 -0.69621,0.968 -1.35512,2.140352 -1.46424,2.605226 -0.10912,0.464873 -0.99183,1.832873 -1.96157,3.04 -0.96975,1.207126 -2.31637,3.130774 -2.9925,4.274774 -0.67613,1.144 -1.60895,2.512 -2.07293,3.04 -0.46398,0.528 -1.43489,1.824 -2.15758,2.88 -0.72269,1.056 -1.83974,2.568 -2.48234,3.36 -1.56857,1.933277 -3.53591,4.742829 -3.53591,5.049622 0,0.13648 -0.252,0.491399 -0.56,0.788708 -1.01724,0.981932 -1.8954,1.990659 -2.43138,2.792873 -0.29074,0.435159 -0.52959,0.651159 -0.53078,0.48 -0.001,-0.171161 -0.64228,0.681715 -1.42466,1.89528 -0.78238,1.213568 -1.77039,2.581568 -2.19557,3.04 -0.42518,0.458435 -1.31197,1.697517 -1.97062,2.753517 -0.65866,1.056 -1.48972,2.238602 -1.84679,2.628003 -0.69675,0.759837 -1.28139,1.69832 -1.84505,2.961728 -0.33794,0.757472 -1.46939,2.213696 -3.40828,4.386593 -1.44168,1.61568 -2.7706,3.32684 -3.15597,4.06369 -0.19558,0.37399 -0.77755,1.31655 -1.29326,2.09456 -0.8743,1.31902 -1.22029,1.89151 -2.91628,4.82543 -0.67619,1.16975 -2.07153,3.33899 -3.68025,5.721412 -1.19069,1.76334 -0.96993,1.99336 2.0247,2.10958 2.27428,0.0883 4.63317,0.69911 8.75419,2.26694 1.056,0.40175 2.45584,0.81981 3.11075,0.92903 0.7099,0.11838 1.63914,0.62146 2.30112,1.24579 0.61071,0.57597 1.80287,1.39599 2.64925,1.82226 3.30359,1.66385 9.77501,7.99564 11.26812,11.02499 0.93826,1.90365 2.05766,5.53573 2.59528,8.42092 0.15364,0.82449 0.58123,2.86708 0.95022,4.53908 1.11035,5.03143 0.69277,17.45085 -0.73566,21.8795 -0.57188,1.77303 -1.22972,3.23725 -1.49908,3.33666 -0.69588,0.25684 -0.94891,0.73754 -0.96,1.82384 -0.006,0.56425 -0.1102,0.80207 -0.25335,0.57689 -0.29466,-0.46352 -0.83372,-0.15222 -1.13161,0.65349 -0.12005,0.32471 -0.50554,0.6655 -0.85666,0.75732 -0.35111,0.0918 -0.63848,0.25815 -0.63861,0.36962 -1.2e-4,0.11147 -0.38819,0.2252 -0.86237,0.25271 -0.47419,0.0275 -1.02885,0.27799 -1.23257,0.55661 -0.20373,0.27861 -0.85966,0.72171 -1.45763,0.98465 -1.49773,0.65859 -2.2072,1.26418 -2.2072,1.88399 0,0.2886 -0.20838,0.52472 -0.46307,0.52472 -0.25468,0 -1.13684,0.35825 -1.96035,0.79612 -0.87303,0.46419 -1.98078,0.78239 -2.65694,0.76319 -0.6378,-0.0181 -1.51964,0.10697 -1.95964,0.27794 -0.44,0.17097 -0.96538,0.25241 -1.1675,0.18097 -0.20213,-0.0714 -1.49813,0.17569 -2.88,0.54918 -4.14043,1.11907 -5.01184,1.32242 -6.38263,1.48946 -1.31014,0.15965 -1.31014,0.15965 -1.26169,1.59459 0.0749,2.21738 -0.17598,2.37736 -3.83772,2.44747 -1.75475,0.0336 -3.28046,0.18445 -3.39046,0.33524 -0.11,0.15079 -0.28656,0.13411 -0.39236,-0.0371 z m 11.31236,-7.31908 c 0.44,-0.0787 1.088,-0.23346 1.44,-0.34385 0.352,-0.1104 0.928,-0.23194 1.28,-0.27009 0.352,-0.0382 1.648,-0.23176 2.88,-0.43025 1.232,-0.19848 2.96,-0.47555 3.84,-0.6157 1.91027,-0.30423 2.8254,-0.75224 4.32,-2.11491 1.2019,-1.09581 4.84302,-3.3832 5.38545,-3.3832 0.6385,0 4.29452,-4.20706 4.40136,-5.06475 0.0147,-0.11839 0.20844,-0.64725 0.43042,-1.17525 0.89746,-2.13469 0.99415,-2.55154 1.13836,-4.90812 0.56728,-9.2701 0.40004,-13.89622 -0.62657,-17.33188 -0.28925,-0.968 -0.58038,-1.976 -0.64695,-2.24 -2.2764,-9.0275 -3.26405,-10.8301 -8.28919,-15.12894 -1.07408,-0.91885 -2.14162,-1.92355 -2.3723,-2.23267 -0.5149,-0.68998 -2.06618,-1.51823 -2.84469,-1.51883 -0.31674,-2.5e-4 -1.22389,-0.57893 -2.01589,-1.28596 -1.44,-1.28551 -1.44,-1.28551 -1.99828,-0.60622 -0.30706,0.37361 -0.47856,0.80828 -0.38112,0.96595 0.0974,0.15767 0.0605,0.28667 -0.0822,0.28667 -0.14263,0 -1.32841,1.01738 -2.63506,2.26084 -1.30665,1.24345 -2.77847,2.4691 -3.27072,2.72365 -0.49224,0.25454 -1.39857,0.80455 -2.01406,1.22224 -1.21264,0.82291 -4.95602,1.79327 -6.91799,1.79327 -0.67149,0 -2.17745,0.22184 -3.34658,0.49298 -2.51548,0.58338 -6.22243,0.26436 -12.31402,-1.05973 -2.024,-0.43994 -4.472,-0.84426 -5.44,-0.89848 -1.88053,-0.10532 -2.90957,-0.35312 -5.87403,-1.41447 -1.03071,-0.36902 -2.02971,-0.61906 -2.22,-0.55562 -0.19028,0.0634 -0.62106,-0.15977 -0.95729,-0.496 -0.38832,-0.38832 -0.89465,-0.55715 -1.38807,-0.46283 -0.42721,0.0817 -0.88112,-0.0207 -1.00868,-0.22747 -0.27155,-0.44019 -1.41332,-0.89449 -4.07193,-1.6202 -1.056,-0.28826 -3.33578,-1.02895 -5.06617,-1.64598 -1.73039,-0.61703 -3.79309,-1.18523 -4.58376,-1.26265 -0.79067,-0.0774 -2.013024,-0.43435 -2.716333,-0.79315 -1.156147,-0.58982 -3.048119,-1.2969 -7.361402,-2.75116 -0.818214,-0.27586 -2.042214,-0.98563 -2.72,-1.57727 -0.677785,-0.59163 -1.333757,-1.07845 -1.457712,-1.08183 -1.206445,-0.0329 -6.844992,-5.194912 -7.335533,-6.715632 -0.889446,-2.75736 -1.116137,-2.96625 -2.469664,-2.27573 -0.666736,0.34014 -1.393692,0.83707 -1.615465,1.10429 -0.22177,0.26722 -1.101056,0.71764 -1.953965,1.00093 -0.852909,0.28329 -1.723459,0.72318 -1.934554,0.97754 -0.211097,0.25435 -0.546179,0.46566 -0.744627,0.46958 -0.198451,0.004 -0.720819,0.28871 -1.160819,0.63288 -0.44,0.34417 -1.052,0.62897 -1.36,0.63288 -0.308,0.004 -0.56,0.13995 -0.56,0.3023 0,0.162352 -0.471446,0.450782 -1.047661,0.640942 -2.39024,0.78886 -13.032339,12.4462 -13.032339,14.27561 0,0.21445 -0.213011,0.56669 -0.47336,0.78276 -0.615523,0.51084 -1.44664,2.186 -1.44664,2.91579 0,0.31457 -0.144,0.66095 -0.32,0.76972 -0.176,0.10877 -0.32,0.6839 -0.32,1.27805 0,0.59416 -0.136912,1.44039 -0.304253,1.88053 -0.167337,0.44013 -0.376697,1.92551 -0.465241,3.30083 -0.08855,1.37533 -0.314608,3.00459 -0.502359,3.62059 -0.415043,1.36172 -0.339005,4.16 0.11304,4.16 0.198016,0 0.181379,0.14543 -0.04221,0.36902 -0.221443,0.22145 -0.263078,0.57337 -0.104112,0.88 0.145702,0.28104 0.369507,1.37245 0.497344,2.42535 0.127837,1.05291 0.514659,2.66871 0.859606,3.59066 0.344951,0.92196 0.696388,2.05794 0.780973,2.5244 0.08459,0.46647 0.505027,1.30861 0.934314,1.87144 0.429289,0.56282 1.202221,1.94937 1.717625,3.08122 1.604669,3.5239 5.265994,7.07481 7.725879,7.49288 1.164515,0.19791 3.762969,1.07731 4.309395,1.45843 0.176,0.12276 0.884275,0.40514 1.573942,0.62752 0.689671,0.22237 1.720829,0.67979 2.291463,1.01647 0.601101,0.35466 1.419677,0.55873 1.946054,0.48516 0.619363,-0.0866 1.196448,0.11244 1.813095,0.62524 0.588921,0.48974 1.370534,0.77197 2.24,0.80884 0.734496,0.0311 1.937907,0.0879 2.674246,0.12603 0.944528,0.049 1.393251,-0.0725 1.523686,-0.41241 0.147869,-0.38534 0.4885,-0.4331 1.7012,-0.23852 0.833975,0.13381 1.876314,0.21876 2.316314,0.18879 0.44,-0.03 2.744,0.23306 5.12,0.58454 2.376,0.35148 5.272525,0.69409 6.436723,0.76137 1.164199,0.0673 2.244199,0.18773 2.4,0.26769 0.155802,0.08 0.643277,0.11355 1.08328,0.0746 0.44,-0.0389 1.88,0.0649 3.2,0.2307 10.2146,1.28304 11.30108,1.4747 16.96,2.9918 3.4944,0.93682 7.91433,1.49129 12.96,1.62579 1.936,0.0516 3.736,0.16486 4,0.25167 0.264,0.0868 1.33849,0.2467 2.38776,0.35532 1.04927,0.10861 2.00517,0.35509 2.12423,0.54772 0.11905,0.19263 0.38563,0.24568 0.5924,0.11789 0.20677,-0.12779 0.6483,0.0141 0.98118,0.31539 0.50422,0.45631 0.7759,0.48825 1.62759,0.19135 0.56229,-0.19602 1.50033,-0.35639 2.08455,-0.35639 0.86691,0 1.02908,-0.10296 0.88206,-0.56 -0.1377,-0.42807 -0.10685,-0.45737 0.13096,-0.12436 0.20462,0.28654 1.06376,0.45082 2.51018,0.48 1.48558,0.03 2.44529,0.2187 2.95791,0.58168 0.59301,0.41991 0.94263,0.46592 1.6,0.21056 0.46265,-0.17971 1.20118,-0.39116 1.64118,-0.46988 z m 1.63831,-12.48416 c 0.38608,-0.4652 0.35897,-0.5015 -0.23402,-0.31329 -1.94591,0.61761 -6.23226,0.1813 -8.26502,-0.8413 -0.69341,-0.34882 -1.70141,-0.69508 -2.24,-0.76946 -1.64346,-0.22695 -3.96601,-1.30212 -4.73035,-2.18979 -3.12224,-3.62603 -4.12262,-5.51896 -4.28361,-8.10547 -0.55884,-8.9784 -0.2498,-11.43848 1.86377,-14.8362 1.50315,-2.41644 2.49937,-1.52212 1.16219,1.04331 -1.0316,1.97919 -1.30529,3.57116 -1.37158,7.97836 -0.0865,5.75144 0.0841,7.49901 0.80816,8.27617 0.33668,0.36139 0.61994,0.77109 0.62946,0.91045 0.11134,1.62978 3.93193,5.12589 5.66905,5.18758 0.3995,0.0142 1.6235,0.39321 2.72,0.84227 2.40403,0.98453 6.41789,1.29277 8.39364,0.64458 0.704,-0.23096 2.324,-0.74424 3.6,-1.14062 1.276,-0.39638 2.32,-0.84663 2.32,-1.00056 0,-0.15393 0.108,-0.25563 0.24,-0.22601 0.75806,0.17013 2.64,-0.50196 2.64,-0.94281 0,-0.27374 0.0917,-0.40597 0.20388,-0.29384 0.83916,0.83916 4.10422,-3.66286 5.87243,-8.09721 1.31796,-3.30519 1.48534,-4.10006 1.80873,-8.5893 0.2207,-3.06376 0.57438,-3.74451 1.53237,-2.94945 0.91665,0.76076 0.34941,6.9762 -0.99466,10.89875 -0.99744,2.91094 -3.54765,7.44419 -4.02264,7.15062 -0.18645,-0.11523 -0.24744,-0.0614 -0.13555,0.11968 0.46246,0.74828 -5.44498,4.5697 -7.06418,4.5697 -0.17997,0 -0.73968,0.21511 -1.2438,0.47803 -0.50412,0.26291 -1.14787,0.47891 -1.43056,0.48 -0.2827,9.6e-4 -1.17406,0.50597 -1.98081,1.12197 -1.57395,1.2018 -2.1726,1.44415 -1.4669,0.59384 z m -76.645501,-4.82769 c -0.474439,-0.47444 -4.280576,-0.78192 -4.53729,-0.36654 -0.205664,0.33276 -2.686361,0.18083 -3.818208,-0.23386 -1.945933,-0.71295 -7.621945,-5.82991 -9.041321,-8.1508 -0.385152,-0.62979 -1.071933,-1.3144 -1.52618,-1.52137 -0.454246,-0.20697 -0.752374,-0.49527 -0.662508,-0.64068 0.08986,-0.14541 -0.05617,-1.04479 -0.324516,-1.99864 -1.271094,-4.51807 -0.416262,-16.6865 1.292253,-18.39502 0.277725,-0.27772 0.504957,-0.6205 0.504957,-0.76173 0,-0.25476 2.738202,-3.50842 4.409322,-5.23935 0.988774,-1.02416 3.404432,-2.77816 3.826166,-2.77816 0.154096,0 0.77615,-0.37 1.382342,-0.82223 1.262132,-0.94156 3.141021,-1.80097 3.479732,-1.59164 0.126265,0.078 1.154969,-0.14918 2.286006,-0.50492 3.554656,-1.11805 9.594182,-0.95708 12.936432,0.34479 0.88,0.34278 2.195024,0.77513 2.922275,0.96079 1.877869,0.4794 6.000019,3.26582 7.121349,4.81378 0.52196,0.72053 1.32254,1.60388 1.77909,1.963 0.96708,0.76071 1.85329,2.32276 1.52453,2.68716 -0.12498,0.13853 -0.0629,0.15798 0.13792,0.0432 0.36444,-0.20824 2.31705,1.71959 2.96169,2.92411 1.12786,2.10742 1.33606,8.70742 0.35527,11.26194 -0.16894,0.44 -0.45799,1.49674 -0.64234,2.34831 -0.18435,0.85157 -0.69171,2.073 -1.12748,2.71428 -0.43577,0.64129 -0.7923,1.29641 -0.7923,1.45584 0,0.15942 -0.81149,1.49695 -1.80332,2.97228 -1.82575,2.7158 -3.79597,4.43157 -5.428713,4.72765 -0.447433,0.0811 -1.451568,0.52144 -2.231405,0.97846 -0.779836,0.45701 -1.59759,0.80123 -1.817225,0.76493 -0.536311,-0.0886 -2.228826,0.3755 -2.690851,0.73791 -0.230093,0.18049 -0.454109,0.15777 -0.58849,-0.0597 -0.140086,-0.22667 -0.34863,-0.24283 -0.58849,-0.0456 -0.204329,0.168 -0.80351,0.38969 -1.33151,0.49264 -0.528,0.10296 -1.963261,0.39283 -3.189466,0.64417 -1.481484,0.30366 -2.42088,0.35453 -2.8,0.15163 -0.366339,-0.19606 -0.784534,-0.19081 -1.16846,0.0147 -0.328858,0.176 -0.693028,0.2249 -0.809261,0.10866 z m 3.327187,-4.7674 v -2.99875 l -2.64,-0.0226 c -3.229328,-0.0276 -5.230522,-0.21714 -7.824189,-0.74111 l -1.984189,-0.40085 -0.187664,1.78226 c -0.103216,0.98024 -0.24822,2.16569 -0.32223,2.63434 -0.07909,0.50082 0.05772,1.01167 0.331853,1.23918 0.256531,0.2129 0.468624,0.26146 0.471318,0.10791 0.0026,-0.15355 0.141671,-0.0632 0.308832,0.20082 0.302112,0.47712 0.609904,0.5218 5.040147,0.73154 1.272634,0.0602 2.413821,0.20949 2.535972,0.33164 0.122153,0.12215 1.132905,0.20235 2.246121,0.17821 l 2.024029,-0.0438 z m 4.043213,2.37133 c 0.08501,-0.13755 0.519897,-0.25008 0.966422,-0.25008 0.819079,0 3.710794,-0.72694 5.279648,-1.32724 0.622826,-0.23831 0.906343,-0.6291 1.063267,-1.46559 0.277463,-1.47901 0.01805,-1.61686 -3.081113,-1.63718 -1.385117,-0.009 -2.624829,-0.082 -2.754915,-0.16203 -0.130087,-0.08 -0.956522,-0.23641 -1.836522,-0.34752 l -1.6,-0.20202 -0.02714,2.89185 c -0.02714,2.89184 -0.02714,2.89184 0.904326,2.82087 0.512311,-0.039 1.001024,-0.18352 1.086032,-0.32106 z m 10.867232,-3.61008 c 0.648379,-0.44 0.978769,-0.8117 0.734209,-0.826 -0.24456,-0.0143 -0.840654,-0.055 -1.324654,-0.0906 -0.764666,-0.0561 -0.88,0.0521 -0.88,0.82599 0,1.08413 0.0058,1.08449 1.470445,0.0906 z m -29.950445,0.0447 c 0,-0.23943 0.08942,-1.08776 0.198723,-1.88518 0.198723,-1.44984 0.198723,-1.44984 -1.45575,-1.80466 -3.390227,-0.72707 -3.405088,-0.67174 -0.662973,2.46875 1.482522,1.6979 1.92,1.97613 1.92,1.22109 z m 32.437324,-2.84466 c 0.5229,-0.5341 3.10714,-5.36 2.87024,-5.36 -0.10226,0 -0.0442,-0.18 0.12913,-0.4 0.17328,-0.22 0.41375,-0.832 0.53438,-1.36 0.12063,-0.528 0.28604,-1.18632 0.36758,-1.46293 0.12776,-0.43343 -0.35345,-0.51334 -3.48187,-0.57824 -2.78626,-0.0578 -3.645677,0.0219 -3.697053,0.34293 -0.03681,0.23004 -0.147619,2.25424 -0.246237,4.49824 -0.167766,3.81746 -0.141152,4.08153 0.4136,4.10378 0.87181,0.035 2.13137,0.28802 2.30681,0.46346 0.23279,0.23279 0.37687,0.18844 0.80342,-0.24724 z M 93.077276,138.168 c 0.02672,-2.20634 0.129497,-4.22234 0.228371,-4.48 0.139321,-0.36306 -0.133936,-0.47974 -1.214464,-0.51856 -0.766832,-0.0275 -1.826237,-0.0933 -2.354237,-0.14617 -1.526362,-0.15276 -3.783398,-0.15036 -4.48,0.005 -0.352,0.0784 -0.856,0.15383 -1.12,0.16765 -0.397683,0.0208 -0.489702,0.73841 -0.536579,4.18448 l -0.05658,4.15936 1.336579,0.0319 c 0.73512,0.0175 1.696579,0.14719 2.136579,0.28811 0.44,0.14091 1.972637,0.27056 3.405862,0.2881 l 2.605863,0.0319 0.0486,-4.01152 z m -11.574112,-1.4701 c 0.08622,-3.87536 0.08622,-3.87536 -0.72,-3.72124 -0.443418,0.0848 -0.806218,0.0502 -0.806218,-0.0767 0,-0.20977 -1.438051,-0.44968 -4.96,-0.82748 -0.704,-0.0755 -2.062448,-0.28032 -3.018771,-0.45511 -3.256167,-0.59514 -3.060864,-0.79416 -3.063872,3.1222 -0.0016,1.892 -0.11648,3.88788 -0.25561,4.4353 -0.25296,0.99529 -0.25296,0.99529 1.762647,1.39391 1.108582,0.21924 3.080304,0.45205 4.3816,0.51736 1.301296,0.0653 2.445942,0.1987 2.543657,0.29641 0.299901,0.29991 2.775903,-0.0275 3.338049,0.0264 1.853549,0.17752 0.781079,-3.92631 0.798518,-4.71104 z m -14.929367,1.99086 c 0.416122,-2.03462 0.339706,-7.60016 -0.104806,-7.63302 -0.226624,-0.0167 -1.888045,-0.10864 -3.692045,-0.2042 l -3.28,-0.17376 v 2.1775 c 0,2.84859 0.594659,5.75865 1.246963,6.10222 0.28217,0.14862 1.376154,0.36949 2.431072,0.49082 1.054919,0.12134 1.964736,0.26732 2.021818,0.32439 0.409654,0.40966 1.198528,-0.21133 1.376998,-1.08395 z m 36.583283,-10.13684 c -0.0407,-5.83595 -0.39499,-6.32505 -4.86013,-6.70838 l -2.640004,-0.22665 -0.01424,3.32132 c -0.0078,1.82672 -0.0617,3.97318 -0.119709,4.7699 l -0.105469,1.44858 3.399712,0.0989 c 1.86983,0.0544 3.4627,0.16151 3.5397,0.23809 0.55552,0.55245 0.81776,-0.41168 0.80013,-2.94172 z m -9.629776,1.40167 c 0.102986,-0.75573 0.194343,-2.99406 0.203015,-4.97406 l 0.01578,-3.6 -3.12457,-0.0233 c -1.718512,-0.0128 -3.970806,-0.0922 -5.005094,-0.17639 -1.559079,-0.1269 -1.849818,-0.073 -1.700883,0.31508 0.261987,0.68272 0.302131,7.92037 0.04855,8.75306 -0.211325,0.69394 -0.151216,0.7103 2.93856,0.8 1.734861,0.0504 3.892995,0.13391 4.795853,0.18564 1.641555,0.0941 1.641555,0.0941 1.8288,-1.28 z m -11.564102,-0.97406 c 0.08734,-1.1 0.07216,-3.4302 -0.03373,-5.17821 -0.232032,-3.83035 0.229389,-3.57232 -6.841376,-3.8258 -2.679133,-0.096 -5.159152,-0.2588 -5.511152,-0.36167 -0.571526,-0.16704 -0.646218,-0.0242 -0.698118,1.33528 -0.03197,0.83728 0.03018,1.6652 0.138108,1.83982 0.10792,0.17463 0.181664,1.38773 0.163872,2.69579 0.101778,1.97408 -0.936282,3.94909 0.90082,3.76833 0.37894,-0.0373 7.964105,1.40066 11.369046,1.69578 0.20871,0.0181 0.418829,-0.78926 0.512528,-1.96934 z m -14.904166,-3.53748 c -0.0903,-1.97038 -0.172701,-4.12252 -0.18313,-4.78252 -0.01896,-1.2 -0.01896,-1.2 -2.49896,-1.19604 -2.474941,0.004 -2.481459,0.006 -3.196013,1.10943 -1.22079,1.88481 -2.275159,7.77714 -1.391293,7.84661 1.512499,0.11887 4.193348,0.48269 5.730436,0.54252 l 1.703126,0.0625 z M 98.49963,117.7094 c -0.94747,-0.90971 -1.98499,-1.98176 -2.305599,-2.38236 -0.803987,-1.00458 -1.005507,-0.63522 -0.578544,1.06041 0.242336,0.9624 0.258413,1.70145 0.04899,2.25226 -0.171434,0.4509 -0.279261,0.82727 -0.239616,0.83638 0.03965,0.009 0.994599,0.0796 2.122129,0.15672 1.12753,0.0771 2.13253,0.22263 2.23334,0.32343 0.10081,0.10081 0.2415,0.009 0.31264,-0.20478 0.0712,-0.21343 -0.64585,-1.13237 -1.59334,-2.04206 z m -4.762684,0.47013 c 0,-0.92444 -0.133334,-1.28 -0.48,-1.28 -0.580291,0 -0.648304,-1.23559 -0.08,-1.45336 0.735008,-0.28164 0.417587,-2.42514 -0.453043,-3.05935 -1.382135,-1.00681 -8.21001,-3.03218 -8.670631,-2.57198 -0.265916,0.26567 -0.425152,1.80545 -0.483929,4.67958 l -0.0876,4.28362 1.527603,0.20591 c 0.840182,0.11326 1.671603,0.25522 1.847603,0.31549 0.176,0.0603 1.796,0.12093 3.6,0.13483 l 3.28,0.0253 z m -12.112,-4 c 0.0264,-2.376 0.0624,-4.5 0.08,-4.72 0.08848,-1.10601 -8.669542,0.66909 -9.356368,1.89637 -0.17273,0.30865 -0.672742,0.51247 -1.21913,0.49693 -1.805532,-0.0513 -2.421081,0.8124 -2.485795,3.48805 -0.04714,1.94885 0.03241,2.38764 0.437847,2.41526 0.272496,0.0186 3.015446,0.13637 6.095446,0.26179 3.08,0.12541 5.66,0.28508 5.733334,0.35482 0.520061,0.49451 0.672519,-0.40001 0.714666,-4.19322 z m -14.790493,1.57333 c 0.0343,-1.50475 -0.227449,-1.48474 -1.761581,0.13468 l -1.413417,1.49199 1.358745,0.16 c 1.508832,0.17767 1.777501,-0.0866 1.816253,-1.78667 z m 46.958997,33.24156 c -0.32092,-0.083 -0.51406,-0.33179 -0.42921,-0.55292 0.10552,-0.27497 -0.0865,-0.35603 -0.60742,-0.25644 -0.85738,0.1639 -3.13687,-1.92477 -3.50437,-3.21101 -0.11228,-0.39298 -0.5172,-1.33532 -0.89982,-2.09408 -0.68868,-1.36566 -0.68937,-1.38423 -0.0686,-1.84431 0.74965,-0.55562 1.13096,-0.46859 1.59008,0.36292 0.18857,0.34152 0.43419,0.69295 0.54581,0.78095 0.11162,0.088 0.51982,0.83621 0.9071,1.66269 1.19096,2.54155 2.52729,3.29982 5.76995,3.27405 2.58785,-0.0206 3.18293,0.16549 3.1951,0.99898 0.008,0.55475 -2.26516,1.25341 -2.55459,0.78511 -0.17178,-0.27795 -0.30306,-0.28795 -0.4594,-0.035 -0.21483,0.34761 -2.33555,0.42615 -3.48461,0.12905 z m 3.57834,-6.64671 c -0.0835,-0.0835 -0.81994,-0.20748 -1.63655,-0.27551 -1.2023,-0.10015 -1.65116,-0.32147 -2.35961,-1.16343 -0.48119,-0.57185 -1.09297,-1.25781 -1.35951,-1.52435 -0.89738,-0.89739 0.16765,-6.94428 1.28559,-7.29909 0.30937,-0.0982 0.65502,-0.47002 0.76809,-0.82628 0.11307,-0.35627 0.28719,-0.56615 0.38693,-0.46641 0.0997,0.0997 0.33858,0.0622 0.53078,-0.0834 0.79713,-0.60386 3.90037,-1.31927 4.72304,-1.08883 0.94491,0.26467 2.73652,2.32959 3.02764,3.48948 0.38598,1.53786 -0.0128,5.72697 -0.60124,6.31535 -0.308,0.30799 -0.56547,0.7297 -0.57214,0.93713 -0.0306,0.94934 -3.55855,2.61978 -4.19302,1.98532 z m 0.4636,-1.84855 c -0.16462,-0.2198 -0.33757,-0.94452 -0.38433,-1.6105 -0.0797,-1.13574 -0.035,-1.20181 0.7209,-1.06474 0.60097,0.10898 0.7615,0.0304 0.63122,-0.30912 -0.11812,-0.30783 0.0511,-0.45527 0.52239,-0.45527 0.63372,0 0.65138,-0.0457 0.19424,-0.50286 -0.60487,-0.60486 -0.65048,-1.09451 -0.10286,-1.10426 0.22,-0.004 0.0648,-0.26498 -0.3449,-0.58015 -0.85175,-0.65525 -0.54882,-1.11631 0.98669,-1.50169 0.48302,-0.12124 0.87821,-0.31681 0.87821,-0.43461 0,-0.404 -1.40603,-1.41834 -1.51459,-1.09266 -0.52883,1.5865 -2.26685,1.82147 -1.87326,0.25325 0.20959,-0.83507 0.006,-0.97581 -0.73469,-0.50695 -0.3709,0.23491 -0.35796,0.40104 0.08,1.02631 0.2874,0.41031 0.52254,0.92998 0.52254,1.15482 0,0.55354 -0.93692,0.52129 -1.15218,-0.0397 -0.356,-0.92771 -1.37005,-0.81329 -1.8817,0.21234 -0.50506,1.01242 -0.40635,1.56436 0.17569,0.98232 0.34806,-0.34806 1.80245,-0.19999 2.05537,0.20925 0.26919,0.43555 -0.93972,1.23159 -2.07718,1.36777 -0.99955,0.11968 -1.11295,0.22984 -1.05443,1.02435 0.0925,1.25652 0.19876,1.27068 1.36435,0.18185 1.19098,-1.11254 1.37627,-1.15672 1.95032,-0.46502 0.34548,0.41628 0.34337,0.55089 -0.0121,0.7706 -0.2369,0.14641 -0.45825,0.60344 -0.49189,1.01561 -0.0411,0.50332 -0.23439,0.71852 -0.58869,0.65537 -0.75775,-0.13506 -0.65077,0.42124 0.1497,0.77842 1.0908,0.48673 2.33595,0.50888 1.98121,0.0352 z m 2.28084,-0.8461 c 0.0974,-0.15756 -0.0335,-0.36727 -0.29087,-0.46602 -0.50005,-0.19189 -0.92712,0.20712 -0.58638,0.54786 0.28929,0.28928 0.66982,0.25378 0.87725,-0.0818 z m 1.39648,-4.89627 c 0.0889,-0.46187 -0.006,-0.48405 -0.68901,-0.16157 -0.43567,0.2056 -0.71898,0.49215 -0.6296,0.63678 0.2696,0.43622 1.20823,0.0979 1.31861,-0.47521 z m 19.07765,-17.19614 c 0.36663,-0.13333 1.58711,-0.27565 2.71219,-0.31627 2.29208,-0.0827 5.83379,-1.06116 6.42652,-1.77536 0.21385,-0.25767 1.3471,-1.00318 2.51834,-1.65671 1.90738,-1.06427 5.48954,-4.23922 5.48954,-4.86551 0,-0.13426 -0.54,-0.47655 -1.2,-0.76065 -2.49753,-1.07506 -3.6,-1.48937 -3.6,-1.35288 0,0.0776 -0.54,-0.065 -1.2,-0.31692 -0.66,-0.2519 -2.208,-0.52695 -3.44,-0.61121 -1.232,-0.0843 -2.672,-0.25727 -3.2,-0.38446 -0.528,-0.12719 -1.176,-0.20582 -1.44,-0.17473 -3.56991,0.42044 -4.67322,0.35769 -5.76,-0.32763 -0.616,-0.38844 -1.52505,-0.75386 -2.02012,-0.81203 -0.49506,-0.0582 -1.17906,-0.25506 -1.52,-0.43753 -0.34093,-0.18246 -0.61988,-0.24624 -0.61988,-0.14172 0,0.10451 -0.828,-0.23391 -1.84,-0.75204 -2.36144,-1.20904 -3.3903,-1.55932 -5.36,-1.82483 -0.88,-0.11862 -1.96,-0.2653 -2.4,-0.32594 -0.89716,-0.12365 -6.42921,-1.361862 -10.56,-2.363592 -2.98992,-0.72506 -4.70597,-1.06142 -8.32,-1.63078 -4.73612,-0.74615 -5.23037,-0.74692 -6.74261,-0.0105 -2.611752,1.27191 -6.64788,0.56144 -8.173512,-1.43878 -0.580375,-0.76088 -1.119284,-1.07016 -2.130391,-1.22263 -2.265581,-0.34162 -7.982179,-0.54368 -9.570598,-0.33827 l -1.497104,0.1936 0.627565,1.49312 c 0.345161,0.82122 0.910857,1.73221 1.257107,2.02442 0.346246,0.29221 0.629539,0.67399 0.629539,0.84839 0,0.17441 0.468,0.61856 1.04,0.98701 1.654589,1.065802 2.537923,1.684912 4.902147,3.435812 1.823767,1.35065 2.971248,1.88406 6.457853,3.00195 2.332,0.7477 4.240004,1.4678 4.240004,1.60022 0,0.13242 0.972,0.34371 2.16,0.46954 1.188,0.12582 2.736,0.48774 3.44,0.80426 2.20438,0.99109 6.6576,2.4724 8.16,2.71432 0.792,0.12753 2.304,0.56041 3.36,0.96195 4.16,1.58184 14.24906,4.40546 17.12,4.79138 0.792,0.10646 2.016,0.26769 2.72,0.35829 0.704,0.0906 2,0.28177 2.88,0.42483 1.63025,0.26503 3.25666,0.16711 4.45341,-0.26812 z m 2.61519,-15.86112 c 0.11043,-0.44 0.32219,-0.8 0.47059,-0.8 0.14839,0 0.92073,-0.972002 1.7163,-2.160002 0.79557,-1.188 1.64107,-2.448 1.87887,-2.8 0.74912,-1.10883 2.52011,-4.09138 3.5152,-5.92 0.52677,-0.968 1.29811,-2.2184 1.7141,-2.77865 0.81424,-1.09664 0.96121,-1.70135 0.41348,-1.70135 -0.18857,0 -0.57814,-0.23529 -0.86571,-0.52286 -0.42477,-0.42478 -0.54824,-0.43978 -0.65818,-0.08 -0.0744,0.24357 -0.83685,1.25949 -1.69428,2.25759 -0.85744,0.9981 -1.55897,1.91956 -1.55897,2.04768 0,0.12811 -0.504,0.72241 -1.12,1.32066 -0.616,0.59825 -1.12,1.21452 -1.12,1.36947 0,0.15496 -0.18486,0.47203 -0.41081,0.7046 -0.22594,0.23257 -0.82059,1.14286 -1.32145,2.02286 -0.50086,0.88 -1.45341,2.25654 -2.11679,3.05898 -1.41933,1.71686 -2.54807,3.506072 -2.54975,4.041702 -9.6e-4,0.3338 0.47924,0.44531 2.9527,0.68553 0.34782,0.0338 0.62861,-0.24385 0.7547,-0.74621 z M 94.776946,94.927598 c -0.22,-0.0888 -0.58,-0.0888 -0.8,0 -0.22,0.0888 -0.04,0.1614 0.4,0.1614 0.44,0 0.62,-0.0726 0.4,-0.1614 z M 156.52046,82.56191 c 0.80607,-0.933664 1.93646,-2.481664 2.51199,-3.44 0.57552,-0.958333 1.4309,-2.174426 1.90084,-2.702426 0.46993,-0.528 1.40316,-1.824 2.07383,-2.88 0.67067,-1.056 1.38871,-2.064 1.59564,-2.24 0.20694,-0.176 1.04832,-1.305142 1.86974,-2.509206 0.82142,-1.204061 1.78177,-2.500061 2.13411,-2.88 2.07447,-2.236951 2.06653,-2.211495 0.84233,-2.69977 -1.11191,-0.443488 -1.11191,-0.443488 -2.57187,1.102746 -3.06353,3.244534 -4.34885,4.76808 -4.54404,5.38623 -0.11115,0.352 -0.59611,1.216 -1.07767,1.92 -0.48157,0.704 -1.57822,2.337715 -2.437,3.630477 -3.1944,4.808707 -4.14729,6.1208 -5.16989,7.1188 -1.04848,1.023247 -1.04848,1.023247 -0.32,1.425607 1.24419,0.68721 1.67993,0.51896 3.19199,-1.232458 z m 15.61806,-21.102426 c 0.91327,-1.053357 4.77447,-6.31904 5.12915,-6.994832 0.22088,-0.420842 1.07858,-1.629168 1.90602,-2.685168 0.82743,-1.056 1.9147,-2.64 2.41614,-3.52 0.50145,-0.88 1.67535,-2.586294 2.60868,-3.791763 1.79724,-2.321296 1.85603,-2.60233 0.59485,-2.843421 -0.64086,-0.122509 -0.94453,0.07731 -1.58245,1.041267 -0.43417,0.656077 -1.17622,1.607101 -1.64899,2.113392 -0.7296,0.781315 -2.69341,3.437459 -3.82497,5.173437 -0.176,0.270013 -0.572,0.755565 -0.88,1.079008 -0.308,0.323443 -0.56,0.729798 -0.56,0.903011 0,0.173213 -1.40604,2.009213 -3.12452,4.08 -1.71849,2.070787 -3.31044,4.005402 -3.53767,4.299143 -0.676,0.873868 1.7693,1.993043 2.50376,1.145926 z M 187.67677,39.71703 c 0.31149,-0.981405 1.98205,-3.686804 3.24214,-5.250503 1.28525,-1.594909 1.28515,-1.593165 0.12507,-2.193065 -0.93203,-0.481972 -0.9338,-0.481037 -1.76,0.928764 -0.45487,0.776173 -0.82703,1.579351 -0.82703,1.784842 0,0.480586 -1.11378,2.105866 -2.3489,3.427622 -0.53204,0.569364 -0.9052,1.081066 -0.82923,1.137117 0.24565,0.181235 1.73145,0.823699 1.95657,0.846019 0.12014,0.0119 0.31876,-0.294448 0.44138,-0.680796 z M 6.8500677,134.92408 c -0.7902311,-1.20604 -0.432056,-7.61194 0.655875,-11.73021 0.426351,-1.61391 0.945375,-3.58238 1.153387,-4.37438 0.400129,-1.52348 1.7532823,-5.21118 2.2226763,-6.0574 0.153338,-0.27643 0.494129,-1.0066 0.757315,-1.6226 0.849319,-1.98788 3.640715,-6.55407 4.817625,-7.88071 0.176,-0.19839 0.896,-1.18624 1.6,-2.19522 2.957788,-4.239132 7.734677,-9.231882 13.069606,-13.660212 1.866503,-1.54932 4.623351,-2.63212 6.217524,-2.44205 1.060912,0.12649 1.352512,0.89809 0.339536,0.89844 -1.239712,3.2e-4 -3.668688,1.07405 -4.636327,2.04926 -0.500685,0.50461 -1.630339,1.45842 -2.510339,2.11956 -2.194521,1.64877 -7.97413,7.67646 -9.92,10.345822 -0.88,1.20719 -2.068,2.73664 -2.64,3.39878 -0.572,0.66214 -1.04,1.35445 -1.04,1.53845 0,0.184 -0.123455,0.38255 -0.274344,0.44121 -0.985553,0.38319 -6.125656,11.35404 -6.125656,13.07438 0,0.35254 -0.138004,0.89102 -0.306676,1.19663 -0.8679353,1.57259 -1.5087893,5.7706 -1.7457303,11.43566 -0.08833,2.112 -0.16668,3.948 -0.174101,4.08 -0.0314,0.55858 -0.942792,0.17452 -1.460371,-0.61541 z m 28.9668783,-4.23792 c 0,-0.33734 -0.127686,-0.66134 -0.28375,-0.72 -0.661802,-0.24879 1.297491,-8.78954 2.575452,-11.22667 0.346087,-0.66 0.546804,-1.2 0.446039,-1.2 -0.968906,0 3.830867,-6.49716 5.262259,-7.1232 1.85825,-0.81274 2.373626,0.32606 0.541107,1.19565 -1.143814,0.54278 -4.061107,4.58191 -4.061107,5.6228 0,0.32284 -0.124874,0.66415 -0.277498,0.75848 -0.721017,0.44562 -2.304806,7.06535 -2.45903,10.27798 -0.06347,1.32219 -0.202218,2.54446 -0.308323,2.71614 -0.355543,0.57528 -1.435149,0.34871 -1.435149,-0.30118 z m -11.699769,-0.0587 c -0.56759,-0.91837 -0.680807,-4.43255 -0.236088,-7.32801 0.256805,-1.672 0.464236,-3.46503 0.460956,-3.98452 -0.0073,-1.15745 0.801164,-4.72382 1.390726,-6.13485 0.376543,-0.90119 1.352295,-2.29524 4.423128,-6.31929 3.530817,-4.62682 9.631569,-9.307782 11.103937,-8.519792 0.771443,0.41286 0.800502,0.74934 0.123206,1.42664 -0.356925,0.356922 -0.632563,0.415422 -0.902365,0.19151 -0.561686,-0.46616 -6.017667,4.187892 -8.023731,6.844392 -0.88,1.16532 -2.149987,2.79763 -2.822194,3.62734 -2.27026,2.80221 -2.99245,4.78051 -3.237518,8.86857 -0.05275,0.88 -0.2229,2.176 -0.378102,2.88 -0.155202,0.704 -0.282186,2.864 -0.282186,4.8 0,1.9766 -0.140309,3.62308 -0.32,3.7551 -0.46793,0.34378 -1.050796,0.29576 -1.299769,-0.10709 z"
     id="path1507"
     inkscape:connector-curvature="0"
     sodipodi:nodetypes="cccssscscsccccsccccccccscsccsscccsccscccccscccccccccsscccscsscssssccsccsccccccccscssscsscccccsssccssccccccccscccccccccssccscssccsccccccccscsscccccsccscccssccscscccscscccsccsccscscscssssccscccsccccccccccccccscccccccccsccscccccccccccssccccccccsscsccccsccsccscccccscccscsccccsccccscscscccccccccscccccccccscccccccccsccccccsccccscsccscssscscscscscscccccccscccccccccscsccsccscccccsccccccccccccccccccccccccccccccccscccccccscccccccccccccscccsccccccssccccccsscccscccccccscccccccccccccsscccccccccssccccsccccscsscccccccsscccccccccccccccscsccsccccsccccccccscccscscsccsccscccsscccscccssscsccccscsscccscccsccccccccccccscccsscscccscscccccsscccscscccssscsccccsccsccscccscccasccccccssccc" />
</svg>
