<?xml version="1.0" encoding="UTF-8" standalone="no"?>
<!-- Created with Inkscape (http://www.inkscape.org/) -->

<svg
   xmlns:dc="http://purl.org/dc/elements/1.1/"
   xmlns:cc="http://creativecommons.org/ns#"
   xmlns:rdf="http://www.w3.org/1999/02/22-rdf-syntax-ns#"
   xmlns:svg="http://www.w3.org/2000/svg"
   xmlns="http://www.w3.org/2000/svg"
   xmlns:sodipodi="http://sodipodi.sourceforge.net/DTD/sodipodi-0.dtd"
   xmlns:inkscape="http://www.inkscape.org/namespaces/inkscape"
   version="1.1"
   id="svg830"
   width="133.75999"
   height="145.92"
   viewBox="0 0 133.75999 145.92"
   sodipodi:docname="legal.svg"
   inkscape:version="0.92.4 5da689c313, 2019-01-14">
  <metadata
     id="metadata836">
    <rdf:RDF>
      <cc:Work
         rdf:about="">
        <dc:format>image/svg+xml</dc:format>
        <dc:type
           rdf:resource="http://purl.org/dc/dcmitype/StillImage" />
        <dc:title></dc:title>
      </cc:Work>
    </rdf:RDF>
  </metadata>
  <defs
     id="defs834" />
  <sodipodi:namedview
     pagecolor="#ffffff"
     bordercolor="#666666"
     borderopacity="1"
     objecttolerance="10"
     gridtolerance="10"
     guidetolerance="10"
     inkscape:pageopacity="0"
     inkscape:pageshadow="2"
     inkscape:window-width="3200"
     inkscape:window-height="1745"
     id="namedview832"
     showgrid="false"
     inkscape:zoom="8.7513707"
     inkscape:cx="66.879997"
     inkscape:cy="72.959999"
     inkscape:window-x="0"
     inkscape:window-y="55"
     inkscape:window-maximized="1"
     inkscape:current-layer="svg830" />
  <path
     style="fill:#000000;stroke-width:0.31999999"
     d="m 66.719995,139.7549 c -6.133836,-0.33559 -7.93622,-0.34721 -13.119999,-0.0846 -8.316617,0.42133 -9.368207,-1.46211 -5.389545,-9.65288 1.447187,-2.97929 5.661478,-6.48582 8.576457,-7.13611 2.18976,-0.48851 2.524633,-0.8136 1.868937,-1.81432 -0.360499,-0.55019 -0.559337,-1.7459 -0.646982,-3.89065 -0.167114,-4.08925 0.230013,-4.89251 3.186208,-6.44476 2.324364,-1.22048 2.506947,-1.55583 1.526009,-2.80289 -2.066211,-2.62676 -1.636678,-8.146191 0.810547,-10.415388 0.892071,-0.827174 0.892071,-0.827174 0.652669,-8.770243 C 64.052622,84.374381 63.902491,80.296 63.85067,79.68 63.79885,79.064 63.667643,74.816 63.559106,70.24 63.328146,60.502627 63.121829,56.753315 62.706261,54.741571 62.342907,52.982602 61.810347,47.746781 61.548584,43.36 c -0.105021,-1.76 -0.213881,-3.229466 -0.24191,-3.265475 -0.02803,-0.03601 -1.021434,0.07196 -2.207568,0.239936 -2.666553,0.377632 -5.940787,1.950144 -8.796979,4.224918 C 49.141529,45.483722 47.51607,46.744 46.69,47.36 c -0.826071,0.616 -2.967024,2.344 -4.75767,3.84 -5.337824,4.459494 -6.660438,5.380493 -11.398738,7.937462 -0.425477,0.229604 -0.773594,0.615172 -0.773594,0.856823 0,0.534451 2.151116,7.212313 4.898166,15.205715 2.028076,5.901328 2.292841,6.587184 3.829481,9.92 0.44631,0.968 1.208774,2.832826 1.694365,4.144054 0.53599,1.447322 1.349907,2.893252 2.071481,3.68 1.576221,1.718592 1.746672,3.911796 0.38713,4.981213 -0.470506,0.370096 -2.050963,1.805219 -3.512134,3.189163 -3.88911,3.68355 -5.961302,4.62761 -10.328489,4.7055 -3.831221,0.0683 -4.980043,-0.23142 -8.061299,-2.10335 -1.121744,-0.68148 -3.57036,-1.96649 -5.44137,-2.85558 -2.178705,-1.035298 -3.441121,-1.82051 -3.511099,-2.183877 -0.111531,-0.579129 1.276094,-5.200275 2.3413,-7.797123 0.324871,-0.792 0.798951,-2.232 1.05351,-3.2 0.466302,-1.773184 1.793526,-5.571562 3.1867,-9.12 1.632848,-4.158893 2.132737,-5.51448 2.251264,-6.104922 0.06791,-0.338294 0.346645,-1.265267 0.619413,-2.059939 0.272767,-0.794675 0.722549,-2.450675 0.999516,-3.68 C 22.514899,65.485811 22.868522,64.12 23.023761,63.68 c 0.756722,-2.144806 0.69774,-2.879536 -0.231763,-2.887027 -4.568503,-0.03682 -7.413939,-6.076631 -4.991999,-10.596176 1.09762,-2.048253 2.550618,-2.896202 5.219077,-3.045789 0.979507,-0.05491 2.152429,-0.186451 2.606493,-0.29232 1.037971,-0.24201 1.734784,0.731715 1.851691,2.587546 0.104268,1.65518 -0.940461,2.721622 -2.96759,3.029264 -1.802768,0.27359 -2.423662,-0.07365 -2.452163,-1.371399 -0.04336,-1.974249 -0.323951,-2.230083 -1.465798,-1.336454 -1.962438,1.53584 -2.281499,6.007481 -0.531671,7.451392 C 24.07747,60.534115 30.215845,57.589744 36.3468,49.406829 37.388058,48.017072 38.965008,46.16 39.851136,45.28 c 3.296074,-3.273286 5.810992,-5.584691 7.98886,-7.34239 1.232,-0.994311 2.489367,-2.013373 2.794147,-2.264583 1.95401,-1.610541 5.607862,-3.084166 8.519833,-3.436109 L 62.14796,31.875067 61.92469,28.497533 C 61.543682,22.733826 61.595554,21.727414 62.362664,20 c 1.863962,-4.197344 6.169267,-4.353066 8.451449,-0.305688 1.030323,1.82725 1.011104,3.858152 -0.07557,7.985688 -0.824327,3.131047 -1.004695,3.178524 5.421455,-1.427059 2.642096,-1.893574 5.957737,-2.329709 10.24,-1.346955 4.206476,0.965361 5.545436,1.088019 9.594607,0.87893 9.870915,-0.509707 16.157365,-4.091469 14.197205,-8.088982 -1.39419,-2.843288 -3.95182,-2.486393 -3.95182,0.551443 0,3.200148 -3.11132,4.29053 -5.481,1.920851 -2.010174,-2.010178 -0.855553,-5.838287 2.38436,-7.905272 1.75933,-1.122409 6.22209,-1.209034 8.1337,-0.15788 1.12827,0.620411 3.22126,3.686576 3.6332,5.322516 0.92129,3.658781 -1.2853,9.221385 -4.27026,10.764898 -0.66,0.341285 -1.2,0.666972 -1.2,0.72375 0,0.05678 0.51031,1.673852 1.13401,3.593498 0.6237,1.919644 1.47177,4.786262 1.88459,6.370262 1.32409,5.080557 2.29425,7.563046 5.1273,13.12 2.88638,5.661578 5.17318,9.422451 5.75492,9.464541 0.18655,0.0135 0.98309,0.0495 1.7701,0.08 1.62928,0.06314 2.61971,1.452262 1.6018,2.246579 -0.26,0.202883 -0.67416,0.759472 -0.92036,1.236861 -0.62519,1.212246 -1.97395,2.531101 -4.63121,4.528531 -5.28836,3.97519 -7.02915,4.624202 -12.04115,4.489242 -5.65098,-0.152167 -7.84097,-1.405328 -13.279993,-7.599108 C 92.521711,62.667901 92.325715,61.36768 95.037049,61.12 l 1.751507,-0.16 1.040169,-3.68 c 0.572096,-2.024 1.264775,-4.832 1.53929,-6.24 0.274512,-1.408 0.641925,-3.136 0.816465,-3.84 0.17454,-0.704 0.37839,-1.615504 0.45298,-2.025565 0.0746,-0.410057 0.21501,-0.99567 0.31203,-1.301357 0.28072,-0.88447 2.72913,-12.399355 2.73012,-12.839799 2.1e-4,-0.0917 -1.83562,-0.18342 -4.079617,-0.20383 -2.244,-0.02041 -5.664,-0.263018 -7.6,-0.539127 -2.208176,-0.314927 -3.944508,-0.405715 -4.659075,-0.24361 -1.145059,0.259765 -4.473203,1.811033 -4.777715,2.22692 -0.08977,0.122598 -0.811209,0.721702 -1.603209,1.331344 -0.792,0.609642 -1.8,1.445206 -2.24,1.856813 C 76.706183,37.345638 71.276177,40.32 69.85082,40.32 c -0.713718,0 -0.694524,7.353312 0.04886,18.72 0.264743,4.048 0.566621,10.423821 0.670839,14.16849 0.104217,3.744668 0.255965,7.128668 0.337216,7.52 0.08125,0.391331 0.190092,4.541593 0.241875,9.222803 0.09415,8.511293 0.09415,8.511293 0.922544,9.404675 3.163948,3.412172 3.106921,6.763242 -0.200106,11.759172 -0.574675,0.86816 -0.57296,0.87754 0.215418,1.17729 0.437094,0.16618 1.409059,0.95761 2.159926,1.75872 2.871526,3.06369 3.390249,4.46854 2.371421,6.42245 -0.384941,0.73824 -0.406234,0.98393 -0.09429,1.08791 3.368563,1.12285 6.331251,3.59686 8.826067,7.37025 2.620627,3.96368 2.58695,5.97204 -0.149258,8.90116 -1.740607,1.86333 -7.881154,2.50192 -18.481339,1.92198 z m 10.38311,-2.6284 c 6.672201,-0.2983 8.859164,-1.70077 7.381321,-4.73354 -1.746867,-3.58485 -3.134531,-5.13016 -6.703267,-7.46478 -1.314099,-0.85966 -1.625517,-0.92446 -4.21856,-0.87772 -2.799721,0.0505 -2.799721,0.0505 -2.734435,-0.79891 0.04338,-0.56439 0.347968,-0.98486 0.907792,-1.25318 1.043255,-0.50002 2.824038,-2.4884 2.824038,-3.15326 0,-0.90256 -3.507148,-4.2537 -4.682479,-4.47419 -1.609194,-0.30189 -1.674947,-2.82243 -0.116115,-4.45092 2.835628,-2.96235 2.860063,-6.57505 0.06102,-9.02132 -1.31071,-1.145518 -1.374521,-1.820085 -0.962889,-10.17868 0.09534,-1.936 0.06064,-5.104 -0.07711,-7.04 C 68.644667,81.744 68.445249,77.208 68.339268,73.6 68.14683,67.048595 68.00316,64.222666 67.647851,60 67.544187,58.768 67.410699,57.184 67.351214,56.48 67.043758,52.841341 66.833787,48.374698 66.799995,44.754237 c -0.03776,-4.045763 -0.03776,-4.045763 -1.17888,-4.208471 -0.627616,-0.08949 -1.414246,-0.272406 -1.748064,-0.406486 -0.583405,-0.234326 -0.598112,-0.09033 -0.379168,3.712733 0.125277,2.176083 0.274944,4.035597 0.332592,4.132253 0.10864,0.18215 0.23336,1.082336 0.819123,5.912208 0.190538,1.571062 0.430292,2.992163 0.532788,3.158006 0.102496,0.165843 0.22415,2.984429 0.270342,6.263526 0.08669,6.153904 0.365385,14.232778 0.649593,18.830624 0.851978,13.782964 0.754557,16.73137 -0.552832,16.73137 -0.165497,0 -0.667855,0.801533 -1.116355,1.78118 -1.024553,2.23792 -0.853084,3.82237 0.669386,6.18549 1.066617,1.65555 1.071325,1.67966 0.644381,3.29813 -0.517786,1.96283 -0.51153,1.95655 -2.635015,2.6456 -2.193103,0.71165 -2.775721,1.58503 -2.782636,4.17137 -0.0044,1.65606 0.133462,2.14799 0.874745,3.12075 1.065885,1.39871 1.079847,1.6624 0.16,3.02243 -0.765945,1.13248 -2.848319,2.33505 -4.043375,2.33505 -0.752224,0 -2.833882,1.30498 -4.711734,2.95375 -1.719543,1.50978 -3.287856,4.59805 -3.53479,6.96058 l -0.210493,2.01389 3.970198,-0.28411 c 5.217804,-0.37339 16.647989,-0.12929 17.197819,0.36728 0.05919,0.0534 0.707194,0.0455 1.44,-0.0177 0.732807,-0.0632 3.268774,-0.20142 5.635485,-0.30723 z M 33.375454,102.33872 c 1.202902,-0.63179 2.963535,-2.02234 4.470146,-3.530525 C 39.212682,97.439686 40.481181,96.32 40.664487,96.32 c 0.183305,0 0.244284,-0.144 0.13551,-0.32 -0.30817,-0.49863 -1.719802,-0.380387 -4.161017,0.348547 -2.302362,0.687472 -3.919648,1.066493 -5.978113,1.401008 -0.900787,0.146381 -1.202942,0.359079 -1.28,0.901031 -0.140792,0.990195 -1.380889,1.126265 -1.873623,0.205584 -0.367265,-0.68624 -0.471778,-0.697466 -4.47042,-0.480096 -5.963962,0.324204 -6.341749,0.472054 -4.017799,1.57239 1.017202,0.481626 2.662048,1.401276 3.655215,2.043666 3.428943,2.2179 6.922894,2.33106 10.701214,0.34659 z M 19.359999,96.611645 c 1.759999,-0.189424 3.919999,-0.380429 4.799999,-0.424451 3.119144,-0.156042 2.836416,0.203955 2.59734,-3.307194 -0.116843,-1.716 -0.359863,-4.045386 -0.540044,-5.176416 -0.180181,-1.131027 -0.391861,-2.931027 -0.470399,-4 C 25.668356,82.634614 25.546186,81.04 25.475405,80.16 c -0.07078,-0.88 -0.23063,-3.59489 -0.35522,-6.033085 -0.124591,-2.438198 -0.272584,-4.670198 -0.328874,-4.96 C 24.735021,68.87711 24.666579,68.208 24.639219,67.68 c -0.05564,-1.073664 -0.419922,-0.125274 -2.089553,5.44 -0.978362,3.26111 -2.207127,6.411654 -3.702146,9.492269 -0.14207,0.292749 -1.134819,3.460749 -2.206108,7.04 -1.07129,3.579254 -2.029865,6.779577 -2.130168,7.111833 -0.157786,0.522672 -0.05895,0.576324 0.733193,0.398026 0.503559,-0.113344 2.355562,-0.361059 4.115562,-0.550483 z m 15.976392,-2.097424 c 1.395014,-0.414823 2.871014,-0.754221 3.28,-0.754221 0.749417,0 0.982803,-0.573539 0.462262,-1.136 -0.25583,-0.276432 -1.153811,-2.760816 -1.062499,-2.939546 0.0882,-0.17264 -0.909197,-2.713996 -1.809242,-4.609926 -1.497539,-3.15455 -2.54158,-5.882538 -3.71789,-9.714528 -0.594297,-1.936 -1.880393,-5.824 -2.857992,-8.64 -0.977599,-2.816 -1.780508,-5.372 -1.784242,-5.68 -0.0041,-0.338659 -0.252287,-0.56 -0.627905,-0.56 -0.847131,0 -1.077717,0.479613 -0.472193,0.982154 0.397812,0.330153 0.454318,0.777772 0.277248,2.196256 -0.281612,2.255952 -0.283207,2.919113 -0.01738,7.22159 0.119617,1.936 0.284544,4.744 0.366505,6.24 0.293266,5.352874 0.522145,7.882637 0.969887,10.72 0.249959,1.584 0.45505,4.003152 0.455758,5.375891 l 0.0013,2.495888 2,-0.221667 c 1.1,-0.121917 3.141375,-0.561069 4.536393,-0.975891 z M 115.83631,70.58047 c 2.39481,-1.238912 7.99578,-6.05504 7.55471,-6.496105 -0.0967,-0.09667 -1.44825,-0.206218 -3.00351,-0.243447 -1.96599,-0.04706 -3.06725,-0.224614 -3.61367,-0.582643 -0.99198,-0.649971 -7.01385,-1.152669 -7.01385,-0.585507 0,0.453434 -1.03494,0.484294 -1.47524,0.04399 -0.21357,-0.213578 -0.86879,-0.21978 -1.93127,-0.01827 -0.88442,0.167728 -3.07176,0.405769 -4.86076,0.528985 -2.303889,0.158679 -3.252727,0.342925 -3.252727,0.631616 0,0.224173 -0.142816,0.455587 -0.317373,0.514256 -0.522624,0.175648 4.00619,4.902938 5.79961,6.05377 2.78653,1.788109 8.8068,1.864326 12.11408,0.153366 z m -11.43619,-9.817334 c 0.74793,-0.198016 1.74103,-0.364147 2.2069,-0.369178 0.84702,-0.0092 0.84702,-0.0092 0.75441,-5.961552 -0.0661,-4.248486 -0.29521,-7.18904 -0.80034,-10.272406 -0.38924,-2.376 -0.77864,-5.4 -0.86533,-6.72 -0.28362,-4.318582 -0.98026,-3.270285 -2.02019,3.04 -0.52648,3.194598 -2.33875,10.99065 -3.66262,15.75584 -0.745034,2.681715 -1.310253,4.920195 -1.256045,4.974406 0.218512,0.218512 4.372085,-0.110576 5.643215,-0.44711 z m 15.27987,0.215155 c 0,-0.213033 -1.38089,-2.554301 -1.61505,-2.738291 -0.112,-0.088 -0.46624,-0.88 -0.78719,-1.76 -0.32095,-0.88 -0.70374,-1.7368 -0.85065,-1.904 -0.14691,-0.1672 -0.26711,-0.536048 -0.26711,-0.819661 0,-0.283613 -0.26296,-0.79792 -0.58436,-1.142902 -0.32141,-0.344983 -0.51872,-0.824183 -0.43849,-1.064883 0.088,-0.264048 0.003,-0.349015 -0.21563,-0.214212 -0.19884,0.122887 -0.36152,0.06303 -0.36152,-0.133014 0,-0.196042 -0.3032,-1.032541 -0.67377,-1.858883 -1.51101,-3.369383 -2.00696,-4.688109 -2.37024,-6.302445 -0.11882,-0.528 -0.27392,-1.176 -0.34468,-1.44 -0.99113,-3.698246 -1.27521,-4.664778 -1.41083,-4.8 -0.0883,-0.088 -0.19693,-0.304 -0.24147,-0.48 -0.12713,-0.502253 -1.55023,-4.392377 -1.93156,-5.28 -0.74138,-1.72574 0.0854,7.423059 1.20009,13.28 0.16748,0.88 0.40217,4.768 0.52152,8.64 0.11936,3.872 0.26775,7.098102 0.32976,7.169114 0.062,0.07101 2.23864,0.305075 4.83696,0.520137 2.59832,0.215063 4.83222,0.40896 4.96422,0.430887 0.132,0.02192 0.24,-0.0239 0.24,-0.101847 z M 45.072361,45.492246 c 1.258096,-1.059203 2.942506,-2.302233 5.167635,-3.813526 0.44,-0.298845 0.901565,-0.702528 1.025703,-0.897075 0.446121,-0.699162 4.638575,-2.374103 7.141135,-2.852976 3.233353,-0.618717 4.669683,-0.616253 6.16344,0.01059 2.76782,1.161465 8.622249,-1.209709 13.517656,-5.47496 1.491635,-1.299624 3.811987,-2.929769 5.156342,-3.622542 2.8312,-1.45898 2.53791,-1.685173 -1.914668,-1.476643 -2.519466,0.117995 -2.373495,0.04734 -6.60961,3.199269 -3.600415,2.67893 -6.982613,3.901641 -11.465637,4.144981 -4.358915,0.236605 -8.233036,1.026823 -8.854361,1.806055 -0.088,0.110365 -0.88,0.56871 -1.76,1.018547 -0.88,0.449837 -2.076886,1.26072 -2.65975,1.801965 C 49.397385,39.877162 48.803398,40.32 48.660278,40.32 c -0.544723,0 -11.220281,10.81088 -11.220281,11.362509 0,0.135673 3.235171,-2.488224 7.632364,-6.190263 z m -19.97522,4.884896 C 25.966246,49.508038 25.737815,48.64 24.639998,48.64 c -0.840784,0 -0.96,0.112592 -0.96,0.906666 0,1.398841 0.535162,1.712457 1.417143,0.830476 z M 66.982753,31.402139 c 0.842253,-0.188591 0.91008,-0.323365 1.011994,-2.010843 0.06008,-0.994788 0.256918,-2.084659 0.437424,-2.421936 1.036803,-1.937284 1.305328,-4.688528 0.585344,-5.997313 -2.070512,-3.763782 -5.251462,-2.261461 -5.056147,2.387953 0.04806,1.144 0.111466,3.484 0.140906,5.2 0.05892,3.434596 0.09141,3.46665 2.880479,2.842139 z m 38.758667,-3.720897 c 3.34977,-1.40286 4.39367,-1.93864 4.96772,-2.549687 0.80273,-0.85447 2.26268,-4.388237 2.21658,-5.365197 -0.0202,-0.428729 -0.15352,-0.197139 -0.32529,0.565191 -0.39001,1.730832 -2.78726,4.458696 -4.36481,4.966779 -0.65759,0.211793 -1.35098,0.507488 -1.54085,0.657099 -0.69318,0.546187 -4.77535,1.929278 -6.51147,2.206166 -1.404546,0.224006 -1.107595,0.246719 1.39812,0.106941 1.74978,-0.09761 3.62178,-0.361891 4.16,-0.587292 z m -2.16176,-9.147759 c 0.0328,-0.249416 0.14501,-1.106681 0.24934,-1.905034 0.14657,-1.121687 0.38753,-1.574252 1.06034,-1.991485 0.60735,-0.376647 0.70872,-0.542509 0.33521,-0.548449 -1.52159,-0.0242 -3.3464,2.891526 -2.77551,4.434776 0.28534,0.771353 1.02959,0.778062 1.13062,0.01019 z"
     id="path840"
     inkscape:connector-curvature="0"
     sodipodi:nodetypes="ccsccccssscscsccssssssssccccccccsssccsssccscsssssccccsccsssssscssccsssccsccsscscccscccssscscssscsccccscsccccsccccsccsscsscsscscsssssccscccsscscscscccsssscssscccscssccsccscsccscssccsscscssssccsccccsssccsscsccscscscscsscssscccscccccccccscssscccscssssscssssssscscccccccccccsscccccccc" />
</svg>
