<?xml version="1.0" encoding="UTF-8" standalone="no"?>
<!-- Created with Inkscape (http://www.inkscape.org/) -->

<svg
   xmlns:dc="http://purl.org/dc/elements/1.1/"
   xmlns:cc="http://creativecommons.org/ns#"
   xmlns:rdf="http://www.w3.org/1999/02/22-rdf-syntax-ns#"
   xmlns:svg="http://www.w3.org/2000/svg"
   xmlns="http://www.w3.org/2000/svg"
   xmlns:sodipodi="http://sodipodi.sourceforge.net/DTD/sodipodi-0.dtd"
   xmlns:inkscape="http://www.inkscape.org/namespaces/inkscape"
   version="1.1"
   id="svg266"
   width="89.279999"
   height="92.160004"
   viewBox="0 0 89.279999 92.160004"
   sodipodi:docname="bibed-type-image.svg"
   inkscape:version="0.92.4 5da689c313, 2019-01-14">
  <metadata
     id="metadata272">
    <rdf:RDF>
      <cc:Work
         rdf:about="">
        <dc:format>image/svg+xml</dc:format>
        <dc:type
           rdf:resource="http://purl.org/dc/dcmitype/StillImage" />
        <dc:title></dc:title>
      </cc:Work>
    </rdf:RDF>
  </metadata>
  <defs
     id="defs270" />
  <sodipodi:namedview
     pagecolor="#ffffff"
     bordercolor="#666666"
     borderopacity="1"
     objecttolerance="10"
     gridtolerance="10"
     guidetolerance="10"
     inkscape:pageopacity="0"
     inkscape:pageshadow="2"
     inkscape:window-width="3200"
     inkscape:window-height="1734"
     id="namedview268"
     showgrid="false"
     inkscape:zoom="13.736979"
     inkscape:cx="44.639999"
     inkscape:cy="46.080002"
     inkscape:window-x="0"
     inkscape:window-y="66"
     inkscape:window-maximized="1"
     inkscape:current-layer="svg266" />
  <path
     style="fill:#000000;stroke-width:0.31999999"
     d="m 14.519598,86.655649 c -1.846197,-1.127805 -2.516052,-2.475226 -2.583583,-5.1969 -0.03519,-1.41831 -0.151871,-3.730746 -0.259286,-5.138746 -0.107416,-1.408 -0.250314,-8.392 -0.317551,-15.52 -0.228921,-24.268401 -0.52094,-41.435778 -0.740281,-43.520002 -0.280134,-2.661888 0.143416,-5.626736 0.96199,-6.733917 C 12.457598,9.3602698 17.837453,8.4925568 26.339141,8.165736 28.769669,8.0723021 33.16167,7.7308925 36.099142,7.4070483 39.036614,7.0832041 42.016,6.8677337 42.72,6.9282253 c 1.609312,0.1382806 10.727548,0.1045955 13.919999,-0.051424 1.32,-0.06451 7.036541,-0.2081169 12.703421,-0.3191255 l 10.303421,-0.2018339 0.784435,1.5480103 c 1.006294,1.9858234 1.728016,6.6028528 1.965872,12.5761488 0.184505,4.633463 0.268265,5.683798 0.765558,9.6 0.265847,2.093556 -0.0568,12.495591 -0.405062,13.059092 -0.102823,0.166368 -0.194167,4.100131 -0.202986,8.7417 -0.0088,4.641565 -0.224643,11.10321 -0.479606,14.35921 -0.254963,3.256 -0.527203,7.850995 -0.604983,10.211101 -0.165382,5.018372 -0.368409,5.466912 -3.084803,6.815108 -2.583065,1.282025 -4.176307,1.494998 -12.625267,1.687654 -4.224,0.09632 -8.616,0.297527 -9.76,0.44713 -1.144,0.149603 -4.618025,0.297181 -7.720057,0.327952 -3.102029,0.03078 -8.142029,0.266637 -11.2,0.52415 -8.203409,0.690819 -21.694396,0.931539 -22.560344,0.402551 z M 34.56,83.675053 c 1.181571,-0.238563 7.50742,-0.491664 15.839999,-0.63376 4.048,-0.06903 7.72,-0.192681 8.16,-0.274777 1.060804,-0.197924 7.432135,-0.518916 11.04,-0.556199 6.976659,-0.0721 9.44,-1.058137 9.44,-3.778701 0,-0.721385 -0.144,-1.311613 -0.32,-1.311613 -0.176,0 -0.32,0.206298 -0.32,0.458436 0,0.835609 -2.375257,1.23448 -4.925347,0.8271 -1.124819,-0.179689 -2.716346,-0.39463 -3.536723,-0.477641 -0.820378,-0.08301 -1.630394,-0.236714 -1.800042,-0.341559 -0.169645,-0.104848 -0.685469,-0.258998 -1.146278,-0.34256 -0.460807,-0.08356 -1.21633,-0.347657 -1.678938,-0.58688 -0.751437,-0.388582 -2.874323,-0.825398 -4.664809,-0.959849 -1.056906,-0.07937 -2.457335,0.504944 -3.960864,1.652614 -2.06744,1.578112 -3.13065,2.050621 -4.966077,2.207005 -0.902509,0.0769 -2.118314,0.200576 -2.701792,0.274842 C 47.578252,80.014906 43.110316,79.008893 39.04,77.584579 37.192,76.937917 34.744054,76.208842 33.600118,75.964416 31.172845,75.445776 21.229681,75.352518 19.124592,75.828646 18.374066,75.998403 16.968,76.324259 16,76.552778 l -1.76,0.415485 0.114885,3.035868 c 0.121055,3.198932 0.301275,3.698317 1.428354,3.957965 0.850474,0.195924 17.657218,-0.061 18.776761,-0.287043 z m 15.679999,-6.582448 c 2.931812,-0.08031 3.590381,-0.308928 5.487981,-1.905088 3.244931,-2.729466 6.119037,-3.028928 10.352019,-1.078611 0.88,0.405452 2.536,0.881155 3.68,1.057113 4.446282,0.683882 4.993207,0.74952 6.011792,0.721511 0.578487,-0.0159 1.294768,-0.1649 1.591738,-0.331092 0.314349,-0.17592 0.75759,-0.185686 1.060867,-0.02339 0.458829,0.245559 0.545443,-0.09144 0.726608,-2.827132 0.339968,-5.133671 0.304739,-5.785021 -0.268618,-4.966442 -0.493974,0.705251 -2.281859,1.116144 -6.882387,1.581715 -4.37808,0.443062 -4.210352,0.614397 -8.341811,-8.521197 -1.769584,-3.912951 -2.891273,-5.76 -3.497971,-5.76 -0.607926,0 -1.58736,0.303116 -5.600218,1.733168 -4.560502,1.625216 -4.780163,1.534819 -6.126441,-2.521178 -0.69025,-2.079546 -1.840035,-4.447837 -2.555946,-5.264656 -0.06395,-0.07296 -0.89951,0.263616 -1.856796,0.747958 -1.889722,0.956115 -2.565376,0.914999 -3.628167,-0.220793 -1.350534,-1.443297 -4.706918,-8.04251 -5.693565,-11.1945 -0.693654,-2.215984 -0.708505,-2.218528 -1.83119,-0.313651 -1.368921,2.322675 -4.891207,10.020541 -5.976671,13.061866 -0.319615,0.895517 -0.724209,1.903517 -0.899098,2.24 -0.174888,0.336483 -0.787042,1.596957 -1.360342,2.801056 -1.182659,2.483936 -2.379952,4.05073 -3.095436,4.05073 -0.267719,0 -1.324871,-0.446707 -2.349228,-0.992685 -2.307601,-1.229939 -2.268958,-1.256618 -3.460128,2.388822 -1.67652,5.130794 -2.060118,7.315511 -1.824535,10.391339 0.243359,3.17734 0.186098,3.048284 1.176192,2.650947 1.472793,-0.59105 6.913702,-1.7356 8.281352,-1.742064 6.193196,-0.02928 12.23022,0.796358 14.72,2.013133 0.616,0.301046 2.488,0.920828 4.16,1.377299 4.113183,1.122934 4.22878,1.146736 4.959999,1.021325 0.352,-0.06037 1.72,-0.139351 3.04,-0.175514 z m 27.44,-11.420602 c 1.302435,-0.354266 2.008541,-0.712816 2.024483,-1.028003 0.01347,-0.266199 0.08227,-0.771997 0.1529,-1.123997 0.07063,-0.352 0.200499,-4.024 0.288601,-8.160001 0.157354,-7.387034 0.455542,-13.408317 0.683264,-13.79705 0.260698,-0.445024 0.11273,-11.223552 -0.192781,-14.042951 -0.181177,-1.672 -0.403129,-5.128 -0.493222,-7.68 C 79.962386,14.717134 79.559852,11.34874 78.975145,10.06545 78.592006,9.2245518 78.592006,9.2245518 64.016002,9.4735854 49.051967,9.7292484 47.897427,9.7350001 41.6,9.5852606 c -2.452852,-0.058324 -4.640378,0.093 -6.56,0.4537924 -1.584,0.297712 -4.608,0.608295 -6.72,0.690185 -5.634808,0.21848 -8.776926,0.474502 -10.4,0.847398 -0.792,0.18196 -1.728,0.369277 -2.08,0.416261 -0.352,0.04698 -0.64,0.115802 -0.64,0.152931 0,0.03713 -0.337231,0.104415 -0.749402,0.149527 -1.251952,0.137025 -1.36017,0.708404 -1.156201,6.104646 0.10644,2.816 0.240291,13.04 0.297447,22.720001 0.119541,20.245671 0.07156,18.909373 0.623494,17.362906 1.132201,-3.172288 1.804719,-3.495587 4.477536,-2.152496 1.170872,0.588365 2.286455,0.949248 2.582813,0.835526 0.470925,-0.180713 3.895334,-6.920064 4.484064,-8.824787 0.132404,-0.428371 0.775032,-1.868371 1.428062,-3.2 0.653031,-1.331632 1.384572,-2.925149 1.625647,-3.541149 0.241076,-0.616 1.107325,-2.416 1.924997,-4 0.817672,-1.584 1.659386,-3.408481 1.870477,-4.054404 0.93177,-2.851133 2.184163,-2.24559 3.379194,1.633872 1.422931,4.619309 2.055846,6.140932 3.901795,9.380532 1.944601,3.412733 2.051136,3.479418 3.734163,2.337283 2.157558,-1.464157 2.400285,-1.536678 3.042294,-0.908982 0.822397,0.804061 2.185607,3.330694 3.416183,6.331699 1.252035,3.053341 1.265984,3.056068 5.523923,1.07986 3.965904,-1.840669 5.124483,-1.927428 6.39624,-0.47898 0.854825,0.973591 4.557273,8.152695 4.557273,8.836625 0,0.130979 0.521843,1.17703 1.159655,2.324553 1.151881,2.072416 1.167692,2.085328 2.358515,1.925604 0.659369,-0.08844 1.287331,-0.01763 1.395465,0.157321 0.27386,0.443111 3.792397,0.163629 6.206365,-0.492982 z M 62.512815,37.947688 c -3.651993,-1.157875 -7.465414,-5.536013 -8.385856,-9.627687 -0.61703,-2.742905 -0.443008,-7.52 0.27394,-7.52 0.131504,0 0.323171,-0.42036 0.425926,-0.934133 0.53281,-2.664037 7.536963,-7.204759 9.950304,-6.450682 0.540579,0.16891 1.70287,0.375313 2.58287,0.458674 2.888253,0.273598 6.431559,2.591923 7.694656,5.034484 0.832723,1.610309 1.511811,5.439218 1.324989,7.47068 -0.702026,7.633509 -7.745315,13.509509 -13.866829,11.568664 z m 5.989475,-3.153437 c 1.322455,-0.557264 3.830468,-3.177503 4.731002,-4.942693 0.738387,-1.447361 1.120432,-5.20375 0.698502,-6.867895 -0.148326,-0.585014 -0.357737,-1.457021 -0.465363,-1.937793 -0.235696,-1.052885 -1.878749,-2.991694 -3.047526,-3.596093 -2.359322,-1.220053 -7.473875,-1.556032 -8.863699,-0.582263 -0.503363,0.352678 -1.077783,0.697765 -1.276487,0.76686 -1.164348,0.404875 -3.002492,2.630268 -3.658384,4.429108 -1.475772,4.047449 -0.412297,7.921029 3.068695,11.177323 2.766697,2.588115 5.298755,3.034419 8.81326,1.553446 z"
     id="path276"
     inkscape:connector-curvature="0"
     inkscape:export-filename="/home/olive/bibed-type-image512.png"
     inkscape:export-xdpi="609.92419"
     inkscape:export-ydpi="609.92419" />
</svg>
