<?xml version="1.0" encoding="UTF-8" standalone="no"?>
<!-- Created with Inkscape (http://www.inkscape.org/) -->

<svg
   xmlns:dc="http://purl.org/dc/elements/1.1/"
   xmlns:cc="http://creativecommons.org/ns#"
   xmlns:rdf="http://www.w3.org/1999/02/22-rdf-syntax-ns#"
   xmlns:svg="http://www.w3.org/2000/svg"
   xmlns="http://www.w3.org/2000/svg"
   xmlns:sodipodi="http://sodipodi.sourceforge.net/DTD/sodipodi-0.dtd"
   xmlns:inkscape="http://www.inkscape.org/namespaces/inkscape"
   version="1.1"
   id="svg64"
   width="167.03999"
   height="155.52"
   viewBox="0 0 167.03999 155.52"
   sodipodi:docname="bibed-type-review.svg"
   inkscape:version="0.92.4 5da689c313, 2019-01-14">
  <metadata
     id="metadata70">
    <rdf:RDF>
      <cc:Work
         rdf:about="">
        <dc:format>image/svg+xml</dc:format>
        <dc:type
           rdf:resource="http://purl.org/dc/dcmitype/StillImage" />
        <dc:title></dc:title>
      </cc:Work>
    </rdf:RDF>
  </metadata>
  <defs
     id="defs68" />
  <sodipodi:namedview
     pagecolor="#ffffff"
     bordercolor="#666666"
     borderopacity="1"
     objecttolerance="10"
     gridtolerance="10"
     guidetolerance="10"
     inkscape:pageopacity="0"
     inkscape:pageshadow="2"
     inkscape:window-width="3200"
     inkscape:window-height="1734"
     id="namedview66"
     showgrid="false"
     inkscape:zoom="7.7286881"
     inkscape:cx="83.519997"
     inkscape:cy="77.760002"
     inkscape:window-x="0"
     inkscape:window-y="66"
     inkscape:window-maximized="1"
     inkscape:current-layer="svg64" />
  <path
     style="fill:#000000;stroke-width:0.31999999"
     d="M 78.559995,142.24502 C 70.250921,140.68945 61.72695,133.17864 56.401171,122.72 55.02321,120.014 53.716,112.85985 54.226816,110.82012 c 0.159827,-0.63819 -0.01517,-0.58845 -1.985773,0.56444 -3.484544,2.03861 -5.645199,1.66919 -9.113695,-1.55822 -1.039066,-0.96684 -1.92992,-3.76057 -1.795005,-5.62914 0.05231,-0.72446 0.02592,-1.2905 -0.05862,-1.25786 -0.08455,0.0326 -0.369724,0.13234 -0.633724,0.22154 -0.264,0.0892 -1.2,0.40993 -2.08,0.71273 -3.492227,1.20161 -8.456118,0.80291 -11.29287,-0.90706 -0.579078,-0.34906 -1.530171,-0.87133 -2.113538,-1.1606 -1.642203,-0.81431 -5.457162,-4.420148 -7.609178,-7.192075 -3.016719,-3.885715 -4.42859,-8.676397 -4.525133,-15.354425 -0.05928,-4.100551 -0.05928,-4.100551 -1.074327,-3.910183 -0.593049,0.111226 -1.104862,0.04505 -1.231085,-0.159187 C 10.595047,74.997824 10.169682,74.71576 9.7686122,74.563274 8.2661416,73.992035 8.6896366,70.972026 10.576795,68.8 c 0.579364,-0.666819 0.97976,-0.8 2.405142,-0.8 1.710065,0 1.710065,0 2.256986,-1.44 0.300807,-0.792 1.263119,-2.592 2.138472,-4 4.479578,-7.205376 10.346775,-9.589763 18.78466,-7.633955 2.082061,0.482598 2.082061,0.482598 5.12,-1.564768 5.017046,-3.381152 9.977363,-6.764413 11.712227,-7.988503 0.898857,-0.634217 2.266857,-1.471779 3.039999,-1.861251 0.773143,-0.389469 2.053716,-1.164185 2.845715,-1.721593 0.792,-0.557408 2.16,-1.430368 3.04,-1.939914 0.88,-0.509546 2.032,-1.380797 2.56,-1.936115 0.528,-0.555319 2.328,-2.444931 4,-4.199139 4.327072,-4.539821 5.202368,-5.99498 9.596982,-15.954762 1.963689,-4.450429 2.763552,-5.850476 3.97374,-6.955483 0.720103,-0.657516 1.441939,-1.1975157 1.60408,-1.1999999 0.162141,-0.0025 0.546579,-0.2323705 0.854304,-0.5108582 0.51168,-0.4630653 0.677933,-0.4529459 1.945197,0.1184 3.489523,1.5732501 4.033353,3.7210761 2.387878,9.4307861 -1.143312,3.967224 -1.824707,5.040105 -4.766156,7.50446 -1.276951,1.069835 -3.385549,2.981274 -4.530547,4.106933 -1.817251,1.786559 -6.257418,5.108959 -10.745478,8.040421 -1.672,1.092096 -3.436035,2.293546 -3.920077,2.669888 -0.757126,0.588663 -3.571683,2.239885 -6.319923,3.707719 -0.439999,0.235004 -1.590979,1.079881 -2.557731,1.877507 C 55.035514,47.347398 54.074563,48 53.866819,48 c -0.207744,0 -0.784768,0.327616 -1.282269,0.728035 -0.497504,0.400423 -1.277708,0.916528 -1.733788,1.146909 -0.45608,0.230378 -2.11208,1.34024 -3.68,2.466365 -1.56792,1.126125 -3.534765,2.494368 -4.370765,3.040541 -1.832396,1.197142 -1.855452,1.346496 -0.32,2.073059 1.683239,0.796493 3.472957,2.294125 4.319984,3.614944 2.192339,3.418656 2.650179,4.319501 3.640061,7.162198 1.344547,3.86121 2.029062,6.715997 2.035225,8.487949 0.0029,0.854058 0.153536,1.372419 0.40473,1.393389 0.22,0.01837 0.929331,0.06681 1.576294,0.107664 2.05593,0.129821 2.934794,0.95952 2.679782,2.529881 C 57.017366,81.48192 56.792323,83.16 56.635977,84.48 c -0.391065,3.301683 -1.113897,5.263421 -2.105929,5.715421 -1.380467,0.628982 -2.617507,0.452777 -3.214157,-0.457824 -0.53886,-0.822403 -0.53886,-0.822403 -1.012819,0.24 -0.49632,1.112521 -1.243395,4.750665 -1.528041,7.441328 -0.118724,1.122233 -0.486362,2.013933 -1.271037,3.082875 -0.607197,0.82717 -1.103997,1.81871 -1.103997,2.20342 0,0.83508 1.693664,3.39113 2.551034,3.84998 1.475923,0.78989 4.035747,-0.18596 4.781542,-1.8228 0.180262,-0.39563 1.030755,-1.22439 1.889987,-1.84169 1.588009,-1.14087 3.524243,-4.128044 2.918416,-4.502467 -0.469149,-0.289949 -0.353671,-3.758435 0.175017,-5.256902 0.622471,-1.764266 4.473437,-6.682333 5.554173,-7.093226 2.208412,-0.839638 3.918044,0.553123 3.938614,3.208618 0.0112,1.444054 0.05649,1.524393 0.781545,1.385789 0.423319,-0.08092 0.769671,-0.262772 0.769671,-0.404109 0,-0.593639 3.447571,-1.376 6.079999,-1.379741 4.581805,-0.0065 8.479645,1.680742 12.189613,5.276506 4.447849,4.310928 7.181839,10.946682 8.773602,21.294682 0.888048,5.77316 1.021184,10.61558 0.36176,13.15773 -0.435027,1.67707 -0.435027,1.67707 0.838714,2.95081 l 1.273744,1.27374 1.208412,-1.37283 c 0.66463,-0.75506 1.88705,-2.37554 2.71648,-3.60107 0.82944,-1.22553 2.05708,-2.80424 2.72808,-3.50824 0.671,-0.704 1.97003,-2.504 2.88673,-4 2.07956,-3.39374 4.63619,-6.59988 7.11934,-8.928 1.05122,-0.9856 3.87156,-3.7897 6.26742,-6.23132 2.39586,-2.44164 5.13115,-5.177637 6.07843,-6.080005 C 129.2296,98.178304 131.19276,96 132.64491,94.24 c 1.45214,-1.76 2.96093,-3.488 3.35288,-3.84 0.39195,-0.352 1.38078,-1.634163 2.19742,-2.849254 4.58554,-6.822954 5.93247,-10.12025 6.94063,-16.990746 0.49755,-3.390707 1.54254,-8.747165 2.12257,-10.88 0.63251,-2.325824 0.84554,-3.175843 1.40347,-5.6 0.71131,-3.090589 0.86791,-3.384074 2.77475,-5.2 1.92113,-1.82953 1.92846,-1.830195 3.44567,-0.312982 1.18112,1.181116 1.21199,1.27327 1.43849,4.294393 0.15499,2.067331 0.1035,3.650896 -0.15587,4.792983 -0.21303,0.938083 -0.53494,2.353606 -0.71535,3.145606 -0.61239,2.688397 -1.92921,6.870669 -3.00595,9.547011 -0.59014,1.466858 -1.16298,3.338858 -1.27299,4.16 -0.11,0.821146 -0.32839,1.735523 -0.48532,2.031952 -0.15693,0.296429 -0.28532,0.930592 -0.28532,1.409248 0,2.706493 -1.29287,4.174307 -22.08,25.067799 -4.664,4.68786 -8.96966,9.09502 -9.56813,9.79369 -2.09606,2.44697 -6.04702,6.50848 -6.19113,6.36437 -0.08,-0.08 -0.60948,0.72507 -1.17659,1.78908 -0.56711,1.064 -1.39821,2.32657 -1.84689,2.8057 -0.96596,1.03154 -5.94826,8.02309 -8.54632,11.99287 -2.640581,4.03475 -6.036593,5.30928 -8.711131,3.26932 -1.060601,-0.80896 -1.060601,-0.80896 -2.398217,0.16 -0.735687,0.53293 -1.512586,0.96896 -1.726445,0.96896 -0.213859,0 -0.732253,0.2701 -1.151987,0.60021 -1.874333,1.47414 -5.290854,2.07496 -8.443155,1.48481 z m 4.98192,-2.92071 c 3.514893,-1.04286 7.33808,-3.46129 7.33808,-4.64184 0,-1.02571 1.534537,-3.73491 2.534099,-4.47392 0.931548,-0.68872 1.524352,-1.88855 0.933084,-1.88855 -0.172092,0 -0.08683,-0.22607 0.189479,-0.50238 0.956294,-0.95629 1.235225,-3.86833 0.733488,-7.65762 -0.116519,-0.88 -0.282259,-2.248 -0.368307,-3.04 -0.461968,-4.25193 -0.605856,-5.15896 -1.167562,-7.36 -0.606118,-2.37507 -0.764506,-2.80284 -2.191965,-5.92 -1.990732,-4.347178 -3.241353,-6.523146 -4.302243,-7.485507 -0.505961,-0.458973 -1.153961,-1.099283 -1.44,-1.422915 -1.852937,-2.096452 -6.10237,-3.84266 -9.221826,-3.789504 -3.231482,0.05507 -7.65415,2.383104 -12.072777,6.354953 C 63.463471,98.433664 62.511859,99.2 62.390771,99.2 c -0.616595,0 -2.463293,3.47677 -2.629005,4.94962 -0.139981,1.24416 -0.392701,1.7807 -1.162899,2.46887 -1.426547,1.27462 -1.765501,2.98191 -1.371923,6.91033 0.652793,6.51572 2.066432,9.53619 7.896038,16.87118 6.105014,7.68151 12.372578,10.71826 18.418933,8.92431 z m 10.538079,-2.03198 c 0,-0.16921 0.558925,-0.45816 1.242055,-0.64211 1.733555,-0.4668 2.252364,-1.70614 1.405353,-3.35714 l -0.602384,-1.17416 -1.342512,2.25075 c -1.326608,2.2241 -1.645116,3.23033 -1.022512,3.23033 0.176,0 0.32,-0.13845 0.32,-0.30767 z M 50.418835,109.93018 c 0.593306,-0.44876 0.580279,-0.47028 -0.290476,-0.48 -2.034234,-0.0227 -5.105453,-2.53455 -6.174848,-5.05018 -0.946797,-2.22724 -0.850803,-0.32012 0.115366,2.292 1.017824,2.75177 4.586787,4.57177 6.349958,3.23818 z m -13.138837,-8.12677 c 2.70616,-0.9737 3.460691,-1.4145 5.164716,-3.017263 0.904595,-0.850835 2.212298,-1.964377 2.906006,-2.474537 1.077495,-0.792397 1.318231,-1.19744 1.652036,-2.779588 0.214908,-1.018611 0.654153,-2.739686 0.976096,-3.824611 0.553971,-1.866851 0.5555,-1.980393 0.02854,-2.118195 -1.314845,-0.34384 -0.474084,-3.781453 1.339817,-5.478099 1.185133,-1.108525 0.6896,-6.699123 -1.064361,-12.008135 C 46.89297,65.89599 45.591351,63.485667 43.691089,61.6 c -1.460727,-1.44951 -4.470995,-3.36 -5.294192,-3.36 -0.338067,0 -5.151801,2.826416 -5.436899,3.19231 -0.088,0.112941 -1.168,0.758768 -2.4,1.435175 -1.232,0.676406 -2.670204,1.531933 -3.196008,1.901171 -1.356345,0.952477 -5.199268,3.12103 -6.804811,3.839942 -0.747549,0.334733 -1.35918,0.730733 -1.35918,0.88 0,0.149271 -0.196581,0.271402 -0.436845,0.271402 -1.92044,0 -2.836269,3.196531 -2.741625,9.569139 0.102277,6.886656 2.131055,12.232551 6.27185,16.526535 5.736087,5.948296 10.134085,7.693726 14.986619,5.947736 z m 25.190347,-8.02917 c -0.183005,-1.24688 0.580259,-2.167197 2.02161,-2.437597 1.090275,-0.204537 1.681036,-1.611129 1.115759,-2.656601 -0.301126,-0.556925 -3.208662,2.846035 -3.810818,4.460156 -0.225655,0.60489 -0.542272,1.349847 -0.703591,1.65546 -0.703171,1.332124 -0.345609,1.847411 0.615213,0.886592 0.714435,-0.714439 0.877184,-1.122039 0.761827,-1.90801 z M 53.990166,86.48 c 0.227792,-1.20441 0.217543,-1.686931 -0.03621,-1.704483 -0.194675,-0.01347 -0.623152,-0.07525 -0.95217,-0.137293 -0.540665,-0.101958 -0.578035,0.0393 -0.38846,1.468381 0.40663,3.065321 0.845219,3.184265 1.376844,0.373395 z m 92.409824,-5.86223 c 1.20048,-1.991991 1.81863,-3.386832 2.08436,-4.703322 0.69078,-3.422285 1.29419,-5.568838 2.71955,-9.674448 0.82488,-2.376 1.54509,-4.536 1.60045,-4.8 0.0554,-0.264 0.41921,-1.630432 0.80855,-3.036515 0.55245,-1.995155 0.66948,-3.064362 0.53298,-4.869322 -0.21505,-2.843427 -0.40059,-3.204848 -1.25042,-2.435763 -1.00317,0.907859 -1.36968,1.872605 -2.46996,6.5016 -0.56476,2.376 -1.14386,4.541747 -1.28689,4.812768 -0.14304,0.271024 -0.36659,1.279024 -0.49678,2.24 -0.13019,0.960979 -0.2953,2.035232 -0.3669,2.387232 -0.0716,0.352 -0.26389,1.648 -0.42731,2.88 -0.63435,4.782301 -2.29233,10.88191 -3.37999,12.434749 -0.2572,0.367209 -0.46764,0.812422 -0.46764,0.989363 0,0.319869 1.7888,-1.71217 2.4,-2.726342 z m -91.740675,1.086966 c -0.129961,-1.537891 -0.789264,-1.71887 -1.357517,-0.37264 -0.404176,0.95751 -0.39552,1.090387 0.08371,1.285411 1.139652,0.463783 1.375828,0.294544 1.273805,-0.912771 z M 12.788849,72.64 c 0.141079,0 0.342947,-0.252 0.448598,-0.56 0.10565,-0.308 0.333805,-0.884 0.50701,-1.28 0.26283,-0.600909 0.216853,-0.72 -0.277966,-0.72 -0.62606,0 -1.371909,0.926765 -1.777297,2.208406 -0.202447,0.640039 -0.152322,0.733591 0.300049,0.56 C 12.287948,72.733782 12.647771,72.64 12.788849,72.64 Z M 28.218357,61.356218 c 1.528098,-0.996477 3.256098,-2.072823 3.839999,-2.391879 0.583904,-0.319059 1.486925,-0.864307 2.006717,-1.211664 l 0.945075,-0.631561 -0.945075,-0.202695 C 29.34096,55.905206 24.344665,57.4588 21.912162,60.697363 21.40708,61.369811 20.912913,61.992 20.814013,62.08 c -0.35787,0.318429 -2.574014,4.10401 -2.574014,4.396886 0,0.444813 6.776559,-3.032768 9.978358,-5.120668 z M 79.148085,27.264587 c 1.458909,-1.355523 3.536822,-3.23061 4.61758,-4.166861 4.705613,-4.076429 5.555773,-14.3701318 0.893108,-10.813744 -1.1592,0.884164 -2.467223,3.220881 -4.498323,8.036018 -0.668157,1.584 -1.409597,3.107339 -1.647642,3.385197 -0.238048,0.277858 -0.432813,0.615683 -0.432813,0.75072 0,0.45824 -2.224934,4.937001 -2.553433,5.140024 -0.17961,0.111007 -0.326567,0.342398 -0.326567,0.514203 0,0.565691 1.23352,-0.32336 3.94809,-2.845557 z"
     id="path74"
     inkscape:connector-curvature="0"
     inkscape:export-xdpi="10.410172"
     inkscape:export-ydpi="10.410172" />
</svg>
