<?xml version="1.0" encoding="UTF-8" standalone="no"?>
<!-- Created with Inkscape (http://www.inkscape.org/) -->

<svg
   xmlns:dc="http://purl.org/dc/elements/1.1/"
   xmlns:cc="http://creativecommons.org/ns#"
   xmlns:rdf="http://www.w3.org/1999/02/22-rdf-syntax-ns#"
   xmlns:svg="http://www.w3.org/2000/svg"
   xmlns="http://www.w3.org/2000/svg"
   xmlns:sodipodi="http://sodipodi.sourceforge.net/DTD/sodipodi-0.dtd"
   xmlns:inkscape="http://www.inkscape.org/namespaces/inkscape"
   version="1.1"
   id="svg1109"
   width="159.36"
   height="147.84"
   viewBox="0 0 159.36 147.84"
   sodipodi:docname="letter.svg"
   inkscape:version="0.92.4 5da689c313, 2019-01-14">
  <metadata
     id="metadata1115">
    <rdf:RDF>
      <cc:Work
         rdf:about="">
        <dc:format>image/svg+xml</dc:format>
        <dc:type
           rdf:resource="http://purl.org/dc/dcmitype/StillImage" />
        <dc:title></dc:title>
      </cc:Work>
    </rdf:RDF>
  </metadata>
  <defs
     id="defs1113" />
  <sodipodi:namedview
     pagecolor="#ffffff"
     bordercolor="#666666"
     borderopacity="1"
     objecttolerance="10"
     gridtolerance="10"
     guidetolerance="10"
     inkscape:pageopacity="0"
     inkscape:pageshadow="2"
     inkscape:window-width="3200"
     inkscape:window-height="1745"
     id="namedview1111"
     showgrid="false"
     inkscape:zoom="5.7283813"
     inkscape:cx="68.390613"
     inkscape:cy="81.063173"
     inkscape:window-x="0"
     inkscape:window-y="55"
     inkscape:window-maximized="1"
     inkscape:current-layer="svg1109" />
  <path
     style="fill:#000000;stroke-width:0.31999999"
     d="m 16.641241,121.6 c -0.185721,-3.432 -0.397561,-7.68 -0.470754,-9.44 -0.134783,-3.24094 -0.449931,-7.10599 -1.324489,-16.243834 -0.265502,-2.774108 -0.612088,-6.806108 -0.770189,-8.96 C 13.917707,84.802275 13.56671,81.384 13.295815,79.36 12.968887,76.917341 12.856569,74.335062 12.961768,71.68 13.225665,65.01969 13.177087,61.504595 12.811711,60.821882 11.789783,58.912394 13.412439,57.28 16.332466,57.28 c 2.579452,0 2.467896,0.289661 1.910217,-4.96 C 17.625484,46.510064 17.49438,29.904231 18.0381,26.407316 18.53835,23.189975 19.980649,19.563106 21.349627,18.08 21.67454,17.728 22.265314,16.910069 22.662458,16.262377 23.365189,15.116311 24.747316,13.774439 26.228701,12.8 26.630046,12.536 27.120775,12.172637 27.319209,11.992528 28.651018,10.783708 39.104154,9.9139856 51.52,9.9789706 c 7.547565,0.039504 13.279904,-0.1580656 16.64,-0.573512 6.738195,-0.8331194 30.576506,-1.237385 44.16,-0.7488941 3.608,0.129751 9.03996,0.2758329 12.07102,0.3246262 5.80735,0.093485 10.63063,0.5848506 13.79835,1.4056883 1.04666,0.271217 2.19142,0.493121 2.54392,0.493121 0.35249,0 1.10156,0.396 1.66459,0.88 1.96861,1.692295 4.16212,3.919444 4.16212,4.225953 0,0.170014 0.27771,0.567845 0.61714,0.884069 0.97426,0.907656 1.51215,5.526178 1.01888,8.748416 -0.65231,4.261137 -1.11993,5.385953 -3.22481,7.756858 -1.06216,1.196413 -1.93121,2.296803 -1.93121,2.445309 0,0.148509 -0.396,0.374125 -0.88,0.501369 -0.75913,0.647873 -0.59956,-0.04488 -1.54904,1.310781 -0.63197,0.264055 -1.05547,0.328707 -0.94111,0.143674 0.28971,-0.468765 -0.95921,-0.425479 -1.83419,0.06357 -0.39362,0.22 -0.74356,0.403904 -0.77767,0.408675 -0.0341,0.0048 0.0719,0.604506 0.23549,1.332736 0.16362,0.728234 0.32183,4.39633 0.35156,8.151325 0.0297,3.754995 0.1105,6.98464 0.17946,7.176989 0.12837,0.358038 2.45482,0.348573 8.31796,-0.03385 2.94247,-0.19192 2.94247,-0.19192 3.44822,0.786103 0.27816,0.53791 0.75406,0.982598 1.05754,0.988195 0.50066,0.0092 0.50436,0.0463 0.0399,0.40009 -0.4176,0.318105 -0.52168,1.156009 -0.56512,4.549824 -0.0293,2.287952 -0.17911,5.38391 -0.33292,6.87991 -0.49931,4.856208 -0.17487,11.508646 0.78345,16.064288 0.27024,1.284643 0.6328,4.560922 0.80568,7.280621 0.17289,2.719699 0.37528,5.527699 0.44976,6.24 0.0745,0.712301 0.21978,3.023095 0.32289,5.135095 0.10312,2.112 0.24937,4.488 0.325,5.28 0.0756,0.792 0.21149,3.024 0.30191,4.96 0.55681,11.92135 0.95746,17.96705 1.21265,18.29859 0.19073,0.2478 0.0629,0.60708 -0.37001,1.04 -0.36377,0.36377 -0.66141,0.79503 -0.66141,0.95834 0,0.16331 -1.404,0.30963 -3.12,0.32517 -1.716,0.0155 -3.696,0.16647 -4.4,0.33543 -0.704,0.16896 -1.928,0.31048 -2.72,0.31448 -0.792,0.004 -3.6,0.29123 -6.24,0.63829 -2.64,0.34706 -8.76,0.92642 -13.6,1.28748 -4.84,0.36106 -10.744,0.85403 -13.12,1.0955 -7.08572,0.72012 -12.366358,1.12103 -17.272909,1.31139 -2.548099,0.0988 -4.924099,0.24426 -5.28,0.32313 -0.355901,0.0789 -1.655091,0.21103 -2.887091,0.29369 -1.232,0.0827 -2.816,0.2278 -3.52,0.32252 -7.477418,1.00607 -12.488394,1.10842 -25.424739,0.51925 -4.655607,-0.21203 -8.543607,-0.43311 -8.64,-0.49128 -0.09639,-0.0582 -2.911261,-0.2087 -6.255261,-0.3345 -3.344,-0.12581 -6.168493,-0.28115 -6.276646,-0.3452 -0.108157,-0.0641 -2.700158,-0.11572 -5.760001,-0.11482 -3.059845,9.6e-4 -6.116626,-0.009 -6.792848,-0.0226 -0.676222,-0.0134 -1.441666,0.15183 -1.700985,0.36704 -0.377601,0.31338 -0.668362,0.27501 -1.460133,-0.1927 C 16.948979,133.49828 17.36799,135.05896 16.641241,121.6 Z M 79.68,138.25318 c 4.958614,-0.65559 7.119402,-0.82863 16.16,-1.29408 5.81307,-0.29928 16.41741,-1.15749 17.6,-1.42436 0.352,-0.0794 1.792,-0.22451 3.2,-0.32239 1.408,-0.0979 3.28,-0.24895 4.16,-0.33571 0.88,-0.0867 4.48,-0.37536 8,-0.64135 3.52,-0.26599 7.192,-0.61791 8.16,-0.78205 0.968,-0.16413 2.768,-0.38437 4,-0.48942 3.50409,-0.29878 9.99253,-1.19199 10.37475,-1.42822 0.33643,-0.20792 0.47671,-3.77757 0.21633,-5.50512 -0.0704,-0.46723 -0.21959,-3.34723 -0.3315,-6.4 -0.1119,-3.05276 -0.26839,-6.19848 -0.34774,-6.99048 -0.0794,-0.792 -0.22717,-2.88 -0.3285,-4.64 -0.10131,-1.76 -0.23022,-3.704 -0.28645,-4.32 -0.0562,-0.616 -0.2063,-3.496 -0.33349,-6.4 -0.1272,-2.904 -0.51747,-7.08 -0.86728,-9.28 -1.21775,-7.658816 -1.61889,-16.354995 -0.97423,-21.12 0.13096,-0.968 0.22405,-2.696 0.20687,-3.84 -0.0879,-5.849696 -0.046,-5.77015 -2.18576,-4.151098 -0.69136,0.523104 -1.42973,0.951098 -1.64082,0.951098 -0.2111,0 -0.57182,0.226525 -0.80159,0.503389 -0.22978,0.276864 -0.93141,0.783395 -1.55918,1.125625 -0.62778,0.342231 -1.78941,1.112144 -2.58141,1.710919 -1.91409,1.44711 -6.29812,4.124678 -7.6083,4.646819 -0.57657,0.229773 -1.34238,0.830752 -1.70179,1.33551 -0.35942,0.504756 -0.82706,0.917738 -1.03919,0.917738 -0.21214,0 -1.60634,0.90671 -3.09821,2.014912 -1.49188,1.108198 -3.36051,2.413875 -4.15251,2.901501 -0.792,0.487625 -2.52,1.666614 -3.84,2.619977 -1.32,0.95336 -2.71948,1.874404 -3.10996,2.046759 -0.39048,0.172355 -0.89311,0.606656 -1.11697,0.965113 -0.24623,0.394272 -0.74839,0.651738 -1.27116,0.651738 -0.47528,0 -0.95674,0.149834 -1.06992,0.332966 -0.11318,0.183133 -0.80568,0.70866 -1.53889,1.167837 -0.73321,0.459178 -1.4051,0.927059 -1.4931,1.039735 -0.088,0.112675 -1.672,1.202572 -3.52,2.421996 -3.28866,2.170052 -5.206285,3.804516 -4.86456,4.146237 0.0942,0.09418 -0.0684,0.171229 -0.361366,0.171229 -0.550087,0 -2.310477,1.178275 -6.062832,4.058019 -1.192816,0.915427 -2.452816,1.75457 -2.8,1.864762 C 90.524058,96.592973 90.24,96.820989 90.24,96.989485 c 0,0.168496 -0.326397,0.430451 -0.725328,0.582125 -0.667718,0.253865 -1.628323,0.978348 -5.651754,4.26251 -2.211107,1.80484 -2.7284,1.95691 -4.121203,1.21152 C 79.091773,102.6978 77.624,101.97599 76.48,101.4416 75.336,100.90721 73.248,99.821683 71.84,99.029322 70.432,98.236963 68.972589,97.457088 68.596861,97.296269 68.221136,97.13545 66.925136,96.291085 65.716861,95.419904 64.508589,94.54872 62.656,93.370534 61.6,92.801712 60.544,92.232886 58.96,91.304051 58.08,90.737629 53.495514,87.786778 50.365632,85.748074 50.08,85.526688 49.904,85.390278 48.468006,84.41497 46.888906,83.359334 44.146813,81.526237 43.460246,81.107936 41.562531,80.114128 41.101923,79.872915 40.071824,79.100557 39.273427,78.397779 38.475027,77.695002 37.709171,77.12 37.57152,77.12 37.433872,77.12 37.023968,76.843664 36.660624,76.505923 35.53609,75.460621 29.22556,71.040141 28.857372,71.039798 28.737817,71.03969 27.848,70.421344 26.88,69.665699 25.912,68.910054 23.968,67.578147 22.56,66.705901 21.152,65.833654 18.975272,64.148 17.722827,62.96 c -2.577896,-2.445251 -2.674314,-2.492509 -2.611406,-1.28 0.02511,0.484 -0.07366,2.536 -0.219496,4.56 -0.498517,6.91881 -0.365365,11.456371 0.464815,15.84 0.166656,0.88 0.455471,3.256 0.641811,5.28 0.186339,2.024 0.484799,5.264 0.663243,7.2 0.178444,1.936 0.386092,4.744 0.46144,6.24 0.07535,1.496 0.214486,3.44 0.309197,4.32 0.484664,4.50326 0.79324,9.41719 0.84398,13.44 0.03108,2.464 0.250247,6.568 0.487041,9.12 0.236794,2.552 0.437069,5.67594 0.445055,6.94209 0.01738,2.75569 0.108403,2.81616 3.991493,2.65171 3.976658,-0.1684 9.38935,-0.11603 11.68,0.11301 1.144,0.1144 3.88,0.27874 6.08,0.36521 2.2,0.0865 6.232,0.30964 8.96,0.49593 13.868976,0.94705 22.624816,0.9486 29.76,0.005 z m 6.884173,-41.122754 1.689645,-1.376234 -1.966909,0.0065 c -1.081799,0.0036 -3.558727,-0.172646 -5.504282,-0.391642 -1.945555,-0.218995 -4.105555,-0.316067 -4.8,-0.215712 -0.694445,0.100352 -2.191427,0.187898 -3.326627,0.194544 -2.473738,0.0145 -2.391872,0.135712 1.424,2.108692 2.88,1.489091 2.88,1.489091 6.837264,1.269574 3.957261,-0.219517 3.957261,-0.219517 5.646909,-1.595754 z M 74.88,93.305082 c 3.608,0.01914 8.157949,0.148662 10.110998,0.287846 5.224349,0.37231 6.76618,0.100077 8.924285,-1.575728 l 1.776375,-1.379386 -4.405831,-0.233088 C 88.862624,90.276528 85.512,90.071834 83.84,89.94985 78.610029,89.568291 67.251904,89.821664 64.48,90.381722 c -0.352,0.07112 -0.856,0.142755 -1.12,0.159187 -0.264,0.01642 0.024,0.344313 0.64,0.728627 0.616,0.384314 1.611619,1.094314 2.21249,1.577776 0.702032,0.564858 1.273875,0.79753 1.6,0.651005 0.279129,-0.125411 3.45951,-0.212368 7.06751,-0.193235 z m -9.6,-5.134397 c 8.979923,-0.387159 12.023008,-0.412183 17.12,-0.140775 15.787389,0.840653 15.481114,0.863047 18.4,-1.34527 0.968,-0.732352 2.13114,-1.491994 2.58475,-1.688093 0.74697,-0.322928 3.7739,-2.397814 5.52301,-3.785901 0.65941,-0.523299 0.33879,-0.549859 -6.76037,-0.56 -4.098939,-0.0059 -8.778939,0.124375 -10.400001,0.289402 -1.621066,0.165027 -5.755389,0.388589 -9.187389,0.496806 -3.432,0.108218 -9.696,0.304858 -13.92,0.436976 -4.224,0.132119 -9.048,0.209028 -10.72,0.170909 -3.473997,-0.0792 -8.003104,0.193485 -7.993581,0.481271 0.0035,0.106694 1.69553,1.311993 3.76,2.678444 5.061754,3.35032 5.647578,3.695079 5.833581,3.433056 0.088,-0.123964 2.68,-0.334035 5.76,-0.466825 z m 1.76,-8.007911 c 12.56577,-0.235081 17.528291,-0.4468 22.962922,-0.97968 C 92.886854,78.900317 98.275805,78.72 103.84292,78.72 c 5.86472,0 9.11708,-0.114154 9.11708,-0.32 0,-0.176 0.13889,-0.32 0.30865,-0.32 0.42075,0 4.97,-2.772266 6.67586,-4.068195 L 121.32902,72.96 118.66451,72.9673 C 117.19903,72.9713 114.2,73.116129 112,73.289156 c -2.2,0.173027 -5.8,0.387088 -8,0.47569 -2.2,0.0886 -4.792,0.247254 -5.76,0.35256 -3.619021,0.393692 -56.341146,0.656092 -58.765904,0.292476 -1.661203,-0.249113 -1.764669,0.07689 -0.354096,1.115716 0.572,0.421251 1.184,0.878896 1.36,1.016988 0.176,0.13809 1.597245,1.104599 3.15832,2.147799 l 2.83832,1.896723 5.80168,-0.128336 C 55.469245,80.388147 62.112,80.254966 67.04,80.162774 Z m 8.16,-7.462592 c 13.810157,-0.07679 25.58533,-0.480022 34.90537,-1.195292 6.51555,-0.500039 12.54668,-0.64354 13.08423,-0.311319 0.44868,0.277296 1.86435,-0.530073 3.5795,-2.041414 0.81901,-0.721687 1.63501,-1.312157 1.81334,-1.312157 0.17832,0 0.37223,-0.113677 0.43089,-0.252618 0.10677,-0.252851 3.33963,-2.307382 3.63074,-2.307382 0.0849,0 0.86716,-0.512035 1.73826,-1.137856 1.41564,-1.017037 1.57084,-1.246384 1.46164,-2.16 -0.19449,-1.627245 -0.25462,-5.931584 -0.18749,-13.421264 0.0343,-3.827517 -0.0101,-7.076474 -0.0988,-7.219907 -0.50357,-0.814797 -1.4757,-10.464198 -1.53746,-15.260973 -0.10042,-7.798314 0.44288,-12.018724 1.69281,-13.149888 0.93502,-0.846189 0.76935,-0.996136 -1.54617,-1.399365 C 126.47664,10.191552 78.989763,9.9563149 68.48,11.205351 65.932326,11.50813 57.875866,12.005482 56.8,11.926396 c -9.185334,-0.675208 -24.363651,0.34402 -28.48,1.912439 -3.419526,1.302914 -7.653452,7.816538 -8.454806,13.007179 -0.834918,5.40804 -0.147811,25.943912 1.012934,30.273986 0.188718,0.704 0.309798,2.36 0.269067,3.68 -0.07406,2.4 -0.07406,2.4 0.989374,3.022045 0.584887,0.342121 1.253717,0.810121 1.486288,1.04 0.232571,0.229875 0.617542,0.417955 0.855489,0.417955 0.237948,0 1.099225,0.508822 1.91395,1.130714 7.49347,5.719897 7.948706,5.878678 17.767704,6.197228 6.10095,0.197927 9.967418,0.209418 31.04,0.09224 z M 32.72,66.368294 C 32.248419,66.154163 32.182234,64.762915 32.630451,64.485901 32.92488,64.303933 36.289738,64.232989 64,63.824499 c 6.424,-0.0947 14.704,-0.309603 18.4,-0.477565 3.696,-0.167961 11.832,-0.378147 18.08,-0.467075 6.248,-0.08893 13.736,-0.250806 16.64,-0.359731 9.30555,-0.349034 10.88,-0.284941 10.88,0.442896 0,1.131901 -1.04634,1.345594 -6.55762,1.339242 -2.9177,-0.0034 -5.43115,0.07191 -5.58545,0.167267 -0.15429,0.09536 -2.99322,0.168009 -6.30873,0.161446 -7.68832,-0.01523 -7.83235,-0.01168 -8.54827,0.210973 -0.4165,0.129523 -0.52706,0.06846 -0.36139,-0.199594 0.18234,-0.29503 0.0839,-0.303395 -0.41674,-0.03543 -0.360491,0.192928 -0.867304,0.269475 -1.126251,0.170109 -0.258947,-0.09937 -0.566119,-0.02646 -0.682602,0.162013 -0.127209,0.205833 -0.427667,0.236604 -0.752368,0.07706 -0.589264,-0.28955 -5.917158,-0.24436 -12.220579,0.103647 -2.2,0.121459 -7.744,0.276406 -12.32,0.344323 -4.576,0.06792 -10.624,0.203901 -13.44,0.302179 -2.816,0.09828 -9.008,0.235581 -13.76,0.305107 -4.752,0.06953 -9.576,0.205648 -10.72,0.302487 -1.144,0.09683 -2.26,0.09434 -2.48,-0.0056 z M 31.899423,58.119466 C 31.335621,56.650218 31.058082,56.697469 51.52,54.778998 c 1.32,-0.123763 5.712,-0.203225 9.76,-0.176585 4.048,0.02662 8.296,-0.06985 9.44,-0.214432 1.144,-0.144576 3.592,-0.343088 5.44,-0.441136 8.034646,-0.426295 12.406611,-0.617786 13.6,-0.59568 6.091152,0.112825 24.01677,0.04941 30.8,-0.108963 8.4,-0.196119 8.4,-0.196119 8.4,0.488758 0,0.948634 -1.09231,1.290016 -4.07204,1.272637 -1.36838,-0.008 -7.52796,0.06739 -13.68796,0.167504 -13.278096,0.215785 -13.425827,0.21679 -16.400147,0.111235 -1.276083,-0.04528 -2.320083,0.03072 -2.32,0.168922 -7.032872,0.08704 -15.080806,-0.607851 -22.239853,0.761426 -0.352,0.07967 -4.672,0.197376 -9.6,0.261558 -4.928,0.06418 -9.608,0.185604 -10.4,0.269828 -0.792,0.08422 -2.664,0.248012 -4.16,0.363977 -1.496,0.115965 -4.304,0.427895 -6.24,0.693178 -6.200173,0.84959 -7.713405,0.910237 -7.940577,0.318237 z M 38,50.383696 c -0.633642,-0.661002 -0.239306,-1.743706 0.64,-1.757222 4.236403,-0.06511 11.593741,-0.619812 13.450688,-1.014109 1.961949,-0.416589 2.598355,-0.110375 2.019296,0.971609 C 53.574477,49.584579 54.315802,49.480013 40.96,50.4388 39.464,50.546192 38.132,50.5214 38,50.3837 Z m 65.04783,-4.938858 c -0.21661,-0.133872 -0.28044,-0.562246 -0.15703,-1.053923 0.20328,-0.809952 0.27664,-0.830694 3.29855,-0.932589 1.69986,-0.05732 3.27065,-0.05148 3.49065,0.01296 0.59312,0.173757 0.48461,1.261264 -0.16,1.603524 -0.70232,0.372896 -5.97937,0.674592 -6.47217,0.370022 z M 94.682947,42.035354 C 93.482461,40.588858 96.842509,39.557376 104.96,38.88047 c 1.144,-0.0954 2.8,-0.240108 3.68,-0.32158 1.87747,-0.173821 6.06237,-0.401156 11.76,-0.638832 4.08,-0.170199 4.08,-0.170199 4.08,0.593001 0,0.976931 -0.66388,1.090999 -6.56,1.127117 -4.44482,-0.750047 -5.06133,0.21318 -7.80103,0.495763 -0.21835,0.134947 -1.76346,0.344928 -4.99893,0.679357 -3.22315,0.333158 -4.99041,0.591421 -7.450614,1.088813 -2.126634,0.429952 -2.717002,0.455897 -2.986439,0.131245 z M 32.372576,33.183347 c -0.951169,-1.146086 -0.10743,-1.761081 2.456778,-1.790734 2.309536,-0.02671 3.963552,-0.147499 4.690646,-0.342556 0.816323,-0.218995 1.44,0.03687 1.44,0.590761 0,0.954136 -0.599462,1.198571 -3.901306,1.590788 -3.911372,0.464621 -4.263478,0.460992 -4.686118,-0.04826 z m -4.684649,-4.49798 c -0.87021,-0.636313 -0.36444,-1.74492 0.890109,-1.951044 C 29.687599,26.55202 32.61505,26.237689 42.24,25.26739 c 3.432,-0.345983 7.392,-0.767042 8.8,-0.935687 4.650454,-0.557013 5.110339,-0.566075 6,-0.11824 1.009622,0.508221 1.089302,0.814468 0.367718,1.413329 -0.644035,0.534502 -1.49454,0.670498 -1.737248,0.277787 -0.114771,-0.185703 -1.397552,-0.171529 -3.367923,0.03721 -1.750403,0.185439 -3.758547,0.395084 -4.462547,0.465878 -6.606605,0.664353 -18.947267,2.297246 -19.379247,2.564224 -0.113557,0.07018 -0.461329,-0.05876 -0.772826,-0.286528 z m 0.04541,-6.8187 C 27.616,21.749333 27.52,21.265048 27.52,20.790478 c 0,-0.824968 0.08782,-0.871144 2,-1.051614 1.1,-0.103817 2.648,-0.252667 3.44,-0.330778 0.792,-0.07811 3.168,-0.235414 5.28,-0.349562 2.112,-0.114147 4.632,-0.280143 5.6,-0.368879 3.193523,-0.292751 10.287171,-0.210474 10.620832,0.123187 0.808544,0.808543 -0.06517,1.738529 -1.452426,1.545973 -1.901324,-0.26391 -6.906595,-0.327282 -7.143436,-0.09044 -0.109991,0.109991 -0.538282,0.115076 -0.95176,0.0113 -0.413479,-0.103777 -1.0041,-0.0813 -1.312493,0.04994 C 43.292323,20.460843 42.392,20.60144 41.6,20.642039 c -4.903747,0.251369 -8.116538,0.560591 -10.08,0.970171 -2.457122,0.512557 -3.4611,0.580023 -3.786667,0.254456 z M 19.06415,60.575328 C 18.962748,59.62424 18.626825,59.3868 17.970506,59.802317 c -0.35822,0.226787 -0.358722,0.385235 -0.003,0.954797 0.601205,0.962684 1.207966,0.862105 1.096669,-0.181786 z m 121.22677,-0.363075 c 0.896,-0.675258 1.95308,-1.400327 2.34908,-1.611258 1.33349,-0.710294 0.75267,-1.000995 -2,-1.000995 -3.04186,0 -2.96441,-0.08131 -2.51461,2.64 0.24305,1.470413 0.17652,1.471264 2.16553,-0.02774 z M 138.2412,36.068742 c 6.4e-4,-0.213808 0.68309,-0.669248 1.51652,-1.012089 2.25142,-0.926151 5.27648,-4.140191 5.9391,-6.310137 1.00195,-3.281145 1.04909,-3.700778 0.3511,-3.125345 -3.7727,3.110242 -4.29174,3.623006 -3.98147,3.933278 0.5651,0.565097 0.37376,0.845551 -0.57685,0.845551 -1.61131,0 -2.15954,1.019218 -1.00668,1.871555 1.8189,1.344775 1.09994,1.995485 -1.42902,1.29337 -1.95187,-0.541901 -2.54785,0.38896 -2.12967,3.326333 0.0565,0.396921 1.31563,-0.389469 1.31697,-0.822516 z M 136.704,32.896 c -0.29867,-0.298666 -0.384,-0.213334 -0.384,0.384 0,0.597334 0.0853,0.682666 0.384,0.384 0.29867,-0.298666 0.29867,-0.469334 0,-0.768 z m 2.51704,-2.187259 c 0.34043,-0.182192 0.61896,-0.443521 0.61896,-0.580732 0,-0.445639 -2.29004,-1.355255 -2.91367,-1.157323 -0.91427,0.290179 -0.73016,0.931573 0.43367,1.510792 1.28635,0.640194 1.12604,0.620619 1.86104,0.227263 z m 3.68405,-4.362711 c 2.786,-2.503353 2.76051,-2.430889 1.01865,-2.895817 -1.61349,-0.430666 -2.25444,-0.083 -1.96596,1.066402 0.10538,0.419862 0.068,0.775385 -0.0831,0.790052 -1.43457,0.139266 -1.82674,0.287042 -2.53999,0.957098 -0.81998,0.77033 -0.81998,0.77033 0.0205,1.493283 1.08762,0.935536 0.82,1.041911 3.54988,-1.411018 z m -4.82331,-0.747992 c 0.31953,-0.353079 0.52185,-0.683068 0.44959,-0.73331 -2.48428,-1.727433 -2.7172,-1.782422 -2.70301,-0.638158 0.0214,1.726642 1.25342,2.476455 2.25342,1.371468 z m 2.95457,-3.107094 C 141.14062,22.17814 137.93592,20.48 137.24133,20.48 c -0.73222,0 -0.1378,0.666784 1.18206,1.325954 0.80487,0.401969 1.53806,0.851672 1.62932,0.999341 0.21106,0.34149 0.83108,0.143345 0.98364,-0.314351 z m 5.3899,-0.798931 c -0.28342,-1.772416 -0.34761,-1.803737 -1.47766,-0.721078 l -0.96474,0.924277 1.04807,0.558981 c 1.50914,0.804883 1.634,0.736635 1.39433,-0.76218 z m -2.99814,-1.437265 c 0.90313,-0.865251 0.90313,-0.865251 -1.38337,-1.772597 -2.1595,-0.856948 -2.31978,-0.87723 -2.88562,-0.365152 -0.78417,0.709657 -0.75591,1.035024 0.12088,1.391904 0.396,0.161184 1.152,0.588671 1.68,0.949971 1.23441,0.844681 1.38652,0.8321 2.46811,-0.204126 z M 136.77266,18.24 c 0.61442,0 1.63251,-1.246347 1.28378,-1.571595 -1.28752,-1.200804 -2.1401,-0.280994 -2.01286,2.171595 0.0391,0.753693 0.0578,0.766022 0.18225,0.12 0.0763,-0.396 0.32235,-0.72 0.54683,-0.72 z m 8.34153,0.329398 c 0.29682,-0.480261 -0.62723,-2.012438 -1.68171,-2.788449 -0.86256,-0.634776 -1.01254,-0.655175 -1.63119,-0.221855 -0.92573,0.648405 -0.8601,0.923124 0.35871,1.501556 0.572,0.271464 1.328,0.783314 1.68,1.137442 0.72929,0.733703 1.00124,0.81295 1.27419,0.371306 z m -4.89939,-3.738994 c 1.24037,-1.122519 -0.0495,-2.063684 -1.87259,-1.366363 -0.90221,0.345086 -0.90221,0.345086 -0.004,1.120523 1.06586,0.920547 1.12313,0.928048 1.87696,0.24584 z"
     id="path1119"
     inkscape:connector-curvature="0"
     sodipodi:nodetypes="cssssscssssssssssssscscscsccccccccscccccccccccccscsssssccccscccccccccscccscccccccccccccsccsccscscscscscccsssscccsccccsccccsccssscsssscsssscccccccccsccsscccsscssccscccssscccsssscscsssssscccsscscccccssscsscsccccccsssssscccscssccssssscccccccccsssscccccccsssscccccscsscccccsccccccccccccsssccsscccssssccsssssccsccccsscsssscccsscccccccccsccccccccsccccsscscscsccccccscccccccscccscccssscsssscccscccsccccccc"
     inkscape:export-xdpi="347.18631"
     inkscape:export-ydpi="347.18631" />
</svg>
